<?xml version="1.0" encoding="utf-8"?>
<!-- Generator: Adobe Illustrator 19.0.0, SVG Export Plug-In . SVG Version: 6.00 Build 0)  -->
<svg version="1.1" id="Layer_1" xmlns="http://www.w3.org/2000/svg" xmlns:xlink="http://www.w3.org/1999/xlink" x="0px" y="0px"
	 viewBox="0 0 1919.1 1077.7" style="enable-background:new 0 0 1919.1 1077.7;" xml:space="preserve">
<style type="text/css">
	.st0{fill:#FFFFFF;}
	.st1{fill:#202020;}
	.st2{fill:#222222;}
	.st3{fill:#63CCF0;}
	.st4{fill:#62CCF0;}
	.st5{fill:#63CAEE;}
	.st6{fill:#61CBEF;}
	.st7{fill:#202121;}
	.st8{fill:#63CCEF;}
	.st9{fill:#61CCEF;}
	.st10{fill:#212020;}
	.st11{fill:#62CCEF;}
	.st12{fill:#62CAEE;}
	.st13{fill:#65CCF0;}
	.st14{fill:#65CDF0;}
	.st15{fill:#6ACEF0;}
	.st16{fill:#243033;}
	.st17{fill:#212121;}
	.st18{fill:#222B2D;}
	.st19{fill:#232F32;}
	.st20{fill:#212222;}
	.st21{fill:#212425;}
	.st22{fill:#222221;}
	.st23{fill:#283C40;}
	.st24{fill:#336E7D;}
	.st25{fill:#222121;}
	.st26{fill:#21292C;}
	.st27{fill:#388497;}
	.st28{fill:#212120;}
	.st29{fill:#326B7A;}
	.st30{fill:#FBFEFF;}
	.st31{fill:#FAFDFE;}
	.st32{fill:#FDFEFF;}
	.st33{fill:#FBFDFE;}
	.st34{fill:#FAFDFF;}
	.st35{fill:#F8FCFE;}
	.st36{fill:#F6FCFE;}
	.st37{fill:#253A3F;}
	.st38{fill:#222C2F;}
</style>
<g id="XMLID_2_">
	<g id="XMLID_181_">
		<path id="XMLID_355_" class="st0" d="M1920.2,764.7c0,9.2,0,18.5,0,27.7c-0.8,0.1,0.2,0.2-0.5,0.2c-12.1,0.8-10.4,1.8-10.5,12.3
			c-0.2,21.6,0.2,43.1-0.2,64.7c-0.2,9.6,0.3,19.1,0.1,28.7c0,2.6,0.5,5.5-1.9,7.5c-0.7,0.6-1.3,0.6,0,1.1c3.2,1.3,3.1,4.2,3.1,6.8
			c0,11.5,0,23.1,0,34.6c0,2.6,0.6,6.1-3.9,6.2c2.1,0.6,3.4,2.1,3.8,4.2c0.5,2.3,1.4,4.4,3.7,5.5c2.1,1,4.6,0.8,6.4,2.6
			c0,6.2,0,12.3,0,18.5c-3.1,0.4-6.2-1-9.4,0.6c-1.3,0.7-2.8-0.3-2.8-1.1c0.3,1.2,2.1,2.8,3.9,2c4.9-2.2,6.4,1.1,8.3,4.3
			c0,27.7-0.1,55.4,0.1,83.2c0,4-0.8,4.7-4.7,4.7c-179.8-0.1-359.6-0.1-539.4-0.1c-3-8.9-3.3-18.1-2.6-27.2
			c0.4-4.8,0.8-9.6,0.8-14.4c0-24.6,0-49.3,0-73.9c0-19.8,1.7-39.6,1.2-59.4c-0.8-34.8-2-69.6-2.7-104.4
			c-1.2-53.1-0.1-106.2-0.8-159.3c-0.1-5.4,0-10.8-0.8-16.1c-0.9-6.1,1.1-10.9,6.6-14.1c10.3-6.1,20.8-11.6,32-15.8
			c3,0.1,2.5,2.3,2.5,4.1c0,5.3-0.4,10.7,0.4,16c0.5,2.9-0.9,4.6-5.2,5.4c3.9,0.3,5.2-1,6.1-2.8c1.6-1.1,2.4,0.1,3.3,1.2
			c4.4,2.8,6.4,2,7.3-2.7c0.3-1.6,0.1-3.4,1.4-4.7c3.5,0.3,6.5-2.6,10-1.5c0.9,5.2,0.9,5.2-2.5,9.2c3.7-0.8,3.8-3.5,3.4-6.2
			c-1.9-11.4-0.1-22.9-1.1-34.3c-0.2-2.2,0.3-4.3,3.4-3.7c2.3,4.5,0.9,9.4,1.2,14.1c0.2,2.3,0,4.6,0.1,6.9c0.2,6.4,0.6,6.9,7.6,8.5
			c2.8,6.4,2.2,10.1-2.3,13.6c3.5,0.6,4.2-1.5,4.1-4.3c-0.2-7.4,0.4-14.9-0.7-22.3c-1-7.2-0.4-14.5-0.2-21.8
			c0.1-4.2,7-11.2,11.2-11.9c1.9-0.4,2.5,0.5,2.3,2.2c-0.3,2.1-1.6,3.5-3.3,4.5c-2.8,1.6-3.8,4.1-4.3,7.1c-0.7,1.8-1.7,3.5-1.4,5.5
			c1.4,8.3,0.5,16.7,0.9,25c0.3,5.4,1.4,6.2,7.1,6.2c2.8,5.2,2.2,6.9-3.3,9.1c4.8-0.5,4.7-0.5,4.9-5c0.1-1.9-0.4-3.8,0.5-5.6
			c0.4-0.5,1.1-0.9,1.4-0.5c3.3,3.2,6.4,3.2,9.7,0.1c0.4-0.4,1.1-0.1,1.5,0.3c1.4,7.3,1.1,7.9-5.2,9.8c5.4-0.4,5.4-0.4,5.9-5.7
			c0.2-1.5,0-3.1,1.8-3.8c5.1,0,6.9-2.7,6.9-7.6c-0.1-12-0.1-24.1,0-36.1c0-3.6-1.7-6.6-2.8-9.8c-0.1-1.4-0.2-2.9,1.2-3.5
			c1.7-0.7,2.9,0.7,3.8,2c2.3,3.5,3.3,7.3,3.4,11.4c0.1,10,0,20,0.1,29.9c0,4.8-0.2,9.6,0.5,14.4c0.6,3.9-0.4,6.9-6.2,7.4
			c5.6,0.7,6.5-1.8,6.3-5.5c-0.3-6.3-1.5-12.6,0.4-18.8c3-1.6,2.9,1,3.2,2.6c0.5,2.6,0.1,5.3,0.3,8c0.4,6.2,2.3,7.2,7.8,4.1
			c0.5-0.3,1-0.4,1.6-0.5c3.2,5.6,2.3,7.2-5,9.6c6.2-0.1,7-0.6,6.7-6.3c-1.1-19.4,0.5-38.9-1.4-58.2c-0.5-4.8-0.3-9.6,0.6-14.4
			c0.7-3.6,0.7-7.2-0.2-10.9c-0.8-3.2-1-6.5,0.5-9.6c0.8-1.6,2.1-3,4.1-2.6c2.1,0.4,1.6,2.4,1.6,3.8c0,4.4-0.1,8.9-0.2,13.3
			c0,1.2,0.5,2.2,0.8,3.3c1.3,6.9,0.5,13.8,0.6,20.7c0.1,13.2-0.1,26.5,0.1,39.7c0.1,6.7,0.9,7.5,7.4,8.1c3.6,7.3,2.8,9.4-4.6,12
			c4.8,0,7.5-1,6.6-6.4c-0.7-3.6-0.1-7.3-0.1-10.9c0.1-29.6-1.6-59.1-1.6-88.6c0-5.9,2.8-8.8,7-11.4c0.9-0.6,2.1-1.3,3.1-0.3
			c1,1,0.4,2.2-0.2,3.2c-1.8,2.8-3.2,5.7-2.9,9.2c0.2,5-0.7,10.1,0.8,15.1c0.7,10.1,1.3,20.3,1.4,30.4c0.1,13.2,1.7,26.4,1.4,39.7
			c-0.1,4.1,0.9,7.7,5.6,8.8c3.6,5.7,2.6,7.4-5.5,10c6.8,0,7.3-0.5,7.3-6.8c0-1.5-0.2-3.1-0.2-4.6c0.3-8.2-0.8-16.4-0.4-24.6
			c0.2-5.3,0-10.7,0.1-16c0.7-34.8-2.4-69.5-0.7-105.6c-5.4,3.6-10.2,5.9-10,12.4c0,1,0,1.9-0.3,2.9c-0.3,1-0.4,2.5-2,2.3
			c-1.1-0.1-1.2-1.3-1.6-2.2c-0.6-1.7,0.3-4.4-2.2-4.8c-2.3-0.3-3.6,2-4.9,3.6c-1.9,2.2-3.2,4.8-4.7,7.3c-1.8,3-3.7,6.1-6.8,7.7
			c-11.7,6.1-19.6,16.7-29.7,24.6c-1.7,1.4-3.5,4.4-5.6,3c-2.6-1.8,0-4.5,0.9-6.6c0.9-2.1,2.3-4,2.9-6.3c-1,2-1.9,4.1-4,5.3
			c-2.2,1.2-4.6,2.2-7.1,1.9c-2.6-0.2-4.7-1.6-6.8-2.9c-3.1-1.9-6.2-3.8-9.2-6c-0.5-0.3-1-0.7-1.5-1.1c-6-6.2-12.1-12.4-18-18.7
			c-12.8-13.7-14.8-29.8-12.9-47.3c0.8-7.4,3.3-14.2,6.6-19.9c-7.8,10.7-15.9,22.1-25.8,32c-5.5,5.5-13.4,6.5-20.6,8.1
			c-3.2,0.7-3.7-2.3-3.9-5.1c-2.4-39,0.7-78.1,0.4-117.1c-0.1-6.2,0-12.3,0-18.5c0-3-0.7-5.7-2.8-7.9c-2.9-2.9-5.5-2.6-7.2,1.1
			c-1.7,3.8-1.8,7.8-1.9,11.9c-0.4,37.9,2,75.8,1.2,113.7c-0.2,7.7-0.4,15.4,0.3,23.1c0.3,3.1-0.7,5.3-3.5,6.5
			c-10.6,4.7-20.1,11.3-30.2,16.9c-4.3,2.4-8.5,3-13.3,1.6c-4.5-1.3-8.8-2.8-13.1-4.5c-8.5-3.3-17.2-5.6-26.3-5.8
			c-6.4-0.2-12.4-1.8-17.8-5.7c-8-5.7-16.5-10.4-26.9-10.8c-6.2-0.2-10.8-4.8-15.1-8.9c-4.9-4.7-10.4-7.8-17.2-8.5
			c-4.5-0.5-8.5-2.2-12.4-4.5c-16.2-9.6-33.2-17.9-50.9-24.5c-3-1.1-5.5-2.6-7.6-5c-1.9-2.2-3.7-4.7-6.1-6.1
			c-8-4.5-11.3-12-14.3-20.1c-3.8-10.6-11.4-18.8-19.5-26.1c-7.6-6.7-16.6-8.6-26.3-4.4c-4.8,2.1-10.4,2.3-13.8,7.3
			c-1,1.4-3.2,2-5,2.8c-1.4,0.6-3.1,1.4-4.3,0c-1.4-1.6,0.4-2.7,1-4c0.3-0.5,0.7-1,0.2-1.9c-3.1,0.3-6,2.1-9.2,2.4
			c-3.5,0.4-6.5,1.5-10.2-1.2c-3.3-2.3-8.1,0.3-12.2,1.3c-0.5,0.4-0.9,0.7-1.4,0.9c-1.4,0.7-2.9,1.4-4.4,0.9
			c-14.1-4-27.9-0.9-41.5,2.3c-13.1,3.1-26,2-38.9-0.4c-2-0.4-3.6-1.2-5-2.7c-5.9-6.2-13.3-10.5-20-15.6c-3.2-2.5-4.3-1.8-6,2
			c-2.8,6.4-2.7,13.2-3.9,19.7c-1.6,8.2-4.5,15.5-10.9,21.2c-4.1,3.7-5.1,9-7,13.7c-4.4,11-10,21.7-10,34.1c0,1.8-0.4,3.7-1.6,4.9
			c-7,7.4-1.7,16.7-3.8,24.9c-0.4,1.4,1,2.9,1.8,4.2c1.3,2.2,1.2,4.4,0.6,6.7c-1.2,4.2-2.5,4.7-6,1.7c-6.4-5.5-10.4-12.8-14.1-20.2
			c-3.7-7.4-7.8-14.6-15.1-19.3c-3.7-2.4-7.1-4.9-11.1-0.5c-1.1,1.2-3.3,1.8-4.7,0.2c-1.3-1.5,0.2-3,1.3-3.9
			c8.4-6.5,12.8-16.3,20.2-23.6c2.9-2.8,5.7-6,9.6-7.2c9.5-3.2,18.5-7.1,27.4-12.7c-9,6.7-18.3,4.8-27.6,2.2
			c-1.5-0.4-3.1-0.2-4.6-0.2c-4.5,0.1-8.1-1.1-8.6-6.4c-0.2-1.7-1.2-2.8-2.7-3.4c-0.9-0.3-2.2-0.5-2.5-1.4c-2-5.6-5.9-7.4-11.5-6.3
			c-0.7,0.1-1.9-0.7-1.8-1.2c0.8-4.4-2.8-3.7-5.1-4.6c-1.4-0.6-3.5-1.7-2-3.2c5.7-5.4-2.6-5.9-2.9-5.9c-15.1-0.5-16.5-12.8-19.1-23
			c-1.6-6.3-3.7-12.8-3.2-19.5c0.8,14.9,3.2,29.4,12.2,42c1,1.4,2.1,2.8,2.4,4.6c0.5,2.7-0.5,5.1-2.7,6.6c-1.9,1.3-3.1-0.6-4.2-1.9
			c-1.1-1.3-2.5-1.7-4.1-1.8c-1.6-0.1-3.1-0.3-3.6-2.2c-1.4-5.4-5.9-3.9-9.9-5.5c2.6,7.7-1,14.6-6.8,14.3c1.3,3.1,1.2,6.3,2.7,9.3
			c2.4,5,1,6.7-5.1,6.4c-3.1-0.2-6.4-1.3-7.1,3.3c-0.1,0.5-1.9,0.4-0.4,1.2c1.6,0.8,3.7,1.4,2.5,3.6c-1.1,2.1-3.5,2.1-6.3,1.4
			c3.4,4.3,4.7,8.9,6.2,13.5c0.8,2.5,1.2,5.2-1.6,6.6c-2.5,1.2-3.7-1.2-5.1-2.7c-6.1-6.7-12.3-13.3-19.4-18.9c-2.8-2.2-4.7-5-6-8.2
			c0.2,7.9,4.2,14,9.5,19.4c11.7,12,23.8,23.5,35.5,35.5c5.7,5.9,5.6,5.7,0.2,11.7c-6.3,6.9-10.7,15-12.7,24.3
			c-3.4,15.7-8.3,30.8-16.5,44.6c4.6-4.9,4.6-4.9,6.6-12.7c0.8-3.2,2.5-4.8,6-5.1c12.7-1.1,12.8-1.2,12.4,11.9
			c-0.2,7.4-1.6,14.6-4.2,21.4c-8.1,21.8-12.9,44.4-15,67.4c-2.2,23.9-3.1,48,0.5,71.9c0.3,2.3,0.2,4.6,0.5,6.9
			c1,7.9,0.6,8.7-6.7,11.6c-3.4,1.4-7,2-10.4,3.4c-4.3,1.7-7-1.1-9.5-3.7c-8-8.3-15.9-16.8-24.9-24c-5.4-4.4-10.8-8.7-16.1-13.1
			c-5.4-4.5-5.5-4.9-1.3-10.3c0.5-0.6,1-1.2,0.8-2.2c-2.1-0.1-4,0.7-6,1.3c-5.2,1.4-6,1-5.4-4.1c1-8.3,1.3-16.7,4.2-24.9
			c2.8-7.9,3.2-16.5,5.2-24.7c0.8-3.1-1.4-5.5-2.8-7.9c-0.5-0.8-1.2-1.5-1.6-2.4c-1.3-2.3-4-5.1-2-7.2c2.2-2.2,3.9,2,6.2,2.5
			c-0.4-1.3-1.5-2.2-2.4-3.2c-2.8-3.3-3.8-6,1.1-8.7c2.9-1.7,4.9-4.8,6.8-7.7c1.4-2.2,2.4-4.8,1.1-7.1c-5.4-9.4-0.6-17.6,3.2-25.6
			c1.5-3.2,2.1-5.8,1.1-9.2c-1.7-5.8,0.3-8.8,6.1-10c0.9-0.2,1.9-0.3,2.8-0.5c10-1.8,11.3-4.3,6.9-13.4c-1.2-2.6-0.5-5.1,1-7.1
			c5.8-8.2,6.6-18.4,11.3-27c0.8-1.5,0.6-3.4,0.5-5.1c-0.3-9.2-0.3-18.4-0.7-27.7c-0.3-8.6,0.7-17.2-0.5-25.8
			c-0.2-1.5,0.1-3-0.9-5.2c-4.7,7-7.9,14.2-11.2,21.3c-4.6,9.7-9.1,19.6-12.9,29.6c-2.4,6.4-3.9,13.1-7.3,19.2c-1.5,2.7-3,5.1-5.7,7
			c-4.4,3.1-8.1,7.1-10.7,11.9c-1.1,2-2.3,4-3.9,5.7c-4.6,4.8-5.8,4.9-10.5-0.1c-1.4-1.6-3.4-2.9-4.9-3.5c-4.1-1.6-3.1-3.5-1-5.4
			c2.6-2.3,5-4.8,7.6-7c2.8-2.4,6.2-5.1,7.5-8.2c1-2.5,4.5-1.4,4.2-4.4c-0.4-3.4,2.7-4.8,4.4-7.1c1.1-1.5,2.5-2.8,3.1-4.1
			c-8.8,7.1-18.5,13.6-28,20.6c-5.9,4.3-11.6,8.9-17.9,12.6c-3.1,1.9-6.3,5-10.3,1.2c-1.2-1.1-2.4,0.6-3.6,1
			c-7.7,2.6-13.6,7.9-19.3,13.3c-6,5.7-13.8,9.2-19.3,15.5c-1.3,1.5-3.5,3.9-5.3,2c-1.9-2,1.1-3.5,2.4-5.4c-4.5,2.2-7.3,6-10.7,9.1
			c-1.5,1.3-2.2,3.8-4.9,3.4c0-168.8,0-337.7-0.1-506.5c0-4.3,1-5.3,5.3-5.3c454.7,0.1,909.4,0.1,1364.1,0c4.3,0,5.3,1,5.3,5.3
			c-0.2,41.4-0.1,82.8-0.1,124.2c-1.9,1.8-4.5,2.1-6.9,2.7c-11.8,2.8-23.3,6.6-34.4,11.6c-4.8,2.1-6.9,5.2-6.9,10.7
			c0,22.1,0.3,44.2,2.2,66.2c0.4,4.1-0.9,7.6-2.8,11c-14.5,25.6-28.9,51.3-43.3,76.9c-2.8,5-5.4,10.2-8.5,15.1
			c-1.4,2.2-1.9,4.5-1.9,7.1c0.3,8.7,0,17.3,0.1,26c0.1,6.8,1.1,8.1,7.7,9.1c22.8,3.6,44.9,0.3,66.2-8c7.9-3.1,15.8-6.1,23.1-10.5
			c1.6-1,3.4-2.1,5.3-0.6c0,122.1,0,244.1,0,366.2c-1.4,0.8-1.4,1.5,0,2.3c0,7.3,0,14.6,0,21.9c-1.4,0.8-1.4,1.5,0,2.3
			c0,7.3,0,14.6,0,21.9C1918.8,763.1,1918.8,763.9,1920.2,764.7z"/>
		<path id="XMLID_354_" class="st1" d="M1005,346.9c0.6-0.9,0-2.5,1.7-2.6c4.3-0.4,8.7-0.9,13-1.1c1.2-0.1,5.1-1.2,1.8,2.5
			c-0.4,0.5,0.5,1.3,1.5,0.8c4.3-2.3,9.8-0.5,13.9-4.3c0.9-0.9,4.4-1.2,5.3,0.5c1.4,2.4-0.9,3.5-3,4.4c-1,0.4-1.6,1.6-3.2,3.4
			c5.3-1,8.5-4.1,12.3-5.8c1.2-0.5,0.6-1.2-0.5-1.8c-1.1-0.5-0.9-2,0.2-1.9c7.3,1,13.1-4.5,20-4.8c11.2-0.5,19.2,5.3,26.2,13.2
			c8.2,9.4,14.6,19.7,17.5,31.9c0,0.2,0.1,0.5,0.2,0.5c8.4,4.6,13,14,21.9,17.8c18.2,7.7,36.3,15.4,53,26.1
			c4.1,2.6,8.7,3.6,13.3,3.9c4.6,0.3,8.5,2.2,11.6,5c7.3,6.7,14.2,12.8,25.3,13c8,0.1,14.8,5.9,21.1,10.5c4.6,3.3,9.5,4.8,14.5,4.9
			c10.9,0.3,21.3,2.4,30.9,7.2c11.8,5.9,22.5,4.5,32.4-3.6c6.2-5.1,13.7-7.5,20.5-11.4c2.2-1.2,4.4-1.7,2.5-5
			c-0.7-1.2-0.1-3-0.1-4.6c0-26,0.8-52-0.3-77.9c-0.7-18.6-0.6-37.2-0.9-55.7c0-2.8,0.1-5.5,1-8.4c1.1-3.5,1.4-7.6,5.9-7.7
			c4-0.1,5.9,3.7,7.5,6.8c0.5,0.9,0.6,2.2,0.6,3.3c0,18.9,0.8,37.8-0.2,56.6c-1.1,20.7-0.5,41.3-1,62c-0.2,7.1,2.8,14.1,0.3,21.2
			c-0.4,1.3,1.2,2.7,2.6,2.3c6.3-2.2,13.1-3.6,18.5-7.2c4.9-3.2,8.4-8.7,12.2-13.4c6.4-8.1,12.1-16.7,19.7-23.9
			c-1.8,4.2-3.8,8.3-5.4,12.5c-5.9,15.8-5.8,31.7,0.9,47.1c2.9,6.7,8.6,11.8,13.3,17.4c4.1,4.8,8.7,9.2,13,13.7
			c-2.8,1.7-4.2-0.7-5.7-2.2c-3.7-3.5-7.3-7.2-11.1-10.6c4.9,9,8.5,19.2,21.4,20.8c-0.9-3.5-5.5-4.4-4.8-8.2
			c4.1,2.4,8.2,4.9,12.5,7.3c6.7,3.7,9.6,2.3,12.3-4.8c0.6-1.6,3.9-2.1,6.9-3.6c-3.1,6-5.8,11.4-8.6,16.8c0.3,0.2,0.6,0.4,0.9,0.6
			c6.9-6.5,13.7-12.9,20.6-19.4c1.6-1.6,3.2-3.2,5.3-4.2c7.9-3.9,13.9-9.8,17.9-17.8c1.9-3.8,4.9-8.2,8.9-7.7c4.7,0.6,0.8,6.4,3,9.6
			c0.2-0.9,0.5-1.6,0.4-2.2c-2.4-9.1,5.3-12.3,10-17.3c0.5-0.5,1-1.3,1.7-0.3c0.7,0.9,1.5,1.4,1.5,3.1c-0.4,20-1.3,40-0.1,59.9
			c0.8,14.6,0.4,29,0.7,43.5c-0.7,0.4-1.2,0.3-1.6-0.4c-1.3-2.5-1-5.2-1-7.9c0.2-12.1-1.6-24.1-1.3-36.2c0.2-6.2-1.8-7.3-7.8-6
			c-0.7,0.2-1.3,0-1.8-0.4c-1.6-5,1.4-8.5,4.6-11.9c-3,1.2-4.7,3.8-7.4,5c-1,0.5-2.3,1.4-1.9,3.2c2.1,8.1,0.9,16.3,0.8,24.5
			c-0.3,26.4,2.2,52.8,1.3,79.2c-0.2,6.1-4.7,9.5-10.5,7.6c-1.1-0.4-2.2-1.1-2.1-2.3c0.1-1.2,1.1-2.1,2.3-2.2c2.5-0.1,5,0,8.2,0
			c-1.7-3.1-1.2-6.1-1.5-9c-1.2-3-0.4-6.1-0.4-9.1c-0.1-20.2,0-40.3,0-60.5c0-0.4,0-0.8,0-1.2c-0.4-2.9,0.9-7.1-3.3-7.5
			c-4.2-0.5-3.1,3.9-4.1,6.4c-0.4,0.9-0.7,1.8-1.6,2.3c-0.7-0.2-2.1,0-1.8-0.8c2.3-6.2-0.2-12.6,1.6-19.2c-6.1,2.7-5,8.3-3.8,11.5
			c1.2,3.2,1.1,6,0.7,8.8c-1.8,10.6-0.7,21.2-0.1,31.8c0.6,10.7,0.1,21.5,0.1,32.3c0,3.8,0,7.7,0,11.5c0,7.5-2.5,9.6-9.8,8.2
			c-1.5-0.3-2.7-0.9-2.7-2.3c0-1.5,1.2-2.2,2.7-2.3c0.8,0,1.5,0,2.3,0c6.1-0.1,6.2-0.4,4.2-7c-2.2-1.9-1.9-4.5-1.8-6.9
			c0.9-21.3-1.7-42.5-0.7-63.7c0.1-2.7-1.4-4.2-2.9-5.9c-2.4-2.8-0.7-4.8,1.3-6.5c0.7-0.7-0.6-0.8,0-0.5c-1.9,2.3-3.7,4.7-5.4,7.1
			c-3.1,6.2-1.5,12.8-1.4,19.3c0,12.3,1.2,24.5,0.8,36.8c-0.1,1.9,0.1,3.9-1.4,5.4c-0.1,6.9-0.1,13.8-0.2,20.8c0,4.6-4.4,7.9-9,6.9
			c-1.3-0.3-2.3-1-2.4-2.1c-0.2-1.5,1.1-2.7,2.5-2.5c8.5,1.1,6.6-3.4,5.7-8.8c-1-5.8-0.2-11.9-0.2-17.9c0-8.3,0.1-16.5,0-24.8
			c-0.1-4.6-2.1-8.6-5.4-12.7c-0.1,1.8-0.2,2.9-0.3,4c-0.7,0.7-1.5,0.7-2.4,0.4c-4-3.3-1.3-7.9-2.9-12.5c0.3,5.8,1.4,10.8,0.7,15.9
			c-1,14.9-0.4,29.9-0.4,44.8c0,1.9,0.6,3.8-0.6,5.6c-0.1,1.3-0.1,2.7-0.1,4c-0.1,5.1-4.3,8.7-9.3,7.5c-0.8-0.2-1.4-1.1-2.1-1.7
			c1-1.1,1.8-3,3.4-2.7c7.8,1.2,5.4-4.3,5.5-8.2c-1.3-1.3-1.3-3-1.4-4.6c0.7-15.4-0.8-30.7-0.6-46.2c-0.1,1.7-1.6,2.6-3,3.6
			c-1,0.7-2.2,0.9-3.4,0.6c-2.5-2.5-0.7-4.5,0.8-6.4c1.3-1.6,3.2-2.7,3.8-3.7c-2.6,3-8.1,5.4-6.7,11.7c-0.7,3.3-0.3,6.7-0.8,10
			c-0.4,2.3-1.4,4.2-4,1.6c-1.1-1.6-0.8-3.6-1.1-5.5c-1.8,0.6-1.7,2.5-2.7,3.4c-0.8,0.5-1.6,1.8-2.7,0.3c-0.5-3.3,0-5.7,3.5-7.4
			c2-0.9,4.8-2.3,4.2-5.7c-2,1.5-3.9,3-6,4.2c-4.5,2.5-5.3,6.1-5.5,11.2c-0.4,13.6,2.1,27,1.4,40.6c-0.3,5.5-5.1,8.5-10,5.9
			c-0.6-0.3-1.3-1.2-1.2-1.6c0.2-0.6,1.1-1.5,1.6-1.4c8.3,1.2,5.8-4.9,6.1-9c0.1-0.9-0.1-1.9-0.2-2.9c-1-6.2,0.2-12.5-0.2-18.7
			c-0.1-1.1,0-2.3,0-3.4c0-3.1,0.5-6.6-1.1-9c-2.5-3.7-4.8,2.6-7.7,1c-1.1,0.7-2.6,1.3-2.1,3c2.1,8.3,0.4,16.7,1,25
			c0.2,3.6-0.1,7,1,10.7c1.6,5.5-2.2,9.1-7.6,7.8c-0.8-0.2-2-0.8-2.2-1.5c-0.3-0.8,0.8-1.8,1.7-1.8c6.6,0.3,4.6-4.4,4.6-7.9
			c-2.8-5-1-10.5-1.5-15.7c0.2-4,0.6-8-0.2-12.7c-7.5,4.2-12.9,10.7-20.4,14.2c-0.3,0-0.5,0.1-0.8,0.1c-12.8,5.5-25.5,11.2-37,19.1
			c-3.8,2.6-2.8,7.5-2.1,11.3c0.4,2.2,0.8,4.5,0.8,6.7c0,30.2,0.3,60.4,0,90.6c-0.6,44.2,0.7,88.3,1.7,132.5
			c0.6,26.4,2.7,52.8,1.6,79.1c-1.6,37.3,0.3,74.5-1.3,111.7c-0.5,11.1,1.2,22,0.4,32.9c-5,0-10,0-15,0c-2.4-3-1.7-6.6-1.7-10
			c0-86.2,0.8-172.4-0.3-258.6c-0.7-61-0.6-121.9-0.7-182.9c0-3.9-1.2-4.2-4.3-3.1c-9.7,3.2-19.7,5.4-29.4,8.3
			c-7.1,2.1-14.3,3-21.6,3.3c-15.2,0.5-30.4,1-45.2,5.1c-4.3,1.2-9,1.6-13.2,0.3c-18.2-5.6-37.4-7.7-54.9-15.5
			c-7.6-3.3-15.2-6.7-22.1-11.3c-7.8-5.2-16.4-3.2-24.6-3.1c-5,0.1-9.5,6.5-9.9,12.8c-1.3,16.8-5.8,32.9-10.2,49.1
			c-6.1,22.9-8.9,46.5-10.7,70.1c-1.9,25,6.5,48.1,15,71.1c7.4,20,16.3,39.5,23.4,59.6c8.8,24.7,14.4,50.3,20.9,75.6
			c8.8,34.1,18.8,67.9,28.9,101.6c2.1,6.8,3.9,13.7,5.9,20.5c0.7,2.4,1.6,4.8-0.2,7.2c-126.7,0-253.3,0-380,0c4.2-4.3,10-5.4,15.1-8
			c2.2-1.1,4.7-1.6,7.1-2.2c6.4-1.6,6.4-1.5,4.1-7.5c-1.2-3-2.4-6-3.7-9.1c-1.2-2.9-3.1-3.6-5.2-1.4c-4.8,5-9.4,3.6-14.4,0.6
			c-3.8-2.3-4.7-1.8-4.9,3.1c-0.2,6.7,0,13.4,0.1,20.1c0,1.5,0.7,3-0.5,4.4c-58.9,0-117.8,0-176.7,0c-0.2-0.5-0.6-1.1-0.5-1.6
			c3.5-21.7-0.2-43-1.9-64.6c-1.2-14.9-1.4-29.9-0.4-44.8c0.4-5.5-0.2-10.7-4.1-15.1c-1.1-1.3-1.8-3-2-4.7c-0.3-2.7,0.7-4.9,3.7-4.4
			c3.2,0.5,4.7-0.7,5.2-3.7c2.4-14.8,6.7-29.3,6.3-44.4c-0.3-10.4,1.5-20.6,1.2-32.3c-2.7,3.4-3.3,6.3-3.5,9.2
			c-1.3,16.8-2.9,33.7-4.4,50.5c-0.6,6.3-3.1,11-8.2,14.4c-2.7,1.8-3.6,3.9-3.7,7.2c-0.2,8.8,1.1,17.6-0.2,26.4
			c-0.8,5.3,1.8,10.6,3.8,15.5c3.9,9.5,2.7,18.5-2.2,27.2c-6.2,11-8.2,22.4-6.1,35c1.7,10.3,1,20.6-3.8,30.3c-15.4,0-30.8,0-46.2,0
			c0.1-3.1,2.8-4.1,4.9-5c17.2-7.8,25.5-22.4,31.6-39.2c4-11,5.8-22.3,7.9-33.6c0-0.1,0.1-0.3,0.1-0.6c-2.2-15.5-2.5-31.2-6-46.5
			c-1.2-5.2-3.1-10.5-3.2-15.8c-0.5-13.4-4.1-26.6-2.3-40.1c0.1-0.4,0.1-0.8,0.1-1.1c-3.5-16.8,3.1-32.7,4.3-49.1
			c0.8-11.7,1.7-23.4,2.7-35c0.3-3.3-0.3-6.6-1.3-9.7c-5.7-17.3-6.6-35.5-8.6-53.3c-2.1-18.8-5.2-37.3-9.5-55.7
			c-2.6-11-5.9-21.9-10.2-32.4c-1.5-3.9-4.1-6.8-7.3-9.4c-8.1-6.6-17.3-11.5-26.6-16.1c-4.1-2-8.5-3.7-11.2-7.9c0-38.5,0-77,0-115.5
			c5.6-5.9,10.2-13,19.7-14.1c-2.7,1.8-5.3,3.7-8,5.5c0.5,0.6,1.1,1.1,1.6,1.7c2.7-0.5,4-3.1,5.8-4.7c8.5-7.8,18.4-13.8,26.9-21.8
			c4-3.8,9.9-5.5,15-8c0.7-0.3,1.9-0.5,2.4,0.7c1.2,2.8,1.4,3.1,4.2,1.2c10.9-7.5,21.7-15.3,32.5-23c6.5-4.7,13.4-9,19.9-15.1
			c-1.2,7.2-7.1,10.6-10.8,15.9c2.4,0.3,2.7-2.2,4.4-1.7c0.9,0.4,0.4,1,0,1.2c-1.5,0.9-1.9,4-4.9,2.3c-1-0.5-2.6,1.4-2.3,1.9
			c3.3,4.6-0.7,3.2-2.8,3.9c-1,0.3-2.9,0.5-3,2.1c-0.1,2.3,3.1,0,3.2,3c-7.8-1-10,6.3-15.5,9.7c3.2,2.7,3.7-2.2,6.2-0.7
			c0.9,1.7-1.5,2.5-2,3.8c2.3,0.9,2.7-1.5,4.2-1.7c-1.5,4.3,2.7,5.2,4,7.9c7.8-6,10.3-16.3,18.2-21.5c7.2-4.8,9.8-12.4,12-19.4
			c6.3-20.4,15.6-39.3,25.8-57.8c0.6-1.1,0.8-3,2.4-2.5c1.4,0.4,1.4,2.1,1.3,3.5c-0.3,9.8,0.9,19.6,0.5,29.5
			c-0.4,9.6,0.2,19.4,0.7,29.1c0.2,3.7-2.5,6.5-3,9.3c-1.9,9.2-6.1,17-10.2,25.1c-1,1.9-1.3,3.1,1.7,4.5c2.7,1.2,1.7,5.7,1.3,8.2
			c-0.3,2-1.9,5.9-5.4,5.7c-3.2-0.2-5.9,1.3-8.9,1.4c-3.8,0-6.1,3.7-4.6,7.2c1.8,4.1,1.1,6.9-0.8,11.4c-3,7-10.1,14.7-2.8,23.6
			c1.3,1.6,1.5,5.4-0.5,7.6c-3.5,3.7-4.9,9.8-11.2,10.7c-1,0.2-0.9,2.1-0.1,2.9c2,1.7,2.9,4.2,5.3,5.6c1.8,1,1.7,3.4,0.6,4.6
			c-1.2,1.3-2.2-0.7-3.1-1.5c-1.7-1.6-3.2-3.3-5.3-5.5c-0.4,3.3,1.1,5.7,2.4,7c6.1,5.7,7,12.7,3.9,19.4c-2.5,5.3-0.8,10.9-3.2,15.8
			c-4.3,8.8-3.2,18.6-5.4,27.8c-0.3,1.1-0.3,2,0.7,2.4c2.3,1,0.9-1.1,1.3-1.7c0.5-0.8,1-1,1.8-0.6c3.7,1.8,6.1-1.6,9.2-2.1
			c0,4.6-2,7.7-6.5,9.5c8.2,7,16,14.1,24.4,20.6c8,6.1,14.7,13.5,21.4,20.8c4,4.3,7.3,5.6,12.5,3c3.2-1.6,6.9-2.3,10.4-3.6
			c2-0.7,3.5-1.8,3.1-4.6c-1.3-8.2-2.6-16.3-3.4-24.5c-0.5-5.7,0-11.5-0.1-17.3c-0.9-38.6,4.7-76.1,17.6-112.6
			c3.3-9.4,3.8-19.2,2.8-29.3c-3.7,1.9-7.3,1.4-10.9,1.2c-3.6-0.2-4.8,1.5-4.9,4.6c-0.4,7.4-3.6,12-11.9,16.6
			c6.7-10.6,12-20.9,15.1-32.1c1.8-6.4,3.2-13,4.9-19.4c2.4-9,6.9-16.8,13.1-23.7c1.3-1.5,2.6-3.3,6.4-2.1
			c-14.7-14.7-28.2-28.2-41.7-41.7c-5-5-9.2-10.4-10.6-17.5c-0.1-0.7-0.7-1.4-0.7-2.1c0.1-2-1-5,1.4-5.6c2.6-0.6,2.2,2.8,2.5,4.2
			c0.8,3.3,2.9,5.4,5.2,7.2c7.5,5.9,14.3,12.5,20.1,20.1c0.7,0.9,1.3,2.8,3,1.9c1.9-1,1.7-3.3,1.1-4.6c-2.7-5.8-3.6-12.6-9.2-17.2
			c3.7-2.1,6.9,5.7,9.9-0.6c-0.5-1.5-2.3-1.2-4-1.1c-1.7,0.1-3.6-0.6-3.3-2.2c0.6-3.2,2.2,0.3,3.3-0.1c0.5-0.2,1.1-0.1,1.7-0.2
			c0.6-1.5-3-2.3-0.5-4.2c1.5-1.1,2.7-2.2,4.5-0.9c1.2,0.9,2.6,0.5,3.9,0.5c4.2,0.1,4.6-0.1,3-3.7c-1.5-3.4-0.3-7.5-3.1-10.6
			c-1.2-1.3-0.4-3.1,1.2-3.8c2.4-1,1.8,1.1,1.8,2.2c0,1.8,0.5,1.5,1.9,1c2.3-0.8,0.6-1.5,0.1-2.2c-1.2-2-1.4-2.3,1.3-1.7
			c1.7,0.4,2.4-2.5,3.3-3.9c0.8-1.2-0.8-2.2-2.1-2.8c-0.9-0.4-2.4-0.8-1.7-2.2c0.6-1.1,1.5-2.3,3-2.4c4.2-0.3,7.9,2,11.5,3.4
			c3.5,1.4-2.2,2.1-0.9,4.4c2.9,0.7,8.2-2.5,8.8,4.1c0.1,0.8,1.9,0.8,1.9,0.6c0-2.6,4-4.6,1.5-7.3c-3.8-4.3-6.1-9.3-8.4-14.4
			c-4.5-9.7-5.4-20.1-6.4-30.6c-0.2-2.1,0.5-3.9,3.3-6.1c0,7.3,1.6,13.6,2.2,19.9c0.7,8,4,14.7,7.2,21.6c1.5,3.4,5.4,5.1,9.7,3.6
			c1.3-0.5,2.8-1.1,3,0.9c0.2,1.8,1.1,1.8,2.5,2.3c1.7,0.7,4.8,0.9,4.4,3.6c-0.4,2.7-3.4,1.7-6.5,2.7c4.1,1.1,7.1,2.1,10.2,2.6
			c1.1,0.2,2.6-1,3.1,0.6c0.1,0.4-1,3.5-3.5,2.1c-0.4-0.2-0.9-0.1-1.6-0.1c1,2.7,3.2,2.7,4.7,1.9c4.9-2.7,7.2-0.6,8.5,3.9
			c0.3,0.9,0.4,2.6,0.7,2.6c6.2,0.1,6.8,4.2,7.4,9.1c0.2,1.5,4.6,2.2,7.3,1.3c1.4-0.5,3.2-1,3.8-0.3c4.2,4.6,9.8,0.9,14.5,2.8
			c4.4,1.9,7.7-1.8,11.4-3.3c1.9-0.8,3.6-3,6.8-1c-7.4,4-14.1,9.4-21.6,11.3c-11.3,2.9-19.3,9.5-26.1,18.1
			c-5.1,6.5-8.7,14.1-17.1,18.2c3.2,1.9,5.7,0.2,6.1-0.8c1.9-5.4,5-2.9,7.8-1.5c8.3,4.4,13.9,11.2,17.9,19.5
			c4.5,9.3,9.4,18.4,18,25.1c0.7-3.9,2.9-7.4-0.6-11c-1.7-1.8-2.8-3.9-0.5-7.2c1.5-2.1,0.2-6.5-0.6-9.7c-0.7-2.9-0.7-5.2,1.4-7.5
			c3.2-3.5,4.5-7.6,4.4-12.4c-0.2-8.3,4.3-15.3,6.6-22.9c1.7-5.5,4.7-10.4,6.2-16.1c1.2-4.4,5.5-6.7,8.3-10
			c5.3-6.3,6.9-14.3,7.3-21.9c0.4-7.7,3.7-14,5.6-21.7c8.9,8,19.6,12.6,26.9,21.7c1.7,2.2,5.1,1.5,7.4,1.8
			c12.7,1.8,25.4,2.3,38.2-1.4c10.9-3.2,22.5-3.7,33.9-2.8c2.7,0.2,5.1,3.1,8.2,1.3c3.6,1,7.1,0,9.5-0.6
			C1012.2,347.2,1008.7,347.3,1005,346.9z"/>
		<path id="XMLID_353_" class="st0" d="M1206.4,1078.8c-1.8-9.5-4.9-18.6-7.6-27.9c-7.9-27.3-15.7-54.6-23.6-81.9
			c-9.5-33-15.3-67.1-27.7-99.2c-7.1-18.5-15-36.8-21.8-55.4c-5.2-14.1-11.2-28.3-13.4-42.9c-2.3-15-3.2-30.5,0.3-45.9
			c2-8.9,2.4-18.3,3.7-27.4c2-14.1,5.6-27.8,9.4-41.4c3-10.7,5.2-21.5,5.6-32.6c0.4-10.1,8.4-16.5,18.4-14.5c1.1,0.2,2.5,0.4,3.4,0
			c6.1-2.9,10.9,0.5,15.7,3.4c18.6,11.5,39.2,17.6,60.4,22.1c3.5,0.7,7.1,1.2,10.2,2.6c7.2,3.2,14.7,2.8,21.6,0.5
			c10.6-3.4,21.6-3.6,32.4-4.1c12.5-0.5,24.8-1.6,36.9-5c10.2-2.9,20.3-5.9,29.7-8.7c0.1,152.6,2,305.3,1.2,458.1
			C1309.6,1078.8,1258,1078.8,1206.4,1078.8z"/>
		<path id="XMLID_352_" class="st0" d="M545.7,628.4c12.8,7.9,27.1,13.1,39.1,22.8c6.2,5,8.2,11.4,10.4,17.8
			c5.9,16.9,9.6,34.3,13,51.9c3.7,18.6,4.4,37.6,7.4,56.4c1.6,10.2,4.4,20,6.2,30.1c1.4,8-0.5,16-1.4,23.9c-0.8,7.1,0,14.3-1.7,21.5
			c-2,8.2-2.6,16.7-4.1,25c-0.6,3.2-1,6.3-0.8,9.6c1,15.2,1.5,30.4,2.5,45.6c0.6,9.1,3.1,18,6,26.6c0.8,2.3,0.9,4.5,0.8,6.7
			c-0.5,7.4-0.3,14.7,2.4,21.8c3.5,9.2,0.3,18.4-1.4,27.3c-3.1,15.9-8.7,31-17.9,44.6c-4.3,6.4-10.8,9.5-16.9,13.4
			c-2.9,1.9-5.8,3.8-8.8,5.7c-2.7,0-5.4,0-8.1,0c-3.2-3.4-3.8-7.9-5.1-12c-6.1-20.6-10.9-41.5-17-62c-2.2-7.5-2.5-15.4-4.5-23
			c0-29.6,0-59.3,0-88.9c3.3,0.6,2.4,3.4,2.6,5.4c0.5,6.2,1.8,12.3,3.1,18.4c-1.3-9-1.3-18.1-3.2-27c-0.4-1.8-0.4-3.9-2.5-4.9
			C545.7,799.3,545.7,713.8,545.7,628.4z"/>
		<path id="XMLID_351_" class="st1" d="M1920.2,347.7c-8.7,4-17.3,8.4-26.2,12c-13.8,5.4-28,9.5-42.9,9.9c-10,0.3-20.1,0.9-30-2
			c-3.7-1.1-4.8-2.8-4.9-6.4c-0.3-10.7,0.9-21.4-0.6-32.1c-0.3-2.1,1.9-3.6,2.9-5.3c12.7-22.5,25.3-45.1,37.9-67.7
			c4.9-8.8,9.8-17.5,14.8-26.2c1.5-2.6,1.9-5.4,1.5-8.2c-2.6-23.4-2.3-47-2.4-70.5c0-2.5,0.9-4.3,2.8-5.2
			c14.9-7.4,30.4-13,46.9-15.4C1920.2,202.9,1920.2,275.3,1920.2,347.7z"/>
		<path id="XMLID_350_" class="st0" d="M626.6,1078.8c1-7.4,1.8-14.9,3.2-22.2c0.7-3.6-0.6-6.9-1.2-10c-2.4-12.3,0.5-23.1,6.6-33.8
			c4.2-7.4,5.7-15.4,2.5-24.3c-2.9-7.9-5.8-15.6-3.8-25.2c1.4-6.7,0.4-15-0.7-22.6c-0.2-1.6-1.3-2.1,1.1-3c6.7-2.7,10.4-7.2,11-15.3
			c1.3-17.5,3.5-35,4.4-52.6c0-0.4-0.1-0.9,0.1-1.1c1.9-3.1,2.3-8.7,5.7-8.7c2.4,0,1.1,5.6,1,8.6c-0.5,15.4-0.5,30.9-2.6,46.2
			c-1.3,9.7-3.3,19.4-5.6,29c-0.5,2.4-1.8,4.9-4.8,1.5c-0.6-0.7-1.9-1.9-3.3-0.9c-1.5,1.1-1.4,2.5-0.4,4c0.6,0.9,0.9,2.1,1.6,2.9
			c8.3,9.9,4.1,21.2,3.7,32.1c0,1.3-0.3,2.7-0.2,4c1.1,15.3,1.7,30.6,3.7,45.8c1.2,9.1-1.2,18.4,1.3,26.9c2.1,7.3-1.5,12.6-2.7,18.7
			C640.4,1078.8,633.5,1078.8,626.6,1078.8z"/>
		<path id="XMLID_349_" class="st1" d="M1920.2,966.8c-9.2,0-9.2,0-11.6-9c-0.5-1.7-1.5-2.4-3.2-2.6c-2.1-0.3-4.1-1.1-7-2
			c3.1-0.7,6.1-0.4,10.2,0.9c0-6,0.4-11.9-0.1-17.7c-0.7-7.5,0.2-15,0.3-22.4c0.1-5.2-1.7-7.2-6.4-7.3c-0.7,0-1.5,0-1.7-1
			c0.1-0.3,0.4-0.9,0.4-0.9c8,2.7,6.4-3.1,6.4-7.3c0-3.1-0.1-6.2,0-9.2c0.1-2.7,0.4-5.4-4.3-5.7c4.6-0.7,4.3-3.4,4.3-6.3
			c-0.1-25.2,0.3-50.4-0.2-75.5c-0.2-8.8,1.6-11.6,12.9-8.4C1920.2,850.5,1920.2,908.7,1920.2,966.8z"/>
		<path id="XMLID_348_" class="st1" d="M545.7,981.8c4.2,6.4,3.8,14,5.7,21c5.1,18.6,10.1,37.2,15.2,55.7c1.8,6.8,3.8,13.5,5.6,20.2
			c-7.7,0-15.4-0.2-23.1,0.1c-2.9,0.1-3.6-0.7-3.5-3.5C545.8,1044.2,545.7,1013,545.7,981.8z"/>
		<path id="XMLID_347_" class="st0" d="M824.1,1078.8c-1.6-10.8-2-21.6,0.2-32.2c2.1-0.2,2.6,1.1,3.4,1.8c6.2,5.1,8.6,5.2,15.6,0.4
			c3.1-2.1,5.4-3.5,6.8,2.1c1.1,4.8,3.4,9.4,5.7,13.8c1.7,3.4,0.2,4.4-2.6,4.8c-6.9,0.8-13.5,2.7-19.1,6.8c-2.4,1.7-5.5,0.4-7.7,2.5
			C825.6,1078.8,824.9,1078.8,824.1,1078.8z"/>
		<path id="XMLID_346_" class="st1" d="M545.7,884.8c1.6-0.6,3-2.6,3.6,1.3c1.5,9.1,2.4,18.2,3.3,27.3c0.1,0.9-0.2,1.9,0.6,2.7
			c1,0.9,2,1.8,0.3,3.1c-0.9,0.7-1.6,2-2.9,1.3c-1.2-0.7-1.6-1.9-1.6-3.4c-0.1-7.7-3.1-15.2-2.4-23c0-0.3-0.7-0.7-1-1.1
			C545.7,890.2,545.7,887.5,545.7,884.8z"/>
		<path id="XMLID_345_" class="st1" d="M1920.2,991.1c-1.1-0.6-2.9-1-3.2-1.9c-0.7-2.5-0.5-4.4-3.3-0.9c-1.5,1.8-4.2,0.2-5.7-1.9
			c-1.9-2.7-1.5-4.9,1.3-6.7c0.9,2-2.3,3.7-0.3,5.2c2.1,1.6,2.5-1.3,3.8-1.8c2.7-1,4.9,1.2,7.2,2.1
			C1920.2,987.2,1920.2,989.1,1920.2,991.1z"/>
		<path id="XMLID_344_" class="st1" d="M1920.2,764.7c-1.9-0.3-4,0.8-6-1c1.7-2.3,4.1-0.8,6-1.3
			C1920.2,763.1,1920.2,763.9,1920.2,764.7z"/>
		<path id="XMLID_343_" class="st2" d="M1920.2,740.4c-1.9-0.3-4,0.8-6-1c1.7-2.3,4.1-0.8,6-1.3
			C1920.2,738.9,1920.2,739.6,1920.2,740.4z"/>
		<path id="XMLID_342_" class="st1" d="M1920.2,716.1c-1.9-0.3-4,0.8-6-1c1.7-2.3,4.1-0.8,6-1.3
			C1920.2,714.6,1920.2,715.4,1920.2,716.1z"/>
		<path id="XMLID_341_" class="st1" d="M801,41.5c4.8-0.4,5-6.7,9.9-7.3c4.6-0.6,4.9-1,9.5,3.1c-1.6,2.5-5.3-1.2-6.5,2.2
			c-1.1,0.5-2.8,0.4-2.6,2.8c0.9-1.2,1.1-2.6,2.4-2.9c0.7,0.3,1.4,1.1,2,0.9c6.6-1.4,9.7,0.6,8.5,7.9c-0.3,1.9,0.8,1.7,2.3,0.4
			c1.7-1.5,4.5-3.2,5.7,1c0.6,2.1,2.6,1.5,3.1,0.8c2-2.6,3.9-0.4,7.4-0.3c-7,2.5-11.1,5.8-10.7,12.6c0.1,1.2-1.5,2-3,2.1
			c-1.6,0.1-2.8,1-2.3,3.3c8.4-1.4,9.8-9.8,14.9-14.3c0.6,1.1,2,1.3,2.9,0.4c0.7-0.7,1.4-1.4,2.4-0.7c1,0.7,1.7,1.4,0.3,2.6
			c-0.4,0.4-4.7,4-5.4,4c-1.1,0-1.8,0.5-2.2,1.5c5.2,1.1,5.2,1.1,9.5-2.8c0.3-0.3,0.5-1.1,1.3-0.6c0.8,0.6,1.9,1.6,1.2,2.3
			c-3.2,3.5,0.9,5.9,1.5,8.7c0.4,1.9-2.1,5.2,2,6.3c0.4,0.1-7.1,3.7-9.3,2.2c-0.9-0.6-1.6-1.7-2.6-2.3c-0.5-0.3-1.8-0.4-2.1-0.1
			c-1,1.4,1.3,0.6,1.1,1.6c-0.4,2.1-4.2,3-2.2,6.1c0.4,0.7-0.3,1.9,0.9,2.4c3.5,1.5,4.1,3.4,1.5,6.3c-4.9,5.3-10,10.4-13.4,16.9
			c-0.2,0.3-0.5,0.7-0.9,0.7c-7.3,1.7-11.5,8.2-17.6,11.7c-3.4,1.9-7.5,0.2-11.3-0.1c-6.1-0.5-12.3-0.5-18.1-3.2
			c-0.8-0.3-2.4-0.3-2.8,0.2c-3.7,4.9-8.5,2.6-12.9,2.1c-3.7-0.5-5.4,3.2-8.7,3.6c-4.5,0.5-9.9-1.1-12.7,4.5c-0.3,0.5-1.5,1.2-1.9,1
			c-4.2-2.3-3.9,1.5-4.4,3.6c-3.5,0,0-5.1-3.8-4.5c-2.6,0.4-4,2.6-4.4,4.7c-0.4,2.4-3.1,6,2.1,7.1c1.2,0.3,0.7,1.3-0.2,2
			c-2.6,2-5.6,3.9-1.7,7.6c0.8,0.8-0.1,1.6-1.3,1.7c-0.7,0.1-2.5-0.2-1,1.4c3.5,3.9,2.3,10.8,8.4,13.2c1.7,0.7,0.4,1.8-0.4,2.5
			c-0.9,0.8-3.5-0.5-2.8,1.7c0.6,1.8,2.4,1,3.7-0.1c0.3-0.2,1,0.1,1.3,0.1c2.2,1.7-6.7,3.3,0.2,4.9c0.1,0,0.2,1,0.1,1
			c-7.2,2-1.5,5.5-1,8.4c1.5,8,0.1,10.4-6.8,14.9c-3.3,2.1-6.7,4.4-8.6,8.2c-0.6,1.2-1.7,3-2.2,3.1c-9.2,3-5.8,9.3-4.6,15.4
			c0.8,3.9,4.8,3.2,7,5.8c-1.6,0.3-3,0.6-4.1,0.8c2.8,7,9.5,11.9,11.2,20.4c-4.1-2.6-7.5-2.2-11.5-0.2c-4.4,2.2-14.8-2.5-18.1-7.9
			c-2.9-4.9-7.4-6.4-12.1-8c-2.9-1-6.4-1.5-7.3-5.4c-1.3,0.9-0.8,2-0.4,3c0.6,1.7-0.8,2.8-1.5,1.6c-2.6-4.3-4.6-2.4-6.8,0.2
			c-1.6,1.9-2.8-0.2-4-0.5c-6.3-1.7-9.4,0.4-8.8,6.7c0.7,6.5,2.3,12.9,6.1,18.3c1.9,2.8,4.4,5.2,7.9,6.2c2,0.6,1.9,2.7,3,3.9
			c0.1,0.1-0.6,1.2-1,1.3c-1.7,0.2-2.3-1.5-3.3-2.3c-12.1-10-17.2-23.3-18.7-38.6c-0.4-4.5,1.4-7,4.5-9.2c1-0.7,3-1.2,1.9-2.3
			c-2.2-2.1-1.6-6.4-5.2-6.8c-1.4-0.1-2.7,1.7-3.3,3.5c-2.3,7.5-1.4,15.1,0.4,22.4c3.3,12.9,9.8,24.7,16.1,36.2
			c4.7,8.6,13.4,14.5,22.6,18.2c5.2,2.1,5,7,8,10.1c0.2,0.2-0.2,1.6-0.7,1.9c-2.4,1.5-5.7,2.6-1.8,6c0,0-0.7,1.5-1.2,1.5
			c-5.2,0.2-3.3,3.1-2,5.9c-8.8-11.6-23.3-18.8-24-36.1c-3.8,3.8-6.1,3.5-7.8-0.8c-0.8-2-2.2-3.9-3.4-5.8c1.3-0.5-4.6-4,1.3-3
			c0.8,0.1,1.1-3.6,0-4.9c-2-2.2-3.7-4.8-7.7-6.6c1.7,3.7,5.4,5,6.1,9.4c-5.8-4.2-8.6-9.4-10.9-14.6c-2.4-5.5-6.3-10-8.9-15.3
			c-1.5-3.1-1.1-6.8-3.3-9.3c-5.2-6.1-2.6-13.9-4.9-20.5c-2.1-6.3-5.1-12.3-8-18.3c-1.5-3.1-1.6-6.5-2.5-9.6
			c-2.5-8.8-1.3-17.9-3.1-26.7c-0.4-2.1-0.7-4.3,2.1-5.2c1.4-0.5,4.4,0.7,3.4-2.2c-1.1-3-2.3,3.2-4.3-0.1c0.7-3.4,6.5-3.4,6.7-7.6
			c-2.2-2.3-4.1,1.8-6.7-0.1c-0.1-5,9.9-8.1,3-15.1c3.7,1.9,6.3-0.2,9.3-0.8c-2.3-2.4-4.2,0.8-6.9-0.1c1.6-1.7,2.5-4.1,5.2-3.2
			c3.9,1.3,3.5-3.7,6.3-3.9c-1.2-2.8-0.4-4.5,2.6-5.1c0.6-0.1,0.9-0.9,0.1-1c-2.4-0.4-2.5-5.1-5.6-3.5c-3.6,1.9-6.9,0.6-10.6-0.5
			c2.1-2.3,3.9-4.6,6.8-6c1.1-0.5,1.8-2.3,3-0.4c1.2,1.9-0.4,2.7-1.8,3.3c-0.9,0.3-2,0.3-3.8,0.6c6.1,2.1,10.1-2,14.7-3.4
			c-1.7-1.7-5-1.9-6-4.7c-0.4-1.2-2.5-2.2-0.8-4c1.3-1.3,2.4-1.4,4.1-0.6c1.9,1,4,1.3,5.3-1.2c-3.5-1.9-8.4,1.7-12-4
			c4.5,0,8-0.1,11.5,0c3.2,0.1,4.5-0.7,2.3-3.9c-2.1-3.1-3.8-6.3-5.9-9.8c6.6-0.4,5.4,8.3,11.1,9c0.3-4.3-0.6-7.8-4.9-10.4
			c1.8,0,3.6-0.1,5.4,0c1.6,0.1,3.4-1.5,3.2-1.7c-3.2-3.3,2.6-6.1,0.5-9.6c-0.7-1.2,0.8-3.8,1.3-5.7c1.3,0.7,3.2,0.7,3.8,2.3
			c0.3,1.1-1.2,2.2-0.1,4.1c0.2-3.2,6-1.4,4.3-4.2c-1.9-3.3,0.6-3.5,1.6-4.8c1.9-2.6,4.1-3.5,6.4-0.4c1.4,1.8,3.1,2,5.4,1.1
			c-2.7-0.8-1.8-3.4-3.1-5.2c6.4,0.4,11.2-4,17-5.4c3.6-0.8,0.5-3.7,0.6-5.6l-0.1,0.1c3.7-0.8,4.8-6.5,9.8-4.9
			c-1.3,1.5-2.7,3.1-4.1,4.7c4.1-3,9-4.4,13.2-7.3c4-2.8,9.5-3.5,14.3-4.9c6.8-1.9,13.9-3.1,21-3.4c3.3-0.2,0.2-5.7,4-4.3
			c2,0.7,4.2,4.2,5.3,3.8c2.2-0.8,4.5,0,6.4-1.2c0.7-2.8-2.6-2.4-3.2-4.1c4.6-1.6,14.9,3.1,15.7,7.2c0.1,0.4-0.3,1.2-0.6,1.2
			c-5.1,0.6-3,3.8-2.6,6.6c0.1,0.9-1.1,2-1.8,3.1c2.5,0.6,4.1-0.1,4.3-2.6c0.2-2,1.6-3.1,3-3.9c1.3-0.7,2.6-0.1,3.5,1.1
			c1,1.4-0.2,2-0.9,2.9c-3.1,3.9-5.6,8.4-11.2,10.9c3.2,1.7,6.9-0.6,8,3.3c2.3-2.9,1.3-6.5,3.5-8.8c0.9-0.9,2.5-2.7,2.9-2.4
			c2.3,1.1,3.5-0.6,3.2-1.7c-0.5-1.8-2.5-0.5-5.2,1.2c2.8-4.7,6.4-5.9,8.1-9.1c0.8-1.5,3.2,0.4,4.3,1.8c1.8,2.4,2.3,2.5,3.9,0.1
			c1.4-2.1,3.3-2.4,4.2,0.1c1.1,2.9,3.3,4.9,5.6,8.2c-4.9-0.6-7.7,3.1-12,3.1c3.5,0.9,3,4.1,3.7,7.1c1.7-2.1,5.4-0.5,5.5-4.3
			L801,41.5z"/>
		<path id="XMLID_340_" class="st1" d="M1829,238.2c0,5.7,0,11.4,0,17.1c0,1.8,0.1,4.3-1.9,4.2c-5.2-0.1-3.9,3.4-3.8,6.2
			c0.1,3.9-0.1,7.8,0.9,11.8c1.4,5.7-3.6,9.7-6,14.1c-9.7,17.8-20.1,35.2-30.3,52.7c-7,12.1-14.2,24-20.9,36.2
			c-1.4,2.6-2.4,2.5-4.5,1.6c-17.6-7.9-28.6-21.2-32.6-40.1c-0.8-3.6-1.2-7.6-1.2-11.2c0.1-9.6-1-19.1-1.6-28.6
			c-1.1-16.8,3.8-31.9,10.9-46.5c0.8-1.7,1.2-4.1,4.1-4c4.4,0.2,5.9-2.8,4.7-6.2c-4.4-12.5,4.4-20.3,9.8-29.4
			c5.7-9.5,14-16.8,20.8-25.3c1.8-2.3,4.7-3.8,7.6-6.1c2.1,2.3,4.4,4.9,6.7,7.3c0.9,0.9,1.8,2.7,3.1,1.6c0.7-0.6,0.8-2.8,0.2-3.7
			c-1-1.5-0.6-3-0.9-4.4c-2.6-10.5,4.6-15.6,11.4-20.7c10.3-7.7,20.8-15.1,32.3-21.1c4-2.1,3.7-0.5,3.7,2.3c0,32.7,0,65.4,0,98.1
			c0,1,0.6,2.6-1,2.8c-0.7,0.1-1.7-0.7-2.3-1.3c-2.6-2.8-5.1-5.6-7.7-8.4C1830.2,237.6,1829.6,237.9,1829,238.2z"/>
		<path id="XMLID_339_" class="st1" d="M1642,965.3c-0.7,0.2-1.8,0.7-2-0.1c-0.7-2.7-1.4-5.5-1.5-8.2c-1.6-48.8-0.5-97.6-1.5-146.3
			c-0.4-20.9-0.5-41.8-0.9-62.6c-0.1-3.5,0.7-6.2,4.7-5.1c5.7,1.6,11.6,0.7,17.4,1.9c4.3,0.9,4.6,2.7,4.6,6.1
			c-0.1,28.3-0.6,56.6,0.1,84.8c1.2,51.5,1,102.9,1,154.4c0,4.7,1.6,9.3,1.3,14.1c-0.2,3.4-1,5.3-4.8,3.4c0.9-9.2,1.4-18.5,0-27.7
			c0.3-6.5-4.9-8.4-9.1-11.2C1649,965,1645.6,964.8,1642,965.3z"/>
		<path id="XMLID_338_" class="st1" d="M1897.7,952.4c-4.4-1.3-5.7-0.6-6.9,3.6c-1.6,5.3-6.5,1.6-9.7,0.9
			c-6.1-1.3-11.9-3.5-17.9-5.1c-4.8-1.2-10-1.7-9.8-8.5c0.1-3.2-2.9-2.9-5.3-4.2c7.6,0.3,5.4-4.8,5.1-8.1c-0.4-4.6,2.3-9.8-2.1-13.8
			c2.8-1.9,2.2-4.8,2.2-7.4c0-23.3,0.3-46.6-0.1-69.9c-0.2-9.2,2.1-10.8,11.7-8.4c-0.5-12.9-0.1-25.6-0.9-38.5
			c-1-14.6-0.6-29.3,0-43.9c0.2-4.4,4.6-5.4,8.7-5.3c4,0.1,4.9,2.6,5,6.1c1.6,34.2,1.1,68.3,1,102.5c0,4,0.2,6.4,5.3,5.9
			c5.2-0.6,7.5,2.5,7.5,7.6c-0.1,9.4,0.2,18.9-0.1,28.3c-0.2,5.4,0.2,9.7,7.1,9.5c-0.3,0.8-0.5,1.4-0.6,1.4c-8-2.7-6.4,3.1-6.5,7.3
			c0,9.6,0.1,19.3-0.1,28.9C1891.2,946.2,1890.8,950.7,1897.7,952.4z"/>
		<path id="XMLID_337_" class="st1" d="M1643,452.9c-1.9-2.5-2.3-5.3-2.3-8.4c0.1-12.1,0-24.2,0-36.4c0-7.5,0-15,0-22.4
			c-0.1-18.2-1.1-36.4-1.4-54.6c-0.3-15.4,0.7-30.7,0.3-46.1c-0.4-16.3,0.3-32.7-0.2-49.1c-0.4-10.7-0.5-21.4-1.2-32
			c-0.6-8.1,3.2-12.3,9.4-15.7c2.8-1.5,5.8-2.4,8.2-5.1c1.8,2.2,1.1,4.4,1.1,6.3c0.1,26.2,0.2,52.3-0.1,78.5
			c-0.1,7.7,1.6,15.2,1.2,22.8c-0.1,2,0.7,4.2-0.6,6.1c-1,1.5-0.1,2.6,1.3,3c3.6,1.2,3.8,1.3,1.2,3.7c-1.9,1.7-1.8,3.6-1.8,5.7
			c0,36-1,72,0.3,107.9c1.6,44.8-0.3,89.5,1.2,134.2c0.5,15.3,0.4,30.6,0.9,45.9c0.2,4.9-1.8,7-6.7,6.8c-2.2-0.1-4.4-0.5-6.7,0.9
			c-1.5,0.9-4.2,0.6-4.9-1.6c-0.8-2.5,2.2-3.1,3.6-3.6c2.3-0.7,4.9-0.6,7.4-0.4c3,0.3,3.9-0.7,3.9-3.8c-0.1-23.7,0.9-47.4-0.3-71
			c-1.5-28.8-0.2-57.6-0.9-86.3c0-1.9,0-3.8-0.9-5.7c0,3.4,0,6.8,0,10.3c-7.9-1.1-10.7,1.4-10.5,8.7
			C1644.3,452.7,1643.9,453.1,1643,452.9z"/>
		<path id="XMLID_336_" class="st1" d="M1601.2,495.5c-1.3,0.1-2.2-0.3-2.1-1.9c0.1-2.3,0-4.6,0-6.9c-0.2-40.3-1.9-80.6-1.2-121
			c0-1.1,0.3-2.6-0.2-3.4c-1.8-2.7-1.7-5.1-1.1-8.2c2.1-12,2.1-24.2,0.2-36.3c-0.2-1.3,0-2.7,0-4c0-35.8,0.1-71.6-0.2-107.4
			c0-5.2,2-7.8,6.1-10c10.3-5.6,10.2-5.7,10.2,6.2c0,28.7-0.5,57.4,0.1,86c1.2,54,0,108,1.3,162c1.2,46.5,0.2,93,0.8,139.5
			c0,3.7,1.4,7,1.4,10.7c0,5.3-2.2,7.3-7.3,6.9c-2.3-0.2-4.6-0.1-6.9,0c-1.3,0.1-2.6-0.5-2.8-1.5c-0.1-0.8,1.1-1.8,1.9-2.6
			c0.5-0.4,1.4-0.5,2.1-0.6c3.1-0.6,7.4,1.7,9-1.2c1.4-2.5,0.3-6.4,0.3-9.6c0-16.6,0-33.1-0.1-49.7c0-1.8,1-3.8-0.9-5.3
			c-2.5-2.2-2-5.2-2-8c0-17.2-0.1-34.4,0-51.6c0-3.8,0.7-7.6,1.2-10.6c0.3,2.7-1.5,4.9-4.6,5.2c-3.4,0.4-4.1,2.1-3.5,5
			c0.1,4.2,0.1,8.5,0,12.7C1603.1,491.8,1603.2,494,1601.2,495.5z"/>
		<path id="XMLID_335_" class="st1" d="M1842.2,891.8c-3.4,0.7-4.2,2.1-4.1,4.9c0.5,13-0.6,26,0.7,39c0.7,7.5-3.1,10.2-9.8,6.6
			c-5-2.7-10.3-2.8-15.4-4.2c-8-2.1-9.6-3.7-9.3-12c0.5-12.8,0.1-25.7,0.5-38.5c0.1-3.9-2.9-2.3-5.4-3.7c7.2-1,4-5.5,4-8.7
			c0.1-31.3,0.1-62.7,0.1-94c0-10.6,0-21.2,0-31.8c0-4.7,2.8-5.4,6.8-5.6c4.6-0.2,4.6,2.3,4.9,5.7c1.7,25.1,0.9,50.2,1.1,75.3
			c0,2.4-1.2,5.2,3.8,3.8c2.7-0.8,7.3,0.4,6.6,6c-0.5,3.8,0,7.7-0.1,11.6c-0.1,2.7,0.7,3.1,3.4,2.5c5.1-1.1,8.2,1.5,8.2,6.7
			c0.1,10.2,0,20.4,0,30.6C1838.2,888.5,1837.6,891.4,1842.2,891.8z"/>
		<path id="XMLID_334_" class="st1" d="M1622.1,472.4c-0.7-0.2-1.7-0.3-1.9-0.7c-0.3-0.8-0.2-1.9-0.2-2.8
			c0.1-23.4-1.8-46.7-1.3-70.1c0.2-7.4-0.9-14.9-1-22.4c-0.1-4.3,1.2-8.7,1-13c-1.5-32.8-0.9-65.6-1.2-98.4
			c-0.1-5.6,1.6-8.5,6.5-10.8c11.1-5.2,11-5.4,11,6.8c0,16.9,0.1,33.9,0,50.8c0,7,0.3,14,1.2,21c0.7,5.4-1.4,10.6-1.1,15.9
			c0.8,16.2,1.5,32.3,1.8,48.5c0.2,8-0.5,16.3-0.6,24.5c-0.7,59.2,2,118.3,1.1,177.5c0,2.2,1,5.3-1.9,6c-4.7,1-9.5,2.8-14.4,0.6
			c-0.5-0.2-1-1.4-0.9-1.9c0.4-1,1.2-1.9,2.6-1.9c4.1-0.1,10.1,1.3,11.4-2.2c1-2.8-0.2-7.7-0.2-11.6c-0.1-33.1,0-66.2-0.1-99.3
			c0-1.9,1.1-4.2-0.9-5.9c-3.1-3.4-1.5-7.6-1.9-11.4c0.2-3,0.2-6.1,0.2-9.1c0-1.9,0.3-4.2-2.3-4.5c-2.7-0.3-4.2,1.5-4.8,3.9
			c-0.6,2.8,0,5.7-0.5,8.5C1623.3,471.1,1622.9,471.9,1622.1,472.4z"/>
		<path id="XMLID_333_" class="st1" d="M1581.8,500c-4.1,0.2-2.2-3-2.2-4.5c-0.1-19,0-38.1-0.2-57.2c0-3.5,0.6-7-1.8-10.5
			c-1.5-2.2,0.9-5.3,0.9-8.2c-0.2-30.6,0.1-61.2-0.3-91.8c-0.1-6.9,3.3-13.3,2.5-20.2c-0.2-1.5,0.2-3.2-0.3-4.6
			c-6.5-16.5-1.7-33.7-3.2-50.4c-0.2-1.9,1-3,2.3-3.7c4.1-2,7.6-5.3,12.9-6.7c-0.7,6.7,1,12.7,1,18.9c0.1,32.1,0,64.3,0.1,96.4
			c0,1.7-1.6,4.6,2.3,4.5c0.2,0,0.7,0.9,0.5,1.3c-3.2,8.9-3.8,18.3-2,26.3c0.4,1.7,0.3,3.4,0.3,5.1c0,40.6-0.7,81.2,0.2,121.8
			c0.7,28.4,0.5,56.8,1,85.2c0.1,5.3-1.4,7.6-6.8,6.7c-0.4-0.1-0.8,0.1-1.1,0c-2.6-0.7-6.9,3.2-7.5-1.4c-0.5-3.9,4.6-2.3,6.7-2.6
			c4.9-0.8,7.8-1.2,5.3-7.1c-0.8-1.8-0.2-4.2-0.3-6.3c-1.8-2.7-0.5-5.6-0.5-8.4c0.1-30.1,0.1-60.2-0.1-90.4c0-3.1,0.3-7.7-3.9-7.7
			c-4.1-0.1-3.8,4.5-4.1,7.6C1583.3,495,1584,497.8,1581.8,500z"/>
		<path id="XMLID_332_" class="st1" d="M1680,848.4c0,12.3-0.6,24.6,0.1,36.9c2.3,41.4,0.4,82.9,1,124.3c0.1,6.3,0.2,5.7-5.9,4.1
			c-6.6-1.8-7.9-5.5-8.1-11.9c-1.7-49.5-0.2-99.1-1.3-148.6c-0.3-14.7-0.3-29.4-0.9-44.2c-0.1-3.9-0.6-6.8,5.6-5.4
			c9.3,2.1,9.5,1.4,9.5,10.6C1680,825.7,1680,837,1680,848.4z"/>
		<path id="XMLID_331_" class="st1" d="M1564.5,937.8c-1.6-36.1-0.9-72.2-1.4-108.2c-0.1-5.6-0.7-11.4-1-17
			c-0.3-5.2,2.4-5.7,6.4-4.9c3.5,0.7,6.9,1.7,10.4,2c3.6,0.3,5.2,1.9,5.1,5.4c0,0.4,0,0.8,0,1.2c0.4,51.1,1.8,102.2,1.2,153.3
			c-0.1,6.9-0.5,7.4-6.8,4.2c-4.4-2.3-9.8-2.7-13.2-6.9c1.1-1.7,2.8-2.1,4.7-2c3.5,0.9,6.6,2.8,10.7,3.9c-0.5-7.9-0.3-15.2-0.4-22.6
			c0-1.2-0.2-2.5-1.4-2.9c-4.2-1.2-7.5-4.7-12.2-4.5C1565.9,938.8,1565.1,938.5,1564.5,937.8z"/>
		<path id="XMLID_330_" class="st1" d="M1465.1,853.2c0,21.9,0,43.8,0,65.7c0,8.1-0.1,8.2-7.6,4.9c-2-0.9-4.2-1.6-6.1-2.6
			c-0.9-0.5-1.8-1.5-0.8-2.8c0.9-1.3,1.7-0.7,2.8-0.2c2.8,1.3,5.7,2.4,8.9,3.8c2.1-7.9-0.8-15.3-0.7-22.8c0-3.1-7.5-4.3-11-1.6
			c-0.1-0.9-0.3-1.6-0.3-2.2c-1.6-31.6-1-63.3-1.2-95c0-4.6-0.3-7.5,6.3-5.9c8.6,2.1,8.8,1.4,8.8,10.1c0,13.1,0,26.1,0,39.4
			c1.7-0.9,1.1-2.2,1.1-3.2c0.1-2.7-0.5-6.1,3.5-6c3.9,0.1,5.9,2.4,5.8,6.7c-0.2,15.4,0.2,30.8-0.2,46.2
			c-0.3,12.3,1.3,24.4,1.2,36.7c0,2.2,0.8,5.3-2.6,5.3c-3,0-5.8-1.6-6.6-5c-0.3-1.3-0.1-2.7-0.1-4c0-21.6,0-43.1,0-64.7
			c0-0.9-0.1-1.9-0.2-2.8C1465.8,853.2,1465.5,853.2,1465.1,853.2z"/>
		<path id="XMLID_329_" class="st1" d="M1509,468.6c-4.6,2.4-7.8,6.2-11.1,9.8c-3,3.3-7.1,3.1-10.4,3c-15.6-0.3-31.3-3.6-42.2-15
			c-15.7-16.3-26.2-38.3-14.9-62.8c1.2-2.5,2.1-5.2,3.2-7.7c0.5-1.2,0.8-3.1,2.3-2.8c1.7,0.4,1.5,2.3,1.5,3.9c0,3.3,0.2,6.6-0.1,9.8
			c-0.5,5.3,0.6,10.1,3.5,14.5c4.9,7.7,5.7,16.7,8.2,25.2c5.3,18.2,16.1,27.2,39,22.2C1495.1,467.3,1501.9,468.3,1509,468.6z"/>
		<path id="XMLID_328_" class="st1" d="M1503.4,911.1c-1.8-1.7-1.2-3.9-1.2-5.9c0-16,0.3-31.9-0.1-47.9c-0.2-7-1.1-14-1.1-21.1
			c0-3.5,1-4.8,4.5-3.5c1.2,0.4,2.5,0.2,3.9,0.6c10.2,3,10.2,2.9,10.2,13.6c0,21.2-0.4,42.3,0.2,63.5c0.3,11.1,1,22.1,1,33.2
			c0,4.1-0.1,6.9-5.4,3.7c-2.9-1.8-6.6-2.3-9.8-3.8c-1.6-0.8-5-1.9-1.4-4.6c2.2-0.9,3.7,0.8,5.6,1.2c5.9,1.9,5.9,1.9,5.9-4.1
			c0-4.5-0.1-9.1,0-13.6c0.1-2.3-0.5-4.1-2.9-4.8c-0.5-0.3-1-0.8-1-1.3C1511.2,911,1507.4,910.9,1503.4,911.1z"/>
		<path id="XMLID_327_" class="st3" d="M1643,452.9c0.4-0.4,0.9-0.8,1.3-1.2c5.9-0.4,7.7,3.1,7.8,8.2c0.3,12.7,0.4,25.3,1,38
			c1.1,23.8,1.1,47.6,1.6,71.4c0.1,3.1,0.6,6.1,0.8,9.2c0.3,4.1-0.8,7.8-5.3,8c-4.6,0.2-5.9-3.3-5.9-7.5
			c-0.2-10.9-0.5-21.9-0.9-32.8c-1-23.8-1.1-47.6-1.6-71.4c-0.1-4.6-0.5-9.2-0.9-13.8C1640.6,458.1,1641.4,455.4,1643,452.9z"/>
		<path id="XMLID_326_" class="st4" d="M1632.5,470.2c0.1,4.2,0.3,8.4,0.4,12.6c-0.1,1.2-0.2,2.3-0.2,3.5
			c-0.4,33.2-0.9,66.5-1.3,99.7c0,1,0.1,1.9-0.1,2.9c-0.5,3.5-2.3,6-5.9,5.8c-3.2-0.2-5.3-2.6-5.2-5.8c0.1-6.3,0.6-12.6,0.7-19
			c0.2-14.6,0.1-29.2,0.3-43.8c0.2-17.9,0.6-35.7,0.9-53.6c0.1-0.7,0.2-1.4,0.3-2.2C1626,465.2,1628.9,465.2,1632.5,470.2z"/>
		<path id="XMLID_325_" class="st3" d="M1601.2,495.5c0.1-6.5,0.3-13,0.4-19.5c3.6-5,6.5-5,10,0c0.1,18.2,0.2,36.5,0.3,54.7
			c0,2.1,0.1,4.2,0.1,6.3c-0.1,17.3-0.1,34.6-0.2,51.8c0,1.7,0.1,3.5-0.3,5.1c-0.6,2.4-2.3,4.1-5,4c-2.6,0-4.3-1.7-4.9-4.2
			c-0.4-1.8-0.3-3.8-0.3-5.7C1601.4,557.3,1601.3,526.4,1601.2,495.5z"/>
		<path id="XMLID_324_" class="st5" d="M1581.8,500c0.1-4.2,0.1-8.4,0.4-12.6c0.3-3.4,2-5.7,5.8-5.8c4.2-0.2,4.2,3.2,4.9,5.8
			c0.4,1.4,0.2,3,0.2,4.6c0,30.1,0,60.2,0,90.3c0,3.1,0,6.1-1.1,9.1c-7.1,3-10.1,1.1-10.1-6.7C1581.9,556.4,1581.8,528.2,1581.8,500
			z"/>
		<path id="XMLID_323_" class="st6" d="M1568,606.2c-2.8-2.7-3.5-6.1-3.5-10c-0.4-28.6-0.9-57.2-1.4-85.8c-1.7-5.3-1-10.9-1.5-16.4
			c-0.2-1.6,0.5-3.2,1.9-3.9c2.9-1.5,6.9-1,8-5.7c0.3-1.3,1.9,0.8,2.1,2c0.4,3.4-0.2,6.9,0.7,10.2c1.3,26.4,1.3,52.9,1.2,79.3
			c0,8.6,0,17.3,0,25.9C1574.6,606.3,1572.6,608.6,1568,606.2z"/>
		<path id="XMLID_322_" class="st1" d="M1573.7,495.5c-2.4-3.5-0.1-7.5-1.6-11.4c-1.7,2.2-0.1,4.6-1.3,7c-2.4-0.6-5.1-2.1-7.5,0.4
			c-2.5,2.6-0.9,5.2-0.4,8c0.6,3.5,0.2,7.3,0.2,10.9c-3-1.1-2.1-3.7-2.1-5.9c0-14.4,0.1-28.8-0.1-43.2c-0.1-4.2,0.2-8.8-3-12.4
			c-0.2-0.2-0.3-1-0.3-1c6.4-2.3,0.9-7.1,1.9-10.7c0.9-2.9,1-5.5,3.3-8c4.5-4.8,5.3-10.6,2.8-16.7c-1.4-3.4-1.4-6.3,2-8.8
			c2.3-1.7,4.3-3.6,3.8-7.1c-0.2-1.3,0.5-3.2,3.1-4.2c0,34.7,0,68.9,0,103.1C1574.4,496.1,1574.1,496.1,1573.7,495.5z"/>
		<path id="XMLID_321_" class="st7" d="M1545.6,522.1c-1-0.1-1.9-0.2-1.9-1.6c0-1.3-0.1-2.7,0-4c0.8-17.4-1.9-34.8-1.2-52.3
			c0.1-3.2-1.4-5.9-0.8-9.6c1.1-6.4,4.3-10,9.2-13.2c1.6-1,2.8-2.5,4.1-3.8c2.2,1.1,1.3,2.9,1.3,4.2c0,9.6,0.1,19.3,0.4,28.9
			c1.3,44.6,0.5,89.1,0.8,133.7c0,5.2-7.4,9.9-12.1,7.5c-0.7-0.4-1.6-1.4-1.6-2.1c0-0.7,0.9-1.7,1.6-2c1-0.4,2.3-0.4,3.4-0.2
			c6.1,1.2,7.2-2,6.1-7c-2.2-2.7-1.4-5.9-1.5-8.9c-0.9-24.6,1.6-49.1,1.2-73.6c-0.1-4-0.1-8-1.8-11.9c-4.1,1.8-5.2,5.1-5.2,9.2
			C1547.7,517.7,1548.2,520.4,1545.6,522.1z"/>
		<path id="XMLID_320_" class="st4" d="M1545.6,522.1c0.1-2.5,0.3-5,0.3-7.5c0-4,0-7.9,5.1-9c2.1-0.5,1.6-2.8,2.5-3.9
			c5,11.5,2.8,23.6,2.7,35.4c-0.1,21.2-0.7,42.3-1.1,63.4c-2.1,1.8-3.9,4.7-7.3,3.1c-3.5-1.6-4.2-4.7-3.9-8.2
			c2.2-23.1-0.1-46.3,1.9-69.4C1545.9,524.8,1545.6,523.4,1545.6,522.1z"/>
		<path id="XMLID_319_" class="st6" d="M1527.4,507c1.5-2.2,3.5-3.7,6.3-2.7c3.2,1.2,3.9,3.9,4,7c0.5,15.5,1,31,1.5,46.5
			c1.1,5.7-0.4,11.5,0.8,17.2c-0.2,8.6,1.5,17.1,0.1,25.7c-0.6,0.8-1,1.9-2.3,1.5c-5.3,0.5-7.6-1.3-7.8-7c-0.3-8-0.5-16.1-1-24.1
			c-0.9-16.3-1.1-32.6-1.5-48.9C1526.6,517.1,1526.7,512,1527.4,507z"/>
		<path id="XMLID_318_" class="st8" d="M1475.4,600.5c0,1.6,0,3.2,0,4.8c-4.8,5.9-6.6,5.9-11.2,0.1c-1.6-6-0.4-12-0.7-16.6
			c-0.3,3.3,0.1,8.1-0.1,12.9c-0.1,2.2,0.8,4.7-1.9,6.2c-5.4,2.9-8.7,1.1-9.1-5c-0.5-9.1,1.1-18.3-1.2-27.4c-0.6-2.3,0.8-4,2.5-5.4
			c0.7-0.2,1.5-0.4,2.2-0.7c2-1.4,3.3-0.1,4.5,1.3c0.5,0.6,0.9,1.5,1.4,1.6c1.5,0.3,1-1.1,1-1.8c0.2-3.9-0.8-7.9,1.3-11.5
			c0.5-0.9,1-1.9,2.3-1.4c1.1,0,2.2,0,3.3,0c4.2,0.2,3.7,3.3,4.1,6.2C1475.5,576,1474.4,588.3,1475.4,600.5z"/>
		<path id="XMLID_317_" class="st1" d="M1520.6,890c0-8.3,0-15.4,0-22.5c0-2.2,0.1-5.2,2.8-4.4c2.8,0.8,7.9-0.8,7.7,5.2
			c-0.3,8.1-0.6,16.2,0.1,24.2c1.5,18.3,0.8,36.6,1,54.9c0.1,5.1-0.7,6.8-1.9,6.1c-3.1-1.8-8.5-1-8.5-6.7c0-1,0-1.9,0-2.9
			C1522.6,925.5,1519.9,907.2,1520.6,890z"/>
		<path id="XMLID_316_" class="st3" d="M1493.1,589.2c-0.1-7.9,0.3-15.8-0.3-23.6c-0.9-11.1-0.9-22.2-1.1-33.3c0-3,0.5-5.2,3.3-6.6
			c1.2-0.8,2.4-1,3.6-0.2c5,2,6.1,4.7,5.1,10.6c-1.2,7.1-0.4,14.7,0.6,22.1c1.1,8.9,0.2,18,0.3,27c0,6.3,0.1,12.6,0.1,19
			c-1.3,2.7-3,5.3-6.5,4.3c-3.6-1-4.1-4-4.2-7.3C1493.7,597.1,1494.6,593,1493.1,589.2z"/>
		<path id="XMLID_315_" class="st9" d="M1511.1,531.3c0.1-2.1,0.1-4.2,0.3-6.3c0.3-3,1.8-5.2,5-5.3c3.6-0.1,5.1,2.2,5.4,5.5
			c0.1,0.8,0,1.5,0,2.3c0,22.5,0,44.9,0,67.4c0,2.2-0.2,4.2-1.4,6.1c-5.7,3-9,1.1-9-5.6C1511.2,574,1511.2,552.7,1511.1,531.3z"/>
		<path id="XMLID_314_" class="st1" d="M1599.1,950c0,9-0.1,18,0,27c0,3.7-0.4,4.6-4.7,3.3c-5.6-1.7-7.2-4.5-7-10.1
			c0.6-16.2-1.7-32.4-1.2-48.6c0.2-5.3,1.7-5.7,6.3-4.5c5.3,1.4,7.1,3.9,6.7,9.4C1598.7,934.2,1599.1,942.1,1599.1,950z"/>
		<path id="XMLID_313_" class="st1" d="M788.4,224.1c-0.3-3.1,3-2.1,3-4.5c-2.4,1-4.5,0.4-5.1-1.9c-0.7-2.5,2.2-1.8,3.3-2.8
			c3.1-2.6,8-1.9,10.8-5.5c0.3-0.4,1.9-0.3,2.6,0.1c3.5,2.1,5.3,0.4,6-2.9c0.8-3.6,2-4.1,4.8-1.5c4.1,3.7,8.7,6.7,12.6,10.5
			c6.5,6.4,5.3,16.7-2.1,21.6c-0.6,0.4-0.9,0.5-1.4,0.1c-0.3-0.4-0.9-1.1-0.8-1.3c3.8-4.6-1.3-6.5-2.4-9.8c-2.9,1.6,0.4,2.9-0.4,3.9
			c-1.3,1.9,5.2,3.7,0,5.5c-4,1.4-7.7-1.9-7.2-3.8c1-4-3.5-6.2-2.1-9.8c0.3-0.8-0.3-1.2-1.3-0.6c-0.6,0.4-1.8,0.6-2.2,0.3
			C799.9,215.7,794.6,223.3,788.4,224.1z"/>
		<path id="XMLID_312_" class="st4" d="M1661.4,978.6c1.8,9.8,3.7,19.5-1.1,29c-5.1-1.6-10.7-2.1-14.8-6.2c-1.2-1.9-3.4-3.2-3.4-5.9
			c0-10.1-0.1-20.2-0.1-30.2c5.5-3.8,6.8-3.4,9.3,2.7C1652.3,973.7,1656.7,976.3,1661.4,978.6z"/>
		<path id="XMLID_311_" class="st1" d="M1448.8,413c4.4-1.3,8.4-3.6,13.1-3c3.9,0.5,7-2.3,9.6-4c9.3-6.1,19.5-6.7,30-7.6
			c7.3-0.6,14.6-2.3,22-2.2c1.4,0,3-0.6,4.6,1.3c-6.2,2.2-12.3,2.8-18.2,3.2c-6.6,0.4-13.1,1.2-19.6,2.3c-2.7,0.4-3.7,1.2-4.4,4
			c-1.7,6.6,2.1,13.3,8.6,16c6.4,2.6,12.8,3.9,19.6,4.5c5.4,0.5,3,6,5.3,8.6c-1.6,1.2-2.2-0.2-2.9-0.9c-5.6-5.2-8.1-5.5-15.5-1.6
			c-0.4,0.2-1.3,0.6-1.3,0.6c-2.4-4.2-8.3-3.7-10.5-8c-0.2-0.4-0.1-1-0.7-0.9c-0.5,0-1,0.5-1.5,0.7c-1.6,0.7-1.9,0-2-1.5
			c-0.7-6.7-3.3-9.4-9.6-9.7c-8.1-0.4-16.1-1.2-24.2,0C1450.2,414.7,1449.4,414.7,1448.8,413z"/>
		<path id="XMLID_310_" class="st1" d="M1671.3,1026.6c-92.3-39.7-184.7-79.4-277-119.1c0.3-0.6,0.5-1.2,0.8-1.8
			c92.4,39.7,184.8,79.3,277.2,119C1672,1025.3,1671.6,1026,1671.3,1026.6z"/>
		<path id="XMLID_309_" class="st10" d="M1447.5,639.6c4.4-0.9,7.4-2,10.4-1.9c15.7,0.6,31.4-1,47.1-1.3c22-0.4,44-1,65.9-2.4
			c17.9-1.1,35.9-1.1,53.7-2.5c13.1-1,26.3,0.9,39.3-1.9c1.7-0.4,3.8-0.6,5.9,0.7c-1.3,1.9-2.9,2.9-5,2.7c-9-0.8-17.9,1.4-26.9,1.2
			c-15.7-0.4-31.4,1-47.1,1.5c-10.7,0.4-21.4,0.2-32.1,0.8c-21,1.3-42,1.5-63,2.5c-13.7,0.7-27.4,0.5-41,2
			C1452.9,641.2,1450.9,641.6,1447.5,639.6z"/>
		<path id="XMLID_308_" class="st1" d="M833.2,316c3.3,0.5,3.5,3.8,7.3,5.4c-6.9,1.7-12.4,2.8-17.9,1.1c-2.6-0.8-6.3,2.5-6.8,0.7
			c-1.4-4.9-5.5-2.1-7.6-3.7c-1.9-1.5-5.7,2.4-5.8-1.6c0-2.7,3-4,5.9-5.2c6.1-2.6,11.9-5.9,18.4-7.5c2.2-0.5,2.2-0.5,1.8,2
			c-0.2,0.9,0.8,1.6,1.7,1c1.3-0.9,2.8-2.6,3.7-2.9c3.4-1.1-0.1,2.5,1.5,2.9c1.1,0.3,2.4,0.4,3.4,0.1c6.9-2,14.3-1.8,20.8-5.5
			c0.8-0.5,3.3-2.4,4.3,0.1c0.6,1.5-1.4,2.8-2.5,3.2c-7.4,2.5-13.6,8.7-22.3,7C837,312.7,835.2,314.2,833.2,316z"/>
		<path id="XMLID_307_" class="st1" d="M1480,346.8c-1.3-0.2-2.6-0.1-3.8-0.6c-0.7-0.3-1.6-1.3-1.7-2.1c-0.2-1.4,1.3-0.9,2.1-1.2
			c2.9-1.2,5.9-1.8,9.4-2.2c-1.5,4.6-4.9,8.4-3.8,13c1.9,8.1,6.7,10.7,17,11.3c6.7,0.4,13.3-1.5,19.9-1.2c1.6,0.1,3.4-0.7,5.7,1.7
			c-6.4,1.1-12.1,2.2-17.8,2.9c-8,1-16,1.5-23.7,4.2c-5.4,1.9-9.4,4.3-9.1,11c0.1,2.3-0.8,5.6-3.7,5.3c-2.6-0.2-1.8-3.3-1.9-5.3
			c-0.7-11.1,3.9-20.5,10-29.3C1480,352.4,1476.3,349.2,1480,346.8z"/>
		<path id="XMLID_306_" class="st11" d="M1481.3,552.1c0.8,0,1.5,0,2.3,0.1c2.8,2.5,3.6,5.5,3.6,9.2c-0.2,13,0,26-0.1,39
			c0,6.8-2.6,8.4-9.1,6c-2.3-17.4-2.3-34.9,0-52.3C1478.9,553.1,1479.3,551.3,1481.3,552.1z"/>
		<path id="XMLID_305_" class="st1" d="M689,247.7c-0.1,1.6-1.3,3.2-1.3,5.2c-0.1,4.6,0.4,8.7,4.3,11.7c1.6,1.2,3.1,2.9,1.6,5
			c-2.1,2.9-3.7,0.2-5.4-0.8c-4.1-2.4-7.6-5.9-13.4-4c-1.2,0.4-4.5-4-6.2-6.6c-1.7-2.8-4.5-7.2-3.4-8.9c2.7-4.6,5.1-9.8,9.9-12.9
			c1.7-1.1,2.6,1,3.2,2c1.5,2.4,2.3,4.8,6.4,3.8C686.7,241.6,688.9,244.5,689,247.7z"/>
		<path id="XMLID_304_" class="st1" d="M816,283.6c4.7-2,7.6-3.1,4-7.9c-6.2-8.3-5.7-13,0.4-22c0.7-1,1.9-3.1,2.1-2.6
			c1,2.4,5,0.5,5.2,4.2c0.4,6.5,0.4,12.8-2.5,19.1c2.4,0.7,4.3,0.7,6.6-0.5c5.6-2.9,11.4-1.1,17.1,0.1c1.1,0.2,3.4,1.4,0.3,3.4
			c-2.7,1.7-5.9,2.8-7.9,5.9c-0.9,1.4-4.1,0.4-5.8,0.4C829.4,283.6,823.2,285.2,816,283.6z"/>
		<path id="XMLID_303_" class="st1" d="M1515.2,313.2c3.5,1.5,1.4,4.8,2.7,7.2c5.8,10,12.6,9.7,20.9,8.2c3.5-0.6,6.8-0.3,10.2-0.5
			c1.1-0.1,2.1,0.8,2.2,1.5c0.1,1.2-0.9,1.9-2.2,2c-8.1,0.4-15.8,2.7-24.2,0.3c-7.5-2.1-15.4,0.7-22.8,2.7c-3.8,1.1-8,1.2-11.4,4.2
			c-3.2,2.8-2.7-1.8-4-2.7c-1.9-1.3,0-2.8,1.4-3.2c6.5-2.3,12.3-5.4,15.9-11.7c0.5-0.9,1.7-2.2,2.6-2.1
			C1510.9,319.2,1513.2,316.3,1515.2,313.2z"/>
		<path id="XMLID_302_" class="st1" d="M1413.6,902.1c1.1,1.2,1.9,1.4,1.9-0.6c0-5.6-0.1-11.2,0-16.7c0.1-3.4-1.1-5.4-4.7-6.4
			c-4.5-1.4-2.4,3.4-4.4,4.1c-1.9-0.1-1.4-1.6-1.4-2.6c0-10.2,0-20.4-0.1-30.6c0-3.2,0.3-5.1,4.1-2.8c1.5,0.9,3.5,1.2,5.4,1.3
			c2.4,0.2,3.3,1.5,3.3,3.7c0,17.1-0.1,34.2,0,51.3c0,5.2-2.9,3.5-5.6,2.5C1411.6,903.8,1411.9,902.7,1413.6,902.1z"/>
		<path id="XMLID_301_" class="st12" d="M1434.9,591.5c0,5.8,0,11.7,0,17.5c-2.4,3.1-5.4,3.8-8.9,1.9c-1.7,0.8-0.6,2.3-0.7,3.4
			c-0.6,5.6-3.4,7-8.9,4.6c-0.6-0.7-1.2-1.3-1.9-2c-4-6.3-2.2-13.3-2.2-20.1c3.8-4.9,5.5-5.1,10.6-1.2c1.5,3,1.2,6.3,1.1,9.3
			c1.2-4.7-2.2-9.7,0.8-14.5c0.7-1.1,1.6-1.8,2.8-2.3c0.9-0.3,1.8-0.4,2.7-0.4C1432.7,588,1434.1,589.4,1434.9,591.5z"/>
		<path id="XMLID_300_" class="st3" d="M1570,965.6c-1.6,0.4-3.1,0.8-4.7,1.2c-4-2.8-3.6-7.4-4.1-11.4c-0.6-4.2-0.1-8.4-0.1-12.7
			c0-2.5,1.6-3.8,3.5-4.9c0.8,0.1,1.5,0.1,2.3,0.2c2.6,0.4,4.8,2.2,7.4,2.8c1.6,0.3,3.2,1.6,3.9,3.2c2.6,6.5,3,13.4,2,20.2
			c-0.4,2.7-3,3.9-5.9,3C1572.8,966.7,1571.6,965.4,1570,965.6z"/>
		<path id="XMLID_299_" class="st13" d="M1438.6,573.8c2.8-2.1,5.6-4.2,9-6.6c1.3,12.4,3,24.5,0.1,36.7c-6.4,2.1-9,0.4-9.1-6.2
			C1438.5,589.8,1438.6,581.8,1438.6,573.8z"/>
		<path id="XMLID_298_" class="st1" d="M1573.7,326.2c0.2,21.7-0.6,42.3,1.5,62.7c-3.1,0.7-3.4-1.7-3.5-2.6
			c-0.2-4.3-0.5-8.2-4.4-11.1c-1.6-1.2-0.1-2.9,1.1-4.4c4.9-6.2,4.8-23.6-2.3-28.8c-6-4.4-2.3-7.5,0.4-10.7
			C1568.2,329.5,1570.6,328.3,1573.7,326.2z"/>
		<path id="XMLID_297_" class="st1" d="M768.6,208.6c-3.9,8.6-10.9,10.4-19.2,9.6c0.5,1.7,0.9,3,2,4.3c0.9,1.1,3.6,1.9,1.5,4
			c-1.6,1.7-3.5,0-4.5-0.5c-2.9-1.7-6.8-2.1-9-5.5c3.2-1.4,4.2,2.7,7.4,2.3c-1.9-4.2-5.1-6.6-8.3-9c-1.6-1.2-3.5-2.1-5.1-3.4
			c-1-0.8-2.9-1.7-1.2-3.7c1.6-1.8,2.6-0.6,3.7,0.5c2.6,2.6,5.3,5.2,7.8,7.8c1.1,1.1,2.4,1.6,3.5,0.6c1.2-1.2-0.4-1.9-1-2.7
			c-1.3-1.5-1.2-3.2-0.3-4.8c0.9-1.6,3.1-1.9,4-1.2c4.5,3.6,9.2,2,14,1.1C765.4,207.7,767.1,207.4,768.6,208.6z"/>
		<path id="XMLID_296_" class="st8" d="M1509.1,941.2c-2.1,0.2-3.5-1.1-5-2.2c-1.7-9.2-0.8-18.5-0.8-27.8c6.3-4.3,8.6-2.8,9.4,6
			c2.7,6.4,1.5,13,0.8,19.5C1513.3,939,1511.5,940.6,1509.1,941.2z"/>
		<path id="XMLID_295_" class="st1" d="M1427,894.9c0,3.3,0,6.5,0,9.8c0,2,0.7,5-2,5.2c-2.5,0.2-5.7-1.6-5.9-4.3
			c-0.4-8.8-0.2-17.6-0.1-26.5c0-1.2,0.6-2.3,2.6-1.7c2.7,0.8,5.2,1.5,5.4,4.8C1427.2,886.4,1427,890.7,1427,894.9z"/>
		<path id="XMLID_294_" class="st1" d="M771.3,233.4c-7.2,4.3-13,10.2-18.3,16.4c-5.1,5.9-10.5,11.7-13,19.3
			c-0.4,1.3,0.9,3.1-1.5,3.5c-2.3,0.3-3.6-1.5-4.3-3.1c-0.9-2.2,0.9-3.3,4.1-4.8c-4.1,0.3-6.5-0.6-5.4-4c1.3-4,4.8-1.5,7.3-1.9
			c0.7-0.1,1.8,1.2,2.5-0.2c1.3-2.3,0-1.6-1.5-1.5c-0.6,0-0.1-1.7,0.7-2.2c10.2-6,17.3-15.7,26.9-22.3c0.4-0.3,1-0.2,1.5-0.3
			C770.7,232.6,771,233,771.3,233.4z"/>
		<path id="XMLID_293_" class="st1" d="M1573.7,278.5c0,4,0,8,0,12.1c0,1.7,0.5,4.4-1.3,4.5c-2.6,0.1-5.3-1-7.8-2.2
			c-2.2-1.1-0.3-3.2,0.1-4.4c1.9-5.4,3.2-11,4.8-16.5c0.7-2.3,1.2-4.3,0.1-6.5c-1.2-2.4,0.9-3.5,2.1-3.8c2.1-0.5,2.1,1.5,2.1,3
			C1573.7,269.3,1573.7,273.9,1573.7,278.5z"/>
		<path id="XMLID_292_" class="st14" d="M1413.6,902.1c-0.5,1.1-0.9,2.2-1.4,3.3c-7.5,0.5-9.4-1.3-9.5-8.5c0-1.9,0.1-3.8,0-5.8
			c0-3,0.8-5.6,4-6.1c3.6-0.6,5.4,2.2,5.9,5.1C1413.4,894,1413.4,898.1,1413.6,902.1z"/>
		<path id="XMLID_291_" class="st10" d="M785.6,224.8c-9.4,3.8-20,5.1-28.3,12.2c-2.5,2.1-5.9,3-8.9,4.6c-1,0.5-1.7,0.8-2.3-0.2
			c-0.8-1.2,0.4-1.9,1-2c2.1-0.4,3.3-2.2,5.3-2.9c4.3-1.5,8.4-3.8,11.7-7.4c4.6-5.1,11.3-7.1,17.1-10.3c0.8-0.4,1.4-0.6,1.9,0.1
			c0.1,0.2-0.7,0.9-0.7,1.4C782.6,222.5,786.9,221.7,785.6,224.8z"/>
		<path id="XMLID_290_" class="st1" d="M858.6,77.8c-2.2,7.4,4.6,5,7.5,7.7c-5.4,2.1-10.6,4-13.8,9.5c-2.3-4.3-2.5-9-5.8-12.3
			c-1.3-1.3,0.6-1.4,1.3-2.1C850.9,77.8,854.9,79.1,858.6,77.8z"/>
		<path id="XMLID_289_" class="st15" d="M1459.2,907.5c0.2,2.2-0.5,4.2-1.2,6.1c-0.7,1.8-2.2,2.4-4.1,2.4c-1.7-0.1-3.1-0.8-3.5-2.4
			c-0.6-2-1.1-4.1-1.2-6.1c0-3.9,0.2-8.6,5.2-8.5C1459,899.2,1459,903.8,1459.2,907.5z"/>
		<path id="XMLID_288_" class="st10" d="M1528.7,300.7c3.9-3.2,8.6-4.4,13.1-6.1c1.8-0.6,3.4-1.3,4.9-2.5c1.7-1.4,3.1-4.7,5-4.2
			c2.9,0.8,4.9,3.8,8,4.9c0.4,0.1,0.9,1.2,0.9,1.3c-0.6,0.6-1.4,1.4-2.1,1.5C1548.5,296.9,1538.4,297.4,1528.7,300.7z"/>
		<path id="XMLID_287_" class="st16" d="M1573.7,495.5c0.3,0,0.6,0,1,0c2.5,26.9,1.1,53.8,1.2,80.8c-0.3,0.6-0.5,0.6-0.8,0
			C1574.6,549.4,1574.2,522.4,1573.7,495.5z"/>
		<path id="XMLID_286_" class="st1" d="M1854.4,969.4c8-5.6,13,2.9,19.9,2c-2.2,3.7-2.2,3.7-4.2,1.5c-0.3-0.3-1-0.3-1.6-0.4
			c-0.9-0.1-1.2,0.5-1.4,1.3c-0.7,2.7-0.6,2.6-2.7,1.2c-2.1-1.4-3.7-3.2-7.1-2.8c-2.7,0.3-5.6-2.3-4.9-6c0.2-1,1.5-3,3.1-2.1
			c2.1,1.2-0.3,2-0.7,2.9C1854.6,967.5,1854.6,968.1,1854.4,969.4z"/>
		<path id="XMLID_285_" class="st1" d="M811.2,199.3c-1.3,1.2-1.9,2.7-3.7,2.9c-6.4,0.7-12.9,1.6-18.2,5.8c-1.6,1.3-3.5,0.5-4.2-0.6
			c-1-1.8,1.1-2.1,2.3-2.9c5.9-4.3,13.2-4,19.6-6.6C809,197,810.2,197.8,811.2,199.3z"/>
		<path id="XMLID_284_" class="st17" d="M1809.1,951.8c5.2,2.1,10,3.8,14.7,5.9c1.4,0.6,2.6,2.6,1.3,3.8c-1.8,1.6-1.8-0.3-2-1.6
			c-0.1-0.6-0.4-1-1-0.6c-0.9,0.6-1.6,2.2-2.8,1.6c-1.6-0.8-0.3-1.9,0.2-2.8c-0.5-0.2-1.1-0.4-1.6-0.4c-1.1-0.1-2.1,0.5-1.4,1.6
			c1,1.4,0.3,2.3-0.7,2.6c-0.4,0.2-1.4-1-2.1-1.6c-1.8-1.6-3.1-4.3-6.4-2.7c-1,0.4-2-0.6-2.2-1.9
			C1807.6,955.4,1807,951.7,1809.1,951.8z"/>
		<path id="XMLID_283_" class="st18" d="M1413.5,595.8c-1.7,7.1,0.5,14,1.1,21c0.5,5.8-4.8,4-7.4,5.5c-0.2,0.1-1.8-1.1-1.9-1.8
			c-0.2-1.5,1-2.7,2.4-2.6c4.6,0.4,4.1-1.2,3.6-5.1c-0.7-5.9-1.7-12.1,0.9-18c0,0-0.2,0-0.2,0C1413,594.3,1413.3,595,1413.5,595.8z"
			/>
		<path id="XMLID_282_" class="st1" d="M1415.6,641.1c9.8-2.5,19.8-2.9,29.8-1.3C1435.5,640.7,1425.7,643.3,1415.6,641.1z"/>
		<path id="XMLID_281_" class="st19" d="M1461.5,607.9c3.1-6.7,0.3-13.9,2.7-20.8c0,6.1,0,12.2,0,18.3c-0.1,1.5-0.4,3.1-0.1,4.6
			c0.9,6-1,8.9-7.6,8.4c-1.5-0.1-2.6,0-2.7-1.4c-0.2-1.5,1.1-2.7,2.5-2.4C1462.4,615.6,1462.1,612,1461.5,607.9z"/>
		<path id="XMLID_280_" class="st1" d="M705.6,291c-4-3.3-4.3-8.9-8.3-12.1c-0.6-0.5,0.1-1.4,0.6-1.9c1-1,1.7-0.8,2.9-0.2
			C707.2,279.8,705.8,285.6,705.6,291z"/>
		<path id="XMLID_279_" class="st20" d="M1537.8,602.2c0.8-0.5,1.6-1,2.3-1.5c0,1.5,0.1,3.1,0.1,4.6c0,6-3.5,8.9-9.5,8.1
			c-1.7-0.2-3.2-0.8-3-2.6c0.1-1.3,1.4-2.2,3-2c0.4,0,0.8-0.1,1.1,0C1537.4,609.8,1538.9,607.2,1537.8,602.2z"/>
		<path id="XMLID_278_" class="st21" d="M1568,606.2c3.1,0.7,5.4-0.4,6.9-3.2c0.3-0.6,0.6-0.6,0.9,0c0.1,2.2,1.2,5.7-1.1,6.1
			c-3.7,0.7-7.4,2.7-11.3,1.3c-0.9-0.3-2-1.7-2-2.5c0-0.9,1.3-1.7,2.6-1.6C1565.4,606.5,1566.7,606.3,1568,606.2z"/>
		<path id="XMLID_277_" class="st1" d="M1908.6,714.4c-6.5,0-12.9,0-19.4,0c0-0.4,0-0.8,0-1.2c6.5,0,12.9,0,19.4,0
			C1908.6,713.7,1908.6,714.1,1908.6,714.4z"/>
		<path id="XMLID_276_" class="st1" d="M1889.9,964.4c-7.3-2.1-14.5-4.2-21.8-6.3c0.2-0.5,0.3-1,0.5-1.6c7.4,1.8,14.7,3.7,21.8,6.4
			C1890.2,963.4,1890.1,963.9,1889.9,964.4z"/>
		<path id="XMLID_275_" class="st22" d="M1866.1,712.1c6.1,0,12.2,0,18.3,0c0,0.4,0,0.8,0,1.2c-6.1,0-12.2,0-18.3,0
			C1866.1,712.8,1866.1,712.4,1866.1,712.1z"/>
		<path id="XMLID_274_" class="st17" d="M855.3,203.4c-0.8,1.7-3,2.4-4.4,2.4c-2.4,0-4,5-5.9,1.7c-2.3-4.2,3.1-3.5,4.9-5
			C851.4,201.4,853.9,199.5,855.3,203.4z"/>
		<path id="XMLID_273_" class="st1" d="M752.1,233.2c-6.7-1.1-12.2-4.9-17.8-8.7c6.1,2.4,12.1,4.8,18.2,7.1
			C752.4,232.1,752.2,232.7,752.1,233.2z"/>
		<path id="XMLID_272_" class="st17" d="M1842.7,710.8c5.9,0,11.6,0,18.1,0C1856.3,713.4,1845.9,713.3,1842.7,710.8z"/>
		<path id="XMLID_271_" class="st1" d="M689.3,37.7c-2.5,4.8-2.5,4.8-5.8,5.9c-1.4-3,0-6.7,1.2-8.2c3.4-4.2,2.3,2.6,4.4,2.5
			C689.2,37.8,689.3,37.7,689.3,37.7z"/>
		<path id="XMLID_270_" class="st1" d="M1833.5,711c-5.3,0-10.6,0-15.9,0c0-0.4,0-0.8,0-1.1c5.3,0,10.6,0,16,0
			C1833.5,710.2,1833.5,710.6,1833.5,711z"/>
		<path id="XMLID_269_" class="st1" d="M709.8,26.9c-2.6,0.5-4.3,3.6-7.7,2.1c-1-0.5-3,2-3.3-0.7c-0.1-1.2,1.4-2.6,3-2.8
			c2.7-0.2,5.3-0.1,8-0.1C709.7,25.9,709.7,26.4,709.8,26.9z"/>
		<path id="XMLID_268_" class="st23" d="M1416.4,618.9c6.2,1.1,7.9-0.1,8.2-6.2c0.1-1.9,0.1-1.9,1.5-1.8c-0.1,2.1,0,4.1-0.2,6.2
			c-0.3,2.8-1.9,4.6-4.7,4.3C1419.4,621.2,1416.1,623.2,1416.4,618.9z"/>
		<path id="XMLID_267_" class="st1" d="M1784.8,738.5c-0.4,2.3,3,4.1,0.5,6.9c-1.7,1.8-2.9-0.1-4-0.5c-2.5-1.1-2.5-3.3-1.4-5.6
			c2.9,0.2,0.7,4.2,3.7,4.2C1784.8,742,1780.5,739.4,1784.8,738.5z"/>
		<path id="XMLID_266_" class="st10" d="M697.6,257.4c4.8,2.8,3.2,6.9,4.7,9.7c0.1,0.3-0.4,1.1-0.8,1.4c-1.2,0.8-1.6-0.5-2.2-1
			C696.8,264.7,699,261.2,697.6,257.4z"/>
		<path id="XMLID_265_" class="st1" d="M1404.9,641.5c-4.2,0.6-7.1,2.3-10.5,1.9c-0.9-0.1-2.1,0-1.8-1.4c0.2-0.6,1.2-1.7,1.3-1.6
			C1397.2,641.9,1400.6,638,1404.9,641.5z"/>
		<path id="XMLID_264_" class="st24" d="M1575.8,603.1l-0.4,0c0,0-0.4,0-0.4,0c0-8.9,0.1-17.9,0.1-26.8c0.3,0,0.5,0,0.8,0
			C1575.8,585.2,1575.8,594.1,1575.8,603.1z"/>
		<path id="XMLID_263_" class="st25" d="M1836.5,947.2c4.5,1.4,9,2.8,13.5,4.2C1844.8,952,1840,951.1,1836.5,947.2z"/>
		<path id="XMLID_262_" class="st1" d="M1406.6,612.1c-1.9-4.1-1.7-8.3-0.7-14.2C1408.3,603.6,1406.9,607.9,1406.6,612.1z"/>
		<path id="XMLID_261_" class="st1" d="M1905.7,966.9c4.5,1.3,8.9,2.6,13.4,3.9c-0.1,0.5-0.2,1-0.4,1.5c-4.7-0.5-9.1-2.1-13.5-4
			C1905.4,967.8,1905.5,967.3,1905.7,966.9z"/>
		<path id="XMLID_260_" class="st1" d="M745.2,305.1c-0.6-0.7-1.1-1.4-1.6-2.1c4.2,0,0.4-5.7,4.1-5.7c1.2,0,1.5,1.9,1.4,3.3
			C748.9,303,747.2,304.1,745.2,305.1z"/>
		<path id="XMLID_259_" class="st1" d="M869.4,108.4c-4.5,0-5.9-5.4-10-6.1c4.6-0.2,8.2,1.5,9.9,6.2L869.4,108.4z"/>
		<path id="XMLID_258_" class="st1" d="M843.8,202.4c4-2.4,7.2-6.4,12.3-6.9C852.1,198,849,201.8,843.8,202.4z"/>
		<path id="XMLID_257_" class="st1" d="M1882.2,737.1c3.4-1.7,6.8-1.6,11.6-0.4C1889.1,738.8,1885.7,738.1,1882.2,737.1z"/>
		<path id="XMLID_256_" class="st1" d="M1898.4,738.1c3.4-1.5,6.8-1.3,10.2-0.1C1905.3,739.7,1901.9,739.4,1898.4,738.1z"/>
		<path id="XMLID_255_" class="st1" d="M733.8,251.8c-1.5,0.1-3.2-0.6-2.8-1.9c0.6-2.3,3.5-1.4,5.2-2.6c0.8-0.5,2.5,0.9,2,1.7
			C737.3,250.6,736,252.3,733.8,251.8z"/>
		<path id="XMLID_254_" class="st1" d="M865.5,301.2c2.4-2,4.2-3.6,6.1-5.1c1-0.7,2.2-0.8,3.1,0c0.5,0.3,1.4,0.8,0.9,1.7
			c-0.5,0.8-1.2,1.5-2.3,1.3C870.5,298.6,868.8,301.5,865.5,301.2z"/>
		<path id="XMLID_253_" class="st26" d="M1642.1,995.5c1.9,1.5,3.2,3.4,3.4,5.9c-1.8-0.8-3.6-1.5-5.4-2.5c-0.9-0.5-2-1.2-1.5-2.6
			C1639.3,994.2,1640.8,995.2,1642.1,995.5z"/>
		<path id="XMLID_252_" class="st1" d="M1892.8,963.9c3.5,0.8,7.2,0.6,10,3.1C1899.2,966.7,1895.3,967.7,1892.8,963.9z"/>
		<path id="XMLID_251_" class="st1" d="M1833.7,733.8c2.9-2,6-1.3,9-0.7C1839.9,735.6,1836.8,734,1833.7,733.8z"/>
		<path id="XMLID_250_" class="st1" d="M1860.1,734.5c-3,1.6-6,1.5-10.2,0.4C1853.9,732.8,1857,733.5,1860.1,734.5z"/>
		<path id="XMLID_249_" class="st1" d="M1866.1,735.8c3-1.5,6-1.5,10.6-0.2C1872.2,737.5,1869.1,737,1866.1,735.8z"/>
		<path id="XMLID_248_" class="st1" d="M832,43.6c-0.9,0.8-2.4,2.4-2.8,2.2c-1.4-0.9-2.7-2.2-3.5-3.6c-0.3-0.6,1.4-2.2,2.3-1.5
			C829.3,41.5,831.3,41.5,832,43.6z"/>
		<path id="XMLID_247_" class="st1" d="M808,299.3c0.1-1.4-0.2-2.6,0.3-3.1c1.3-1.5,0.3-4,2.5-4.8c0.3-0.1,1.1,0.5,1.3,1
			c1,2.3-0.8,3.7-2,5.3C809.6,298.1,808.9,298.5,808,299.3z"/>
		<path id="XMLID_246_" class="st1" d="M863.2,196.4c1.9-1.1,3.4-3.7,5.7-1.7c0.7,0.6,0.3,2.1-0.7,3
			C865.7,200.2,865.1,196.4,863.2,196.4z"/>
		<path id="XMLID_245_" class="st2" d="M869.3,108.5c2.1,0.3,3.9,1.1,5.9,3.5c-3.2,0-6.1,1.1-7.9-0.6c-1.7-1.5,2.2-1.3,2.2-3
			C869.4,108.4,869.3,108.5,869.3,108.5z"/>
		<path id="XMLID_244_" class="st27" d="M1540.1,574.9c-1.6-5.7-1.1-11.4-0.8-17.2c0.3,0.1,0.5,0.1,0.8,0.1
			C1540.1,563.5,1540.1,569.2,1540.1,574.9z"/>
		<path id="XMLID_243_" class="st1" d="M801.2,41.4c-1.6,1-3.4,2.4-4.6-0.3c-0.8-1.9,1.2-3.3,2.2-3.4c2.8-0.3,2,2.2,2.3,3.8
			C801,41.5,801.2,41.4,801.2,41.4z"/>
		<path id="XMLID_242_" class="st28" d="M1785.7,866.7c0.5,1.3,1.2,2.5,1.6,3.8c0.4,1.4,0,2.7-1.3,3.4c-1.4,0.8-2.2,0.4-1.9-1.3
			c0.1-0.5,0.8-0.9,0.9-1.4C1785.2,869.8,1782.6,868.3,1785.7,866.7z"/>
		<path id="XMLID_241_" class="st29" d="M1527.4,507c0,5.1,0,10.1,0,15.2c-2.4-5-0.5-10.2-0.9-15.2
			C1526.9,506.9,1527.1,506.9,1527.4,507z"/>
		<path id="XMLID_240_" class="st1" d="M1532.1,367.3c-2.7-0.1-4.9,0.9-6.4-1.3c-0.6-0.9,0.4-1.4,0.8-1.7
			C1529.3,362.9,1530.5,364.9,1532.1,367.3z"/>
		<path id="XMLID_239_" class="st10" d="M1783.3,725.8c2-3.2-2.9-6.5,3.5-9.2C1783.5,719.7,1788.5,722.7,1783.3,725.8z"/>
		<path id="XMLID_238_" class="st1" d="M1878.7,971.4c6.3,1.1,0.9,5.6,3.1,7.6c-0.5,0.1-1.2,0.5-1.4,0.3c-0.6-0.5-1.8-0.8-1.1-2.1
			C1880.3,975.3,1880,973.4,1878.7,971.4z"/>
		<path id="XMLID_237_" class="st1" d="M1785.8,823.8c0.2,0.6,0.5,1.1,0.4,1.5c-0.9,2,2.9,4.1-0.2,6c-0.8,0.5-1.4,0.4-2-0.2
			C1786.3,829.1,1782.3,825.7,1785.8,823.8z"/>
		<path id="XMLID_236_" class="st1" d="M1852,893.5c-2.8,3-5.2-0.7-7.9-0.2C1846.8,890,1849.4,894.8,1852,893.5z"/>
		<path id="XMLID_235_" class="st2" d="M656.8,48.6c2.9-0.1,4.6,0.7,5.4,2.6c0.1,0.3-1.2,1.8-1.8,1.8
			C657.8,53,657.8,50.5,656.8,48.6z"/>
		<path id="XMLID_234_" class="st1" d="M1784.8,809.5c0.9-2.2,0.2-4.4-0.6-7.3C1788.6,805,1788.5,807.3,1784.8,809.5z"/>
		<path id="XMLID_233_" class="st25" d="M1826,732.2c-4,1.7-6.2,1-8.4,0.6C1819.6,730.3,1821.9,731.1,1826,732.2z"/>
		<path id="XMLID_232_" class="st28" d="M1780.8,822.7c4.5,1.8-0.5,5.2,1.7,7.3c-0.5,0.1-1.2,0.4-1.5,0.2c-0.6-0.5-1.6-0.8-1-2.2
			C1780.6,826.5,1780.5,824.7,1780.8,822.7z"/>
		<path id="XMLID_231_" class="st1" d="M819.6,246c-1.3-0.1-2.2-1-2.4-2.1c-0.2-1.2,0.8-2.4,1.8-2c0.8,0.3,2.5,0.2,2.6,1.7
			C821.8,244.9,820.7,245.5,819.6,246z"/>
		<path id="XMLID_230_" class="st1" d="M742.9,271.5c1.6,0.1,1.4,1.2,1.5,2c0.1,1.3,0.1,2.7-1.9,2.5c-1.2-0.1-1.6-0.6-1.6-1.8
			C740.9,272.7,742,272.1,742.9,271.5z"/>
		<path id="XMLID_229_" class="st2" d="M674.7,36c0.8,1,1.6,2,2.4,2.9c-0.8,0.5-1.5,1.2-2.3,1.4c-1.2,0.3-2.2-0.1-2.1-1.7
			C672.8,37.4,673.5,36.7,674.7,36z"/>
		<path id="XMLID_228_" class="st1" d="M1841.7,915.4c2.9-2.2,4.9-0.7,6.7,1.5C1846.2,916.4,1843.9,915.9,1841.7,915.4z"/>
		<path id="XMLID_227_" class="st1" d="M1780.9,787.8c-0.9-2.5,0.2-4.8-1.9-7.2C1783.6,783.2,1783.6,783.2,1780.9,787.8z"/>
		<path id="XMLID_226_" class="st1" d="M1389.8,352.4c1.9,1.9,1.3,4.1,1.3,6.6C1387.5,357.2,1389.5,354.6,1389.8,352.4z"/>
		<path id="XMLID_225_" class="st1" d="M815.1,292.5c2.4-1.4,3.9-2.4,5.8-1.6c0.8,0.3,1.2,1.5,0.6,1.9
			C819.7,294,817.8,293.6,815.1,292.5z"/>
		<path id="XMLID_224_" class="st17" d="M1563,268.3c-0.8,1.7-0.8,4.1-3.4,4.2c-0.9,0-0.9-1.1-0.8-1.8
			C1559.1,268.3,1560.5,267.6,1563,268.3z"/>
		<path id="XMLID_223_" class="st1" d="M715.5,492.9c-2.5-1.2-4.2-2.7-2.2-6.7C714.3,489.2,714.9,491,715.5,492.9z"/>
		<path id="XMLID_222_" class="st1" d="M1902.9,761.8c2-1.1,3.8-0.5,6.4-0.2C1905.7,763.9,1905.7,763.9,1902.9,761.8z"/>
		<path id="XMLID_221_" class="st1" d="M1913.4,786.6c-3.2,1.4-5,1.4-7.4,0.4C1908.1,784.8,1910.1,785.2,1913.4,786.6z"/>
		<path id="XMLID_220_" class="st1" d="M1785.2,759.6c0.9,3.1,2.1,4.6,1.3,6.4c-0.3,0.7-1,0.8-1.7,0.1
			C1783.4,764.4,1783.7,762.9,1785.2,759.6z"/>
		<path id="XMLID_219_" class="st1" d="M1801.4,731.4c1.8-1.8,3.7-1.7,6.2-0.5C1805.3,733.1,1803.3,732.1,1801.4,731.4z"/>
		<path id="XMLID_218_" class="st1" d="M869.8,118.8c-2.1-0.8-4.6-0.7-5.2-3.4c-0.1-0.3,0.3-0.9,0.5-0.9
			C867.7,114.6,868.5,117.1,869.8,118.8z"/>
		<path id="XMLID_217_" class="st1" d="M1784.3,788.6c-0.7-1-0.2-1.8,0.5-2.4c1.5-1.4-2.8-2.9,0.1-4.1c0.3-0.1,1.1,0.5,1.2,0.8
			c0.1,2,1.6,4.3-1.3,5.6C1784.7,788.5,1784.5,788.6,1784.3,788.6z"/>
		<path id="XMLID_216_" class="st0" d="M836.2,461.1c2.3,3.6-2.3,5.2-1.7,8.5c3.3-0.2,5.1-3.4,8.4-4c2.7,3.3,0.8,9.2,7.2,11.2
			c2.5,0.8-0.3,7.4-1,11.1c-2.6,13.9-6.6,27.4-5.5,41.8c0.3,4.4-1.4,9-1,13.6c0,0.4-0.3,1.3-0.4,1.3c-7.6,0.2-4.2,8.3-8.1,11.3
			c-0.9,0.7,0.5,1.7,1.2,1.9c2.5,0.4,5.3,1.1,6.4-2.6c-1.7,14.9-3.4,29.9-5.2,45c-1.9-0.1-2.3-1.7-1.9-3.1c2.3-7.6-2.3-14-3.7-20.9
			c-0.7-3.4-1.6-6.7,0.2-9.7c1.9-3.2,0.8-6.2-0.8-8.3c-1.4-2-4.7-0.5-6.6,0.2c-5.6,2.1-8.2-0.3-9.5-5.2
			c-2.8-10.4-6.9-20.3-10.4-30.5c-3.4-10-5.9-20.4-6-31.1c0-3.1,2.3-6,3.6-8.5c4.7-8.7,8.2-18.4,17.1-24.5c3-2.1,7.2,1.2,8.7-3.3
			c-0.6,4-2.1,7.5-4,10.9c-0.4,0.7-2.1,2.1-0.4,3.4c1.5,1.1,1.8-0.7,2.6-1.2C829,465.9,832.5,463.5,836.2,461.1z"/>
		<path id="XMLID_215_" class="st0" d="M1446.5,494.2c1.6,1.8,3.2,3.8,5,5.4c1.1,1,3.8,1,3,3.3c-0.6,1.6-2.7,0.6-4.1,0.7
			c-5.3,0.4-9.5-2.7-12.5-6.3c-4.9-5.7-8.9-12.2-9.9-20.4c4.7,4.9,9.4,9.8,14.1,14.5c1.3,1.3,2.2,3.3,4.6,2.9
			C1446.6,494.3,1446.5,494.2,1446.5,494.2z"/>
		<path id="XMLID_214_" class="st30" d="M1413.5,595.8c-0.5-0.3-1-0.6-1.5-0.9c6.9-5.6,13.8-11.2,20.8-16.7c2.2-1.8,2.4,0.1,2.4,1.8
			c0,3.8-0.1,7.6-0.2,11.5c-1.5-0.9-3-1.8-4.5-2.7c-0.8-2.4-1.5-1.3-2.2,0.1c-0.7,0.5-1.5,1-2.2,1.4c-3.8,0.2-1.4,4.6-3.9,5.7
			C1419.3,593.5,1416.4,593.3,1413.5,595.8z"/>
		<path id="XMLID_213_" class="st0" d="M1475.4,600.5c-1.5-1.8-0.8-4-0.9-6c-0.5-10.1-0.9-20.1-1.2-30.2c-0.1-3-1.4-5-3.6-6.6
			c0-0.8,0.1-1.5,0.1-2.3c4.7,1.2,3-2.8,4-4.8C1474.4,567.2,1476.5,583.8,1475.4,600.5z"/>
		<path id="XMLID_212_" class="st31" d="M1481.3,552.1c-1.1,0.7-2.2,1.3-3.3,2c-1-3.9,1.1-8.1-2.1-12c-1.3-1.6,2.1-4,4.7-5.1
			C1480.4,542.2,1479.1,547.2,1481.3,552.1z"/>
		<path id="XMLID_211_" class="st0" d="M619.4,508.5c5.7-5.7,11.4-11.4,17.1-17.1c0.1,0.1,0.1,0.1,0.2,0.2
			c-5.7,5.7-11.4,11.5-17,17.2C619.6,508.7,619.5,508.6,619.4,508.5z"/>
		<path id="XMLID_210_" class="st32" d="M1466.4,557.6c-0.8,0.5-1.5,0.9-2.3,1.4c-1.9-3-1-5.5,1.8-7c3.4-1.9,5.6-4.8,8.6-9.3
			C1474.1,550.3,1466.4,551.8,1466.4,557.6z"/>
		<path id="XMLID_209_" class="st33" d="M1460.4,570.7c-1.5-0.4-3-0.9-4.5-1.3c-0.6-3.4,1.9-4.8,4.5-7
			C1460.4,565.6,1460.4,568.2,1460.4,570.7z"/>
		<path id="XMLID_208_" class="st0" d="M1487.2,537c2.4,3.9,2.7,7.5,1.8,11.9C1485.8,545.1,1487.6,541.2,1487.2,537z"/>
		<path id="XMLID_207_" class="st34" d="M1498.5,525.4c-1.2,0.1-2.4,0.1-3.6,0.2c3-2.7,6-5.3,9.4-8.4
			C1503,520.9,1498.8,521.8,1498.5,525.4z"/>
		<path id="XMLID_206_" class="st0" d="M1519.1,502.8c-2.1,2.4-4.3,4.8-6.3,7.1C1515,507.6,1516.9,504.8,1519.1,502.8z"/>
		<path id="XMLID_205_" class="st0" d="M1005,346.9c4.2,0.2,8.2-2.1,14.1-1c-5.7,0.9-9.6,3.4-14,0.9
			C1005.2,346.8,1005,346.9,1005,346.9z"/>
		<path id="XMLID_204_" class="st0" d="M1489.3,529.9c-0.2,3.3-1.4,5.1-3.6,5.6c-1.1,0.2-3.1-0.8-0.2-2.1
			C1486.8,532.8,1487.7,531.4,1489.3,529.9z"/>
		<path id="XMLID_203_" class="st0" d="M796.1,350.4c-0.3,0.5-0.6,1.3-0.9,1.2c-2.2-0.2-1.9,3.2-4,2.7c-0.3-0.1-0.6-1.1-0.5-1.3
			C792.1,351.4,793.2,349.1,796.1,350.4z"/>
		<path id="XMLID_202_" class="st28" d="M569.1,814.5c1,7.6-0.6,14.8-3.8,21.7C565.2,828.7,566.1,821.5,569.1,814.5z"/>
		<path id="XMLID_201_" class="st1" d="M569.4,901.1c-0.8-2.1-1.2-3.9,0.7-5.3c1.1-0.8,1.7,0.5,1.9,1.2
			C572.8,899.3,571.6,900.5,569.4,901.1z"/>
		<path id="XMLID_200_" class="st0" d="M737.6,25.3c3.6,1,6.4-1.7,10-0.8c-2.1,1.6-3.9,3.1-5.8,4.5c6.2-0.5,12-2.5,17.5,1.9
			c0.4,0.3,5.8-1.1,3.3-7.1c4,5.5,2.5,11-1.5,12.5c-1.4,0.5-2.4,1.7-2.9,3.3c-0.7,2.6-2.6,0.9-4,0.9c-3.2-0.2-0.8-2-0.9-3.1
			c-0.3-3,1.8-1.4,2.5-1.1c1.9,0.9,2.4-0.9,3-1.7c0.9-1.3-0.7-2.3-1.4-2.4c-3.9-0.9-7.6-4.7-12.1-0.4
			C742.4,34.4,739.1,31.8,737.6,25.3z"/>
		<path id="XMLID_199_" class="st0" d="M809.8,48.7c-6.5,8.2-7.3,8.8-11.4,7.7C804,56.3,802.7,47.1,809.8,48.7z"/>
		<path id="XMLID_198_" class="st0" d="M791.2,39.2c-1.9,3.3-3.9,5.8-4.7,5.3c-2.4-1.3-4.5-1.7-7-1c-0.1-0.5-0.4-1.2-0.2-1.5
			c0.9-1.4,2.4-2.4,3.8-1.5C785.5,42.3,787.6,41.6,791.2,39.2z"/>
		<path id="XMLID_197_" class="st0" d="M828.3,70.1c-1.3,2.5,1.9,2.7,2.3,4.4c-1.7,1.5-3-0.5-4.4-0.6c-1.7-0.1-3.3,0-5.5,0
			c1.3-1.9,2.3-3.3,3.3-4.8c1.9,1.1-0.7,2.1,0.7,3.2c1.3-0.2,2-2.4,3.8-2.1L828.3,70.1z"/>
		<path id="XMLID_196_" class="st0" d="M805.3,67.6c3.6-2.9,8.3-0.9,11-4.5c-1,5.3-1.2,5.7-5,4.2C809.2,66.5,807.9,68.5,805.3,67.6z
			"/>
		<path id="XMLID_195_" class="st0" d="M828.5,70.3c1.6-1.7,4-1.4,5.2-0.6c2,1.3,7.1,0.1,5.8,3.5c-1.3,3.5-2.8-2-5.3-1.8
			c-1.6,0.1-4-0.4-5.9-1.1C828.3,70.1,828.5,70.3,828.5,70.3z"/>
		<path id="XMLID_194_" class="st0" d="M813.8,39.4c-0.4,0.6-1.3,1.5-1.1,1.8c1.6,2.9,1.1,3.6-1.8,1.8c-0.9-0.6-2.3,0.3-3.1-1.5
			c1.6-1.7,3.5-2.7,6.1-2C813.9,39.5,813.8,39.4,813.8,39.4z"/>
		<path id="XMLID_193_" class="st0" d="M661.8,73.5c-4.2-0.9-6.7,3.3-11.1,4.1C653.7,73,657.3,72.2,661.8,73.5z"/>
		<path id="XMLID_192_" class="st0" d="M819.5,76.1c2.5,2.1,4.4,3.8,6.3,5.4C821.1,82,820.6,81.6,819.5,76.1z"/>
		<path id="XMLID_191_" class="st0" d="M772.3,49.9c3.3,1.8,4.6-0.4,5.7-3.1C776.6,52.6,776.6,52.6,772.3,49.9z"/>
		<path id="XMLID_190_" class="st0" d="M823.9,53.1c1,0.2,2.6-0.5,2.4,1.3c-0.1,1.1-1,2.1-2.2,2c-1.2-0.1-2.1-1-2.1-2.2
			C821.8,53,823,53.2,823.9,53.1z"/>
		<path id="XMLID_189_" class="st35" d="M1661.4,978.6c-8.4-0.8-10.4-3-10.1-10.6C1656.3,969.9,1662,971.2,1661.4,978.6z"/>
		<path id="XMLID_188_" class="st31" d="M1611.7,476c-3.3-3.2-6.7-3.2-10,0c0-1.7,0-3.4,0-5.5c2.8,1.5,5.2,0.7,7.6-0.7
			c2.8-1.7,0.6-5,2.5-8.1C1611.7,467.1,1611.7,471.5,1611.7,476z"/>
		<path id="XMLID_187_" class="st32" d="M1632.5,470.2c-3.3-3.3-6.7-3.3-10,0c-0.1-2.9,0.1-5.8-0.2-8.6c-0.5-4.7,3.8-5.3,6.2-5.9
			c1.9-0.5,5.2,1.3,4.3,5.3C1632.1,464,1632.5,467.2,1632.5,470.2z"/>
		<path id="XMLID_186_" class="st36" d="M1570,965.6c0.7-2.4,1.6-1,2.7-0.3c3.9,2.4,6.7,1,6.7-3.6c-0.1-4.9-0.5-9.9-1.4-14.8
			c-0.5-2.8-2.3-5.5-5.7-5.5c-2.7,0-4.2-1.4-5.5-3.4c2.9-4,4.3,0.9,6.5,1.3c6.6,1.2,10,4.8,8.8,12.5c-1,6.3-0.7,13,1.6,20.5
			C1578.1,969.6,1574,967.6,1570,965.6z"/>
		<path id="XMLID_185_" class="st0" d="M1434.4,417.9c-0.8-2.1-6-1.6-3.2-6c0.8-1.2,1.2-2.3,2.8-1.8c1.6,0.4,1.3,2,0.8,2.7
			C1433.5,414.5,1436.1,415.9,1434.4,417.9z"/>
		<path id="XMLID_184_" class="st31" d="M1509.1,941.2c3.3-2.5,3.5-6.1,3.5-9.8c0-4.8,0.1-9.5,0.2-14.3c1.4-0.2,2.9-0.3,4.3-0.5
			c0,9.1,0,18.3,0,27.9C1514.3,943.4,1511.7,942.3,1509.1,941.2z"/>
		<path id="XMLID_183_" class="st37" d="M1422.2,596c0.1-2.1,0-4.2,0.4-6.2c0.2-1.1,1.2-2,2.4-1.9c1.2,0.2,0.9,1.4,1.1,2.3
			c-2.6,5-0.6,10.6-1.8,16C1423.6,602.7,1422.9,599.4,1422.2,596z"/>
		<path id="XMLID_182_" class="st38" d="M1428.3,588.9c0-2.3-0.7-4.9,3.4-5.7c-1.3,2.1-1.1,3.9-1.2,5.6
			C1429.7,588.8,1429,588.8,1428.3,588.9z"/>
	</g>
</g>
</svg>
