<?xml version="1.0" encoding="utf-8"?>
<!-- Generator: Adobe Illustrator 19.0.0, SVG Export Plug-In . SVG Version: 6.00 Build 0)  -->
<svg version="1.1" id="Layer_1" xmlns="http://www.w3.org/2000/svg" xmlns:xlink="http://www.w3.org/1999/xlink" x="0px" y="0px"
	 viewBox="0 0 1598.9 876" style="enable-background:new 0 0 1598.9 876;" xml:space="preserve">
<style type="text/css">
	.st0{fill:#20201F;}
	.st1{fill:#FDFDFD;}
	.st2{fill:#FEFEFE;}
	.st3{fill:#282828;}
	.st4{fill:#202020;}
	.st5{fill:#101111;}
	.st6{fill:#414242;}
	.st7{fill:#252525;}
	.st8{fill:#F4F4F4;}
	.st9{fill:#EBEBEB;}
	.st10{fill:#3F4040;}
	.st11{fill:#424242;}
	.st12{fill:#BF70AD;}
	.st13{fill:#C071AD;}
	.st14{fill:#C072AE;}
	.st15{fill:#FCFCFC;}
	.st16{fill:#BF71AD;}
	.st17{fill:#FCFBFC;}
	.st18{fill:#F3F3F3;}
	.st19{fill:#FAFAFA;}
	.st20{fill:#E8DCE4;}
	.st21{fill:#F7F7F7;}
	.st22{fill:#E4E4E4;}
	.st23{fill:#F5F5F5;}
	.st24{fill:#F6F6F6;}
	.st25{fill:#EEE7EC;}
	.st26{fill:#E9E9E9;}
	.st27{fill:#E2E2E2;}
	.st28{fill:#EDEDED;}
	.st29{fill:#DFDFDF;}
	.st30{fill:#E0E0E0;}
	.st31{fill:#CFCFCF;}
	.st32{fill:#DCCBD7;}
	.st33{fill:#E8E8E8;}
	.st34{fill:#9A9A9A;}
	.st35{fill:#CCCCCC;}
	.st36{fill:#9B9B9B;}
	.st37{fill:#EEE5EB;}
	.st38{fill:#D0D0D0;}
	.st39{fill:#C5C5C5;}
	.st40{fill:#D8D8D8;}
	.st41{fill:#E6E0E4;}
	.st42{fill:#CDCDCD;}
	.st43{fill:#A3A3A3;}
	.st44{fill:#8C8C8C;}
	.st45{fill:#E2E1E1;}
	.st46{fill:#F1E6EF;}
	.st47{fill:#AFAFAF;}
	.st48{fill:#D3D3D3;}
	.st49{fill:#A0A0A0;}
	.st50{fill:#CECECE;}
	.st51{fill:#D9D9D9;}
	.st52{fill:#9FA09F;}
	.st53{fill:#888888;}
	.st54{fill:#919191;}
	.st55{fill:#878787;}
	.st56{fill:#1F1F1F;}
	.st57{fill:#1B1B1A;}
	.st58{fill:#212120;}
	.st59{fill:#0B0B0B;}
	.st60{fill:#242424;}
	.st61{fill:#1F201F;}
	.st62{fill:#222221;}
	.st63{fill:#232322;}
	.st64{fill:#2E2E2E;}
	.st65{fill:#242423;}
	.st66{fill:#2A2A2A;}
	.st67{fill:#343434;}
	.st68{fill:#EAEAEA;}
	.st69{fill:#272727;}
	.st70{fill:#BEBEBE;}
	.st71{fill:#313232;}
	.st72{fill:#2C2C2C;}
	.st73{fill:#313131;}
	.st74{fill:#3D3D3D;}
	.st75{fill:#3E3E3E;}
	.st76{fill:#383939;}
	.st77{fill:#5E5E5E;}
	.st78{fill:#141414;}
	.st79{fill:#404040;}
	.st80{fill:#212121;}
	.st81{fill:#373838;}
	.st82{fill:#444444;}
	.st83{fill:#4C4C4C;}
	.st84{fill:#797979;}
	.st85{fill:#464646;}
	.st86{fill:#7B7B7B;}
	.st87{fill:#3F3F3F;}
	.st88{fill:#5C5C5D;}
	.st89{fill:#949494;}
	.st90{fill:#818181;}
	.st91{fill:#232323;}
	.st92{fill:#202120;}
	.st93{fill:#2B2B2A;}
	.st94{fill:#1C1C1C;}
	.st95{fill:#1F1F1E;}
	.st96{fill:#353535;}
	.st97{fill:#2D2D2D;}
	.st98{fill:#2B2B2B;}
	.st99{fill:#4F5050;}
	.st100{fill:#6D6D6D;}
	.st101{fill:#4D4D4D;}
	.st102{fill:#1E1E1E;}
	.st103{fill:#2F2F2F;}
	.st104{fill:#DFDEDE;}
	.st105{fill:#B9B9B9;}
	.st106{fill:#777777;}
	.st107{fill:#C2C2C2;}
	.st108{fill:#C6C6C6;}
	.st109{fill:#EFEFEF;}
	.st110{fill:#F0F0F0;}
	.st111{fill:#D5D5D5;}
	.st112{fill:#A8A8A8;}
</style>
<g id="XMLID_3235_">
	<g id="XMLID_174_">
		<path id="XMLID_344_" class="st0" d="M920.9,876.9c-16.6,0-33.1,0-49.7,0c1-3.2,3.7-2.2,5.7-2.3c6.6-0.3,6.5-0.2,6.1-6.7
			c-0.3-4.8-3.2-9.1-2.6-14.1c0.2-2.2-2.5-2.4-4.4-2.5c-5-0.4-10-0.1-15-0.1c-7.8,0-15.6-0.1-24.2,0.1c3.2,2.5,3.6,5.9,5.2,8.6
			c0.8,1.3,0.5,2.5-0.2,3.9c-3,5.8-0.1,10.6,6.3,10.8c1.9,0.1,3.8-0.1,5.6,0.1c1.4,0.2,3.3-0.2,3.4,2.2c-13.4,0-26.9,0-40.3,0
			c-0.2-2.6-1.2-4.2-4-2.9c-2.9,1.3-6.2,1.5-9.1,2.9c-34.7,0-69.3,0-104,0c-4.7-1.5-9.5-2.1-14.1-2.1c2.1,1.5,5.8-1.8,7.5,2.1
			c-41.9,0-83.7,0-125.6,0c-0.6-3.3,1.6-4.1,4.1-4.3c2.8-0.2,5.6-0.1,8.4-0.1c1.8,0,3.8,0.4,5-1.5c-0.7-1.4-2.5-1.3-3.3-2.5
			c-1.7-2.5-1-4.5,1.4-5.9c1.7-1,3.2-1.8,2.9-4.2c-0.3-2.8,0.5-5,3.8-5.3c3.2-0.3,6.6-0.3,8.1,3.2c1.6,3.7,1.3,7.7,0.2,11.5
			c-0.4,1.6-1.8,2.2-3.5,2.1c5.8,0.3,11.4-1.8,17.2-0.6c-4.7-1.1-5.9-2.3-5.2-7c0.4-3-0.4-6.9,2.7-8.6c4.3-2.3,9.3-2.3,14.1-2.1
			c1.5,0.1,2.4,1.3,2.9,2.8c1.9,4.9-0.9,13-5.5,16.6c9.6,1,19.2,2.1,29.9,2.6c-7.1-1.4-13.3-0.9-19.4-1.7c-3.4-0.4-4-1.8-3.1-4.5
			c0.8-2.4,1.3-4.8,1.3-7.3c-0.1-12.8,2.2-25.4,3.2-38.1c0.5-6,0.4-12.1,2.3-17.3c0-1,0.1-0.8-0.1-0.3c-0.7,1.5,0.4,4.6-2.3,4.3
			c-2.6-0.2-2-3.1-2.2-5c-0.6-7.3,2.4-13.7,5.6-20c-2.9,3.7-6,7.2-10,9.6c-3.1,1.8-4.4,4.8-4.9,8.1c-0.9,5.6-3.6,9.2-9.7,9.6
			c-1.3,0.1-2.4,0.4-2.8,2c-0.4,1.6-1.6,2.4-3.1,2.5c-3.8,0.2-4.3,2.2-4.7,5.7c-0.9,7.4-0.8,15-2.7,22.3c-1.2,4.8-3.1,6.6-8,7.2
			c-2.8,0.3-5.6,0.4-8.4,0.3c-2.7-0.1-5.3-1-6.5-3.9c-1.1-2.8,0.9-4.3,2.7-5.9c0.5-0.4,0.9-0.9,1-2.2c-4.6-0.9-9.1-2.2-14-1.3
			c-1.3,0.3-2.8,1.1-3.8-0.6c-0.9-1.6-1-3.3-0.3-5c0.8-1.8,2.3-1.1,3.7-0.9c5.1,0.7,10.3,0.1,15.4,1.4c2.8,0.7,4.6-0.4,4.8-3.4
			c0.2-3.1-1.9-3.4-4.3-3.5c-5.4-0.2-7.3-1.5-7.8-5.3c-0.6-3.9,1.4-6.6,5.5-7.2c2-0.3,4.1,0.2,6.8-1.7c-6.8-0.3-7.7-4.3-7.3-9.3
			c0.1-1.7-0.7-3.4-1.3-5c-2.2-6.1,0.6-11.9,0.6-17.9c0-1.5,1.1-2.1,2.4-2.5c1.1-0.3,2.2-0.4,3.3-0.3c13.7,0.9,27.4-1.8,41.1-1
			c3.4,0.2,6.7-0.6,10.4-1.3c-1.6-1.7-3.1-1-4.4-0.9c-4.7,0.5-9.3,0.3-14-0.2c-4.2-0.4-8.8-1.6-11.9,2.9c-0.4,0.5-1.1,0.5-1.7,0.5
			c-6.1,0-12.2,0.1-18.3-0.1c-0.8,0-1.6-0.2-2.2-0.6c-8.5-5.5-17.4-2.6-25.4-2c-1.9,13.7,0.3,26.7,1.3,39.8c1.9,0.3,3.7-0.2,5.5-0.3
			c7-0.5,10.2,3.1,8.7,10c-0.6,2.9-5.2,5.8-8.8,5.8c-3.3-0.1-5.6-2.4-6.4-7.3c0.2,4.2,1.4,7.2,0.8,10.3c-0.3,1.4-0.3,3-2,3.3
			c-1.7,0.3-2.5-1.1-2.9-2.5c-1.1-3.9-3.2-7.5-3.6-11.6c-1.1-11-3.8-21.8-3.6-32.9c0.1-6.6-2.2-12.9-2.1-19.5c0-2.6-1.8-4.2-3.9-5.5
			c-2.9-1.7-3.8-4.1-3.5-7.5c1.9-20.7,5.3-41.2,9.7-61.4c2.5-11.6,3.1-23.5,6.2-35c0.9-3.3,1.5-6.7,2.4-10c1-3.8-0.1-5.8-3.7-7.2
			c-10.5-4.1-21-8-31.2-12.7c-27.7-12.8-57-21.3-85.8-30.8c-13.6-4.5-27.4-8.7-40.3-15.1c-7.3-3.6-12.8,0.5-18.9,2.9
			c0.9,2.3,2.6,2.2,4,2.7c12.8,4,25.8,7.6,37.8,13.7c6.6,3.3,13.3,5.7,20.4,7.6c14.3,3.8,24.1,13.9,32.6,25.4
			c8.7,11.8,11.5,25.8,15.2,39.5c3.8,14,7,28.1,11.9,41.8c3,8.5,6.6,17,8.5,26.1c1.1,5.5,4,10.6,5.4,16.2c1.7,7,3.8,13.8,3.9,21.1
			c0,3.3,1,6.5,1.8,9.6c4.5,17.3,6.9,35.1,12.3,52.2c3.4,10.6,5.7,21.7,8,32.7c0.2,0.8,0,1.5-0.5,2.2c-177.2,0-354.3,0-531.5,0.1
			c-3.8,0-4.6-0.7-4.6-4.5C-0.2,724.7-0.3,576.8-0.3,429c5.8-25,11.9-50,15.9-75.4c3.4-21.5,10.2-42.3,23.1-60.3
			c10.8-15.2,23.7-28.6,37.4-41.1c9-8.2,19.1-15.1,28.4-22.9c3.6-3,7.6-5.6,11.9-7.4c10.3-4.2,19.5-10.5,29.2-15.7
			c6.5-3.5,11.1-9.9,17.7-13.7c1.7-1,3.4-2.3,5-3.5c2.9-2.1,6-2.5,9.3-1.1c23.2,10,44.9,22,60.6,42.6c5.6,7.4,10.3,15.3,12.5,24.4
			c0.7,3,2.2,4.1,5.2,4.1c10.5,0.1,20.6,2.8,31.1,3.4c9.4,0.5,17.8,5.6,26.7,8.5c6.7,2.2,13,4.5,20.5,3.4c7.2-1,11.2,2.8,12.8,10.1
			c0.4,2,1.1,4,2.6,5.4c2.3,2.1,3.3,4.9,4.3,7.7c1.9,5.4,1.2,7.4-3.8,10.4c-3.7,2.2-6.3,5.5-8.9,8.8c-1,1.3-1.2,2.7-1,4.4
			c1.3,11,5,21.4,7.7,32c1,3.8,0.9,7.5-1.5,10.8c-2.2,3-2.7,5.6-0.7,9c1.7,3,1.5,6.2-0.6,9.3c-1.8,2.7-2.4,6-5.1,8.2
			c-1.1,0.8-0.8,2.3-0.2,3.5c0.8,1.9,1.1,3.9,1.3,5.9c1.1,11.1,7.1,18.4,16.9,23.7c9.5,5.1,16.2,13.4,20.4,23.4
			c0.7,1.8,0.7,3.7,0.4,5.6c-0.4,2.3-0.6,4.7,0.2,7c1.6,4.3-0.1,8.4-1.3,12.3c-0.8,2.9-3.2,4.4-6.5,4.1c-7.6-0.6-9.9,2.4-8.4,10.1
			c0.6,3.2,1.5,6.4,2.6,9.4c0.9,2.5,2.2,3.4,4.1,0.5c1.5-2.5,3.8-6.7,6-5.6c3,1.5,3,6.2,2.7,9.7c-0.6,7.3-1.4,14.6-1.4,21.9
			c0,3.6,1.1,6.8,4.4,8.7c3.6,2.1,5.7,0.8,5.8-3.3c0-1.9-0.3-3.7-0.9-5.5c-2.2-6.6-1.5-13,2-18.9c1.8-3.2,1.8-6.2,0.6-9.4
			c-0.4-1.2-1.1-2.3-2.5-2.6c-3.1-0.5-5.7-1.7-5.2-5.3c0.5-3.4,2.8-5.9,6.2-7c2.6-0.8,5.1-0.9,7.7,0.3c5.7,2.6,11.4,5.2,16.4,9
			c3.3,2.6,6.3,3,10.2,0.6c6.9-4.2,13.9-8.5,21.6-11.1c2-0.7,3.6-1.8,4.7-3.7c3.6-6.3,9.6-9.1,16.1-11.3c1.3-0.5,3-0.4,3.9-1.5
			c3.9-4.8,9.5-7.5,14.3-11.2c0.4-0.3,0.8-0.6,1-1c4.4-10,13.9-16.2,18.7-26.1c4.1-8.4,10.9-15.2,18.2-21.2
			c3.7-3.1,5.8-6.7,5.4-11.3c-0.6-8.2,3.1-14.5,8-20.3c1.8-2.2,3.1-4.6,4.5-7.1c6.5-11.9,11.8-24.4,17.3-36.7
			c2.1-4.6,4.8-9.1,8.4-12.9c1.4-1.5,1.5-3.4,1.6-5.2c0.4-7.9,3.5-13.1,11.8-15.8c11.2-3.6,22.8-4.9,34.3-7.4
			c16.8-3.6,33.2-8.8,49.8-12.9c5.5-1.3,10.7-2.9,15.5-6.1c5-3.4,8-8.7,12.8-12.3c0.4-0.3,0.6-0.7,0.7-1.2c0.8-10,4.5-20.2-2.2-29.8
			c-2.7-3.8-2.5-8.9-3.8-13.3c-1.3-4.4,3.3-7.9,8.8-7.7c-1.2-1.4-2.8-1.3-4.2-1.8c-3.6-1.4-4.7-5.3-1.3-7.1c5.6-3.1,6.8-7,5.4-12.8
			c-0.7-3.1,0.5-5.7,4.4-6.5c4.3-0.9,2.5-3.9,1.4-6.2c-0.7-1.5-1.1-3.7-3.1-3.7c-2.2,0-2.8,2.1-3.6,3.8c-0.8,1.7-1.3,3.5-2.2,5.1
			c-0.8,1.4-1.7,2.8-3.6,2.3c-1.6-0.5-1.7-2.1-1.8-3.5c-0.6-8.4,1.5-16.3,5.5-23.4c6.2-11.1,14.7-20.1,26.5-25.7
			c5.4-2.6,11-4.1,17.1-4.3c13.3-0.5,26.1,1.1,38.3,6.9c7.5,3.5,13.1,9,17.5,15.7c2.9,4.4,2,9.4,1.6,14.1c-0.3,4-0.2,7.4,2.4,10.9
			c2.4,3.2,2.5,7.5,1.5,11.7c-1.4,5.6-3.8,10.9-5.7,16.3c-0.6,1.9-2,4.4-0.2,5.6c1.8,1.2,3.7-1,5.1-2.3c2.4-2.2,4.8-3.8,8.3-3.4
			c1.7,0.2,3.3-0.6,4.4-2.1c-0.8-1.6-2.1-1.2-3.3-1.1c-6.8,0.4-10.2-3.8-8.2-10.6c1.1-3.7,2.3-7.4,3-11.3c0.3-1.9,0.7-3.7,0.2-5.5
			c-1-3.9,0.9-6.4,4.4-7.7c9.7-3.7,19.6-5.2,29.6-0.8c2.4,1.1,5.1,1.6,7.7,2.1c2.6,0.6,4.7,1.7,5.2,4.6c0.5,2.9,0,5.3-2.3,7.2
			c-4.1,3.3-8.8,5.2-14,6c-2.3,0.3-4.3-0.6-5.6-2.7c-0.3-0.4,0.9-1.8-0.9-1.2c-0.8,0.3-1.3,0.5-0.9,1.6c1,2.7,0.3,5.2-1.4,7.5
			c-1.3,1.8-0.8,3.7-0.3,5.4c1.5,5.1,1.8,10.9,8.6,12.9c3.2,0.9,4-0.3,3.5-2.5c-0.7-3.2,0.9-4.5,3.2-4.2c5.1,0.6,10.6-0.2,15,2.4
			c4.8,2.8,9.1,6.7,11.5,12c1.1,2.4,2.7,3.8,5,5.1c3.5,2,7,4.6,7,9.4c0,2.5,2,2,3.3,2.3c4.6,0.8,7.6,3.4,9.7,7.4
			c0.9,1.8,1.9,3.8-0.2,5.6c-1.3,1.1-0.4,1.9,0.1,2.8c1,1.7,0.5,2.9-1.5,3.5c6.5-1.6,11.3,0,14.1,6.5c1,2.5,4.1,3.3,6.2,5.9
			c-3.4-5.5-3.1-7.3,1.3-9.6c1.4-0.7,1.5-1.6,1.1-2.6c-2.4-6.8-0.6-13.6-0.5-20.4c0-4.2,3-6,6.7-3.9c2.7,1.5,4,3.9,3.5,7.1
			c-0.3,1.7-0.8,3.3-1,5.1c-0.6,5.3,3.8,10.9,9.1,11.5c4.8,0.5,5.7,2,3,5.9c-6.9,10-13.7,20.1-19.6,30.8c-0.4,0.7-1,1.1-1.6,1.4
			c10.3,2.2,20.5,5,30,9.9c1.5,0.8,3.6,1.2,3.7,3.2c0.1,1.9-2.1,2-3.4,2.7c-5.7,3.3-7.5,7-4.3,11.8c4.2,6.4,5.7,13.5,6.6,20.8
			c1.4,12.7,5.9,24.6,9,36.8c0.3,1,0.6,2.1,0.6,2.1c-0.7-11.6-2.5-24.3-1-37.1c0.8-6.5-1.8-12.6-1.3-19.1c0.4-4.3,0.5-8.7-0.6-13.1
			c-0.5-2,0.1-3.6,2.1-4.1c3.6-0.9,4.3-3.7,4.8-6.7c1-5.5-0.9-10.9-0.8-16.3c0.1-13.9,0.8-27.7,4.9-41.2c1.5-4.8,3.5-9.4,3.5-14.5
			c0-1.2-0.2-2.7,1.2-3.3c1.4-0.6,3.1-0.3,3.9,0.8c2.3,3.4,5.7,3.1,9.2,3.3c5,0.3,9.1,3.1,13.4,5.3c3.3,1.7,6.3,1.9,9.8,0.3
			c9.1-4.1,18.4-4.4,27.6,0c3.3,1.6,6.7,2.8,10.2,3.2c13.6,1.6,26.9,5.7,40.7,4.8c10.6-0.7,18.1,4.7,24.8,11.8
			c3.5,3.7,5.6,7.8,5.6,13.4c0,4.6,3.9,8.3,5.9,12.4c2.7,5.6,5.2,11.4,8.4,16.7c2.7,4.5,3.1,10.1,6.7,14.2c0.4,0.5,0.3-0.2,0.2,0.4
			c-0.6,7.1,4.6,10.1,9.1,14.1c4.8,4.2,5,10.9,6.8,16.7c0.5,1.7,0.6,3.5,2.1,4.6c4.6,3.5,6.7,8.8,10.3,13.1c3.3,4,4.2,8.7,4.7,13.5
			c0.5,5,1.5,9.9,3,14.6c1.9,6,2.8,12,2.2,18.4c-0.6,6.1,2.9,11.7,3.1,17.9c0.2,8.3,3.4,16.2,5.2,24.2c1.9,8.5,1.7,17,2.6,25.5
			c0.5,4.5,0.8,9,1.1,13.5c0.8,10.6-3.9,18.7-11.6,25.3c-6.9,5.9-8,13.3-3.3,21.3c4.1,6.9,6.4,14.6,8.8,22.1c0.7,2.1,2,3.5,2.7,5.4
			c6.1,16.2,11.8,32.6,17.4,48.9c2.2,6.3,3.8,12.9,5.7,19.3c5.5,18.3,13.5,35.6,19.5,53.7c2.7,8,2.4,8.8-5.2,12
			c-7,2.8-12.9,7.7-20.1,10c-1.3,0.4-2.1,1.5-2,2.9c0.2,2.5-0.7,5.1,0,7.5c2,6.1,1.2,12.4,2.1,18.5c0.3,1.9,0,3.7-0.2,5.6
			c-0.9,11.3-3.1,22.5-1.8,34c0.1,0.9,0.2,1.9,0.1,2.8c-1.9,9.5-1.5,19.3-2.2,28.9c-0.4,6.1-0.7,12.1-0.3,18.2
			c0.1,1.2,0.6,2.8-0.3,3.6c-5.3,5.4-4.3,12.6-6,19.1c-0.4,1.7-0.9,3.3-1.7,4.8c-2.5,4.5-5,5.2-9.5,2.7c-1-0.5-1.9-1.3-3-0.6
			c-1,0.7-0.3,1.7-0.2,2.6c0.5,3.3-1,5.4-3.7,6.3c7.8,0.8,15.8,0.4,23.9,0.3c1.1,0,2.2,0,3.3,0.2c1.5,0.3,3.5,0.2,3.3,2.4
			c-0.2,1.7-2,1.9-3.3,1.9c-6.4-0.1-12.8,1-19.2,0.4c-3.8-0.4-7.4,0.7-12,1.1c3.8,3.4,3,6.1,0.4,9.1c-2.1,2.4-0.3,5.2,0.2,7.9
			c0.6,3.3,2.2,3.6,5,3.4c2.5-0.2,5-0.2,7.5,0.1c1.4,0.2,3.4-0.3,3.4,2.2c-15,0-30,0-45,0c1.6-2,3.7-9.3,3.7-12.7
			c0-2,1.1-3.6,1.5-5.4c0.9-4.1-0.7-6.3-4.8-5.7c-4.5,0.7-8.9,0.9-13.4,1.2c-2.9,0.2-4.5,1.6-4.3,4.8c0.2,3.7-0.2,7.5,0.1,11.2
			c0.3,3.1,1.5,4.8,5.1,4.3c2.3-0.3,4.7-0.2,7,0.1c1.4,0.2,3.3-0.2,3.4,2.2c-68.7,0-137.4,0-206.1,0c-0.3-2.8,0.1-5.6-0.3-8.4
			c-0.3-1.9,0-3.9,1.3-5.3c2.4-2.5,4.2-5.3,5.1-8.7c0.5-1.8,2.3-2,4.1-2.4c5.4-1.2,10.8-0.1,16.3-0.5c8-0.6,16.1-0.5,24.2-0.9
			c6.5-0.3,7.5,1.5,5,7.6c3.2,0.9,5.2,2.6,5.4,6.5c0.1,3.2,2.9,5.8,4.1,8.8c0.7,1.6,2.7,0.9,4.6,0.4c-0.4-2.2-2.5-4.6,0.5-6.5
			c0.7-0.5-0.2-1.4-0.6-2c-1-1.3-2.4-2-3.8-2.6c-1.2-0.5-2.3-1.2-2.5-2.6c-0.2-1.9,1.3-1.8,2.5-1.9c-2.2,0.3-2.5-0.9-2.7-2.7
			c-0.3-3,1.4-4.5,3.9-5c4.8-1.1,5.7-4.1,5.6-8.6c-0.3-17.2-0.4-34.3,0-51.5c0.2-9.3,0.3-18.5,0.4-26c0,5,0.1,11.7,0,18.4
			c-0.1,6.2-2.2,8.2-8.3,7.7c-2.7-0.2-5.3-0.3-8.2,0.7c1.7,0.8,3.3,0.5,4.7,0.9c1.6,0.4,3.3,1.2,3.5,2.8c0.6,4.6,1.2,9.4-0.8,13.8
			c-1.3,3-4.4,4-7.4,4.3c-4.2,0.4-4.6,2.7-3.2,5.8c2.6,5.5,4.5,11.3,8,16.3c0.6,0.9,1.2,1.8,1.5,2.9c0.6,2.9-2,5.8,1.2,8.9
			c1.4,1.3-1.5,3.4-3.7,3.4c-7.9-0.2-15.8,0.5-23.8,0.8c-10,0.4-19.9-0.9-29.8-1.1c-6.2-0.1-6.3-1-6.9-7.3
			c-1.5-14.3-1.3-28.7-1.2-43c0-7,0.4-7.4,7.3-7.8c0.5,0,0.9,0,1.4,0c0.9-0.1,2.1,0,2-1.3c-0.1-1.2-1.3-1.2-2.2-1.3
			c-2.5-0.3-5-0.1-7.5-0.1c-3.4,0-6.9,0-10.3-0.1c-3.7-0.1-5.8-2-6.2-5.7c-0.1-1.1-0.5-2.1-0.5-3.2c-0.1-3.3,0-6.6,0-9
			c-0.5,5.1,0.4,10.9,1,16.7c0.2,2.2,1.5,3.6,2.8,5.2c2.2,2.7,1.7,4.6-1.4,5.1c-2,0.3-1.4,1.4-1.3,2.2c0.5,9.8-2,19.4,0.1,29.4
			c1.1,5.6-0.1,11.8,0.3,17.7c0.1,1.6,0,3.2,1.3,4.3c2.9,2.6,2.2,5.1,0.2,7.8c-3.5,4.9-0.6,10.1,3.2,14.3c0.1,0.1,0.6,0,0.9-0.1
			c1.5-0.2,3-0.3,4.5,0C919.3,874.5,921,874.8,920.9,876.9z"/>
		<path id="XMLID_343_" class="st1" d="M1176.7,876.9c-4.6-1.8-9.5-0.3-14.2-0.9c-1.6-0.2-4.1,1.1-4.6-0.8c-0.7-2.7,3-0.6,3.6-2.4
			c-3.3-1.4-4.3-7.6-1.9-10.7c1.4-1.8,5.9-4-0.5-5.3c-1-0.2-0.6-1.3-0.4-2.3c0.3-1.9,1.4-2,2.9-2.1c9.7-0.7,19.4-0.9,29.1-0.8
			c1.2,0,2.5,0,3.7-0.5c-11.4-3.5-23.4-0.5-35.2-3c9.2-4.5,9.2-4.5,5-9.9c3.3-0.4,6.4-3.4,8.9,1.5c0.7,1.3,2.8,0.7,4.1-0.5
			c2.7-2.7,4.4-5.9,3.8-9.7c-0.4-2.3,1.6-2.8,2-4.4c-0.8,0-1.6,0.1-2.5,0.1c1.6-2.6,3.8-4.8,2.8-8.2c-0.2-0.6,0.4-2,0.8-2
			c5.6-0.9,2.9-4.8,3-7.8c0.6-14.1-0.2-28.2,2.4-42.2c0.3-1.8,0.2-3.7,0.1-5.6c-0.9-12.2,0.8-24.2,2-36.3c0.5-4.8,0.4-10.2-1-15.1
			c-1.5-5.1-0.6-10.2-1.6-15.3c-0.3-1.5,1.2-2.4,2.7-2.8c9.1-2.8,16.5-9,25.5-12c2.2-0.7,2.7-2.2,1.8-4.4
			c-4.7-10.7-7.5-22.1-12.2-32.6c-7.3-16.2-10.9-33.6-16.7-50.2c-4.8-13.9-10.1-27.6-15.1-41.4c-0.8-2.2-0.9-2.2-3.1-3.8
			c-0.3-0.2-0.5-0.9-0.4-1.2c0.9-3-0.5-5.4-1.7-8c-2.1-4.9-4.1-9.8-5.8-14.8c-0.9-2.5-4.5-3.3-3.8-6.6c0.7-3.2,0.5-6.2,0.1-9.5
			c-0.5-3.9,3.4-5.4,5.7-7.3c9.9-8,13.2-18,11.1-30.4c-1-5.8-1.2-11.7-1.2-17.6c0.1-10-2.3-19.5-5-28.9c-1.1-3.9-1.5-7.9-1.8-11.7
			c-0.4-4.6-1.9-8.6-3.3-12.8c-0.5-1.6-0.7-3.1-0.4-4.6c1.2-6.1,0.2-11.8-1.8-17.6c-2.3-6.4-2.6-13.2-3.5-19.9
			c-0.4-2.7-1.6-5.1-3-7.5c-1.7-2.8-6.2-3.7-5.3-8.5c0.1-0.7-3.9-3.2-5.8-5.1c-1.6-1.6-1.6-3.7-2.3-5.6c-2.8-6.7-1.8-15.6-10.7-18.9
			c-2.8-1-4.6-4.2-4.5-6.3c0.3-4.5-3.3-7.1-4.1-10.7c-1.1-4.8-3.1-9-5.5-13.2c-2.6-4.5-4.5-9.4-7.2-13.9c-2.1-3.4-3-7.5-6.5-10
			c0.3-1.6,2.7-0.8,2.5-1c-2.5-2.1,0.3-5-1.5-7.5c-5.1-6.9-11.1-12.4-19-15.8c-2.2-0.9-4.8-1.6-7.2-1.4c-8.7,0.8-17-0.4-25.5-2.2
			c-6.8-1.4-14-1.4-21-2.8c-4.9-1-8.7-4.2-13.7-5.1c-7.7-1.3-14.9-0.5-21.8,3.1c-3,1.5-5.7,0.4-8.3-0.7c-4.1-1.8-8.1-5.4-12.1-5.3
			c-6,0.1-10.1-2.4-14.3-5.6c-0.1-0.1-0.3,0-0.8,0.1c2.1,6.5-1.4,12.1-3,18c-1.3,4.9-2.6,9.8-3.1,14.8c-0.8,7.6-1.6,15.3-1.6,22.9
			c0,3.8,0,7.9,1.1,11.9c1.2,4.4,0.1,8.9-1.4,13.2c-0.9,2.3-2.6,1.8-4.2,1.8c-2.1,0.1-2.9,0.9-1.6,2.8c1,1.4,0.7,3,0.7,4.5
			c0.2,8-0.8,16.1,1.6,24c0.2,0.8-0.2,1.8-0.3,2.7c-1.2,8.7-1.1,17.5,0,26.2c0.7,5.8-0.5,11.5,0.7,17.3c-3.9-8.5-6-17.4-8.2-26.4
			c-2.2-9-4.1-18-5.5-27.1c-0.5-3-1.7-5.8-3.5-8.4c-6.5-9.2-1.2-14.9,7.5-17.1c-11.2-6.9-23.6-9.6-35.9-13.2c5-1.2,4.7-6.1,6.6-9.1
			c5.3-8.5,11.2-16.5,16.5-25c0.5-0.7,1.6-1.2,0.9-2.3c-0.6-1.1-1.7-0.3-2.6-0.4c-2.5-0.3-4.9,0.8-7.8-0.3c1.7-2,2.8-3.7-1.1-4.8
			c-3.5-1-4.1-5.4-2-9.8c2.4-5-0.4-9.8-5.6-9.8c-1.4,0-1.9-0.1-1.7,1.6c0.4,4.2,0.5,8.4-0.7,12.7c-0.7,2.5,0.7,5.2,1.2,7.7
			c0.4,2.2,0.1,4.3,0.7,6.4c-1.8,0.1-3-2.1-4.6-0.5c-1.4,1.3-0.4,2.8-0.3,4.3c0.2,1.9,1,3.5,1.8,5.1c0.4,0.7,0.5,2-0.8,2.2
			c-0.9,0.1-2.5,0.1-2.2-0.9c1.5-4.2-3.1-3.4-4.1-5.4c-0.6-1.3-4.9-1.1-1.7-4c-2-1.6-4.9-5.1-5.8-4.6c-3.2,1.6-5.6-2.2-8.4,0
			c6.3-3.8-2.7-5.1-0.8-8.3c0.9-1.2,3.2,2.2,3.5,0c0.3-1.8-0.4-4.2-1.9-5.9c-2.6-3.2-6.3-4-10.1-4.7c-1.1-0.2-2.7,0.5-3.2-1.2
			c-0.6-2,1-2.7,2.9-3.7c-2.3-1-4-2.1-4.8-4.2c-0.3-0.8-1.2-1.9-1.8-2c-5.1-0.1-5.6-4.4-7.9-7.6c-4-5.5-8.2-11.8-16.9-10.9
			c-3.5,0.4-6.8-2.8-10.5-0.6c0,1.3,1.7,1.6,2.1,2.7c0.4,0.9,1.2,2.5-1.3,1.6c-1-0.4-1.4,0.5-0.4,1.2c1.2,0.8,0.9,1.5,0,2.1
			c-0.8,0.6-1.9,0.6-2.6-0.2c-2.3-2.7-5.3-3.6-8.5-4.3c-1.4-0.3-1-1-0.8-2.3c0.3-2.2,0.6-5-2.2-6.5c-1.1-0.6-2.4-1.6-0.1-2.5
			c0.6-0.2,1.4-0.6,0.6-1.1c-4-2.7-0.5-4.5,0.9-5.9c2-1.8-0.9-4.3,1.4-5.8c-0.9-1.1-2.1,0.4-3.2-0.5c1.8-2.9,5.2-2,8.5-3.7
			c-1.5,1.6-2.3,2.5-3,3.2c2.6,2.9,6,2.3,8.4,1c2.4-1.3,5.8-0.7,7.3-3.7c0.5-1,1.3,0,2-0.3c2.2-1,3.8-3.3,3.3-5.1
			c-0.5-1.9-0.4-5.3-4.4-5.3c-3.6,0-7.1-1.5-10.5-2.9c-7.1-3-14.5-2.1-21.8-0.3c-1.8,0.4-3.6,1-5.2,1.7c-3.1,1.5-4.4,3-3.1,7.2
			c1.4,4.5-0.7,9.6-2.5,14c-1.3,3-1.5,5.8-0.6,8.7c0.8,2.4,1.9,4.2,5.4,2.9c2.1-0.8,6.4-2.2,7,1.7c0.6,4.1-4.6,4.4-6.4,4.1
			c-4.9-0.8-7.2,2.1-9.7,4.9c-1.7,1.9-4.4,0.2-5.8,2.8c-1.7-6.9,1.5-12.1,3.8-17.3c2.6-5.8,3.9-11.7,2.6-18.1
			c-0.1-0.4-0.2-1.1-0.5-1.2c-6.4-2.5-4-7.7-3.7-12.1c0.7-13.1-5.4-22.6-17.6-27.8c-11.2-4.8-22.7-7.5-34.9-7.2
			c-19.6,0.4-33.3,10.5-43.7,26.3c-5.4,8.3-8.1,17.2-7.6,27.1c0,0.8-0.5,2,0.8,2.3c1.2,0.3,1.5-0.9,1.9-1.7c1-2.1,2.6-4.1,2.9-6.3
			c0.5-4,3.2-4.9,6.5-6.1c-0.4,3.8,2.8,5.9,3.6,9c0.3,1,2.5,2.3,1,2.8c-2,0.6-1.6,4.2-4.6,2.9c-2.9-1.3-3.8,0.6-3.4,3
			c0.3,2.5-1.6,5.7,2,7.5c1.1,0.5,0.2,1.3-0.3,2.1c-1.9,2.7-5.1,3.4-7.5,5.4c-1.1,1-2.3,1.6-2,3.3c0.4,1.7,1.6,2.6,3.3,2.7
			c0.9,0,2.1-0.2,2.7,0.3c1.4,0.9,4.2,1.2,3.2,3.7c-1,2.5-2.6,0.2-3.8-0.2c-1.8-0.5-3.9-1.1-4.4,0.9c-0.6,2.3-4.4,3.8-1.7,7.1
			c1.3,1.6,2.5,3.6,1.5,6.2c-1.2,2.8,1.4,5,2.8,6.4c2.5,2.3,2.9,5.3,2.9,7.8c0.1,4.6,2.6,9.4-0.8,13.8c-0.3,0.3-0.6,0.9-0.5,1.2
			c1.4,4.5,0.2,7.3-3.6,10.6c-4,3.5-7.4,7.7-11.9,10.8c-7.1,5-15.5,5.6-23.4,7.9c-11.5,3.3-23,6.8-34.6,9.4
			c-14.9,3.3-30.2,4.7-44.7,10c-3.5,1.3-5.7,4.2-5.5,7.3c0.6,8.6-5.5,13.9-9,20.5c-2.8,5.3-5.4,10.5-7.3,16.3
			c-2.1,6.3-6.1,12-9,18.1c-3.1,6.3-6.3,12.4-11,17.9c-3.4,4-4.8,9.1-4.3,15c0.6,5.8-2.8,10.2-7.6,14c-8.5,6.8-15.2,15.4-19.9,25.3
			c-1.2,2.4-2.9,4.4-4.8,6.2c-2.1,2-4.9,3.7-5.9,6.5c-2.7,7.3-8.3,11.6-14.7,15.1c-1.3,0.7-2.1,1.6-3,2.7c-1.9,2.5-4.1,3.8-7.6,4.5
			c-6.1,1.2-11.4,4.7-14.6,10.5c-0.9,1.7-2,3.1-3.9,3.7c-8.8,2.7-16.6,7.4-24.3,12.3c-3.3,2.1-6,2-8.7-0.5
			c-5.2-4.9-11.9-7.1-18-10.2c-3.8-1.9-10.4,0.8-12,4.7c-0.9,2.3-0.3,4.8,2.5,4.8c2.4-0.1,4.3-0.5,5.1,2.3c1.1,3.7,3,7.4,0.4,11.1
			c-4.4,6.2-5.8,12.6-2.3,19.7c0.2,0.4,0.2,0.9,0.4,1.3c1.4,4.3,0.2,9.7-2.6,9.8c-3.5,0-6.6-1.5-8.6-5.2c-2.5-4.5-2.1-8.9-1.5-13.6
			c0.7-5.2,1-10.4,2-15.6c0.6-3.3-3.4-5.5-1.6-9c-2.3,2.9-5.5,4.8-6.3,8.6c-0.6,2.8-2.8,2.1-3.5,0.7c-2.1-4.3-4.3-8.5-4.4-13.5
			c0-0.3,0.2-0.8,0-0.9c-5.7-4.9,3.5-6.7,2.2-10.7c2.1,0.1,3.9-1.8,6.1-0.6c3.4,1.8,6.9,0.4,7.2-3.6c0.3-3.9,2.7-7.8,0.3-12
			c-0.8-1.5-0.2-4,0.1-6c0.5-3.2-0.7-5.4-2.1-8.3c-2.7-5.7-8-9.1-11.1-14.2c-3-5-8.4-5.2-12.3-8.2c-2.8-2.3-7.6-3-7.2-8.2
			c0-0.5-0.3-1.4-0.7-1.6c-5.5-2.7-3.5-8.2-4.5-12.5c-0.4-1.6-0.6-3.1-1.3-4.7c-1.2-2.6-1.9-5.7,2.3-6.9c0.4-0.1,0.9-0.4,1.1-0.8
			c1.3-2.2,1.4-4.8,2.9-7.1c1.3-2.2,1.2-5.5-1.8-8.2c-1.9-1.6-0.5-5.4,1.2-7.1c2.8-2.8,3.1-6.2,2.5-9.4c-1.3-6.8-3-13.6-6-20
			c-0.7-1.6-1.1-2.9-0.4-4.7c0.8-2.2,1.1-5.1-0.8-7.1c-1.9-2-1.5-4-0.4-5.8c2.8-4.5,6-9,11.2-10.8c3.2-1.1,4.2-3.3,3.2-5.6
			c-1.5-3.4-0.9-8-5.3-10.1c-2.2-1-2.6-3.8-3.1-6c-1.4-6.9-4.8-10.5-11.5-9.1c-9.5,1.9-17.2-2.2-25.4-5.1c-10.1-3.6-19.8-7.7-31-7.5
			c-8.5,0.2-17-2.8-25.6-3c-1.4,0-2.3-0.7-2.5-2.2c-1.6-12.3-8.4-22-16.2-31.1c-14.7-17.2-34.1-27.4-54.1-36.9
			c-6.5-3.1-10.7,0.2-14.9,3.7c-14.6,12.3-30.7,22.1-48.1,29.9c-8.1,3.6-14.4,10.1-21.4,15.4c-6.3,4.7-12.6,9.5-18.3,14.8
			c-6.5,5.9-12.5,12.3-18.5,18.8c-6.4,6.9-12.8,13.9-18,21.7c-9.4,14.1-15.7,29.5-19.9,46c-5.6,22.3-6.6,45.6-13.9,67.5
			C3.8,414.6,3,422.2-0.3,429c0-142.7,0-285.5,0-428.2c1.6-1.3,3.6-0.9,5.4-0.9c81,0,162,0,243,0c6.4,0,7,0.9,7.1,7.4
			c0.1,13.9-0.6,27.7-1.2,39.9c0.8-11.5,1.3-24.7,1.1-38c0-1.6,0.4-3.1,0.6-4.6c0.4-3.3,2.1-4.8,5.6-4.7c11.4,0.1,22.8,0.1,34.2,0
			c2,0,4.1,0.3,5.9-0.9c223.3,0,446.7,0,670,0c4.4,1.9,8.9,0.7,13.4,0.9c4.9,0.3,5,0.3,5.5,5.4c0.9,9.6,0.8,19.3,0.8,28.9
			c0.3,39.8,1.5,79.5,0.9,111.5c0-8.5-0.1-24.9,0-41.3c0.1-14.5-0.3-29-0.6-43.5c-0.3-13.7-0.2-27.4-0.3-41.2c0-5-1-9.9-1-14.8
			c0-3.7,1.3-4.9,4.9-5c4.9-0.1,10,1,14.8-0.9c195.4,0,390.7,0,586.1-0.1c3.5,0,4.3,0.8,4.3,4.3c-0.1,205.7-0.1,411.4-0.1,617
			c-1.3,2.4-3.5,2.4-5.7,2.3c-2.8-0.1-4,1.1-4,3.8c0,2.8,1,4.7,4,4.4c4.5-0.4,5.3,1.6,5.3,5.7c-0.2,12.1-0.1,24.3-0.1,36.4
			c0,1.5-0.5,3.1,0.5,4.5c0,15.6,0,31.2,0,46.9c-1.1,3.7-0.2,7.4-0.5,11.1c-0.2,2.5,0.6,5.1-1.8,7.4c-1.3,1.2-0.1,3.2,0.7,4.7
			c2.3,4.5,1,6.6-4,6c-3.4-0.4-7.3-0.1-9.3-4.2c-1.1-2.3-4.2,0.9-5.2-1.6c-0.8-2,1.8-3.7,0.5-5.8c-0.6-1-0.9-2.3-2.6-3.5
			c0.9,6,0.3,11.5,0.7,16.9c0.2,3.5,2.3,5.2,5.9,5.1c3.4-0.1,6.9-0.1,10.3,0c1.9,0,3.8-0.2,5.3,1.3c0,6.6,0,13.1,0,19.7
			c-0.8,4.4-0.8,8.7,0,13.1c0,21.9,0,43.7,0,65.6c-1.1,1.4-2.8,1.8-4.4,2.4c-11.1,3.8-23.1,5.5-33,12.5c-2,1.4-4.5,1.1-6.6,2
			c-16.6,0-33.1,0-49.7,0c-1.6-0.9-3.4-0.5-5-0.5c-72.5,0-145.1,0-217.6,0c-1.7,0-3.4-0.4-5,0.5c-2.2,0-4.4,0-6.6,0
			c-3.7-0.8-7.5-0.8-11.2,0C1232.9,876.9,1204.8,876.9,1176.7,876.9z"/>
		<path id="XMLID_342_" class="st2" d="M535.7,876.9c-2.8-10.7-5.3-21.5-7.8-32.3c-1.5-6.5-3.3-13.3-5.9-19.6
			c-3.5-8.3-2.5-17.3-4.9-25.7c-1.5-5.1-3.5-10.2-4.1-15.5c-0.8-6.6-1.4-13.2-2.8-19.7c-0.9-4.3-3.3-8.2-2.7-12.9
			c0.3-2.2-3-2.8-3.6-5.2c-1.2-5.4-3-10.7-4.7-15.9c-6.8-20.4-13.6-40.9-17.9-62.1c-3.7-18.1-11.8-34.2-26.4-46.5
			c-7-5.9-14.7-10.1-23.8-11.4c-3.7-0.5-7-1.9-10.4-3.8c-12-6.9-25.3-10.7-38.4-14.9c-3.2-1-6.5-2.1-9.7-3.1
			c-0.9-0.3-1.9-0.7-1.7-1.8c0.1-0.9,0.9-1.1,1.7-1.4c4.2-1.6,8.3-3.3,12.6-4.8c2.7-0.9,5.2,0.2,7.6,1.2
			c19.3,8.8,39.7,14.6,59.8,21.3c18.6,6.2,37.5,11.6,55.4,19.6c15.6,7,31.7,12.9,47.2,20c1.8,0.8,1.7,1,1.3,2.8
			c-4.2,17.1-6.5,34.6-10.2,51.8c-3.3,15.7-4.7,31.8-7.5,47.7c-0.8,4.3,0,8.7-1.3,12.9c-0.9,2.9,1.7,3.9,3.5,4.7
			c3.3,1.4,4.1,3.8,4.1,7c0.1,10,1.4,20.1,2.3,30c0.8,8.3,1.2,17,4.1,25.1c1,2.8,3,5.3,2.8,8.6c-0.1,0.9,0.5,1.5,1.4,1.5
			c1.2,0,0.9-1.1,0.9-1.8c0-4.4,0-8.9,0.3-13.4c0.4,3.4-0.1,7,4.9,7.7c2.9,0.4,5.2-0.6,7.5-1.5c1.9-0.8,1.8-2.8,1.4-5.1
			c-1.2-6.8-1.7-7.3-9.1-5.6c-4,0.9-5.3-0.5-5.4-4.6c-0.3-7.9-1-15.7-1.7-23.5c-0.2-1.9-0.5-3.4,0.6-5.2c1.2-2,1.8-4.7-1.3-6.3
			c-0.7-0.3-1.5-0.8-1.3-1.7c0.2-0.9,1.1-1.3,2.1-1.5c7.6-1,15.2-1,22.8-0.7c3.3,0.1,5.3,3.7,9.1,3.8c5.5,0.3,10.9,0,16.3,0.2
			c0.4,0,1-0.1,1.3-0.3c3.4-3.8,3.5-4.1,9.5-3.7c4.8,0.2,9.5,0.9,14.4,0.8c2.2,0,4.1-1.6,6.3-0.8c1.3,0.5,3.2,0.8,3.2,2.3
			c0.1,1.6-1.8,2.1-3.1,2.3c-3.2,0.5-6.5,0.9-9.7,0.9c-9,0.1-17.9,0.2-26.9,0c-5.8-0.2-11.4,0.8-17.2,0.9c-1.2,0-2.4-0.3-1.7,2
			c0.9,3.3,0.9,6.7-2.3,9.2c-0.2,0.1-0.3,0.7-0.3,0.7c4,2.6,0.4,7.5,3.1,10.5c1.1,1.3,1.1,3.1,0.5,4.5c-1.6,3.9,0.6,4.7,3.7,4.8
			c1.7,0.1,4,0.2,4,1.8c-0.1,1.5-1.9,3.1-4.1,3c-1.4,0-2.8,0.1-4.2,0c-4.3-0.4-5.5,1.9-5.1,5.7c0.4,4,2.9,5.1,6.2,4
			c2.9-1,5.6,0,6.6,1.9c1.4,2.6-0.1,5.9-1.7,8.2c-1.4,2-4.1-0.1-6-0.4c-3.4-0.6-6.8-0.6-10.1-0.6c-2.4-0.1-5,0.6-6.2-2.7
			c-1.2,2.1-1.1,3.6-0.6,4.8c0.2,0.6-0.5,4.9,2.9,1.2c2.2-2.4,6.8-0.1,10.3,0.2c1.5,0.1,3.1,0.4,4.6,0.8c1.2,0.3,2.6,0.5,2.7,2.1
			c0.1,1.4-1.2,1.7-2.2,2.1c-2.4,1.1-5,2.4-3.6,5.4c1.2,2.7,5.4,3.5,6.7,2.8c2.8-1.6,5.4-0.3,8-0.8c3.8-0.6,5.6-2.5,5.9-5.9
			c0.7-8.5,2.7-16.9,2-25.4c-0.3-3.8,2.4-3.3,4.7-3.3c3,0,3.1,0,2.9-3.1c-0.1-0.9,0.6-1.1,1-1.2c1-0.3,2.1-0.4,3.2-0.5
			c7.1-0.5,8-0.9,9-7.8c0.7-4.9,3.1-7.8,6.9-10.7c4.1-3.1,9.4-5.9,9.6-12.4c1.5,2.6,1.6,5.1,0.2,7.6c-4.2,7.9-5.2,13.1-4,22.7
			c2.2-2.5,2.1-5.4,2.8-8c-0.4,9.7-0.5,19.3-2.2,28.8c-0.9,5.2,0.9,10.6-1,15.7c-1.9,5.1-0.8,10.4-0.9,15.6
			c-0.1,2.4-0.1,4.6-1.6,6.6c-2.2,3-0.4,3.8,2.4,3.8c7.2,0,14.4,0,21.9,0c-1.2,3.2-1.4,5.7-6.1,3.6c-2.7-1.2-7,0.5-10.6-0.6
			c-1.3-0.4-3.8,1.7-3.8-1.8c0-0.5-1.3-0.5-2,0c-1.2,0.9-2.3,3.5-3.5-0.1c-0.1-0.4-0.5,1.9-2.7,1.6c-3-0.4-4.6-3.1-7.9-3
			c5.8-2.5,9.4-10.4,7.8-16.4c-0.5-2-2.1-2.5-3.6-2c-2.6,0.8-5.3,0.3-7.8,1c-1.7,0.5-4.9-0.5-5.1,2.2c-0.3,3.7-2,7.3-0.8,11
			c0.4,1.2,1.7,1.1,2.8,1.1c1.7,0,3.4,0,5.2,0c-1.8,3.8-8.7,4.3-24.6,1.8c5.9,1.1,6.2-2.3,5.8-6.4c-0.1-1.4-0.1-2.8,0-4.2
			c0.1-2,0-4-2.2-4.6c-2.4-0.6-5.1-1-7.3,0.2c-1.9,1.1-1.1,3.4-0.6,5.1c0.6,2,0.9,4.1-1.9,3.6c-3-0.5-3.8,1-3.7,3.2
			c0.1,2.3,1.8,2.9,4,2.1c0.7-0.2,1.5,0,2.4,0c-2.4,6-3.4,6.3-10,5.4c-3.7-0.5-8.2-2.4-10.5,2.8C557,876.9,546.3,876.9,535.7,876.9z
			"/>
		<path id="XMLID_341_" class="st1" d="M913.5,875.1c-1.6,1.4-3.3,1.2-5.5,0.5c1.9-1.9,4.3-3.3-0.2-4.6c-2.4-0.7-1.8-9.1-0.2-11.5
			c1.2-1.8,6.9-4.4-0.2-6.4c-0.9-0.2-1.7-1.9-1.4-3.2c1.3-6.3-1.4-12.8,0.6-19.1c0.5-1.4-1.2-3.4-1.4-5.2
			c-0.7-10.2,1.4-20.3,0.6-30.7c1,0.3,1.5,0.3,1.5,0.4c0.5,1.1,0.5,2.5,2.1,2.7c0.8,0.1,0.9-0.6,1-1.3c0.1-1.5,0.1-3-1.6-3.4
			c-3.2-0.7-2.9-3-2.9-5.4c0.1-7,0-13.9,0.3-20.9c1.4,5.7-0.6,11.7,2,17.4c1.2,2.6,2.4,4,5.4,3.8c6.1-0.4,12.2,0.6,18.2-0.7
			c1.9-0.4,3.7,0.2,3.7,2.3c-0.1,1.5,0,3.5-3.1,3.5c-8.8-0.1-9,0.1-8.8,8.8c0.2,9.9-0.2,19.9,0.5,29.8c0.3,4.5,2.1,9.1,0.4,13.9
			c-0.7,1.9,1.1,2.6,2.9,2.7c10,0.2,19.9,1.4,29.9,1.7c8.4,0.2,16.6-0.6,24.9-1c1.9-0.1,4.8,0.9,4.9-2c0-2.9-3-1.8-4.8-2.1
			c-0.3-0.1-0.6-0.2-1.5-0.4c4.1-1.8,6.8-5.2,3.6-8.3c-1.9-1.9-2.7-3.7-3.4-5.8c-1.8-5-5.9-8.9-6.6-14.5c-0.4-3-0.3-4.1,3.2-4.2
			c8.2-0.2,10.3-1.6,9.7-10.1c-0.1-0.9-0.2-1.9,0-2.8c1.2-4.8-0.9-6.3-5.4-5.8c-1.9,0.2-4.2,0.5-5.4-1.8c4.5-2.4,9-2.5,14-1.6
			c4.5,0.8,5.2-3.2,5.3-6.4c0.2-6.7,0.1-13.4,0.1-20.1c0-1.2,0-2.5,0.1-3.7c0.1-0.8,0.5-1.6,1.3-1.6c1.4,0,1.2,1.2,1.1,2.1
			c-1.9,27.9-0.4,55.8-0.8,83.7c-0.1,7,0.1,7.7-6.9,8.6c-4.7,0.6-1.8,3.9-3.2,5.6c-0.2,0.2,1.3,0.6,1.9,0.2c1.9-1.1,3.4-0.9,5.2,1.1
			c-2.7,0-5,0-8.6,0c4.3,3.8,11.1,3.7,10.6,10.4c-1,1.6-2.8-2.6-3.3,0.3c-0.2,0.9-0.3,3.2,2.2,2.6c0.8-0.2,1.3,0.1,1.1,0.9
			c-0.3,1.2-0.5,2.6-2.1,2.7c-2.2,0.1-4.4,0.1-6.6,0c-0.4,0-1.1-0.4-1.1-0.4c1.2-4.2-2.7-6.2-4.1-9.3c-0.2-0.5-0.8-0.9-0.3-1.6
			c3-4.3-1.1-4-3.3-4.7c-1.3-0.4-3.3,0.5-3.7-1.1c-0.4-1.5,1.4-2.1,2.8-2.4c1.6-0.3,1.9-1.5,1.7-2.8c-0.2-1.5-1.2-2.1-2.6-2
			c-9.4,0.5-18.7,0.9-28.1,1.4c-2.1,0.1-4.1,0.9-6.3-0.2c-1.6-0.8-3.7-0.9-5.3,0.5c-0.9,0.8-2.1,1.2-3,0.7c-4.7-2.7-4.3,0.6-4.4,3.6
			c0,2.2-0.2,3.8-3.1,4.8c-4.3,1.4-3.2,5.6-2.5,8.8c0.5,2.3,0.6,4.1-1.2,5.7c-0.9,0-1.9,0-2.8,0c-0.8-0.7-1.6-1.4-2.3-2
			c-2.9-1.6-0.8-4.8-2-6.7C916.3,870.7,916.4,873.5,913.5,875.1z"/>
		<path id="XMLID_340_" class="st2" d="M857.1,876.9c-3.8-1.8-7.8-0.5-11.8-0.8c-2.6-0.2-7-4.5-6.2-6.8c0.5-1.6,0-2.2-0.7-3.2
			c-0.4-0.6-0.7-1.9,0.1-2.1c5.9-1.9,0.5-3.7,0.4-5.8c-0.3-3.6-1.2-5.4-4.8-6c-0.7-0.1-0.7-1.7,0.6-2c0.9-0.2,1.9-0.1,2.8-0.1
			c12.6,0,25.3,0,37.9,0c1.1,0,2.2,0.1,3.2,0.3c2.5,0.3,4.3,1,3.8,4.3c-1.1,6.1,2.3,11.6,2.9,17.6c0.3,3.1,0.1,4-3.2,4
			c-3.6,0-7.4-1.2-10.9,0.7C866.5,876.9,861.8,876.9,857.1,876.9z"/>
		<path id="XMLID_339_" class="st3" d="M301.5-1.1c-0.6,2.6-2.6,1.7-4.2,1.7c-12,0.1-24,0.1-36,0c-2.9,0-3.6,0.7-4,3.8
			c-1.4,9.3,0,18.7-0.8,27.9c-0.6,7.1-0.9,14.2-0.8,21.3c0,1.1,0,2.6-1.3,2.6c-1.3,0-1.4-1.4-1.4-2.5c0.4-7.6-0.1-15.2,0.6-22.8
			c0.9-9.3,0.2-18.7,0.3-28.1c0-1.6-0.6-2.3-2.2-2.2c-0.6,0-1.2,0-1.9,0c-82.7,0-165.4,0-248.1,0C1,0.7,0.4,0.7-0.3,0.8
			c0.4-0.6-0.9-2,0.9-1.9c1.1,0.1,2.2,0,3.3,0C103.1-1.1,202.3-1.1,301.5-1.1z"/>
		<path id="XMLID_338_" class="st2" d="M1129.8,876.9c-3.8-1.9-7.8-0.5-11.7-0.8c-1.9-0.2-3.9,0-7.2,0c4.7-2.9,0.5-5.8,1.7-8.6
			c0.8-1.7,0.1-4,0.1-6c0-7.8,0-8.2,7.3-8.7c3.7-0.3,7.4-0.6,11.2-0.9c7-0.6,9.5,3.5,6,9.8c-1,1.8-0.8,2.9-0.3,4.7
			c2.2,7.3,1.6,8.4-5.3,10.6C1131.1,876.9,1130.4,876.9,1129.8,876.9z"/>
		<path id="XMLID_337_" class="st0" d="M1556.2,876.9c4.2-2.3,8.3-4.8,12.4-7.2c3.6-2.1,8.1-2.8,12.2-4c6.5-1.9,13-3.8,19.5-5.6
			c0,4.8-0.1,9.7,0.1,14.5c0.1,2-0.4,2.4-2.4,2.4C1584,876.9,1570.1,876.9,1556.2,876.9z"/>
		<path id="XMLID_336_" class="st4" d="M1600.2,761.7c-5.9,0-11.8-0.1-17.8-0.1c-3.2,0-4.8-1-5-4.5c-0.2-3.4-1.7-6.7,0.5-10.3
			c0.4-0.7-1.2-4.7-1.2-7.2c0-1.5,0-3.1,0-5.5c3.3,2.9,5,6.1,6.6,9.2c1.2,2.1-3.2,2-2.9,5c4.2-3.8,6.4-2.8,6.8,2.5
			c0.1,1.3,11,2.3,11.7,1.1c0.4-0.7,0.4-2,0-2.6c-3.4-5-3.4-4.9,0-8.8c0.6-0.6,0.2-2.1,0.3-3.1c0.5-4.4-1-8.8,0.9-13.1
			C1600.2,736.7,1600.2,749.2,1600.2,761.7z"/>
		<path id="XMLID_335_" class="st5" d="M1009.9-1.1c-0.7,1.5-2,1.8-3.5,1.7c-1.9-0.1-3.7,0-5.6,0c-9.7,0-11.3,1.9-9.1,11.5
			c0.4,1.9,0.6,3.7,0.6,5.5c0,13.6-0.2,27.2,0.1,40.7c0.6,31.3,1,62.6,0.8,93.9c0,2.8,0.9,5.7-0.7,8.5c-1.7-1.3-1-3-1-4.4
			c-0.1-10.5,0.4-20.9-0.1-31.4c-1.1-21.4,0.1-42.8-0.9-64.2c-0.7-15.1-0.1-30.2-0.7-45.3c-0.2-4.2-1-8.3-0.7-12.5
			c0.2-2.3-1.1-2.5-2.9-2.4c-3.6,0.1-7.2,0-10.8,0c-1.6,0-3.2,0.1-4-1.7C984.3-1.1,997.1-1.1,1009.9-1.1z"/>
		<path id="XMLID_334_" class="st6" d="M1278.8,876.9c1-2,2.8-0.9,4.1-0.9c73.2-0.1,146.3-0.1,219.5,0c1.3,0,3.1-1.1,4.1,0.9
			C1430.6,876.9,1354.7,876.9,1278.8,876.9z"/>
		<path id="XMLID_333_" class="st7" d="M1600.2,677.3c-1.9-1-0.8-2.8-0.8-4.1c-0.1-13.7-0.1-27.4-0.1-41.2c-1.2,0.1-2.2,0.3-3.2,0.3
			c-6.9,0.3-9.3-2.9-7.2-9.6c0.6-1.9,2-2.4,4-2c2.4,0.5,4.9,0.6,7.3-0.5C1600.2,639.2,1600.2,658.3,1600.2,677.3z"/>
		<path id="XMLID_332_" class="st8" d="M803.7,876.9c3-3.1,7.2-3.5,11-4.7c1.2-0.4,2.9-0.6,3.8,0.9c1.1,1.9-0.8,2.7-1.7,3.8
			C812.5,876.9,808.1,876.9,803.7,876.9z"/>
		<path id="XMLID_331_" class="st9" d="M693.2,876.9c-3-1.7-6.3-0.4-9.4-0.8c-1-0.2-2.8,0.6-2.6-1.5c0.2-1.5,1.5-2,2.8-1.7
			c5.3,1.3,10.9,0.9,15.7,4C697.5,876.9,695.3,876.9,693.2,876.9z"/>
		<path id="XMLID_330_" class="st10" d="M1600.2,794.5c-1.6-4.4-1.6-8.7,0-13.1C1600.2,785.7,1600.2,790.1,1600.2,794.5z"/>
		<path id="XMLID_329_" class="st11" d="M1261,876.9c3.7-1.5,7.5-1.5,11.2,0C1268.5,876.9,1264.7,876.9,1261,876.9z"/>
		<path id="XMLID_328_" class="st2" d="M620.1,646.7c-8-3.4-12.5-9.3-13.7-17c-0.6-4.2-2.1-4-5-2.9c-1.8,0.7-3.8,2.3-4-1.6
			c-0.1-2.2-1.5-0.6-2.3-0.4c-1.1,0.3-2.4,1.8-3.3,0.5c-0.6-0.8-0.7-2.5-0.3-3.6c0.8-2.7,1.6-5.3,1.8-8.1c0.1-2.2,1.1-2.7,2.5-0.9
			c1.3,1.7,2.7,2.2,4.4,1.1c0.8-0.5,2.2-1.2,1.5-2.5c-0.8-1.4-1.4-0.2-2.3,0.2c-2.1,0.9-3.8-1.3-5.8-2c-2.4-0.8-4.7-1.8-3.5-6.7
			c1.6-6.6,2.8-13.9,0.7-21.1c-1.4-4.9,0.3-5.8,5.7-5.7c7.7,0.1,13.8,4.8,21.1,6c2.2,0.3,4.9,1.9,6.5,2c3.1,0.4,6.6-2,9.8-3.4
			c1-0.5,0.3-1.6-0.1-2.5c-1.1-2.4-6.8-5.2-9.2-4c-2.4,1.2-2.4-0.2-2.5-1.7c-0.4-5.7,1.3-11.1,4-15.9c2.3-4.2,7.4-3.6,10.5-2
			c7.4,3.8,15.5,5.9,22.7,10.2c2.2,1.3,3.6,1.3,6.1-0.1c8.3-4.8,17-6.3,25.8-0.8c5.7,3.6,10.7,8,15.5,12.6c2.5,2.4,3.9,5.7,4,8.6
			c0.2,9.1,2.4,18.1,0.4,27.3c-0.8,3.5-2.9,5.3-5.1,7.5c-3.4,3.3-3.4,3.3,1,4.7c-3.2,7.7-10.3,7.6-16.9,8.3c-2.1,0.2-2.4-1-1.2-2.6
			c9.6-13.4,7.6-28,2.7-42c-3.3-9.4-10.9-15.9-20.4-19.8c-1-0.4-1.8-0.8-2.4,0.1c-0.7,0.9,0.1,1.4,0.8,1.7
			c8.2,3.7,11.9,11.1,15.5,18.6c0.9,2,1.9,4,3.1,5.7c5,7.3,4.4,14-1.4,20.6c-1.6,1.8-2.7,4.1-3.8,6.3c-1.2,2.2-1.2,4.1,0.2,6.5
			c3.4,5.6,2.1,8.6-4.4,10.7c-1.4,0.5-1.9,1.3-2,2.8c-0.2,4-0.7,8-0.8,12c-0.1,2.6-0.6,4.7-3.4,5.3c-2.2,0.5-2,2.4-3,3.7
			c-1,1.5-2.2,4.3-5,1.7c-1.7-1.5-3.7-2-0.9-5.1c2.9-3.2-0.6-7.2-2.5-10.1c-3.9-6-8.7-11.4-13.9-16.4c-3.7-3.7-8.7-4.2-12.8-6.7
			c-0.3-0.2-1.2,0.3-1.6,0.6c-0.8,0.7-0.3,1.4,0.3,1.9c2.8,2.5,4.7,7.1,7.5,7.9c4.5,1.4,6,4.9,8.7,7.5c4.1,3.8,6.5,8.9,9,13.8
			c0.6,1.2,0.5,3.4-1.7,3.6c-2.5,0.3-4.9,0.1-6.1-2.9c-0.7-1.8-0.1-4.3-2.6-5.5c-2.2-1.1-3.5-1.3-3.5,1.8c0,1.5,0.7,3.6-1.3,4
			c-2.3,0.5-2.3-1.9-2.5-3.2c-0.6-3.3-3.6-3-5.5-4.4c-4.3-3.1-6-7.8-6.6-12.5c-0.5-4.2-3.3-2.7-5.1-2.6c-2.2,0.1-3.4,1.9-3.3,4.2
			C620.1,642.2,620.1,644.2,620.1,646.7z"/>
		<path id="XMLID_327_" class="st2" d="M784.9,256.4c0.4,4.6,0.4,8.6,1,12.5c1.2,6.8-1,12.3-5.4,17.2c-3.7,4.1-6.7,7.8-6.8,14.3
			c0,5.1-1.6,11-5,15.9c-0.5,0.7-4.5,4.2,0.6,5.3c-1.2,5.8-3.3,11.7-5.4,17.6c-3.1,9-11.1,11.4-18.2,12.5c-2.5,0.4-3.9-1-4.5-3.1
			c-2-6.8-2.7-13.8-1.1-20.8c0.3-1.5,1.2-2.2,2.6-2c1.2,0.2,2.1,0.8,1.4,2.2c-0.8,1.4,0.1,2.2,1.2,2.3c1.4,0.1,0.9-1.3,1.1-2.1
			c1-6.1,6.2-8.2,10.8-4.1c2.8,2.5,5.1-0.8,7.8,0c0.5,0.2,0.3-1.4-0.4-2.2c-8.5-10.1-13.7-22.7-23.9-32.1c8-4.5,15.7-8.9,23.5-13.1
			c7-3.7,11.1-10.1,15.7-16.1c0.8-1,1.4-2.4-0.2-2.3c-6.6,0.5-4.4-6.6-4.1-7.2c2.1-4.7-0.1-9.6,1.2-14.3c1-3.8,0.7-8,2.2-11.7
			c0.9-2.2-0.1-5.3-0.8-5.5c-3.5-1.3-2-3.9-2-5.9c0-1.9,0.9-3.8-1.3-5.2c-0.8-0.5-0.6-1.6-0.1-2.5c2.3-3.6,1.5-7.5,0.8-11.3
			c-0.2-1.1-0.9-2.4,0.3-2.8c1.4-0.5,2.3,0.9,2.7,2.1c1,3.5,1.9,7.1,2.6,10.7c0.5,2.6,0.8,7.5,2.2,7.2c2.8-0.5,1.2-4.7,2.3-7.1
			c0.2-0.4,0.2-0.9,0.3-1.7c1.9,1.5,4,1.7,1.2,5c-2.3,2.8-0.8,7.7-2.3,11.4c-0.3,0.8,0.6,1.1,1.4,1.4c3.4,1,4.9-2.7,7.7-3.1
			c-1-0.9,1.8-1.7,0.2-2.6c-5.4-3-0.2-5.7,1-6.2c2.6-1.1,3.4-2.7,4-5c0.8-3,3.6-3.9,5.4-2.2c2.9,2.7,6.2,2.2,9.4,2.7
			c1.4,0.2,3-0.2,3.4,1.6c0.4,2-1.5,1.4-2.4,1.9c-0.7,0.5-1.3,1.3-1.8,2.1c-0.8,1.2-3.6,1-2.7,3.1c0.8,1.8,2.9,1.3,4.6,0.9
			c1.7-0.5,2.4,0.9,3.2,2c-1.4,0.8,1.2,3.8-2,3.7c-0.5,0-1.6,0.2-1.6,1.7c2.4-0.2,4.7,0,7-0.5c4.6-1.1,6.1,2.9,8.7,4.9
			c0.6,0.5,0.1,0.7,0,1.1c-0.8,2.8-0.8,2.8,1.7,4.4c-1.5,0.1-3.2-0.3-4.2,0.3c-2,1.4-7,1-4,6.1c0.5,0.8,1.8,5.7-3.5,4.6
			c6.2,7.2,8.3,7.5,17.4,4.1c5.9-2.2,12-3.6,18.4-3.7c10-0.2,14.9,4.5,16.3,12c2.1,10.6,9.3,15,18,17.9c4.6,1.6,9,3.9,14.2,5.1
			c-4,4.6-8.6,8-12.2,12.4c-4,4.8-1.3,11.1-4.5,16.9c-5.2-12.2-10.2-23.6-14-35.5c-0.4-1.3-0.7-2.7-1.2-4c-1-2.6-2-3.2-4.7-1.1
			c-9.1,7.1-17,15.5-24.9,23.8c-2.5,2.7-5,3.9-8.8,1.4c-6.9-4.6-14.9-6.8-22.5-9.7c-6.8-2.6-11.1-8.1-15.1-13.8
			C793.6,263.6,791,258.8,784.9,256.4z"/>
		<path id="XMLID_326_" class="st2" d="M896.9,814.5c-0.8,3.3-3,4.3-6.2,4.7c-5,0.5-7.2,4.1-8.1,8.7c-0.2,1.2,0,2.4-1.4,3.1
			c-0.3,0.2-0.5,1.6-0.4,1.6c4,2,0.3,4,0.1,5.9c-0.1,1.3-0.2,2.2,1.5,2.8c2.4,0.8,2.3,3.2,1.9,5.1c-0.5,2.3-2.6,1.2-3.9,1.2
			c-10.4,0.1-20.8,0.7-31.1-0.2c-6.5-0.6-13-0.6-19.4-1.1c-6.5-0.4-13.2-1.2-19.9-0.4c-7.7,0.9-15.5-1.3-23.2-0.7
			c-7,0.6-13.7-1.1-20.6-1c-11,0.1-21.9,0.9-32.8,0.7c-8.1-0.1-16.2-0.4-24.2-0.2c-7,0.2-14-1-21.1,0.1c-7.6,1.1-15.6-0.3-23.4-0.5
			c-4.8-0.1-3.5-4.2-4-6.5c-0.5-2.4,1.8-3.2,4.4-3.2c13.3,0.2,26.6-0.5,39.8,0.3c9.8,0.6,19.6,1.1,29.4,0.5c11-0.7,22,0.1,33-0.8
			c17.1-1.4,34.2-0.3,51.4-0.8c9.5-0.3,19-0.6,28.5-0.9c1.5,0,3.9,0.5,3.9-1.4c0.1-2.4-2.5-1.7-4-1.7c-25.9,0-51.8,0-77.8,0
			c-26.5,0-53-0.1-79.5,0.1c-9.5,0.1-19-0.2-28.4,1c-1.2,0.2-2.1,0.2-2.7-1.1c-2.3-4.5-4.3-9-2.9-14.4c0.5-2,1.4-2.1,2.9-2.1
			c22.3,0,44.7-1,67,0.5c9.7,0.6,19.1-1,28.6-0.8c5.4,0.1,11.1-2.3,16.9-1.9c0.8,0.1,2-0.3,2.3,0.1c3.9,5.3,8.8,1.1,13.2,1.3
			c9.8,0.5,19.7,0.2,29.5,0.1c2.5,0,4.9-0.1,7.4-0.5c3.6-0.6,7.5-0.8,10.6,2.1c4,3.8,9,2.3,13.7,2.7c1.9,0.2,5-1.7,5.3,2.4
			c0,0.5,1,0.7,1.6,0.3c0.7-0.5,1.9-0.9,1.2-2.1c-1.6-3.1,1.1-3.2,2.6-3.2c11.8,0.4,23.7-1,35.4,0.7
			C894.8,815.1,895.8,814.7,896.9,814.5z"/>
		<path id="XMLID_325_" class="st2" d="M492.4,541.7c2-2.8,3.5-5.1,6.3-6.8c4.1-2.6,8.2-5.3,11.4-9.3c4.7-5.8,12.3-7,18.5-10.3
			c6.2-3.3,14.3-3.1,18.8-9.3c4.4-6,8.9-12,12-18.7c6.8-14.8,15.1-28.7,23.9-42.3c1.5-2.3,2.8-4.8,4.2-7.2c0.5-0.8,0.3-2.4,2-2.1
			c1.3,0.3,1.6,1.2,1.7,2.4c0.2,1.3,0.8,2.7,0.8,4c0.2,5.3,0.2,10.5,0.8,15.8c0.7,6.9-1.9,13.6-3.2,20.3c-1.8,8.7-2.6,17.3-0.5,26.2
			c1.4,5.8-0.9,11.6-1.4,17.5c-1.3,13.5-6.5,25.7-10.7,38.4c-3,9-4.1,9.5-12.5,5.6c-13.3-6.3-27.2-11.2-40.3-17.9
			c-4.1-2.1-8.3-4.1-12.2-6.7c-3.9-2.6-8.2-3.3-12.6-1C497.5,541.1,495.4,542.1,492.4,541.7z"/>
		<path id="XMLID_324_" class="st2" d="M872,493.2c0.3,7.7,1.3,15.3,2.5,22.9c0.4,2.3,0.7,4.7-1,7.1c-2.1,2.9-1.9,6.6,0.2,9.5
			c1.8,2.5,2,5.1,1.8,7.8c-0.5,6.5,0.8,13,0.9,19.5c0.2,7.6-1.2,15.1-1.1,22.8c0,3.1,1.6,6.1,1,9c-2.1,9.2,1.1,18.1,1.2,27.1
			c0.1,6.9,0.6,13.8-0.2,20.8c-0.3,2.3-0.5,3.6-3.5,3.1c-5.8-0.8-11.7-1.1-17.5-1.8c-2.6-0.3-4.5-5.3-2.6-7c1.6-1.4,1.7-2.8,1.4-4.5
			c-1.8-10-2.8-20.1-4.4-30.1c-1.7-10.8-2.8-21.6-5.8-32.2c-0.9-3.2-2.9-5.7-3.9-8.8c-2.3-7.6,2-13.8,3.4-20.5
			c2.6-12.7,4.9-25.6,8.3-38.1c3.3-12.1,6.6-24.2,9.8-36.3c0.2-0.7,0.9-1.6,1.4-1.6c1.1-0.2,1.3,0.9,1.7,1.8
			C869.9,473.1,871.7,483,872,493.2z"/>
		<path id="XMLID_323_" class="st2" d="M958.3,559.1c3.6,2.3,7.4,3.9,10.3,7.6c3.6,4.6,8,8.7,12.9,12.1c4.2,2.9,6.6,7.5,9.2,11.8
			c0.5,0.8,0.5,1.8,1.7,1.7c4.6-0.5-1.6,2.5,1,3.1c1.6,0.4,3.9,0.6,4.8,2.3c0.6,1.3-0.7,1.9-1.9,1.9c-5.9,0-12.3,1.5-17.5-0.3
			c-12-4.1-24.1-2-36.1-2.8c-2.7-0.2-5.2,0.4-7.7,1.4c1,2.5,5,1.1,5.2,5.1c0.1,2.4-1,4.3-0.9,6.5c0.2,3.8-2.5,3.2-4.8,3.2
			c-1.1,0-2.3,1-2,1.5c1.4,2.8-0.6,6.6,1.2,8.5c2.3,2.5,1.7,6.1,4.3,8.1c0.5,0.4,0.4,1,0,1.1c-4.1,1.7-1.9,4.5-1.1,6.9
			c1.1,3.1,0.5,6.3,0.6,9.4c0.1,5.3,2.4,10.2,2.1,15.6c-0.2,2.9-2.6,5.7-0.4,9c0.6,0.8-2.2,2.1-3.8,2.5c-1.7,0.5-2-0.8-2.2-2.1
			c-1-5.4-2.1-10.8-3.2-16.2c-0.1-0.7,0.1-1.6-1.2-2c-1.2,1.2-0.6,2.8-0.6,4.2c0,1.3,0.6,2.7-1.9,2.5c-1.5-0.2-1.6,1.6-1.4,2.9
			c1.1,6.4,1.2,12.9,1.6,19.4c0.1,1.1-0.3,2.6,0.9,2.9c5.7,1.5,3.2,5.2,2.4,8.5c-0.3,1-0.5,1.9-0.8,2.9c-1.9-0.9,1.4-6.8-4.1-3.9
			c-0.4,0.2-1.6-1.3-1.5-2.7c2-15-0.1-29.9-3.2-44.5c-3.2-15.2-6.5-30.6-12.7-45c-0.4-0.8-0.4-2-1.1-2.5c-4.9-3.8,0.7-7.5,0.1-11.2
			c-0.2-1,0.9-0.6,1.3-0.3c1.4,1.2,2.5-0.4,2.5-0.8c-0.6-5.9,4.7-6.8,7.9-8c6.4-2.4,8.9-7.2,10.7-13.4c3,2.9,6.8,3.1,9.8,5.3
			c1.7,1.3,4.4,0.2,6-1c2-1.5,4.3-1.5,6.5-2.1c0.6-0.3,1.1-0.4,1.8-0.4c6.2,0.1,6.4-0.3,5-6.3C957.3,560.7,956.4,559.5,958.3,559.1z
			"/>
		<path id="XMLID_322_" class="st1" d="M1120.6,784.3c2.2,1.3,2,3.2,2.6,4.7c0.9,2.8,2.6,4.3,5.6,3.2c1.6-0.6,3-0.7,2.8,1.3
			c-0.3,2.7,2,1.5,2.9,2.2c-2.3,4.6-5.9,0.2-9,1.1c-1.4,0.4-3.7-0.3-4.5,1.5c-0.8,1.9-1.1,4.2,0.7,6.1c0.6,0.6,1.4,1,1.2,2.2
			c-0.4,3.4-0.3,3.4,2.8,4.3c-0.9,1.7-3.6,1.2-4.2,3.3c3.8,2.4,4.1,2.3,11.1-5.5c1.2,0.1,0.8,1,1,1.7c2,8,3.2,9.2,11.5,8.6
			c4.8-0.3,9.7,1.1,14.4-1.9c1.5-1,4.3,0.2,6.5,0.1c2.7-0.2,4.2-1.3,5.2-4.4c1.7-5.4-2-10.4-0.3-15.7c0.3-0.8-1.1-1.8-1.9-1.5
			c-6,1.9-12.1-0.3-18.2,0.3c0.3-1.1,1.4-2.1,2.3-2.2c5.6-0.6,6-4.4,5.8-8.8c-0.2-7.6,0.1-15.2,0.9-22.8c0.3-2.8-0.1-4.8-3.7-5
			c-2.1-0.1-3.9-1.3-6.2-2.9c8.2-0.2,15.9,0.2,23.5-0.9c0.8-0.1,2-0.5,2.6,0.5c0.6,1-0.3,2.1-0.9,2.4c-2.8,1.4-2.5,3.1-1.4,5.5
			c0.5,1.2,0.2,3.1-0.3,4.5c-0.3,1.1-0.8,2.3-0.1,3.1c3.4,3.8,2,8,1.5,12.3c-0.6,5.4-0.4,10.8-0.8,16.2c-0.6,7.7-1.4,15.4-1.6,23
			c-0.1,3.3-1.5,6.5-0.5,10c0.9,3-3.3,5.3-9.2,5c5.7-2.3,6.6-6,6-11c-0.4-3.1-0.9-4-4-3.3c-7.3,1.7-14.7-0.5-22.1,0
			c-5.8,0.4-7.2,1.2-6.1,6.7c1.3,6.2-1,12.5,1.4,18.5c0.7,1.7-1,2.5-2.6,2.4c-7-0.2-14-0.5-21-0.7c-1.4,0-1-0.9-1.3-1.8
			c-1.4-4.5,1.1-8.7,0.8-13.1c-0.1-1,1.1-1.5,2.5-0.9c4.3,1.8,9,1.8,13.5,1.9c2.3,0.1,5.1-4.8,4.6-7.7c-0.5-2.8-1.5-5.1-5.1-4.5
			c-0.9,0.2-2.3,0.2-2.3,1.1c0.2,3.4-2.5,3.6-4.9,4.3c1.2,1.7,2.5,1,3.6,1.1c1,0.1,1.9,0.2,1.8,1.5c-0.1,0.7-0.1,1.7-0.5,2.1
			c-0.5,0.5-1.5,0.4-2.2-0.1c-3.1-2-6-4.3-10.2-2.8c-0.9,0.3-1.7-1.4-1.8-2.3c0-1.4,1.3-0.8,2.1-0.9c0.1,0,0.3,0.1,0.4,0.1
			c2.5,1.1,5.9,1.4,6.3-1.4c0.4-2.9-2.8-3.6-5.7-3.7c-4.8-0.1-5.1-1.5-4.9-6c0.1-1.7-0.9-4.4-1.7-6.5c-1.2-3.3,0.3-5.7,3.5-7
			c0.6-0.2,1.4-0.2,1.7-0.6c1-1.3,3.4-1.9,2.9-3.9c-0.5-1.8-2.6-1.2-4.1-1.2c-3.4,0.1-5.7-0.3-4.4-4.9c0.6-2.3-0.5-5.1-1-7.7
			c-0.2-1.2-1.4-2.7,0.2-3.2c1.7-0.5,1.5,1.3,1.8,2.5c0.7,2.1,1.4,4.3,2.5,6.3c1.3,2.3,2.1,5,5.7,0.9
			C1120.1,788.3,1120.5,786.7,1120.6,784.3z"/>
		<path id="XMLID_321_" class="st2" d="M969.7,541.5c-0.1,4.5,2.7,7.3,6.5,7.5c5.5,0.3,10.2,3.4,15.6,3.8c1.1,0.1,2.3,1,3.2,1.8
			c7.8,7.2,15.9,14.2,23.3,21.8c4.3,4.4,8.9,8.5,13.2,13c5.2,5.4,5.1,10-0.9,14.2c-2.3,1.6-5-0.1-7.5-0.2c-2.5-0.1-4.9-1.7-7.6-0.5
			c-1.4,0.6-2.9-0.4-4-1.7c-6.2-7.5-12.3-14.9-17.7-23c-1.9-2.9-4.1-6-6.9-8c-6.2-4.4-7.8-12.2-13.7-17c-2.8-2.2-5-6.5-7.3-10.1
			C966.5,540.9,967.8,540.5,969.7,541.5z"/>
		<path id="XMLID_320_" class="st2" d="M730,290c-12.5,5.5-18.5,17-26.3,26.8c-1.1,1.4-2.2,3.6-4.3,3c-1.6-0.5-1.3-2.8-1.8-4.3
			c-2.6-8-1.5-16.5-3.6-24.5c-1.4-5.3-2.8-10.6-3.9-15.9c-1-5,0.2-9.8,1.4-14.5c0.3-1.1,0.7-2.1,2-2.2c1.4-0.1,1.8,1.1,2.2,2.1
			c1.9,4.7,5.4,8.4,7.9,12.8c1.5,2.6,3.7,4.7,6.5,5.8C716.9,281.9,723.2,285.9,730,290z"/>
		<path id="XMLID_319_" class="st2" d="M970.3,685c1.6,1.3,2.2,6.7,5.7,1.8c0.1-0.1,1.3,0.5,1.8,1.7c5.6,13,8.7,27.1,16.9,39.1
			c1.5,2.2,1.9,5.1,2.9,7.7c0.9,2.3-1.2,2.7-2.3,3.8c-1.7,1.7-2-0.4-2.7-0.9c-1.3-0.8-2.4-1.8-3.6-2.8c-1.5,0.8-0.2,1.5-0.1,2.2
			c0.1,0.9,0.3,2.4,0,2.6c-2.4,1.2-4.9,2.9-7.4,3c-2.1,0.1-4.1-2.1-4.5-4.6c-0.2-1-0.5-2.3,0.5-3.1c1-0.8,3.8-0.3,2.2-2.8
			c-1.3-2-3.6-2.1-5.4-1c-2.2,1.5-4.6,1.3-6.7,0.9c-2.3-0.5-7.5,0.1-3.9-5.3c0.7-1-0.4-1.6-0.8-2.4c-2-3.6-0.3-7.1,1.4-10
			c1.2-2.1,3.4-0.1,4.6,1.1c1.4,1.3,2.8,2.4,4.4,1.2c1.1-0.9-0.2-2.3-0.4-3.5c-0.4-2.7-1.5-5.2-2.9-7.1c-4.3-6.1-4.6-12.1-1-18.5
			C969.3,687.5,968.7,686.1,970.3,685z"/>
		<path id="XMLID_318_" class="st2" d="M945.2,599.7c8.2,0,16.4,0,24.6,0c4.5,0,7.7,4,5.9,8.1c-2.4,5.7-5.5,11.2-8.6,16.6
			c-1.1,1.8-2.7,2.9-0.8,5.1c1.4,1.6-0.8,2.5-1.5,3.2c-1,1.1-1.6-0.2-2-1.3c-0.8-2.1-1.8-1.5-3.5-0.6c-3.7,2-6.6,0.3-6.9-3.7
			c-0.3-3.9-2.1-7.4-1.8-11.4c0.2-1.9-1.2-3.8-3-4.4c-4.9-1.5-2.3-4.3-0.8-5.9C950.1,602.1,949,600.7,945.2,599.7z"/>
		<path id="XMLID_317_" class="st12" d="M956.6,415.1c0.7,4.7,1.3,9.4,2,14.1c-8.7-1.8-14.5-7.7-20.7-13.1
			c-7.8-6.7-15.7-13.4-23.5-20.1c-1.1-0.9-2.3-1.8-2.9-3c-1.2-2.1-2.3-5.4-0.6-6.7c1.7-1.3,4.8-2.3,7.5,0.3
			c4.5,4.3,9.4,8.2,14.2,12.2c1.9,1.6,3.4,3.6,6.1,4.1c5.9,2.8,9.4,8.3,14.4,12.2C954.6,416.4,955.4,416.8,956.6,415.1z"/>
		<path id="XMLID_316_" class="st13" d="M942.3,385.2c-2.5-0.1-4.4-1.3-6.3-2.8c-9.1-7.6-18.2-15.1-27.3-22.6
			c-3.1-2.6-4.3-5.3-0.9-8.6c2.6-2.7,5-1.5,7.3,0.6c9.1,8.1,19.3,15,28.3,23.2c0.2,0.2,0.6,0.1,0.9,0c1,2.6,1.8,5.3,1.7,8.2
			C945.1,384.4,943.9,385,942.3,385.2z"/>
		<path id="XMLID_315_" class="st14" d="M909.7,318.4c3.9,1.4,7.2,3.8,10.2,6.6c3.9,2.1,6.8,5.8,11.3,6.9c0.7,1.5,1.5,2.9,2.9,4
			c3.7,2.6,3.7,5.7,0.8,9c-1,1.4-2.6,0.3-3.8,0.7c-7-4.9-14-9.6-20.9-14.6c-1.7-1.2-3-2.6-5.2-2.3c-1.1,0.1-2.7,0.2-2.8-0.9
			c-0.3-2.7-1.4-5.3-1.3-8.1c0.1-2,1.4-3.1,3.5-2.8C906.2,317.2,908.1,317.5,909.7,318.4z"/>
		<path id="XMLID_314_" class="st15" d="M1046.9,785.9c4.9,9,8.9,17.1,10.8,26c0.3,1.3,0.1,2.2-1.8,2.4c-3.1,0.4-5.1,2.1-5.1,5.6
			c0,1.5-0.7,2.5-2.1,2.6c-1.4,0.2-1.7-1.3-2-2.2c-0.9-2.6-0.4-6.1-4.6-6.3c-1,0-0.6-1.2-0.4-1.9
			C1043.3,803.8,1045,795.5,1046.9,785.9z"/>
		<path id="XMLID_313_" class="st16" d="M959.2,464.6c-5.3-3.2-10.5-6.4-15.8-9.6c-4.6-2.8-5-5-1.6-9.1c0.1-0.1,0.2-0.2,0.4-0.3
			c1.8-1-1.2-4.4,1.8-4.3c2,0.1-0.2,3.3,1.5,3.9c3.2,1.2,5.9,3.2,9.1,4.3c4.9,1.7,9.8,4,12.1,9.2c1.3,2.9-1.8,5.5-1.3,8.5
			C963.3,466.6,961.6,464.9,959.2,464.6z"/>
		<path id="XMLID_312_" class="st14" d="M958.3,559.1c-1.1,1.2,0.1,2,0.6,2.8c1.6,2.2,1.7,4.3,0,6.4c-1.7,2-3.8,1.7-5.9,0.8
			c-0.7-0.3-1.4-0.5-2.2-0.7c-1.4-5.6-6.3-8.5-9.9-12.3c-2-2.1-2.6-3.1-1.5-5.9c0.6-1.6,3.4-3.5,0.7-5.9c-0.5-0.4,1.1-1.1,2-0.5
			c3,2,6.5,3.3,8.6,6.7C952.7,553.7,955.7,556.3,958.3,559.1z"/>
		<path id="XMLID_311_" class="st16" d="M969.7,541.5c-1.4,0.2-2.7,0.4-3.7,1.5c-6.9-4.3-11.8-10.5-16.3-17.1
			c-1.2-1.8-0.2-4.2,1.4-5.7c1.8-1.8,4.1-1.9,5.9-0.2c4.5,4.3,8.9,8.7,12.9,13.4C971.8,535.7,971.9,538.8,969.7,541.5z"/>
		<path id="XMLID_310_" class="st13" d="M969.9,501.9c-0.2,2-1.3,3.9-0.8,6.2c0.3,1.3-0.8,2-2.1,1.1c-7.1-5.3-12.4-12.3-16.9-19.9
			c-1.2-2.1-0.8-4.7,1.6-6.2c2.3-1.5,4.4-0.8,6.3,1.1c3.3,3.4,5.4,7.6,9.8,10.2C969.3,495.4,969.2,499.3,969.9,501.9z"/>
		<path id="XMLID_309_" class="st17" d="M909.7,318.4c-1.9-0.6-3.9,0.6-5.8-0.4c-1.9-1-2.2,1.4-2,2c0.8,2.5,2.4,4.7,0.9,7.5
			c0.8,0.4,1.5,0.8,2.3,1.2c-1.9,5.1,0.9,9.8,1.6,15.2c-2.4-1.6-3.6-3.5-4.6-5.8c-2.9-7.2-6.1-14.2-9.2-21.3
			c-1.7-3.8-0.9-7.5,2.1-8.3c3.2-0.8,6.4,0.9,7.5,3.4C904.1,315.2,907.4,316.1,909.7,318.4z"/>
		<path id="XMLID_308_" class="st18" d="M712.7,335.9c-1.2-1.2-1.7-4.9-3.3-0.5c-1.3,3.5-3.9,6.1-7.6,7.4c-0.2-0.2-0.4-0.3-0.4-0.4
			c-3.2-8.2,4.4-9.8,8.3-13.7c4.1-4,10.8-5,13-11.2c0.1-0.3,0.8-0.6,1.2-0.5c1.1,0.2,1,1.2,0.9,1.9c-0.8,3.7-0.8,7.4-1.2,11.1
			c-0.6,5.2-4.8,8.9-4.5,14.3c0.1,1.8-2,2-3.7,1.9c-1.3-0.1-2.5-0.2-2.8-1.8c-0.4-1.9,1.3-1.7,2.3-2.2c3.1-1.7,7.4-13,6.2-16.2
			c-0.5-1.5-1.3-1.3-2.4-0.7C714.6,327.4,711.9,330.5,712.7,335.9z"/>
		<path id="XMLID_307_" class="st19" d="M844.1,239.9c-1.6-0.7-5.7,0.3-2.3-3.5c0.1-0.1,0.3-0.3,0.3-0.4c-3-5.3,0.3-7,4.5-9.1
			c1.3-0.6,1.8-1.4,3.2-0.6c1.6,0.9,3.1,2.2,4.8,2.5c3.2,0.7,3.4,1.7,1,3.7c-0.5,0.5-1.2,1-0.6,1.9c3.3,4.7-0.4,4.2-3.3,4.2
			c-1.4,0-2.9,0.2-4.2-0.1C846,238.4,845.8,241.3,844.1,239.9z"/>
		<path id="XMLID_306_" class="st9" d="M1121.7,755c-1.5,0.1-3.1,0-4.6,0.2c-1.2,0.2-1.9,1.1-1.5,2.4c0.7,1.8,1.4,0.9,2.2-0.1
			c0.9-1.2,1.8-0.8,2.5,0.3c0.8,1.4,0.1,10.9-1.1,13.3c-0.5-1.5-1-2.7-1.3-3.9c-0.6-2.5,1.6-7-4.2-6c-0.1,0-0.2-0.2-0.4-0.3
			c-1.1-0.9-0.6-4.3-3.1-2.9c-2.2,1.2-1.2,4-1,6.1c0.6,6.1,0.8,6.1-1,10.2c0.1-6.9,0.2-12.8-1.8-18.4c-0.3-0.8-1.7-2.1,0.3-2.4
			c1.2-0.2,3-1,3.6,0.7c0.4,1,0.8,1.9,1.7,1.8c1.6-0.2,0-1.9,0.4-2C1115.6,752.9,1118.8,752.7,1121.7,755z"/>
		<path id="XMLID_305_" class="st20" d="M944.3,374.9c-1.2,2.4-2,0.1-2.7-0.4c-8.5-6.9-17-13.9-25.5-21c-2.5-2-4.9-3.9-8.3-2.4
			c0.9-1.9,2.4-4-1.2-5.3c5.4-0.1,7.5,4.4,10.8,6.8c8.1,5.9,15.4,13,24.2,18C943.2,371.6,943.4,373.5,944.3,374.9z"/>
		<path id="XMLID_304_" class="st21" d="M929.7,708.9c1.7,3.5,0.6,6.2-1.1,8c-4.3,4.6-7.3,10.2-12,14.5c-1,0.9-2,1.2-2.9,0.6
			c-1.2-0.9-0.9-2.3,0.1-3.3C919.6,722.8,924.7,716.3,929.7,708.9z"/>
		<path id="XMLID_303_" class="st22" d="M894.6,330.8c5.8,11,8.2,23.1,9.9,35.3C899.6,354.8,896.5,343,894.6,330.8z"/>
		<path id="XMLID_302_" class="st23" d="M911.2,285.1c-5.4,4.5-11,7.6-13.7,13.5c-0.5,1.2-1.4,1.4-2.1,0.5c-0.9-1.3-2.1-2.3-1.1-4.5
			C897.3,288.1,902.1,285.1,911.2,285.1z"/>
		<path id="XMLID_301_" class="st24" d="M327.3,570.5c2.4-0.4,4,1.5,5.9,2.2c1.9,0.7,4,2.8,3.3,5c-0.8,2.5-2.8-0.3-4.4,0.1
			c-2,0.5-3.9-0.4-5.9-0.8c-2.3-0.5-2.8-2-2.6-4.1C323.8,570.4,325.5,570.4,327.3,570.5z"/>
		<path id="XMLID_300_" class="st25" d="M956.6,415.1c-0.2,1.2-0.3,2.4-0.6,4.4c-4.1-4.8-9.7-7.2-12.7-12.5c-1-1.7-4.4-1.1-4.6-4
			c1.1-1.3,1.9-0.6,3.1,0.1C947.1,406.6,950.9,412,956.6,415.1z"/>
		<path id="XMLID_299_" class="st26" d="M724.6,314.4c-0.4-4-1.4-7.4-5-9.7c-0.9-0.6-2.1-2.9-0.2-3.9c1.1-0.6,1.5-3.2,3-1.9
			c1.2,1,3.9,0.8,3.5,3.7C725.3,306.4,726.3,310.4,724.6,314.4z"/>
		<path id="XMLID_298_" class="st22" d="M921.2,307.6c-2.5-1.9-7.8-0.6-6.1-5.9c0.1-0.4-2.1,0.3-3.1-1.5c2.5-1.3,5-2.5,7.5-3.9
			c0.7-0.4,1.3-1.1,2-0.2c0.6,0.7,0.3,1.5-0.3,2.1C918.3,301.1,915.3,303.9,921.2,307.6z"/>
		<path id="XMLID_297_" class="st27" d="M618.6,653.2c2.3,0.1,4.9,0.9,5.7,3.4c0.5,1.6-1.4,2.8-3.5,2.6c-2.8-0.2-4.7-1.6-5.2-4.3
			C615.3,653.1,617,653.3,618.6,653.2z"/>
		<path id="XMLID_296_" class="st28" d="M921.5,703.7c1.8,3,0.2,12.5-2.8,14.8c-0.7,0.5-1.4,0.4-2.2,0c-0.6-0.3-0.9-1-0.4-1.5
			C920.5,713.4,918.1,707.3,921.5,703.7z"/>
		<path id="XMLID_295_" class="st29" d="M834.5,211.3c0.6-1.1,1.1-2.4,1.8-3.6c1.1-1.6,2.4,0.3,2.4,0.4c-1.7,2.5-0.4,4.7,0.3,7.1
			c0.3,1.1-0.6,1.6-1.7,1.7c-1.1,0.1-1.8-0.2-1.9-1.4C835.4,214.1,835.7,212.6,834.5,211.3z"/>
		<path id="XMLID_294_" class="st3" d="M913.5,875.1c0.8-1.5-1.2-4,1.6-4.9c0.8-0.3,0.6-1,0.2-1.5c-0.7-0.9-2.5-1.7-0.4-2.7
			c1.9-0.9,2.4,0.7,2.6,2.1c0.4,2.3,0.6,4.5,1,6.8C916.9,874.9,915.2,875,913.5,875.1z"/>
		<path id="XMLID_293_" class="st30" d="M584.4,637.8c0,1.7-0.1,3.4-2.1,3.1c-1.4-0.2-3.4-0.7-3.2-2.7c0.1-1.6,1-3.6,2.9-3.6
			C583.8,634.7,584.2,636.5,584.4,637.8z"/>
		<path id="XMLID_292_" class="st31" d="M362.9,518.5c1.2,1.7,2.9,3.1,3.1,4.8c0.1,1.1,0.3,3.5-1.8,4.1c-0.5,0.1-1.3,0-1.3-0.9
			c0.2-2.3-0.3-4.5-0.9-6.6C362,519.6,362.5,519.2,362.9,518.5z"/>
		<path id="XMLID_291_" class="st32" d="M931.2,331.9c-0.2,0.7-0.7,1.8-1.5,1.1c-3.2-2.7-7.3-4.4-9.8-8
			C924.4,326,927.6,329.3,931.2,331.9z"/>
		<path id="XMLID_290_" class="st33" d="M353.2,575c-0.5,1.4-1.2,1.1-1.9,0.7c-2.3-1-3.9-2.5-4.2-5.1c-0.1-1.1,1.1-1.4,1.6-0.9
			C350.5,571.3,352.5,572.8,353.2,575z"/>
		<path id="XMLID_289_" class="st8" d="M675.2,849.1c-3.8,1-7.3-0.8-10.4,1.5c-0.9,0.6-2.7-0.4-2.7-1.7c0-1.5,1.6-1,2.5-1.1
			C668,847.4,671.3,848.1,675.2,849.1z"/>
		<path id="XMLID_288_" class="st34" d="M1153.6,766.4c-1,2.8,0.8,6.2-2.7,9.5c0.5-3.9,0.8-6.8,1.1-9.8
			C1152.6,766.3,1153.1,766.4,1153.6,766.4z"/>
		<path id="XMLID_287_" class="st35" d="M989.5,764.3c-0.4,4.6-3.3,8.7-2.2,13.6C985.4,773.1,985.9,769.8,989.5,764.3z"/>
		<path id="XMLID_286_" class="st36" d="M1155.9,787.8c-1-3.7-2.2-6.1-1.1-9.5C1156.7,781.1,1157.3,783.7,1155.9,787.8z"/>
		<path id="XMLID_285_" class="st37" d="M959.2,464.6c2.4,0.1,5.3-0.9,6.2,2.7c0.5,1.1,1.5,3-1.1,1.7
			C962.4,468,960.9,466.1,959.2,464.6z"/>
		<path id="XMLID_284_" class="st38" d="M342.2,574c2.2,1,5.7,0.7,5.4,4.7C344.8,578,343.1,576.5,342.2,574z"/>
		<path id="XMLID_283_" class="st39" d="M700.6,324.7c1.3-2.5,3.9-2.9,5.9-4c0.8-0.4,1.9-1.1,2.1,0.2c0.1,0.5,0,2.4-1.6,2.2
			C704.7,322.9,702.7,324,700.6,324.7z"/>
		<path id="XMLID_282_" class="st40" d="M1132.2,807.1c-2.2-1.1,0.6-2.5-1.1-3.3c-1.5-0.7-1.3-1.9-0.5-3c0.5-0.6,1.1,0,1.6,0.1
			c1.6,0.4,1.9,1.6,1.5,2.9C1133.4,804.9,1132.8,805.9,1132.2,807.1z"/>
		<path id="XMLID_281_" class="st41" d="M942.3,385.2c0.9-1.3,2.1-2.1,3.7-2.1c-0.1,1.6,1.6,2.5,2.4,4.2
			C945.7,387.4,944.1,386.1,942.3,385.2z"/>
		<path id="XMLID_280_" class="st42" d="M970.3,793.4c-1.1,0-2.3,0-2.4-1.4c-0.1-1.3,1-1.4,1.9-1.3c0.9,0.1,2.3-0.5,2.6,1
			C972.5,793.2,971.5,793.4,970.3,793.4z"/>
		<path id="XMLID_279_" class="st43" d="M1153.3,805.2c1.6,2,2.2,3.7,1.2,5.6c-0.1,0.2-1,0.3-1.1,0.2
			C1152.1,809.3,1152.3,807.5,1153.3,805.2z"/>
		<path id="XMLID_278_" class="st22" d="M341.2,566.2c2.4,0.1,5.4-1.5,7.1,2.6C345.6,567.9,343,568.8,341.2,566.2z"/>
		<path id="XMLID_277_" class="st44" d="M678,849c2.1-1.6,4.3-0.9,6.4-0.4C682.3,850.3,680.1,849.8,678,849z"/>
		<path id="XMLID_276_" class="st18" d="M711.4,232c1.2,2.5,3.3,3.2,2.5,5.4c-0.1,0.3-1.2,0.5-1.6,0.3
			C710.2,236.8,710.7,235.1,711.4,232z"/>
		<path id="XMLID_275_" class="st45" d="M908,378c0.3,0.3,0.6,0.4,0.7,0.7c0.7,1.7,2.9,2.7,2.5,5c0,0.2-1,0.5-1.2,0.3
			C908.4,382.4,907.3,380.6,908,378z"/>
		<path id="XMLID_274_" class="st46" d="M931.1,345.5c1.1-1.2,2.5-0.7,3.8-0.7c0.8,1,1.6,2.7,0.5,3.2
			C933.3,349.1,932.7,346.2,931.1,345.5z"/>
		<path id="XMLID_273_" class="st47" d="M915.4,739.7c-1.1-0.2-1.8-0.6-1.7-1.5c0.1-1.2,0.9-2,2.1-1.9c0.9,0.1,1,0.9,1,1.8
			C916.9,739.3,916.1,739.5,915.4,739.7z"/>
		<path id="XMLID_272_" class="st34" d="M1155.8,766.6c1.3,1.7,1.3,3.3,0.1,4.9c-0.2,0.2-1.1,0.3-1.1,0.2
			C1153.8,769.8,1155.5,768.3,1155.8,766.6z"/>
		<path id="XMLID_271_" class="st48" d="M353.2,582.6c1.7-1.1,3.1-1.2,4.2,0.3c0.2,0.2,0.1,1-0.2,1.1
			C355.3,585.2,354.4,583.3,353.2,582.6z"/>
		<path id="XMLID_270_" class="st49" d="M600,641.9c2,2.5,2.5,4.3,2.9,6.8C600,647.1,599.9,645.2,600,641.9z"/>
		<path id="XMLID_269_" class="st39" d="M697.3,321.7c0.9,0.6,2,1.2,2.2,2.4c0.1,1-1,1-1.7,0.9c-1.3-0.2-2.2-1-1.9-2.5
			C696,321.9,696.4,321.5,697.3,321.7z"/>
		<path id="XMLID_268_" class="st50" d="M826.4,237.8c0.6-3.1,1.9-4.3,5.5-3.7C829.7,235.3,828.9,237.2,826.4,237.8z"/>
		<path id="XMLID_267_" class="st51" d="M560.3,824c-0.6-2.3-0.5-4.1,0-6.8C562.3,819.7,562.2,821.5,560.3,824z"/>
		<path id="XMLID_266_" class="st52" d="M714.3,353.1c-0.6-1.3-0.8-2.6,0.3-3.6c0.5-0.5,1.3-0.1,1.5,0.4
			C716.3,351.3,716,352.5,714.3,353.1z"/>
		<path id="XMLID_265_" class="st53" d="M937.7,813.9c1.6,1.8,1.2,3,0.4,4.9C936.5,817.2,936.6,815.9,937.7,813.9z"/>
		<path id="XMLID_264_" class="st54" d="M1116.5,767c0.1,1.3-0.3,2.1-1.2,2c-0.9,0-1.1-0.9-1.2-1.7c-0.1-0.8,0.1-1.8,1.1-1.6
			C1115.8,765.7,1116.2,766.7,1116.5,767z"/>
		<path id="XMLID_263_" class="st55" d="M688.4,848.9c1.9-1.2,3.2-1.2,5.2,0.1C691.6,850,690.3,850.1,688.4,848.9z"/>
		<path id="XMLID_262_" class="st0" d="M1426,860.1c-1.7,1.4-0.7,2.8,0,4.1c0.8,1.5-0.2,2.1-1.2,2.4c-1.2,0.4-1.3-0.7-1.7-1.7
			c-1.8-5.5-2.1-5.5-6.5-2.7c-0.3,0.2-0.8,0.3-1.2,0.4c-1.3-4.2-5.8-2.6-8.2-4.6l0,0.1c0.6-3.4,3.1-0.1,4.4-1.2
			c-1.3-2.6-2.5-4.9-6-5c-2.1,0-3.3,2.2-5.5,1.5c-1.1-0.4-2.2,1.4-3.6-0.5c-1-1.4-2.1-0.3-1.4,1.4c0.6,1.4,0.8,3.1-1,3.3
			c-1.7,0.2-3.1-1.3-2.9-3.2c0.1-1,0.5-1.6-0.7-2.1c-0.6-0.2-1-0.4-1.4,0.3c-0.6,1-1,1.8,0.1,2.8c1.6,1.5,2,3.5,1.8,5.6
			c-0.1,0.8-0.5,1.6-1.4,1.6c-0.8,0-1.3-0.8-1.4-1.7c-0.1-1.9,0.3-3.9-2-5c-0.8,1.2,0.2,1.6,0.6,2.1c0.9,1.3,0.9,2.6,0.2,3.9
			c-0.2,0.3-0.8,0.7-1.1,0.6c-1.6-0.6-0.9-2.1-1.2-3.2c-0.4-1.6-0.8-3.3-1.7-4.7c-0.5-0.8-1.4-2.6-2.9-1.5c-1.3,0.9-0.6,2.2,0.4,3.1
			c0.3,0.3,0.3,0.8,0.9,2.7c-3.8-4.3-8.3-2.3-11.8-4.4c-0.3-0.2-1.2,0.3-1.5,0.7c-2.7,2.9-3.5,1.4-5.3-1.3c-2-2.9-5.6-1.2-8.9-0.7
			c2.6,0.2,3.9,0.7,4,3.7c0.1,3,3.7,5.1,3.3,8.6c-3.6-0.9-1.5-5.7-4.6-7c-0.1-0.1-0.3,0-0.9-0.1c1.3,2.3,0,4.5,0.5,6.8
			c-3.9-0.5-2.3-4.1-3.2-6c-1.7-0.3-2.5,6.6-4.2,0.2c-0.1-0.2-0.9-0.5-1.2-0.4c-1.8,0.4-3.5,0.1-2.8-2.1c0.8-2.5,2.2,2,3.5-0.3
			c0.3-0.9-2.2-2.2-0.7-2.9c2.7-1.2,2.7,2.4,4.5,3.2c-0.5-2.7-1.2-5.4-4.8-4.4c-4.5,1.3-8.9-0.9-13.4-0.1
			c-7.3,1.4-14.6-0.7-21.9-0.2c-7.5,0.6-15.2,0.4-22.8,0.1c-22.2-0.8-44.5-0.9-66.7-0.8c-0.7,0-1.5-0.2-2.3-1.3
			c4-0.4,7.9-1.1,11.9-1.1c32.2-0.1,64.3,0,96.5,0c22.7,0,45.4,0,68,0c1.7,0,3.5,0.5,5-0.6c12.1-0.5,24.3-1.1,34.9-0.5
			c-5.7-1.2-12.9,0.4-20.1-0.3c-0.9-0.1-1.9-0.2-2.5-1c-2.4-0.3-4.1-1.6-4.6-4c-0.6-3,0.8-5.4,3.1-7.2c3.8-2.8,3.8-8.9,0.4-12.2
			c-2.5-2.4-5.8-4-5.8-9c0-3.5-3.4-7-6.1-10.1c-3.4-4-7.1-1.8-11-1.7c-8.2,0.3-16.5,0.6-24.6,1.2c-17.3,1.4-34-3.1-51.1-3.3
			c-3.7,0-7.5,0-11.1,0.7c-9.9,1.9-19.3-1.4-28.9-2.4c-10.6-1.1-20.8-4.1-31.3-5.6c-6.1-0.9-11.3-3.8-16.6-6.7
			c-4.2-2.3-5.3-2-6.4,2.6c-1,4-2.2,7.9-4.1,11.6c-0.3,0.5-0.5,1.1-0.8,1.7c-0.3-0.2-0.7-0.5-1-0.7c1.9-12.2,3.8-24.3,5.8-36.5
			c2.8-16.9,5.6-33.8,8.7-50.7c3.4-18.4,5.2-37,9.7-55.2c2.6-10.4,6.5-19.7,17.5-23.8c4.4-1.7,9.1-1.5,13.6-2.4
			c7.4-1.5,15.1-2,22.6-2.9c5.8-0.7,11.6-1.6,17.4-2.1c15.3-1.5,30.6-3,46-4.1c5.7-0.4,11.5-0.7,17.2-0.9c9.8-0.4,19.6-0.6,29.4-0.9
			c0.7,0,1.5-0.4,2.2-0.6c7.6-2.4,15.5-0.3,23.2-1c5.7-0.5,11.5,0.5,17.2-0.1c8.8,0.2,17.6-0.6,26.3,0.9c0.3,0.1,0.5,0.2,0.8,0.3
			c7.6,1.9,15.4,1,23,2c17.1,2.2,34.5,2.3,51.5,5.3c4.5,0.8,9.1,1.6,13.6,2.4c3.9,0.6,6.6,3.7,9.1,7c4.5,6,0.4,11.9,0.4,17.7
			c-0.1,6.2-0.3,12.4-0.4,18.6c-0.1,6.9-0.7,13.8-0.2,20.8c0.2,3,2,2.1,3.3,2.7c2.7,1.2,2.6-1.4,2.7-2.4c0.4-2.4,0.5-5,0.1-7.5
			c-0.5-2.9,1.3-4.4,3.1-5.7c2-1.5,4,0.6,6.1,0.9c0.3,0,0.8,0.5,0.9,0.9c0.4,0.9-2.8,2.2,0,2.7c2.1,0.4,1.3-2.2,2.1-3.3
			c0.4-0.5,0.1-1.5,0.2-2.8c1.6,1.2,3.2,0.5,4.7,1.6c3.7,2.7,3.1,7.1,4.7,10.6c0.5,1-0.4,2.8,0.2,3.7c3.1,4.7,0.2,5.1-3.4,5.1
			c-6.2,0-12.5,0.3-18.7-0.1c-5.8-0.3-5.7-0.6-5.7,5.1c0,10,0,20,0,30c0,3,0.7,5.5,2.6,8.1c3.1,4.3,2.2,9.7,2.7,14.6
			c0.1,0.8-1.2,1.9-2.5,1.8c-3.8-0.3-3.8,2.3-3.8,4.9c0,3,0,5.9,0,8.9c0,3-1,6.5,4.3,5.9c1.4-0.2,2.4,1.5,2.7,3.3
			c0.9,5.9,1.1,11.8,0.7,17.6c-0.2,3.2,2.2,6.4,0.6,9.1c-1.9,3.2-5.7,0.9-8.7,1.5c-5,1-5.8,5.4-6.4,8.8c-0.5,2.8-3.5,5.7-0.5,9
			c0.8,0.9-1.4,1.9-2,2.4c-3.2,2.4-3.7,8.1-9.5,7.2c0.7,1.6,4.1,1,2.5,3.5c-1.4,2.1-2.7,4.7-6,3.8c-0.8-0.2-1.3-1.6-2.3-0.7
			c-0.2,0.2-0.3,0.9-0.1,1.2c0.6,1,1.7,0.5,2.5,0.5c15.2,0,30.4,0,45.6,0c1.6,0,3.4-0.5,5,0.5c-0.2,1.1-1.1,0.9-1.7,0.9
			c-11.5,0-23-0.1-34.5,0.8c-5.7,0.5-11.5,0.6-17.2,0.9c-0.9,0.1-2.7-0.6-2.5,1c0.1,1,0.1,3,2.2,3c1.6,0.1,3.1,0.7,2.5,2.5
			c-0.7,2.6-2.1-0.1-3.1,0.2c-2.5,0.5-4.9,1.7-6.5-1.6c-0.5-1-2.3-1.8,0.4-2.3c1.4-0.3,0.2-1.1-0.1-1.6c-1.2-2-3.1-0.6-4.6-0.9
			c-0.8-0.2-1.1,0-1.3,0.7c-0.5,2.1,1.3,2,2.4,2.7c2.1,1.2,1.9,4.2,4.1,5.4c0.6,0.3,0.2,1.1-0.3,1.5c-0.6,0.5-1.1,0.3-1.6-0.2
			c-0.6-0.5-0.8-2.1-2-0.9c-1,0.9,0.5,1.6,0.6,2.5c0,1.1,2.8,0.9,1.3,2.7c-0.3,0.3-0.8,0.6-1.2,0.6c-1.7-0.3-1.5-1.4-1.5-2.7
			c0-1.1-1.3-2-1.2-3.4c0-0.7-0.7-0.9-1.4-0.9c-0.8,0-1,0.5-1.1,1.2c-0.6,4-2.1,4.8-6.4,3.5c-2.2-0.7-3.8-2.2-5.8-2.9
			c-1-0.3-2.2-1.7-2.9-0.8c-2.3,3.2-3.4,0.5-4.9-0.7c-0.7-0.6-1.4-1.2-2.8-2.3c0.8,3.1,3.9,3.9,3.9,6.5c-2.9,1.1-3.4-2.9-6.2-2.7
			c0.4,1.8,0.7,3.5,2.6,5.6c-1.6-0.4-2.5-0.4-2.8-0.8c-2.9-3.8-6.1-0.9-9.1-0.3c-0.9,0.2-2.7-0.1-1.7,2.2c0.6,1.4-1.1,1.4-1.7,1
			c-2.4-1.6-5.7-0.4-7.8-2.9c-2.3-2.7-5.6-0.7-8.4-0.9c-0.3,0-1,1.2-1.7,0.4c-3-3.1-2.3,0.7-2.9,1.6c-0.9,0.4-1.3-0.1-1.7-0.6
			c-3.3-3.6-4.4-3.9-8-2.3c-1.7,0.8-3.9,0.4-6.5-1.1c-0.1,2.3,1.8,3.3,2.7,4.7c0.5,0.8,2,1.5,0.5,2.6c-2,1.4-1.2-0.9-1.8-1.4
			c-2.9-2.5-5.9-5-8.9-7.6c-0.8,1.7,1.7,2.5,0.8,4.4c-3.9-1.3-4.6-5.8-7.9-8c0.2,2.7,0.8,5,2.7,6.8c-2.9-1.3-5.6-2.7-7-5.9
			c-1.8,2,2.7,5.1-1.5,6.2c-1.1-0.5-1.6-1.6-2.1-2.6c-0.9-0.6-1.9-1.3-2.8-1.9c-0.6-0.6-0.3-1.7-1.2-2.2
			C1426.5,859.4,1426.3,859.8,1426,860.1z"/>
		<path id="XMLID_261_" class="st0" d="M825.7,141.8c0.1-1.9-2.6-4.4,1.2-5.4c0.1,0,0-1.4-0.3-2c-1.1-2.3-0.3-6.2-3-6.8
			c-3-0.7-6.4-1.9-9.8,0.4c-3.5,2.3-7.4,3.9-10.3,7.3c-2.7,3.2-7.2,4.5-11.1,4.8c-3.7,0.3-5.8-4-5.6-7.1c0.3-4.9,0.4-10,1.3-14.9
			c2-10.9,9.7-18.4,18.1-24.5c8.5-6.2,17.8-11.3,28.5-13.8c4.1-1,7.9-4.6,12.9-4.7c7.5-0.2,14.5-4,22.5-1.1
			c3.4,1.2,8.1-0.9,12.2-1.3c9.8-1,18.1,2.5,26,7.5c4,2.5,8.8,3.3,12.1,7.3c2.4,2.9,4.9,6,7.4,8.8c2.5,2.9,5.5,5,8.4,7.2
			c10.4,7.8,17,17.8,18.7,30.7c1.1,8.2,2.5,16.5,2.6,24.7c0.1,3.8,1.2,7.7,0.2,11.6c-0.3,1.2,0,2.9,0.6,3.9c5.2,8.6-1,15.5-3.3,23
			c-0.5,1.7-2,2.1-3.7,2.1c-10.2,0-19.9-2.3-28.6-7.7c-2.9-1.8-5.3-4.4-7.6-6.9c-1.7-1.8-5.9-0.5-5.5-3.9c0.2-2,2.7-3.6,3.9-5.6
			c3.9-6.9,6.8-14.2,5.2-22.2c-1.4-6.9-5.7-11.8-12.7-13.8c-2.1-0.6-4.2-0.1-5.8,2c9.3,1.3,14.1,6.1,12.9,13.6
			c-2.3-2.4-4.4-5.4-8.3-2.3c3.4,1.6,5.6,3.9,7.6,7.2c2.5,4.1-0.2,7.1-0.6,10.6c-0.1,0.5-0.6,1.1-1.4,0.9c-0.7-0.2-0.9-0.7-1-1.4
			c-0.6-4.2-2.1-2.4-3.6-0.5c-1,1.3-1.9,3.4-3.8,2.9c-2.2-0.6-1.2-2.9-1.4-4.5c-0.2-1.9-1.3-3.4-2.7-4c-1.9-0.9-1.3,1.5-2.1,2.3
			c-1,1-2.2,1.2-3.4,0.7c-2.7-1.1-5.5-0.2-8.2-0.6c-0.8,1.7,0.4,2.6,0.8,3.6c2.1,5.2,2.2,5.3-3.6,6.5c-4.1,0.8-8.3,0.9-12.5,1.4
			c-4,0.4-4.2-3.3-5.4-5.4c-4.1-7.1-8-13.8-16.6-16.8c-3.3-1.2-6.9-3.9-9.6-7.4c-1.1-1.5-4.9-1.6-6.5-3.9c-0.5-0.7-1.6-1.9-1.5-2.2
			c1-1.5,1.5-3.1-0.4-3.6C827.1,138,827.1,140.7,825.7,141.8z"/>
		<path id="XMLID_260_" class="st0" d="M329.5,180.9c0,2.4,0.2,4.7-0.5,7.2c-0.7,2.5,2.2,4.8,4.5,5.7c1.9,0.7,2.7,0.7,1.5,2.9
			c-0.6,1.1,0.7,1.9,1.5,2.6c0.8,0.7,1.3,1.5,0.2,2.3c-2.6,1.9-3.2,5.2-5.3,7.4c-3,3.2-6.4,5.9-7.5,10.6c-0.4,1.7-3.4,2.5-3.3,5.5
			c0.1,2-0.5,3.4,1.5,5.1c2.1,1.7-0.5,7.2-3.2,8c-1.9,0.6-4.5,0-5.7,2.8c2.5,0.5,4.4,1.4,4.2,4.5c-0.1,3,1.2,5.5,3.8,7.3
			c2.4,1.6,1.6,2.8-0.6,4c-1.6,0.9-3.3,1-5,0.7c-8.3-1.4-16.5-3-24.4-6c-2.1-0.8-3.9-0.1-5.8,0.4c-6.9,1.8-14.4,1.6-20.7,5.7
			c-2,1.3-7.3-1.8-7.4-4.6c-0.6-13.5-8.6-23-16.7-32.5c-9.8-11.3-20.7-21.3-33-29.8c-2.9-2-6.9-3.2-7.2-7c-0.4-5.4-5.9-9.9-2.5-15.8
			c1.4-2.3,2.6-4.8,3.9-7.3c4.1,5.5,3.6,11.4,3.9,17.2c0.1,1.8,0,3.4,1.7,4.5c0.8,0.5,1.6,0.4,2-0.3c1.1-1.7,0.9-3.5,0-5.2
			c-0.4-0.8-0.5-1.7-0.7-2.5c1.7-0.4,2,0.9,2.9,1.5c1,0.6,2.2,0.9,3.1,0.3c1.1-0.8-0.5-1.6-0.4-2.4c0.2-1.5-0.5-3.1,0.8-4.7
			c2.6,1.4,4.3,3.8,6.3,5.7c2-1.3,0.4-2.5,0-3.3c-1.8-3.5-0.2-7,0.2-10.4c0.1-0.8,0.7-1.5,1.6-1.4c1.3,0.1,1,1.3,1,2.2
			c0.1,2.3-2,4.6,0.6,8.3c0.3-6.8,3-11.5,6.5-15.8c2-2.5,3-5.8,7.6-4.9c2.3,0.5,4.7-1.5,6.2-3.6c3.5-4.7,7.5-8.1,13.9-7.7
			c1.4,0.1,2.5-1.4,3.7-1.7c2-0.6,4.4-3,5.8,1.7c0.8,2.9,5.5,3.4,8.7,4.2c1.6,0.4,3.1,1,4.7,1.6c1.7-1.6-2.3-2.6-0.5-3.7
			c1-0.6,2.7-0.1,4.1-0.3c4.2-0.6,8.2-0.8,10.8-5.4c1.7-2.9,5.2-0.5,8,0.2c-0.3,2.1-1.8,2.2-3.2,2.1c-2-0.2-3.6,0.3-4.8,2
			c-0.4,0.5-1.5,0.4-1.4,1.5c0.1,1.4,1.1,0.5,1.6,0.6c-2.3,3.2,0,4.4,2.4,5.7c-2,0.8-0.1,2.8-1.1,3.8c-2,2.1-1.4,3.8,0.6,5.5
			c0.6,0.5,1,1.2,1.2,2c1,3.7,2.1,7,7.4,4.2c-2.4,2-4.3,4.1-7.9,1.5c1.1,4.8,7.6,3.3,6,9.6c2.9-3.5,5.2-5.4,8.7-4.2
			c0.3,0.1,0.9-0.2,1.3-0.4c-2.4-5.4,4.5-4.9,5.4-8.7c0.9-3.8,4.8-4,11-1.8c-2.8,1.4-5.2,3-4.6,6.6c0.7,4.2,4.5,4.4,7.3,6.1
			c-0.4-2.1,0.3-4.3-3.1-4.9c-2.7-0.5-0.6-3.2-1.1-4.9c4.5-0.1,3-7.8,8.4-6.7c0.1-2.4,1.2-4.1,3-5.7c1.4-1.3,2.8-1.8,3.9-0.4
			c1.5,1.9-2.4,0.8-1.4,3.3c0.6,0.5,2.3-1.5,3.3,0.4c1,1.8-0.3,2.8-1.1,3.6c-1.2,1.3-0.9,2,0.2,3c1.1,1,2,1.2,3.3,0.4
			c1.2-0.7,1.6-2.9,3.7-2.1c0,0.3,0.1,0.7,0,0.9c-0.5,1.6-3.9,1.9-2.2,4.3c1.6,2.1,4,2.7,6.7,2.1c3.1-0.7,5.9-2.7,9.3-2.2
			c1.2,0.2,2.2,0.6,2.7,1.5c0.7,1.3-0.8,1.8-1.5,2.5c-3.5,3.2-7.7,5.7-10.3,9.9c-2.4-2.8-4.7,3.6-7.1,0.1c-1.1-1.6-2.4-1.8-3.7-0.1
			c-1,1.2-2.9,2.3-0.2,3.9c0.7,0.4,1.4,1.5,0.2,2.3c-0.9,0.6-2.5,0.7-3-0.2c-2.5-4.3-6.1-2.2-9.5-2c-1.8,0.1-3.6,0.3-5.4,0.4
			c-5.8-1.3-11.2-3.9-16.4-5.6c1.9,2.7,1.9,2.3,7.2,2.8C323.6,177.2,326.7,178.9,329.5,180.9z"/>
		<path id="XMLID_259_" class="st0" d="M1406.3,620c0.3-1.4-1.7-4.7,2.5-2.7c1,0.5,1.7,0.1,2.3-1.3c1.1-2.5-1.2-7,3.6-7.2
			c2.9-0.1,5.7-0.8,8.9,0.4c3.2,1.2,7.1,0.2,10.7,0.3c1.2,0,2.5-0.6,3.5,0.6c-3.1,1.2,3.2,5.4-2,6.1c-0.6,0.1-1.2,0.9-1.7,1.4
			c0.6,1,1.7,0.9,2.1,0.6c6.3-5.4,13.4-2.7,19.9-1.3c4.9,1,7.2-0.6,8.8-4.2c1-2.2,1.9-3.1,4.4-2.6c3.3,0.7,1.6-1.5,1.1-3.4
			c6.1,5.4,12.4,2.6,18.7,1.9c4.9-0.6,10-0.4,14.8,0.5c2,0.4,3.3,0.2,5-0.4c1.8-0.6,3.9-3.4,5.6,0.3c0.4,0.8,1.4-0.2,2.1-0.4
			c7.8-2.9,15.9-0.2,23.8-0.9c2.8-0.2,3.3,1.3,3.4,3.8c0,3.7-0.4,7.4,0.5,11.1c0.6,2.3-0.1,4.3-3.6,3.9c-9.6-1.2-19.2-2.5-28.9-3.1
			c-13.3-0.9-26.5-2.9-39.9-1.6c0,0,0.1,0.1,0.1,0.1c-9-0.8-18-0.4-27-0.5c-11.8-1.1-23.6,0.2-35.4-0.9
			C1408.4,620.5,1407.3,620.7,1406.3,620z"/>
		<path id="XMLID_258_" class="st56" d="M279.8,74.8c3.3,2.9,7.4,1.2,10.7,0.9c5.7-0.5,11.4-1.2,17.1-1.1c1.3,0,2.4-0.2,3.6-0.8
			c5.2-2.6,10-1.4,14.1,3.5c-7.1,0.4-13.9-1.8-20.8-0.2c3.4,0.1,6.2,1.9,9.2,3.3c-3.7,1.1-7.5,0.8-11.7,0.1c2.2,2.2,4.6,1.9,6.8,2.2
			c5.1,0.6,10.1,1.6,15.5,0.9c7.5-1,14.9,1.1,22.4,4.4c-4.6,3.4-8.6,5.8-13.7,2.1c-1.2-0.9-3.3-1.8-5.3-0.5
			c-1.2,0.8-2.4,0.2-3.3-0.8c-2.2-2.5-5.1-2-7.1-0.7c-3.5,2.2-6.6,4.2-10.2,0.4c-0.2-0.2-0.8-0.2-0.9-0.1c-3,4.1-10.6,0.5-12.3,7.9
			c-0.5,2.1-5.5,3.2-8.7,4.5c1.2-2.3,3.2-3.8,5.4-5c0.8-0.5,1.5-1.2,1.3-2.3c-0.3-1.3-1.6-1.1-2.3-0.9c-4.2,1.1-8.4,1.4-11.9,4.8
			c-1.3,1.2-4.9,3.5-8.2,1.5c7.3-7,16.5-9.4,26.8-12.1c-4.4-1.4-7.5-1.1-10.1,0.4c-3.7,2.1-8.1,1.5-11.6,4c-0.8,0.6-1.4,0.5-2-0.2
			c-2.3-2.7-4.2-1.3-5.9,0.8c-2.4,2.9-5.5,4.8-9.3,5.7c4.3-5,7.8-10.9,15.4-11.6c1-0.1,2.8-2,2.7-2.2c-1.8-3.4,1.6-3.9,4-5.8
			c-4.3,0.2-7.3,1.9-9.2,3.6c-4,3.9-10.2,1.9-13.8,6c-0.2,0.2-0.6,0.2-0.9,0.2c-1.8-0.3-4.3,1.1-5.1-0.8c-0.9-2,2.6-1,3-2.6
			c0.7-2.2,5.9-1,3.1-5.6c4.1,1.9,13.2-0.2,16.1-3.3c0.4-0.4-0.8-0.6-1.3-0.8c0-1.4,0.8-2.1,1.9-2.7c2.2,0.3,3.8,1.9,5.9,2.5
			C279.5,74.4,279.7,74.6,279.8,74.8z"/>
		<path id="XMLID_257_" class="st57" d="M1253.5,820.7c50.1-0.7,100.2-0.7,150.3,0.8c0.1,2-1.1,1.6-1.9,1.8c-3.9,1.2-8.2,0-11.9,2.8
			c-1.3,0.9-4.2,1.1-6.1-0.6c-1.6-1.4-4-1.3-5.3-0.6c-5.1,2.7-10.5,1.5-15.6,1.2c-8.3-0.5-16.6-1.3-24.9-1.3
			c-25.3-0.1-50.6,0-75.8,0c-14.7,0-29.4-0.1-44-0.2c-1.2,0.7-1.7-0.8-2.7-0.9c-2,1.3-3.3-0.9-5-1.1c12.9-3.2,26.1-0.9,39.1-2.1
			C1250.9,820.2,1252.2,820,1253.5,820.7z"/>
		<path id="XMLID_256_" class="st56" d="M274.2,72c-0.8,0.9-1.7,1.7-2.5,2.6c-4.1,1.3-8.3,2.1-12.2,4c1.4-3.7,5.2-4,8.5-6.5
			c-5.6,0.1-9.2,3.4-13.4,4.7c-5.6,1.7-10.8,4.4-15.3,8.2c-0.7,0.6-2.2,2.6-3.4,0.4c-0.8-1.6,0.8-2.3,2-3.1
			c9.2-6.7,20.1-9.2,30.3-13.5c12.6-5.3,25.3-4.4,38.2-2.5c3.7,0.5,7.7-0.7,11.5,2.5c-12.8,3-25.3,4.8-37.8,6c0,0,0.1,0.1,0.1,0.1
			c-1.3-3,1.3-3.3,3-4.1c6.8-2.9,13.8-2,19.2-1.6c-6.6-1.3-14.6-0.5-22.5,2.3C277.9,72.2,276,72.9,274.2,72z"/>
		<path id="XMLID_255_" class="st0" d="M1589.9,797.3c1.1,3.3-0.9,7.3-0.9,11.4c-0.1,4.5-3.7,3.6-6.3,3.9c-2.9,0.3-2.3-2.2-2.5-3.9
			c-0.6-8.1-1.2-16.2-1.8-24.3c-0.1-1.6,1-2.6,2.4-3.1c3.6-1.3,7.6,1.8,8.4,5.5C1589.8,790,1589.7,793.2,1589.9,797.3z"/>
		<path id="XMLID_254_" class="st58" d="M371.9,407.8c-1.8-0.2-3.7-2.1-5.7-3.8c-2.4-2-4.6-4.1-8-4.2c-1.4-0.1-2.9-0.9-2.6-2.4
			c0.3-1.3,1.6-1.7,3.4-1.3c2.4,0.5,4.5-0.6,5.9-2.9c1.6-2.5,3.8-4.2,6.8-3.5c4.3,1,6.4,4.6,7.4,8.3
			C380.1,401.4,375.4,407.8,371.9,407.8z"/>
		<path id="XMLID_253_" class="st59" d="M1263.8,830.7c49.9,0.3,98.8-1.6,148.2-0.6c-1.5,1.6-2.9,1.1-4.1,1.2
			c-44.6,1.6-89.2,0.6-133.8,0.7C1271.2,832,1267.9,834.5,1263.8,830.7z"/>
		<path id="XMLID_252_" class="st60" d="M1215.6,823.7c0.9,0.3,1.8,0.6,2.7,0.9c0,6.2,0.5,6.7,6.5,6.7c9,0,18.1,0,27.1,0
			c1.4,0,3.1-0.6,4.6,0.8c-0.9,1.3-2.2,0.8-3.3,0.8c-9.2,0-18.4,0-27.6,0c-3.4,0-6.6-0.1-10,1.5c-3.3,1.6-6.9-0.1-10.2-1
			c-1.6-0.5-1.7-2.2-1.4-4c0.4-2.1,1.3-3.5,3.4-3.9c1.5-0.2,3,0,4.5-0.1C1213.4,825.4,1215.2,825.9,1215.6,823.7z"/>
		<path id="XMLID_251_" class="st61" d="M347.1,222c-3.1,1.2-4.6,2.3-7,2.2c-5.5-0.3-7.1,2.4-5.1,7.5c0.5,1.3,2.7,2.4,0.7,4.3
			c-1.5,1.4-3.2,1.4-4.8,0.8c-2.1-0.8-1.2-2.9-1.3-4.5c-0.2-2,0.5-3.9-1.8-5.7c-2.4-1.9-1.1-5.3,2-5.6c2.2-0.2,3.5-1.3,4.6-2.7
			c2.5-3,4.7-2.1,6.3,0.5C342,220.9,343.6,221.9,347.1,222z"/>
		<path id="XMLID_250_" class="st56" d="M315.3,103.6c1.2,0.5,2.9-0.5,3.1-1c1.4-2.5,2.7-4,5.7-2.1c1.8,1.2,4.5,0.7,5.7,3.3
			c0.9,2,3.1,2.5,5.2,2.3c2.6-0.2,4.8,0.9,7.2,1.5c1.5,0.4,3.5,1.3,2.8,2.9c-0.7,1.6-2.9,2.9-4.7,1.6c-4.6-3.2-10.7-2.3-15.2-5.8
			c-0.9-0.7-3.5-0.6-4.4,0.1c-2.2,1.7-4.1,0.5-6.1,0.2c-1-0.2-2.9-0.4-2.6-1.9C312.2,103.6,313.4,102.4,315.3,103.6z"/>
		<path id="XMLID_249_" class="st60" d="M344.5,206.2c-0.2-4.4,3.5-5.7,5.2-8.3c0.6-1,1.1,0.1,1.4,1.2c1.1,4,3.7,6.8,8.2,7
			c2.4,0.1,3.3,2.9,5.7,2.9c0.1,0,0.4,1.2,0.2,1.6c-0.4,1.2-1.5,1.5-2.7,1.2c-2.2-0.6-4.4-1.6-6.7-1.8c-2.3-0.2-4.6-2.6-7,0.6
			C347.6,212,344.5,208.8,344.5,206.2z"/>
		<path id="XMLID_248_" class="st62" d="M389,444.7c-0.8-1.6-0.2-3.1,0.6-4.4c0.7-1.1,2.2-2.1,2.7-0.1c1.1,4.5,4.2,2.6,6.7,2.4
			c2.3-0.2,4.5-1,6.7-1.4c0.8-0.1,1.6,0,2,0.9c0.4,1-0.5,1.4-1.1,1.8c-4.8,3.6-10.7,4.6-16.3,5.8C388.1,450.1,388.3,446.7,389,444.7
			z"/>
		<path id="XMLID_247_" class="st63" d="M1289.8,629c-1.3-0.8-4.3,1.5-3.7-2.7c0.4-3.2,1-4.7,4.6-3.3c1.7,0.7,3.6,0.1,5.5-0.5
			c1.6-0.5,3.3-0.8,5-0.8c2.6,0.1,4.7,2.4,4.8,4.1c0.1,2.4-2.8,1.4-4.5,1.6C1297.6,628,1293.7,628.5,1289.8,629z"/>
		<path id="XMLID_246_" class="st62" d="M1267.7,808.6c2,0.7,5.6-1.4,6,1.6c0.3,2.7-3.4,2.3-5.5,2.9c-3.4,0.9-6.9,1.2-10.3,2.2
			c-3.6,1.1-4-1.7-4.3-3.7c-0.5-2.8,2.1-2.1,3.6-2C1260.7,809.7,1264.1,807.8,1267.7,808.6z"/>
		<path id="XMLID_245_" class="st64" d="M327.8,96c-1.8-1.5-3-3.2-5.9-2c-2.1,0.9-4.2,2.3-6.2-0.3c-0.4-0.6-0.7-1.3-0.1-1.5
			c2.2-0.8,4.4-1.4,6.9-0.7c4.6,1.4,8.4,5.4,13.7,4c0.2-0.1,0.8,0.2,0.8,0.3c0.2,4.3,3.4,3.7,6.2,3.9c0.7,0,1.7,0.1,1.6,1.2
			c-0.1,1-1,1.4-1.7,1.1c-5.1-1.5-10.3-2.9-15.7-3.3C326.5,98.7,326.2,97.7,327.8,96z"/>
		<path id="XMLID_244_" class="st65" d="M248.8,133.8c-2.4,2.8-4.6,5.1-4.8,9c0,1.1-1.6,4-3.3,0.8c-0.8-1.6-1.5-1.9-2.7-1
			c-1.1,0.8-2.4,1.7-1,3.3c1.6,1.7,0.3,2.4-0.9,1.7c-2.7-1.5-4.7,0.3-7.2,0.6C234.8,142.2,240.5,136.1,248.8,133.8z"/>
		<path id="XMLID_243_" class="st66" d="M1369,841.8c-1.1-3.2,0.3-4.7,3.5-4.8c1.7,0,3.4,0,5.1-0.3c1.9-0.3,3,0.7,4,1.9
			c1.3,1.6-0.4,2-1.2,2.8c-1.2,1.1-0.1,1.9,0.6,2.6c0.6,0.6,2.6,0.1,1.7,1.9c-0.8,1.5-2.5,1.1-3.8,0.9c-1.2-0.2-1.8-0.8-1.1-2.3
			c1-2.2-0.5-3.8-2-5.1c-2,1.5,2.1,3.6-0.3,4.6c-1.4,0.6-4.2,2.7-4.7-1.4C1370.6,841.9,1369.9,841.3,1369,841.8L1369,841.8z"/>
		<path id="XMLID_242_" class="st58" d="M1438.1,608.4c1.4-1.7,2.5-1.7,3.6-0.8c2.2,1.9,5.1,1.6,7.1,0.7c3.5-1.5,5.6,0.5,8,2
			c0.9,0.6,2.9,1.4,1.6,3.2c-1,1.3-2.4,2.3-4,1.4c-2.7-1.5-6.7,0.9-8.7-3.7C1445,610,1440.6,610.2,1438.1,608.4z"/>
		<path id="XMLID_241_" class="st29" d="M1406.3,620c3.5-2.1,7,0,10.4,0.1c9.3,0.2,18.7-0.9,27.9,1c0.3,0.2,0.4,0.4,0.3,0.6
			c-0.1,0.2-0.2,0.3-0.3,0.3c-13.4-0.1-26.9-0.2-40.3-0.3c-0.1-0.2-0.1-0.4,0.1-0.6c-0.5-0.9,0-1.2,0.8-1.3
			C1405.5,620.6,1405.9,620.6,1406.3,620z"/>
		<path id="XMLID_240_" class="st67" d="M1339.8,844.1c-1.9,3.6-4.1,3.1-6.4,1.7c-1-0.6-0.7-1.6-0.1-2.4c0.5-0.6,1.3-1.7,1.7-0.9
			c1.5,3,1.8,0.8,3.1-0.2c2.2-1.8,4.9-2.8,7.9-1.6c0.9,0.3,1.3,0.8,1.3,1.7c-0.1,1.2,0.4,2.5-0.5,3.6
			C1345,841.8,1341,852.3,1339.8,844.1z"/>
		<path id="XMLID_239_" class="st68" d="M329.5,180.9c-2.2-0.7-4.3-1.3-6.4-2.2c-1.6-0.7-2.8-1.6-4.7,0.1c-1.5,1.3-4.2,2.2-4.5-1.6
			c-0.2-2.2-2.1-3.2-3.5-4.8c6.4,2.6,13.5,3.4,19.4,7.4C329.6,180.1,329.5,180.5,329.5,180.9z"/>
		<path id="XMLID_238_" class="st69" d="M1253.5,820.7c-1.3,0.5-2.7,1.3-3.8-0.3c-1.3-1.3-3.2-1.8-4-3.7c-0.9-2.1,0.6-2.8,1.6-3.9
			c1.3-1.5,2.3-0.6,3.6,0.3c1.7,1.2,1.4,3.4,2.8,4.7c0.8,0.7,2.9-0.8,2.8,1.4C1256.2,820.8,1253.9,819.1,1253.5,820.7z"/>
		<path id="XMLID_237_" class="st70" d="M1413.8,846.9c9,0.7,18.1-1.1,27.1,1.8c-13.1,0-26.2,0-39.4,0c2.4-1.7,5.1-0.4,7.6-0.8
			C1410.7,847.6,1412.5,848.5,1413.8,846.9z"/>
		<path id="XMLID_236_" class="st71" d="M1387.2,618.1c-4.3,7.3-10.3,1.2-15.4,2c-0.7,0.1-0.9-1.3-0.8-1.2c2.9,0.3,0.6-4.6,2.1-3.1
			c4.1,3.8,8.4,2,12.7,1.7C1386.5,617.4,1387.1,617.6,1387.2,618.1z"/>
		<path id="XMLID_235_" class="st72" d="M898.7,185.2c-1.6,0.3-2.6-0.8-3.5-1.8c-1.1-1.3,0.5-1.8,1-2.6c0.9-1.3,1.3-2.7,1.3-4.3
			c0-1.3,1-2,2.1-2c1.1-0.1,2.1,0.7,2.2,1.9c0.4,2.7-1.5,5.2-0.7,8.1C901.2,184.9,899.7,185.3,898.7,185.2z"/>
		<path id="XMLID_234_" class="st0" d="M356.6,386.1c-0.6,1.5-1.9,1.8-3.3,1.4c-2.9-0.7-4.7-2.9-6.5-4.9c-1.5-1.7,0.7-2.5,1.6-2.9
			C350,378.8,356.7,384.1,356.6,386.1z"/>
		<path id="XMLID_233_" class="st73" d="M1382.4,609.6c2.4,0.6,4.1,2,6.1,0.5c1.6-1.2,3.3-0.5,3.6,1.2c0.3,1.6-0.1,3.4-2.3,3.9
			C1385.5,616.3,1383.6,613.9,1382.4,609.6z"/>
		<path id="XMLID_232_" class="st74" d="M992.6,206.8c0-6.1,0-12.2,0-18.4c0.3,0,0.7,0,1,0c0,6.1,0,12.3,0,18.4
			C993.3,206.8,993,206.8,992.6,206.8z"/>
		<path id="XMLID_231_" class="st64" d="M1324.6,611c6,3.3-0.7,10.6,6.3,12.9c-5.1,1.2-5.7,0.8-5.3-2.9
			C1325.9,617.9,1324.6,614.8,1324.6,611z"/>
		<path id="XMLID_230_" class="st75" d="M1362.3,839.3c3.6,1,2.6,3.6,2.5,5.4c-0.1,2.1-2.1,1-3.3,1.3c-0.3,0.1-0.6,0.1-0.9,0
			c-1.5-0.4-4.2,1-4.4-1c-0.2-2.7,2.8-2,4.3-1.8C1363.9,843.6,1363,841.8,1362.3,839.3z"/>
		<path id="XMLID_229_" class="st76" d="M1405.2,620c-0.3,0.4-0.5,0.8-0.8,1.3c-5.3,0-10.6,0-15.9,0c0-0.6,0-1.2,0-1.8
			C1394,619.3,1399.6,618.3,1405.2,620z"/>
		<path id="XMLID_228_" class="st77" d="M1374.6,859.7c-0.3,2.1-0.4,5.5-3.1,1.4c-1.3-2-4.3,2.7-4.1-1.3c0.1-2.5,3.5,0.7,4.2-1.8
			c0.3-1.1,1.2-1.4,2.2-0.8C1374.8,857.8,1375.5,858.5,1374.6,859.7z"/>
		<path id="XMLID_227_" class="st78" d="M1298.5,817.9c4.1-2.8,7.4-2.2,11.6-0.3C1306,818.8,1302.7,818.5,1298.5,817.9z"/>
		<path id="XMLID_226_" class="st66" d="M1201.7,819.3c-0.7,1.4-1.1,3.2-3,3.2c-2.1,0-2.4-1.5-2.3-3.2c0-1.7,0.8-2.6,2.5-2.4
			C1200.4,817,1201.3,818,1201.7,819.3z"/>
		<path id="XMLID_225_" class="st79" d="M384.1,507.5c-0.1,1.6-1,3.3-2.7,3.6c-2,0.3-1.6-2.1-1.6-3c0-1.2,0.3-3.3,2.6-2.7
			C383.4,505.5,384.7,505.6,384.1,507.5z"/>
		<path id="XMLID_224_" class="st80" d="M259.4,116.1c-1.6,5.2-7.1,4.5-10.9,8.6C250.4,118,256.8,119.8,259.4,116.1z"/>
		<path id="XMLID_223_" class="st81" d="M307.9,104.7c-4-2.8-5.3,1.4-8.2,2.6c0.5-2.1,0.8-3.8,1.2-5.6
			C303.1,103,306.2,101.2,307.9,104.7z"/>
		<path id="XMLID_222_" class="st75" d="M1369,841.7c-1,0.7-0.7,1.5-0.3,2.4c0.4,0.9,0,1.6-0.9,1.6c-0.4,0-1.2-0.7-1.2-1.1
			c0-2.5-1.1-4.7-1.9-7.2C1368.3,837.1,1367.4,840.6,1369,841.7C1369,841.8,1369,841.7,1369,841.7z"/>
		<path id="XMLID_221_" class="st82" d="M993.2,177.7c-1.3-3-1.3-5.9,0-8.8C994.6,171.8,994.5,174.8,993.2,177.7z"/>
		<path id="XMLID_220_" class="st56" d="M1351.5,845.2c-1.3-0.1-3,0.2-2.6-1.3c0.3-1,1.9-1.9,3.1-2.3c1.1-0.3,2.1,0.9,2,2
			C1354,845.3,1352.4,845.1,1351.5,845.2z"/>
		<path id="XMLID_219_" class="st83" d="M1397.5,855.5c3.2,0.6,3.6,2.4,4,4.2c0.1,0.7-0.5,1.2-1.2,1
			C1398.2,859.9,1398.6,857.8,1397.5,855.5z"/>
		<path id="XMLID_218_" class="st84" d="M1407.2,858c-0.6,1.4-0.7,3-2.6,3.7c-1.8-1.6,1-3.5-0.7-4.9
			C1406.1,855.7,1406,858.4,1407.2,858C1407.3,858.1,1407.2,858,1407.2,858z"/>
		<path id="XMLID_217_" class="st85" d="M266.5,131.3c-1.9,1.4-3.3,2.6-5,1.2c-0.2-0.2-0.3-1-0.1-1.2
			C262.8,130.1,264.3,130.3,266.5,131.3z"/>
		<path id="XMLID_216_" class="st86" d="M992,162.1c1.3-0.1,1.5,0.7,1.5,1.5c0.1,1,0.4,2.3-0.8,2.8c-1.2,0.5-1.5-0.7-1.5-1.6
			C991.1,163.8,991,162.7,992,162.1z"/>
		<path id="XMLID_215_" class="st87" d="M1221.2,685.4c1.1,0,1.8,0.8,2,1.6c0.2,0.9-0.8,1.2-1.4,1.4c-1.1,0.3-2.1-0.4-2.2-1.2
			C1219.3,686.4,1220.2,685.7,1221.2,685.4z"/>
		<path id="XMLID_214_" class="st88" d="M317.5,62.9c-2.1,0.6-3.8,1-6.2-1C314,61.5,315.7,60.6,317.5,62.9z"/>
		<path id="XMLID_213_" class="st89" d="M1426,860.1c0.6-1.3-1.3-2.5-0.1-4.3c2.3,1.2,2.2,3.2,1.8,5.2
			C1427.1,860.7,1426.5,860.4,1426,860.1z"/>
		<path id="XMLID_212_" class="st90" d="M1430.5,863c1.2,0.4,1.9,1.3,2.1,2.6c-1.3-0.5-2.6,1.9-3.8,0.2
			C1427.8,864.1,1430.3,864.1,1430.5,863z"/>
		<path id="XMLID_211_" class="st91" d="M259.4,123.7c-1.6,2.2-3.1,2.9-5.9,2.7C254.9,123.8,256.5,123.3,259.4,123.7z"/>
		<path id="XMLID_210_" class="st83" d="M1202.2,851c-2,1-3.4,1-5.4,0.1C1198.8,849.5,1200.2,849.4,1202.2,851z"/>
		<path id="XMLID_209_" class="st91" d="M624.9,836.9c-2-1.6-0.9-3.5-1.5-5c-0.2,0.2-0.4,0.3-0.5,0.5c-0.6,2.1,1.2,5.8-1.8,5.9
			c-3.4,0.1-1.2-3.7-1.9-5.7c-0.2-0.5-0.2-1.1-0.3-1.6c-2.5-0.3-0.6,2.6-2.3,2.7c-0.2-0.2-0.7-0.3-0.7-0.5
			c-0.1-5.2-1.3-10.3-0.4-15.6c0.4-2.2,0.9-3.6,3.3-3.4c3.9,0.3,7.7-0.2,11.4-1.2c2.2-0.6,2.2,0.5,2,1.8c-0.3,1.3-0.4,3-1,3.9
			C627.7,824.3,624.1,829.7,624.9,836.9z"/>
		<path id="XMLID_208_" class="st92" d="M561.5,856.3c-0.6-3.1,1.1-2.7,2.1-3.1c3.4-1.5,6.7-1.3,10.1,0c2.2,0.9,2.3,2.8,2.6,4.5
			c0.3,1.6-1,2.1-2.4,2.1c-0.8,0-1.6,0-1.6,1.1c0,1.1,0.8,1,1.6,1.2c3,0.5,3.5,2.7,3.4,5.2c-0.1,1.8-1.4,3.3-3,2.9
			c-3.9-1-7.8-2.1-10.3-6.2C562.3,861.2,561.4,858.5,561.5,856.3z"/>
		<path id="XMLID_207_" class="st93" d="M570.4,845.9c0.4,1.3,0.7,2.8-1.3,2.4c-2.9-0.6-6.4-1-6.6-5.1c-0.1-1.6-0.6-3.6,2.3-3.6
			C568.9,839.7,570.2,841,570.4,845.9z"/>
		<path id="XMLID_206_" class="st94" d="M624,844.3c-0.5-2.8,3.1-4.6,2.5-8c-0.2-0.9,1.5-1.7,2.5-1.4c1,0.3,0.8,1.7,0.4,2.4
			c-1.3,2-2.4,3.7-0.2,6.1c0.8,0.9-0.8,2.7-2,3.7c-0.7,0.6-1.6,1-2.5,0.3C623.7,846.7,623.3,845.8,624,844.3z"/>
		<path id="XMLID_205_" class="st79" d="M550.2,845.5c1.1-2.9,3.4-1.9,5.2-2.1c1-0.1,2.5,0.2,2.3,1.4c-0.2,1.2-1.5,2.9-3,1.6
			C553.3,845.2,551.7,846.8,550.2,845.5z"/>
		<path id="XMLID_204_" class="st95" d="M914.6,831.7c0.5-5.4-2.3-10.8-0.6-16.1c2-6.4,1.1-12.6,0.2-18.9c-0.2-1.6,0.9-3.3,3.1-3.4
			c2-0.1,3.5,0.1,3.8,2.8c0.8,7.9,0.1,15.7-0.4,23.5c-0.3,3.9-0.6,7.9-0.5,11.8c0.1,3.2-0.2,6.2-3.9,6
			C912.3,837.1,915.3,833.6,914.6,831.7z"/>
		<path id="XMLID_203_" class="st96" d="M993.5,801.2c-1.9-2.2-1.2-4.7-1.2-7c0-0.8,0.6-1.5,1.5-1.4c0.9,0.1,1.2,0.9,1.3,1.7
			C995.5,796.9,993.5,798.7,993.5,801.2z"/>
		<path id="XMLID_202_" class="st7" d="M988.3,846.4c1.1-2,2-4,4.5-2.8c0.8,0.4,1.7,1.3,1,2.2C992.4,847.8,990.3,846.6,988.3,846.4z
			"/>
		<path id="XMLID_201_" class="st56" d="M918.5,856c2.7-1.9,5.3-0.1,9-0.7C923.7,859.1,921.2,855.8,918.5,856z"/>
		<path id="XMLID_200_" class="st97" d="M623.7,624.6c-0.2,2.3-1.5,3-3.2,2.9c-1.5-0.1-3.5-0.2-2.7-2.4c0.6-1.4-0.3-4.4,2.5-4
			C622,621.3,623.4,623,623.7,624.6z"/>
		<path id="XMLID_199_" class="st98" d="M606.3,612.7c1.1,0.7,2.8,1.5,2.2,2.6c-0.8,1.6-1.3,4-4,3.9c-1,0-2.2-1.2-1.8-1.5
			C604.2,616.2,603.7,613.3,606.3,612.7z"/>
		<path id="XMLID_198_" class="st99" d="M910,596.7c1.7-1.7,3.5-2.5,6.3-1.3C914,597.4,911.9,596.4,910,596.7z"/>
		<path id="XMLID_197_" class="st100" d="M928.9,598.6c0,1.3-1.2,1.3-1.9,1.6c-1.1,0.5-1.8-0.3-1.9-1.2c-0.1-0.8,0.7-1.2,1.5-1.3
			C927.6,597.7,928.4,597.8,928.9,598.6z"/>
		<path id="XMLID_196_" class="st101" d="M918.4,599c2.3-1.5,3.8-1.4,5.8-0.1C922.1,600,920.6,600,918.4,599z"/>
		<path id="XMLID_195_" class="st102" d="M1161.7,783.8c0-7.3-0.1-14.6,0.1-21.9c0-2,0-4.3,3.3-4.5c3.2-0.2,3.6,1.7,4.5,3.9
			c1.1,2.8,0.3,5.8,1.3,8.6c0.7,1.9-1.3,2.9-2.5,3.4c-2.9,1.2-2.8,3.5-2.9,5.8c-0.1,3.3-0.2,6.7-0.3,10c0,1.8-1.2,3.1-2.8,3.1
			c-1.9,0-1.6-1.9-1.6-3.3c0-1.7,0-3.4,0-5.1C1161,783.8,1161.4,783.8,1161.7,783.8z"/>
		<path id="XMLID_194_" class="st103" d="M1117.7,847.3c-1.2-3.2,1.4-4.5,2.7-5.8c1.4-1.3,2.5,0.4,3.1,2.1c0.5,1.7,4.2-1.9,3.3,1.5
			c-0.4,1.8-3.3,0.5-5,0.9C1120.4,846.3,1119.2,846.8,1117.7,847.3z"/>
		<path id="XMLID_193_" class="st74" d="M1168.3,784.6c0-0.8-0.2-1.9,0.2-2.6c0.9-1.5,0.6-4.8,2.8-4c2.2,0.8-0.4,2.7-0.7,4.2
			c-0.2,1.1-0.2,2.2-0.5,3.2c-0.2,0.8-0.8,1.5-1.7,1.2C1167.4,786.3,1167.8,785.5,1168.3,784.6z"/>
		<path id="XMLID_192_" class="st104" d="M1563.6,699.4c1.2,37.9-0.2,75.9-2.1,113.8C1560.5,775.3,1561.6,737.3,1563.6,699.4z"/>
		<path id="XMLID_191_" class="st15" d="M1444.7,622.1c0-0.3,0-0.6,0-1c8.2-0.1,16.3-0.1,24.5-0.2c1,0,2.2-0.1,2.8,1.1
			c-2.6,2.3-5.3,0.3-7.9,0.3C1457.5,622.4,1451.1,622.9,1444.7,622.1z"/>
		<path id="XMLID_190_" class="st35" d="M1528.6,848.1c4.5,1.2,8.9-2.9,13.4-0.5C1537.5,849.1,1533,848.6,1528.6,848.1z"/>
		<path id="XMLID_189_" class="st38" d="M1563.5,695.9c-1.2-3.7-0.9-7.3-0.6-11.9C1565.3,688.5,1565,692.2,1563.5,695.9z"/>
		<path id="XMLID_188_" class="st105" d="M1429.6,851.2c1.3,2.3,2.3,4,3.8,6.7C1429.4,856.7,1428.6,854.9,1429.6,851.2z"/>
		<path id="XMLID_187_" class="st106" d="M1494,848.2c2.4-0.7,5-1.5,8.3-0.4C1499.2,849.7,1496.6,848.5,1494,848.2z"/>
		<path id="XMLID_186_" class="st107" d="M1445.2,847.9c3.8,0,7.5,0,11.3,0C1452.7,848.9,1448.8,848.9,1445.2,847.9z"/>
		<path id="XMLID_185_" class="st108" d="M1415.4,857.3c-0.9-1.2-2.5-2.2-1.4-4c0.8-1.3,2.6-0.7,2.1,0.6
			C1415.5,855,1415.9,856,1415.4,857.3z"/>
		<path id="XMLID_184_" class="st39" d="M897.5,155.1c-1-1.2-2.4-2.3-0.6-3.6c0.6-0.4,1.5-1.1,1.9-0.3
			C899.7,152.8,897.9,153.7,897.5,155.1z"/>
		<path id="XMLID_183_" class="st109" d="M265.9,174.6c6.2,0.9,9,7.1,7.4,17.3c-4.2-3.4-8.5-6.1-12.3-10.5c3.1-0.9,4.9,4.8,7.9,0.2
			C271.9,176.9,265.4,177.8,265.9,174.6z"/>
		<path id="XMLID_182_" class="st8" d="M303.3,222c3.6-0.1,6.9,4.6,8.3,7.9c2.3,5.1-2.7,5.9-4.3,8.7c-0.3,0.6-1.5-0.2-1.8-0.9
			c-0.6-1.3-1.7-2.1-2.7-3.1c0.5-0.9,1.4-0.7,2-0.5c1.7,0.4,3.5,0.2,3.8-1.5c0.3-1.8-1.6-1.9-3-1.9c-3.5,0.1-0.1-2.8-1.6-3.5
			C306,225.4,304.6,223.8,303.3,222z"/>
		<path id="XMLID_181_" class="st22" d="M320.6,164.7c5.5,5.9,13.3,7.3,21.3,10.8C334.8,176.6,323.4,170.6,320.6,164.7z"/>
		<path id="XMLID_180_" class="st40" d="M342.4,164.5c-1.1-1.6,4.4-1.4,0-3.3c-1.2-0.5-1.1-2.8,0-3.6c1.3-1,2,0.7,2.8,1.5
			c1.8,1.9,1.7,4.3,0.7,6C345.1,166.4,343.3,164.5,342.4,164.5z"/>
		<path id="XMLID_179_" class="st110" d="M260.6,168.5c0.6-4.3,2.4-5.7,4.5-6.9c1-0.6,2.4-1.6,3.3-0.2c1,1.6-0.1,3-1.5,3.8
			C265.1,166,262.9,165.9,260.6,168.5z"/>
		<path id="XMLID_178_" class="st111" d="M332.4,176.9c-3.4,0.2-3.4,0.2-9.2-4C327.3,173.8,329.9,175.1,332.4,176.9z"/>
		<path id="XMLID_177_" class="st112" d="M259,175.6c1.5,0.9,2.6,2.3,4.3,2.7C260.6,179.2,259,178.6,259,175.6z"/>
		<path id="XMLID_176_" class="st24" d="M1511.3,617.7c0.3,2.1-1.5,3.7-3.1,3c-2.3-1-6.8,1.3-6.8-3.2c0-2.5,2.5-4.6,5-4.6
			C1508.7,612.9,1511.2,614,1511.3,617.7z"/>
		<path id="XMLID_175_" class="st1" d="M274.2,72c6.6-2.9,13.4-4.1,20.6-3.9c3.5,0.1,7.1,0,10.7,0.5c-1.9,2.5-4.7,2-7,1.4
			c-6.5-1.8-11.9,1.5-17.8,3c-1.1,0.3-0.5,1.3-0.7,1.9C278.1,73.8,274.4,76.4,274.2,72z"/>
	</g>
</g>
</svg>
