<?xml version="1.0" encoding="utf-8"?>
<!-- Generator: Adobe Illustrator 19.1.0, SVG Export Plug-In . SVG Version: 6.00 Build 0)  -->
<svg version="1.1" id="Layer_1" xmlns="http://www.w3.org/2000/svg" xmlns:xlink="http://www.w3.org/1999/xlink" x="0px" y="0px"
	 viewBox="-391.5 218.5 125 125" style="enable-background:new -391.5 218.5 125 125;" xml:space="preserve">
<style type="text/css">
	.st0{fill:none;stroke:#F5825E;stroke-width:2;stroke-miterlimit:10;}
	.st1{fill:#F5825E;}
</style>
<g>
	<g id="XMLID_18_">
		<path id="XMLID_19_" class="st0" d="M-280.5,303.7c3.7,0,7.2,0,10.7,0c0.9,4-1.1,6.7-5.1,6.7c-35.3,0-70.4,0-105.7,0
			c-2.1,0-3.7-0.9-5-2.5c-1-1.3-0.8-2.7-0.8-4.3c3.6,0,7.1,0,10.8,0c0-0.5,0-0.9,0-1.3c0-15.3,0-30.5,0-45.8c0-3.3,1.6-4.9,4.8-4.9
			c28.3,0,56.6,0,84.9-0.1c2.7,0,5.3,2.4,5.3,5.3c-0.1,15-0.1,30.1-0.1,45.2C-280.5,302.7-280.5,303.1-280.5,303.7z M-284.7,300.5
			c0-14.9,0-29.7,0-44.6c-29,0-58,0-87,0c0,14.9,0,29.7,0,44.6C-342.7,300.5-313.8,300.5-284.7,300.5z M-320.6,304.1
			c-5.2,0-10.2,0-15.4,0c0,0.4,0,0.8,0,1.1c5.2,0,10.3,0,15.4,0C-320.5,304.8-320.5,304.5-320.6,304.1z"/>
	</g>
	<g id="XMLID_11_">
		<path id="XMLID_6_" class="st1" d="M-344.3,293.8c11.7,0,23.3,0,34.8,0c0,0.8,0,1.5,0,2.3c-12.3,0-24.8,0-37.2,0
			c0-12.4,0-24.8,0-37.2c0.8,0,1.5,0,2.3,0C-344.3,270.5-344.3,282.2-344.3,293.8z"/>
		<path id="XMLID_5_" class="st1" d="M-314,291.5c-1.5,0-3,0-4.6,0c0-7.2,0-14.4,0-21.8c0.7,0.8,1.3,1.7,2.1,2.5
			c0.8-2.2,1.6-4.3,2.4-6.4h0.1C-314,274.4-314,282.8-314,291.5z"/>
		<path id="XMLID_4_" class="st1" d="M-321,269.2c0,7.5,0,14.9,0,22.2c-1.5,0-3,0-4.6,0c0-0.2,0-0.3,0-0.6c0-5.8,0-11.7,0-17.5
			c0-0.3,0.1-0.6,0.4-0.8c1.3-1,2.5-2.1,3.8-3.1C-321.3,269.4-321.2,269.3-321,269.2z"/>
		<path id="XMLID_3_" class="st1" d="M-320.9,263.1c-0.8-0.9-1.4-1.8-2.2-2.7c3.1-0.5,6.1-1,9.2-1.5c-1.1,2.9-2.2,5.7-3.3,8.6
			c-0.8-0.9-1.5-1.8-2.2-2.7c-6.5,5.3-12.8,10.5-19.4,15.9c-0.5-0.6-0.9-1.2-1.5-1.8C-333.8,273.7-327.5,268.4-320.9,263.1z"/>
		<path id="XMLID_2_" class="st1" d="M-328,291.5c-1.5,0-3,0-4.6,0c0-0.2,0-0.3,0-0.5c0-3.9,0-7.9,0-11.8c0-0.3,0.1-0.6,0.4-0.8
			c1.4-1.1,2.8-2.3,4.2-3.4C-328,280.4-328,286-328,291.5z"/>
		<path id="XMLID_1_" class="st1" d="M-334.9,280.6c0,3.7,0,7.3,0,10.9c-1.5,0-3,0-4.6,0c0-2.6,0-5.2,0-7.8c0.2,0.1,0.3,0.3,0.4,0.3
			C-337.8,282.8-336.4,281.8-334.9,280.6z"/>
	</g>
</g>
</svg>
