<?xml version="1.0" encoding="utf-8"?>
<!-- Generator: Adobe Illustrator 19.1.0, SVG Export Plug-In . SVG Version: 6.00 Build 0)  -->
<svg version="1.1" id="Layer_1" xmlns="http://www.w3.org/2000/svg" xmlns:xlink="http://www.w3.org/1999/xlink" x="0px" y="0px"
	 viewBox="-391.5 218.5 125 125" style="enable-background:new -391.5 218.5 125 125;" xml:space="preserve">
<style type="text/css">
	.st0{fill:#4CBEC0;}
</style>
<g>
	<g id="XMLID_11009_">
		<path id="XMLID_11010_" class="st0" d="M-333.7,281.1c0,13.6-0.1,27.2,0.1,40.8c0.1,5-3.7,7.6-7.8,7.6c-12.9,0-25.8,0-38.7,0
			c-3.7,0-6.6-2-7.5-5.1c-0.2-0.7-0.2-1.6-0.2-2.4c0-27.3,0-54.6-0.1-81.9c0-5,3.7-7.6,7.8-7.6c5.7,0,11.3,0,17.1,0
			c7.2,0,14.4,0,21.6,0c2.2,0,4.1,0.6,5.6,2.1c1.6,1.4,2.1,3.2,2.1,5.2C-333.7,253.6-333.7,267.3-333.7,281.1z M-336.3,319.2
			c0-26.2,0-52.3,0-78.3c-16.4,0-32.7,0-49,0c0,26.2,0,52.2,0,78.3C-368.9,319.2-352.6,319.2-336.3,319.2z M-360.7,322.7
			c-1.9,0-3.8,0-5.7,0c-1.3,0-1.7,0.4-1.7,1.7c0,1.5,0.3,2,1.7,2c3.8,0,7.6,0,11.3,0c1.3,0,1.7-0.4,1.7-2c0-1.2-0.4-1.7-1.7-1.7
			C-357,322.6-358.9,322.7-360.7,322.7z M-360.8,236.6c1.5,0,2.9,0,4.3,0c0.2,0,0.5-0.2,0.7-0.4c-0.2-0.2-0.5-0.4-0.8-0.4
			c-2.9,0-5.7,0-8.6,0c-0.2,0-0.5,0.2-0.7,0.4c0.2,0.2,0.5,0.4,0.8,0.4C-363.7,236.7-362.2,236.6-360.8,236.6z M-344.9,235
			c-0.7-0.1-1.4,0.5-1.5,1.2c-0.1,0.7,0.4,1.4,1.2,1.4c0.8,0.1,1.5-0.5,1.5-1.2C-343.6,235.7-344.1,235.1-344.9,235z"/>
	</g>
	<g id="XMLID_10921_">
		<path id="XMLID_11003_" class="st0" d="M-331.6,274.1c1.2-1.7,2.3-3.4,3.6-5c1-1.2,2.2-2.2,3.1-3.3c3.3-4.2,5.7-9.1,8-14
			c1.2-2.7,2.4-5.5,3.6-8.4c0.2-0.5,0.2-1.2,0.3-1.7c0.1-1.4-0.1-2.7,0.2-4.1c0.7-4.4,3.1-5.9,7.4-4.8c5.1,1.2,8.2,5.1,8.5,10.2
			c0.2,3.9-0.7,7.6-1.7,11.3c-0.8,2.9-1.5,5.9-2.2,8.8c-0.1,0.3-0.1,0.7-0.1,1c0,0.2,0,0.4,0.1,0.7c2-0.4,4-0.8,6-1.1
			c5.1-0.7,10.2-1.2,15.2,0.3c1.6,0.4,3.1,1.2,4.4,2.2c3.3,2.5,4.3,6.4,3,10.5c-0.2,0.6-0.2,1,0.2,1.5c2.6,3.8,2.5,8-0.1,11.8
			c-0.3,0.5-0.4,0.9-0.2,1.5c1.2,4.3,0.2,8.1-2.8,11.3c-0.5,0.6-0.7,1-0.7,1.8c0.2,3.7-1.2,6.8-4.1,9.1c-2.7,2.2-5.8,3.1-9,3.7
			c-3.9,0.7-7.8,0.7-11.8,0.4c-3.6-0.2-7.2-0.1-10.8-0.2c-6.1-0.2-12.2-0.7-18.3-1.7c-0.3-0.1-0.7,0.1-1.1,0.2
			c-1.2,0.7-2.6,1.2-4,1.2c-3.5,0-7,0-10.5,0c-4.6,0-7.6-3.1-7.6-7.6c0-9.5,0-19,0-28.5c0-0.2,0-0.3,0-0.4c0.2-4.1,3.3-7.2,7.5-7.2
			c3.6,0,7.1-0.1,10.6,0C-334,273.5-332.7,273.9-331.6,274.1z M-327.7,311.6c5.6,0.8,11.4,1.2,17.1,1.5c2.7,0.1,5.5-0.1,8.2,0.1
			c3.7,0.2,7.5,0.4,11.2-0.1c2.8-0.4,5.5-1,7.9-2.7c2.4-1.7,3.3-4.1,2.6-7c-0.2-1.2,0-2,0.9-2.7c0.2-0.2,0.4-0.3,0.6-0.4
			c2.8-2.4,3.5-5.5,1.8-8.9c-0.5-1-0.4-1.8,0.3-2.7c0.3-0.3,0.7-0.7,0.9-1.1c1.9-2.6,1.9-5.3-0.3-7.7c-1.2-1.3-1.3-2.4-0.5-4
			c1.6-3.1,0.5-6-2.7-7.2c-1.5-0.6-3.1-0.9-4.8-1.1c-5.4-0.5-10.6,0.4-15.7,1.7c-2.2,0.5-4.1-0.4-4.7-2.6c-0.3-1.5-0.5-3.1-0.2-4.6
			c0.6-3.1,1.4-6.3,2.3-9.4c0.8-3.1,1.7-6,1.5-9.3c-0.2-3.6-2.2-5.9-5.8-6.5c-0.7-0.1-1,0.2-1.1,0.8c-0.1,1.3-0.1,2.7-0.1,4
			c0,0.7,0.1,1.3-0.2,1.9c-2.5,6.6-5.3,13.1-8.9,19.1c-1.8,3.1-3.8,6.2-6.5,8.7c-1.9,1.7-3.1,3.9-4,6.3c-0.1,0.3-0.1,0.7-0.1,1.1
			c0.1,0.8,0.2,1.7,0.2,2.5C-327.7,291.4-327.7,301.5-327.7,311.6z M-341.1,310.7c2.1,0,3.8-1.7,3.8-3.7s-1.7-3.7-3.8-3.7
			c-2.1,0-3.8,1.7-3.8,3.7S-343.2,310.7-341.1,310.7z"/>
	</g>
</g>
</svg>
