<?xml version="1.0" encoding="utf-8"?>
<!-- Generator: Adobe Illustrator 19.1.0, SVG Export Plug-In . SVG Version: 6.00 Build 0)  -->
<svg version="1.1" id="Layer_1" xmlns="http://www.w3.org/2000/svg" xmlns:xlink="http://www.w3.org/1999/xlink" x="0px" y="0px"
	 viewBox="657.5 217.5 125 125" style="enable-background:new 657.5 217.5 125 125;" xml:space="preserve">
<g id="XMLID_15875_">
	<path id="XMLID_15870_" d="M660.4,220.3c39.8,0,79.5,0,119.2,0c0,39.8,0,79.5,0,119.3c-39.7,0-79.4,0-119.2,0
		C660.4,299.9,660.4,260.3,660.4,220.3z M663.2,223.2c0,38,0,75.9,0,113.7c38,0,75.8,0,113.7,0c0-38,0-75.8,0-113.7
		C738.9,223.2,701.1,223.2,663.2,223.2z"/>
	<path id="XMLID_15869_" d="M769.7,329.7c-8.5,0-16.9,0-25.4,0c0-25.1,0-50.1,0-75.2c8.5,0,16.9,0,25.4,0
		C769.7,279.5,769.7,304.5,769.7,329.7z"/>
	<path id="XMLID_15867_" d="M769.7,230.4c0,5.6,0,11.2,0,16.8c-33.1,0-66.2,0-99.4,0c0-5.5,0-11.1,0-16.8
		C703.4,230.4,736.5,230.4,769.7,230.4z"/>
	<path id="XMLID_15863_" d="M705.8,281.3c0-9.1,0-17.9,0-26.8c9.4,0,18.7,0,28.2,0c0,8.9,0,17.8,0,26.8
		C724.7,281.3,715.3,281.3,705.8,281.3z M708.6,278.5c7.7,0,15.2,0,22.7,0c0-7.1,0-14,0-21c-7.6,0-15.1,0-22.7,0
		C708.6,264.5,708.6,271.4,708.6,278.5z"/>
	<path id="XMLID_15861_" d="M734.2,314.3c0,0.9,0,1.7,0,2.6c-21.3,0-42.5,0-63.9,0c0-0.8,0-1.7,0-2.6
		C691.5,314.3,712.8,314.3,734.2,314.3z"/>
	<path id="XMLID_15860_" d="M734.1,327.2c0,0.9,0,1.7,0,2.5c-21.3,0-42.6,0-63.9,0c0-0.9,0-1.6,0-2.5
		C691.5,327.2,712.8,327.2,734.1,327.2z"/>
	<path id="XMLID_15858_" d="M670.3,294.1c0-0.9,0-1.7,0-2.6c21.3,0,42.5,0,63.8,0c0,0.8,0,1.6,0,2.6
		C712.9,294.1,691.7,294.1,670.3,294.1z"/>
	<path id="XMLID_15857_" d="M734.1,303c0,0.9,0,1.7,0,2.6c-21.3,0-42.5,0-63.8,0c0-0.8,0-1.6,0-2.6C691.5,303,712.8,303,734.1,303z"
		/>
	<path id="XMLID_15855_" d="M670.2,281.3c0-0.9,0-1.7,0-2.6c8.5,0,17,0,25.5,0c0,0.9,0,1.7,0,2.6
		C687.3,281.3,678.9,281.3,670.2,281.3z"/>
	<path id="XMLID_15854_" d="M695.7,265.9c0,0.9,0,1.7,0,2.6c-8.5,0-16.9,0-25.4,0c0-0.8,0-1.6,0-2.6
		C678.7,265.9,687.2,265.9,695.7,265.9z"/>
	<path id="XMLID_15852_" d="M695.8,254.5c0,0.9,0,1.6,0,2.5c-8.4,0-16.9,0-25.5,0c0-0.7,0-1.5,0-2.5
		C678.7,254.5,687.1,254.5,695.8,254.5z"/>
</g>
</svg>
