<?xml version="1.0" encoding="utf-8"?>
<!-- Generator: Adobe Illustrator 19.1.0, SVG Export Plug-In . SVG Version: 6.00 Build 0)  -->
<svg version="1.1" id="Layer_1" xmlns="http://www.w3.org/2000/svg" xmlns:xlink="http://www.w3.org/1999/xlink" x="0px" y="0px"
	 viewBox="-391.5 218.5 125 125" style="enable-background:new -391.5 218.5 125 125;" xml:space="preserve">
<style type="text/css">
	.st0{fill:#4CBEC0;}
</style>
<g id="XMLID_15786_">
	<g id="XMLID_9545_">
		<path id="XMLID_9546_" class="st0" d="M-295.5,257.9c2.2,0,4.3,0,6.5,0c0,12.4,0,24.8,0,37.3c-2.2,0-4.3,0-6.5,0
			C-295.5,282.8-295.5,270.3-295.5,257.9z"/>
		<path id="XMLID_9547_" class="st0" d="M-303.1,264.6c2.2,0,4.3,0,6.6,0c0,10.2,0,20.3,0,30.5c-2.2,0-4.3,0-6.6,0
			C-303.1,285-303.1,274.8-303.1,264.6z"/>
		<path id="XMLID_9548_" class="st0" d="M-304.2,295.2c-2.2,0-4.3,0-6.5,0c0-7.9,0-15.8,0-23.7c2.2,0,4.3,0,6.5,0
			C-304.2,279.3-304.2,287.3-304.2,295.2z"/>
		<path id="XMLID_9549_" class="st0" d="M-312,278.2c0,5.7,0,11.2,0,16.9c-2.2,0-4.3,0-6.6,0c0-5.6,0-11.2,0-16.9
			C-316.3,278.2-314.2,278.2-312,278.2z"/>
		<path id="XMLID_9550_" class="st0" d="M-326.3,285c2.2,0,4.3,0,6.5,0c0,3.4,0,6.7,0,10.2c-2.2,0-4.3,0-6.5,0
			C-326.3,291.7-326.3,288.4-326.3,285z"/>
	</g>
	<path id="XMLID_10472_" class="st0" d="M-358.7,293.7c1.3-2.4,3.3-2.8,5.9-1.4c2.3-1.6,4.7-3.4,7-5c0.1-0.1,0.2-0.3,0.2-0.5
		c-0.3-2.1,1-4,2.9-4.3c2.1-0.3,4.1,0.9,4.4,2.9c0.3,1.6-0.2,2.8-1.5,3.7c-1.3,0.9-2.7,0.9-4.1,0.3c-0.1-0.1-0.2-0.1-0.3-0.2
		c-0.1-0.1-0.2-0.1-0.3-0.2c-2.3,1.6-4.7,3.4-7,5c-0.2,0.1-0.3,0.3-0.2,0.5c0.2,2.2-0.9,3.7-2.8,4.2c-1.8,0.4-3.6-0.5-4.4-2.4
		c-0.1-0.2-0.3-0.4-0.6-0.4c-1.7-0.3-3.5-0.7-5.3-1c-0.3-0.1-0.6-0.1-0.9,0.3c-1.1,1.5-2.8,2-4.5,1.3c-1.6-0.7-2.5-2.3-2.2-4.1
		c0.3-1.7,1.7-3,3.5-3.1c1.6-0.2,3.3,1,3.7,2.8c0.1,0.3,0.3,0.5,0.6,0.6C-362.5,293-360.6,293.4-358.7,293.7z"/>
	<g id="XMLID_10465_">
		<path id="XMLID_10475_" class="st0" d="M-355.8,257.8c1.9,0.1,3.6,0.5,5.2,1.4c0.4,0.3,0.4,0.4,0.2,0.8c-1.7,2.5-3.5,5-5.3,7.6
			c-0.2,0.3-0.3,0.3-0.7,0.3c-2.4-0.3-4.8-0.4-7.2-0.7c-0.7-0.1-1.3-0.1-2-0.2c-0.4-0.1-0.5-0.2-0.4-0.6c0.6-4.1,4.2-7.8,8.3-8.5
			C-357.1,257.9-356.5,257.9-355.8,257.8z"/>
		<path id="XMLID_10474_" class="st0" d="M-356.1,273.6c0,1.5,0,2.9,0,4.5c0,0.5-0.1,0.6-0.6,0.6c-4.5-0.3-8.5-3.8-9.3-8.3
			c-0.2-0.7-0.2-1.4-0.3-2.1c0-0.5,0.1-0.6,0.6-0.5c2.5,0.3,5,0.4,7.5,0.7c0.4,0.1,0.9,0.1,1.4,0.1c0.5,0,0.6,0.2,0.6,0.6
			C-356.1,270.6-356.1,272.2-356.1,273.6z"/>
		<path id="XMLID_10473_" class="st0" d="M-345.4,268.1c0,2-0.4,3.7-1.4,5.3c-0.3,0.5-0.4,0.5-0.9,0.3c-2.4-1.7-4.8-3.4-7.2-5.1
			c-0.5-0.3-0.5-0.4-0.2-0.9c1.7-2.4,3.4-4.8,5.1-7.2c0.3-0.4,0.4-0.5,0.9-0.1C-346.6,262.5-345.4,265.1-345.4,268.1z"/>
		<path id="XMLID_10471_" class="st0" d="M-355.4,274c0-1.4,0-2.8,0-4.1c0-0.2,0.1-0.4,0.2-0.5c0.1-0.1,0.3,0,0.5,0.1
			c2.3,1.6,4.6,3.2,6.8,4.8c0.4,0.3,0.4,0.4,0.1,0.8c-1.9,2.2-4.2,3.5-7.1,3.7c-0.4,0.1-0.5-0.1-0.5-0.5
			C-355.5,276.7-355.4,275.3-355.4,274z"/>
	</g>
	<path id="XMLID_9181_" class="st0" d="M-280.3,305.5c3.8,0,7.4,0,11,0c0.9,4.4-1.1,7.3-5.3,7.3c-36.1,0-72.1,0-108.2,0
		c-2.2,0-3.8-0.9-5.2-2.7c-1-1.4-0.8-2.9-0.8-4.6c3.7,0,7.3,0,11.1,0c0-0.5,0-0.9,0-1.4c0-16.6,0-33.1,0-49.6c0-3.5,1.6-5.3,4.9-5.3
		c29,0,57.9,0,86.9-0.1c2.8,0,5.4,2.6,5.4,5.7c-0.1,16.3-0.1,32.6-0.1,48.9C-280.3,304.3-280.3,304.9-280.3,305.5z M-284.7,302.1
		c0-16.1,0-32.2,0-48.2c-29.7,0-59.4,0-89.1,0c0,16.1,0,32.2,0,48.2C-344,302.1-314.4,302.1-284.7,302.1z M-321.3,306
		c-5.3,0-10.5,0-15.8,0c0,0.4,0,0.8,0,1.2c5.4,0,10.5,0,15.9,0C-321.3,306.8-321.3,306.3-321.3,306z"/>
</g>
</svg>
