<?xml version="1.0" encoding="utf-8"?>
<!-- Generator: Adobe Illustrator 19.0.0, SVG Export Plug-In . SVG Version: 6.00 Build 0)  -->
<svg version="1.1" id="Layer_1" xmlns="http://www.w3.org/2000/svg" xmlns:xlink="http://www.w3.org/1999/xlink" x="0px" y="0px"
	 viewBox="0 0 1200 1200" style="enable-background:new 0 0 1200 1200;" xml:space="preserve">
<style type="text/css">
	.st0{fill:#F2F2F2;}
	.st1{fill:#C0BFBF;}
	.st2{fill:#E5E5E5;}
</style>
<g id="XMLID_40_">
	<g id="XMLID_14892_">
		<polygon id="XMLID_14899_" class="st0" points="33.2,329.4 65.8,1044.7 753.2,1179.5 851.1,751.2 741.3,453.4 		"/>
		<polygon id="XMLID_14896_" class="st1" points="741.3,453.4 753.2,1179.5 1077.9,851 1066.7,157.5 		"/>
		<polygon id="XMLID_14893_" class="st2" points="33.2,329.4 741.3,453.4 1066.7,157.5 405.5,29 		"/>
	</g>
	<g id="XMLID_15627_">
		<path id="XMLID_15630_" d="M561.1,777.2c3,84,6.1,168,9.1,252c1.1,29.7-17,49.3-45.5,49.5c-3.8,0-7.7-0.6-11.6-1.3
			c-80.1-13.8-160.3-27.7-240.4-41.6c-34.9-6.1-60.1-34.5-61.4-69.3C205.2,798.7,199.1,630.9,193,463c-1.1-30.7,16.6-50.5,45.5-50.6
			c4.1,0,8.5,0.7,12.7,1.5c79.6,13.7,159.2,27.5,238.8,41.3c35.6,6.2,60.6,34.4,61.9,70C555,609.2,558,693.2,561.1,777.2z
			 M247.6,693.7c2.5,69.9,5.1,139.9,7.6,209.8c0.6,16.3,8.7,25.6,25.1,28.4c72.5,12.6,145,25.1,217.6,37.7
			c16,2.8,23.8-3.8,23.2-19.6C516,810.1,511,670.2,505.9,530.4c-0.6-16-8.7-25.2-24.8-28c-72.5-12.6-145-25.1-217.6-37.7
			c-16.8-2.9-24.1,3.4-23.5,20.2C242.6,554.5,245.1,624.1,247.6,693.7z M416,1010.9c-0.5-13.8-11.6-26.5-25.5-29.1
			c-14.1-2.6-24.8,6.4-24.3,20.4c0.5,14,12.1,27,26,29.3C406,1033.6,416.4,1024.6,416,1010.9z"/>
		<path id="XMLID_14882_" d="M405.3,825.8c0.4,10.3,0.8,20.8,1.1,31.6c-13.8-2.4-27-4.7-40.9-7.1c-0.4-10.3-0.7-20.4-1.1-30.7
			c-10.9-3-21.3-5.7-31.6-8.6c-5.7-1.6-11.5-3.4-17.2-5.4c-1.4-0.5-3.5-2.7-3.5-3.8c-0.8-15.4-1.3-30.7-1.9-46.8
			c10.1,1.7,19.7,3.3,29.2,5.2c1,0.2,2.5,2.3,2.8,3.7c1.2,4.3,1.9,8.6,3,13.8c16.4,2.5,33,8.3,49.1,6.4c7.9-0.9,12.7-5.4,13.4-13.8
			c0.7-8.2-2.5-15.5-10.1-20.8c-10.1-7.1-20.5-13.8-30.8-20.6c-12.1-8.1-24.6-15.7-36.4-24.2c-26.7-19.2-33.4-44-27.9-69.1
			c3-13.8,12.3-22.1,25.6-25.4c7.5-1.9,15.6-2.5,23.7-2.9c3.5-0.2,4.9-0.9,4.7-4.7c-0.6-8.3-0.7-16.6-1-25.3
			c13.6,2.4,26.9,4.7,40.8,7.1c0.3,9.2,0.7,18.6,1,27.9c13.5,4,26.4,7.8,39.3,11.8c10.5,3.2,10.5,3.4,10.9,13.8
			c0.4,12.4,0.9,24.7,1.4,37.4c-10.6-1.8-20.8-3.6-31.2-5.4c-0.5-2.1-1.1-4.1-1.5-6.2c-2-9.9-2-10.2-12.1-12
			c-11.9-2.1-23.8-4.2-35.6-5.1c-9.7-0.8-14.6,3.3-15.6,10.1c-1.2,8.2,1.7,15.5,10.7,21.5c13.1,8.8,26.7,16.7,39.9,25.2
			c10,6.5,20.1,12.9,29.6,20.3c21.7,17,28.7,38.1,26.4,61.4c-2.1,21.3-13.9,33.9-33.9,38.3C419.4,824.5,412.7,824.8,405.3,825.8z"/>
	</g>
</g>
</svg>
