<?xml version="1.0" encoding="utf-8"?>
<!-- Generator: Adobe Illustrator 19.1.0, SVG Export Plug-In . SVG Version: 6.00 Build 0)  -->
<svg version="1.1" id="Layer_1" xmlns="http://www.w3.org/2000/svg" xmlns:xlink="http://www.w3.org/1999/xlink" x="0px" y="0px"
	 viewBox="-409 191 180 180" style="enable-background:new -409 191 180 180;" xml:space="preserve">
<style type="text/css">
	.st0{fill:#4ABEC0;}
	.st1{enable-background:new    ;}
	.st2{fill:#344860;}
</style>
<g id="XMLID_3_">
	<path id="XMLID_56_" class="st0" d="M-405.7,286.3c0-3.1,0-6.2,0-9.2c0.5-2.8,0.9-5.7,1.3-8.4c4.8-35.6,33.8-66,69.1-72.4
		c4.2-0.7,8.3-1.3,12.3-2c3.1,0,6.2,0,9.2,0c0.9,0.2,1.7,0.6,2.7,0.7c4.2,0.7,8.3,1,12.5,2c33.3,7.4,59.5,34.7,65.7,68.4
		c0.7,3.9,1.3,7.8,2,11.8c0,3.1,0,6.2,0,9.2c-0.5,2.8-0.9,5.4-1.3,8.2c-5.4,36.8-33,65.5-69.7,72.7c-3.9,0.8-7.8,1.3-11.8,1.8
		c-3.1,0-6.2,0-9.2,0c-0.9-0.2-1.7-0.6-2.7-0.7c-4.2-0.7-8.3-1-12.5-2c-33.2-7.4-59.6-34.8-65.7-68.4
		C-404.6,294.1-405.2,290.2-405.7,286.3z M-318.5,201.6c-43.9,0.1-80,36.1-79.8,80.3c0.2,44.1,35.5,79.7,80,79.7
		c44.6-0.1,79.7-35.8,79.8-79.8C-238.4,237.6-274.6,201.6-318.5,201.6z"/>
</g>
<g class="st1">
	<path class="st2" d="M-395,283.5v-6.8l23.7-9.5v6.6l-17.5,6.4l17.5,6.2v6.6L-395,283.5z"/>
	<path class="st2" d="M-357.8,297.7v-21.5l-5.9,5.9l-6-6.2l13.4-13.1h9.1v35H-357.8z"/>
	<path class="st2" d="M-342.2,297.7v-8.2c16-11.3,17.5-12.6,17.5-15.2c0-1.7-1.8-2.7-4-2.7c-3.7,0-6.6,1.4-9.2,3.6l-5.8-7
		c4-4.3,9.9-5.9,14.8-5.9c9.1,0,15,5,15,12.1c0,4.8-2.7,8.7-11.1,14.2h11.4v9.2H-342.2z"/>
	<path class="st2" d="M-277.2,297.7v-14.8c0-1.5-0.8-2.8-2.9-2.8c-2.1,0-3.3,1.3-3.9,2v15.6h-9.5v-14.8c0-1.5-0.7-2.8-2.9-2.8
		c-2,0-3.2,1.3-3.8,2v15.6h-9.5v-25.4h9.5v2.9c1.1-1.4,4.3-3.5,8.4-3.5c3.6,0,6.1,1.3,7.3,4.5c1.5-2.2,4.8-4.5,8.9-4.5
		c4.7,0,7.8,2.4,7.8,7.6v18.4H-277.2z"/>
	<path class="st2" d="M-264.6,294.4l3.8-6.4c2,1.6,6.3,3.2,9.1,3.2c1.9,0,2.5-0.5,2.5-1.1c0-2.4-14.4,0.7-14.4-9.9
		c0-4.6,4-8.6,11.3-8.6c4.3,0,8,1.3,11,3.3l-3.5,6.1c-1.6-1.3-4.5-2.6-7.5-2.6c-1.4,0-2.4,0.4-2.4,1.1c0,2.1,14.4-0.5,14.4,10
		c0,5-4.5,8.7-12,8.7C-256.8,298.3-261.9,296.7-264.6,294.4z"/>
</g>
</svg>
