<?xml version="1.0" encoding="utf-8"?>
<!-- Generator: Adobe Illustrator 19.1.0, SVG Export Plug-In . SVG Version: 6.00 Build 0)  -->
<svg version="1.1" id="Layer_1" xmlns="http://www.w3.org/2000/svg" xmlns:xlink="http://www.w3.org/1999/xlink" x="0px" y="0px"
	 viewBox="-409 191 180 180" style="enable-background:new -409 191 180 180;" xml:space="preserve">
<style type="text/css">
	.st0{fill:#4ABEC0;}
	.st1{enable-background:new    ;}
	.st2{fill:#344860;}
</style>
<g id="XMLID_3_">
	<path id="XMLID_56_" class="st0" d="M-403.9,286.4c0-3,0-6.1,0-9c0.5-2.7,0.9-5.5,1.2-8.2c4.7-34.8,33-64.4,67.4-70.7
		c4.1-0.7,8.1-1.2,12-1.9c3,0,6.1,0,9,0c0.9,0.2,1.7,0.6,2.6,0.7c4.1,0.7,8.1,1,12.2,1.9c32.5,7.2,58.1,33.9,64.2,66.8
		c0.7,3.8,1.2,7.7,1.9,11.5c0,3,0,6.1,0,9c-0.5,2.7-0.9,5.3-1.2,8c-5.3,35.9-32.2,63.9-68,70.9c-3.8,0.8-7.7,1.2-11.5,1.8
		c-3,0-6.1,0-9,0c-0.9-0.2-1.7-0.6-2.6-0.7c-4.1-0.7-8.1-1-12.2-1.9c-32.4-7.2-58.2-34-64.2-66.8
		C-402.8,294.1-403.4,290.3-403.9,286.4z M-318.8,203.8c-42.9,0.1-78.1,35.2-77.9,78.4c0.2,43,34.7,77.8,78.1,77.8
		c43.6-0.1,77.8-34.9,77.9-77.9C-240.6,238.9-275.9,203.8-318.8,203.8z"/>
</g>
<g class="st1">
	<path class="st2" d="M-393.9,285.5v-7.8l27-10.7v7.5l-19.9,7.2l19.9,7.1v7.5L-393.9,285.5z"/>
	<path class="st2" d="M-363.3,296.7l6.4-8.5c2.7,2.3,6.6,3.5,10.1,3.5c4,0,5.6-1.6,5.6-3.3c0-1.8-1.6-3.3-5.2-3.3
		c-3,0-5.4,0.8-7.4,2.7l-8.3-1.9v-24.2h30.4v10.5H-350v5.6c1.9-1.8,5-3,8.3-3c6.8,0,12.8,5.1,12.8,13c0,8.8-6.6,14.4-17.7,14.4
		C-353.7,302.3-359.4,300.2-363.3,296.7z"/>
	<path class="st2" d="M-288.1,301.6v-16.8c0-1.7-0.9-3.2-3.3-3.2s-3.7,1.4-4.4,2.3v17.8h-10.7v-16.8c0-1.7-0.8-3.2-3.3-3.2
		c-2.3,0-3.6,1.4-4.4,2.3v17.8h-10.7v-28.8h10.7v3.3c1.3-1.6,4.9-4,9.5-4c4.1,0,7,1.5,8.3,5.1c1.7-2.5,5.4-5.1,10.1-5.1
		c5.3,0,8.9,2.7,8.9,8.6v20.9H-288.1z"/>
	<path class="st2" d="M-273.8,297.9l4.3-7.2c2.3,1.8,7.2,3.6,10.4,3.6c2.2,0,2.9-0.5,2.9-1.3c0-2.7-16.3,0.8-16.3-11.3
		c0-5.2,4.5-9.7,12.9-9.7c4.8,0,9.1,1.5,12.5,3.7l-3.9,7c-1.8-1.5-5.1-3-8.5-3c-1.6,0-2.7,0.5-2.7,1.3c0,2.4,16.3-0.6,16.3,11.4
		c0,5.7-5.1,9.9-13.7,9.9C-265,302.3-270.7,300.5-273.8,297.9z"/>
</g>
</svg>
