<?xml version="1.0" encoding="utf-8"?>
<!-- Generator: Adobe Illustrator 19.1.0, SVG Export Plug-In . SVG Version: 6.00 Build 0)  -->
<svg version="1.1" id="Layer_1" xmlns="http://www.w3.org/2000/svg" xmlns:xlink="http://www.w3.org/1999/xlink" x="0px" y="0px"
	 viewBox="-409 191 180 180" style="enable-background:new -409 191 180 180;" xml:space="preserve">
<style type="text/css">
	.st0{fill:#4ABEC0;}
	.st1{enable-background:new    ;}
	.st2{fill:#344860;}
</style>
<g id="XMLID_3_">
	<path id="XMLID_56_" class="st0" d="M-405,285.5c0-3.1,0-6.1,0-9.1c0.5-2.7,0.9-5.6,1.3-8.3c4.8-35.1,33.3-65,68.1-71.4
		c4.1-0.7,8.2-1.3,12.2-1.9c3.1,0,6.1,0,9.1,0c0.9,0.2,1.7,0.6,2.6,0.7c4.1,0.7,8.2,1,12.3,1.9c32.9,7.3,58.7,34.2,64.8,67.4
		c0.7,3.9,1.3,7.7,1.9,11.6c0,3.1,0,6.1,0,9.1c-0.5,2.7-0.9,5.3-1.3,8.1c-5.3,36.3-32.5,64.6-68.7,71.6c-3.9,0.8-7.7,1.3-11.6,1.8
		c-3.1,0-6.1,0-9.1,0c-0.9-0.2-1.7-0.6-2.6-0.7c-4.1-0.7-8.2-1-12.3-1.9C-371,357.1-397,330-403.1,297
		C-403.9,293.2-404.4,289.3-405,285.5z M-319,202c-43.3,0.1-78.9,35.6-78.7,79.1c0.2,43.4,35,78.6,78.9,78.6
		c44-0.1,78.6-35.3,78.7-78.7C-240,237.5-275.7,202-319,202z"/>
</g>
<g class="st1">
	<path class="st2" d="M-366.4,306.2v-8h-23.9v-11.5l18.1-30.1h20.8v28.5h5.7v13.1h-5.7v8H-366.4z M-366.4,269.5l-9.4,15.6h9.4V269.5
		z"/>
	<path class="st2" d="M-329.7,306.2v-36.5H-343v-13.1h41.6v13.1h-13.2v36.5H-329.7z"/>
	<path class="st2" d="M-296.1,306.2v-49.6h30.1c10.3,0,14.7,6.8,14.7,12.6c0,6.2-3.6,10.3-8.5,11.4c5.4,0.8,9.4,5.7,9.4,12.1
		c0,6.9-4.7,13.5-14.6,13.5H-296.1z M-266.5,271.9c0-1.7-1.4-2.8-3-2.8h-11.6v5.8h11.6C-267.9,274.9-266.5,273.7-266.5,271.9z
		 M-265.5,290.6c0-1.8-1.3-3.2-3.5-3.2h-12v6.3h12C-266.9,293.7-265.5,292.4-265.5,290.6z"/>
</g>
</svg>
