<?xml version="1.0" encoding="utf-8"?>
<!-- Generator: Adobe Illustrator 19.1.0, SVG Export Plug-In . SVG Version: 6.00 Build 0)  -->
<svg version="1.1" id="Layer_1" xmlns="http://www.w3.org/2000/svg" xmlns:xlink="http://www.w3.org/1999/xlink" x="0px" y="0px"
	 viewBox="-409 191 180 180" style="enable-background:new -409 191 180 180;" xml:space="preserve">
<style type="text/css">
	.st0{fill:#4ABEC0;}
	.st1{enable-background:new    ;}
	.st2{fill:#344860;}
</style>
<g id="XMLID_3_">
	<path id="XMLID_56_" class="st0" d="M-405.3,286.3c0-3.1,0-6.2,0-9.2c0.5-2.7,0.9-5.6,1.3-8.4c4.8-35.3,33.5-65.4,68.5-71.8
		c4.1-0.7,8.2-1.3,12.2-1.9c3.1,0,6.2,0,9.2,0c0.9,0.2,1.7,0.6,2.6,0.7c4.1,0.7,8.2,1,12.4,1.9c33.1,7.3,59,34.4,65.2,67.8
		c0.7,3.9,1.3,7.8,1.9,11.7c0,3.1,0,6.2,0,9.2c-0.5,2.7-0.9,5.4-1.3,8.1c-5.4,36.5-32.7,65-69.1,72.1c-3.9,0.8-7.8,1.3-11.7,1.8
		c-3.1,0-6.2,0-9.2,0c-0.9-0.2-1.7-0.6-2.6-0.7c-4.1-0.7-8.2-1-12.4-1.9c-32.9-7.3-59.1-34.5-65.2-67.8
		C-404.2,294.1-404.7,290.2-405.3,286.3z M-318.8,202.3c-43.6,0.1-79.4,35.8-79.2,79.6c0.2,43.7,35.2,79,79.4,79
		c44.3-0.1,79-35.5,79.2-79.2C-239.3,238-275.2,202.3-318.8,202.3z"/>
</g>
<g class="st1">
	<path class="st2" d="M-374.1,301.4v-6.3h-19v-9.2l14.4-24h16.6v22.8h4.6v10.4h-4.6v6.3H-374.1z M-374.1,272.2l-7.5,12.4h7.5V272.2z
		"/>
	<path class="st2" d="M-355.4,281.7c0-10.7,5.7-20.4,17.5-20.4c11.8,0,17.5,9.7,17.5,20.4c0,10.7-5.7,20.4-17.5,20.4
		C-349.7,302.1-355.4,292.4-355.4,281.7z M-332.4,281.7c0-6.7-1.7-9.8-5.5-9.8s-5.5,3.1-5.5,9.8c0,6.7,1.7,9.9,5.5,9.9
		S-332.4,288.4-332.4,281.7z"/>
	<path class="st2" d="M-307.6,301.4v-29.1h-10.6v-10.4h33.1v10.4h-10.5v29.1H-307.6z"/>
	<path class="st2" d="M-280.8,301.4v-39.5h24c8.2,0,11.7,5.5,11.7,10.1c0,4.9-2.9,8.2-6.8,9.1c4.3,0.7,7.5,4.6,7.5,9.7
		c0,5.5-3.7,10.7-11.7,10.7H-280.8z M-257.2,274.1c0-1.4-1.1-2.3-2.4-2.3h-9.2v4.6h9.2C-258.4,276.5-257.2,275.5-257.2,274.1z
		 M-256.5,289c0-1.4-1.1-2.5-2.8-2.5h-9.6v5h9.6C-257.5,291.5-256.5,290.5-256.5,289z"/>
</g>
</svg>
