<?xml version="1.0" encoding="utf-8"?>
<!-- Generator: Adobe Illustrator 19.1.0, SVG Export Plug-In . SVG Version: 6.00 Build 0)  -->
<svg version="1.1" id="Layer_1" xmlns="http://www.w3.org/2000/svg" xmlns:xlink="http://www.w3.org/1999/xlink" x="0px" y="0px"
	 viewBox="-409 191 180 180" style="enable-background:new -409 191 180 180;" xml:space="preserve">
<style type="text/css">
	.st0{fill:#4ABEC0;}
	.st1{enable-background:new    ;}
	.st2{fill:#344860;}
</style>
<g id="XMLID_3_">
	<path id="XMLID_56_" class="st0" d="M-406,285.2c0-3.1,0-6.2,0-9.1c0.5-2.7,0.9-5.6,1.3-8.3c4.8-35.3,33.5-65.4,68.5-71.8
		c4.1-0.7,8.2-1.3,12.2-1.9c3.1,0,6.2,0,9.1,0c0.9,0.2,1.7,0.6,2.6,0.7c4.1,0.7,8.2,1,12.3,1.9c33,7.3,59,34.4,65.1,67.8
		c0.7,3.9,1.3,7.8,1.9,11.7c0,3.1,0,6.2,0,9.1c-0.5,2.7-0.9,5.4-1.3,8.1c-5.4,36.5-32.7,64.9-69,72c-3.9,0.8-7.8,1.3-11.7,1.8
		c-3.1,0-6.2,0-9.1,0c-0.9-0.2-1.7-0.6-2.6-0.7c-4.1-0.7-8.2-1-12.3-1.9c-32.9-7.3-59.1-34.5-65.1-67.8
		C-404.9,293-405.4,289.1-406,285.2z M-319.6,201.3c-43.5,0.1-79.3,35.8-79.1,79.5c0.2,43.7,35.2,79,79.3,79
		c44.2-0.1,79-35.4,79.1-79.1C-240.2,237-276.1,201.3-319.6,201.3z"/>
</g>
<g class="st1">
	<path class="st2" d="M-355.8,316.7v-46l-12.7,12.6l-12.8-13.4l28.6-28.1h19.5v74.9H-355.8z"/>
	<path class="st2" d="M-322.4,316.7v-17.6c34.2-24.1,37.5-26.9,37.5-32.6c0-3.6-3.8-5.8-8.6-5.8c-8,0-14,2.9-19.8,7.7l-12.3-15
		c8.6-9.2,21.2-12.7,31.7-12.7c19.4,0,32.1,10.8,32.1,25.8c0,10.2-5.8,18.6-23.7,30.4h24.4v19.8H-322.4z"/>
</g>
</svg>
