<?xml version="1.0" encoding="utf-8"?>
<!-- Generator: Adobe Illustrator 19.0.0, SVG Export Plug-In . SVG Version: 6.00 Build 0)  -->
<svg version="1.1" id="Layer_1" xmlns="http://www.w3.org/2000/svg" xmlns:xlink="http://www.w3.org/1999/xlink" x="0px" y="0px"
	 viewBox="1085 -85 200 200" style="enable-background:new 1085 -85 200 200;" xml:space="preserve">
<style type="text/css">
	.st0{fill:#F2F2F2;}
	.st1{fill:#C0BFBF;}
	.st2{fill:#E5E5E5;}
</style>
<g id="XMLID_14892_">
	<polygon id="XMLID_14899_" class="st0" points="1097.6,-31.3 1100,87.2 1213.2,112.4 1231.2,41.9 1214.2,-7.8 	"/>
	<polygon id="XMLID_14896_" class="st1" points="1214.2,-7.8 1213.2,112.4 1268.3,59.4 1269.3,-55.4 	"/>
	<polygon id="XMLID_14893_" class="st2" points="1097.6,-31.3 1214.2,-7.8 1269.3,-55.4 1160.4,-79.5 	"/>
</g>
<g id="XMLID_16118_">
	<path id="XMLID_16129_" d="M1166.5,56c1.8,0.4,3.4,0.9,5.1,1.3c1.2,0.3,2.5,0.7,3.8,0.9c0.8,0.2,1.1,0.6,1,1.2
		c-0.1,0.7-0.2,1.5-0.6,2.1c-0.9,1.3-1.8,2.6-3,3.6c-1.7,1.5-3.5,2.8-5.3,4.2c-0.3,0.2-0.5,0.7-0.5,1.1c0,1.9,0.1,3.8,0.2,5.8
		c1.8,0.5,3.5,0.9,5.2,1.3c1.2,0.3,2.4,0.7,3.7,0.9c0.8,0.2,1.1,0.6,1,1.2c-0.1,0.7-0.2,1.5-0.6,2.1c-0.9,1.3-1.8,2.6-3,3.6
		c-1.7,1.5-3.5,2.8-5.3,4.2c-0.3,0.2-0.4,0.7-0.5,1.1c-0.1,0.5,0,1,0,1.5c0,2-1.4,3.1-3.4,2.6c-6.4-1.6-12.9-3.2-19.3-4.8
		c-2-0.5-3.7-2.5-3.6-4.4c0.1-1.6-0.6-2.8-1.8-4.3c-2.3-2.7-4.5-5.6-6.5-8.5c-0.8-1.2-1.4-2.6-1.8-3.9c-0.4-1.3-0.1-1.6,1.2-1.3
		c2.6,0.6,5.1,1.3,7.7,1.9c0.2,0.1,0.5,0.1,0.8,0.2c-0.1-2.1-0.1-4.2-0.2-6.2c0-0.3-0.3-0.6-0.6-0.9c-2.4-3.1-5-6.1-7.3-9.3
		c-1-1.4-1.7-3-2.2-4.6c-0.5-1.3-0.1-1.6,1.2-1.3c2.5,0.6,5,1.2,7.4,1.8c0.3,0.1,0.7,0.2,1.1,0.3c-0.1-2.1,0-4.1-0.2-6.1
		c0-0.6-0.7-1.3-1.2-1.8c-2.2-2.8-4.5-5.5-6.5-8.4c-1-1.4-1.7-3-2.3-4.5c-0.5-1.4-0.2-1.7,1.2-1.3c2.2,0.5,4.3,1.1,6.5,1.6
		c0.3,0.1,0.8-0.1,1-0.3c6.3-9.3,21.4-5.5,28.3,7c0.2,0.3,0.7,0.7,1,0.8c2.3,0.6,4.5,1.1,6.8,1.7c1,0.2,1.3,0.6,1.1,1.5
		c-0.1,0.7-0.3,1.5-0.7,2c-1.3,1.6-2.7,3.2-4.2,4.6c-1.3,1.2-2.7,2.1-4,3.2c-0.3,0.2-0.4,0.7-0.4,1.1
		C1166.3,52.2,1166.4,54.1,1166.5,56z M1146.1,57.6c0.1,4,3.5,8.1,7.6,9.2c4.1,1.1,7.4-1.4,7.3-5.4c-0.1-4-3.5-8.1-7.6-9.1
		C1149.2,51.2,1146,53.6,1146.1,57.6z M1154.3,86.7c4.1,1,7.3-1.3,7.2-5.4c-0.1-4-3.6-8.2-7.6-9.2c-4.1-1-7.3,1.4-7.2,5.4
		C1146.8,81.6,1150.2,85.6,1154.3,86.7z M1145.5,37.7c0.1,4,3.5,8.1,7.6,9.1c4.1,1,7.4-1.4,7.2-5.4c-0.1-4-3.6-8.1-7.6-9.1
		C1148.6,31.3,1145.4,33.7,1145.5,37.7z"/>
	<path id="XMLID_16105_" d="M1182.9,16.9c-1.3,1-2.5,2.1-3.8,3.1c-7.5-10.1-16.8-16.8-27.9-19.4c-11.2-2.6-20-0.1-26.8,6.7
		c-0.7-0.8-1.3-1.7-2-2.5c-0.7-0.8-1.4-1.6-2.1-2.4C1134-12.9,1164.9-7.6,1182.9,16.9z"/>
	<path id="XMLID_16102_" d="M1176.8,21.9c-1.2,1-2.5,2.1-3.7,3.1c-10.4-15.4-31.4-21.1-41.9-9.9c-1.4-1.6-2.8-3.3-4.2-4.9
		C1139.5-2.9,1164.2,4,1176.8,21.9z"/>
	<path id="XMLID_16100_" d="M1137.8,23.3c-1.3-1.5-2.5-2.9-3.7-4.4c-0.2-0.2-0.3-0.4-0.4-0.6c7.9-9.3,26.5-6.2,37.1,8.6
		c-1.2,1-2.5,2.1-3.8,3.1c-4-5.5-8.9-9.3-14.9-10.7S1141.3,19.5,1137.8,23.3z"/>
</g>
</svg>
