<?xml version="1.0" encoding="utf-8"?>
<!-- Generator: Adobe Illustrator 19.1.0, SVG Export Plug-In . SVG Version: 6.00 Build 0)  -->
<svg version="1.1" id="Layer_1" xmlns="http://www.w3.org/2000/svg" xmlns:xlink="http://www.w3.org/1999/xlink" x="0px" y="0px"
	 viewBox="-391.5 218.5 125 125" style="enable-background:new -391.5 218.5 125 125;" xml:space="preserve">
<g id="XMLID_15876_">
	<path id="XMLID_15878_" d="M-362.8,263c-2.8-1.3-5.7-2.5-8.4-4c-3.1-1.7-4.8-4.2-4.5-8c0.3-2.7,0.2-5.4,0-8.2
		c-0.3-3.3,1.3-5.6,3.9-7.4c4.2-2.9,9-4.2,13.9-5c20.3-3.1,40.6-3.2,60.8,0.4c3.2,0.6,6.4,1.8,9.4,3.2c4,1.8,6.9,4.6,6.4,9.7
		c-0.4,3.4-0.1,7-0.1,10.7c1.6,0.6,3.4,1.1,5.2,2s3.6,1.8,5.1,3.1c1.8,1.4,2.7,3.4,2.6,5.9c-0.2,2.9-0.3,5.9,0,8.8
		c0.3,3.3-1.3,5.6-3.9,7.4c-4.3,3-9.3,4.1-14.3,5.1c-2.3,0.4-4.6,0.6-6.9,1.1c-0.5,0.1-1.3,1-1.4,1.6c-0.2,2.2,0.1,4.3-0.1,6.5
		c-0.2,1.7,0.6,1.8,1.9,2.2c4,1,7.9,1.9,11.9,3.2c1.8,0.6,3.4,1.8,4.9,2.9c1.9,1.5,2.9,3.5,2.8,6.1c-0.2,3-0.2,6.1,0,9
		c0.2,2.6-0.9,4.7-2.8,6.3c-3.8,3.2-8.3,4.5-12.9,5.4c-12.8,2.7-25.8,3-38.9,2.5c-8-0.4-16.1-1.2-24-2.5c-3.9-0.6-7.6-2.4-11.2-4.1
		c-3.1-1.5-4.9-4.1-4.6-7.9c0.3-2.8,0.1-5.7,0.1-8.5c-3.6-0.9-7.1-1.7-10.5-2.6c-1.7-0.4-3.2-1.1-4.7-1.8c-4.3-2-6.9-5-6.4-10.2
		c0.3-2.5,0-5.3,0-7.8c0-2.7,1.4-4.7,3.5-6.2c4.7-3.3,10.1-4.5,15.6-5.5c2-0.4,4-0.7,6-0.9c1.2-0.1,1.5-0.5,1.5-1.8
		C-362.8,270-362.8,266.5-362.8,263z M-331.5,251.2c3.6,0,7.1,0.1,10.7,0c9.1-0.4,18.3-1,27.1-3.5c2.1-0.6,4.3-1.5,6.1-2.6
		c2.6-1.7,2.6-4,0.2-5.8c-1.3-1-2.9-1.9-4.6-2.2c-6.1-1.2-12.2-2.6-18.4-3.3c-15.9-1.8-31.7-1.4-47.4,1.5c-3.9,0.7-7.7,2.1-11.3,3.9
		c-3.1,1.5-3,4.4,0,6.1c1.8,1.1,3.8,1.9,5.7,2.5C-353,250.6-342.3,250.9-331.5,251.2z M-300.6,289.1c-0.1-0.2-0.2-0.4-0.3-0.5
		c-0.4,0-0.7,0-1.1,0c-13.3,0.4-26.5,0.7-39.6-1.3c-6.6-1.1-13.2-2.2-18.6-6.5c-0.4-0.3-0.9-0.4-1.3-0.4c-5.8,1.1-11.6,2.1-17.3,3.4
		c-2.2,0.5-5.2,1.2-5.1,4c0,2.6,3.1,3.4,5.2,3.9c6.3,1.4,12.7,2.7,19.1,3.4c11.6,1.2,23.2,1.3,34.8,0c6.7-0.8,13.3-2.4,20-3.8
		C-303.2,291.1-301.9,289.9-300.6,289.1z M-357.2,264c-0.5,2,0.7,2.9,1.9,3.4c2.9,1.1,5.9,2.4,9,3c11.9,2.5,23.8,2.9,35.8,2.6
		c9.2-0.2,18.4-0.8,27.4-3.1c2.7-0.7,5.4-1.8,7.9-3.1c1.5-0.7,1.9-2.2,0.5-3.6c-2.7-2.9-10.3-4.3-14-2.7c-1.8,0.8-3.7,1.7-5.7,1.9
		c-6.9,1.1-13.9,2.6-20.9,2.8c-11.1,0.4-22.1-0.2-33.2-0.4C-351.3,264.9-354.2,264.4-357.2,264z M-361.4,311.5
		c1.4,0.6,2.6,1.5,4,1.8c6.6,1.3,13.2,3,19.8,3.6c14,1.3,28,1.2,42-0.9c4.9-0.8,9.7-2.4,14.5-3.9c1-0.3,2.3-1.8,2.2-2.5
		c-0.1-1.1-1.4-1.9-2.3-2.9c-0.2-0.2-0.5-0.4-0.8-0.4c-4.7-1.1-9.2-2.3-13.9-3.4c-0.4-0.1-1.1,0.2-1.4,0.4
		c-4.6,3.9-10.2,5.2-15.8,6.1c-11.2,2-22.5,2.3-33.8,2C-351.7,311.4-356.3,311.5-361.4,311.5z"/>
</g>
</svg>
