<?xml version="1.0" encoding="utf-8"?>
<!-- Generator: Adobe Illustrator 19.0.0, SVG Export Plug-In . SVG Version: 6.00 Build 0)  -->
<svg version="1.1" id="Layer_1" xmlns="http://www.w3.org/2000/svg" xmlns:xlink="http://www.w3.org/1999/xlink" x="0px" y="0px"
	 viewBox="70 0 30 30" style="enable-background:new 70 0 30 30;" xml:space="preserve">
<g id="XMLID_11071_">
	<path id="XMLID_11072_" d="M100,15.4c0,8-6.6,14.6-14.6,14.6c-8.1,0-14.7-6.6-14.7-14.6c0-8,6.6-14.7,14.6-14.7
		C93.4,0.7,100,7.3,100,15.4z M82.8,12.8c0.4-0.4,0.8-0.7,1.2-1.1c0.5-0.5,0.5-1.2,0-1.7c-0.6-0.7-1.3-1.3-2-2
		c-0.5-0.5-1.2-0.4-1.7,0C80,8.4,79.7,8.7,79.4,9c-0.8,0.9-1,1.9-0.8,3.1c0.2,0.9,0.5,1.7,1,2.4c1.3,1.9,2.9,3.5,4.6,4.9
		c1.3,1.1,2.6,1.9,4.2,2.4c1.2,0.4,2.2,0.2,3.1-0.7c0.2-0.2,0.5-0.5,0.7-0.7c0.6-0.6,0.7-1.3,0-1.9c-0.6-0.6-1.2-1.2-1.7-1.7
		c-0.6-0.6-1.3-0.6-1.9,0c-0.3,0.3-0.7,0.7-1,1.1C85.7,16.5,84.1,14.8,82.8,12.8z"/>
</g>
</svg>
