<?xml version="1.0" encoding="utf-8"?>
<!-- Generator: Adobe Illustrator 19.0.0, SVG Export Plug-In . SVG Version: 6.00 Build 0)  -->
<svg version="1.1" id="Layer_1" xmlns="http://www.w3.org/2000/svg" xmlns:xlink="http://www.w3.org/1999/xlink" x="0px" y="0px"
	 viewBox="0 0 100 100" style="enable-background:new 0 0 100 100;" xml:space="preserve">
<g id="XMLID_11071_">
	<path id="XMLID_11072_" d="M92.7,49.7c0,23.7-19.5,43.1-43.1,43.1c-23.8,0-43.2-19.3-43.2-43.1C6.4,26,25.9,6.4,49.5,6.5
		C73.4,6.6,92.8,25.9,92.7,49.7z M41.9,42.1c1.2-1.1,2.3-2.1,3.4-3.2c1.4-1.5,1.5-3.4,0.1-4.9c-1.9-2-3.8-3.9-5.8-5.8
		c-1.5-1.4-3.4-1.3-5,0.1c-0.9,0.8-1.7,1.7-2.5,2.6c-2.3,2.6-3,5.6-2.4,9c0.5,2.6,1.6,5,3,7.2c3.7,5.6,8.4,10.3,13.5,14.5
		c3.7,3.1,7.8,5.6,12.4,7c3.5,1.1,6.6,0.5,9.2-2.1c0.7-0.7,1.5-1.4,2.2-2.2c1.9-1.9,2-3.7,0.1-5.7c-1.7-1.7-3.4-3.4-5.1-5.1
		c-1.8-1.7-3.8-1.7-5.5,0.1c-1,1-2,2-3,3.1C50.7,52.9,45.9,48.1,41.9,42.1z"/>
</g>
</svg>
