<?xml version="1.0" encoding="utf-8"?>
<!-- Generator: Adobe Illustrator 19.0.0, SVG Export Plug-In . SVG Version: 6.00 Build 0)  -->
<svg version="1.1" id="Layer_1" xmlns="http://www.w3.org/2000/svg" xmlns:xlink="http://www.w3.org/1999/xlink" x="0px" y="0px"
	 viewBox="1060 -110 250 250" style="enable-background:new 1060 -110 250 250;" xml:space="preserve">
<style type="text/css">
	.st0{fill:#F2F2F2;}
	.st1{fill:#C0BFBF;}
	.st2{fill:#E5E5E5;}
	.st3{fill:none;stroke:#000000;stroke-width:2;stroke-miterlimit:10;}
</style>
<g id="XMLID_14892_">
	<polygon id="XMLID_14899_" class="st0" points="1080.3,-44.5 1084.9,107.2 1230.1,138 1252.2,47.6 1229.9,-15.9 	"/>
	<polygon id="XMLID_14896_" class="st1" points="1229.9,-15.9 1230.1,138 1299.9,69.4 1299.9,-77.5 	"/>
	<polygon id="XMLID_14893_" class="st2" points="1080.3,-44.5 1229.9,-15.9 1299.9,-77.5 1160.2,-106.9 	"/>
</g>
<path id="XMLID_15787_" d="M1153.3,21.9c1.9,0.4,3.8,0.8,5.7,1.1c1.2,0.2,1.7,0.8,1.7,2c-0.1,4-0.1,8.1-0.2,12.1
	c0,1.1-0.5,1.5-1.6,1.3c-4-0.8-8-1.6-12.1-2.3c-1.3-0.2-1.7-0.9-1.7-2.1c0.1-4,0.1-7.9,0.2-11.9c0-1.2,0.6-1.6,1.8-1.4
	C1149.2,21.2,1151.2,21.6,1153.3,21.9z M1151.3,30.8c0,0.8,0,1.5,0,2.3c-0.1,1,0.4,1.3,1.3,1.4c0.9,0.2,1-0.3,1-1c0-0.8,0-1.7,0-2.5
	c0-0.7,0.3-1.2,1.1-1.1c0.9,0.1,1.2,0.8,1.2,1.6c0,1,0,1.9,0,2.9c0,0.9,0.6,0.9,1.2,1c0.6,0.1,1,0.1,1-0.6c0-1.3,0.1-2.7,0-4
	c-0.1-1.5-1.6-2.6-3.1-2.5c-0.6,0-1,0.3-1.8-0.1c-1.3-0.7-2.1-0.4-1.9,1.2C1151.4,29.8,1151.3,30.3,1151.3,30.8z M1150.1,30.7
	c0-0.7,0-1.4,0-2.1c0-0.7-0.1-1.3-1-1.4c-0.9-0.2-1.2,0.2-1.2,1c0,1.5,0,2.9-0.1,4.4c0,0.9,0.5,1.1,1.2,1.3c0.8,0.2,1-0.1,1-0.9
	C1150,32.2,1150.1,31.5,1150.1,30.7z M1150.2,25.1c-0.1-0.7-0.5-1.2-1.3-1.2c-0.7-0.1-1.2,0.3-1.1,1.1c0.1,0.7,0.5,1.1,1.2,1.2
	C1149.8,26.3,1150.2,25.9,1150.2,25.1z"/>
<g id="XMLID_15804_">
	<path id="XMLID_15806_" d="M1179.5,59.9c0.1-4.2,0.1-8.5,0.2-12.7c0-1.1,0.5-1.9,1.5-2c0.3-0.1,0.7,0,1.1,0.1
		c3.8,0.7,7.5,1.4,11.3,2.2c1.6,0.3,2.5,1.3,2.5,3c-0.1,8.4-0.3,16.8-0.4,25.2c0,1.6-0.9,2.3-2.5,2c-3.8-0.7-7.6-1.4-11.4-2.2
		c-1.6-0.3-2.4-1.4-2.4-3C1179.3,68.3,1179.4,64.1,1179.5,59.9z M1180.9,58.5c-0.1,3.6-0.1,7.2-0.2,10.8c0,1.1,0.2,1.3,1.3,1.5
		c3.7,0.7,7.5,1.4,11.2,2.1c0.9,0.2,1.1,0,1.1-0.9c0.1-7.3,0.2-14.6,0.3-21.9c0-0.9-0.2-1.2-1.1-1.3c-3.7-0.7-7.4-1.4-11.1-2.1
		c-1.1-0.2-1.3-0.1-1.3,1C1181,51.3,1180.9,54.9,1180.9,58.5z M1187.4,75.7c0.8,0.1,1.4-0.4,1.4-1.1c0-0.8-0.6-1.5-1.4-1.7
		c-0.8-0.1-1.4,0.4-1.4,1.1C1186,74.7,1186.6,75.5,1187.4,75.7z"/>
</g>
<g id="XMLID_15781_">
	<path id="XMLID_15783_" class="st3" d="M1122.2,16.9c3.4-15.2,17.9-22.1,32.6-17.2c11.8,3.9,24.3,16.5,24.2,34.2
		c3.4-0.1,6.8-0.5,10.3-0.1c17.6,2,31.8,19.8,30,37.3c-1.6,15.5-14.8,24.8-30.3,21c-24.4-5.9-48.8-11.9-73.2-17.9
		c-14.8-3.6-26.3-18-26.7-33.2c-0.4-15.1,10.5-26.1,25.3-25.3C1117,15.9,1119.5,16.5,1122.2,16.9z M1172.5,38.5
		c0.6-1.6,1.2-2.7,1.3-3.9c0.7-9.3-2.5-17.6-10.2-24.3c-7.5-6.6-15.7-8.6-23.9-5.9c-6.9,2.3-11,7.3-12.6,14.8c4.8,2.7,8.9,6,12,10.4
		c-1.3,0.9-2.5,1.8-3.7,2.6c-0.2-0.3-0.5-0.6-0.9-1c-7.3-8.8-18.5-12.5-27.8-9.2c-8.9,3.2-13.9,12.8-12.1,23.3
		c2,11.7,10.8,21.3,22.6,24.1c23.8,5.8,47.5,11.6,71.3,17.4c0.9,0.2,1.9,0.4,2.9,0.6c10,1.3,17.4-2.3,21.3-11
		c3.9-8.8,2.3-18.2-4.7-26.9c-7-8.7-15.7-12.1-25.2-10.4c-2.6,0.5-5,1.8-7.6,2.7C1174.2,40.7,1173.2,39.4,1172.5,38.5z"/>
</g>
<path id="XMLID_15777_" d="M1167.4,46l-22-4.2c-2.7-0.5-4.9,1.2-4.9,3.9l-0.3,22.1c0,2.7,2.1,5.2,4.7,5.8l22,4.2
	c2.7,0.5,4.9-1.2,4.9-3.9l0.3-22.1C1172.2,49.1,1170.1,46.5,1167.4,46z M1165.3,55.5l-2.1-0.4c-1.6-0.3-2,0.4-2,1.6l0,2.5l3.9,0.8
	l-0.6,3.9l-3.4-0.7l-0.2,10.2l-4.1-0.8l0.2-10.2l-3.4-0.7l0.1-4l3.4,0.7l0-2.9c0.1-3.4,2.2-4.9,5.2-4.3c1.4,0.3,2.7,0.6,3.1,0.7
	L1165.3,55.5L1165.3,55.5z"/>
<g id="XMLID_15756_">
	<path id="XMLID_15757_" d="M1120.9,57c0,0.7,0,1.5,0,2.2c1.3,0.2,2.5,0.5,3.8,0.7c0,0.3,0,0.5,0,0.8c-3.1-0.6-6.2-1.2-9.3-1.8
		c0-0.3,0-0.5,0-0.8c1.3,0.2,2.5,0.5,3.8,0.7c0-0.7,0-1.5,0-2.2c-0.1,0-0.2,0-0.3-0.1c-3.8-0.7-7.7-1.5-11.5-2.2
		c-0.1,0-0.2,0-0.3-0.1c-0.1-0.1-0.2-0.2-0.2-0.3c0,0,0-0.1,0-0.2c0.1-5,0.2-10,0.2-15.1c0-0.4,0.1-0.5,0.5-0.4
		c8.5,1.6,17,3.3,25.5,4.9c0.4,0.1,0.5,0.2,0.5,0.6c-0.1,5-0.2,10-0.2,15c0,0.5-0.1,0.5-0.5,0.4c-3.8-0.7-7.7-1.5-11.5-2.2
		C1121.1,57,1121,57,1120.9,57z M1108.3,39.6c-0.1,4.6-0.1,9.3-0.2,13.8c8.3,1.6,15.7,3,24,4.6c0.1-4.6,0.1-9.3,0.2-13.8
		C1124,42.6,1116.5,41.2,1108.3,39.6z"/>
</g>
</svg>
