<?xml version="1.0" encoding="utf-8"?>
<!-- Generator: Adobe Illustrator 19.0.0, SVG Export Plug-In . SVG Version: 6.00 Build 0)  -->
<svg version="1.1" id="Layer_1" xmlns="http://www.w3.org/2000/svg" xmlns:xlink="http://www.w3.org/1999/xlink" x="0px" y="0px"
	 viewBox="1060 -110 250 250" style="enable-background:new 1060 -110 250 250;" xml:space="preserve">
<style type="text/css">
	.st0{fill:#F2F2F2;}
	.st1{fill:#C0BFBF;}
	.st2{fill:#E5E5E5;}
</style>
<g>
	<g id="XMLID_10335_">
		<polygon id="XMLID_14868_" class="st0" points="1293.9,-44.6 1290.1,105.8 1146.3,137 1123.9,47.5 1145.7,-15.5 		"/>
		<polygon id="XMLID_12513_" class="st1" points="1145.7,-15.5 1146.3,137 1076.7,69.4 1076.1,-76.3 		"/>
		<polygon id="XMLID_12508_" class="st2" points="1293.9,-44.6 1145.7,-15.5 1076.1,-76.3 1214.4,-106.1 		"/>
	</g>
	<g id="XMLID_15729_">
		<path id="XMLID_16261_" d="M1220.1,90.1c-19.7,3.8-39.4,7.6-59.1,11.4c-3.7,0.7-5.6-0.9-5.7-4.6c-0.4-27.4-0.8-54.7-1.2-82.1
			c-0.1-3.8,1.8-6.1,5.6-6.8c1.3-0.3,2.7-0.5,4-0.8c0.5-0.1,1.1-0.6,1.3-1c0.6-1,1-2.1,1.5-3.1c0.4-0.9,0.8-1.9,1.3-2.9
			c0.5-1.1,1.3-1.7,2.5-1.9c6.8-1.2,13.6-2.6,20.3-3.9c1.3-0.3,2.1,0,2.6,1c0.8,1.4,1.7,2.9,2.5,4.3c0.5,0.9,1.2,1.1,2.3,0.9
			c26.5-5.1,53-10.2,79.5-15.3c3.8-0.7,5.8,0.8,5.8,4.6c0.4,27.3,0.8,54.7,1.3,82c0.1,3.7-2.4,6.3-5.7,6.9
			C1259.5,82.5,1239.8,86.3,1220.1,90.1z M1219.6,83c17.8-3.4,35.6-6.8,53.5-10.3c0.7-0.1,1.4-0.3,2.1-0.6c2.4-1.1,3.8-3.4,3.7-6.2
			c-0.3-22.3-0.7-44.6-1-66.9c0-0.2,0-0.4,0-0.7c-0.2-2.3-1.6-3.9-3.7-4c-0.8,0-1.7,0.1-2.6,0.3c-33.4,6.4-66.9,12.8-100.3,19.3
			c-2.2,0.4-4.3,0.8-6.5,1.3c-3.4,0.7-5.3,3.1-5.3,6.5c0.3,22.5,0.6,44.9,1,67.4c0,0.6,0,1.1,0.2,1.6c0.7,2.2,2.6,3.2,5.3,2.7
			C1183.8,89.9,1201.7,86.4,1219.6,83z"/>
		<path id="XMLID_16142_" d="M1211,37c-7.1,1.4-14.2,2.7-21.4,4.1c0.1,7.3,0.2,14.4,0.3,21.5c-6,1.6-14.7-0.2-19.3-7.7
			c-4.5-7.4-3.2-17.9,3-25.7c6.5-8.2,16.4-11.9,25-9.5C1206.2,22,1211.8,29.7,1211,37z"/>
		<path id="XMLID_16141_" d="M1271.3,63.9c-33.8,6.5-67.5,13-101.3,19.5c0-1.3,0-2.6-0.1-3.9c33.7-6.5,67.5-13,101.3-19.5
			C1271.3,61.2,1271.3,62.5,1271.3,63.9z"/>
		<path id="XMLID_16139_" d="M1193.8,65.7c-0.1-7.2-0.2-14.3-0.3-21.5c7.1-1.4,14.2-2.7,21.3-4.1
			C1215.9,50.2,1206.2,63.8,1193.8,65.7z"/>
		<path id="XMLID_16138_" d="M1260.3,10.7c3.1-0.6,6-1.2,9.1-1.7c0.2,12.4,0.4,24.8,0.6,37.3c-3,0.6-6,1.2-9.1,1.7
			C1260.7,35.6,1260.5,23.2,1260.3,10.7z"/>
		<path id="XMLID_16136_" d="M1256,48.9c-3.1,0.6-6.1,1.2-9.2,1.8c-0.1-9.3-0.3-18.6-0.4-27.9c3-0.6,6.1-1.2,9.2-1.8
			C1255.7,30.2,1255.9,39.5,1256,48.9z"/>
		<path id="XMLID_16135_" d="M1232.5,34.8c3.2-0.6,6.2-1.2,9.3-1.8c0.1,6.2,0.2,12.4,0.3,18.7c-1.2,0.2-2.3,0.5-3.5,0.7
			c-1.6,0.3-3.3,0.6-4.9,1c-0.5,0.1-0.9,0.2-0.9-0.5C1232.7,46.8,1232.6,40.9,1232.5,34.8z"/>
	</g>
</g>
</svg>
