<?xml version="1.0" encoding="utf-8"?>
<!-- Generator: Adobe Illustrator 19.0.0, SVG Export Plug-In . SVG Version: 6.00 Build 0)  -->
<svg version="1.1" id="Layer_1" xmlns="http://www.w3.org/2000/svg" xmlns:xlink="http://www.w3.org/1999/xlink" x="0px" y="0px"
	 viewBox="1060 -110 250 250" style="enable-background:new 1060 -110 250 250;" xml:space="preserve">
<style type="text/css">
	.st0{fill:#F2F2F2;}
	.st1{fill:#C0BFBF;}
	.st2{fill:#E5E5E5;}
</style>
<g id="XMLID_1_">
	<g id="XMLID_14892_">
		<polygon id="XMLID_14899_" class="st0" points="1075.6,-45.9 1077.8,105.3 1222.1,138.2 1245.5,48.4 1224.3,-15.2 		"/>
		<polygon id="XMLID_14896_" class="st1" points="1224.3,-15.2 1222.1,138.2 1292.8,70.9 1294.9,-75.5 		"/>
		<polygon id="XMLID_14893_" class="st2" points="1075.6,-45.9 1224.3,-15.2 1294.9,-75.5 1156.1,-107 		"/>
	</g>
	<g id="XMLID_15730_">
		<path id="XMLID_16218_" d="M1145.2,101.2c-32.4-7.8-57.9-40.7-57-73.5c0.9-32.7,28-52.9,60.5-45c32.4,7.9,58,40.8,57.1,73.2
			C1204.8,88.9,1177.8,109.1,1145.2,101.2z M1145.7,86.4c0.2-5.1,0.3-10,0.5-15.1c-1.8-0.4-3.6-0.9-5.4-1.3c0-0.5,0-0.9,0-1.4
			c1.8,0.4,3.6,0.9,5.3,1.3c0.2-6.5,0.4-12.8,0.6-19.3c-1.8-0.4-3.6-0.9-5.3-1.3c0-0.5,0-0.9,0-1.4c1.8,0.4,3.6,0.9,5.3,1.3
			c0.1-2.8,0.2-5.5,0.3-8.2c-3.2-0.8-6.3-1.5-9.5-2.3c-0.1,1.8-0.1,3.6-0.2,5.4c-0.5-0.1-0.9-0.2-1.3-0.3c0.1-1.8,0.1-3.6,0.2-5.4
			c-6.4-1.6-12.7-3.1-19.1-4.7c-0.1,1.8-0.1,3.6-0.2,5.3c-0.5-0.1-0.9-0.2-1.3-0.3c0.1-1.8,0.1-3.6,0.2-5.3c-5.1-1.2-10-2.4-15-3.7
			c0,0.9-0.1,1.7-0.1,2.7c-2.5-0.6-4.8-1.2-7.2-1.7c-0.8,26.9,21.5,56.8,49.3,64.3c0.1-3.1,0.2-6.2,0.3-9.4
			C1144,85.9,1144.8,86.2,1145.7,86.4z M1148.2,96.5c29,5.9,51.5-13.8,52.2-39.6c-2.8-0.7-5.5-1.3-8.4-2c0-1,0.1-1.8,0.1-2.7
			c-4.2-1-8.2-2-12.3-3c0,1.4-0.1,2.7-0.1,3.9c-0.5-0.1-0.9-0.2-1.4-0.3c0-1.4,0.1-2.7,0.1-4c-6.4-1.6-12.7-3.1-19.1-4.6
			c0,1.4-0.1,2.7-0.1,4c-0.5-0.1-0.9-0.2-1.3-0.3c0-1.4,0.1-2.7,0.1-4c-3.2-0.8-6.4-1.5-9.5-2.3c-0.1,2.8-0.2,5.5-0.3,8.2
			c1.4,0.3,2.6,0.6,3.9,1c0,0.5,0,0.9,0,1.4c-1.4-0.3-2.7-0.7-3.9-1c-0.2,6.4-0.4,12.7-0.6,19.2c1.4,0.3,2.7,0.7,4,1
			c0,0.5,0,0.9,0,1.4c-1.3-0.3-2.6-0.6-4-1c-0.2,5.1-0.3,10.1-0.5,15.1c0.4,0.1,0.8,0.3,1.3,0.4
			C1148.3,90.2,1148.3,93.3,1148.2,96.5z M1142.7,8.2c0-0.5,0-0.9,0-1.4c1.8,0.4,3.6,0.9,5.3,1.3c0.1-3.7,0.2-7.3,0.3-11
			c-0.9-0.2-1.7-0.4-2.6-0.6c0.1-2.8,0.2-5.5,0.2-8.1c-24.1-5.5-49.4,8.4-52.4,36.9c2.4,0.6,4.7,1.2,7.1,1.7c0,0.5,0,0.9,0.1,1.3
			c5,1.2,10,2.4,15,3.7c0-1.4,0.1-2.7,0.1-4c0.5,0.1,0.9,0.2,1.4,0.3c0,1.4-0.1,2.7-0.1,4c6.4,1.6,12.7,3.1,19.1,4.6
			c0-1.4,0.1-2.7,0.1-4c0.5,0.1,0.9,0.2,1.3,0.3c0,1.4-0.1,2.7-0.1,4c3.2,0.8,6.4,1.5,9.5,2.3c0.1-3.2,0.2-6.4,0.3-9.6
			c-1.8-0.4-3.5-0.9-5.3-1.3c0-0.5,0-0.9,0-1.4c1.8,0.4,3.6,0.9,5.3,1.3c0.2-6.4,0.4-12.7,0.6-19.2
			C1146.3,9.1,1144.5,8.6,1142.7,8.2z M1149.9-2.5c-0.1,3.7-0.2,7.3-0.3,11c1.4,0.3,2.6,0.6,3.9,1c0,0.5,0,0.9,0,1.4
			c-1.4-0.3-2.7-0.7-4-1c-0.2,6.4-0.4,12.7-0.6,19.2c1.4,0.3,2.7,0.6,4,1c0,0.5-0.1,0.9-0.1,1.4c-1.4-0.3-2.7-0.6-4-1
			c-0.1,3.2-0.2,6.4-0.3,9.5c3.2,0.8,6.3,1.5,9.5,2.3c0.1-1.8,0.1-3.6,0.2-5.3c0.5,0.1,0.9,0.2,1.4,0.3c-0.1,1.8-0.1,3.6-0.2,5.4
			c6.4,1.6,12.7,3.1,19.1,4.6c0.1-1.8,0.1-3.6,0.2-5.4c0.5,0.1,0.9,0.3,1.4,0.4c-0.1,1.8-0.1,3.6-0.2,5.4c4.1,1,8.1,2,12.2,3
			c0.1-0.4,0.1-0.8,0.2-1.3c2.8,0.7,5.4,1.3,8.1,2c-0.5-27-23.1-54.7-49-61.7c-0.1,2.7-0.2,5.4-0.2,8.1
			C1150.7-2.3,1150.4-2.4,1149.9-2.5z"/>
	</g>
</g>
</svg>
