<?xml version="1.0" encoding="utf-8"?>
<!-- Generator: Adobe Illustrator 19.0.0, SVG Export Plug-In . SVG Version: 6.00 Build 0)  -->
<svg version="1.1" id="Layer_1" xmlns="http://www.w3.org/2000/svg" xmlns:xlink="http://www.w3.org/1999/xlink" x="0px" y="0px"
	 viewBox="1060 -110 250 250" style="enable-background:new 1060 -110 250 250;" xml:space="preserve">
<style type="text/css">
	.st0{fill:#F2F2F2;}
	.st1{fill:#C0BFBF;}
	.st2{fill:#E5E5E5;}
</style>
<g id="XMLID_10335_">
	<polygon id="XMLID_14868_" class="st0" points="1296.4,-46.2 1294.3,105.5 1149.6,138.6 1126,48.6 1147.3,-15.2 	"/>
	<polygon id="XMLID_12513_" class="st1" points="1147.3,-15.2 1149.6,138.6 1078.7,71.2 1076.4,-75.7 	"/>
	<polygon id="XMLID_12508_" class="st2" points="1296.4,-46.2 1147.3,-15.2 1076.4,-75.7 1215.6,-107.3 	"/>
</g>
<g id="XMLID_15691_">
	<g id="XMLID_14906_">
		<path id="XMLID_14907_" d="M1227.4,85.2c0,3.7,0.1,7.2,0.2,10.9c6.3-1.5,12.5-3.1,18.9-4.6c0,1.4,0,2.7,0,4.1
			c-15.4,3.8-30.7,7.5-46.2,11.3c0-1.3,0-2.6-0.1-4c6.2-1.5,12.5-3.1,18.9-4.6c0-3.7-0.1-7.2-0.1-11c-0.5,0.1-1.1,0.3-1.7,0.4
			c-18.9,4.6-37.8,9.3-56.7,13.9c-0.6,0.1-1.2,0.4-1.6,0.3c-0.5-0.2-0.9-0.7-1.2-1.1c-0.1-0.2,0-0.6,0-0.9
			c-0.3-24.8-0.7-49.6-1-74.4c0-2.2,0.2-2.5,2.4-3c42.1-10.3,84.1-20.6,126.1-30.9c2.2-0.5,2.4-0.3,2.5,1.8
			c0.3,24.8,0.7,49.5,1,74.3c0,2.4-0.2,2.7-2.5,3.2c-18.9,4.6-37.9,9.3-56.8,13.9C1228.7,84.9,1228.1,85,1227.4,85.2z M1159.1,24.2
			c0.3,22.7,0.7,49.5,1,72.3c40.9-10,85.2-20.9,126.1-30.9c-0.3-22.7-0.7-49.5-1-72.3C1244.3,3.3,1200,14.2,1159.1,24.2z"/>
	</g>
	<g id="XMLID_15700_">
		<path id="XMLID_15663_" d="M1169.9,83.8c-1.7-0.7-2.9-1.7-3.8-3.2c0-0.1,0-0.3,0-0.4c1.3-1.8,2.6-3.7,4-5.4
			c1.7-2.2,3.9-3.6,6.3-4.9c0.9-0.4,1.8-0.8,2.6-1c2.4-0.6,3.7,1,2.8,3.5c-0.5,1.3-1.3,2.5-2.1,3.7c-1.2,1.7-2.7,3-4.5,3.8
			c-0.8,0.4-1.6,0.8-2.4,1.2C1171.6,81.7,1170.7,82.6,1169.9,83.8z"/>
		<path id="XMLID_14910_" d="M1178.8,84.7c1.7-0.6,2.9-1.7,4-3.1c0.9-1.1,1.7-2.4,3-3.2c2.1-1.5,4.4-2.4,6.8-2.5
			c2-0.1,2.9,1.6,2,3.7c-0.6,1.3-1.5,2.4-2.5,3.5c-2.2,2.5-4.8,4.3-7.8,5.3c-1.2,0.4-2.4,1-3.6,1.5c-0.2,0.1-0.4,0-0.5,0
			C1179.4,88.8,1178.6,86.1,1178.8,84.7z"/>
		<path id="XMLID_14908_" d="M1179.9,90.4c-1.7,1.1-3.4,2.3-5.4,2.4c-1.4,0.1-2.1-0.7-2.5-2c-0.3-1.2,0.1-2.2,1.1-3.2
			c1.5-1.4,3.2-2.1,5-2.8C1178.2,86.9,1178.7,88.8,1179.9,90.4z"/>
		<path id="XMLID_14905_" d="M1169.7,84.3c-1.2,1.7-2.4,3.3-4.1,4.4c-1.4,0.9-2.6,0.7-3.5-0.4c-0.8-1-0.8-2.1-0.1-3.4
			c0.7-1.3,1.7-2.4,2.7-3.5c0.2-0.2,0.5-0.5,0.8-0.7C1166.4,82.5,1167.8,83.6,1169.7,84.3z"/>
	</g>
	<g id="XMLID_15706_">
		<path id="XMLID_15712_" d="M1200.9,65.3c-1.7-0.7-2.9-1.7-3.8-3.2c0-0.1,0-0.3,0-0.4c1.3-1.8,2.6-3.7,4-5.4
			c1.7-2.2,3.9-3.6,6.3-4.9c0.9-0.4,1.8-0.8,2.6-1c2.4-0.6,3.7,1,2.8,3.5c-0.5,1.3-1.3,2.5-2.1,3.7c-1.2,1.7-2.7,3-4.5,3.8
			c-0.8,0.4-1.6,0.8-2.4,1.2C1202.6,63.3,1201.7,64.2,1200.9,65.3z"/>
		<path id="XMLID_15711_" d="M1209.7,66.2c1.7-0.6,2.9-1.7,4-3.1c0.9-1.1,1.7-2.4,3-3.2c2.1-1.5,4.4-2.4,6.8-2.5
			c2-0.1,2.9,1.6,2,3.7c-0.6,1.3-1.5,2.4-2.5,3.5c-2.2,2.5-4.8,4.3-7.8,5.3c-1.2,0.4-2.4,1-3.6,1.5c-0.2,0.1-0.4,0-0.5,0
			C1210.4,70.3,1209.6,67.7,1209.7,66.2z"/>
		<path id="XMLID_15709_" d="M1210.9,71.9c-1.7,1.1-3.4,2.3-5.4,2.4c-1.4,0.1-2.1-0.7-2.5-2c-0.3-1.2,0.1-2.2,1.1-3.2
			c1.5-1.4,3.2-2.1,5-2.8C1209.2,68.5,1209.7,70.4,1210.9,71.9z"/>
		<path id="XMLID_15708_" d="M1200.6,65.9c-1.2,1.7-2.4,3.3-4.1,4.4c-1.4,0.9-2.6,0.7-3.5-0.4c-0.8-1-0.8-2.1-0.1-3.4
			c0.7-1.3,1.7-2.4,2.7-3.5c0.2-0.2,0.5-0.5,0.8-0.7C1197.4,64.1,1198.8,65.2,1200.6,65.9z"/>
	</g>
	<g id="XMLID_15714_">
		<path id="XMLID_15720_" d="M1230,43.3c-1.7-0.7-2.9-1.7-3.8-3.2c0-0.1,0-0.3,0-0.4c1.3-1.8,2.6-3.7,4-5.4c1.7-2.2,3.9-3.6,6.3-4.9
			c0.9-0.4,1.8-0.8,2.6-1c2.4-0.6,3.7,1,2.8,3.5c-0.5,1.3-1.3,2.5-2.1,3.7c-1.2,1.7-2.7,3-4.5,3.8c-0.8,0.4-1.6,0.8-2.4,1.2
			C1231.8,41.2,1230.8,42.1,1230,43.3z"/>
		<path id="XMLID_15718_" d="M1238.9,44.2c1.7-0.6,2.9-1.7,4-3.1c0.9-1.1,1.7-2.4,3-3.2c2.1-1.5,4.4-2.4,6.8-2.5
			c2-0.1,2.9,1.6,2,3.7c-0.6,1.3-1.5,2.4-2.5,3.5c-2.2,2.5-4.8,4.3-7.8,5.3c-1.2,0.4-2.4,1-3.6,1.5c-0.2,0.1-0.4,0-0.5,0
			C1239.5,48.3,1238.8,45.6,1238.9,44.2z"/>
		<path id="XMLID_15717_" d="M1240.1,49.9c-1.7,1.1-3.4,2.3-5.4,2.4c-1.4,0.1-2.1-0.7-2.5-2c-0.3-1.2,0.1-2.2,1.1-3.2
			c1.5-1.4,3.2-2.1,5-2.8C1238.4,46.4,1238.8,48.3,1240.1,49.9z"/>
		<path id="XMLID_15715_" d="M1229.8,43.8c-1.2,1.7-2.4,3.3-4.1,4.4c-1.4,0.9-2.6,0.7-3.5-0.4c-0.8-1-0.8-2.1-0.1-3.4
			c0.7-1.3,1.7-2.4,2.7-3.5c0.2-0.2,0.5-0.5,0.8-0.7C1226.5,42,1227.9,43.1,1229.8,43.8z"/>
	</g>
	<g id="XMLID_15721_">
		<path id="XMLID_15727_" d="M1258.4,16.9c-1.7-0.7-2.9-1.7-3.8-3.2c0-0.1,0-0.3,0-0.4c1.3-1.8,2.6-3.7,4-5.4
			c1.7-2.2,3.9-3.6,6.3-4.9c0.9-0.4,1.8-0.8,2.6-1c2.4-0.6,3.7,1,2.8,3.5c-0.5,1.3-1.3,2.5-2.1,3.7c-1.2,1.7-2.7,3-4.5,3.8
			c-0.8,0.4-1.6,0.8-2.4,1.2C1260.1,14.8,1259.2,15.7,1258.4,16.9z"/>
		<path id="XMLID_15726_" d="M1267.2,17.8c1.7-0.6,2.9-1.7,4-3.1c0.9-1.1,1.7-2.4,3-3.2c2.1-1.5,4.4-2.4,6.8-2.5
			c2-0.1,2.9,1.6,2,3.7c-0.6,1.3-1.5,2.4-2.5,3.5c-2.2,2.5-4.8,4.3-7.8,5.3c-1.2,0.4-2.4,1-3.6,1.5c-0.2,0.1-0.4,0-0.5,0
			C1267.9,21.9,1267.1,19.2,1267.2,17.8z"/>
		<path id="XMLID_15724_" d="M1268.4,23.5c-1.7,1.1-3.4,2.3-5.4,2.4c-1.4,0.1-2.1-0.7-2.5-2c-0.3-1.2,0.1-2.2,1.1-3.2
			c1.5-1.4,3.2-2.1,5-2.8C1266.7,20,1267.2,21.9,1268.4,23.5z"/>
		<path id="XMLID_15723_" d="M1258.1,17.4c-1.2,1.7-2.4,3.3-4.1,4.4c-1.4,0.9-2.6,0.7-3.5-0.4c-0.8-1-0.8-2.1-0.1-3.4
			c0.7-1.3,1.7-2.4,2.7-3.5c0.2-0.2,0.5-0.5,0.8-0.7C1254.8,15.6,1256.3,16.7,1258.1,17.4z"/>
	</g>
</g>
</svg>
