<?xml version="1.0" encoding="utf-8"?>
<!-- Generator: Adobe Illustrator 19.0.0, SVG Export Plug-In . SVG Version: 6.00 Build 0)  -->
<svg version="1.1" id="Layer_1" xmlns="http://www.w3.org/2000/svg" xmlns:xlink="http://www.w3.org/1999/xlink" x="0px" y="0px"
	 viewBox="1060 -110 250 250" style="enable-background:new 1060 -110 250 250;" xml:space="preserve">
<style type="text/css">
	.st0{fill:#F2F2F2;}
	.st1{fill:#C0BFBF;}
	.st2{fill:#E5E5E5;}
</style>
<g>
	<g id="XMLID_14892_">
		<polygon id="XMLID_14899_" class="st0" points="1076.7,-46.2 1079.3,105.4 1224,138.1 1247.3,48 1225.8,-15.7 		"/>
		<polygon id="XMLID_14896_" class="st1" points="1225.8,-15.7 1224,138.1 1294.7,70.6 1296.5,-76.3 		"/>
		<polygon id="XMLID_14893_" class="st2" points="1076.7,-46.2 1225.8,-15.7 1296.5,-76.3 1157.3,-107.5 		"/>
	</g>
	<path id="XMLID_15736_" d="M1205.8,35.4c-0.7-1.6,0-3.2-1.7-5c-1.9,1-3.9,2-5.9,3c-3.9,2.5-7.8,5-11.7,7.5
		c-2,1.3-10.5-5.5-12.9-7.1c-2.5-2.3-2.5-5-3.4-7.6c-2.6-6.9-1-10.6,4-12.8c4.7-2.1,8.7-5.4,13-8.1c-3.9-3-7.9-5.1-12.1-6
		c-17.3-3.4-27.4,7.1-24.4,25.8c0.4,2.3-0.1,3.3-1.5,4.2c-6.5,3.8-12.9,7.7-19.2,11.7c-1.7,1.1-3.1,0.9-5.4-0.6
		c-14.7-9.2-29.5-6.1-33.8,7.3c-1.5,4.8-2.8,9.8,0.7,16.3c5.6-3.5,11.3-7,16.9-10.5c1.2-0.8,2.3-0.7,4,0.5
		c2.4,1.7,10.9,6.1,11.7,9.1c0.1,0.6,4.3,13.1,1.4,14.4c-0.5,0.3-0.9,0.6-1.4,0.9c-0.6,0.4-1.3,0.9-2,1.3c-2.4,1.5-4.8,3-7.2,4.4
		c-0.1,0-3.1,1.7-3.1,1.7c-0.6,0.5-1.2,1.1-1.9,1.4c-2.5,1-0.9,2.4,0.9,3.8c5,2.1,10.1,4.5,15,4.6c7.6,0.2,12.8-3.1,16.8-8.4
		c2.4-5.6,3.7-11.6,1.8-19.1c-0.5-2,0.6-2.3,1.6-2.9c6.7-4.1,13.5-8,20.1-12.2c2-1.3,5.7,1.9,6.1,1.8c7.2,2.9,14.2,6.2,20.7,3.6
		C1202.2,54.7,1206.6,47.4,1205.8,35.4L1205.8,35.4z"/>
</g>
</svg>
