<?xml version="1.0" encoding="utf-8"?>
<!-- Generator: Adobe Illustrator 19.0.0, SVG Export Plug-In . SVG Version: 6.00 Build 0)  -->
<svg version="1.1" id="Layer_1" xmlns="http://www.w3.org/2000/svg" xmlns:xlink="http://www.w3.org/1999/xlink" x="0px" y="0px"
	 viewBox="1110 -60 150 150" style="enable-background:new 1110 -60 150 150;" xml:space="preserve">
<style type="text/css">
	.st0{fill:#4DBEC0;}
</style>
<g id="XMLID_1_">
	<path id="XMLID_11150_" class="st0" d="M1200,55.4c-1.1-0.2-2.2-0.3-3.3-0.5c-0.4-0.1-0.9-0.4-1-0.6c-0.5-3.2-0.9-6.3-1.3-9.5h8
		v-9.2h-79.5v-60h118.6V3.5h4.6c0-10.2,0-20.4,0-30.6c0-2.5-0.9-3.4-3.4-3.4c-40.3,0-80.5,0-120.8,0c-2.6,0-3.5,1-3.5,3.5
		c0,22.3,0,44.6,0,66.9c0,0.3,0,0.6,0,0.9c0.1,2.3,1.7,3.9,4,3.9c14.7,0,29.4,0,44.1,0h1.6c-0.5,3.5-0.9,6.9-1.4,10.2
		c-1.5,0.3-2.9,0.5-4.2,0.8c-0.3,0.1-0.5,0.4-0.7,0.6c0.3,0.1,0.5,0.3,0.8,0.4c0.2,0.1,0.4,0,0.6,0h36.1c0.2,0,0.5,0.1,0.7,0
		c0.3-0.1,0.6-0.4,0.8-0.6C1200.5,55.9,1200.3,55.5,1200,55.4z"/>
	<g id="XMLID_9163_">
		<path id="XMLID_11141_" class="st0" d="M1223.4,52.2v-1.4c0-8.8,0-17.5,0-26.3c0-2.3,0-2.3-2.3-2.4c-0.2,0-9.8,0-12.1,0
			c-4.2,0-3.6-0.4-3.6,3.6c0,3.2,0,6.5,0,9.9v9.2c0,3.2,0,6.3,0,9.4c0,2,0.5,2.5,2.5,2.5c5.7,0,9.8,0,15.5,0L1223.4,52.2z
			 M1215.6,24.1c0,0.1,0,0.2,0,0.3h-2.8c0-0.1,0-0.2,0-0.3H1215.6z M1214.3,55c-0.9,0-1.7-0.7-1.6-1.6c0.1-0.9,0.6-1.5,1.5-1.5
			s1.5,0.6,1.6,1.4C1216,54.2,1215.2,55,1214.3,55z M1221.9,50.6H1207V28.2h14.9V50.6z"/>
		<path id="XMLID_11153_" class="st0" d="M1253.5,9.3c0-1.6-0.6-2.2-2.2-2.2c-1.7,0-3.4,0-5.3,0h-5.9c-7.2,0-14.4,0-21.7,0
			c-1.8,0-2.4,0.6-2.4,2.5c0,3.2,0,6.4,0,9.8h4.6v-6.1h29.9v38.9h-25v4.5c8.5,0,17.1,0,25.6,0c2.1,0,2.5-0.4,2.5-2.5
			c0-11.6,0-23.1,0-34.7C1253.5,16.1,1253.5,12.7,1253.5,9.3z"/>
	</g>
</g>
</svg>
