<?xml version="1.0" encoding="utf-8"?>
<!-- Generator: Adobe Illustrator 19.1.0, SVG Export Plug-In . SVG Version: 6.00 Build 0)  -->
<svg version="1.1" id="Layer_1" xmlns="http://www.w3.org/2000/svg" xmlns:xlink="http://www.w3.org/1999/xlink" x="0px" y="0px"
	 viewBox="-391.5 218.5 125 125" style="enable-background:new -391.5 218.5 125 125;" xml:space="preserve">
<style type="text/css">
	.st0{fill:#4CBEC0;}
</style>
<g id="XMLID_15772_">
	<g id="XMLID_9164_">
		<path id="XMLID_11058_" class="st0" d="M-293.1,221.5c0.3,0.2,0.7,0.3,1,0.5c1.9,0.9,3,2.5,3.1,4.6c0,0.3,0,0.5,0,0.7
			c0,35.9,0,71.6,0,107.5c0,3-1.6,5.1-4.2,5.7c-0.4,0.1-0.8,0.1-1.3,0.1c-23,0-46.1,0-69,0c-3.2,0-5.6-2.3-5.6-5.6
			c0-35.9,0-71.9,0-107.8c0-3,1.6-4.7,4.3-5.7C-340.9,221.5-317,221.5-293.1,221.5z M-365.1,329c0.4,0,0.8,0.1,1.1,0.1
			c23.5,0,46.8,0,70.3,0c0.9,0,1.2-0.3,1.2-1.3c0-31.2,0-62.3,0-93.6c0-0.9-0.3-1.2-1.2-1.2c-23.5,0-46.8,0-70.3,0
			c-0.3,0-0.7,0-1.1,0C-365.1,265-365.1,297-365.1,329z M-329,338.1c1.8,0,3.1-1.4,3.1-3.1c0-1.7-1.4-3-3.1-3
			c-1.8,0-3.2,1.4-3.2,3.1C-332.2,336.6-330.7,338.1-329,338.1z M-329,228.9c0.4-0.6,0.8-0.9,0.8-1.3c0-0.3-0.5-0.6-0.8-0.8
			c-0.3,0.3-0.8,0.5-0.8,0.8C-329.9,228-329.5,228.3-329,228.9z"/>
	</g>
	<path id="XMLID_11118_" class="st0" d="M-328.7,274.4c0-5.6,0-11.1,0-16.7c0-1.5,0-1.5,1.5-1.5c10.2,0,20.4,0,30.6,0
		c1.4,0,1.5,0.1,1.5,1.6c0,11.1,0,22.2,0,33.3c0,1.5-0.2,1.7-1.6,1.7c-10.2,0-20.3,0-30.5,0c-1.4,0-1.5-0.1-1.5-1.7
		C-328.7,285.5-328.7,279.9-328.7,274.4z M-327.3,291.1c10.3,0,20.4,0,30.6,0c0-11.1,0-22.3,0-33.3c-10.3,0-20.4,0-30.6,0
		C-327.3,268.8-327.3,279.9-327.3,291.1z"/>
	<g id="XMLID_15768_">
		<path id="XMLID_11113_" class="st0" d="M-328.4,302.6c9.2,0,18.5,0,27.7,0c0.6,0,1.3-0.1,1.9,0.1s1.3,0.9,1.2,1.2
			c-0.2,0.6-0.7,1.2-1.3,1.4c-0.4,0.3-1.1,0.1-1.7,0.1c-18.6,0-37.4,0-56,0c-0.3,0-0.6,0.1-0.8,0c-0.8-0.4-1.4-1-2.1-1.5
			c0.7-0.4,1.4-1.2,2.1-1.2c6.3-0.1,12.7-0.1,19.1-0.1C-334.9,302.6-331.7,302.6-328.4,302.6z"/>
		<path id="XMLID_11112_" class="st0" d="M-328.5,309c9.3,0,18.6,0,27.9,0c0.6,0,1.2-0.2,1.7,0.1s1.1,0.8,1.3,1.4
			c0.1,0.3-0.7,0.9-1.2,1.2c-0.4,0.2-0.9,0.1-1.4,0.1c-18.8,0-37.6,0-56.4,0c-0.3,0-0.8,0.2-1,0c-0.6-0.4-1.2-0.9-1.7-1.4
			c0.5-0.4,1-1,1.6-1.3c0.5-0.2,1.1-0.1,1.7-0.1C-346.8,309-337.6,309-328.5,309z"/>
		<path id="XMLID_11102_" class="st0" d="M-328.4,296.1c9.3,0,18.6,0,27.9,0c0.6,0,1.2-0.1,1.7,0.1s0.8,0.8,1.3,1.1
			c-0.4,0.5-0.8,1.1-1.3,1.4c-0.4,0.3-1.1,0.1-1.7,0.1c-18.6,0-37.4,0-56,0c-0.4,0-0.9,0.2-1.3,0c-0.6-0.3-1.1-0.9-1.7-1.4
			c0.6-0.4,1.1-1.1,1.7-1.2c3.5-0.1,6.8-0.1,10.3-0.1C-341.1,296.1-334.8,296.1-328.4,296.1z"/>
		<path id="XMLID_11101_" class="st0" d="M-328.4,324.6c-9.4,0-18.7,0-28.1,0c-0.6,0-1.3,0.1-1.9-0.1c-0.4-0.2-1-0.8-1-1.1
			c0.1-0.5,0.5-1.1,1-1.3c0.4-0.3,1.1-0.1,1.7-0.1c18.8,0,37.6,0,56.4,0c0.5,0,1.1-0.2,1.4,0.1c0.5,0.3,0.9,0.9,1.3,1.3
			c-0.4,0.4-0.8,0.9-1.3,1.2c-0.5,0.2-1.1,0.1-1.7,0.1C-309.7,324.6-319.1,324.6-328.4,324.6z"/>
		<path id="XMLID_11100_" class="st0" d="M-328.4,318.2c-9.3,0-18.6,0-27.9,0c-0.6,0-1.3,0.1-1.9-0.1s-1.3-0.8-1.2-1.1
			c0.2-0.6,0.7-1.1,1.2-1.4c0.3-0.3,0.9-0.1,1.4-0.1c18.8,0,37.6,0,56.4,0c0.5,0,1.1-0.2,1.4,0.1c0.5,0.3,0.9,0.9,1.3,1.4
			c-0.4,0.4-0.8,0.9-1.3,1.2c-0.6,0.2-1.3,0.1-1.9,0.1C-309.9,318.2-319.2,318.2-328.4,318.2z"/>
	</g>
	<g id="XMLID_15754_">
		<path id="XMLID_11106_" class="st0" d="M-338.9,249.7c0-3.5-0.1-6.8,0-10.2c0-1.4,2.1-2.6,4.4-2.7c2.5-0.1,4.6,0.8,5.1,2.3
			c0.1,0.3,0.2,0.7,0.2,1.1c0,2.9,0,5.7,0,8.6c0,0.7-0.3,1.1-1.5,1.1s-1.3-0.5-1.3-1.1c0-1.4,0-3,0-4.5c-1.4,0-2.8,0-4.3,0
			c0,1.4,0,2.9,0,4.3C-336.3,249.9-336.5,250-338.9,249.7z M-332,242.4c0-1,0.3-1.9-0.1-2.6c-0.2-0.5-1.1-1.1-1.9-1.2
			c-0.6-0.1-1.9,0.4-2,0.8c-0.3,0.9-0.1,1.9-0.1,3C-334.6,242.4-333.4,242.4-332,242.4z"/>
		<path id="XMLID_11099_" class="st0" d="M-346.9,236.8c3,0,5.4,1.7,4.9,3.6c-0.1,0.3-0.8,0.7-1.3,0.7c-0.5,0-1.4-0.4-1.4-0.7
			c-0.1-0.9-0.2-1.8-1.9-1.9c-0.7-0.1-1.6,0.3-2,0.6c-1.1,0.9,0.2,1.5,0.9,2.2c1.4,1.2,2.9,2.4,4.3,3.5c1.7,1.3,1.8,2.4,0.5,3.6
			c-1.3,1.2-3.6,1.6-5.7,1.2c-2-0.5-3.3-1.8-3.2-3.3c0-0.8,0.5-0.9,1.6-0.9c1.3,0,1.3,0.5,1.3,1.1c0.1,1.1,1.1,1.7,2.5,1.5
			c1.5-0.2,2.1-1.3,1-2.1c-1.7-1.4-3.4-3-5.2-4.3c-1.3-1-1.5-2-0.6-3.2C-350.3,237.3-348.9,236.8-346.9,236.8z"/>
		<path id="XMLID_11098_" class="st0" d="M-312.8,238.4c0,1.3,0,2.5,0,3.9c1,0,1.9,0,2.8,0c1,0,1.6,0.3,1.3,0.9
			c-0.2,0.3-0.8,0.8-1.3,0.8c-0.8,0.2-1.8,0-2.8,0c0,1.3,0,2.5,0,4c0.9,0,1.7,0,2.5,0c1,0,1.6,0.2,1.6,0.9s-0.6,0.8-1.5,0.8
			c-6.6,0-5.6,0.3-5.6-3.4c0-2.8,0-5.6,0-8.4c0-0.9,0.5-1.4,2-1.3c1.3,0,2.6-0.1,3.9,0c0.4,0,1.2,0.5,1.1,0.8
			c-0.1,0.3-0.6,0.8-1.1,0.9C-310.7,238.6-311.7,238.4-312.8,238.4z"/>
		<path id="XMLID_11097_" class="st0" d="M-323.1,248.1c1.2,0,2,0,2.9,0c0.9,0,1.5,0.2,1.5,0.8c0,0.7-0.4,0.9-1.4,0.9
			c-0.1,0-0.1,0-0.2,0c-6.4,0-5.4,0.3-5.4-3.4c0-2.9,0-5.8,0-8.7c0-0.6,0.1-1.1,1.3-1.1s1.3,0.4,1.3,1.1c0,3,0,5.9,0,8.9
			C-323.1,247-323.1,247.5-323.1,248.1z"/>
	</g>
	<g id="XMLID_15766_">
		<path id="XMLID_11096_" class="st0" d="M-345.4,271.2c4.1,0,8.3-0.1,12.4,0.1c1,0,1.9,0.8,3,1.2c-0.9,0.4-1.9,1.3-2.8,1.3
			c-8.4,0.1-16.9,0.1-25.3,0.1c-1.3,0-2.9,0.1-2.6-1.3c0.1-0.5,1.8-1.2,2.8-1.2C-353.8,271.1-349.6,271.2-345.4,271.2z"/>
		<path id="XMLID_11092_" class="st0" d="M-345.7,258.6c4.4,0,8.8-0.1,13.2,0.1c0.8,0,1.6,0.8,2.4,1.2c-0.8,0.4-1.6,1.2-2.4,1.2
			c-8.7,0.1-17.5,0.1-26.2,0c-0.8,0-1.6-0.8-2.4-1.2c0.8-0.4,1.6-1.1,2.4-1.1C-354.3,258.5-350,258.6-345.7,258.6z"/>
		<path id="XMLID_11091_" class="st0" d="M-345.7,286.4c-4.3,0-8.6,0.1-12.9-0.1c-0.8,0-1.6-0.8-2.4-1.1c0.8-0.4,1.6-1.2,2.4-1.2
			c8.7-0.1,17.5-0.1,26.2,0c0.8,0,1.6,0.8,2.4,1.2c-0.8,0.4-1.6,1.1-2.4,1.2C-336.9,286.4-341.3,286.4-345.7,286.4z"/>
		<path id="XMLID_11090_" class="st0" d="M-345.7,280c-4.2,0-8.4,0-12.7,0c-1.1,0-2.7,0.2-2.4-1.2c0.1-0.5,1.6-1.2,2.4-1.2
			c8.5-0.1,17.1-0.1,25.6,0c0.9,0,1.8,0.8,2.6,1.2c-0.9,0.4-1.8,1.1-2.6,1.2C-337.1,280.1-341.4,280-345.7,280z"/>
		<path id="XMLID_11089_" class="st0" d="M-345.4,267.4c-4.3,0-8.6,0.1-12.9-0.1c-0.8,0-1.7-0.8-2.6-1.2c0.8-0.4,1.8-1.2,2.6-1.2
			c8.5-0.1,17.1-0.1,25.6-0.1c1.2,0,2.7-0.1,2.4,1.2c-0.1,0.5-1.6,1.2-2.5,1.2C-337,267.5-341.2,267.4-345.4,267.4z"/>
	</g>
	<path id="XMLID_11078_" class="st0" d="M-311.9,285.4c-2.3,0-4.6,0-6.8,0c-0.9,0-1.3-0.3-1.2-1.2c0-2.9,0-5.7,0-8.6
		c0-0.8-0.3-1.3-1-1.5c-0.3-0.1-0.6-0.3-0.8-0.3c-2.3-1-2.3-0.6-1.8-3.4c0.6-3.3,2.5-5.9,5.3-7.8c0.7-0.5,1.9-0.3,2.9-0.3
		c0.2,0,0.4,0.6,0.5,0.9c0.3,1.4,1.3,2.3,2.8,2.3c1.5,0,2.6-0.8,2.8-2.3c0.1-0.8,0.4-1,1.2-1.1c1.3-0.1,2.4,0.3,3.4,1.1
		c2.4,2.1,4,4.6,4.6,7.8c0.3,1.6,0.3,1.9-1.3,2.4c-1.9,0.6-2.6,1.7-2.4,3.7c0.3,2.3,0,4.6,0.1,7c0,0.9-0.3,1.3-1.3,1.3
		C-307.4,285.4-309.6,285.4-311.9,285.4z M-304.3,273.3c0.8-0.3,1.3-0.7,2-0.9c0.7-0.3,0.9-0.6,0.8-1.3c-0.5-2.8-2-4.9-4.2-6.7
		c-0.5-0.4-1.3-0.6-1.9-0.8c-0.7,2.3-2,3.4-4,3.5c-2.4,0.1-3.8-1.1-4.6-3.4c-0.5,0.2-1.1,0.2-1.4,0.4c-2.3,1.8-3.8,4-4.4,6.8
		c-0.2,0.8,0,1.3,0.8,1.6c2,0.8,1.3,1,2.9-0.6c0.2-0.2,0.3-0.5,0.5-0.6c0.4-0.2,0.8-0.3,1.3-0.4c-0.1,0.4,0.1,1-0.2,1.3
		c-1.5,1.3-1.8,2.9-1.7,4.7c0.1,2.4,0,4.7,0,7.1c4.5,0,8.8,0,13.2,0c0-2.1-0.1-4.1,0-6.2c0.2-2.2-0.1-4.2-2-5.7l-0.1-0.1
		c0-0.3-0.1-0.8-0.1-1.1c0.4,0.1,0.9,0,1.2,0.3C-305.6,271.8-305,272.5-304.3,273.3z"/>
</g>
</svg>
