<?xml version="1.0" encoding="utf-8"?>
<!-- Generator: Adobe Illustrator 19.0.0, SVG Export Plug-In . SVG Version: 6.00 Build 0)  -->
<svg version="1.1" id="Layer_1" xmlns="http://www.w3.org/2000/svg" xmlns:xlink="http://www.w3.org/1999/xlink" x="0px" y="0px"
	 viewBox="1110 -60 150 150" style="enable-background:new 1110 -60 150 150;" xml:space="preserve">
<style type="text/css">
	.st0{fill:#4CBEC0;}
</style>
<g id="XMLID_15772_">
	<g id="XMLID_9164_">
		<path id="XMLID_11058_" class="st0" d="M1228.3-55.6c0.4,0.2,0.8,0.4,1.2,0.6c2.3,1.1,3.5,3,3.7,5.5c0,0.3,0,0.6,0,0.8
			c0,42.5,0,84.9,0,127.4c0,3.5-1.9,6-5,6.7c-0.5,0.1-1,0.1-1.5,0.1c-27.3,0-54.6,0-81.8,0c-3.8,0-6.6-2.7-6.6-6.6
			c0-42.6,0-85.2,0-127.8c0-3.5,1.9-5.6,5.1-6.7C1171.7-55.6,1200-55.6,1228.3-55.6z M1142.9,71.8c0.5,0,0.9,0.1,1.3,0.1
			c27.8,0,55.5,0,83.3,0c1.1,0,1.4-0.3,1.4-1.5c0-37,0-73.9,0-110.9c0-1.1-0.3-1.4-1.4-1.4c-27.8,0-55.5,0-83.3,0
			c-0.4,0-0.8,0-1.3,0C1142.9-4,1142.9,33.9,1142.9,71.8z M1185.7,82.6c2.1,0,3.7-1.7,3.7-3.7c0-2-1.7-3.6-3.7-3.6
			c-2.1,0-3.8,1.7-3.8,3.7C1182,80.9,1183.7,82.6,1185.7,82.6z M1185.7-46.8c0.5-0.7,1-1.1,1-1.5c0-0.3-0.6-0.7-0.9-1
			c-0.3,0.3-0.9,0.6-1,1C1184.7-47.9,1185.2-47.5,1185.7-46.8z"/>
	</g>
	<path id="XMLID_11118_" class="st0" d="M1186.1,7.1c0-6.6,0-13.2,0-19.8c0-1.8,0-1.8,1.8-1.8c12.1,0,24.2,0,36.3,0
		c1.7,0,1.8,0.1,1.8,1.9c0,13.2,0,26.3,0,39.5c0,1.8-0.2,2-1.9,2c-12.1,0-24.1,0-36.2,0c-1.7,0-1.8-0.1-1.8-2
		C1186.1,20.3,1186.1,13.7,1186.1,7.1z M1187.8,26.9c12.2,0,24.2,0,36.3,0c0-13.2,0-26.4,0-39.5c-12.2,0-24.2,0-36.3,0
		C1187.8,0.5,1187.8,13.6,1187.8,26.9z"/>
	<g id="XMLID_15768_">
		<path id="XMLID_11113_" class="st0" d="M1186.5,40.5c10.9,0,21.9,0,32.8,0c0.7,0,1.6-0.1,2.2,0.1c0.6,0.2,1.5,1.1,1.4,1.4
			c-0.2,0.7-0.8,1.4-1.5,1.7c-0.5,0.3-1.3,0.1-2,0.1c-22.1,0-44.3,0-66.4,0c-0.3,0-0.7,0.1-1,0c-0.9-0.5-1.7-1.2-2.5-1.8
			c0.8-0.5,1.7-1.4,2.5-1.4c7.5-0.1,15.1-0.1,22.6-0.1C1178.7,40.5,1182.6,40.5,1186.5,40.5z"/>
		<path id="XMLID_11112_" class="st0" d="M1186.4,48.1c11,0,22.1,0,33.1,0c0.7,0,1.4-0.2,2,0.1c0.6,0.3,1.3,1,1.5,1.7
			c0.1,0.3-0.8,1.1-1.4,1.4c-0.5,0.2-1.1,0.1-1.7,0.1c-22.3,0-44.6,0-66.9,0c-0.4,0-0.9,0.2-1.2,0c-0.7-0.5-1.4-1.1-2-1.7
			c0.6-0.5,1.2-1.2,1.9-1.5c0.6-0.2,1.3-0.1,2-0.1C1164.6,48.1,1175.5,48.1,1186.4,48.1z"/>
		<path id="XMLID_11102_" class="st0" d="M1186.5,32.9c11,0,22,0,33.1,0c0.7,0,1.4-0.1,2,0.1c0.6,0.2,1,0.9,1.6,1.3
			c-0.5,0.6-0.9,1.3-1.6,1.7c-0.5,0.3-1.3,0.1-2,0.1c-22.1,0-44.3,0-66.4,0c-0.5,0-1.1,0.2-1.5,0c-0.7-0.4-1.3-1.1-2-1.7
			c0.7-0.5,1.3-1.3,2-1.4c4.1-0.1,8.1-0.1,12.2-0.1C1171.4,32.9,1178.9,32.9,1186.5,32.9z"/>
		<path id="XMLID_11101_" class="st0" d="M1186.5,66.6c-11.1,0-22.2,0-33.3,0c-0.7,0-1.5,0.1-2.2-0.1c-0.5-0.2-1.2-0.9-1.2-1.3
			c0.1-0.6,0.6-1.3,1.2-1.6c0.5-0.3,1.3-0.1,2-0.1c22.3,0,44.6,0,66.9,0c0.6,0,1.3-0.2,1.7,0.1c0.6,0.4,1.1,1.1,1.6,1.6
			c-0.5,0.5-0.9,1.1-1.5,1.4c-0.6,0.2-1.3,0.1-2,0.1C1208.6,66.6,1197.5,66.6,1186.5,66.6z"/>
		<path id="XMLID_11100_" class="st0" d="M1186.5,59c-11,0-22,0-33.1,0c-0.7,0-1.6,0.1-2.2-0.1c-0.6-0.2-1.5-1-1.4-1.3
			c0.2-0.7,0.8-1.3,1.4-1.7c0.4-0.3,1.1-0.1,1.7-0.1c22.3,0,44.6,0,66.9,0c0.6,0,1.3-0.2,1.7,0.1c0.6,0.4,1.1,1.1,1.6,1.7
			c-0.5,0.5-1,1.1-1.6,1.4c-0.7,0.2-1.5,0.1-2.2,0.1C1208.4,59,1197.4,59,1186.5,59z"/>
	</g>
	<g id="XMLID_15754_">
		<path id="XMLID_11106_" class="st0" d="M1174-22.2c0-4.1-0.1-8.1,0-12.1c0-1.7,2.5-3.1,5.2-3.2c3-0.1,5.4,1,6.1,2.7
			c0.1,0.4,0.2,0.8,0.2,1.3c0,3.4,0,6.8,0,10.2c0,0.8-0.3,1.3-1.8,1.3c-1.5,0-1.5-0.6-1.5-1.3c0-1.7,0-3.5,0-5.3c-1.7,0-3.3,0-5.1,0
			c0,1.7,0,3.4,0,5.1C1177.1-21.9,1176.9-21.8,1174-22.2z M1182.2-30.8c0-1.2,0.3-2.2-0.1-3.1c-0.2-0.6-1.3-1.3-2.2-1.4
			c-0.7-0.1-2.3,0.5-2.4,1c-0.4,1.1-0.1,2.3-0.1,3.5C1179.1-30.8,1180.5-30.8,1182.2-30.8z"/>
		<path id="XMLID_11099_" class="st0" d="M1164.5-37.5c3.6,0,6.4,2,5.8,4.3c-0.1,0.3-1,0.8-1.5,0.8c-0.6,0-1.7-0.5-1.7-0.8
			c-0.1-1.1-0.2-2.1-2.2-2.2c-0.8-0.1-1.9,0.3-2.4,0.7c-1.3,1.1,0.2,1.8,1.1,2.6c1.7,1.4,3.4,2.8,5.1,4.2c2,1.6,2.1,2.9,0.6,4.3
			c-1.5,1.4-4.3,1.9-6.8,1.4c-2.4-0.6-3.9-2.1-3.8-3.9c0-0.9,0.6-1.1,1.9-1.1c1.6,0,1.5,0.6,1.5,1.3c0.1,1.3,1.3,2,3,1.8
			c1.8-0.2,2.5-1.5,1.2-2.5c-2-1.7-4-3.5-6.2-5.1c-1.6-1.2-1.8-2.4-0.7-3.8C1160.5-36.8,1162.2-37.5,1164.5-37.5z"/>
		<path id="XMLID_11098_" class="st0" d="M1205-35.5c0,1.6,0,3,0,4.6c1.2,0,2.2,0,3.3,0c1.2,0,1.9,0.4,1.6,1.1
			c-0.2,0.4-0.9,0.9-1.5,1c-1,0.2-2.1,0-3.3,0c0,1.6,0,3,0,4.7c1.1,0,2,0,3,0c1.2,0,1.9,0.2,1.9,1.1c0,0.9-0.7,1-1.8,1
			c-7.8,0-6.6,0.4-6.6-4c0-3.3,0-6.6,0-9.9c0-1.1,0.6-1.7,2.4-1.6c1.5,0,3.1-0.1,4.6,0c0.5,0,1.4,0.6,1.3,0.9
			c-0.1,0.4-0.7,1-1.3,1.1C1207.4-35.3,1206.3-35.5,1205-35.5z"/>
		<path id="XMLID_11097_" class="st0" d="M1192.8-24.1c1.4,0,2.4,0,3.4,0c1.1,0,1.8,0.2,1.8,1c0,0.8-0.5,1.1-1.7,1.1
			c-0.1,0-0.1,0-0.2,0c-7.6,0-6.4,0.4-6.4-4c0-3.4,0-6.9,0-10.3c0-0.7,0.1-1.3,1.6-1.3s1.6,0.5,1.6,1.3c0,3.5,0,7,0,10.5
			C1192.8-25.3,1192.8-24.8,1192.8-24.1z"/>
	</g>
	<g id="XMLID_15766_">
		<path id="XMLID_11096_" class="st0" d="M1166.3,3.3c4.9,0,9.8-0.1,14.7,0.1c1.2,0,2.3,0.9,3.5,1.4c-1.1,0.5-2.2,1.5-3.3,1.5
			c-10,0.1-20,0.1-30,0.1c-1.5,0-3.4,0.1-3.1-1.6c0.1-0.6,2.1-1.4,3.3-1.4C1156.3,3.2,1161.3,3.3,1166.3,3.3z"/>
		<path id="XMLID_11092_" class="st0" d="M1166-11.6c5.2,0,10.4-0.1,15.6,0.1c1,0,1.9,0.9,2.8,1.4c-1,0.5-1.9,1.4-2.9,1.4
			c-10.3,0.1-20.7,0.1-31,0c-0.9,0-1.9-0.9-2.8-1.4c0.9-0.5,1.9-1.3,2.8-1.3C1155.8-11.7,1160.9-11.6,1166-11.6z"/>
		<path id="XMLID_11091_" class="st0" d="M1166,21.3c-5.1,0-10.2,0.1-15.3-0.1c-1,0-1.9-0.9-2.8-1.3c0.9-0.5,1.9-1.4,2.8-1.4
			c10.3-0.1,20.7-0.1,31,0c1,0,1.9,0.9,2.9,1.4c-0.9,0.5-1.9,1.3-2.8,1.4C1176.4,21.3,1171.2,21.3,1166,21.3z"/>
		<path id="XMLID_11090_" class="st0" d="M1166,13.8c-5,0-10,0-15.1,0c-1.3,0-3.2,0.2-2.9-1.4c0.1-0.6,1.9-1.4,2.9-1.4
			c10.1-0.1,20.3-0.1,30.4,0c1.1,0,2.1,0.9,3.1,1.4c-1.1,0.5-2.1,1.3-3.1,1.4C1176.2,13.9,1171.1,13.8,1166,13.8z"/>
		<path id="XMLID_11089_" class="st0" d="M1166.3-1.2c-5.1,0-10.2,0.1-15.3-0.1c-1,0-2-0.9-3.1-1.4c1-0.5,2.1-1.4,3.1-1.4
			c10.1-0.1,20.3-0.1,30.4-0.1c1.4,0,3.2-0.1,2.9,1.4c-0.1,0.6-1.9,1.4-3,1.4C1176.3-1.1,1171.3-1.2,1166.3-1.2z"/>
	</g>
	<path id="XMLID_11078_" class="st0" d="M1206,20.2c-2.7,0-5.4,0-8.1,0c-1.1,0-1.5-0.4-1.4-1.4c0-3.4,0-6.8,0-10.2
		c0-1-0.3-1.5-1.2-1.8c-0.3-0.1-0.7-0.3-1-0.4c-2.7-1.2-2.7-0.7-2.1-4c0.7-3.9,3-7,6.3-9.2c0.8-0.6,2.3-0.3,3.4-0.3
		c0.2,0,0.5,0.7,0.6,1.1c0.4,1.7,1.5,2.7,3.3,2.7c1.8,0,3.1-1,3.3-2.7c0.1-0.9,0.5-1.2,1.4-1.3c1.5-0.1,2.8,0.3,4,1.3
		c2.8,2.5,4.8,5.4,5.4,9.2c0.3,1.9,0.3,2.2-1.6,2.8c-2.3,0.7-3.1,2-2.9,4.4c0.3,2.7,0,5.5,0.1,8.3c0,1.1-0.4,1.5-1.5,1.5
		C1211.4,20.2,1208.7,20.2,1206,20.2z M1215,5.8c0.9-0.4,1.6-0.8,2.4-1.1c0.8-0.3,1.1-0.7,0.9-1.6c-0.6-3.3-2.4-5.8-5-7.9
		c-0.6-0.5-1.5-0.7-2.3-1c-0.8,2.7-2.4,4-4.8,4.1c-2.8,0.1-4.5-1.3-5.4-4c-0.6,0.2-1.3,0.2-1.7,0.5c-2.7,2.1-4.5,4.7-5.2,8.1
		c-0.2,0.9,0,1.5,1,1.9c2.4,0.9,1.6,1.2,3.4-0.7c0.2-0.2,0.4-0.6,0.6-0.7c0.5-0.2,1-0.3,1.5-0.5c-0.1,0.5,0.1,1.2-0.2,1.5
		c-1.8,1.5-2.1,3.4-2,5.6c0.1,2.8,0,5.6,0,8.4c5.3,0,10.4,0,15.7,0c0-2.5-0.1-4.9,0-7.3c0.2-2.6-0.1-5-2.4-6.8c0,0-0.1-0.1-0.1-0.1
		c0-0.4-0.1-0.9-0.1-1.3c0.5,0.1,1.1,0,1.4,0.3C1213.5,4,1214.2,4.9,1215,5.8z"/>
</g>
</svg>
