<?xml version="1.0" encoding="utf-8"?>
<!-- Generator: Adobe Illustrator 19.1.0, SVG Export Plug-In . SVG Version: 6.00 Build 0)  -->
<svg version="1.1" id="Layer_1" xmlns="http://www.w3.org/2000/svg" xmlns:xlink="http://www.w3.org/1999/xlink" x="0px" y="0px"
	 viewBox="-391.5 218.5 125 125" style="enable-background:new -391.5 218.5 125 125;" xml:space="preserve">
<style type="text/css">
	.st0{fill:#4BBEC0;}
</style>
<g id="XMLID_10053_">
	<path id="XMLID_10054_" class="st0" d="M-336.6,315.5c-0.3-1.6-0.5-3.1-0.7-4.6c-0.8-5.6-1.4-11.3-2.2-16.9
		c-0.1-0.8,0.1-1.2,0.8-1.5c5.9-2.3,11.9-4.8,17.8-7.2c0.3-0.2,0.7-0.3,1.1-0.3c0.4,3.6,0.9,7.1,1.3,10.6c0.4,3.7,0.8,7.3,1.1,10.9
		c0.1,0.5,0.1,0.9-0.6,1.2c-6,2.6-12.1,5.3-18.1,7.9C-336.1,315.4-336.3,315.4-336.6,315.5z"/>
	<path id="XMLID_10055_" class="st0" d="M-297.8,275.7c0.2,2.5,0.4,4.9,0.6,7.3c0.3,4.6,0.6,9.2,0.8,13.9c0.1,0.8-0.2,1.3-0.9,1.7
		c-5.8,2.5-11.6,5.1-17.5,7.6c-0.3,0.2-0.6,0.3-1,0.4c-0.3-2.9-0.7-5.8-1-8.6c-0.5-4.3-0.9-8.7-1.3-13c0-0.3,0.3-0.9,0.5-1
		c6.4-2.7,12.9-5.3,19.3-8C-298.1,275.8-297.9,275.8-297.8,275.7z"/>
	<path id="XMLID_10056_" class="st0" d="M-322.1,262.2c0.2,1.4,0.3,2.7,0.4,3.9c0.5,5.3,1.1,10.6,1.6,16c0,0.3-0.2,0.9-0.4,1.1
		c-6.3,2.8-12.7,5.3-19.2,8.1c-0.2-0.9-0.3-1.7-0.5-2.4c-0.8-5.8-1.6-11.5-2.4-17.3c-0.2-1,0.2-1.5,1.1-1.8
		c6.2-2.3,12.4-4.8,18.5-7.2C-322.7,262.5-322.5,262.4-322.1,262.2z"/>
	<path id="XMLID_10057_" class="st0" d="M-299.4,253.6c0.2,1.8,0.3,3.4,0.4,5.1c0.3,4.8,0.7,9.6,0.9,14.4c0,0.5-0.1,0.8-0.7,1.1
		c-6.4,2.7-12.8,5.3-19.2,7.9c-0.1,0.1-0.3,0.1-0.6,0.2c-0.3-1.8-0.4-3.4-0.6-5.1c-0.5-4.6-0.9-9.3-1.4-13.9
		c-0.2-1.8-0.2-1.8,1.4-2.4c6.2-2.3,12.4-4.7,18.7-7C-300,253.8-299.8,253.8-299.4,253.6z"/>
	<path id="XMLID_10058_" class="st0" d="M-333,340.2c-0.5-3.4-1.1-6.8-1.6-10.2c-0.6-4-1-7.9-1.6-11.9c-0.1-0.5-0.1-1,0.6-1.3
		c6.1-2.6,12.1-5.2,18.1-7.8c0.1,0,0.2,0,0.3-0.1c0.2,1.3,0.3,2.5,0.5,3.8c0.7,5.6,1.3,11.2,1.9,16.7c0,0.3-0.2,0.9-0.5,1.1
		c-5.8,3.2-11.5,6.3-17.3,9.5C-332.6,340.2-332.8,340.2-333,340.2z"/>
	<path id="XMLID_10059_" class="st0" d="M-313.3,329.5c-0.8-7.1-1.5-14.1-2.3-21.3c6.4-2.8,12.8-5.5,19.3-8.4
		c0.3,2.7,0.5,5.2,0.7,7.6c0.3,3.7,0.5,7.3,0.8,11c0.1,0.6,0.1,1-0.6,1.4c-5.8,3.1-11.6,6.3-17.4,9.4
		C-312.9,329.3-313,329.3-313.3,329.5z"/>
	<path id="XMLID_10060_" class="st0" d="M-294.7,297.4c-0.1-1.4-0.3-2.8-0.3-4.2c-0.4-5.8-0.8-11.6-1.2-17.4c0-0.5,0-0.9,0.6-1.1
		c5.3-2.1,10.5-4.3,15.8-6.4c0.2-0.1,0.3-0.1,0.5-0.2c0.1,0.3,0.2,0.6,0.2,0.8c0.1,6.8,0.1,13.7,0.2,20.5c0,0.8-0.3,1.2-0.9,1.5
		c-4.6,2-9.2,4-13.8,6.1C-294,297.2-294.3,297.2-294.7,297.4z"/>
	<path id="XMLID_10061_" class="st0" d="M-281.7,236.4c-0.4,0.3-0.7,0.4-0.9,0.6c-4.6,2.6-9.2,5.3-13.8,7.8
		c-0.4,0.3-1.1,0.3-1.5,0.3c-4.1-0.8-8.2-1.8-12.3-2.7c-0.2,0-0.3-0.1-0.7-0.3c1.9-1.2,3.7-2.3,5.5-3.3c0-0.1-0.1-0.2-0.1-0.2
		c-0.3,0.2-0.8,0.3-1.1,0.4c-2.5,1-5,2-7.5,3c-0.3,0.2-0.8,0.3-1,0.1c-3.5-2.3-7-4.6-10.6-7c0.4-0.2,0.7-0.3,0.9-0.4
		c3.8-1.4,7.4-2.8,11.2-4.1c0.4-0.2,1.1-0.1,1.5,0.1c3.5,1.7,6.9,3.3,10.4,5.1c0.5,0.3,0.9,0.3,1.4-0.1c1.8-1.7,3.9-1.6,6.2-1.2
		c3.8,0.8,7.8,1.2,11.7,1.8C-282.2,236.4-282,236.4-281.7,236.4z"/>
	<path id="XMLID_10062_" class="st0" d="M-281.2,238.3c0,6.5,0,12.9,0,19.2c0,0.3-0.2,0.7-0.3,0.8c-4.5,2.9-8.9,5.8-13.6,8.8
		c-0.2-1.4-0.3-2.7-0.3-3.9c-0.4-5-0.8-10.1-1.2-15.1c0-0.3,0.2-0.8,0.4-1c4.8-2.8,9.5-5.6,14.3-8.4
		C-281.7,238.5-281.7,238.5-281.2,238.3z"/>
	<path id="XMLID_10063_" class="st0" d="M-278.8,292.6c0,1,0,1.8,0,2.6c0.1,4.8,0.1,9.6,0.2,14.4c0,0.8-0.3,1.3-1,1.7
		c-4.2,2.3-8.3,4.6-12.4,6.9c-0.3,0.2-0.6,0.3-1.1,0.6c-0.1-0.4-0.2-0.8-0.2-1c-0.4-5.9-0.8-11.9-1.2-17.8c0-0.3,0.2-0.8,0.4-0.8
		c4.8-2.1,9.7-4.2,14.5-6.2C-279.4,292.6-279.2,292.6-278.8,292.6z"/>
	<path id="XMLID_10064_" class="st0" d="M-338.8,315.9c-1.2-0.8-2.2-1.3-3.2-2c-2.8-1.8-5.8-3.6-8.6-5.4c-0.3-0.3-0.7-0.8-0.8-1.2
		c-1-6.8-1.9-13.5-2.8-20.3c0-0.2,0-0.3,0-0.6c1.5,0.8,3,1.5,4.4,2.2c2.4,1.3,4.8,2.5,7.3,3.7c0.6,0.3,0.8,0.6,0.9,1.3
		c0.8,6,1.6,12.1,2.4,18.1C-339,313-338.9,314.4-338.8,315.9z"/>
	<path id="XMLID_10065_" class="st0" d="M-350.9,310.2c1.6,1,3,1.8,4.4,2.8c2.5,1.6,4.9,3.1,7.3,4.7c0.4,0.3,0.8,0.8,0.8,1.2
		c0.9,7.3,1.8,14.6,2.8,21.9c0,0.3,0,0.5,0,0.8c-0.3-0.3-0.6-0.4-0.8-0.6c-3.8-3-7.4-6-11.1-9.1c-0.3-0.3-0.8-0.8-0.8-1.2
		c-0.9-6.5-1.8-13-2.7-19.5C-351,310.8-350.9,310.6-350.9,310.2z"/>
	<path id="XMLID_10066_" class="st0" d="M-341.9,290.9c-2.7-1.3-5.2-2.6-7.6-3.8c-1.3-0.7-2.4-1.3-3.7-1.9c-0.9-0.4-1.3-1-1.4-1.9
		c-0.6-3.9-1.1-7.9-1.7-11.9c-0.3-2.3-0.6-4.5-0.9-6.8c0-0.2,0-0.3,0-0.6c4.3,2,8.4,4.1,12.6,6.1
		C-343.7,276.8-342.8,283.7-341.9,290.9z"/>
	<path id="XMLID_10067_" class="st0" d="M-370.8,257.6c1.5,0.7,2.8,1.3,4.2,2c2.3,1.1,4.7,2.2,7,3.3c0.3,0.2,0.8,0.6,0.8,0.9
		c0.8,6.4,1.7,12.9,2.4,19.3c0,0.1,0,0.2,0,0.4c-0.3-0.2-0.6-0.3-0.8-0.3c-3.2-1.6-6.4-3.3-9.7-4.8c-0.6-0.3-0.8-0.7-0.9-1.3
		c-0.9-6-1.8-11.9-2.8-18C-370.7,258.6-370.7,258.1-370.8,257.6z"/>
	<path id="XMLID_10068_" class="st0" d="M-353.3,306.8c-0.7-0.4-1.3-0.8-1.9-1.3c-2.7-1.7-5.3-3.3-7.9-5c-0.7-0.4-1-0.8-1.2-1.6
		c-0.8-5-1.6-10-2.4-15.1c-0.2-1.3-0.3-2.5-0.6-3.9c0.3,0.2,0.7,0.3,0.9,0.3c3.3,1.6,6.5,3.3,9.8,4.9c0.4,0.2,0.8,0.7,0.8,1.1
		c0.9,6.7,1.8,13.4,2.6,20.1C-353.2,306.5-353.2,306.6-353.3,306.8z"/>
	<path id="XMLID_10069_" class="st0" d="M-334.4,254.6c1.1-0.5,2-0.9,3-1.3c5.3-2.2,10.8-4.3,16.2-6.5c0.3-0.2,0.8-0.3,1.1-0.2
		c4.3,1.6,8.5,3.3,13,5c-0.5,0.3-0.8,0.4-1,0.5c-6.3,2.4-12.8,4.8-19.1,7.3c-0.4,0.2-0.9,0.2-1.3,0.1c-3.8-1.5-7.7-3-11.4-4.6
		C-334.1,254.8-334.2,254.7-334.4,254.6z"/>
	<path id="XMLID_10070_" class="st0" d="M-350.2,329.6c-2.3-1.8-4.3-3.6-6.4-5.3c-0.5-0.4-1-0.9-1.6-1.3c-2-1.3-2.9-2.9-3.2-5.3
		c-0.6-4.8-1.4-9.5-2.1-14.3c-0.1-0.3-0.1-0.8-0.1-1.3c0.6,0.3,1.1,0.7,1.6,1c2.8,1.8,5.8,3.6,8.6,5.5c0.3,0.3,0.8,0.7,0.8,1.1
		c0.8,6.4,1.7,12.8,2.4,19.2C-350.2,329-350.2,329.1-350.2,329.6z"/>
	<path id="XMLID_10071_" class="st0" d="M-369.6,276.8c-1.7-0.8-3.3-1.6-4.9-2.4c-1.3-0.7-2.8-1.3-4-2.2c-0.5-0.3-1-0.9-1.1-1.5
		c-1-4.8-1.8-9.7-2.8-14.6c-0.3-1.4-0.5-2.8-0.8-4.3c0.6,0.3,1,0.3,1.4,0.5c2.6,1.3,5.3,2.6,7.9,3.8c0.9,0.4,1.4,1,1.6,2.2
		c0.8,5.9,1.8,11.9,2.7,17.8C-369.5,276.3-369.6,276.4-369.6,276.8z"/>
	<path id="XMLID_10072_" class="st0" d="M-339.5,254.8c-0.6,0.3-1.3,0.6-1.8,0.8c-4.6,1.8-9.3,3.8-13.9,5.6
		c-0.3,0.2-0.8,0.3-1.2,0.1c-4-1.9-8-3.9-12-5.9c-0.2-0.1-0.3-0.2-0.5-0.4c0.7-0.3,1.3-0.4,1.8-0.7c4.3-1.6,8.7-3.1,13-4.7
		c0.5-0.2,1.1-0.3,1.5-0.2c4.3,1.6,8.8,3.3,13.1,4.8C-339.5,254.6-339.5,254.6-339.5,254.8z"/>
	<path id="XMLID_10073_" class="st0" d="M-365.1,234.3c3.8-0.7,7.4-1.3,11.1-1.9c3.1-0.5,6.2-1.1,9.4-1.6c0.6-0.1,1.3,0.1,1.8,0.4
		c2.3,1.6,4.6,3.3,6.9,5c0.3,0.2,0.5,0.4,0.8,0.7c-3.2,0.8-6.1,1.4-9.1,2.1c-3.5,0.8-7.1,1.7-10.6,2.4c-0.4,0.1-1,0.1-1.3-0.1
		C-359.2,239-362,236.7-365.1,234.3z"/>
	<path id="XMLID_10074_" class="st0" d="M-348.1,247.1c3-1.7,5.8-3.2,8.5-4.7c1.8-1,3.8-2.1,5.7-3.1c0.3-0.2,0.8-0.3,1.2-0.3
		c4.5,0.6,9,1.2,13.5,1.8c0.2,0,0.3,0.1,0.7,0.1c-0.3,0.3-0.6,0.4-0.8,0.6c-4.4,2.9-8.9,5.9-13.4,8.9c-0.4,0.3-1.1,0.4-1.6,0.3
		c-4.3-1-8.4-2.1-12.7-3.2C-347.4,247.4-347.6,247.3-348.1,247.1z"/>
	<path id="XMLID_10075_" class="st0" d="M-366.2,298.7c-1.5-1-2.9-1.8-4.3-2.8c-1.3-0.9-2.8-1.8-4.1-2.7c-0.8-0.6-1.3-1.3-1.5-2.3
		c-0.9-5.4-1.8-10.8-2.8-16.2c0-0.2,0-0.4-0.1-0.8c1.3,0.7,2.6,1.2,3.8,1.8c1.8,0.9,3.6,1.8,5.3,2.8c0.3,0.2,0.8,0.6,0.8,0.9
		c1,6.1,1.9,12.3,2.9,18.4C-366.1,298-366.2,298.2-366.2,298.7z"/>
	<path id="XMLID_10076_" class="st0" d="M-324.6,260.6c-6.2,2.3-12.1,4.6-18.1,6.8c-0.3,0.1-0.6,0.2-0.8,0
		c-3.4-1.6-6.8-3.2-10.4-4.9c0.5-0.3,0.8-0.4,1.1-0.5c5.1-2.1,10.1-4.2,15.2-6.3c0.4-0.2,0.9-0.3,1.3-0.2c3.8,1.5,7.7,3,11.5,4.6
		C-324.8,260.3-324.8,260.4-324.6,260.6z"/>
	<path id="XMLID_10077_" class="st0" d="M-375.2,294.9c1.6,0.9,3.1,1.8,4.5,2.7c1.5,0.9,2.9,1.8,4.3,2.8c0.3,0.2,0.6,0.5,0.7,0.8
		c0.9,5.8,1.8,11.6,2.7,17.5c0,0.1,0,0.2-0.1,0.3c-0.3-0.2-0.5-0.3-0.8-0.5c-2.7-2.2-5.3-4.3-7.9-6.5c-0.4-0.3-0.8-1-0.9-1.5
		c-0.9-4.8-1.8-9.7-2.6-14.5C-375.3,295.6-375.2,295.3-375.2,294.9z"/>
	<path id="XMLID_10078_" class="st0" d="M-315.6,228.2c-2.3,0.8-4.4,1.4-6.5,2.1c-1.7,0.6-3.4,1.1-5.2,1.7c-0.3,0.1-0.8,0.2-0.9,0
		c-2.7-2.1-5.3-4.3-8.2-6.4c0.3-0.2,0.6-0.3,0.8-0.4c3.6-1.3,7.2-2.7,10.8-4c0.6-0.3,1-0.2,1.5,0.3c2.3,2.1,4.5,4.1,6.8,6.1
		C-316.3,227.7-316.1,227.8-315.6,228.2z"/>
	<path id="XMLID_10079_" class="st0" d="M-380.4,249.5c4-1.3,8.2-2.4,12.1-3.9c2.5-0.9,4.7-0.9,7,0.3c1.8,0.9,3.8,1.6,5.7,2.4
		c0,0.1,0,0.2,0,0.3c-3.7,1.3-7.3,2.7-11,3.9c-1.1,0.4-2.3,0.8-3.3,1.2c-0.8,0.3-1.7,0.3-2.5-0.1c-2.7-1.3-5.3-2.5-8.1-3.8
		C-380.5,249.8-380.4,249.6-380.4,249.5z"/>
</g>
</svg>
