<?xml version="1.0" encoding="utf-8"?>
<!-- Generator: Adobe Illustrator 19.0.0, SVG Export Plug-In . SVG Version: 6.00 Build 0)  -->
<svg version="1.1" id="Layer_1" xmlns="http://www.w3.org/2000/svg" xmlns:xlink="http://www.w3.org/1999/xlink" x="0px" y="0px"
	 viewBox="-97 191 416 412" style="enable-background:new -97 191 416 412;" xml:space="preserve">
<style type="text/css">
	.st0{fill:#F8835E;}
	.st1{fill:#FFFFFF;}
	.st2{fill:none;stroke:#FFFFFF;stroke-width:2;stroke-dasharray:4,4;}
</style>
<g>
	<circle class="st0" cx="-42" cy="429.2" r="26"/>
	<circle class="st0" cx="5" cy="501.2" r="24"/>
	<circle class="st0" cx="255" cy="450.2" r="21"/>
	<circle class="st0" cx="161.5" cy="233.8" r="15.5"/>
	<circle class="st0" cx="90.5" cy="540.7" r="29.5"/>
	<circle class="st0" cx="185" cy="524.2" r="25"/>
	<circle class="st0" cx="267" cy="363.2" r="31"/>
	<circle class="st0" cx="80.5" cy="230.8" r="22.5"/>
	<circle class="st0" cx="10.5" cy="263.8" r="22.5"/>
	<circle class="st0" cx="223.5" cy="274.8" r="22.5"/>
	<circle class="st0" cx="-41.5" cy="336.7" r="24.5"/>
	<circle class="st1" cx="115" cy="385.2" r="13"/>
	<circle class="st2" cx="110.5" cy="387.5" r="159.5"/>
	<circle class="st1" cx="90.5" cy="541.7" r="8.5"/>
	<circle class="st1" cx="5" cy="502.2" r="7"/>
	<circle class="st1" cx="-42" cy="429.2" r="7"/>
	<circle class="st1" cx="-42" cy="336.2" r="7"/>
	<circle class="st1" cx="10" cy="263.3" r="7"/>
	<circle class="st1" cx="81" cy="229.3" r="7"/>
	<circle class="st1" cx="224" cy="274.3" r="7"/>
	<circle class="st1" cx="268" cy="363.2" r="7"/>
	<circle class="st1" cx="255" cy="451.2" r="7"/>
	<circle class="st1" cx="186" cy="524.2" r="7"/>
	<circle class="st1" cx="162" cy="233.3" r="5"/>
</g>
</svg>
