<?xml version="1.0" encoding="utf-8"?>
<!-- Generator: Adobe Illustrator 19.1.0, SVG Export Plug-In . SVG Version: 6.00 Build 0)  -->
<svg version="1.1" id="Layer_1" xmlns="http://www.w3.org/2000/svg" xmlns:xlink="http://www.w3.org/1999/xlink" x="0px" y="0px"
	 viewBox="-391.5 218.5 125 125" style="enable-background:new -391.5 218.5 125 125;" xml:space="preserve">
<style type="text/css">
	.st0{fill:none;stroke:#4DBEC0;stroke-width:2;stroke-miterlimit:10;}
	.st1{fill:#4DBEC0;}
</style>
<g>
	<g id="XMLID_10282_">
		<g id="XMLID_131_">
			<path id="XMLID_132_" class="st0" d="M-358.4,279.8c0-15.8,0-31.6,0-47.4c0-5.3,3.1-7.4,7.9-8.6c1-0.3,2.1-0.3,3.2-0.3
				c15.1,0,21.8,0,36.9,0c6.2,0,10.9,2.5,10.9,8.7c0,31.9,0,63.8,0,95.6c0,6.2-4.7,10.8-10.9,10.8c-15.2,0-22,0-37.2,0
				c-6.3,0-10.9-4.6-10.9-10.9C-358.4,311.7-358.4,295.8-358.4,279.8z M-304,274.6c0-13.2,0-26.4,0-39.5c0-3-1.4-4.5-4.4-4.5
				c-13.6,0-27.3,0-40.9,0c-3,0-4.4,1.4-4.4,4.4c0,26.4,0,52.7,0,79.1c0,2.9,1.5,4.4,4.5,4.4c13.6,0,27.2,0,40.8,0
				c3,0,4.5-1.5,4.5-4.5C-303.9,300.9-304,287.8-304,274.6z M-324.3,329.1c0-2.6-2-4.6-4.6-4.6c-2.6,0-4.7,2-4.7,4.7
				c0,2.6,2,4.6,4.6,4.7C-326.4,333.9-324.3,331.8-324.3,329.1z"/>
		</g>
	</g>
	<g id="XMLID_10268_">
		<path id="XMLID_10281_" class="st1" d="M-326.9,282.7c-1.1,0-2.2,0-3.3,0c0-11.2,0-23.7,0-34.9c1.1,0,2.2,0,3.3,0
			C-326.9,258.9-326.9,271.3-326.9,282.7z"/>
		<path id="XMLID_10280_" class="st1" d="M-340.1,282.7c-0.9,0-1.8,0-2.8,0c0-11.3,0-23.7,0-34.9c0.9,0,1.8,0,2.8,0
			C-340.1,258.9-340.1,271.3-340.1,282.7z"/>
		<path id="XMLID_10279_" class="st1" d="M-348.8,247.7c0.7,0,1.3,0,1.9,0c0,13.3,0,27.6,0,40.9c-0.6,0-1.3,0-1.9,0
			C-348.8,275.3-348.8,260.9-348.8,247.7z"/>
		<path id="XMLID_10278_" class="st1" d="M-309,288.6c-0.7,0-1.3,0-1.9,0c0-13.3,0-27.6,0-40.9c0.7,0,1.3,0,1.9,0
			C-309,260.9-309,275.3-309,288.6z"/>
		<path id="XMLID_10277_" class="st1" d="M-314.9,282.7c-0.6,0-1.1,0-1.6,0c0-11.3,0-23.7,0-34.9c0.5,0,1.1,0,1.6,0
			C-314.9,258.9-314.9,271.3-314.9,282.7z"/>
		<path id="XMLID_10276_" class="st1" d="M-335.5,247.7c0.4,0,0.8,0,1.3,0c0,11.2,0,23.7,0,35c-0.4,0-0.8,0-1.3,0
			C-335.5,271.3-335.5,259-335.5,247.7z"/>
		<path id="XMLID_10275_" class="st1" d="M-319.6,247.7c0.4,0,0.8,0,1.2,0c0,11.2,0,23.7,0,34.9c-0.4,0-0.8,0-1.2,0
			C-319.6,271.3-319.6,259-319.6,247.7z"/>
		<path id="XMLID_10274_" class="st1" d="M-338.2,247.7c0.3,0,0.4,0,0.7,0c0,11.2,0,23.7,0,34.9c-0.3,0-0.4,0-0.7,0
			C-338.2,271.3-338.2,258.9-338.2,247.7z"/>
		<path id="XMLID_10273_" class="st1" d="M-332.1,282.7c-0.3,0-0.4,0-0.7,0c0-11.3,0-23.7,0-35c0.2,0,0.4,0,0.7,0
			C-332.1,258.9-332.1,271.3-332.1,282.7z"/>
		<path id="XMLID_10272_" class="st1" d="M-322.2,282.7c-0.3,0-0.4,0-0.6,0c0-11.2,0-23.7,0-35c0.2,0,0.3,0,0.6,0
			C-322.2,258.9-322.2,271.3-322.2,282.7z"/>
		<path id="XMLID_10271_" class="st1" d="M-325.1,247.7c0.2,0,0.4,0,0.6,0c0,11.2,0,23.7,0,35c-0.2,0-0.3,0-0.6,0
			C-325.1,271.3-325.1,259-325.1,247.7z"/>
		<path id="XMLID_10270_" class="st1" d="M-345.1,247.7c0.6-0.2,0.5,0.2,0.5,0.5c0,3.7,0,7.4,0,11.1c0,9.2,0,19.6,0,28.7
			c0,0.3,0.2,0.8-0.5,0.6C-345.1,275.3-345.1,260.9-345.1,247.7z"/>
		<path id="XMLID_10269_" class="st1" d="M-313.1,247.6c0.2,0,0.3,0,0.5,0c0,13.3,0,27.6,0,40.9c-0.2,0-0.3,0-0.5,0.1
			C-313.1,275.2-313.1,260.9-313.1,247.6z"/>
	</g>
</g>
</svg>
