<?xml version="1.0" encoding="utf-8"?>
<!-- Generator: Adobe Illustrator 19.1.0, SVG Export Plug-In . SVG Version: 6.00 Build 0)  -->
<svg version="1.1" id="Layer_1" xmlns="http://www.w3.org/2000/svg" xmlns:xlink="http://www.w3.org/1999/xlink" x="0px" y="0px"
	 viewBox="-391.5 218.5 125 125" style="enable-background:new -391.5 218.5 125 125;" xml:space="preserve">
<g id="XMLID_16025_">
	<g id="XMLID_16037_">
		<path id="XMLID_16043_" d="M-294.1,260.9c0-1.8,0-3.6,0-5.4c-0.7,0-1.4,0-2.2,0c0-3.5,0-7,0-10.5c2.5,0,5,0,7.6,0
			c0,0.2,0,0.4,0,0.6c0,6.3,0,12.7,0,19c0,1.8-0.7,2.9-2.2,3.2c-0.6,0.1-1.2,0-1.8-0.2c-4.1-1.6-8.2-3.3-12.3-5
			c-0.2-0.1-0.3-0.2-0.4-0.2c-0.2,0.1-0.6,0.1-0.6,0.2c-0.2,0.2,0,0.6,0.3,0.6c0.6,0.2,1.3,0.6,1.9,0.8c0.9,0.4,1.8,0.7,2.8,1.1
			c0.2,0.1,0.4,0.2,0.5,0.4c1,3.6,1.9,7.2,2.9,10.9c-0.2,0-0.4,0-0.6,0c-5.2,0-10.4,0-15.7,0c-0.4,0-0.6-0.1-0.6-0.5
			c-0.9-4.4-1-8.8,0.2-13.1c0.6-2,1.4-3.8,2.8-5.3c1.8-1.8,3.8-2.2,6-1.4c3.3,1.3,6.6,2.6,9.9,4
			C-295.1,260.5-294.6,260.7-294.1,260.9z"/>
		<path id="XMLID_16042_" d="M-298,249.2c0,3.4-2.6,5.9-5.8,5.9c-3.1,0-5.7-2.6-5.7-5.9s2.6-6,5.7-6
			C-300.5,243.2-298,245.9-298,249.2z"/>
		<path id="XMLID_16040_" d="M-276.6,254.4c-2-0.6-3.9-1.1-5.9-1.7c0-1,0-2.1,0-3.1c0-0.9,0-1.7,0-2.6c0-0.2,0.2-0.4,0.2-0.5
			c1.8-0.6,3.8-1.1,5.7-1.6C-276.6,248-276.6,251.2-276.6,254.4z"/>
		<path id="XMLID_16039_" d="M-283.8,252.6c-1.2,0-2.4,0-3.6,0c0-2,0-4,0-6c1.2,0,2.4,0,3.6,0C-283.8,248.6-283.8,250.6-283.8,252.6
			z"/>
	</g>
	<g id="XMLID_16027_">
		<path id="XMLID_16033_" d="M-349.9,318.8c2.9-4,5.6-7.9,8.5-11.9c-2.8-0.6-5.5-1.2-8.1-1.8c-0.3-6-0.6-12-0.9-18.1
			c2.5-0.8,5-1.7,7.9-2.6c-3.3-3.7-6.4-7.3-9.8-11c0.6-0.1,1-0.2,1.4-0.2c4.8-0.2,9.7-0.5,14.5-0.8c1.1-0.1,1.8,0.3,2.4,1.1
			c1.7,1.9,3.4,3.8,4.9,5.5c4.4-1,8.7-2.2,12.9-2.8c13.5-1.9,26.4,0.2,38.5,7c2.2,1.3,4.3,3.1,6.1,5.1c2.2,2.5,1.9,4.6-0.5,7.5
			c-2.8,3.4-6.3,6-10.1,8.2c-13.9,7.8-28.6,9.9-44,6.4c-0.9-0.2-1.3,0.1-1.8,0.7c-1.4,2-2.7,3.9-4.2,5.8c-0.3,0.4-0.9,0.8-1.4,0.9
			c-5.2,0.3-10.5,0.6-15.7,0.9C-349.2,318.9-349.5,318.8-349.9,318.8z M-302.2,298.4c2.9,2.7,7.3,2.6,9.9-0.5
			c2.6-3,2.3-7.5-0.5-10.2c-2.8-2.7-7.3-2.5-9.9,0.5C-305.2,291.3-305.1,295.8-302.2,298.4z"/>
		<path id="XMLID_16031_" d="M-356.6,295.6c-0.6,0.3-1.3,0.8-1.9,0.9c-3.2,0.6-6.4,1.3-9.7,1.4c-5.5,0.2-11.1,0.2-16.7,0.2
			c-1,0-1.9-0.4-3-0.6c0-0.2-0.1-0.4-0.1-0.6c0.8-0.3,1.5-0.9,2.3-1c3.6-0.6,7.3-1.3,10.9-1.5c5-0.2,9.9-0.1,14.9-0.1
			c1,0,2.1,0.4,3.1,0.6C-356.7,295.3-356.7,295.5-356.6,295.6z"/>
		<path id="XMLID_16030_" d="M-356.8,302.3c-0.3,0.2-0.8,0.4-1.2,0.6c-4.6,1.4-9.3,1.7-14.1,0.9c-0.3-0.1-0.6-0.2-0.9-0.3
			c-0.4-0.2-0.7-0.6-1-1c0.3-0.3,0.6-0.8,1-1c3.1-1.4,6.5-1.7,9.9-1.6c2,0.1,4,0.5,5.9,0.9C-356.4,300.9-356.1,301.4-356.8,302.3z"
			/>
		<path id="XMLID_16028_" d="M-357.1,290c-0.9,0.4-1.3,0.6-1.8,0.8c-4.5,1.4-9,1.6-13.5,0.8c-0.8-0.2-1.4-0.8-2.2-1.3
			c0.6-0.5,1.3-1.2,2-1.4c4.5-1.4,9.1-1.6,13.7-0.7c0.5,0.1,1,0.2,1.4,0.6C-357.3,289-357.2,289.5-357.1,290z"/>
	</g>
</g>
</svg>
