<?xml version="1.0" encoding="utf-8"?>
<!-- Generator: Adobe Illustrator 19.1.0, SVG Export Plug-In . SVG Version: 6.00 Build 0)  -->
<svg version="1.1" id="Layer_1" xmlns="http://www.w3.org/2000/svg" xmlns:xlink="http://www.w3.org/1999/xlink" x="0px" y="0px"
	 viewBox="-391.5 218.5 125 125" style="enable-background:new -391.5 218.5 125 125;" xml:space="preserve">
<style type="text/css">
	.st0{fill:none;stroke:#A3BB3A;stroke-miterlimit:10;}
</style>
<g id="XMLID_9069_">
	<path id="XMLID_9076_" class="st0" d="M-301,267.2c0.7-2.3,1.4-4.5,2-6.7c0.5-1.6,1.1-3.2,1.7-4.8c0.2-0.5,0.3-1,0.8-1.4
		c0.4-0.4,1.1-0.9,1.6-0.9c0.9,0,1.1,0.8,1.3,1.5c0.1,0.5,0.1,1.1,0.1,1.6c-0.4,3.8-0.9,7.6-1.3,11.4c-0.1,0.7-0.2,1.4-0.3,2
		c-0.2,0.7,0.2,1,0.7,1.4c0.5,0.4,0.9,0.1,1.2-0.2c3.2-2,6.6-3.8,10.3-4.4c6.9-1.2,11.4,2,12.5,9c0.8,4.8,0.2,9.6-0.7,14.3
		c-0.5,2.6-1.2,5-1.7,7.5c-0.2,0.7-0.2,1.4,0.1,2c2.4,6.5,3.6,13.1,3.7,20c0,1.8-0.3,2.1-2,2.1c-21.5,0-43,0-64.4,0
		c-0.7,0-1.2,0.1-1.5,0.9c-1.6,2.7-5.5,2.7-7.1-0.1c-0.3-0.6-0.8-0.8-1.4-0.8c-13.7,0-27.4,0-41.1,0c-2.1,0-2.3-0.3-2.3-2.3
		c0.3-13.1,4.4-24.9,12.3-35.4c0.3-0.4,0.4-0.8,0.3-1.4c-0.9-2.6,0.8-5.1,3.4-5.5c0.8-0.1,1.1-0.4,1.5-1.1c2.9-5.9,6.3-11.4,11.1-16
		c3.2-3.2,6.9-5.6,11.3-7.1c0.4-0.1,0.8-0.5,1-0.9c2.3-3.8,4.9-7.4,8.4-10.3c3.2-2.6,6.7-4.3,11-3.9c3.8,0.3,7,2.2,9.7,4.7
		c3.8,3.4,6.7,7.5,9,12.1c1.5,3.2,2.8,6.5,4.3,9.7c0.2,0.4,0.6,0.9,1,1.2C-303.6,266.1-302.3,266.6-301,267.2z M-345.2,251.9
		c2.6,0,4.9-0.2,7.2,0c5.5,0.6,10.6,2.8,15.2,5.8c1.9,1.2,3.5,2.8,5.5,3.8c2,0.9,4.3,1.2,6.4,1.8c0.6,0.2,1.2,0.3,1.9,0.6
		c0-0.3,0-0.3-0.1-0.4c-2-5.4-4.6-10.4-8.2-14.9c-2.1-2.7-4.5-5.1-7.6-6.7c-3.5-1.8-7-1.9-10.5,0
		C-339.5,243.9-342.4,247.7-345.2,251.9z M-291.8,273.3c7.3,5.9,12.8,12.9,17,21.1c0.6-2.3,1.1-4.5,1.5-6.8c0.6-3.9,1-7.9,0.3-11.8
		c-0.9-5.4-4.3-7.6-9.6-6.5C-285.9,270.1-288.8,271.5-291.8,273.3z M-351.7,264.3c0.1,0.1,0.2,0.2,0.3,0.3c9-3.6,18.4-4.9,28.2-4.3
		c-2.5-1.5-4.9-2.8-7.4-3.9c-4.9-2.1-10.2-2.9-15.5-1.7c-0.3,0.1-0.8,0.3-0.9,0.5C-348.7,258.3-350.1,261.4-351.7,264.3z
		 M-350.7,256.2c-8.2,3.9-13.1,10.7-17.3,18.4c0.3-0.2,0.5-0.3,0.6-0.3c3.7-3.1,7.7-5.6,11.9-7.8c0.3-0.2,0.5-0.4,0.7-0.7
		C-353.5,262.6-352.2,259.5-350.7,256.2z M-284.1,302.1c0.6,2.5,1.3,4.8,1.8,7.2c3.2,0,6.2,0,9.6,0c-0.7-2.3-1.3-4.5-1.9-6.7
		c-0.1-0.2-0.4-0.3-0.7-0.3C-278.2,302.1-281.1,302.1-284.1,302.1z M-377.3,319c0.3-2.4,0.6-4.7,0.9-7.2c-3,0-6.1,0-9,0
		c-0.2,0-0.5,0.2-0.5,0.3c-0.3,2.2-0.4,4.4-0.7,6.8C-383.4,319-380.4,319-377.3,319z M-375.8,309.2c0.3-0.9,0.4-1.9,0.7-2.8
		c0.4-1.4,0.9-2.7-0.5-3.8c-0.3-0.2-0.5-0.5-0.9-0.5c-2.1,0-4.3,0-6.4,0c-0.3,0-0.7,0.2-0.7,0.3c-0.7,2.2-1.3,4.4-2,6.8
		C-382.1,309.2-379.1,309.2-375.8,309.2z M-281.7,311.9c0.3,2.1,0.6,4.2,0.8,6.2c0.1,0.8,0.3,0.9,1,0.9c2.4,0,4.8,0,7.3,0
		c0.3,0,0.6,0,1-0.1c-0.2-2.4-0.4-4.7-0.6-7.1C-275.5,311.9-278.5,311.9-281.7,311.9z M-327.8,319c3.1,0,6.1,0,9.1,0
		c0-2.4,0-4.7,0-7.1c-3.1,0-6.1,0-9.1,0C-327.8,314.3-327.8,316.6-327.8,319z M-364.8,311.9c-3,0-6,0-9,0c-0.3,2.4-0.7,4.7-1,7.1
		c3.2,0,6.1,0,9.2,0C-365.3,316.6-365.1,314.3-364.8,311.9z M-327.8,309.2c3.1,0,6.1,0,9,0c0-2.4,0-4.8,0-7.1c-3.1,0-6,0-9,0
		C-327.8,304.5-327.8,306.8-327.8,309.2z M-275.5,299.5c-1.2-2.4-2.3-4.6-3.4-6.8c-0.1-0.2-0.3-0.3-0.5-0.3c-2.6,0-5.4,0-8.1,0
		c0.9,2.4,1.7,4.6,2.5,6.8c0.1,0.2,0.3,0.3,0.5,0.3C-281.6,299.5-278.7,299.5-275.5,299.5z M-353.4,311.9c-2.8,0-5.5,0-8.3,0
		c-0.2,0-0.5,0.3-0.5,0.4c-0.3,2.2-0.5,4.4-0.8,6.7c3,0,5.8,0,8.7,0c0.2,0,0.5-0.4,0.5-0.7C-353.6,316.2-353.5,314.1-353.4,311.9z
		 M-316,311.9c0,2.5,0,4.8,0,7.1c3,0,6,0,9.1,0c-0.2-2.4-0.3-4.8-0.4-7.1C-310.3,311.9-313.1,311.9-316,311.9z M-318.9,299.4
		c-0.2-2.5-0.3-4.8-0.4-7.1c-2.9,0-5.6,0-8.4,0c0,2.4,0,4.7,0,7.1C-324.8,299.4-322,299.4-318.9,299.4z M-284.3,311.9
		c-1.5,0-2.9,0-4.3,0c-1.2,0-2.1,0.2-3.1,1.3c-1.1,1.3-1.4,2.3-1.1,3.8c0.1,0.4,0.1,0.9,0.1,1.3c0,0.7,0.3,0.9,0.9,0.9
		c2.6,0,5,0,7.6,0c0.3,0,0.4-0.1,0.8-0.1C-283.6,316.6-284,314.3-284.3,311.9z M-361.8,309.2c3,0,5.8,0,8.7,0
		c0.3-2.4,0.6-4.7,0.9-7.1c-2.7,0-5.4,0-8.1,0C-360.8,304.5-361.3,306.8-361.8,309.2z M-370.5,292.2c-2.8,0-5.5,0-8.2,0
		c-0.3,0-0.5,0.2-0.6,0.3c-1.1,2.2-2.2,4.4-3.4,6.8c2.3,0,4.4,0,6.4,0c0.3,0,0.5-0.3,0.7-0.5c0.7-1.2,1.6-1.9,2.9-2.2
		c0.3-0.1,0.6-0.3,0.7-0.4C-371.5,295-371,293.7-370.5,292.2z M-350.8,311.9c-0.2,2.4-0.3,4.7-0.4,7.2c2.1,0,4.2,0,6.1,0
		c0.2,0,0.4-0.3,0.6-0.5c0.6-0.6,1.3-1.3,1.9-1.9c0.2-0.2,0.5-0.4,0.5-0.6c0-1.4,0-2.7,0-4.1C-345,311.9-347.8,311.9-350.8,311.9z
		 M-295.2,319c-0.1-1.3-0.2-2.5-0.3-3.7c-0.1-0.3-0.3-0.7-0.7-0.9c-0.6-0.5-1.5-0.9-1.9-1.5c-0.5-0.9-1.1-1.1-2-1
		c-0.7,0.1-1.4,0-2.1,0c-0.9,0-1.6,0-2.5,0c0.2,2.5,0.3,4.8,0.4,7.1C-301.2,319-298.2,319-295.2,319z M-308.4,302.1
		c-2.6,0-5.2,0-7.6,0c0,2.4,0,4.8,0,7.1c2.9,0,5.6,0,8.4,0C-307.9,306.8-308.1,304.5-308.4,302.1z M-349.6,302.1
		c-0.3,2.4-0.6,4.7-0.9,7.1c2.9,0,5.6,0,8.5,0c0-2.4,0-4.8,0-7.1C-344.5,302.1-347,302.1-349.6,302.1z M-330.5,319
		c0-2.5,0-4.8,0-7.2c-2.2,0-4.4,0-6.5,0c-1.7,0-1.5-0.3-1.8,1.5c-0.1,0.7-0.2,1.3-0.3,2c-0.2,0.8-0.1,1.4,0.8,1.8
		c0.5,0.3,0.9,1,1.3,1.5c0.2,0.2,0.4,0.5,0.6,0.5C-334.4,319-332.5,319-330.5,319z M-305.8,302.1c0.3,2.5,0.6,4.8,0.9,7.2
		c2,0,3.9,0.3,5.7-0.1c0.9-0.3,2.1-1.6,2.3-2.6c0.2-1.4-0.5-2.9-0.8-4.4C-300.5,302.1-303,302.1-305.8,302.1z M-330.5,282.5
		c-2.4,0-4.8,0-7.2,0c-0.3,2.4-0.6,4.7-0.9,7.1c2.8,0,5.4,0,8,0C-330.5,287.2-330.5,284.9-330.5,282.5z M-363,302.1
		c-1.6,0-3.2,0-4.6,0c-0.2,0-0.4,0.3-0.5,0.4c-0.8,1.4-1.8,2.1-3.4,2.4c-0.2,0-0.5,0.2-0.6,0.3c-0.3,1.3-0.7,2.6-1,3.9
		c3,0,5.9,0,8.8,0C-363.9,306.8-363.4,304.5-363,302.1z M-359.8,299.4c2.6,0,5.3,0,7.9,0c0.4-2.4,0.9-4.8,1.3-7.2
		c-2.4,0-4.7,0-7.1,0C-358.4,294.6-359,297-359.8,299.4z M-307.5,292.2c0.3,1.9,0.7,3.7,0.9,5.5c0.3,1.7,0.3,1.7,2,1.7
		c2,0,4,0,6.1,0c-0.8-2.5-1.5-4.9-2-7.2C-302.8,292.2-305.1,292.2-307.5,292.2z M-292.5,282.4c1.2,2.4,2.4,4.5,3.5,6.7
		c0.1,0.3,0.4,0.4,0.7,0.5c2.6,0,5,0,7.6,0c0-0.2,0-0.3,0-0.3c-1.6-2.2-3.2-4.4-4.9-6.6c-0.2-0.2-0.4-0.3-0.7-0.3
		C-288.3,282.4-290.4,282.4-292.5,282.4z M-341.3,292.3c-2.2,0-4.4,0-6.6,0c-0.4,2.4-0.9,4.7-1.3,7.1c2.6,0,5,0,7.5,0
		C-341.6,297-341.4,294.7-341.3,292.3z M-316.8,292.3c0.2,2.5,0.3,4.8,0.4,7.1c2.5,0,4.9,0,7.5,0c-0.4-2.5-0.9-4.8-1.4-7.1
		C-312.4,292.3-314.5,292.3-316.8,292.3z M-330.5,309.2c0-2.4,0-4.8,0-7.2c-1.5,0-2.8,0-4.3,0c-0.2,0-0.5,0.2-0.6,0.3
		c-0.9,2.2-1.8,4.4-2.6,6.7C-335.4,309.2-332.9,309.2-330.5,309.2z M-365.6,282.4c-0.9,0-1.6-0.1-2.4,0c-0.3,0-0.8,0.3-0.9,0.5
		c-1.1,1.9-2.7,2.6-4.9,2.1c-0.3-0.1-0.7,0-0.8,0.1c-1,1.4-2,2.7-3.2,4.4c2.8,0,5.5,0,8,0c0.2,0,0.4-0.2,0.5-0.3
		C-368,287-366.8,284.8-365.6,282.4z M-356.8,289.6c2.4,0,4.6,0,6.8,0c0.6-2.4,1.3-4.7,1.9-7.2c-1.1,0-2.2-0.3-3.2,0.1
		c-1.2,0.4-2.6,1-3.3,2C-355.6,285.9-356,287.8-356.8,289.6z M-362.4,299.5c0.7-2.5,1.4-4.8,2-7.2c-1.4,0-2.6,0-3.8,0
		c-0.3,0-0.6,0.2-0.8,0.4c-1.2,1.5-2.5,3.1-3.6,4.6c-0.4,0.6,0.4,2.1,1.1,2.1C-365.8,299.5-364.1,299.5-362.4,299.5z M-347.4,289.6
		c2.2,0,4.3,0,6.2,0c0.3-2.4,0.5-4.7,0.9-7.2c-1.6,0-3.1,0-4.5,0c-0.3,0-0.7,0.3-0.8,0.6C-346.1,285.2-346.7,287.4-347.4,289.6z
		 M-291,299.4c-0.1-2.4-0.6-4.6-1.5-6.7c-0.1-0.2-0.3-0.4-0.5-0.4c-1.5,0-3.1,0-4.6,0c0.7,2.5,1.4,4.8,2,7.2
		C-294.1,299.4-292.6,299.4-291,299.4z M-308,289.6c2.2,0,4.4,0,6.7,0c-0.5-1.4-1-2.6-1.6-3.9c-0.1-0.2-0.4-0.3-0.7-0.3
		c-1.5-0.2-2.6-0.9-3.4-2c-0.1-0.2-0.4-0.4-0.7-0.4c-0.7,0.1-1.4,0.3-2,0.4C-309.2,285.4-308.6,287.6-308,289.6z M-331.9,292.3
		c-2.2,0-4.5,0-6.9,0c-0.2,2.4-0.3,4.7-0.4,7.2c0.7,0,1.3,0,1.9,0c0.3,0,0.6-0.2,0.8-0.3C-334.9,296.9-333.4,294.6-331.9,292.3z
		 M-358.1,272.6c-1.2,0.1-2.5-0.3-3.2,0.3c-2.6,1.8-4.9,3.8-7.3,5.9c-0.2,0.1-0.2,0.5-0.2,0.7c0.1,0.2,0.3,0.4,0.6,0.4
		c0.7,0.1,1.5-0.1,2.1,0c1.7,0.3,2.7-0.3,3.7-1.8C-361.2,276.2-359.7,274.6-358.1,272.6z M-360.6,279.5c0.1,0.1,0.2,0.3,0.2,0.3
		c1.5,0,2.8,0,4.3,0c0.6,0,0.9-0.2,1.1-0.7c0.8-1.5,1.6-2.8,2.5-4.3c0.4-0.7,0.9-1.5,1.5-2.3c-0.9,0-1.6,0-2.3,0
		c-0.4,0-1,0.1-1.3,0.3C-356.6,275.2-358.6,277.4-360.6,279.5z M-320.5,282.5c-2.4,0-4.8,0-7.3,0c0,2,0,4.1,0,6.2
		c0.3-0.3,0.6-0.4,0.9-0.6c1.8-1.1,3.6-2.3,5.4-3.4C-320.2,284-320.2,284.1-320.5,282.5z M-312.3,283.8c-1.7,0.6-3.2,1.1-4.8,1.7
		c-0.2,0.1-0.3,0.4-0.3,0.6c0.1,1.2,0.3,2.3,0.3,3.5c2.1,0,4.1,0,6.2,0C-311.3,287.7-311.7,285.8-312.3,283.8z M-320.9,279.9
		c-0.3-1.5-0.5-2.7-0.9-4.1c-2,0-4.1,0-6.1,0c0,1.5,0,2.7,0,4.1C-325.5,279.9-323.2,279.9-320.9,279.9z M-288.5,302.1
		c-0.3,2.2-1,4.4-2.3,6.3c-0.3,0.4-0.1,0.9,0.4,0.9c1.8,0,3.6,0,5.5,0c-0.5-2-1-3.9-1.5-5.8C-286.8,302-286.8,302-288.5,302.1z
		 M-344.3,272.7c-0.9,0-1.5,0.1-2,0c-0.9-0.1-1.5,0.3-2,1c-0.7,1-1.4,2-2,3c-0.6,0.9-1.2,2-2,3.2c2.1-0.9,4-1.8,5.9-2.6
		c0.2-0.1,0.3-0.3,0.4-0.4C-345.5,275.5-345,274.2-344.3,272.7z M-337.1,279.8c2.3,0,4.5,0,6.7,0c0-1.3,0-2.6,0-3.9
		c-2,0.3-3.8,0.7-5.7,1c-0.3,0-0.5,0.3-0.6,0.6C-336.9,278.2-337.1,278.9-337.1,279.8z M-357.1,282.4c-1.6,0-3.2,0-4.9,0
		c-0.2,0-0.5,0.2-0.6,0.3c-1.3,2.2-2.6,4.4-4,6.8c0.3,0,0.6,0.1,0.6,0.1C-363,287.3-360.1,284.9-357.1,282.4z M-288.7,279.9
		c0-0.1,0.1-0.2,0.1-0.3c-1.7-1.5-3.4-3-5.2-4.4c-0.2-0.1-0.5-0.1-0.7,0c-0.8,0.5-1.5,1-2.1,1.6c0.7,0.9,1.3,1.9,2,2.6
		c0.2,0.2,0.4,0.4,0.6,0.4C-292.3,279.9-290.5,279.9-288.7,279.9z M-299.9,283.5c-0.8,0.8-0.8,0.8-0.4,1.5c0.5,1.3,1,2.6,1.5,3.9
		c0.1,0.3,0.3,0.7,0.6,0.7c1.4,0.1,2.7,0,4.3,0C-295.6,287-297.4,285-299.9,283.5z M-327.8,270.1c1.5,0,2.9,0,4.4,0
		c-1-2.6-2-4.9-4.4-6.7C-327.8,265.8-327.8,267.9-327.8,270.1z M-334.7,270.1c1.5,0,2.8,0,4.3,0c0-2.1,0-4.3,0-6.6
		C-332.7,265.3-333.7,267.6-334.7,270.1z M-313.6,279.9c-0.3-0.9-0.5-1.5-0.8-2.1c-0.1-0.3-0.3-0.7-0.5-0.8c-1.3-0.3-2.6-0.6-4-0.9
		c0.3,1.2,0.3,2.3,0.6,3.3c0,0.2,0.4,0.4,0.6,0.4C-316.4,279.9-315.1,279.9-313.6,279.9z M-292.6,306.7c0.5-1.5,1-3,1.6-4.6
		c-1.5,0-2.8,0-4.1,0c0.3,1.1,0.5,2,0.6,3.1C-294.4,306.2-293.9,306.7-292.6,306.7z M-313.9,272.7c0.5,0.9,0.8,1.9,1.4,2.2
		c1.6,0.9,3.3,1.4,5.3,2.1c-1.1-1.5-2-2.7-2.9-4c-0.1-0.2-0.3-0.3-0.6-0.3C-311.7,272.7-312.7,272.7-313.9,272.7z M-342.9,275.8
		c0.1,0.1,0.2,0.1,0.2,0.1c0.8-0.3,1.6-0.5,2.4-0.7c1.7-0.5,1.8-0.6,1.9-2.6c-0.9,0-1.6,0-2.5,0c-0.3,0-0.5,0.2-0.6,0.3
		C-342,274-342.4,274.9-342.9,275.8z M-330.4,295.2c-0.1,0-0.2-0.1-0.3-0.1c-1,1.4-2,2.8-3.1,4.3c1.3,0,2.3,0,3.3,0
		C-330.4,298-330.4,296.6-330.4,295.2z M-319.9,286.8c-1.6,0.9-3,1.8-4.4,2.6c0,0.1,0.1,0.1,0.1,0.2c1.5,0,3,0,4.6,0
		C-319.7,288.8-319.7,287.9-319.9,286.8z M-339.8,269.8c0.1,0.1,0.2,0.2,0.3,0.3c0.4,0,0.9,0,1.3,0c0.3,0,0.8-0.1,0.9-0.3
		c0.7-1.5,1.3-3,2-4.5c-0.1-0.1-0.2-0.1-0.2-0.2C-337.1,266.7-338.4,268.3-339.8,269.8z M-318.1,270c-1.5-1.7-2.8-3.2-4.2-4.7
		c-0.1,0.1-0.2,0.2-0.3,0.3c0.3,0.5,0.5,0.9,0.8,1.5s0.5,1.1,0.7,1.6c0.7,1.6,0.7,1.6,2.4,1.5C-318.6,270.1-318.5,270.1-318.1,270z
		 M-344.4,279.9c1.5,0,2.7,0,4.1,0c0.2,0,0.5-0.3,0.6-0.5c0.2-0.5,0.2-1.1,0.3-1.6C-341.8,278.2-344.1,279-344.4,279.9z M-312.7,270
		c-1.8-1.4-3.3-2.6-4.9-3.9c-0.1,0.1-0.1,0.2-0.2,0.2c0.6,0.8,1.3,1.5,1.7,2.4C-315.5,270.1-314.4,270.4-312.7,270z M-340.3,266.3
		c-0.1-0.1-0.1-0.2-0.2-0.2c-1.5,1.3-3.2,2.5-4.7,3.8c0.1,0.1,0.1,0.2,0.2,0.3c0.4,0,0.8,0.1,1.2,0c0.4-0.1,1-0.2,1.3-0.5
		C-341.8,268.6-341.1,267.4-340.3,266.3z M-335.9,274.1c1.7-0.3,3.3-0.4,4.9-0.7c0.2,0,0.3-0.3,0.5-0.4c-0.2-0.1-0.3-0.3-0.5-0.3
		c-1.2,0-2.3,0.1-3.5,0C-335.5,272.6-336,273-335.9,274.1z M-297.6,269.1c0.3-2.2,0.6-4.4,0.9-6.5c-0.8,1.7-1.2,3.4-1.8,5.1
		C-298.7,268.5-298.5,268.9-297.6,269.1z M-298.2,274.8c0.7-0.5,1.3-0.9,1.9-1.5c-1.1-1-2.3-0.4-3.6-0.3
		C-299.3,273.5-298.8,274.1-298.2,274.8z M-350.8,269.9c0.1,0.1,0.1,0.3,0.2,0.3c0.6-0.1,1.5,0,1.9-0.3c0.9-0.8,1.7-1.7,2.5-2.6
		c-0.1-0.1-0.1-0.2-0.2-0.2C-347.9,268-349.4,269-350.8,269.9z M-358.7,287c-1,0.9-2,1.7-3.2,2.6
		C-359.4,289.9-359.4,289.9-358.7,287z M-319.7,273c0.9,1,2.3,0.7,3.6,1.1C-316.7,272.5-316.9,272.5-319.7,273z M-308,279.7
		c-1.2-0.6-2.2-1-3.4-1.5C-311,280-310.5,280.2-308,279.7z M-322.5,273c0-0.1,0-0.1,0-0.2c-1.8,0-3.5,0-5.3,0c0,0.1,0,0.1,0,0.2
		C-326,273-324.3,273-322.5,273z M-307.1,270c-1.3-0.9-2.3-1.5-3.4-2.2c0,0.1-0.1,0.2-0.2,0.2C-309.6,268.8-309.3,270.6-307.1,270z
		 M-356.7,270c1.8,0.5,2.4-0.9,3.2-1.7C-354.5,268.9-355.5,269.4-356.7,270z M-339.2,302.1c0,0.9,0,1.7,0,2.6c0,0,0.1,0,0.2,0
		c0.3-0.9,0.7-1.7,1-2.6C-338.4,302.1-338.8,302.1-339.2,302.1z M-298.7,278.3c-0.3,0.5-0.6,0.9-0.9,1.4c0.6,0.1,1.2,0.2,1.8,0.3
		c0-0.1,0.1-0.2,0.1-0.3C-298,279.3-298.2,278.9-298.7,278.3z M-301.7,269.8c-0.9-0.4-1.7-0.9-2.6-1.4
		C-302.9,270.1-302.9,270.2-301.7,269.8z M-296.7,282.5c0.7,0.6,1.3,1.1,1.9,1.6C-295.5,282.4-295.5,282.4-296.7,282.5z
		 M-287.7,299.3c-0.3-0.7-0.4-1.3-0.8-2.1C-288.6,299.2-288.5,299.4-287.7,299.3z"/>
</g>
</svg>
