<?xml version="1.0" encoding="utf-8"?>
<!-- Generator: Adobe Illustrator 19.1.0, SVG Export Plug-In . SVG Version: 6.00 Build 0)  -->
<svg version="1.1" id="Layer_1" xmlns="http://www.w3.org/2000/svg" xmlns:xlink="http://www.w3.org/1999/xlink" x="0px" y="0px"
	 viewBox="-391.5 218.5 125 125" style="enable-background:new -391.5 218.5 125 125;" xml:space="preserve">
<style type="text/css">
	.st0{fill:none;stroke:#A3BB3A;stroke-width:1.5;stroke-miterlimit:10;}
</style>
<g id="XMLID_27_">
	<path id="XMLID_9513_" class="st0" d="M-280.3,304.2c3.8,0,7.4,0,11,0c0.9,4.1-1.1,6.9-5.3,6.9c-36.1,0-72.2,0-108.4,0
		c-2.2,0-3.8-0.9-5.2-2.6c-1-1.3-0.8-2.8-0.8-4.3c3.7,0,7.3,0,11.1,0c0-0.5,0-0.9,0-1.3c0-15.7,0-31.3,0-47c0-3.4,1.6-5,4.9-5
		c29.1,0,58,0,87.1-0.1c2.8,0,5.4,2.5,5.4,5.4c-0.1,15.4,0,30.9,0,46.3C-280.3,303.2-280.3,303.6-280.3,304.2z M-284.7,301
		c0-15.3,0-30.4,0-45.7c-29.7,0-59.5,0-89.2,0c0,15.3,0,30.4,0,45.7C-344.1,301-314.5,301-284.7,301z M-321.4,304.8
		c-5.3,0-10.5,0-15.8,0c0,0.4,0,0.8,0,1.1c5.3,0,10.6,0,15.9,0C-321.4,305.4-321.4,305.1-321.4,304.8z"/>
	<path id="XMLID_9517_" class="st0" d="M-370,266.4c0-4.7,3.8-8.5,8.5-8.5c4.7,0,8.5,3.9,8.5,8.5c0,4.7-3.8,8.5-8.5,8.5
		C-366.2,274.9-370,271.1-370,266.4z M-361.6,258.4c-4.6-0.1-8.3,3.9-8,8.5c0.3,4.7,4.5,8,9.2,7.5c3.9-0.4,7.4-4.7,6.7-8.1
		c-2.6,0-5.3,0-8,0C-361.6,263.6-361.6,261-361.6,258.4z"/>
	<path id="XMLID_9520_" class="st0" d="M-326.7,266.4c0-4.7,3.8-8.5,8.5-8.6c4.7,0,8.5,3.9,8.6,8.5c0.1,4.7-3.8,8.5-8.5,8.6
		C-322.9,275-326.7,271.1-326.7,266.4z M-318.2,274.3c2.8,0.3,6-1.7,7.3-4.7c1.5-3.2,0.7-6.9-2-9.3c-2.5-2.3-6.4-2.8-9.4-1
		c-2.7,1.5-4.5,4.7-4,7.2c2.6,0,5.2,0,7.9,0C-318.2,269.1-318.2,271.7-318.2,274.3z"/>
	<path id="XMLID_9523_" class="st0" d="M-348.4,266.4c0-4.7,3.8-8.5,8.5-8.6c4.7,0,8.5,3.8,8.5,8.5c0,4.7-3.8,8.5-8.5,8.6
		C-344.5,275-348.4,271.1-348.4,266.4z M-331.8,266.3c0.2-3.2-2-6.3-5.1-7.5c-3.2-1.3-6.9-0.3-9.1,2.3c-2.2,2.7-2.5,6.6-0.6,9.5
		c1.6,2.5,4.7,4.1,6.9,3.5c0-2.6,0-5.2,0-7.9C-337,266.3-334.4,266.3-331.8,266.3z"/>
	<g id="XMLID_9526_">
		<path id="XMLID_9527_" class="st0" d="M-293.7,265c1.8,0,3.7,0,5.5,0c0,10.5,0,21.1,0,31.7c-1.8,0-3.7,0-5.5,0
			C-293.7,286.1-293.7,275.6-293.7,265z"/>
		<path id="XMLID_9528_" class="st0" d="M-300.2,270.8c1.9,0,3.7,0,5.5,0c0,8.6,0,17.3,0,26c-1.8,0-3.7,0-5.5,0
			C-300.2,288.1-300.2,279.4-300.2,270.8z"/>
		<path id="XMLID_9529_" class="st0" d="M-301.1,296.7c-1.8,0-3.7,0-5.5,0c0-6.7,0-13.4,0-20.2c1.8,0,3.7,0,5.5,0
			C-301.1,283.3-301.1,289.9-301.1,296.7z"/>
		<path id="XMLID_9530_" class="st0" d="M-307.8,282.3c0,4.8,0,9.6,0,14.4c-1.8,0-3.7,0-5.6,0c0-4.8,0-9.6,0-14.4
			C-311.5,282.3-309.7,282.3-307.8,282.3z"/>
		<path id="XMLID_9531_" class="st0" d="M-319.9,288c1.9,0,3.7,0,5.5,0c0,2.8,0,5.8,0,8.6c-1.8,0-3.7,0-5.5,0
			C-319.9,293.8-319.9,291-319.9,288z"/>
	</g>
</g>
</svg>
