<?xml version="1.0" encoding="utf-8"?>
<!-- Generator: Adobe Illustrator 19.1.0, SVG Export Plug-In . SVG Version: 6.00 Build 0)  -->
<svg version="1.1" id="Layer_1" xmlns="http://www.w3.org/2000/svg" xmlns:xlink="http://www.w3.org/1999/xlink" x="0px" y="0px"
	 viewBox="-391.5 218.5 125 125" style="enable-background:new -391.5 218.5 125 125;" xml:space="preserve">
<style type="text/css">
	.st0{fill:none;stroke:#A3BB3A;stroke-width:2;stroke-miterlimit:10;}
	.st1{fill:#A4BB3A;}
</style>
<g>
	<path id="XMLID_9283_" class="st0" d="M-342.7,234.5c12.7,6.8,25.5,13.6,38.1,20.3c-3,2.5-6.1,3-9.4,1.1c-4.9-2.8-9.7-5.8-14.6-8.7
		c-6.1-3.6-12.1-7.3-18.7-10c-1.1-0.4-2.3-0.8-3.5-1.2c-3.6-1.1-5.9-4-5.8-7.4c0.1-3.3,2.5-6.2,6-7.2c3.5-0.9,7.3,0.4,9.2,3.2
		c2,2.9,1.7,6.5-0.8,9.1C-342.3,234-342.4,234.3-342.7,234.5z M-348.2,224.7c-2.4,0-4.5,1.8-4.5,4c-0.1,2.3,1.9,4.2,4.4,4.2
		c2.4,0,4.5-1.9,4.5-4.1C-343.8,226.6-345.8,224.7-348.2,224.7z"/>
	<path id="XMLID_9286_" class="st0" d="M-338.5,243.1c-1.4,0.8-2.7,1.4-3.7,2c0.8,1.5,1.7,2.8,2,4.2c1,4-1.7,7.8-6,8.9
		c-4.2,1-8.6-1.3-10-5.1c-1.3-3.9,0.9-8,5.1-9.4c2.4-0.8,4.9-1.8,7.3-2.7c0.3-0.1,0.8-0.3,1-0.1
		C-341.3,241.6-340.1,242.3-338.5,243.1z M-348.2,246.8c-2.4,0-4.4,1.8-4.4,4.1s1.9,4.1,4.5,4.1c2.4,0,4.4-1.9,4.4-4.1
		C-343.8,248.7-345.7,246.8-348.2,246.8z"/>
	<path id="XMLID_9300_" class="st0" d="M-304.4,224.9c-0.5,0.3-0.8,0.5-1.2,0.7c-8,4.3-16,8.6-24.1,12.9c-0.7,0.4-1.3,0.4-1.9,0
		c-1.1-0.7-2.2-1.2-3.6-2c0.3-0.1,0.5-0.2,0.7-0.3c5.7-3.5,11.4-6.9,17-10.4c1.4-0.8,2.9-1.6,4.3-2.4c1.9-1,3.7-1,5.6-0.2
		C-306.5,223.8-305.5,224.3-304.4,224.9z"/>
	<path id="XMLID_9301_" class="st1" d="M-380.5,241.8c0,0.8,0.1,1.4,0,2c-0.1,1.2-1,2-2.3,1.9c-1.2-0.1-2-0.8-2.1-2
		c-0.1-1.4-0.1-2.6,0-4c0.1-1.3,0.8-2,2.2-2c1.4-0.1,3-0.1,4.4,0c1.3,0.1,2.1,0.9,2.1,1.9c0,1.1-0.8,1.9-2.1,2
		C-379,241.8-379.6,241.8-380.5,241.8z"/>
	<path id="XMLID_9302_" class="st1" d="M-277.4,241.8c-0.8,0-1.5,0-2.2,0c-1.3-0.1-2.2-0.9-2.2-2.1c0-1.1,0.9-1.9,2.2-1.9
		c1.4-0.1,3-0.1,4.4,0c1.3,0.1,2,0.8,2.1,1.9c0.1,1.4,0.1,2.7,0,4.1c-0.1,1.2-0.9,1.9-2.1,1.9c-1.3,0-2.1-0.8-2.2-2
		C-277.5,243.1-277.4,242.5-277.4,241.8z"/>
	<path id="XMLID_9303_" class="st1" d="M-277.4,336.6c0-0.8,0-1.4,0-2c0.1-1.2,1-2,2.2-2s2.1,0.8,2.1,1.9c0.1,1.4,0.1,2.7,0,4.1
		c-0.1,1.3-0.9,1.9-2.2,2c-1.4,0-2.9,0.1-4.3,0c-1.3-0.1-2.2-0.9-2.2-2s0.9-1.9,2.2-1.9C-278.9,336.6-278.3,336.6-277.4,336.6z"/>
	<path id="XMLID_9304_" class="st1" d="M-380.5,336.6c0.9,0,1.6,0,2.4,0c1.2,0.1,2,0.9,2,1.9s-0.8,1.9-1.9,2c-1.6,0.1-3.2,0.1-4.8,0
		c-1.1-0.1-1.9-0.7-1.9-1.8c-0.1-1.4-0.1-3,0-4.4c0.1-1.1,1-1.9,2.1-1.9s2,0.8,2.2,1.9C-380.4,335.1-380.5,335.8-380.5,336.6z"/>
	<path id="XMLID_9305_" class="st1" d="M-294.7,340.7c-0.8,0-1.4,0-2.1,0c-1.3-0.1-2.1-0.9-2.1-2s0.9-2,2.2-2c1.4,0,3-0.1,4.4,0
		c1.3,0,2.1,0.9,2.1,1.9c0,1.1-0.8,1.9-2.1,2C-293.1,340.7-293.9,340.7-294.7,340.7z"/>
	<path id="XMLID_9306_" class="st1" d="M-363.3,336.6c0.8,0,1.5,0,2.3,0c1.2,0.1,2,0.8,2.1,1.9c0.1,1-0.8,2-2,2.1
		c-1.5,0.1-3.1,0.1-4.6,0c-1.2-0.1-2.1-1-2.1-2c0-1.1,0.9-1.9,2.1-1.9C-364.8,336.6-364,336.6-363.3,336.6z"/>
	<path id="XMLID_9307_" class="st1" d="M-311.8,340.7c-0.8,0-1.5,0-2.3,0c-1.3-0.1-2.1-0.9-2.1-2s0.8-1.9,2.2-2c1.4,0,3-0.1,4.4,0
		c1.3,0,2.1,0.9,2.1,1.9c0,1.1-0.8,1.9-2.1,2C-310.3,340.7-311,340.7-311.8,340.7z"/>
	<path id="XMLID_9308_" class="st1" d="M-362.3,237.7c0.8,0,1.5,0,2.3,0c1.2,0.1,2,0.8,2.1,1.9c0.1,1-0.7,2-1.9,2.1
		c-1.7,0.1-3.4,0.1-5,0c-1.2-0.1-1.9-1-1.9-2.1c0.1-1.1,0.8-1.8,2.1-1.9C-363.8,237.7-363,237.7-362.3,237.7z"/>
	<path id="XMLID_9309_" class="st1" d="M-380.5,257.6c0,0.7,0.1,1.4,0,2c-0.1,1.1-1,1.9-2.2,1.9s-2.1-0.8-2.1-1.9
		c-0.1-1.4-0.1-2.8,0-4.2c0.1-1.2,1-1.9,2.1-1.9s2,0.8,2.2,1.9c0,0.1,0,0.2,0,0.3C-380.5,256.3-380.5,257-380.5,257.6L-380.5,257.6z
		"/>
	<path id="XMLID_9310_" class="st1" d="M-273.1,257.6c0,0.7,0.1,1.4,0,2.1c-0.1,1.1-1,1.9-2.1,1.9s-2.1-0.8-2.2-1.8
		c-0.1-1.5-0.1-3,0-4.5c0.1-1.1,1.2-1.8,2.2-1.8c1.1,0.1,2,0.8,2.1,1.9C-273,256.2-273.1,256.9-273.1,257.6z"/>
	<path id="XMLID_9311_" class="st1" d="M-312.3,237.7c0.8,0,1.4,0,2.1,0c1.3,0.1,2.1,0.8,2.1,1.9c0,1-0.8,1.9-1.9,2
		c-1.6,0.1-3.3,0.1-4.9,0c-1.2-0.1-1.9-1-1.9-2c0.1-1,0.8-1.9,2-1.9c0.1,0,0.2,0,0.3,0C-313.7,237.7-313,237.7-312.3,237.7
		L-312.3,237.7z"/>
	<path id="XMLID_9312_" class="st1" d="M-273.1,273.3c0,0.7,0,1.4,0,2.1c-0.1,1.2-0.9,1.9-2.1,1.9s-2.1-0.8-2.2-1.9
		c-0.1-1.4-0.1-2.9,0-4.3c0.1-1.1,1.1-1.9,2.3-1.9c1.2,0.1,1.9,0.8,2,1.9C-273,272-273.1,272.7-273.1,273.3L-273.1,273.3z"/>
	<path id="XMLID_9313_" class="st1" d="M-380.5,273.3c0,0.7,0,1.4,0,2c-0.1,1.3-1,2-2.2,2c-1.3,0-2.1-0.8-2.2-2
		c-0.1-1.4-0.1-2.6,0-4c0.1-1.3,0.9-2,2.2-2s2.1,0.8,2.2,2C-380.5,272.1-380.5,272.7-380.5,273.3z"/>
	<path id="XMLID_9314_" class="st1" d="M-273.1,289.2c0,0.7,0.1,1.4,0,2.1c-0.1,1.1-0.9,1.9-2,1.9s-2.2-0.7-2.3-1.8
		c-0.1-1.5-0.1-3.1,0-4.6c0.1-1.1,1.2-1.8,2.3-1.7c1.1,0.1,1.9,0.8,2,1.9c0,0.1,0,0.2,0,0.3C-273.1,287.9-273.1,288.5-273.1,289.2
		L-273.1,289.2z"/>
	<path id="XMLID_9315_" class="st1" d="M-380.5,289.3c0,0.7,0.1,1.4,0,2c-0.1,1.2-1.1,2-2.3,1.9c-1.2-0.1-2-0.8-2.1-2
		c-0.1-1.4-0.1-2.7,0-4.1c0.1-1.2,0.9-1.9,2.1-2c1.2,0,2.1,0.8,2.2,1.9C-380.4,287.8-380.5,288.5-380.5,289.3L-380.5,289.3z"/>
	<path id="XMLID_9316_" class="st1" d="M-346.2,340.7c-0.8,0-1.5,0.1-2.3,0c-1.2-0.1-2.1-1-2-2c0-1.1,0.9-1.9,2.1-1.9
		c1.5-0.1,3-0.1,4.6,0c1.2,0,2,0.8,2,1.9c0.1,1.1-0.8,2-2,2.1C-344.6,340.7-345.4,340.7-346.2,340.7z"/>
	<path id="XMLID_9317_" class="st1" d="M-329,336.6c0.8,0,1.6,0,2.4,0c1.2,0.1,1.9,0.8,2,1.9c0,1-0.8,1.9-1.9,2
		c-1.6,0.1-3.3,0.1-4.9,0c-1.2-0.1-1.9-1-1.9-2s0.8-1.9,2-1.9C-330.5,336.6-329.8,336.6-329,336.6z"/>
	<path id="XMLID_9318_" class="st1" d="M-273.1,320.8c0,0.8,0.1,1.4,0,2.2c-0.1,1.1-0.9,1.8-2,1.9c-1.1,0.1-2.2-0.6-2.3-1.7
		c-0.1-1.5-0.1-3.1,0-4.6c0.1-1.1,1.1-1.8,2.2-1.8c1.1,0.1,1.9,0.8,2,1.9C-273,319.4-273.1,320.1-273.1,320.8L-273.1,320.8z"/>
	<path id="XMLID_9319_" class="st1" d="M-294.9,241.8c-0.8,0-1.4,0-2.1,0c-1.4-0.1-2.2-0.9-2.2-2s0.8-1.9,2.2-2c1.4,0,2.9,0,4.3,0
		c1.4,0,2.2,0.8,2.2,2c0,1.1-0.9,1.9-2.2,2C-293.5,241.8-294.2,241.8-294.9,241.8z"/>
	<path id="XMLID_9320_" class="st1" d="M-384.9,305c0-0.7-0.1-1.4,0-2.1c0.1-1.1,0.9-1.9,2.1-1.9c1.1,0,2.1,0.7,2.2,1.8
		c0.1,1.5,0.1,3,0,4.5c-0.1,1.1-1.1,1.8-2.2,1.8c-1.2,0-2-0.8-2.1-1.9C-384.9,306.3-384.9,305.7-384.9,305L-384.9,305z"/>
	<path id="XMLID_9321_" class="st1" d="M-384.9,320.9c0-0.7,0-1.4,0-2.1c0.1-1.2,1-1.9,2.1-1.9c1.2,0,2.1,0.8,2.2,1.9
		c0.1,1.4,0.1,2.9,0,4.3c-0.1,1.1-1.1,1.9-2.3,1.9c-1.1-0.1-1.9-0.8-2-1.9C-384.9,322.2-384.9,321.5-384.9,320.9L-384.9,320.9z"/>
	<path id="XMLID_9322_" class="st1" d="M-273.1,305.1c0,0.7,0.1,1.4,0,2.1c-0.1,1.1-0.9,1.9-2.1,1.9c-1.1,0-2.1-0.7-2.2-1.8
		c-0.1-1.5-0.1-3,0-4.5c0.1-1.1,1.1-1.8,2.2-1.8c1.2,0,2,0.8,2.1,1.9C-273,303.6-273.1,304.3-273.1,305.1z"/>
	<g id="XMLID_9323_">
		<path id="XMLID_9324_" class="st0" d="M-320.1,310.1c-1.4-2.4-2.9-4.8-4.4-7.3c-0.2-0.3-0.2-0.5-0.2-0.8c0-12.1,0-24.1,0-36.2
			c0-0.2,0-0.3,0.1-0.4c3.9,0,7.7,0,11.6,0c0,0.3,0.1,0.7,0.1,1c0,12.2,0,24.6,0,36.8c0,0.5-0.3,1.1-0.6,1.5c-1.3,1.5-2.7,2.9-4,4.4
			C-318.3,309.6-318.9,310.3-320.1,310.1z"/>
		<path id="XMLID_9325_" class="st0" d="M-329.1,327.2c-3.9,0-7.7,0-11.6,0c0-0.3-0.1-0.7-0.1-1c0-11.9,0-23.8,0-35.8
			c0-0.7,0.2-1.1,0.8-1.5c0.4-0.3,0.8-0.6,1.2-0.9c1.1-0.8,1.9-2,3.8-1.6c0.9,1.6,1.9,3.5,3,5.1c2.4,3.2,3,6.7,3,10.6
			c-0.3,8-0.1,16-0.1,24C-329.1,326.4-329.1,326.8-329.1,327.2z"/>
		<path id="XMLID_9326_" class="st0" d="M-357.4,287.4c1.4,3.1,2.6,6.2,4,9.3c0.1,0.3,0,0.6-0.1,0.8c-0.2,0.8,0.3,1.5,1.1,1.6
			c0.8,0.2,1.5-0.3,1.8-1.2c0.1-0.4,0.3-0.8,0.6-1.1c1.5-1.3,3.1-2.5,4.7-3.9c0,11.4,0,22.7,0,34.1c-4.1,0-8.1,0-12.2,0
			c0-13.3,0-26.5,0-39.8C-357.4,287.4-357.4,287.4-357.4,287.4z"/>
		<path id="XMLID_9327_" class="st0" d="M-296.3,327.2c-4.1,0-8.1,0-12.3,0c0-0.3,0-0.7,0-1c0-8.3,0-16.5,0-24.8
			c0-0.5,0.3-1.1,0.6-1.5c0.8-1,1.8-1.9,2.7-3c0.8-0.9,1.5-2.1,3.4-1.9c1.8,1.9,3.6,3.9,5.5,6c0.2,0.3,0.3,0.6,0.3,0.8
			c0,8.2,0,16.5,0,24.6C-296.3,326.7-296.3,326.9-296.3,327.2z"/>
		<path id="XMLID_9328_" class="st0" d="M-352.8,296.7c-1.6-3.7-3.1-7.3-4.6-10.9c-0.1-0.3-0.2-0.6-0.2-0.8c0-6.4,0-12.8,0-19.2
			c0-0.2,0-0.3,0-0.5c4.1,0,8.2,0,12.4,0c0,0.3,0,0.7,0,0.9c0,8.2,0,16.4,0,24.6c0,0.6-0.2,1-0.7,1.4c-1.7,1.3-3.3,2.7-5,4
			C-351.4,296.5-352.1,296.5-352.8,296.7z"/>
		<path id="XMLID_9329_" class="st0" d="M-324.4,304.1c1.3,2.1,2.4,4.1,3.7,6.2c0.2,0.3,0.1,0.7,0.1,1c0.1,0.8,0.7,1.4,1.5,1.3
			c0.8-0.1,1.5-0.7,1.3-1.4c-0.2-0.6,0.1-0.8,0.4-1.3c1.4-1.5,2.8-3,4.3-4.6c0,7.4,0,14.6,0,21.9c-3.9,0-7.7,0-11.6,0
			c0-7.7,0-15.3,0-23C-324.6,304.2-324.5,304.2-324.4,304.1z"/>
		<path id="XMLID_9330_" class="st0" d="M-296.3,284.8c0,5,0,9.9,0,14.9c-0.2-0.1-0.3-0.1-0.3-0.2c-1.6-1.7-3.2-3.5-4.8-5.2
			c-0.2-0.2-0.3-0.5-0.3-0.8c-0.3-0.8-0.8-1.1-1.7-1c-0.8,0.1-1.2,0.7-1.2,1.5c0,0.4-0.1,0.8-0.3,1.1c-1.1,1.3-2.3,2.5-3.5,3.9
			c0-4.8,0-9.5,0-14.3C-304.5,284.8-300.5,284.8-296.3,284.8z"/>
		<path id="XMLID_9331_" class="st0" d="M-340.7,288.1c0-4,0-7.7,0-11.4c3.9,0,7.7,0,11.6,0c0,6,0,12,0,18.1
			c-0.3-0.3-0.4-0.5-0.6-0.8c-1.4-2.4-2.9-4.7-4.2-7.2c-0.3-0.6-0.5-1.4-0.7-2c-0.2-0.7-0.5-1.1-1.3-1.2c-0.8-0.1-1.5,0.2-1.5,0.9
			c-0.1,0.9-0.8,1.4-1.4,1.9C-339.3,287-340,287.5-340.7,288.1z"/>
	</g>
</g>
</svg>
