<?xml version="1.0" encoding="utf-8"?>
<!-- Generator: Adobe Illustrator 19.0.0, SVG Export Plug-In . SVG Version: 6.00 Build 0)  -->
<svg version="1.1" id="Layer_1" xmlns="http://www.w3.org/2000/svg" xmlns:xlink="http://www.w3.org/1999/xlink" x="0px" y="0px"
	 viewBox="0 0 1200 1200" style="enable-background:new 0 0 1200 1200;" xml:space="preserve">
<style type="text/css">
	.st0{fill:#F2F2F2;}
	.st1{fill:#C0BFBF;}
	.st2{fill:#E5E5E5;}
</style>
<g id="XMLID_1_">
	<g id="XMLID_14892_">
		<polygon id="XMLID_14899_" class="st0" points="82.2,327.3 114.8,1042.3 801.9,1177.1 899.8,748.9 790,451.3 		"/>
		<polygon id="XMLID_14896_" class="st1" points="790,451.3 801.9,1177.1 1126.5,848.7 1115.3,155.5 		"/>
		<polygon id="XMLID_14893_" class="st2" points="82.2,327.3 790,451.3 1115.3,155.5 454.3,27 		"/>
	</g>
	<g id="XMLID_15664_">
		<path id="XMLID_15676_" d="M314.1,428.9c-2.6-5.5-5-10.5-7.3-15.5c0.3-0.3,0.6-0.5,0.9-0.8c6.9,5.7,13.9,11.4,21.2,17.4
			c3.6-3.5,7.1-7,11.7-11.5c-0.7,6.5-1.2,11.5-1.7,17.2c2.9,1.4,5.8,2.8,8.8,4.2c41.7,19.5,78.4,46.9,108.1,84.8
			c23.3,29.7,33,61.9,34.5,95.5c1.5,33.2-2.2,64.8-12.9,93.8c-10.6,28.6-26.3,53.3-51.1,70c-0.7,0.5-1.3,1.1-2.2,1.8
			c3.5,3.9,6.8,7.4,10,11.2c21.8,25.9,33.4,55,40.2,85.5c7.8,34.8,9.2,68.9,9.3,102.8c0,6.3-3.5,9.5-8.8,10.5
			c-7.2,1.2-14.7,1.5-21.9,2.7c-1.8,0.3-4,1.8-4.3,3.3c-6,39.1-33.4,45.6-62.1,43.8c-14.1-0.9-28.4-2.7-42.7-5.6
			c-30.9-6.4-61.9-13-92.7-21c-11.9-3.1-24.1-9.1-35.2-15.8C195.5,990.6,185,971.8,182,950c-1-6.9-3.4-10.8-10.1-13.6
			c-6.4-2.7-12.6-6.4-18.6-10.1c-5-3.1-8.1-7.7-8.1-13.4c0.3-42.2,3.1-83.6,18.5-120.3c9-21.4,17.6-32,40.1-49.9
			c-0.4-0.6-0.7-1.4-1.2-1.9c-21.1-22.3-35.9-47.4-47.6-74.9c-20-46.7-24.4-91.8-18.4-136.2c6.8-51.2,35.7-82.2,82.5-96.1
			c28.8-8.5,59.5-9.6,91.7-5.1C311.5,428.6,312.4,428.7,314.1,428.9z M414.3,675.7c-3.8-0.4-6.1-0.4-8.4-0.9
			c-24.3-5.5-48.7-10.2-72.9-17c-16.2-4.6-32.8-10.7-48.3-18.7c-30.8-15.9-56.3-40.4-80.4-66.4c-1.7-1.8-3.4-3.6-5.7-6.1
			c-5.8,18.9-15.4,33.9-30.2,44.4c-3.8,2.7-4.3,6.4-3.7,11.2c9.7,72.5,66.3,137.4,137.6,157.5c68,19.2,131.1-10.1,151.7-70.6
			c2.5-7.4,4.1-15.4,6.2-23.5c-23.1-2.6-42-17.8-62.8-25.5C402.6,664.9,407.7,669.7,414.3,675.7z M383.7,803.4
			c3.6,4.7,7.2,9.4,10.8,14.2c6.6,8.8,6.5,11.3-1.1,15.7c-3.6,2.1-7.2,4.2-10.8,6.3c1.6,3.2,2.6,6,4.2,8.5
			c4.6,7.1,3.4,11.9-1.2,16.8c-20.8,22-41.2,44.4-61.7,66.6c-1.3,1.4-2.9,3-3,4.8c-0.3,9.1-0.1,18.4-0.1,27.6
			c36.4,7.7,72,15.3,108.1,23c2.9-33-1.9-67.1-1.3-100.2c5.1,29.7,10.3,59.4,15.5,89.6c4.8-0.4,9.2-0.7,13.6-1
			c3.9-0.3,5.4-2.3,5.1-6.6c-1.8-23.3-2.4-46.4-5.3-69.8c-3.2-26.2-10.9-52.2-26.9-76.4c-6.6-10-14.9-19-22-28
			C398.8,797.8,391.4,800.6,383.7,803.4z M187,922.3c5.3-28,10.4-55.4,15.1-80.4c0,7.7,0.2,17.8,0,27.8c-0.4,20.4-1.1,40.7-1.5,61.1
			c-0.1,8.7,0.2,8.7,8.6,10.5c29.2,6.2,58.4,12.4,87.6,18.6c2.2,0.5,4.5,1,7.1,1.5c0-8.8,0.3-16.7-0.1-24.6c-0.2-3-1.3-6.7-3.1-9.5
			c-21.1-32.1-42.3-64.2-63.7-96.2c-2.9-4.4-3.5-7.7-1-11.2c2.1-2.9,3.9-6.2,5.9-9.6c-4.4-4.4-8.4-8.5-12.4-12.7
			c-5.2-5.4-5.5-8.7-1-12.9c4-3.7,8.2-7.4,12.5-11.2c-6.4-5-12.4-9.6-18.6-14.4c-1.5,0.9-3.1,1.7-4.6,2.6
			c-19,11.9-30.5,30.1-38.1,51.7c-9.7,27.6-12.5,57.7-13.4,88.6c-0.3,9.6-0.4,9.6,8.7,14.2C178.7,918,182.4,920,187,922.3z
			 M204,956.3c0.3,1.4,0.4,2.2,0.7,2.9c4.9,15.8,16.1,25.9,30.5,31.9c10.9,4.5,22.2,8.2,33.3,10.9c37.3,8.9,74.6,17.9,111.7,21.3
			c11.8,1.1,23.2,0.5,32.8-4.9c5.7-3.2,9.6-8.1,11.8-15.1C350.8,987.5,277.8,972,204,956.3z M287.3,883.1
			c-4.5-16.4-9.3-31.5-12.5-46.6c-3.2-15.2-4.6-30.3-6.9-45.5c-0.6-3.8-11.5-10.2-14.3-8.1c-3.8,2.8-7.2,6.3-10.8,9.6
			c3.7,3.7,6.7,6.8,9.8,9.8c7.4,7.4,7.6,8.5,2.8,15.9c-1.4,2.1-3,3.9-3.9,6.2c-0.5,1.4-0.5,3.8,0.4,5.1
			C263.1,847,274.8,864.4,287.3,883.1z M381.8,822.1c-2.5-3.4-5.2-6.1-6.8-9.2c-3.5-6.8-7.9-6.1-13.2-5.9c-5.8,0.2-5.4,4.4-5.9,8.4
			c-2.8,20.2-5.3,40.6-12.4,59c-2.2,5.8-4.1,11.7-6.1,17.6c9.9-9,18.3-19.3,28.1-28c7.6-6.9,10.8-13.6,2.3-25c-3-4-1.9-7.6,1.8-9.7
			C373.4,827.1,377.3,824.7,381.8,822.1z M293,808.2c-8.6,3.6-8.5,3.6-7.1,13.5c0.7,4.5,0.8,9,1.6,13.5c1.4,7.5,3.2,14.9,4.8,22.4
			c0.5,0,1,0,1.6,0c1.7-6.3,2.6-13.2,5.2-18.9C304.1,828.2,299,818.4,293,808.2z M329.1,864c0.7,0.2,1.3,0.4,2,0.7
			c2.3-11,4.5-21.9,6.8-32.9c1.8-9,1.8-9.1-7.4-16.4c-1.7,2.9-3.7,5.5-5,8.6c-1.4,3.1-3.5,6.6-3,10C324.1,844,326.9,854,329.1,864z
			 M340.8,816.8c0.5-3.5,0.9-6.1,1.4-9.3c-3.8-0.3-6.8-0.6-11-0.9C334.7,810.3,337.4,813.1,340.8,816.8z M283.7,804.6
			c3.4-2.2,6-3.9,9.3-6c-4.1-1.4-7-2.4-10.5-3.6C283,798.3,283.3,800.9,283.7,804.6z"/>
		<path id="XMLID_15672_" d="M566,793c0-24.6,0-48.4,0-72.5c1.1,0,2-0.1,2.9,0.1c34.8,7.6,69.6,15.1,104.4,23
			c6.5,1.5,13.1,4.1,19.4,7.1c30.8,14.3,48.5,40.2,51.7,75.2c1.4,16.2,1.2,31.9-2.9,46.6c-7.7,27.3-27.2,40.6-56.9,38.2
			c-8.2-0.7-16.6-2-24.8-3.7c-29.2-6-58.4-12.3-87.6-18.5c-1.9-0.4-3.8-0.8-6-1.3c0-24.4,0-48.3,0-73.1c2.3,0.5,4.5,1,6.7,1.4
			c29.4,6.2,58.8,12.5,88.2,18.7c10,2.1,14.5-4.2,10.2-14.4c-0.7-1.8-3-3.7-4.8-4.5c-3.2-1.4-6.5-2.2-9.8-2.9
			c-27.8-6-55.7-11.9-83.5-17.8C570.8,794,568.6,793.5,566,793z M620.9,884.3c20.4,4.3,40.4,9.8,60.1,12.5
			c23.2,3.2,40.1-5.6,48.2-26.4c5.5-14.2,6.5-29.9,4.7-46.4c-3.5-32.8-20.4-54.6-52.1-64.8c-17.4-5.6-35.1-8.4-52.7-12.4
			c-2.4-0.6-4.9-1-7.3-1.6c0,16.1,0,31.5,0,47.3c2.7,0.6,5,1,7.3,1.5c12.6,2.8,25.1,5.3,37.7,8.4c8.6,2.2,16,7.5,17.7,16.8
			c1.3,6.8,0.7,13.9-0.3,20.4c-0.9,5.5-5.4,8.2-11.1,8.2c-4.1,0-8.4-0.6-12.6-1.4c-13.1-2.6-26.2-5.5-39.6-8.4
			C620.9,854,620.9,869.4,620.9,884.3z"/>
		<path id="XMLID_15633_" d="M464.6,785.4c11.1-0.4,22.3-0.7,34.1-1.1c-1.5-7-2.9-13.8-4.6-21.7c18.6,7.9,36.7,15.6,54.8,23.3
			c0,0.4,0,0.9,0,1.3c-10.6-0.2-21.3-0.3-32.5-0.5c1.5,7.1,2.9,13.9,4.6,21.7c-19.2-7.4-37.8-14.6-56.4-21.8
			C464.6,786.2,464.6,785.8,464.6,785.4z"/>
		<path id="XMLID_15631_" d="M365.7,715.4c0,3.7,0.4,7.5-0.1,11c-1,8-7.5,12-15.5,10.1c-7.6-1.8-14.2-8.8-14.8-16.8
			c-0.5-7.2-0.6-14.4,0-21.4c0.6-7.6,7.4-11.9,14.9-10.4c7.7,1.5,14.4,8.7,15.3,17C366.1,708.5,365.7,712,365.7,715.4
			C365.7,715.5,365.7,715.4,365.7,715.4z"/>
		<path id="XMLID_15628_" d="M259.5,692.6c0-3.3-0.2-6.6,0-9.8c0.5-7.7,7.2-12.5,15-10.9c7.7,1.6,14.8,9.2,15.2,17
			c0.4,7,0.3,14,0,20.8c-0.4,7.8-7,12.4-15,10.8c-8.2-1.7-14.8-9.2-15.3-17.5C259.3,699.5,259.5,696.1,259.5,692.6
			C259.5,692.6,259.5,692.6,259.5,692.6z"/>
		<path id="XMLID_15625_" d="M312,763.9c-8.4-3.8-16.6-7.2-24.7-11.3c-4.7-2.4-6.8-7.2-4.9-10.4c2.3-4,5.6-3.5,10.2-0.6
			c12.9,8.1,26,10.6,38.9,8.2c4.5-0.9,8.1,0.1,10.2,5c2.3,5.2-0.5,8.2-4.7,8.5C328.9,764,320.5,763.8,312,763.9z"/>
	</g>
</g>
</svg>
