<?xml version="1.0" encoding="utf-8"?>
<!-- Generator: Adobe Illustrator 19.0.0, SVG Export Plug-In . SVG Version: 6.00 Build 0)  -->
<svg version="1.1" id="Layer_1" xmlns="http://www.w3.org/2000/svg" xmlns:xlink="http://www.w3.org/1999/xlink" x="0px" y="0px"
	 viewBox="1060 -110 250 250" style="enable-background:new 1060 -110 250 250;" xml:space="preserve">
<style type="text/css">
	.st0{fill:#F2F2F2;}
	.st1{fill:#C0BFBF;}
	.st2{fill:#E5E5E5;}
</style>
<g id="XMLID_27_">
	<g id="XMLID_10335_">
		<polygon id="XMLID_14868_" class="st0" points="1292.8,-44.2 1288.7,104.9 1146,135.6 1124,46.7 1145.7,-15.7 		"/>
		<polygon id="XMLID_12513_" class="st1" points="1145.7,-15.7 1146,135.6 1077.1,68.3 1076.9,-76.2 		"/>
		<polygon id="XMLID_12508_" class="st2" points="1292.8,-44.2 1145.7,-15.7 1076.9,-76.2 1214.1,-105.4 		"/>
	</g>
	<g id="XMLID_16054_">
		<path id="XMLID_16061_" d="M1229.1,109c-4.3,0.8-8.1,1.7-11.9,2.2c-3.7,0.5-6.8-0.3-8.5-3.6c-0.5-0.9-0.8-2-1-3
			c-0.1-0.7-0.4-1-1.1-1c-1,0-2-0.1-3.1-0.2c-1.2-0.1-1.9-0.9-1.8-2.2c0.1-3.1,0.2-6.1,0.4-9.2c0-0.6-0.1-1-0.7-1.2
			c-12.2-5.1-20.1-14.3-23.1-28c-5.8-26.6,11.7-56.8,37.4-69.1c19.3-9.2,36.2-8.1,50.1,3c7.6,6.1,12,14.7,13.4,25.3
			c1.8,13.8-1.6,27.5-10.2,40.9c-3.5,5.5-7.7,10.3-12.6,14.6c-0.6,0.5-0.7,0.9-0.7,1.6c0.2,2.9,0.4,5.8,0.5,8.8
			c0.1,1.1-0.5,2-1.5,2.7c-1.1,0.7-2.3,1.3-3.4,2c-0.3,0.2-0.6,0.6-0.7,0.9c-0.9,6.7-5.1,9.8-9.3,11.4
			C1237.2,106.6,1232.9,107.8,1229.1,109z M1251.8,65.4c11.8-11.7,17.9-29.8,12.7-44.8c-5.2-15.1-20.8-22.4-37.7-17.7
			c-17.1,4.8-31.6,20.4-35.3,37.9c-3.7,17.5,4.1,31,14.4,35.7c1.6-2.3,3.2-4.6,4.7-7c-12.7-7.6-13.1-26.1-2.7-39.7
			c10.1-13.2,26.9-18,38.1-10.9c12,7.7,13,27.3,0.5,41.3C1248.3,62.1,1250,63.8,1251.8,65.4z M1208.7,43.8c-1.2,2.2-2.4,4.4-3.7,6.6
			c-0.7,1.2-0.8,2.2-0.6,3.3c2.3,13.6,16.7,19.5,30.3,12.1c7.5-4.1,13-10.1,15.9-18.3c0.1-0.4,0.1-1-0.1-1.2c-1.4-1.7-2.9-3.3-4.2-5
			c-0.4-0.5-0.7-0.6-1.3-0.3c-8,3.6-16,5.3-23.9,5C1216.7,45.7,1212.5,45.2,1208.7,43.8z M1210.1,93.3c0.4,3.7,0.6,7.3,1.1,10.8
			c0.3,2.5,2.1,3.7,4.5,3.7c1.8,0,3.6-0.1,5.4-0.5c5-1.1,9.9-2.3,14.9-3.7c2.4-0.7,4.8-1.7,7.1-2.9c2.4-1.2,3.9-3.4,4.1-5.9
			c0.3-3.4,0.3-6.8,0.5-10.4C1235.2,92,1222.8,95,1210.1,93.3z M1248.8,68.2c-1.2-2-2.8-3.5-4.9-4.6c-0.2-0.1-0.7,0-1,0.2
			c-0.9,0.7-1.8,1.4-2.7,2.2c-0.3,0.3-0.7,0.8-0.8,1.2c-0.8,3.5-2.7,6.2-5.9,8.1c-3.3,2-6.7,2.8-10,2.4c-2.3-0.2-4.4-1.1-5.2-3.3
			c-0.7-2-2.1-2.8-4-3.1c-0.1,0-0.2-0.1-0.4-0.1c-0.3,0-0.6,0.1-0.8,0.3c-1.8,1.9-3.2,4.1-4.3,6.4
			C1220.8,82.9,1237.6,78.6,1248.8,68.2z M1205.3,92.3c-0.1,2.6-0.1,5-0.2,7.4c0,0.2,0.2,0.4,0.4,0.4c1,0.1,2,0.1,3.1,0.1
			c0.3-2.3,0.5-4.5,0.8-6.7c0-0.2-0.2-0.4-0.3-0.5C1207.9,92.9,1206.7,92.6,1205.3,92.3z M1235.7,68.9c-4.8,2.4-9.4,3.5-14.2,3.6
			c1.8,2.2,4.3,2,6.9,1.4C1231.2,73.4,1233.8,72.3,1235.7,68.9z M1252.6,80.9c-0.8,0.6-1.4,1-2,1.5c-1.5,1.1-1.5,1.1-1.3,2.8
			c0.2,1.6,0.5,3.1,0.8,4.7c0.8-0.5,1.6-0.8,2.3-1.3c0.3-0.2,0.6-0.7,0.6-1C1252.8,85.4,1252.7,83.2,1252.6,80.9z"/>
		<path id="XMLID_16060_" d="M1193.8,95.6c-7.2,9.2-14.4,18.4-21.6,27.6c-3.5-2.6-7-5.1-10.4-7.7c7.2-9.2,14.5-18.4,21.6-27.6
			C1186.9,90.4,1190.3,93,1193.8,95.6z"/>
		<path id="XMLID_16058_" d="M1229.2,64.7c-5.5,1.3-10.1,0.8-14.4-1.1c-0.2-0.1-0.4-0.2-0.6-0.3c-0.5-0.2-0.8-0.6-0.4-1.3
			c0.4-0.7,0.9-0.6,1.4-0.3c2.1,1.1,4.4,1.7,7,1.9c7.5,0.5,14.1-2.7,19.8-9.3c0.4-0.5,0.9-1,1.4-0.6c0.6,0.4,0.2,1.1-0.3,1.6
			C1239.2,60,1234.5,63.3,1229.2,64.7z"/>
		<path id="XMLID_16057_" d="M1219.3,54.4c0.4-1.3,0.7-2.6,1.3-3.8c0.8-1.6,2.3-1.9,3.3-0.9c1.5,1.4,1.6,5.1,0.1,7.3
			c-1,1.4-2.3,1.7-3.2,0.8c-0.9-0.8-1.2-2-1.2-3.3C1219.5,54.4,1219.4,54.4,1219.3,54.4z"/>
		<path id="XMLID_16055_" d="M1231.5,51.4c0.4-1.3,0.7-2.6,1.3-3.8c0.8-1.7,2.4-2,3.4-0.9c1.4,1.4,1.5,4.9,0.1,7
			c-1,1.6-2.6,2-3.4,0.8C1232.2,53.7,1232,52.5,1231.5,51.4z"/>
	</g>
</g>
</svg>
