<?xml version="1.0" encoding="utf-8"?>
<!-- Generator: Adobe Illustrator 19.1.0, SVG Export Plug-In . SVG Version: 6.00 Build 0)  -->
<svg version="1.1" id="Layer_1" xmlns="http://www.w3.org/2000/svg" xmlns:xlink="http://www.w3.org/1999/xlink" x="0px" y="0px"
	 viewBox="-409 191 180 180" style="enable-background:new -409 191 180 180;" xml:space="preserve">
<style type="text/css">
	.st0{fill:#A3BB37;}
	.st1{enable-background:new    ;}
	.st2{fill:#344860;}
</style>
<g id="XMLID_3_">
	<path id="XMLID_56_" class="st0" d="M-406,285.7c0-3.1,0-6.2,0-9.2c0.5-2.8,0.9-5.6,1.3-8.4c4.8-35.5,33.7-65.7,68.8-72.1
		c4.1-0.7,8.3-1.3,12.3-2c3.1,0,6.2,0,9.2,0c0.9,0.2,1.7,0.6,2.6,0.7c4.1,0.7,8.3,1,12.4,2c33.2,7.4,59.3,34.6,65.5,68.1
		c0.7,3.9,1.3,7.8,2,11.7c0,3.1,0,6.2,0,9.2c-0.5,2.8-0.9,5.4-1.3,8.2c-5.4,36.6-32.8,65.2-69.4,72.4c-3.9,0.8-7.8,1.3-11.7,1.8
		c-3.1,0-6.2,0-9.2,0c-0.9-0.2-1.7-0.6-2.6-0.7c-4.1-0.7-8.3-1-12.4-2c-33.1-7.4-59.4-34.7-65.5-68.1
		C-404.9,293.5-405.4,289.6-406,285.7z M-319.2,201.4c-43.8,0.1-79.7,35.9-79.5,79.9c0.2,43.9,35.4,79.4,79.7,79.4
		c44.4-0.1,79.4-35.6,79.5-79.5C-239.4,237.2-275.4,201.4-319.2,201.4z"/>
</g>
<g class="st1">
	<path class="st2" d="M-389,302.2l7.7-10.1c3.3,2.7,7.9,4.1,12,4.1c4.8,0,6.7-1.9,6.7-3.9c0-2.1-1.8-3.9-6.2-3.9
		c-3.6,0-6.4,1-8.8,3.3l-9.9-2.3v-28.7h36.2v12.5h-21.9v6.7c2.3-2.2,5.9-3.6,9.9-3.6c8.1,0,15.3,6,15.3,15.5
		c0,10.4-7.8,17.2-21.1,17.2C-377.7,308.9-384.4,306.4-389,302.2z"/>
	<path class="st2" d="M-345.6,295.4c0-5.1,3.6-9.5,9-11.8c-5-2.1-8.2-5.4-8.2-10.9c0-9.3,10.6-12.7,20.3-12.7
		c9.7,0,20.3,3.4,20.3,12.7c0,5.5-3.3,8.9-8.3,10.9c5.4,2.3,9.1,6.7,9.1,11.8c0,9.6-10.6,13.5-21.1,13.5
		C-335,308.9-345.6,305.1-345.6,295.4z M-318,293.8c0-1.8-3.5-3.3-6.5-3.7c-3.1,0.4-6.5,1.8-6.5,3.7c0,2.1,2.5,3.5,6.5,3.5
		C-320.6,297.3-318,295.9-318,293.8z M-318.8,274.9c0-1.9-2.1-3.2-5.7-3.2c-3.6,0-5.7,1.3-5.7,3.2c0,1.5,2.8,2.8,5.7,3.3
		C-321.6,277.7-318.8,276.3-318.8,274.9z"/>
	<path class="st2" d="M-300.7,272c0-6.7,4.9-12,12.6-12c7.8,0,12.8,5.3,12.8,12c0,6.6-5,11.8-12.8,11.8
		C-295.9,283.9-300.7,278.6-300.7,272z M-292.9,308.1l30.2-47.3h7l-30.3,47.3H-292.9z M-284,272c0-3.2-1.8-4.5-4.1-4.5
		c-2.2,0-4,1.3-4,4.5c0,3.1,1.8,4.3,4,4.3C-285.9,276.3-284,275.1-284,272z M-273.3,297.1c0-6.7,4.9-12,12.6-12
		c7.7,0,12.7,5.3,12.7,12c0,6.6-5,11.8-12.7,11.8C-268.4,308.9-273.3,303.7-273.3,297.1z M-256.5,297.1c0-3.2-1.8-4.5-4.1-4.5
		c-2.3,0-4,1.3-4,4.5c0,3.1,1.8,4.3,4,4.3C-258.4,301.4-256.5,300.2-256.5,297.1z"/>
</g>
</svg>
