<?xml version="1.0" encoding="utf-8"?>
<!-- Generator: Adobe Illustrator 19.1.0, SVG Export Plug-In . SVG Version: 6.00 Build 0)  -->
<svg version="1.1" id="Layer_1" xmlns="http://www.w3.org/2000/svg" xmlns:xlink="http://www.w3.org/1999/xlink" x="0px" y="0px"
	 viewBox="-409 191 180 180" style="enable-background:new -409 191 180 180;" xml:space="preserve">
<style type="text/css">
	.st0{fill:#A3BB37;}
	.st1{enable-background:new    ;}
	.st2{fill:#344860;}
</style>
<g id="XMLID_3_">
	<path id="XMLID_56_" class="st0" d="M-406,285.7c0-3.1,0-6.2,0-9.2c0.5-2.8,0.9-5.6,1.3-8.4c4.8-35.5,33.7-65.7,68.8-72.1
		c4.1-0.7,8.3-1.3,12.3-2c3.1,0,6.2,0,9.2,0c0.9,0.2,1.7,0.6,2.6,0.7c4.1,0.7,8.3,1,12.4,2c33.2,7.4,59.3,34.6,65.5,68.1
		c0.7,3.9,1.3,7.8,2,11.7c0,3.1,0,6.2,0,9.2c-0.5,2.8-0.9,5.4-1.3,8.2c-5.4,36.6-32.8,65.2-69.4,72.4c-3.9,0.8-7.8,1.3-11.7,1.8
		c-3.1,0-6.2,0-9.2,0c-0.9-0.2-1.7-0.6-2.6-0.7c-4.1-0.7-8.3-1-12.4-2c-33.1-7.4-59.4-34.7-65.5-68.1
		C-404.9,293.5-405.4,289.6-406,285.7z M-319.2,201.4c-43.8,0.1-79.7,35.9-79.5,79.9c0.2,43.9,35.4,79.4,79.7,79.4
		c44.4-0.1,79.4-35.6,79.5-79.5C-239.4,237.2-275.4,201.4-319.2,201.4z"/>
</g>
<g class="st1">
	<path class="st2" d="M-392.2,302.1l7.4-10.3c3.9,3.4,9.7,4.8,13.6,4.8c4.9,0,7.3-1.6,7.3-3.4c0-1.7-1-2.7-7.7-2.7
		c-2.2,0-6.5,0.1-7.3,0.2v-13.4c1,0.1,5.5,0.1,7.3,0.1c4.8,0,6.9-0.9,6.9-2.5c0-2.3-3.1-3.2-7.4-3.2c-4.3,0-8.8,1.5-12.2,4.3
		l-7.1-9.4c4.4-4.9,11.2-8.2,21-8.2c13.8,0,20.8,5.6,20.8,13.9c0,5.3-4.6,10-11,11.1c5.5,0.6,11.8,4.8,11.8,11.7
		c0,8.9-8.8,15-21.7,15C-380.5,309.9-388,306.6-392.2,302.1z"/>
	<path class="st2" d="M-337.8,309l15.8-36.8h-23.5V259h40.9v10.5l-16.6,39.5H-337.8z"/>
	<path class="st2" d="M-302.2,270.9c0-7,5.2-12.7,13.3-12.7c8.2,0,13.5,5.6,13.5,12.7c0,7-5.2,12.5-13.5,12.5
		C-297.1,283.4-302.2,277.9-302.2,270.9z M-293.9,309l31.9-50h7.3l-32,50H-293.9z M-284.5,270.9c0-3.4-1.9-4.7-4.3-4.7
		c-2.3,0-4.2,1.3-4.2,4.7c0,3.2,1.9,4.6,4.2,4.6C-286.5,275.5-284.5,274.2-284.5,270.9z M-273.2,297.4c0-7,5.2-12.7,13.3-12.7
		s13.4,5.6,13.4,12.7c0,7-5.2,12.5-13.4,12.5S-273.2,304.4-273.2,297.4z M-255.5,297.4c0-3.4-1.9-4.7-4.3-4.7
		c-2.4,0-4.3,1.3-4.3,4.7c0,3.3,1.9,4.6,4.3,4.6C-257.5,302-255.5,300.7-255.5,297.4z"/>
</g>
</svg>
