<?xml version="1.0" encoding="utf-8"?>
<!-- Generator: Adobe Illustrator 19.1.0, SVG Export Plug-In . SVG Version: 6.00 Build 0)  -->
<svg version="1.1" id="Layer_1" xmlns="http://www.w3.org/2000/svg" xmlns:xlink="http://www.w3.org/1999/xlink" x="0px" y="0px"
	 viewBox="-409 191 180 180" style="enable-background:new -409 191 180 180;" xml:space="preserve">
<style type="text/css">
	.st0{fill:#A3BB37;}
	.st1{enable-background:new    ;}
	.st2{fill:#344860;}
</style>
<g id="XMLID_3_">
	<path id="XMLID_56_" class="st0" d="M-405,286.1c0-3.1,0-6.2,0-9.1c0.5-2.7,0.9-5.6,1.3-8.3c4.8-35.3,33.5-65.3,68.4-71.7
		c4.1-0.7,8.2-1.3,12.2-1.9c3.1,0,6.2,0,9.1,0c0.9,0.2,1.7,0.6,2.6,0.7c4.1,0.7,8.2,1,12.3,1.9c33,7.3,58.9,34.4,65.1,67.7
		c0.7,3.9,1.3,7.8,1.9,11.6c0,3.1,0,6.2,0,9.1c-0.5,2.7-0.9,5.4-1.3,8.1c-5.4,36.4-32.7,64.9-69,71.9c-3.9,0.8-7.8,1.3-11.6,1.8
		c-3.1,0-6.2,0-9.1,0c-0.9-0.2-1.7-0.6-2.6-0.7c-4.1-0.7-8.2-1-12.3-1.9c-32.9-7.3-59-34.5-65.1-67.7
		C-403.9,293.9-404.4,290-405,286.1z M-318.7,202.3c-43.5,0.1-79.2,35.7-79,79.5c0.2,43.6,35.2,78.9,79.2,78.9
		c44.2-0.1,78.9-35.4,79-79C-239.3,237.9-275.2,202.3-318.7,202.3z"/>
</g>
<g class="st1">
	<path class="st2" d="M-381.8,306.7l11.1-15.5c5.8,5.1,14.6,7.2,20.3,7.2c7.4,0,10.9-2.4,10.9-5.1c0-2.6-1.6-4-11.6-4
		c-3.3,0-9.8,0.1-10.9,0.2v-20.1c1.5,0.1,8.2,0.1,10.9,0.1c7.2,0,10.3-1.3,10.3-3.7c0-3.5-4.6-4.8-11.1-4.8
		c-6.4,0-13.1,2.2-18.3,6.5l-10.7-14.1c6.6-7.3,16.8-12.3,31.4-12.3c20.7,0,31.2,8.4,31.2,20.8c0,8-7,15-16.5,16.6
		c8.3,0.9,17.7,7.2,17.7,17.5c0,13.4-13.1,22.5-32.6,22.5C-364.3,318.4-375.5,313.4-381.8,306.7z"/>
	<path class="st2" d="M-276.1,317l-8.4-14.4l-8.6,14.4h-22l17.7-27.8l-16.6-26.4h22.1l7.3,12.7l7.3-12.7h22.1l-16.6,26.4L-254,317
		H-276.1z"/>
</g>
</svg>
