<?xml version="1.0" encoding="utf-8"?>
<!-- Generator: Adobe Illustrator 19.0.0, SVG Export Plug-In . SVG Version: 6.00 Build 0)  -->
<svg version="1.1" id="Layer_1" xmlns="http://www.w3.org/2000/svg" xmlns:xlink="http://www.w3.org/1999/xlink" x="0px" y="0px"
	 viewBox="0 0 90 90" style="enable-background:new 0 0 90 90;" xml:space="preserve">
<style type="text/css">
	.st0{fill:#F37965;}
</style>
<g id="XMLID_1_">
	<path id="XMLID_598_" class="st0" d="M45,83.1c-7-4.9-13.7-10.2-20.1-15.8c-5.8-5.1-11.4-10.4-16-16.6c-2.2-2.9-4.1-5.9-5.8-9.1
		c-3.3-6-2.8-12.3-0.3-18.5C5.9,15.6,11,9.9,19.2,7.7c10.1-2.8,20.2,1.7,25.2,11.1c0.2,0.4,0.4,0.8,0.6,1.1c1.3-1.9,2.4-3.8,3.9-5.5
		c8-9.5,22.6-10,31.7-1.3c5.6,5.4,8.6,12.1,8.7,19.9c0.1,4.4-1.8,8.3-4,11.9c-3.7,6.1-8.4,11.3-13.5,16.3
		C63.5,69.2,54.5,76.4,45,83.1z"/>
</g>
</svg>
