<?xml version="1.0" encoding="utf-8"?>
<!-- Generator: Adobe Illustrator 19.0.0, SVG Export Plug-In . SVG Version: 6.00 Build 0)  -->
<svg version="1.1" id="Layer_1" xmlns="http://www.w3.org/2000/svg" xmlns:xlink="http://www.w3.org/1999/xlink" x="0px" y="0px"
	 viewBox="1060 -110 250 250" style="enable-background:new 1060 -110 250 250;" xml:space="preserve">
<style type="text/css">
	.st0{fill:#F2F2F2;}
	.st1{fill:#C0BFBF;}
	.st2{fill:#E5E5E5;}
</style>
<g id="XMLID_27_">
	<g id="XMLID_10335_">
		<polygon id="XMLID_14868_" class="st0" points="1292.8,-45.6 1289.1,105.4 1144.8,136.9 1122.2,47 1144,-16.3 		"/>
		<polygon id="XMLID_12513_" class="st1" points="1144,-16.3 1144.8,136.9 1074.9,69.1 1074.1,-77.2 		"/>
		<polygon id="XMLID_12508_" class="st2" points="1292.8,-45.6 1144,-16.3 1074.1,-77.2 1212.9,-107.2 		"/>
	</g>
	<g id="XMLID_16096_">
		<g id="XMLID_16121_">
			<path id="XMLID_16094_" d="M1171.2,77.4c0.3,0.9,1,1.3,1.9,1.5c1.3,0.4,2.8,0.4,4.3,0.2c2.6-0.3,5.2-1.2,7.7-2.7
				c0.5-0.3,1-0.7,1.5-1.1c0.7-0.6,1.2-1.2,1.4-2.1c2.2-0.3,4.3-0.6,6.5-0.8c1.6-0.1,2.9,0.5,4.1,1.4c-4,0.8-7.1,3-9.1,6.9
				c-2,3.9-1.7,7.3,0.4,10.2c-0.8,0.3-1.6,0.6-2.4,0.8c-4,1.3-7.9,2.4-11.9,3.2c-4.2,0.9-8.5,1.5-12.6,1.3c-1.3-0.1-2.5-0.3-3.6-0.8
				c-1.6-0.8-2.3-2.3-1.9-4.3c0.5-2.5,1.4-4.9,2.8-7.2c1.5-2.4,3.5-4,6-4.9c1.4-0.5,2.8-1,4.3-1.5
				C1170.7,77.6,1171,77.5,1171.2,77.4z"/>
			<path id="XMLID_16127_" d="M1190.4,54.7c0,0.2,0,0.4,0,0.5c0,0.4,0,0.8,0.4,1.1c0.3,0.3,0.4,0.8,0.5,1.3c0.2,1.3,0,2.7-0.6,4
				c-0.2,0.5-0.7,1.1-1,1.6c-0.1,0.2-0.2,0.4-0.3,0.6c-1,3-2.5,5.8-4.7,8.2c-1.6,1.8-3.5,3.2-5.8,3.6c-1.7,0.3-3.2,0-4.6-0.8
				c-2.4-1.3-4-3.4-5.2-5.8c-0.1-0.3-0.3-0.5-0.6-0.6c-0.2,0-0.4-0.2-0.6-0.4c-1-1.4-1.4-3-1-5c0.1-0.4,0.4-0.8,0.6-1.2
				c0.1-0.1,0.1-0.3,0.1-0.5c0.2-1.6,0.3-3.2,0.6-4.9c0.7-3.3,2.7-6,5.6-7.9c3.2-2.1,6.6-3,9.9-2.6c3.6,0.4,5.6,2.6,6.3,6.1
				C1190.3,53,1190.3,53.8,1190.4,54.7C1190.4,54.7,1190.4,54.7,1190.4,54.7z M1170.6,67.2C1170.6,67.3,1170.6,67.3,1170.6,67.2
				c0.1,0.2,0.2,0.3,0.2,0.4c1,2.2,2.3,4.1,4.4,5.2c2.6,1.5,5.6,0.8,8.2-2c1.5-1.6,2.6-3.4,3.4-5.4c0.4-0.9,0.7-1.7,1-2.6
				c0,0,0,0.1,0.1,0.1c0.2-0.2,0.6-0.4,0.7-0.6c0.7-1.3,1.1-2.7,0.7-3.9c-0.2-0.6-0.3-0.6-1-0.4c0-0.2-0.1-0.3-0.2-0.5
				c-0.4-1.1-0.8-2.1-1.6-2.9c-0.2-0.2-0.4-0.2-0.6-0.4c0,0-0.1,0.1-0.1,0.1c0.1,0.3,0.2,0.6,0.4,1c-0.7-0.2-1.2-0.3-1.8-0.4
				c-0.9-0.2-1.9-0.1-2.8,0.4c-1.8,1-3.6,1.5-5.4,1.5c-0.6,0-1.2-0.1-1.8,0.1c-1.7,0.4-3.1,1.5-3.8,3.3c-0.3,0.8-0.5,1.6-0.8,2.4
				c-0.5,0-0.8,0.2-0.8,0.7c-0.1,1.2-0.2,2.4,0.5,3.3C1169.7,67.2,1170,67.5,1170.6,67.2z"/>
			<path id="XMLID_16123_" d="M1197.4,75.2c4.6-1.2,8.4,1.6,8.5,6.2c0.1,4.6-3.5,9.3-8.1,10.4c-4.6,1.1-8.3-1.7-8.4-6.2
				C1189.2,81.1,1192.8,76.4,1197.4,75.2z M1195.8,87.7c2-2.6,4-5.1,5.9-7.6c-0.4-0.3-0.8-0.7-1.3-1c-1.5,2-3.1,4-4.8,6.1
				c-0.4-0.4-0.8-0.7-1.2-1.1c-0.5,0.6-0.9,1.2-1.3,1.7C1194.1,86.4,1195,87.1,1195.8,87.7z"/>
		</g>
		<g id="XMLID_16109_">
			<path id="XMLID_16087_" d="M1251,57.2c0.3,0.9,1,1.3,1.9,1.5c1.3,0.4,2.8,0.4,4.3,0.2c2.6-0.3,5.2-1.2,7.7-2.7
				c0.5-0.3,1-0.7,1.5-1.1c0.7-0.6,1.2-1.2,1.4-2.1c2.2-0.3,4.3-0.6,6.5-0.8c1.6-0.1,2.9,0.5,4.1,1.4c-4,0.8-7.1,3-9.1,6.9
				c-2,3.9-1.7,7.3,0.4,10.2c-0.8,0.3-1.6,0.6-2.4,0.8c-4,1.3-7.9,2.4-11.9,3.2c-4.2,0.9-8.5,1.5-12.6,1.3c-1.3-0.1-2.5-0.3-3.6-0.8
				c-1.6-0.8-2.3-2.3-1.9-4.3c0.5-2.5,1.4-4.9,2.8-7.2c1.5-2.4,3.5-4,6-4.9c1.4-0.5,2.8-1,4.3-1.5
				C1250.5,57.4,1250.7,57.3,1251,57.2z"/>
			<path id="XMLID_16115_" d="M1270.2,34.4c0,0.2,0,0.4,0,0.5c0,0.4,0,0.8,0.4,1.1c0.3,0.3,0.4,0.8,0.5,1.3c0.2,1.3,0,2.7-0.6,4
				c-0.2,0.5-0.7,1.1-1,1.6c-0.1,0.2-0.2,0.4-0.3,0.6c-1,3-2.5,5.8-4.7,8.2c-1.6,1.8-3.5,3.2-5.8,3.6c-1.7,0.3-3.2,0-4.6-0.8
				c-2.4-1.3-4-3.4-5.2-5.8c-0.1-0.3-0.3-0.5-0.6-0.6c-0.2,0-0.4-0.2-0.6-0.4c-1-1.4-1.4-3-1-5c0.1-0.4,0.4-0.8,0.6-1.2
				c0.1-0.1,0.1-0.3,0.1-0.5c0.2-1.6,0.3-3.2,0.6-4.9c0.7-3.3,2.7-6,5.6-7.9c3.2-2.1,6.6-3,9.9-2.6c3.6,0.4,5.6,2.6,6.3,6.1
				C1270.1,32.8,1270.1,33.6,1270.2,34.4C1270.2,34.4,1270.2,34.4,1270.2,34.4z M1250.3,47C1250.4,47,1250.4,47,1250.3,47
				c0.1,0.2,0.2,0.3,0.2,0.4c1,2.2,2.3,4.1,4.4,5.2c2.6,1.5,5.6,0.8,8.2-2c1.5-1.6,2.6-3.4,3.4-5.4c0.4-0.9,0.7-1.7,1-2.6
				c0,0,0,0.1,0.1,0.1c0.2-0.2,0.6-0.4,0.7-0.6c0.7-1.3,1.1-2.7,0.7-3.9c-0.2-0.6-0.3-0.6-1-0.4c0-0.2-0.1-0.3-0.2-0.5
				c-0.4-1.1-0.8-2.1-1.6-2.9c-0.2-0.2-0.4-0.2-0.6-0.4c0,0-0.1,0.1-0.1,0.1c0.1,0.3,0.2,0.6,0.4,1c-0.7-0.2-1.2-0.3-1.8-0.4
				c-0.9-0.2-1.9-0.1-2.8,0.4c-1.8,1-3.6,1.5-5.4,1.5c-0.6,0-1.2-0.1-1.8,0.1c-1.7,0.4-3.1,1.5-3.8,3.3c-0.3,0.8-0.5,1.6-0.8,2.4
				c-0.5,0-0.8,0.2-0.8,0.7c-0.1,1.2-0.2,2.4,0.5,3.3C1249.5,47,1249.7,47.3,1250.3,47z"/>
			<path id="XMLID_16111_" d="M1277.1,55c4.6-1.2,8.4,1.6,8.5,6.2c0.1,4.6-3.5,9.3-8.1,10.4c-4.6,1.1-8.3-1.7-8.4-6.2
				C1269,60.9,1272.6,56.2,1277.1,55z M1275.6,67.5c2-2.6,4-5.1,5.9-7.6c-0.4-0.3-0.8-0.7-1.3-1c-1.5,2-3.1,4-4.8,6.1
				c-0.4-0.4-0.8-0.7-1.2-1.1c-0.5,0.6-0.9,1.2-1.3,1.7C1273.9,66.2,1274.8,66.8,1275.6,67.5z"/>
		</g>
		<g id="XMLID_16097_">
			<path id="XMLID_16079_" d="M1209.9,20.3c0.3,0.9,1,1.3,1.9,1.5c1.3,0.4,2.8,0.4,4.3,0.2c2.6-0.3,5.2-1.2,7.7-2.7
				c0.5-0.3,1-0.7,1.5-1.1c0.7-0.6,1.2-1.2,1.4-2.1c2.2-0.3,4.3-0.6,6.5-0.8c1.6-0.1,2.9,0.5,4.1,1.4c-4,0.8-7.1,3-9.1,6.9
				c-2,3.9-1.7,7.3,0.4,10.2c-0.8,0.3-1.6,0.6-2.4,0.8c-4,1.3-7.9,2.4-11.9,3.2c-4.2,0.9-8.5,1.5-12.6,1.3c-1.3-0.1-2.5-0.3-3.6-0.8
				c-1.6-0.8-2.3-2.3-1.9-4.3c0.5-2.5,1.4-4.9,2.8-7.2c1.5-2.4,3.5-4,6-4.9c1.4-0.5,2.8-1,4.3-1.5
				C1209.4,20.5,1209.7,20.4,1209.9,20.3z"/>
			<path id="XMLID_16103_" d="M1229.1-2.4c0,0.2,0,0.4,0,0.5c0,0.4,0,0.8,0.4,1.1c0.3,0.3,0.4,0.8,0.5,1.3c0.2,1.3,0,2.7-0.6,4
				c-0.2,0.5-0.7,1.1-1,1.6c-0.1,0.2-0.2,0.4-0.3,0.6c-1,3-2.5,5.8-4.7,8.2c-1.6,1.8-3.5,3.2-5.8,3.6c-1.7,0.3-3.2,0-4.6-0.8
				c-2.4-1.3-4-3.4-5.2-5.8c-0.1-0.3-0.3-0.5-0.6-0.6c-0.2,0-0.4-0.2-0.6-0.4c-1-1.4-1.4-3-1-5c0.1-0.4,0.4-0.8,0.6-1.2
				c0.1-0.1,0.1-0.3,0.1-0.5c0.2-1.6,0.3-3.2,0.6-4.9c0.7-3.3,2.7-6,5.6-7.9c3.2-2.1,6.6-3,9.9-2.6c3.6,0.4,5.6,2.6,6.3,6.1
				C1229-4.1,1229.1-3.3,1229.1-2.4C1229.2-2.4,1229.2-2.4,1229.1-2.4z M1209.3,10.1C1209.3,10.2,1209.3,10.2,1209.3,10.1
				c0.1,0.2,0.2,0.3,0.2,0.4c1,2.2,2.3,4.1,4.4,5.2c2.6,1.5,5.6,0.8,8.2-2c1.5-1.6,2.6-3.4,3.4-5.4c0.4-0.9,0.7-1.7,1-2.6
				c0,0,0,0.1,0.1,0.1c0.2-0.2,0.6-0.4,0.7-0.6c0.7-1.3,1.1-2.7,0.7-3.9c-0.2-0.6-0.3-0.6-1-0.4c0-0.2-0.1-0.3-0.2-0.5
				c-0.4-1.1-0.8-2.1-1.6-2.9c-0.2-0.2-0.4-0.2-0.6-0.4c0,0-0.1,0.1-0.1,0.1c0.1,0.3,0.2,0.6,0.4,1c-0.7-0.2-1.2-0.3-1.8-0.4
				c-0.9-0.2-1.9-0.1-2.8,0.4c-1.8,1-3.6,1.5-5.4,1.5c-0.6,0-1.2-0.1-1.8,0.1c-1.7,0.4-3.1,1.5-3.8,3.3c-0.3,0.8-0.5,1.6-0.8,2.4
				c-0.5,0-0.8,0.2-0.8,0.7c-0.1,1.2-0.2,2.4,0.5,3.3C1208.4,10.1,1208.7,10.4,1209.3,10.1z"/>
			<path id="XMLID_16099_" d="M1236.1,18.2c4.6-1.2,8.4,1.6,8.5,6.2c0.1,4.6-3.5,9.3-8.1,10.4c-4.6,1.1-8.3-1.7-8.4-6.2
				C1227.9,24,1231.5,19.3,1236.1,18.2z M1234.6,30.6c2-2.6,4-5.1,5.9-7.6c-0.4-0.3-0.8-0.7-1.3-1c-1.5,2-3.1,4-4.8,6.1
				c-0.4-0.4-0.8-0.7-1.2-1.1c-0.5,0.6-0.9,1.2-1.3,1.7C1232.8,29.3,1233.7,30,1234.6,30.6z"/>
		</g>
	</g>
</g>
</svg>
