<?xml version="1.0" encoding="utf-8"?>
<!-- Generator: Adobe Illustrator 19.1.0, SVG Export Plug-In . SVG Version: 6.00 Build 0)  -->
<svg version="1.1" id="Layer_1" xmlns="http://www.w3.org/2000/svg" xmlns:xlink="http://www.w3.org/1999/xlink" x="0px" y="0px"
	 viewBox="-391.5 218.5 125 125" style="enable-background:new -391.5 218.5 125 125;" xml:space="preserve">
<g id="XMLID_15851_">
	<g id="XMLID_15762_">
		<path id="XMLID_15839_" d="M-322.2,330.4c19.1-8.8,33.2-22.8,42.6-41.5c3-5.9,4.9-12.3,4.4-19.2c-0.3-6.4-4.3-11.5-10.3-13.1
			c-4.4-1.2-8.9-0.7-13.2,0.5c-9.5,2.5-17.6,7.5-25.2,13.6c-1.9,1.5-3.7,3.2-5.4,4.7l0,0l-0.1,0.1c-0.1,0.1-0.2,0.1-0.2,0.2l0,0
			c-0.9,1-4,4-4.1,4.2c-6,6.4-11.1,13.3-14.8,21.2c-2.7,5.8-4.7,11.7-4.5,18.3c0.3,8.7,5.7,14.2,14.4,14.6
			C-332.9,334.1-327.4,332.7-322.2,330.4z M-345,316.8c-0.6-3.3-0.2-6.7,0.8-9.9c1.9-7,5.6-13.1,10-18.8c1.3-1.8,6.2-6.9,8-8.9l0,0
			c0.3-0.3,0.6-0.5,0.9-0.8c4.1-3,8-6.4,12.3-9c5.9-3.6,12.2-6,19.4-5.5c5.4,0.3,9.5,4,10.4,9.4c0.8,4.9-0.3,9.6-2.2,14.1
			c-6.9,15.9-18.3,27.5-33.7,35.3c-4.6,2.3-9.5,3.7-14.7,3.5C-339.6,326-343.9,322.5-345,316.8z"/>
		<path id="XMLID_15834_" d="M-318.6,315.6c11.1-5,19.3-13.1,24.7-23.8c1.8-3.4,2.8-7,2.6-11c-0.3-3.7-2.5-6.6-5.9-7.5
			c-2.6-0.7-5.1-0.4-7.6,0.3c-5.5,1.4-10.2,4.3-14.6,7.8c-1.2,0.9-2.3,1.9-3.3,2.8l0,0c-0.1,0.1-2.3,2.3-2.4,2.4
			c-3.5,3.6-6.4,7.6-8.5,12.1c-1.6,3.3-2.7,6.7-2.6,10.5c0.2,5,3.3,8.2,8.4,8.4C-324.7,317.7-321.6,317-318.6,315.6z M-331.8,307.8
			c-0.3-1.9-0.1-3.9,0.4-5.7c1.1-4,3.3-7.5,5.9-10.8c0.8-1,3.6-4,4.7-5.1l0,0c0.2-0.2,0.3-0.3,0.5-0.4c2.3-1.8,4.6-3.6,7.2-5.1
			c3.4-2.1,7.1-3.4,11.3-3.2c3.1,0.3,5.4,2.3,6,5.4c0.5,2.8-0.2,5.5-1.3,8.1c-4,9.1-10.6,15.7-19.6,20.3c-2.7,1.3-5.5,2.1-8.5,2
			C-328.6,313.1-331.2,311.1-331.8,307.8z"/>
		<path id="XMLID_15771_" d="M-270.1,273.7c-0.6-4.4-2.8-7.6-6.2-10.3c2.1,3.9,2.7,8,2.2,12.3c-0.7,6-2.8,11.6-5.6,16.9
			c-4.7,8.9-10.9,16.6-18.3,23.4c-7,6.5-14.7,12.1-23.8,15.7c-7.9,3.2-15.8,5.3-24.2,0.8c3.3,4.4,7.6,6.5,12.9,6.6
			c6.5,0.2,12.6-1.8,18.3-4.6c10.1-4.9,18.8-11.8,26.3-20c5.9-6.4,10.8-13.2,14.3-21.1C-271.2,287.2-269.2,280.7-270.1,273.7z"/>
		<path id="XMLID_15769_" d="M-317.9,302.6c2.8-0.4,4.9-1.8,6.8-3.7l0,0c0.1-0.1,0.1-0.1,0.2-0.2l0,0c0.1-0.1,0.1-0.1,0.2-0.2
			c0.3-0.3,0.7-0.7,0.8-0.8c0.1-0.1,0.2-0.2,0.2-0.3c1.8-2,3.3-4.3,3.3-7.2c0-2-1.2-3.3-3.2-3c-0.3,0-0.4,0.1-0.7,0.1l0,0
			c0,0-10.2,1.6-11.3,11.1C-322.2,301.4-320.7,303-317.9,302.6z"/>
	</g>
	<g id="XMLID_11122_">
		<path id="XMLID_15759_" d="M-382,232.3c-2,0.2-3.9,0.4-6.2,0.7c0.5,0.6,0.8,0.9,1.2,1.3c2.3,2.3,4.7,4.5,6.9,6.9
			c1.5,1.8,3.1,2.7,5.5,1.9c1.2-0.3,2.4-0.3,4-0.4c-3.5-3.5-6.8-6.8-10-10C-380.9,232.4-381.5,232.2-382,232.3z"/>
		<path id="XMLID_15754_" d="M-367.9,240.3c0.2-1.6,0.1-2.8,0.4-4c0.7-2.4-0.3-3.9-2-5.5c-2.4-2.2-4.6-4.5-7-6.8
			c-0.3-0.3-0.8-0.7-1.3-1.2c-0.3,2.3-0.5,4.2-0.7,6.2c0,0.4,0.1,1,0.4,1.3C-374.7,233.6-371.4,236.8-367.9,240.3z"/>
		<path id="XMLID_15744_" d="M-316.1,291.7c0-0.1,0-0.1-0.1-0.2c0,0,0-0.1-0.1-0.1v-0.1c-1.2-3-2.2-5.8-3.3-8.7
			c-0.8,1.5-1.5,2.8-2.3,4.3c-19.2-19.3-38.3-38.3-57.4-57.4c-0.6,0.6-1.2,1.2-2,1.9c19.3,19.3,38.3,38.3,57.4,57.4
			c-1.3,0.7-2.5,1.3-4,2.2c3.1,1.2,5.9,2.3,8.8,3.4l4.6,1.4L-316.1,291.7z"/>
	</g>
</g>
</svg>
