<?xml version="1.0" encoding="utf-8"?>
<!-- Generator: Adobe Illustrator 19.0.0, SVG Export Plug-In . SVG Version: 6.00 Build 0)  -->
<svg version="1.1" id="Layer_1" xmlns="http://www.w3.org/2000/svg" xmlns:xlink="http://www.w3.org/1999/xlink" x="0px" y="0px"
	 viewBox="35 5 20 20" style="enable-background:new 35 5 20 20;" xml:space="preserve">
<style type="text/css">
	.st0{fill:#FFFFFF;}
</style>
<path id="XMLID_11183_" class="st0" d="M52,5H38.2c-1.7,0-3,1.3-3,3V22c0,1.7,1.3,3,3,3H52c1.7,0,3-1.3,3-3V8C55,6.3,53.7,5,52,5z
	 M41.8,21.3H39v-8.5h2.7V21.3z M40.4,11.7c-0.8,0-1.5-0.7-1.5-1.6c0-0.8,0.7-1.6,1.5-1.6s1.5,0.7,1.5,1.6
	C41.9,11,41.2,11.7,40.4,11.7z M51.4,21.3h-2.6v-4.9c0,0,0-1.6-1.5-1.5c0,0-1.2-0.1-1.4,1.5v4.8h-2.6v-8.4h2.5V14
	c0,0,0.7-1.4,2.5-1.3c0,0,3-0.3,3.1,3.1L51.4,21.3L51.4,21.3z"/>
</svg>
