<?xml version="1.0" encoding="utf-8"?>
<!-- Generator: Adobe Illustrator 19.0.0, SVG Export Plug-In . SVG Version: 6.00 Build 0)  -->
<svg version="1.1" id="Layer_1" xmlns="http://www.w3.org/2000/svg" xmlns:xlink="http://www.w3.org/1999/xlink" x="0px" y="0px"
	 viewBox="35 5 20 20" style="enable-background:new 35 5 20 20;" xml:space="preserve">
<style type="text/css">
	.st0{opacity:0.9;fill:#FFFFFF;enable-background:new    ;}
</style>
<path id="XMLID_11174_" class="st0" d="M52,5H38.1C36.4,5,35,6.4,35,8.1v13.9c0,1.7,1.4,3.1,3.1,3.1h13.9c1.7,0,3.1-1.4,3.1-3.1V8
	C55,6.4,53.6,5,52,5z M50.8,11.2h-1.3c-1,0-1.2,0.5-1.2,1.2V14h2.5l-0.3,2.5h-2.1V23h-2.6v-6.4h-2.1V14h2.1v-1.8
	c0-2.1,1.3-3.3,3.2-3.3c0.9,0,1.7,0.1,1.9,0.1L50.8,11.2L50.8,11.2z"/>
</svg>
