<?xml version="1.0" encoding="utf-8"?>
<!-- Generator: Adobe Illustrator 19.0.0, SVG Export Plug-In . SVG Version: 6.00 Build 0)  -->
<svg version="1.1" id="Layer_1" xmlns="http://www.w3.org/2000/svg" xmlns:xlink="http://www.w3.org/1999/xlink" x="0px" y="0px"
	 viewBox="35 5 20 20" style="enable-background:new 35 5 20 20;" xml:space="preserve">
<style type="text/css">
	.st0{fill:#FFFFFF;}
	.st1{fill:#4A92BF;}
</style>
<rect x="36.8" y="8.6" class="st0" width="15.9" height="13.7"/>
<path id="XMLID_11183_" class="st1" d="M51.9,5H38.1c-1.7,0-3,1.3-3,3V22c0,1.7,1.3,3,3,3h13.9c1.7,0,3-1.3,3-3V8
	C55,6.3,53.6,5,51.9,5z M41.6,21.4h-2.8v-8.5h2.8V21.4z M40.2,11.7c-0.8,0-1.6-0.7-1.6-1.6c0-0.8,0.7-1.6,1.6-1.6
	c0.8,0,1.6,0.7,1.6,1.6C41.7,11,41.1,11.7,40.2,11.7z M51.3,21.3h-2.6v-4.9c0,0,0-1.6-1.5-1.5c0,0-1.2-0.1-1.4,1.5v4.8h-2.7v-8.4
	h2.5V14c0,0,0.7-1.4,2.5-1.3c0,0,3-0.3,3.1,3.1L51.3,21.3L51.3,21.3z"/>
</svg>
