<?xml version="1.0" encoding="utf-8"?>
<!-- Generator: Adobe Illustrator 19.0.0, SVG Export Plug-In . SVG Version: 6.00 Build 0)  -->
<svg version="1.1" id="Layer_1" xmlns="http://www.w3.org/2000/svg" xmlns:xlink="http://www.w3.org/1999/xlink" x="0px" y="0px"
	 viewBox="35 5 20 20" style="enable-background:new 35 5 20 20;" xml:space="preserve">
<style type="text/css">
	.st0{fill:#FFFFFF;}
	.st1{fill:#3A5B99;enable-background:new    ;}
</style>
<rect x="42.1" y="8.1" class="st0" width="9.9" height="16.1"/>
<path id="XMLID_11174_" class="st1" d="M51.9,5L38.1,5c-1.7,0-3,1.4-3,3l0,13.9c0,1.7,1.4,3,3,3l13.9,0c1.7,0,3-1.4,3-3L55,8
	C55,6.4,53.6,5,51.9,5z M50.7,11.2l-1.3,0c-1,0-1.2,0.5-1.2,1.2l0,1.6l2.5,0l-0.3,2.5l-2.2,0l0,6.4l-2.6,0l0-6.4l-2.2,0l0-2.5l2.2,0
	l0-1.8c0-2.1,1.3-3.3,3.2-3.3c0.9,0,1.7,0.1,1.9,0.1L50.7,11.2L50.7,11.2z"/>
</svg>
