<?xml version="1.0" encoding="utf-8"?>
<!-- Generator: Adobe Illustrator 19.0.0, SVG Export Plug-In . SVG Version: 6.00 Build 0)  -->
<svg version="1.1" id="Layer_1" xmlns="http://www.w3.org/2000/svg" xmlns:xlink="http://www.w3.org/1999/xlink" x="0px" y="0px"
	 viewBox="35 5 20 20" style="enable-background:new 35 5 20 20;" xml:space="preserve">
<style type="text/css">
	.st0{fill:#FFFFFF;}
</style>
<path id="XMLID_80_" class="st0" d="M52,5H38c-1.7,0-3,1.4-3,3V22c0,1.7,1.4,3,3,3H52c1.7,0,3-1.4,3-3V8C55,6.4,53.6,5,52,5z
	 M50.8,12.7c0,0.1,0,0.2,0,0.3c0,3.4-2.6,7.4-7.4,7.4c-1.5,0-2.9-0.4-4-1.2c0.2,0,0.4,0,0.6,0c1.2,0,2.4-0.4,3.3-1.1
	c-1.1,0-2.1-0.8-2.4-1.8c0.1,0,0.3,0,0.5,0c0.2,0,0.5,0,0.7-0.1c-1.2-0.3-2.1-1.3-2.1-2.6v0c0.4,0.2,0.7,0.3,1.2,0.3
	c-0.7-0.5-1.1-1.3-1.1-2.2c0-0.5,0.1-0.9,0.4-1.3c1.3,1.6,3.2,2.6,5.4,2.7c0-0.2-0.1-0.4-0.1-0.6c0-1.4,1.2-2.6,2.6-2.6
	c0.7,0,1.4,0.3,1.9,0.8c0.6-0.1,1.1-0.3,1.7-0.6c-0.2,0.6-0.6,1.1-1.1,1.4c0.5-0.1,1-0.2,1.5-0.4C51.8,11.9,51.3,12.3,50.8,12.7z"/>
</svg>
