<?xml version="1.0" encoding="utf-8"?>
<!-- Generator: Adobe Illustrator 19.0.0, SVG Export Plug-In . SVG Version: 6.00 Build 0)  -->
<svg version="1.1" id="Layer_1" xmlns="http://www.w3.org/2000/svg" xmlns:xlink="http://www.w3.org/1999/xlink" x="0px" y="0px"
	 viewBox="35 5 20 20" style="enable-background:new 35 5 20 20;" xml:space="preserve">
<style type="text/css">
	.st0{fill:#FFFFFF;}
</style>
<g id="XMLID_1_">
	<path id="XMLID_11172_" class="st0" d="M44.7,12.6c0.2,0,0.4-0.2,0.4-0.6v-1.8c0-0.4-0.1-0.6-0.4-0.6s-0.4,0.2-0.4,0.6V12
		C44.3,12.4,44.4,12.6,44.7,12.6z"/>
	<path id="XMLID_11166_" class="st0" d="M52,5H38c-1.7,0-3,1.3-3,3V22c0,1.7,1.3,3,3,3H52c1.7,0,3-1.3,3-3V8C55,6.4,53.6,5,52,5z
		 M46.5,8.9h0.8v3.2c0,0.2,0,0.3,0,0.3c0,0.1,0.1,0.2,0.2,0.2c0.1,0,0.3-0.1,0.5-0.4V9h0.8v4.3h-0.8v-0.5c-0.3,0.4-0.6,0.5-0.9,0.5
		c-0.2,0-0.4-0.1-0.5-0.3c0-0.1-0.1-0.3-0.1-0.6V8.9z M43.5,10.3c0-0.5,0.1-0.8,0.2-1C44,9,44.3,8.9,44.7,8.9c0.4,0,0.7,0.1,0.9,0.4
		c0.2,0.2,0.2,0.6,0.2,1v1.5c0,0.5-0.1,0.8-0.2,1c-0.2,0.3-0.5,0.4-0.9,0.4s-0.7-0.1-0.9-0.4c-0.2-0.2-0.2-0.6-0.2-1V10.3z
		 M41.5,7.5l0.6,2.3l0.6-2.3h0.9l-1,3.4v2.3h-0.9v-2.3c-0.1-0.4-0.2-1-0.5-1.8c-0.2-0.5-0.4-1.1-0.6-1.6H41.5z M51,21.4
		c-0.1,0.7-0.7,1.2-1.4,1.2c-1.6,0.2-3.2,0.2-4.8,0.2s-3.2,0-4.8-0.2c-0.7-0.1-1.2-0.6-1.4-1.2c-0.2-1-0.2-2-0.2-3c0-1,0-2,0.2-3
		c0.1-0.7,0.7-1.2,1.4-1.2c1.6-0.2,3.2-0.2,4.8-0.2s3.2,0,4.8,0.2c0.7,0.1,1.2,0.6,1.4,1.2c0.2,1,0.2,2,0.2,3
		C51.2,19.4,51.2,20.5,51,21.4z"/>
	<path id="XMLID_11159_" class="st0" d="M42.1,16.3v-0.8h-2.7v0.8h0.9v4.9h0.9v-4.9H42.1z M43.7,21.2v-0.5c-0.3,0.4-0.6,0.5-0.9,0.5
		c-0.2,0-0.4-0.1-0.5-0.3c0-0.1-0.1-0.3-0.1-0.6V17H43V20c0,0.2,0,0.3,0,0.3c0,0.1,0.1,0.2,0.2,0.2c0.1,0,0.3-0.1,0.5-0.4v-3.2h0.8
		v4.2L43.7,21.2L43.7,21.2z M46.6,20c0,0.4-0.1,0.6-0.3,0.6c-0.1,0-0.2-0.1-0.4-0.2v-2.6c0.1-0.1,0.2-0.2,0.4-0.2
		c0.2,0,0.3,0.2,0.3,0.6V20z M47.4,19.9v-1.7c0-0.4,0-0.7-0.1-0.9c-0.1-0.3-0.3-0.5-0.6-0.5s-0.5,0.1-0.8,0.5v-1.8h-0.8v5.7h0.8
		v-0.4c0.2,0.3,0.5,0.5,0.8,0.5c0.3,0,0.5-0.2,0.6-0.5C47.3,20.6,47.4,20.3,47.4,19.9z M49.5,18.5h-0.8v-0.4c0-0.4,0.1-0.6,0.4-0.6
		s0.4,0.2,0.4,0.6C49.5,18.2,49.5,18.5,49.5,18.5z M50.2,19.8v-0.1h-0.8c0,0.3,0,0.5,0,0.5c0,0.2-0.1,0.3-0.4,0.3
		c-0.2,0-0.4-0.2-0.4-0.6v-0.7h1.5v-0.9c0-0.5-0.1-0.8-0.2-1c-0.2-0.3-0.5-0.4-0.9-0.4s-0.7,0.1-0.9,0.4c-0.2,0.2-0.2,0.5-0.2,1v1.5
		c0,0.5,0.1,0.8,0.2,1c0.2,0.3,0.5,0.4,0.9,0.4s0.7-0.1,0.9-0.5c0.1-0.1,0.1-0.3,0.2-0.5C50.2,20.2,50.2,20,50.2,19.8z"/>
</g>
</svg>
