<?xml version="1.0" encoding="utf-8"?>
<!-- Generator: Adobe Illustrator 19.1.0, SVG Export Plug-In . SVG Version: 6.00 Build 0)  -->
<svg version="1.1" id="Layer_1" xmlns="http://www.w3.org/2000/svg" xmlns:xlink="http://www.w3.org/1999/xlink" x="0px" y="0px"
	 viewBox="-391.5 218.5 125 125" style="enable-background:new -391.5 218.5 125 125;" xml:space="preserve">
<style type="text/css">
	.st0{fill:#4BBEC0;}
</style>
<g id="XMLID_1745_">
	<path id="XMLID_11577_" class="st0" d="M-344,276.9c-8.9-8.9-11.7-19.7-8.8-31.9c2-8.4,8.4-13,16.3-15.4c2.7-0.8,5.5-1.2,8.4-1.8
		c-0.2-0.4-0.3-0.9-0.7-1.8c1.2,0.7,2.1,1.2,3.2,1.8c0.4-0.6,0.8-1.2,1.5-2c0,1.1,0,1.8,0,2.5c1.7,0.5,3.4,0.8,4.9,1.7
		c3.3,1.7,6.6,3.3,9.5,5.6c5.8,4.4,7.7,10.7,7.4,17.7c-0.3,6.8-1.8,13.2-5.7,18.9c-1.1,1.5-2.3,2.9-3.7,4.4c0,0,0,0.3,0.1,0.3
		c5.4,4.5,7,10.7,7.9,17.3c0.3,2.7,0.4,5.4,0.7,8c0.2,2.3-0.1,3-2.3,3.6c-1.8,0.5-2.8,1.3-3.3,3.3c-0.8,3.6-3.7,5.4-7,6
		c-7.9,1.3-16,1.4-24,0.1c-3.9-0.7-6.4-3.2-7.1-7.3c-0.2-1-0.6-1.6-1.7-1.8c-0.8-0.2-1.7-0.3-2.4-0.8c-0.6-0.3-1.3-1.2-1.3-1.7
		c-0.1-7.5,0.3-15,4.3-21.7C-346.7,280.1-345.3,278.5-344,276.9z M-344,251.8c-1.8,2.6-3.5,4.9-5.1,7.4c-0.3,0.4-0.4,1.1-0.3,1.7
		c1.3,8.6,7.6,15.9,15.8,17.9c8.9,2.2,17.8-0.9,23.1-8.2c2.1-2.8,3.5-6,3.8-9.3c-2.9-0.8-5.6-1.4-8.6-2.2c0.7,0.7,1.2,1.1,1.8,1.7
		C-325.1,261.5-335.8,260.5-344,251.8z M-309.1,303.4c2.4,0.1,2.9-1,2.7-3c-0.3-3.1-0.3-6.2-0.8-9.2c-0.8-5.1-2.8-9.6-7.2-12.8
		c-1.1,0.7-2.1,1.3-3.1,1.9c2.2,3,2.2,3-0.3,5.4c1.9,1.8,0.7,3.2-0.6,4.8c-2.3,2.9-4.4,6.1-6.9,8.9c-1.7,1.9-1.7,3.8-1.3,6.3
		c5,0,9.9,0,14.8-0.1c0.3,0,0.8-0.7,0.9-1c0.1-1.5,0.1-3,0.1-4.5c0-2.3,0-4.6,0-7.1C-310.3,296.5-309.7,300-309.1,303.4z
		 M-329.5,305.5c0.3-2.3,0.3-4.3-1.3-6.2c-2.3-2.7-4.4-5.7-6.6-8.5c-1.3-1.6-3.2-3-1.1-5c-0.8-1.1-2-1.9-1.9-2.8
		c0.1-0.9,1.2-1.8,1.8-2.8c-0.9-0.6-1.8-1-2.8-1.6c-7.4,6.4-7.7,15.1-8,23.9c1.2,0.3,2.1,0.6,3.2,0.8c0.6-3.5,1.3-6.9,1.8-10.1
		c0.1,0,0.2,0,0.3,0c0,4,0,8.1,0,12.2C-339.1,305.5-334.3,305.5-329.5,305.5z M-343.9,308.1c1,3,3.1,4.1,5.6,4.3
		c6,0.3,12.1,0.3,18.2,0.3c1.9,0,3.9-0.8,5.8-1.4c1.3-0.4,2.2-1.5,2.3-3C-322.5,308.1-333.1,308.1-343.9,308.1z M-332.2,294
		c-0.7-3.8-1.4-7.5-2.2-11.4c-0.1-0.5-0.7-1.1-1.2-1.3c-0.4-0.2-1.1,0.1-1.5,0.4c-0.4,0.3-0.7,0.8-1.1,1.3c2,1,2.8,2.3,1.3,4.3
		c-0.2,0.2,0.1,0.9,0.3,1.3C-335,290.5-333.5,292.3-332.2,294z M-318,283c-0.4-0.5-0.7-1-1.1-1.3c-0.8-0.8-2.5-0.3-2.7,0.8
		c-0.8,3.9-1.5,7.8-2.3,11.7c1.4-1.8,3-3.7,4.4-5.8c0.3-0.3,0.2-1.3-0.2-1.8c-0.8-1.3-0.5-2,0.6-2.8
		C-318.7,283.8-318.4,283.5-318,283z M-330.9,291.3c1.7-4.9,1.6-5.8-0.4-7.5C-332.6,286.3-331.1,288.5-330.9,291.3z M-325.3,290.5
		c0.2-2.3,1.8-4.5,0.3-6.9C-327.5,286-326,288.2-325.3,290.5z"/>
	<path id="XMLID_11576_" class="st0" d="M-300.6,303.4c0-1.3,0-2.4,0-3.8c9.1,1.8,17.9,3.8,25.6,9.2c1.2,0.8,2.3,1.8,3.2,2.9
		c3,3.4,2.8,7.4-0.6,11c-3.3,3.5-7.7,5.5-12.1,7.2c-9.5,3.5-19.3,5.1-29.4,5.9c-9.5,0.8-19,0.8-28.4,0c-12-1.1-23.8-2.9-34.5-8.4
		c-2.7-1.4-5.2-3.4-7.3-5.6c-2.8-3-2.6-6.5-0.1-9.8c2.3-3.1,5.7-4.9,9.1-6.4c6.2-3,12.8-4.7,19.5-5.9c0.1,0.2,0.3,0.3,0.3,0.3
		c0.1,3.5,0.1,3.3-3.3,4.4c-4.2,1.3-8.3,3-12.4,4.8c-1.3,0.5-2.3,1.6-3.3,2.6c-2.3,2.3-2.2,5.1,0,7.4c2.7,2.8,6.1,4.3,9.7,5.5
		c8.3,2.9,17,4.1,25.7,4.8c8.6,0.7,17.2,0.6,25.8-0.3c9.1-1,18.2-2.3,26.5-6.5c1.8-0.9,3.4-2.2,4.9-3.5c2.3-2.3,2.2-5.1-0.1-7.4
		c-2.4-2.6-5.5-4-8.7-5.1C-293.8,305.4-297.1,304.5-300.6,303.4z"/>
	<path id="XMLID_11575_" class="st0" d="M-348.8,311.1c-0.3,0.2-0.5,0.3-0.7,0.4c-0.8,0.6-1.4,1.3-2.2,1.8c0.8,0.7,1.5,1.6,2.5,1.9
		c5.1,1.9,10.5,2.3,15.7,2.5c7.7,0.3,15.5,0.2,23.1-1.4c1.5-0.3,3-0.8,4.4-1.5c0.6-0.3,1.5-1,1.4-1.4c-0.1-0.6-0.8-1.2-1.4-1.7
		c-0.3-0.3-0.8-0.4-1.2-0.6c-0.1-0.2-0.1-0.3-0.1-0.3c1-4.3-0.4-4.9,4.9-3c2.5,0.8,5,2.2,7.2,3.8c2.3,1.7,2.1,4.1-0.2,5.9
		c-3.2,2.6-6.9,3.8-10.8,4.6c-15.4,3.3-30.8,3.3-46.1-0.6c-2.9-0.8-5.8-2.2-8.4-3.8c-2.9-1.8-2.8-4.4-0.1-6.5
		c2.8-2.3,6.4-3.3,9.8-4.2c0.9-0.3,1.5,0.1,1.6,1.3C-349.1,309.1-349,310.1-348.8,311.1z"/>
	<path id="XMLID_10983_" class="st0" d="M-331.2,268.1c0,0.5,0.2,1.1,0,1.4c-0.5,0.8-1,1.7-1.8,1.9c-1.1,0.4-2.2-0.3-2.3-1.3
		c-0.3-1.3-0.3-2.8,0.1-4.1c0.2-0.7,1.5-1.5,2.2-1.3c0.8,0.2,1.4,1.3,1.9,2C-331.1,267-331.2,267.7-331.2,268.1z"/>
	<path id="XMLID_10982_" class="st0" d="M-320.3,268.7c0,0.1,0.2,0.8-0.1,1.3c-0.6,0.7-1.5,1.6-2.2,1.4c-0.8-0.1-1.7-1-2.1-1.8
		c-0.3-0.7-0.1-1.7-0.1-2.5c0-1.5,0.8-2.5,2.3-2.5c1.5,0,2.2,1,2.2,2.6C-320.3,267.5-320.3,267.9-320.3,268.7z"/>
	<path id="XMLID_10981_" class="st0" d="M-328,276.7c-1.3-0.3-2.5-0.6-3.7-0.9c-0.3-0.1-0.8-0.9-0.7-1c0.3-0.3,0.9-0.8,1.2-0.8
		c2.1,0.8,4.1,0.8,6.2,0c0.3-0.1,1,0.3,1.1,0.6c0.1,0.3-0.2,1-0.5,1.2C-325.5,276.1-326.7,276.4-328,276.7z"/>
</g>
</svg>
