<?xml version="1.0" encoding="utf-8"?>
<!-- Generator: Adobe Illustrator 19.1.0, SVG Export Plug-In . SVG Version: 6.00 Build 0)  -->
<svg version="1.1" id="Layer_1" xmlns="http://www.w3.org/2000/svg" xmlns:xlink="http://www.w3.org/1999/xlink" x="0px" y="0px"
	 viewBox="-391.5 218.5 125 125" style="enable-background:new -391.5 218.5 125 125;" xml:space="preserve">
<style type="text/css">
	.st0{fill:none;stroke:#F5825E;stroke-width:0.8;stroke-miterlimit:10;}
</style>
<g id="XMLID_1_">
	<g id="XMLID_39_">
		<path id="XMLID_16_" class="st0" d="M-323.3,303.8c7.2,0,7.5,0,14.7,0v-5H-351c0,0,0,4.6-0.1,4.9c8.2,0,11.1,0,19.2,0h1.2v7.9
			h-13.5v2.9h33.1v-2.9h-13.5v-7.8L-323.3,303.8L-323.3,303.8z"/>
		<path id="XMLID_15_" class="st0" d="M-280.8,248.9c0-1.6-0.2-1.7-1.7-1.7c-30.1,0-60.2,0-90.3,0c-1.6,0-1.7,0.2-1.7,1.7
			c0,8.3,0,6.5,0,14.9h3v-13.6h87.8v27.2h3.1C-280.8,265.2-280.8,261-280.8,248.9z"/>
	</g>
	<g id="XMLID_28_">
		<path id="XMLID_29_" class="st0" d="M-308.6,297.8c0-4.7,0-9.3,0-14c0-1.2,0.6-2.1,1.6-2.5c0.4-0.2,0.8-0.2,1.2-0.2
			c4.2,0,8.3,0,12.5,0c1.8,0,2.8,1,2.8,2.8c0,9.3,0,18.6,0,27.9c0,1.8-0.9,2.8-2.7,2.8c-4.2,0-8.4,0-12.6,0c-1.8,0-2.7-1-2.7-2.8
			C-308.6,307.1-308.6,302.4-308.6,297.8z M-307,295.9c0,4,0,8,0,12c0,1.2,0.2,1.4,1.4,1.4c4.1,0,8.2,0,12.4,0c1,0,1.2-0.2,1.2-1.2
			c0-8.1,0-16.1,0-24.2c0-1-0.3-1.2-1.2-1.2c-4.1,0-8.2,0-12.3,0c-1.2,0-1.5,0.2-1.5,1.4C-307,288-307,291.9-307,295.9z
			 M-299.5,313.4c0.9,0,1.6-0.7,1.6-1.6c0-0.9-0.7-1.6-1.6-1.6c-0.9,0-1.6,0.7-1.6,1.6C-301.1,312.8-300.3,313.4-299.5,313.4z"/>
	</g>
	<path id="XMLID_20_" class="st0" d="M-388.3,289c0-7.4,0-14.9,0-22.4c0-0.9,0.2-1.6,1-2.2c0.5-0.4,1.1-0.6,1.6-0.6
		c8.6,0,23.4,0,31.9,0c1.5,0,2.5,1.1,2.6,2.6c0,0.1,0,0.2,0,0.3c0,14.9,0,29.9,0,44.8c0,0.8-0.2,1.6-0.8,2.1
		c-0.5,0.5-1.2,0.7-1.9,0.7c-8.5,0-23.3,0-31.7,0c-1.6,0-2.6-1.1-2.6-2.7C-388.3,304-388.3,296.5-388.3,289z M-353.8,307.8
		c0-13.8,0-27.5,0-41.3c-8.6,0-23.4,0-31.9,0c0,13.8,0,27.5,0,41.3C-377.2,307.8-362.4,307.8-353.8,307.8z M-369.7,313.3
		c1.2,0,2.1-1,2.1-2.1s-1-2.1-2.1-2.1s-2.1,1-2.1,2.1C-371.8,312.3-370.9,313.3-369.7,313.3z"/>
	<g id="XMLID_10_">
		<path id="XMLID_11_" class="st0" d="M-288.7,295.9c0-4.7,0-9.3,0-13.9c0-2.6,1.1-3.9,3.7-4.3c0.9-0.2,1.8-0.2,2.7-0.2
			c2.7,0,5.4,0,8.2,0.2c0.8,0,1.6,0.2,2.3,0.6c1.5,0.7,2.1,1.9,2.1,3.4c0,6.3,0,12.8,0,19.1c0,3.1-0.1,6.1,0,9.2
			c0.1,3-1.6,4.3-3.9,4.8c-0.7,0.2-1.2,0.2-1.9,0.2c-2.6,0-5.2,0-7.8,0c-1.5,0-3-0.4-4.1-1.5c-0.9-0.8-1.2-1.9-1.2-3.1
			C-288.7,305.5-288.7,300.7-288.7,295.9z M-271,310.3c0-9.8,0-19.6,0-29.4c-5.5,0-11.1,0-16.6,0c0,9.8,0,19.6,0,29.4
			C-282,310.3-276.5,310.3-271,310.3z M-279.2,312.3c-0.5,0-1.1,0-1.6,0c-0.2,0-0.6,0.2-0.6,0.3c-0.1,0.4,0.2,0.7,0.6,0.7
			c1.1,0.1,2.1,0.1,3.1,0c0.4,0,0.6-0.4,0.5-0.7c0-0.2-0.4-0.3-0.6-0.3C-278.2,312.2-278.7,312.3-279.2,312.3z"/>
	</g>
</g>
</svg>
