<?xml version="1.0" encoding="utf-8"?>
<!-- Generator: Adobe Illustrator 19.1.0, SVG Export Plug-In . SVG Version: 6.00 Build 0)  -->
<svg version="1.1" id="Layer_1" xmlns="http://www.w3.org/2000/svg" xmlns:xlink="http://www.w3.org/1999/xlink" x="0px" y="0px"
	 viewBox="-391.5 218.5 125 125" style="enable-background:new -391.5 218.5 125 125;" xml:space="preserve">
<style type="text/css">
	.st0{fill:#4CBEC0;}
	.st1{fill:none;stroke:#4DBEC0;stroke-miterlimit:10;}
</style>
<g id="XMLID_10486_">
	<path id="XMLID_10962_" class="st0" d="M-306.4,276.4c-0.4-0.4-0.8-0.5-1.1-0.8c-1.2-1.2-2.5-2.5-3.7-3.7c-1.1-1.1-1.1-1.4,0-2.5
		c4.9-4.4,9.7-8.9,14.5-13.3c7-6.4,13.9-12.7,20.8-19.1c1.1-1.1,1.4-1.1,2.6,0.1c0.2,0.2,0.3,0.3,0.4,0.4c1.1,1.1,1.1,1.4,0.1,2.6
		c-5,5.6-10.2,11-15.2,16.6c-5.7,6.3-11.4,12.4-17.1,18.7C-305.5,275.7-305.9,276-306.4,276.4z"/>
	<path id="XMLID_10959_" class="st0" d="M-313.9,273.2c1.4,1.4,2.8,2.8,4.1,4.2c0.2,0.3,0.3,0.9,0.1,1.1c-2.8,5.3-6.9,9.5-11.8,13.1
		c-0.5-1-1.3-1.1-2.4-0.8c-1,0.4-1.2,1.2-1.2,2.1c-0.2,3.2-1.7,5.3-4.8,6.4c-3,1.1-5.9,2.5-9,3.9c0.2-0.4,0.2-0.8,0.4-1.1
		c1.1-2.7,2.4-5.5,3.4-8.3c1.1-2.9,3.1-4.4,6.2-4.7c0.6-0.1,1.4-0.3,1.9-0.7c0.9-0.7,0.7-2-0.4-3
		C-324,280.4-319.6,276.2-313.9,273.2z M-328.4,294.5c0-1.1-1-1.9-2-1.9c-1.1,0-1.9,0.9-1.9,2c0,1.1,1,1.9,2,1.9
		C-329.2,296.5-328.3,295.5-328.4,294.5z"/>
</g>
<g id="XMLID_10513_">
	<path id="XMLID_10518_" class="st1" d="M-286.1,285.8c-6.9,0-13.8,0-20.7,0c-0.5,0-1,0-1.4,0.1h-65v23.3h88.4v-23.4H-286.1z
		 M-299.8,303.6h-32v0.1h-24.7v-12.4h52.3h0.1h5.4v5.5C-298.6,296.8-298.3,303.6-299.8,303.6z"/>
	<path id="XMLID_10517_" class="st1" d="M-388.4,320.4c0.5,0,0.9,0,1.2,0c14.5,0,29,0,43.4,0c0.6,0,1.1,0.1,1.6,0.6
		c0.4,0.4,1.2,0.7,1.9,0.7c7.6,0.1,15.2,0,22.8,0c0.6,0,1.4-0.3,1.8-0.7c0.5-0.6,1.1-0.7,1.8-0.7c14.4,0,28.8,0,43.2,0
		c0.4,0,0.8,0,1.1,0c0.8,3.1-1.1,5.5-4.3,5.5c-14.5,0-29,0-43.4,0c-22.1,0-44.2,0-66.3,0c-2.3,0-4-1.1-4.5-3
		C-388.4,322.1-388.4,321.3-388.4,320.4z"/>
	<path id="XMLID_10514_" class="st1" d="M-276.6,251.3c0,0-0.6,0-0.9,0c-27.5,0-72.1,0-99.6,0c-0.4,0-1,0-1.4,0
		c-2.3,0.3-3,1.1-3,3.4c0,20.6,0,41,0,61.6c0,0.4,0,0.8,0,1.2c35,0,70,0,104.9,0C-276.6,295.6-276.6,251.3-276.6,251.3z M-282,309.8
		c0,1.9-0.4,2.2-2.2,2.2c-29.8,0-59.8,0-89.6,0c-1.8,0-2.2-0.4-2.2-2.2c0-16.9,0-33.8,0-50.7c0-2,0.4-2.4,2.4-2.4
		c23.3,0,63.6-0.1,86.9,0.1c0.1,0,0.2,0,0.3,0h4.4v2c0,0.1,0,0.1,0,0.2C-281.9,276-282,292.9-282,309.8z"/>
</g>
</svg>
