<?xml version="1.0" encoding="utf-8"?>
<!-- Generator: Adobe Illustrator 19.0.0, SVG Export Plug-In . SVG Version: 6.00 Build 0)  -->
<svg version="1.1" id="Layer_1" xmlns="http://www.w3.org/2000/svg" xmlns:xlink="http://www.w3.org/1999/xlink" x="0px" y="0px"
	 viewBox="-145 239 320 315" style="enable-background:new -145 239 320 315;" xml:space="preserve">
<style type="text/css">
	.st0{fill:#F8835E;}
	.st1{fill:#FFFFFF;}
	.st2{fill:none;stroke:#FFFFFF;stroke-width:2;stroke-dasharray:4,4;}
</style>
<g>
	<circle class="st0" cx="-27.5" cy="300.6" r="27.5"/>
	<circle class="st0" cx="-96.5" cy="382.6" r="23.5"/>
	<circle class="st0" cx="105.5" cy="456.6" r="31.5"/>
	<circle class="st0" cx="-67" cy="477" r="31"/>
	<circle class="st0" cx="65.5" cy="307.6" r="20.5"/>
	<circle class="st0" cx="32.5" cy="508.5" r="20.5"/>
	<circle class="st1" cx="13" cy="403.1" r="13"/>
	<path class="st2" d="M11,292.1c60.8,0,110,49.2,110,110c0,60.7-49.3,110-110,110c-60.8,0-110-49.2-110-110
		C-99,341.3-49.8,292.1,11,292.1z"/>
	<circle class="st1" cx="-28" cy="300.1" r="7"/>
	<circle class="st1" cx="66" cy="308.1" r="4"/>
	<circle class="st1" cx="33" cy="509" r="7"/>
	<circle class="st1" cx="-97" cy="383.1" r="7"/>
	<circle class="st1" cx="-68" cy="478" r="10"/>
	<circle class="st1" cx="105" cy="456.1" r="10"/>
</g>
</svg>
