<?xml version="1.0" encoding="utf-8"?>
<!-- Generator: Adobe Illustrator 19.0.0, SVG Export Plug-In . SVG Version: 6.00 Build 0)  -->
<svg version="1.1" id="Layer_1" xmlns="http://www.w3.org/2000/svg" xmlns:xlink="http://www.w3.org/1999/xlink" x="0px" y="0px"
	 viewBox="1110 -60 150 150" style="enable-background:new 1110 -60 150 150;" xml:space="preserve">
<style type="text/css">
	.st0{fill:#4CBEC0;}
</style>
<g id="XMLID_15775_">
	<path id="XMLID_11333_" class="st0" d="M1151,16.1c-0.3,0.3-0.6,0.6-1.1,1.1c-0.8-1.1-1.6-2.2-2.5-3.3c-3.6,3.6-6.9,6.9-10.5,10.5
		c-1-3.2-2-6.1-2.7-9c-5-22.2,0.7-41.3,16.5-57.5c6.2-6.3,14.1-9.7,22.7-11.4c10.7-2.2,21.4-1.4,32.1,0.6c7.8,1.5,14.8,4.5,20.9,9.6
		c5.2,4.3,8.3,10,11.3,15.8c1.4,2.8,2.7,5.7,2.7,8.9c0,1.2-0.2,2.4-0.6,3.5c-1.3,3.2-1.2,6.1,1.1,9c4.3,5.4,8.4,11,12.5,16.5
		c1.8,2.4,1.5,4.1-1.1,5.7c-1,0.6-1.9,1.2-2.8,2c-1.5,1.3-1.9,3.1-1.4,5c0.3,1.3,0.9,2.5,1.2,3.8c0.6,2.3,0.2,3.1-1.9,4.1
		c-0.8,0.3-1.4,1-2.1,1.4c0.6,0.6,1.1,1.1,1.7,1.7c0.2,0.2,0.6,0.4,0.9,0.6c1.7,1.2,1.9,2.8,0.5,4.3c-0.1,0.1-0.1,0.1-0.2,0.2
		c-4,2.9-4.3,6.8-3,11.1c0.3,1.2,0.7,2.4,1.1,3.6c0.9,3.2,0,5.7-2.8,7.5c-2.7,1.7-5.8,2.3-8.9,2.7c-2.5,0.3-5,0.5-7.5,0.7
		c-1.8,0.2-3.1,1.2-3.9,2.8c-1.2,2.4-2.1,4.9-2.2,7.7c0,3.5-0.3,7-0.4,10.6c-16.3,0-32.6,0-49,0c0-0.5,0-1,0-1.5c0-3.7,0-7.4,0-11.1
		c0-6.6-1.3-12.9-3.8-19c-1.7-4.3-3.3-8.5-7.6-11c2.7-2.7,5.3-5.3,8.1-8c-1.2-1-2.2-1.9-3.1-2.7c0.5-1.1,1.1-1.2,2-0.7
		c24.2,12.7,53-0.3,59.5-26.7c5.5-22.4-9.2-45.4-32-49.9c-23-4.5-45,10.7-48.7,33.9c-1.5,9.1,0,17.7,4.3,25.9
		C1150.7,15.4,1150.8,15.8,1151,16.1z"/>
	<path id="XMLID_11330_" class="st0" d="M1165.6,24c-2.9,2.9-5.7,5.7-8.6,8.6c1,0.8,2,1.7,3,2.5c-11.3,11.2-22.3,22.3-33.3,33.2
		c-4.2-4.2-8.4-8.4-12.5-12.5c10.9-10.9,21.9-21.9,33.2-33.1c0.7,0.8,1.5,1.8,2.2,2.7c3-3,5.8-5.8,8.8-8.7
		c-6.2-8.8-8.4-18.7-5.8-29.5c2.1-8.6,6.9-15.5,14.2-20.5c14.5-10.1,34-7.8,46.2,5.4c11.7,12.8,12.2,32.6,1,46.2
		C1202.9,31.7,1182.1,35.9,1165.6,24z M1207.2,12.8c8.2-9.3,9.1-25.4-1.5-36.1c-10.5-10.5-27.5-10.4-38,0.3
		c-10.1,10.3-9.1,25.5-3,33.4c0-0.6,0-1,0-1.4c0-3,0-5.9,0-8.9c0-0.5,0.4-1.2,0.8-1.4c2.5-1.2,4.9-2.3,7.5-3.3
		c1-0.4,2.1-0.3,3.3-0.5c0,0.8,0,1.3,0,1.8c0,7.4,0,14.9,0,22.3c0,0.5,0.1,1.2,0.4,1.3c1.1,0.5,2.2,0.8,3.6,1.3c0-8.8,0-17.3,0-26
		c0.6,0.4,1.1,0.5,1.4,0.8c1.8,1.5,3.6,2.9,5.5,4.4c1.2,1,2.4,2,3.7,2.8c0.7,0.4,1,0.8,1,1.6c0,5.1,0,10.2,0,15.2c0,0.5,0,0.9,0,1.5
		c0.9-0.2,1.7-0.5,2.4-0.6c1.2-0.2,1.6-0.8,1.6-2c-0.1-5,0-10,0-15c0-0.4,0.1-1.1,0.3-1.3c2.8-2.2,5.7-4.4,8.6-6.5
		c0.7-0.5,1.6-0.8,2.6-1.3C1207.2,1.3,1207.2,6.9,1207.2,12.8z"/>
	<path id="XMLID_11260_" class="st0" d="M1195.3-2.6c3.3-1.9,6.5-3.8,9.7-5.7c0.4-0.2,0.6-0.8,0.7-1.2c0.3-1.4,1.2-2.4,2.5-2.4
		c1.3-0.1,2.2,0.5,2.7,1.6c0.5,1.1,0.2,2.4-0.8,3.2c-1,0.8-2.1,0.8-3.4,0.1c-0.3-0.2-0.9-0.2-1.2,0c-3.2,1.8-6.4,3.7-9.6,5.5
		c-0.3,0.2-0.6,0.5-0.8,0.8c-0.8,1.5-1.9,2.1-3.1,1.9c-1.4-0.3-2.1-1.3-2.2-2.9c0-0.3-0.2-0.8-0.5-0.9c-3.1-1.8-6.1-3.6-9.2-5.4
		c-1.8,2.1-3.1,2.2-5,0.3c-0.2-0.2-0.7-0.3-1-0.2c-1.9,0.6-3.8,1.2-5.6,2c-0.4,0.1-0.7,0.8-0.8,1.2c-0.4,1.4-1.5,2.2-2.9,2.1
		c-1.3-0.1-2.3-1.1-2.5-2.4c-0.1-1.3,0.6-2.6,1.9-2.9c0.7-0.1,1.7,0,2.3,0.4c0.7,0.4,1.1,0.4,1.8,0.2c1.4-0.5,2.8-1,4.2-1.5
		c1.2-0.4,2.2-0.8,2.9-2c1-1.7,3.5-1.3,4.5,0.4c0.3,0.6,0.8,1.1,1.4,1.4c2.7,1.7,5.5,3.3,8.3,4.9c0.6,0.4,1.1,0.5,1.8,0.1
		C1192.9-4.6,1193.9-4.2,1195.3-2.6z M1191-1.7c0,0.2,0,0.4,0,0.6c0.5,0.4,1.1,1,1.6,1c0.8,0.1,1.4-0.5,1.4-1.4
		c0-0.8-0.6-1.5-1.4-1.3C1192.1-2.7,1191.6-2.1,1191-1.7z M1179.2-8.8c0-0.2,0-0.4,0-0.6c-0.5-0.3-1-0.9-1.6-1
		c-0.8-0.1-1.4,0.5-1.4,1.3c0,0.8,0.5,1.5,1.4,1.3C1178.2-7.9,1178.7-8.5,1179.2-8.8z M1166.7-4.9c0-0.2,0-0.4,0-0.6
		c-0.5-0.4-0.9-1.1-1.5-1.2c-0.8-0.2-1.4,0.4-1.5,1.2c-0.1,0.9,0.4,1.5,1.2,1.5C1165.6-4,1166.2-4.5,1166.7-4.9z M1208.9-10.7
		c-0.2,0-0.4,0-0.6,0c-0.4,0.5-1,1-1.1,1.5c-0.2,0.8,0.3,1.3,1.1,1.4c0.9,0.1,1.6-0.3,1.5-1.2C1209.7-9.6,1209.2-10.1,1208.9-10.7z"
		/>
</g>
</svg>
