<?xml version="1.0" encoding="utf-8"?>
<!-- Generator: Adobe Illustrator 19.1.0, SVG Export Plug-In . SVG Version: 6.00 Build 0)  -->
<svg version="1.1" id="Layer_1" xmlns="http://www.w3.org/2000/svg" xmlns:xlink="http://www.w3.org/1999/xlink" x="0px" y="0px"
	 viewBox="-391.5 218.5 125 125" style="enable-background:new -391.5 218.5 125 125;" xml:space="preserve">
<style type="text/css">
	.st0{fill:#4CBEC0;}
</style>
<g id="XMLID_15775_">
	<path id="XMLID_11333_" class="st0" d="M-356.7,281.5c-0.2,0.2-0.5,0.5-0.9,0.9c-0.7-0.9-1.3-1.8-2.1-2.7c-3,3-5.7,5.7-8.7,8.7
		c-0.8-2.7-1.7-5.1-2.2-7.5c-4.2-18.4,0.6-34.3,13.7-47.8c5.2-5.2,11.7-8.1,18.9-9.5c8.9-1.8,17.8-1.2,26.7,0.5
		c6.5,1.2,12.3,3.7,17.4,8c4.3,3.6,6.9,8.3,9.4,13.1c1.2,2.3,2.2,4.7,2.2,7.4c0,1-0.2,2-0.5,2.9c-1.1,2.7-1,5.1,0.9,7.5
		c3.6,4.5,7,9.1,10.4,13.7c1.5,2,1.2,3.4-0.9,4.7c-0.8,0.5-1.6,1-2.3,1.7c-1.2,1.1-1.6,2.6-1.2,4.2c0.2,1.1,0.7,2.1,1,3.2
		c0.5,1.9,0.2,2.6-1.6,3.4c-0.7,0.2-1.2,0.8-1.7,1.2c0.5,0.5,0.9,0.9,1.4,1.4c0.2,0.2,0.5,0.3,0.7,0.5c1.4,1,1.6,2.3,0.4,3.6
		c-0.1,0.1-0.1,0.1-0.2,0.2c-3.3,2.4-3.6,5.6-2.5,9.2c0.2,1,0.6,2,0.9,3c0.7,2.7,0,4.7-2.3,6.2c-2.2,1.4-4.8,1.9-7.4,2.2
		c-2.1,0.2-4.2,0.4-6.2,0.6c-1.5,0.2-2.6,1-3.2,2.3c-1,2-1.7,4.1-1.8,6.4c0,2.9-0.2,5.8-0.3,8.8c-13.5,0-27.1,0-40.7,0
		c0-0.4,0-0.8,0-1.2c0-3.1,0-6.1,0-9.2c0-5.5-1.1-10.7-3.2-15.8c-1.4-3.6-2.7-7.1-6.3-9.1c2.2-2.2,4.4-4.4,6.7-6.6
		c-1-0.8-1.8-1.6-2.6-2.2c0.4-0.9,0.9-1,1.7-0.6c20.1,10.6,44-0.2,49.4-22.2c4.6-18.6-7.6-37.7-26.6-41.5
		c-19.1-3.7-37.4,8.9-40.5,28.2c-1.2,7.6,0,14.7,3.6,21.5C-357,280.9-356.9,281.2-356.7,281.5z"/>
	<path id="XMLID_11330_" class="st0" d="M-344.6,288c-2.4,2.4-4.7,4.7-7.1,7.1c0.8,0.7,1.7,1.4,2.5,2.1
		c-9.4,9.3-18.5,18.5-27.7,27.6c-3.5-3.5-7-7-10.4-10.4c9.1-9.1,18.2-18.2,27.6-27.5c0.6,0.7,1.2,1.5,1.8,2.2
		c2.5-2.5,4.8-4.8,7.3-7.2c-5.2-7.3-7-15.5-4.8-24.5c1.7-7.1,5.7-12.9,11.8-17c12-8.4,28.2-6.5,38.4,4.5
		c9.7,10.6,10.1,27.1,0.8,38.4C-313.6,294.4-330.9,297.9-344.6,288z M-310,278.7c6.8-7.7,7.6-21.1-1.2-30
		c-8.7-8.7-22.8-8.6-31.6,0.2c-8.4,8.6-7.6,21.2-2.5,27.7c0-0.5,0-0.8,0-1.2c0-2.5,0-4.9,0-7.4c0-0.4,0.3-1,0.7-1.2
		c2.1-1,4.1-1.9,6.2-2.7c0.8-0.3,1.7-0.2,2.7-0.4c0,0.7,0,1.1,0,1.5c0,6.1,0,12.4,0,18.5c0,0.4,0.1,1,0.3,1.1c0.9,0.4,1.8,0.7,3,1.1
		c0-7.3,0-14.4,0-21.6c0.5,0.3,0.9,0.4,1.2,0.7c1.5,1.2,3,2.4,4.6,3.7c1,0.8,2,1.7,3.1,2.3c0.6,0.3,0.8,0.7,0.8,1.3
		c0,4.2,0,8.5,0,12.6c0,0.4,0,0.7,0,1.2c0.7-0.2,1.4-0.4,2-0.5c1-0.2,1.3-0.7,1.3-1.7c-0.1-4.2,0-8.3,0-12.5c0-0.3,0.1-0.9,0.2-1.1
		c2.3-1.8,4.7-3.7,7.1-5.4c0.6-0.4,1.3-0.7,2.2-1.1C-310,269.2-310,273.8-310,278.7z"/>
	<path id="XMLID_11260_" class="st0" d="M-319.9,265.9c2.7-1.6,5.4-3.2,8.1-4.7c0.3-0.2,0.5-0.7,0.6-1c0.2-1.2,1-2,2.1-2
		c1.1-0.1,1.8,0.4,2.2,1.3c0.4,0.9,0.2,2-0.7,2.7c-0.8,0.7-1.7,0.7-2.8,0.1c-0.2-0.2-0.7-0.2-1,0c-2.7,1.5-5.3,3.1-8,4.6
		c-0.2,0.2-0.5,0.4-0.7,0.7c-0.7,1.2-1.6,1.7-2.6,1.6c-1.2-0.2-1.7-1.1-1.8-2.4c0-0.2-0.2-0.7-0.4-0.7c-2.6-1.5-5.1-3-7.6-4.5
		c-1.5,1.7-2.6,1.8-4.2,0.2c-0.2-0.2-0.6-0.2-0.8-0.2c-1.6,0.5-3.2,1-4.7,1.7c-0.3,0.1-0.6,0.7-0.7,1c-0.3,1.2-1.2,1.8-2.4,1.7
		c-1.1-0.1-1.9-0.9-2.1-2c-0.1-1.1,0.5-2.2,1.6-2.4c0.6-0.1,1.4,0,1.9,0.3c0.6,0.3,0.9,0.3,1.5,0.2c1.2-0.4,2.3-0.8,3.5-1.2
		c1-0.3,1.8-0.7,2.4-1.7c0.8-1.4,2.9-1.1,3.7,0.3c0.2,0.5,0.7,0.9,1.2,1.2c2.2,1.4,4.6,2.7,6.9,4.1c0.5,0.3,0.9,0.4,1.5,0.1
		C-321.9,264.3-321.1,264.6-319.9,265.9z M-323.5,266.7c0,0.2,0,0.3,0,0.5c0.4,0.3,0.9,0.8,1.3,0.8c0.7,0.1,1.2-0.4,1.2-1.2
		c0-0.7-0.5-1.2-1.2-1.1C-322.6,265.8-323,266.3-323.5,266.7z M-333.3,260.8c0-0.2,0-0.3,0-0.5c-0.4-0.2-0.8-0.7-1.3-0.8
		c-0.7-0.1-1.2,0.4-1.2,1.1s0.4,1.2,1.2,1.1C-334.1,261.5-333.7,261-333.3,260.8z M-343.7,264c0-0.2,0-0.3,0-0.5
		c-0.4-0.3-0.7-0.9-1.2-1c-0.7-0.2-1.2,0.3-1.2,1c-0.1,0.7,0.3,1.2,1,1.2C-344.6,264.8-344.1,264.3-343.7,264z M-308.6,259.2
		c-0.2,0-0.3,0-0.5,0c-0.3,0.4-0.8,0.8-0.9,1.2c-0.2,0.7,0.2,1.1,0.9,1.2c0.7,0.1,1.3-0.2,1.2-1C-308,260.1-308.4,259.7-308.6,259.2
		z"/>
</g>
</svg>
