<?xml version="1.0" encoding="utf-8"?>
<!-- Generator: Adobe Illustrator 19.0.0, SVG Export Plug-In . SVG Version: 6.00 Build 0)  -->
<svg version="1.1" id="Layer_1" xmlns="http://www.w3.org/2000/svg" xmlns:xlink="http://www.w3.org/1999/xlink" x="0px" y="0px"
	 viewBox="-325 137 200 42" style="enable-background:new -325 137 200 42;" xml:space="preserve">
<style type="text/css">
	.st0{fill:#FFFFFF;}
</style>
<g id="XMLID_45_">
	<g id="XMLID_191_">
		<path id="XMLID_210_" class="st0" d="M-294.9,169.2v-7.1c0-0.3-0.3-0.6-0.6-0.6h-7.1c-0.3,0-0.6,0.3-0.6,0.6v7.1
			c0,0.3,0.3,0.6,0.6,0.6h7.1C-295.2,169.7-294.9,169.5-294.9,169.2z"/>
		<path id="XMLID_209_" class="st0" d="M-317.8,169.2v-4.7c0-0.3-0.3-0.6-0.6-0.6h-4.6c-0.3,0-0.6,0.3-0.6,0.6v4.7
			c0,0.3,0.3,0.6,0.6,0.6h4.7C-318,169.7-317.8,169.5-317.8,169.2z"/>
		<path id="XMLID_208_" class="st0" d="M-307.1,166.5v-7c0-0.3-0.3-0.6-0.6-0.6h-7c-0.3,0-0.6,0.3-0.6,0.6v7c0,0.3,0.3,0.6,0.6,0.6
			h7C-307.3,167.1-307.1,166.8-307.1,166.5z"/>
		<path id="XMLID_207_" class="st0" d="M-286.8,158.9v-7.4c0-0.3-0.3-0.6-0.6-0.6h-7.4c-0.3,0-0.6,0.3-0.6,0.6v7.4
			c0,0.3,0.3,0.6,0.6,0.6h7.4C-287.1,159.5-286.8,159.2-286.8,158.9z"/>
		<path id="XMLID_206_" class="st0" d="M-297.4,156.5v-7.7c0-0.3-0.3-0.6-0.6-0.6h-7.7c-0.3,0-0.6,0.3-0.6,0.6v7.7
			c0,0.3,0.3,0.6,0.6,0.6h7.7C-297.7,157.1-297.4,156.8-297.4,156.5z"/>
		<path id="XMLID_205_" class="st0" d="M-286.2,172.9v-5c0-0.3-0.3-0.6-0.6-0.6h-5c-0.3,0-0.6,0.3-0.6,0.6v5c0,0.3,0.3,0.6,0.6,0.6
			h5C-286.5,173.5-286.2,173.2-286.2,172.9z"/>
		<path id="XMLID_204_" class="st0" d="M-254.8,140h-25.7c0.1,0.1,0.2,0.1,0.2,0.3l8.9,18.8c0.2,0.5,0.9,0.4,1.1-0.1l3.4-10.1
			c0.1-0.2,0.3-0.4,0.5-0.4h8.5c0.4,0,0.7,0.4,0.5,0.8l-11.2,25.7c-0.1,0.2-0.3,0.3-0.5,0.3h-3.2c-0.2,0-0.4-0.1-0.5-0.3l-17-34.2
			c0-0.1,0-0.1-0.1-0.2l0,0v34.5c0,0.3,0.3,0.6,0.6,0.6h34.5c0.3,0,0.6-0.3,0.6-0.6v-34.5C-254.3,140.3-254.5,140-254.8,140z"/>
		<path id="XMLID_202_" class="st0" d="M-242.3,148.5v26.7c0,0.2-0.2,0.4-0.4,0.4h-6c-0.2,0-0.4-0.2-0.4-0.4v-26.7
			c0-0.2,0.2-0.4,0.4-0.4h6C-242.5,148.1-242.3,148.3-242.3,148.5z"/>
		<path id="XMLID_200_" class="st0" d="M-212.6,148.8l-14.1,21.1c-0.2,0.3,0,0.7,0.4,0.7h13.8c0.2,0,0.4,0.2,0.4,0.4v4.2
			c0,0.2-0.2,0.4-0.4,0.4H-238c-0.4,0-0.6-0.4-0.4-0.7l14.2-21.1c0.2-0.3,0-0.7-0.4-0.7h-12.8c-0.2,0-0.4-0.2-0.4-0.4v-4.2
			c0-0.2,0.2-0.4,0.4-0.4h24.4C-212.6,148.1-212.4,148.5-212.6,148.8z"/>
		<path id="XMLID_198_" class="st0" d="M-186.9,148.1h6c0.2,0,0.4,0.2,0.4,0.4v15.2c0,4-1.2,7.1-3.6,9.2c-2.4,2.1-5.8,3.1-10.2,3.1
			c-4.4,0-7.8-1.1-10.2-3.2c-2.4-2.1-3.6-5.1-3.6-9.1v-15.2c0-0.2,0.2-0.4,0.4-0.4h6c0.2,0,0.4,0.2,0.4,0.4v15.4
			c0,1.9,0.6,3.5,1.9,4.6c1.3,1.2,2.9,1.7,4.9,1.7c2.1,0,3.8-0.6,5.1-1.8c1.3-1.2,1.9-2.9,1.9-5v-14.9
			C-187.3,148.3-187.1,148.1-186.9,148.1z"/>
		<path id="XMLID_195_" class="st0" d="M-174.5,148.5c0-0.2,0.2-0.4,0.4-0.4h11.9c2.7,0,4.8,0.8,6.5,2.3s2.5,3.4,2.5,5.6
			c0,2.8-1.3,4.9-4,6.4c-0.3,0.2-0.3,0.5-0.1,0.7c1.1,0.8,2.2,2.4,3.3,4.7c1.1,2.5,2.2,4.9,3.3,7.2c0.1,0.3-0.1,0.6-0.4,0.6h-6.6
			c-0.2,0-0.3-0.1-0.4-0.2c-0.5-1-1.2-2.6-2.2-4.9c-1.1-2.6-2.1-4.2-2.9-4.9s-1.6-1.1-2.6-1.1h-1.5c-0.2,0-0.4,0.2-0.4,0.4v10.3
			c0,0.2-0.2,0.4-0.4,0.4h-6c-0.2,0-0.4-0.2-0.4-0.4L-174.5,148.5L-174.5,148.5z M-167.6,153.6v5.4c0,0.2,0.2,0.4,0.4,0.4h3.2
			c1.2,0,2.1-0.3,2.8-0.8s1-1.3,1-2.3c0-2.1-1.3-3.1-3.9-3.1h-3C-167.4,153.1-167.6,153.3-167.6,153.6z"/>
		<path id="XMLID_193_" class="st0" d="M-143.4,175.2v-12.3c0-0.1,0-0.2-0.1-0.3l-10.3-13.9c-0.2-0.3,0-0.7,0.4-0.7h7.2
			c0.1,0,0.3,0.1,0.4,0.2l5.5,7.9c0.2,0.3,0.5,0.3,0.7,0l5.5-7.9c0.1-0.1,0.2-0.2,0.4-0.2h7.2c0.4,0,0.6,0.4,0.4,0.7l-10.3,13.9
			c-0.1,0.1-0.1,0.2-0.1,0.3v12.3c0,0.2-0.2,0.4-0.4,0.4h-6C-143.2,175.6-143.4,175.4-143.4,175.2z"/>
		<path id="XMLID_192_" class="st0" d="M-242.3,146.1v-5.5c0-0.4-0.3-0.7-0.7-0.7h-5.5c-0.4,0-0.7,0.3-0.7,0.7v5.5
			c0,0.4,0.3,0.7,0.7,0.7h5.5C-242.6,146.8-242.3,146.5-242.3,146.1z"/>
	</g>
</g>
</svg>
