<?xml version="1.0" encoding="utf-8"?>
<!-- Generator: Adobe Illustrator 19.0.0, SVG Export Plug-In . SVG Version: 6.00 Build 0)  -->
<svg version="1.1" id="Layer_1" xmlns="http://www.w3.org/2000/svg" xmlns:xlink="http://www.w3.org/1999/xlink" x="0px" y="0px"
	 viewBox="0 0 25 25" style="enable-background:new 0 0 25 25;" xml:space="preserve">
<style type="text/css">
	.st0{fill:#FFFFFF;}
</style>
<path id="XMLID_51_" class="st0" d="M24.6,0h-18c0.1,0,0.1,0.1,0.2,0.2L13,13.4c0.2,0.3,0.6,0.3,0.7,0l2.4-7.1
	C16.2,6.1,16.4,6,16.5,6h5.9c0.3,0,0.5,0.3,0.4,0.6l-7.9,18c-0.1,0.1-0.2,0.2-0.4,0.2h-2.3c-0.2,0-0.3-0.1-0.4-0.2L0,0.5
	c0,0,0-0.1,0-0.1c0,0,0,0,0,0v24.2C0,24.8,0.2,25,0.4,25h24.2c0.2,0,0.4-0.2,0.4-0.4V0.4C25,0.2,24.8,0,24.6,0z"/>
</svg>
