<?xml version="1.0" encoding="utf-8"?>
<!-- Generator: Adobe Illustrator 19.0.0, SVG Export Plug-In . SVG Version: 6.00 Build 0)  -->
<svg version="1.1" id="Layer_1" xmlns="http://www.w3.org/2000/svg" xmlns:xlink="http://www.w3.org/1999/xlink" x="0px" y="0px"
	 viewBox="0 0 1200 1200" style="enable-background:new 0 0 1200 1200;" xml:space="preserve">
<style type="text/css">
	.st0{fill:#F2F2F2;}
	.st1{fill:#C0BFBF;}
	.st2{fill:#E5E5E5;}
</style>
<g id="XMLID_40_">
	<g id="XMLID_10335_">
		<polygon id="XMLID_14868_" class="st0" points="1099,342.1 1067.8,1026.1 410.5,1155 316.8,745.4 421.9,460.7 		"/>
		<polygon id="XMLID_12513_" class="st1" points="421.9,460.7 410.5,1155 100,840.9 110.7,177.7 		"/>
		<polygon id="XMLID_12508_" class="st2" points="1099,342.1 421.9,460.7 110.7,177.7 743,54.8 		"/>
	</g>
	<g id="XMLID_15610_">
		<path id="XMLID_14880_" d="M669.9,748.6c0.2-1.8,0.3-2.6,0.4-3.5c1.4-16.3,9.2-25.3,25.5-29.1c23-5.3,46-10.8,69-15.8
			c4.7-1,7.7-3.3,10.7-7.5c14.7-20.5,29.4-41,44.4-61.4c7.8-10.6,16.6-21.5,28.6-25c17.7-5.3,36.2-10.8,53.3-11.3
			c26.1-0.7,41.5,14,46,39.7c7.3,42.2,14.5,84.4,21.6,126.6c2.7,16.1-7.9,35.5-25.4,46.6c-1.7,1.1-3.4,2-6.6,3.9
			c14.3-3.3,27-6.2,40.4-9.3c7-64.8,13.9-129.3,20.9-194.1c11.5-2.7,22.6-5.2,34.1-7.9c-1.9,18.8-3.7,37.2-5.6,55.6
			c-4,39.7-7.2,79.4-12.3,119.2c-7.5,59.1-3.9,115.9-4.9,173.6c0,2.9,0,5.9,0,9.2c-11.4,2.6-22.4,5.2-34,7.9c0-42,0-83.8,0-126.3
			c-38.8,8.9-77,17.8-115.9,26.7c0,42.2,0,84,0,126.3c-12.2,2.8-23.7,5.5-35.9,8.3c0-48.9,0-97.9,0-147.7c-8.1,3.2-15.4,6.1-23,9.2
			c0,48.1,0,95.7,0,143.8c-15.2,3.5-30,6.9-45.4,10.5c0-35.8,0-71.6,0-107.3c-0.4-0.1-0.8-0.2-1.2-0.3c-1.3,2-2.6,4-3.8,6
			c-21.2,34.6-42.3,69.2-63.5,103.8c-10.5,17.2-27.9,25-41.4,18.6c-13.1-6.2-16.1-25.4-6.2-41.6c31.6-51.8,63.3-103.6,95.1-155.4
			c5-8.1,11.2-15.2,20.4-19c0-4.2,0-8.3,0-12.7c-69.3,16-138.5,32-208.3,48.1c0,69.3,0,138.5,0,208.2c-15.5,3.6-30.4,7-45.5,10.5
			c0-84.5,0-168.8,0-253.6c99.6-23,199.3-46,299.5-69.1c0,14.6,0,29.3,0,45c5-2.6,9.3-4.8,13.6-7.1c11.9-6.4,23.8-12.8,35.6-19.3
			c12.5-6.9,17.2-15.9,14.4-27.9c-5.6-24-11.2-48-16.8-72c-0.2-0.8-0.6-1.4-1.3-3.1c-1.7,2.6-3,4.5-4.3,6.6
			c-12.1,19-24,38.1-36.3,57.1c-1.6,2.4-5,4.9-7.6,5.6C737.8,752,677.2,765.9,616.7,780c-3.4,0.8-5.7,0.7-7.6-2.2
			c-24.5-37.1-49.2-74.1-73.8-111.1c-0.4-0.6-0.7-1.3-1.3-2.4c4.8-4.2,9.6-8.3,14.7-12.8c1.4,1.9,2.6,3.5,3.7,5.2
			c21.9,32.9,43.8,65.8,65.5,98.9c2.3,3.5,4.8,4.3,9.4,3.1C641.3,755,655.4,752,669.9,748.6z"/>
		<path id="XMLID_14879_" d="M746.1,693.1c-3.8,0.9-7.7,1.2-11.4,2.7c-8.2,3.3-12.1,0-15.6-5.8c-14.7-24.5-5-60.8,22.6-83.1
			c26.9-21.7,60.9-20.9,77.7,1.6c2.4,3.2,2,5.5-0.9,9.4c-15.8,21.2-31.4,42.6-46.8,64c-3.3,4.7-6.7,7.3-11.9,8
			C755.4,690.6,750.7,692,746.1,693.1z"/>
		<path id="XMLID_14872_" d="M839.2,464.6c-12.7-1.1-23.9-2.1-35.8-3.2c1.8-6.1,3.5-11.8,5.5-18.3c19.6,1.8,38.9,3.6,58.9,5.4
			c-1.8,7.1-3.3,13.8-5.4,20.3c-0.5,1.7-2.9,3.5-4.6,4.7c-12.5,8.4-25,16.7-39,26.1c12,0.6,22.5,1.2,33.8,1.8
			c-1.8,6.6-3.5,13-5.5,20.2c-19.6-1.8-38.9-3.5-58.9-5.4c1.8-7.1,3.3-13.7,5.4-20.3c0.5-1.7,2.9-3.5,4.6-4.7
			C811.3,482.6,824.4,474.1,839.2,464.6z"/>
		<path id="XMLID_14871_" d="M891.2,553c-0.8-0.6-1-0.7-1.1-0.8c-6.7-8.4-7.7-17.8,0-29.9c4.5-7.1,7.3-15.2,11.7-24.5
			c-10.2,6.4-18.9,11.8-28.2,17.6c-1.3-4.6-2.5-9-3.9-14.1c15.6-9.3,31.2-18.5,47-27.9c4.2,8.2,8.1,15.6,0.8,26.8
			c-5.1,7.9-8.5,16.7-13.5,27c10.4-5.8,19.1-10.6,28.3-15.7c1.9,3.9,3.7,7.5,5.7,11.8C922.3,533.3,906.8,543.1,891.2,553z"/>
		<path id="XMLID_14870_" d="M852.3,551c-8,1.9-14.7,3.4-21.9,5.1c0-3.9,0-7.3,0-11.2c12.2-2.8,24.5-5.7,36.9-8.5
			c1.5,7.2,1.1,13.7-6,20.4c-5.4,5.1-10,11.3-15.9,18.1c8-1.8,14.8-3.4,22-5.1c0,4.1,0,7.6,0,11.4c-12.4,2.9-24.6,5.7-37,8.5
			c-1.4-7-1.5-13.5,5.6-20.2C841.6,564.2,846.2,558,852.3,551z"/>
	</g>
</g>
</svg>
