<?xml version="1.0" encoding="utf-8"?>
<!-- Generator: Adobe Illustrator 19.0.1, SVG Export Plug-In . SVG Version: 6.00 Build 0)  -->
<svg version="1.1" id="Layer_1" xmlns="http://www.w3.org/2000/svg" xmlns:xlink="http://www.w3.org/1999/xlink" x="0px" y="0px"
	 viewBox="1440 -750 2980 1600" style="enable-background:new 1440 -750 2980 1600;" xml:space="preserve">
<style type="text/css">
	.st0{fill:none;stroke:#B0AFB5;stroke-linecap:round;stroke-linejoin:round;stroke-miterlimit:1;}
	.st1{fill:none;stroke:#B0AFB5;stroke-miterlimit:1;}
	.st2{fill:#B0AFB5;}
</style>
<g>
	<g id="XMLID_16602_">
		<polyline id="XMLID_16640_" class="st0" points="1496.3,-475.1 1537.8,-483.1 1549.5,-521.3 1599.4,-564.1 1634.2,-561.3 
			1633.1,-502.7 1545.8,-526.7 1634.2,-561.3 1706,-548.4 1689.5,-474.1 1633.1,-502.7 1704,-553.8 1790.2,-557.6 1808.7,-486.7 
			1702.5,-421.7 1747.1,-377.2 1701.8,-338.5 1761.9,-313.6 1765.4,-312.2 1741.4,-274 1747.4,-226.1 1692.4,-206.9 1647.8,-230.8 
			1681.1,-273 1746.9,-273.9 1797.9,-291.5 1845.8,-323 1805.9,-403.9 1747.1,-377.2 1811.9,-484.1 1807.4,-409.3 1853.6,-456.6 
			1883.7,-395.3 1882.1,-478.9 1921.5,-534.6 1958.7,-526.7 2007.9,-570.6 2023.3,-508.5 2050.5,-533.4 2095.2,-530.7 
			2124.8,-546.3 2015.6,-570.6 1955.5,-449 1974,-383.9 2012.4,-445.3 2039.5,-396.3 2054.4,-354.9 2117.9,-346.6 2163.9,-395.3 
			2198.5,-377.2 2210.8,-429.5 2271.8,-448.6 2202,-325.2 2076.5,-274.9 2016.7,-323 1909,-331.1 1947.6,-269.6 1880.8,-287.2 
			1887.6,-229.5 1947.6,-229.5 2022.2,-242.5 1963,-145.1 1947.6,-229.5 1853.9,-159.9 1824.1,-216.5 1852.1,-320.1 1765.4,-314.9 
			1891.6,-396.3 1944.5,-452.1 1911.3,-335.2 1830.8,-216.5 1751.4,-139.3 1668.7,-151.2 1726.8,-89.4 1761.9,-53.5 1805.9,-102.8 
			1757.4,-132.8 1761.9,-53.5 1729.3,-28.2 1810.6,-1.6 1864.5,-6.5 1893.1,-17.3 1898.9,-19.5 1931.4,50.3 1913.3,58.9 
			1861.2,31.2 1860.9,2.8 		"/>
		<polyline id="XMLID_16639_" class="st0" points="2298.3,-377.2 2271.8,-448.6 2215.5,-431.6 2298.5,-365.4 2209.1,-332.4 		"/>
		<polyline id="XMLID_16638_" class="st0" points="2328.4,-659.7 2412.1,-659.6 2449.7,-647.1 2489.8,-612.8 2535.6,-597.3 
			2501,-542 2454.8,-512.3 2489.8,-612.8 2563.2,-662.5 2597,-669.5 2662.7,-648.9 2619.6,-587.7 2535.6,-597.3 2596.7,-658.7 
			2619.6,-587.7 		"/>
		<polyline id="XMLID_16637_" class="st0" points="1804.6,-406.9 1883.4,-399.5 1911.3,-331.1 1847.1,-324 1880.8,-287.2 
			1797.9,-291.5 1746.9,-227.2 1824.1,-214.3 1883.4,-229.5 1852.1,-159.9 1755.3,-143 		"/>
		<polyline id="XMLID_16636_" class="st0" points="1647.8,-230.8 1668.7,-151.2 1693.9,-207.4 1751.4,-139.3 1727,-92.5 		"/>
		<polyline id="XMLID_16635_" class="st0" points="2117.9,-346.6 2007.4,-321.1 2019,-245.6 2076.5,-269.6 1944.5,-274 
			2019.3,-238.2 1963.5,-147.1 1852.1,-159.9 1805.9,-102.8 1746.9,-227.2 1681.1,-269.6 1701.8,-338.5 1701.8,-422.7 
			1687.3,-472.5 1808.7,-488.2 1702.5,-550.9 1794.2,-558.6 1872.1,-552.1 		"/>
		<polyline id="XMLID_16634_" class="st1" points="1810.6,-487.7 1883.4,-483 1952.4,-453.6 1958.7,-524.2 		"/>
		<polyline id="XMLID_16633_" class="st1" points="1998.7,146.3 1990.5,205.2 1998.4,293.2 2054.2,300.4 2053.4,369.3 2110.6,328.1 
			2075.5,259.6 2109.2,199.9 2027,118 2059.7,96.5 2148.6,97.1 2182.8,128 2110.6,136.4 2143.7,255.3 2199.3,248.9 2251.6,172.7 
			2325.9,240.7 2248.1,259.6 2193.8,321.9 2110.6,328.1 2104.3,433.5 2191.4,424.6 2258.9,328.1 2327.2,340 2368.5,309.3 
			2263.3,321.4 2274,384.9 2365.8,424.3 2281.1,450.3 2300.4,514.9 2247.8,555.4 2209.2,507.9 2150.8,554.3 2097.3,508.8 
			2116.8,611.7 2200.2,653.7 2132.4,659.3 2175.5,756.4 2202.2,649.1 2154.2,560.7 2248.9,558 2279.5,452.1 2191.9,423.3 
			2104.3,505.8 2104.3,439.5 2189.7,328.1 2145.4,260.7 2178.7,126.9 2251.6,172.7 2248.1,255.3 2382.4,308.6 2406.3,378 
			2371.1,417.2 2304.6,512.4 2214.4,502.3 2210.2,653.7 2132.4,657.8 2116.8,615.7 2149.1,557.8 2095.2,508.1 2210.2,502.3 
			2191.4,424.6 2054.2,378 1994.1,291.7 2075.5,259.6 2000.8,143.2 2025.5,110.4 2108.8,135.4 2203.6,255.3 2256.5,322.4 
			2194.1,329.2 2281.1,450.3 2327.2,343.9 2410.1,378 		"/>
		<polyline id="XMLID_16632_" class="st1" points="1963.5,-147.1 2028.3,-42.5 2027,118 1929.1,50.3 2060.9,92.3 2028.3,-42.5 		"/>
		<polyline id="XMLID_16631_" class="st0" points="3996,564.8 3989.5,469.9 4081.9,498.6 4116.4,407.8 4191.6,370.8 4214.1,417.4 
			4274.4,445.3 4298.2,362.9 4324.6,447.7 4308.8,514.4 4306.7,588.1 4244.6,606.6 4203.5,571.9 4169.2,503.1 4098.7,568.9 
			3995.1,566.1 4081.8,502.1 4214.1,417.4 4308.8,514.4 4168.9,502.1 4214.1,417.4 4244.8,608 4308.8,514.4 4203.5,571.9 
			4173,566.1 4083.5,499.7 		"/>
		<polyline id="XMLID_16630_" class="st0" points="3991.6,470.8 4118.6,408.8 4210.1,420 		"/>
		<g id="XMLID_16620_">
			<polyline id="XMLID_16629_" class="st0" points="4356.6,295.4 4288.7,264.9 4253,236.1 4074.6,236.1 3993.6,205.8 4030.9,172.9 
				3998.8,168.2 3993.6,205.8 			"/>
			<polyline id="XMLID_16628_" class="st0" points="3911.7,55.9 3863.3,136.4 3874.4,203.1 3890.3,234.4 3997.2,207.1 			"/>
			<polyline id="XMLID_16627_" class="st0" points="3969,-122.5 3935.3,-53.3 3884.5,-10.5 3911.7,55.9 			"/>
			<polyline id="XMLID_16626_" class="st0" points="3939.9,-186.3 3800.1,-149.7 3846.9,-55.1 3895.8,-127 3973.3,-119.3 
				4026.5,-133.3 4067.1,-210.7 4044.3,-233.8 4037.3,-268.5 3964,-244.7 3938.7,-323.9 4066.9,-363 3954.8,-414.5 3938.4,-499.4 
				4017,-484.1 			"/>
			<polyline id="XMLID_16625_" class="st0" points="4162.2,-457 4222.8,-512.7 4184.6,-549.2 4131.5,-534.5 4064,-556 			"/>
			<polyline id="XMLID_16624_" class="st0" points="3918.2,52.9 3866.4,33.4 3846.9,-55.1 3752.8,-86.7 3688.6,-71.3 3642.5,-42.7 
				3617.7,9.6 3630.9,46.2 3631.5,47.9 3616.3,90.5 3589.4,40.3 3634.1,47.9 			"/>
			<polyline id="XMLID_16623_" class="st0" points="3571.1,-3 3558.4,-49.7 3617.9,-141.1 3545,-119.3 3472.2,-114.6 3503.8,-183.2 
				3580.2,-236.7 3694.7,-152 3688.6,-71.3 3617.9,-148.7 3653.5,-36 3557,-49 			"/>
			<line id="XMLID_16622_" class="st0" x1="3998.8" y1="168.2" x2="3890.3" y2="234.4"/>
			<line id="XMLID_16621_" class="st0" x1="4030.9" y1="172.9" x2="4252.5" y2="234.4"/>
		</g>
		<g id="XMLID_16614_">
			<polyline id="XMLID_16619_" class="st0" points="4063.8,-549.2 4018.3,-480.5 3954.8,-414.5 4162.4,-454.2 4214.5,-419 
				4222.8,-507.3 4128.3,-533.5 4162.4,-454.2 4062.5,-357.2 4128,-345.1 4038.7,-277.4 3942.7,-324.6 3911.7,-251.4 3939.9,-188.5 
				3964,-121.2 3843.4,-60.9 3690.7,-158.7 3755.7,-224.8 3677.2,-248.2 3762.5,-292.9 3821.1,-328.7 3856.6,-264.4 3805,-149.7 
				3912.7,-253.3 3841.4,-426.7 3730.4,-421.5 3653.8,-334 3759.6,-292.2 3730.5,-417.8 3657.5,-494.5 3697.4,-548.2 3759.6,-555 
				3835.5,-523.2 3908.8,-560.7 3941.6,-498.5 3843.2,-427.5 3821.1,-328.7 3756.2,-224.9 3803.8,-150.4 3752.8,-86.7 			"/>
			<polyline id="XMLID_16618_" class="st0" points="3675.5,-256 3577.8,-243.1 3616.3,-144.2 3503.8,-183.2 3543.1,-121.2 
				3555.4,-49.7 3476.8,-116.2 3423.8,-205.7 3471.4,-235.2 3503.8,-310.8 3472.2,-334.2 3420.9,-329.9 3473.8,-422.1 
				3577.5,-334.2 3611.9,-400 3536,-475.1 3656.3,-491 3653.5,-328.6 3571.3,-241.1 3509.3,-317.5 3581.7,-334.2 3532.6,-467.2 
				3522.8,-544.4 3577.5,-589.4 3511.9,-597.3 3418.1,-562.7 3365.8,-475.1 3275.1,-507.3 3301.2,-561.7 3258.7,-608.2 
				3192.8,-522.1 3239.2,-536.9 3262.4,-414.2 3268.5,-344.7 3148.1,-339.5 3155.6,-431.6 3268.7,-414.2 3367.8,-479.3 			"/>
			<polyline id="XMLID_16617_" class="st0" points="3107.6,-111.5 3223.2,-96.4 3283.9,-102.1 3336.6,-29.4 3282.7,21.7 3192.5,2.2 
				3117.2,-43.8 3106.4,-111.3 			"/>
			<polyline id="XMLID_16616_" class="st0" points="3434.9,-431.6 3367.8,-479.3 3411.8,-323.4 3351.3,-249.7 3272,-341.1 
				3218.5,-248.2 3275.1,-172.3 3399.9,-145.1 3423.8,-205.7 3356.3,-243.6 3230.5,-248.2 3145.6,-248.2 			"/>
			<polyline id="XMLID_16615_" class="st0" points="3029.6,-148.1 2938.9,-141.1 2993.4,-79 2925,-2.3 2845.9,-58.2 2859.6,-152.8 
				2766.3,-160.5 2685.8,-103.4 2759.3,-62 2798.5,-105 2776.1,20.5 2661.7,-41.4 2656,-8.8 2672.5,39.2 2708.9,99.7 2789.8,106.2 
				2866,73.2 2776.1,20.5 2845.9,-58.2 2866,73.2 2963.8,73.9 3038.2,16.5 2993.4,-79 3107.6,-111.5 3282.7,21.7 3294,116.6 
				3246.6,177.3 3174.7,162.3 3141.1,114.8 3203.7,78.1 3245.9,177.5 3211.9,229.1 3148.1,273.8 3058.1,276.3 3115.2,174.3 
				3048.1,187.3 3025.9,135 3094.7,70.1 3192.5,2.2 3203.7,78.1 3174.7,163 3115.4,173.6 			"/>
		</g>
		<polyline id="XMLID_16613_" class="st0" points="3018.5,-651.6 2992.7,-636.7 2990.7,-546.7 2948.7,-499.4 2895.9,-490.8 
			2947.7,-424 2965.2,-352.8 2905.3,-319.7 2886.2,-377.1 2813.3,-330.5 2800.4,-265.5 2753.5,-258.1 2813.3,-330.5 2905.3,-319.7 
			2947.7,-424 3050.6,-428.5 3075.1,-366.2 3065.8,-299.1 2999.3,-294.4 3052.2,-432.7 3094.5,-542 2990.7,-546.7 3045,-429.4 
			3158.9,-431.6 3094.5,-542 3195.1,-522.1 3158.9,-431.6 3079,-367.5 3148.1,-339.5 3262.4,-414.2 3420.9,-329.9 3268.5,-344.7 
			3144.5,-249.7 3222,-97.5 3275.7,-171.3 3283.9,-99.8 3399.9,-145.1 3332.1,-29.8 3472.2,-114.6 3399.9,-145.1 3351.3,-249.7 
			3277.2,-172.3 		"/>
		<g id="XMLID_16609_">
			<polyline id="XMLID_16612_" class="st0" points="3418.1,-328.6 3473.5,-240.9 3503.8,-183.2 3423.8,-205.7 3415,-331.4 
				3434.9,-431.6 3471.4,-421.5 3536,-475.1 3423.4,-561.7 3298.6,-562.7 3236.7,-536.9 3277.6,-509.4 3418.4,-566.7 3517.5,-546.5 
				3660.4,-494 3577.5,-589.4 3673.4,-581.4 3692.9,-555 3721.9,-581.4 3762.5,-559 3730.2,-421.5 3608.6,-400 3660.4,-494 
				3835.5,-526.1 3838.4,-426.7 3908.8,-560.7 3958.2,-560.7 4017,-484.1 4062.5,-361.6 4132.4,-538 4063.6,-555.2 3962.4,-561.7 
				3938.4,-499.4 			"/>
			<path id="XMLID_16611_" class="st0" d="M3434.9-431.6"/>
			<polyline id="XMLID_16610_" class="st0" points="3847.3,-422.1 3952.6,-411 3942.7,-327.3 3821.1,-328.7 3734.3,-415.2 
				3832.9,-522.3 3939.9,-492 			"/>
		</g>
		<polyline id="XMLID_16608_" class="st0" points="2859.6,-152.8 2935.7,-144.2 2924.8,-5.1 2959.7,71.2 2913.1,158.4 2946.6,214.3 
			3025.9,135 3141.1,114.8 3094.7,70.1 3038,20.9 3117.2,-43.8 3094.7,70.1 3111.7,172.4 3148.1,273.8 3222.3,319.8 3219.2,386.7 
			3160.5,350.7 3148.1,273.8 3054.6,368.8 2993.4,308.9 3059.7,276.3 3048.1,187.3 2956.1,273.8 2950.2,360.1 2956.1,395.8 
			3041,434.4 3054.6,368.8 3137,436.3 3115.3,517.7 3040.5,537.9 2996,591 2990.1,461.4 3041,434.4 3137,436.3 3160.5,350.7 
			3059.7,274.9 2946.6,214.3 2956.1,273.8 2993.4,308.9 2956.1,395.8 3054.6,368.8 		"/>
		<polyline id="XMLID_16607_" class="st0" points="4026.5,-133.3 3996,-175.5 3938.3,-188.5 4044.3,-233.8 3965.1,-240.9 
			3909.1,-251.9 3855.8,-262.7 3752.8,-223 3759.6,-292.2 		"/>
		<polyline id="XMLID_16606_" class="st0" points="3895.8,-129.2 3800.1,-149.7 3694.7,-162.8 3675.2,-251.9 3653.5,-328.6 
			3581.7,-334.2 3576.1,-241.1 3473.5,-240.9 3351.3,-249.7 		"/>
		<polyline id="XMLID_16605_" class="st0" points="2683.6,-105 2661.7,-43.8 2759.3,-62 2776.1,16.8 2672.5,39.2 		"/>
		<polyline id="XMLID_16604_" class="st0" points="1921.5,-535.7 1872.1,-552.1 1808.7,-488.2 1853.6,-456.6 		"/>
		<polyline id="XMLID_16603_" class="st0" points="4141,-186.3 4193.7,-213.1 4191.7,-272.2 4141,-186.3 		"/>
	</g>
	<g id="XMLID_10391_">
		<g id="XMLID_16599_">
			<circle id="XMLID_644_" class="st2" cx="1496.3" cy="-475.1" r="20.5"/>
		</g>
		<g id="XMLID_16596_">
			<circle id="XMLID_642_" class="st2" cx="1634.2" cy="-561.3" r="16.4"/>
		</g>
		<g id="XMLID_16593_">
			<circle id="XMLID_640_" class="st2" cx="1793.3" cy="-557.2" r="18.9"/>
		</g>
		<g id="XMLID_16590_">
			<circle id="XMLID_638_" class="st2" cx="1679.4" cy="-272.8" r="17"/>
		</g>
		<g id="XMLID_16587_">
			<circle id="XMLID_636_" class="st2" cx="1804.6" cy="-406.9" r="17"/>
		</g>
		<g id="XMLID_16584_">
			<circle id="XMLID_634_" class="st2" cx="2019" cy="-506" r="16.4"/>
		</g>
		<g id="XMLID_16581_">
			<circle id="XMLID_632_" class="st2" cx="2535.6" cy="-597.3" r="18.9"/>
		</g>
		<g id="XMLID_16578_">
			<circle id="XMLID_630_" class="st2" cx="2011.1" cy="-568.2" r="18.9"/>
		</g>
		<g id="XMLID_16573_">
			<circle id="XMLID_628_" class="st2" cx="2109.2" cy="135.1" r="18.9"/>
		</g>
		<g id="XMLID_16564_">
			<circle id="XMLID_626_" class="st2" cx="3040.5" cy="537.9" r="18.9"/>
		</g>
		<g id="XMLID_16561_">
			<circle id="XMLID_624_" class="st2" cx="2776.1" cy="16.8" r="18.9"/>
		</g>
		<g id="XMLID_16558_">
			<circle id="XMLID_622_" class="st2" cx="3094.7" cy="70.1" r="20.5"/>
		</g>
		<g id="XMLID_16555_">
			<circle id="XMLID_620_" class="st2" cx="2963.8" cy="73.9" r="18.9"/>
		</g>
		<g id="XMLID_16552_">
			<circle id="XMLID_618_" class="st2" cx="2672.5" cy="39.2" r="18.9"/>
		</g>
		<g id="XMLID_16549_">
			<circle id="XMLID_616_" class="st2" cx="2866" cy="73.2" r="18.9"/>
		</g>
		<g id="XMLID_16546_">
			<circle id="XMLID_614_" class="st2" cx="3996" cy="564.8" r="9.4"/>
		</g>
		<g id="XMLID_16543_">
			<circle id="XMLID_612_" class="st2" cx="4244.6" cy="606.6" r="9.4"/>
		</g>
		<g id="XMLID_16540_">
			<circle id="XMLID_610_" class="st2" cx="4288.7" cy="264.3" r="18.9"/>
		</g>
		<g id="XMLID_16537_">
			<circle id="XMLID_608_" class="st2" cx="4116.4" cy="407.8" r="18.9"/>
		</g>
		<g id="XMLID_16534_">
			<circle id="XMLID_606_" class="st2" cx="3996" cy="206.1" r="18.9"/>
		</g>
		<g id="XMLID_16531_">
			<circle id="XMLID_604_" class="st2" cx="3911.7" cy="55.9" r="18.9"/>
		</g>
		<g id="XMLID_16528_">
			<circle id="XMLID_602_" class="st2" cx="3577.5" cy="-239.1" r="18.9"/>
		</g>
		<g id="XMLID_16525_">
			<circle id="XMLID_600_" class="st2" cx="3646.4" cy="-43.8" r="18.9"/>
		</g>
		<g id="XMLID_16522_">
			<circle id="XMLID_598_" class="st2" cx="3660.4" cy="-494" r="18.9"/>
		</g>
		<g id="XMLID_16519_">
			<circle id="XMLID_596_" class="st2" cx="4131.5" cy="-534.5" r="18.9"/>
		</g>
		<g id="XMLID_16516_">
			<circle id="XMLID_594_" class="st2" cx="3832.9" cy="-526.1" r="18.9"/>
		</g>
		<g id="XMLID_16513_">
			<circle id="XMLID_592_" class="st2" cx="4218.7" cy="-514.5" r="18.9"/>
		</g>
		<g id="XMLID_16510_">
			<circle id="XMLID_590_" class="st2" cx="2990.7" cy="-549.2" r="18.9"/>
		</g>
		<g id="XMLID_16507_">
			<circle id="XMLID_588_" class="st2" cx="4038.7" cy="-277.4" r="18.9"/>
		</g>
		<g id="XMLID_16504_">
			<circle id="XMLID_586_" class="st2" cx="3283.5" cy="450.4" r="18.9"/>
		</g>
		<g id="XMLID_16501_">
			<circle id="XMLID_584_" class="st2" cx="2459.3" cy="-513.8" r="18.9"/>
		</g>
		<g id="XMLID_16498_">
			<circle id="XMLID_582_" class="st2" cx="2753.5" cy="-258.1" r="18.9"/>
		</g>
		<g id="XMLID_16495_">
			<circle id="XMLID_580_" class="st2" cx="2895.9" cy="-490.8" r="17.3"/>
		</g>
		<g id="XMLID_16492_">
			<circle id="XMLID_578_" class="st2" cx="2948.7" cy="-499.4" r="18.5"/>
		</g>
		<g id="XMLID_16489_">
			<circle id="XMLID_576_" class="st2" cx="2944.3" cy="-421.5" r="18.9"/>
		</g>
		<g id="XMLID_16486_">
			<circle id="XMLID_574_" class="st2" cx="3064.1" cy="-300.4" r="18.9"/>
		</g>
		<g id="XMLID_16483_">
			<circle id="XMLID_572_" class="st2" cx="3367.4" cy="-480.5" r="18.9"/>
		</g>
		<g id="XMLID_16480_">
			<circle id="XMLID_570_" class="st2" cx="3677" cy="-251.4" r="18.9"/>
		</g>
		<g id="XMLID_16477_">
			<circle id="XMLID_568_" class="st2" cx="3954.8" cy="-414.5" r="18.9"/>
		</g>
		<g id="XMLID_16474_">
			<circle id="XMLID_566_" class="st2" cx="3094.5" cy="-542" r="18.9"/>
		</g>
		<g id="XMLID_16471_">
			<circle id="XMLID_564_" class="st2" cx="3299" cy="401.8" r="9.4"/>
		</g>
		<g id="XMLID_16468_">
			<circle id="XMLID_562_" class="st2" cx="4074.6" cy="236.1" r="9.4"/>
		</g>
		<g id="XMLID_16465_">
			<circle id="XMLID_560_" class="st2" cx="3890.3" cy="234.4" r="9.4"/>
		</g>
		<g id="XMLID_16462_">
			<circle id="XMLID_558_" class="st2" cx="3991.6" cy="470.8" r="9.4"/>
		</g>
		<g id="XMLID_16459_">
			<circle id="XMLID_556_" class="st2" cx="4274.4" cy="445.3" r="9.4"/>
		</g>
		<g id="XMLID_16456_">
			<circle id="XMLID_554_" class="st2" cx="4081.9" cy="498.6" r="18.9"/>
		</g>
		<g id="XMLID_16453_">
			<circle id="XMLID_552_" class="st2" cx="3843.4" cy="-60.9" r="18.9"/>
		</g>
		<g id="XMLID_16450_">
			<circle id="XMLID_550_" class="st2" cx="3935.3" cy="-53.3" r="17.3"/>
		</g>
		<g id="XMLID_16447_">
			<circle id="XMLID_548_" class="st2" cx="3616.3" cy="90.5" r="9.4"/>
		</g>
		<g id="XMLID_16444_">
			<circle id="XMLID_546_" class="st2" cx="2800.4" cy="-265.5" r="15.2"/>
		</g>
		<g id="XMLID_16441_">
			<circle id="XMLID_544_" class="st2" cx="2925.4" cy="-3" r="18.9"/>
		</g>
		<g id="XMLID_16438_">
			<circle id="XMLID_542_" class="st2" cx="3275.1" cy="-172.3" r="10.8"/>
		</g>
		<g id="XMLID_16435_">
			<circle id="XMLID_540_" class="st2" cx="3219.2" cy="386.7" r="9.4"/>
		</g>
		<g id="XMLID_16432_">
			<circle id="XMLID_538_" class="st2" cx="3039.7" cy="436.3" r="9.4"/>
		</g>
		<g id="XMLID_16429_">
			<circle id="XMLID_536_" class="st2" cx="2912.9" cy="156.3" r="9.4"/>
		</g>
		<g id="XMLID_16426_">
			<circle id="XMLID_534_" class="st2" cx="3117.2" cy="-43.8" r="10.8"/>
		</g>
		<g id="XMLID_16423_">
			<circle id="XMLID_532_" class="st2" cx="3203.7" cy="78.1" r="9.4"/>
		</g>
		<g id="XMLID_16420_">
			<circle id="XMLID_530_" class="st2" cx="3174.7" cy="162.3" r="8.7"/>
		</g>
		<g id="XMLID_16417_">
			<circle id="XMLID_528_" class="st2" cx="2759.3" cy="-62" r="8.7"/>
		</g>
		<g id="XMLID_16414_">
			<circle id="XMLID_526_" class="st2" cx="2656" cy="-8.8" r="8.7"/>
		</g>
		<g id="XMLID_16411_">
			<circle id="XMLID_524_" class="st2" cx="2798.5" cy="-105" r="9.4"/>
		</g>
		<g id="XMLID_16408_">
			<circle id="XMLID_522_" class="st2" cx="2661.7" cy="-41.4" r="15.2"/>
		</g>
		<g id="XMLID_16405_">
			<circle id="XMLID_520_" class="st2" cx="2845.9" cy="-58.2" r="18.9"/>
		</g>
		<g id="XMLID_16402_">
			<circle id="XMLID_518_" class="st2" cx="3141.1" cy="114.8" r="8.7"/>
		</g>
		<g id="XMLID_16399_">
			<circle id="XMLID_516_" class="st2" cx="3192.5" cy="2.2" r="10.8"/>
		</g>
		<g id="XMLID_16396_">
			<circle id="XMLID_514_" class="st2" cx="3222.3" cy="319.8" r="9.4"/>
		</g>
		<g id="XMLID_16393_">
			<circle id="XMLID_512_" class="st2" cx="3211.5" cy="228.1" r="9.4"/>
		</g>
		<g id="XMLID_16390_">
			<circle id="XMLID_510_" class="st2" cx="2958.2" cy="273.9" r="13"/>
		</g>
		<g id="XMLID_16387_">
			<circle id="XMLID_508_" class="st2" cx="3054.6" cy="368.8" r="20.5"/>
		</g>
		<g id="XMLID_16384_">
			<circle id="XMLID_506_" class="st2" cx="3223.2" cy="-96.4" r="19.5"/>
		</g>
		<g id="XMLID_16379_">
			<circle id="XMLID_504_" class="st2" cx="2993.4" cy="-79" r="18.9"/>
		</g>
		<g id="XMLID_16370_">
			<circle id="XMLID_502_" class="st2" cx="3111.7" cy="172.4" r="18.9"/>
		</g>
		<g id="XMLID_16367_">
			<circle id="XMLID_500_" class="st2" cx="3282.7" cy="21.7" r="18.9"/>
		</g>
		<g id="XMLID_16364_">
			<circle id="XMLID_498_" class="st2" cx="3351.3" cy="-249.7" r="18.9"/>
		</g>
		<g id="XMLID_16361_">
			<circle id="XMLID_496_" class="st2" cx="3511.9" cy="-597.3" r="9.4"/>
		</g>
		<g id="XMLID_16358_">
			<circle id="XMLID_494_" class="st2" cx="3493" cy="-659.7" r="10.8"/>
		</g>
		<g id="XMLID_16355_">
			<circle id="XMLID_492_" class="st2" cx="3255.1" cy="-605.8" r="9.4"/>
		</g>
		<g id="XMLID_16352_">
			<circle id="XMLID_490_" class="st2" cx="3018.5" cy="-651.6" r="15.2"/>
		</g>
		<g id="XMLID_16349_">
			<circle id="XMLID_488_" class="st2" cx="3262.4" cy="-414.2" r="9.4"/>
		</g>
		<g id="XMLID_16346_">
			<circle id="XMLID_486_" class="st2" cx="3268.5" cy="-344.7" r="18.9"/>
		</g>
		<g id="XMLID_16343_">
			<circle id="XMLID_484_" class="st2" cx="2992.7" cy="-636.7" r="10.8"/>
		</g>
		<g id="XMLID_16340_">
			<circle id="XMLID_482_" class="st2" cx="3236.7" cy="-536.9" r="10.8"/>
		</g>
		<g id="XMLID_16337_">
			<circle id="XMLID_480_" class="st2" cx="3863.3" cy="136.4" r="9.4"/>
		</g>
		<g id="XMLID_16334_">
			<circle id="XMLID_478_" class="st2" cx="3571.1" cy="-3" r="9.4"/>
		</g>
		<g id="XMLID_16331_">
			<circle id="XMLID_476_" class="st2" cx="3472.2" cy="-114.6" r="18.9"/>
		</g>
		<g id="XMLID_16328_">
			<circle id="XMLID_474_" class="st2" cx="3434.9" cy="-431.6" r="10.8"/>
		</g>
		<g id="XMLID_16325_">
			<circle id="XMLID_472_" class="st2" cx="3472.2" cy="-334.2" r="9.4"/>
		</g>
		<g id="XMLID_16322_">
			<circle id="XMLID_470_" class="st2" cx="3423.8" cy="-205.7" r="9.4"/>
		</g>
		<g id="XMLID_16319_">
			<circle id="XMLID_468_" class="st2" cx="3996" cy="-175.5" r="9.4"/>
		</g>
		<g id="XMLID_16316_">
			<circle id="XMLID_466_" class="st2" cx="4191.3" cy="-272.2" r="9.4"/>
		</g>
		<g id="XMLID_16313_">
			<circle id="XMLID_464_" class="st2" cx="3631.5" cy="47.9" r="9.4"/>
		</g>
		<g id="XMLID_16310_">
			<circle id="XMLID_462_" class="st2" cx="2950.2" cy="360.1" r="8.7"/>
		</g>
		<g id="XMLID_16307_">
			<circle id="XMLID_460_" class="st2" cx="3048.1" cy="187.3" r="9.4"/>
		</g>
		<g id="XMLID_16304_">
			<circle id="XMLID_458_" class="st2" cx="3148.1" cy="273.8" r="9.4"/>
		</g>
		<g id="XMLID_16301_">
			<circle id="XMLID_456_" class="st2" cx="3025.9" cy="135" r="9.4"/>
		</g>
		<g id="XMLID_16298_">
			<circle id="XMLID_454_" class="st2" cx="2789.8" cy="106.2" r="18.9"/>
		</g>
		<g id="XMLID_16295_">
			<circle id="XMLID_452_" class="st2" cx="3688.6" cy="-71.3" r="9.4"/>
		</g>
		<g id="XMLID_16292_">
			<circle id="XMLID_450_" class="st2" cx="3856.6" cy="-264.4" r="9.4"/>
		</g>
		<g id="XMLID_16289_">
			<circle id="XMLID_448_" class="st2" cx="3760" cy="-294" r="18.9"/>
		</g>
		<g id="XMLID_16286_">
			<circle id="XMLID_446_" class="st2" cx="3692.9" cy="-159.8" r="18.9"/>
		</g>
		<g id="XMLID_16283_">
			<circle id="XMLID_444_" class="st2" cx="3841.4" cy="-426.7" r="9.4"/>
		</g>
		<g id="XMLID_16280_">
			<circle id="XMLID_442_" class="st2" cx="3821.1" cy="-328.7" r="18.9"/>
		</g>
		<g id="XMLID_16277_">
			<circle id="XMLID_440_" class="st2" cx="3611.9" cy="-400" r="9.4"/>
		</g>
		<g id="XMLID_16274_">
			<circle id="XMLID_438_" class="st2" cx="3653.5" cy="-331.5" r="9.4"/>
		</g>
		<g id="XMLID_16271_">
			<circle id="XMLID_436_" class="st2" cx="3503.8" cy="-183.2" r="10.8"/>
		</g>
		<g id="XMLID_16268_">
			<circle id="XMLID_434_" class="st2" cx="3617.7" cy="9.6" r="9.4"/>
		</g>
		<g id="XMLID_16265_">
			<circle id="XMLID_432_" class="st2" cx="3592.2" cy="41.3" r="9.4"/>
		</g>
		<g id="XMLID_16262_">
			<circle id="XMLID_430_" class="st2" cx="3503.8" cy="-316.4" r="18.9"/>
		</g>
		<g id="XMLID_16259_">
			<circle id="XMLID_428_" class="st2" cx="3616.3" cy="-144.2" r="21.7"/>
		</g>
		<g id="XMLID_16256_">
			<circle id="XMLID_426_" class="st2" cx="3298.6" cy="-562.7" r="10.8"/>
		</g>
		<g id="XMLID_16253_">
			<circle id="XMLID_424_" class="st2" cx="2999.3" cy="-294.4" r="10.8"/>
		</g>
		<g id="XMLID_16250_">
			<circle id="XMLID_422_" class="st2" cx="2995.7" cy="590" r="10.8"/>
		</g>
		<g id="XMLID_16247_">
			<circle id="XMLID_420_" class="st2" cx="3115.3" cy="517.7" r="18.9"/>
		</g>
		<g id="XMLID_16244_">
			<circle id="XMLID_418_" class="st2" cx="2993.4" cy="308.9" r="20.5"/>
		</g>
		<g id="XMLID_16241_">
			<circle id="XMLID_416_" class="st2" cx="2958.4" cy="394.1" r="18.9"/>
		</g>
		<g id="XMLID_16238_">
			<circle id="XMLID_414_" class="st2" cx="3246.6" cy="177.3" r="19.5"/>
		</g>
		<g id="XMLID_16235_">
			<circle id="XMLID_412_" class="st2" cx="3059.7" cy="276.3" r="19.5"/>
		</g>
		<g id="XMLID_16232_">
			<circle id="XMLID_410_" class="st2" cx="3132" cy="433.4" r="18.9"/>
		</g>
		<g id="XMLID_16229_">
			<circle id="XMLID_408_" class="st2" cx="2989.9" cy="464.4" r="18.9"/>
		</g>
		<g id="XMLID_16226_">
			<circle id="XMLID_406_" class="st2" cx="3545" cy="-119.3" r="10.8"/>
		</g>
		<g id="XMLID_16223_">
			<circle id="XMLID_404_" class="st2" cx="3895.8" cy="-129.2" r="9.4"/>
		</g>
		<g id="XMLID_16220_">
			<circle id="XMLID_402_" class="st2" cx="4244.6" cy="-475.1" r="9.4"/>
		</g>
		<g id="XMLID_16217_">
			<circle id="XMLID_400_" class="st2" cx="4184.6" cy="-549.2" r="9.4"/>
		</g>
		<g id="XMLID_16214_">
			<circle id="XMLID_398_" class="st2" cx="3958.2" cy="-560.7" r="9.4"/>
		</g>
		<g id="XMLID_16211_">
			<circle id="XMLID_396_" class="st2" cx="4018.3" cy="-480.5" r="18.9"/>
		</g>
		<g id="XMLID_16208_">
			<circle id="XMLID_394_" class="st2" cx="4063.8" cy="-549.2" r="18.9"/>
		</g>
		<g id="XMLID_16205_">
			<circle id="XMLID_392_" class="st2" cx="3762.2" cy="-556" r="20.5"/>
		</g>
		<g id="XMLID_16202_">
			<circle id="XMLID_390_" class="st2" cx="3942.5" cy="-495.8" r="18.9"/>
		</g>
		<g id="XMLID_16199_">
			<circle id="XMLID_388_" class="st2" cx="4044.3" cy="-233.8" r="9.4"/>
		</g>
		<g id="XMLID_16196_">
			<circle id="XMLID_386_" class="st2" cx="4081.9" cy="45.8" r="9.4"/>
		</g>
		<g id="XMLID_16193_">
			<circle id="XMLID_384_" class="st2" cx="3698.9" cy="-549.2" r="18.9"/>
		</g>
		<g id="XMLID_16190_">
			<circle id="XMLID_382_" class="st2" cx="4026.5" cy="-133.3" r="9.4"/>
		</g>
		<g id="XMLID_16185_">
			<circle id="XMLID_380_" class="st2" cx="3911.7" cy="-251.4" r="9.4"/>
		</g>
		<g id="XMLID_16176_">
			<circle id="XMLID_378_" class="st2" cx="3721.9" cy="-581.4" r="9.4"/>
		</g>
		<g id="XMLID_16173_">
			<circle id="XMLID_376_" class="st2" cx="3673.4" cy="-581.4" r="9.4"/>
		</g>
		<g id="XMLID_16170_">
			<circle id="XMLID_374_" class="st2" cx="4066.9" cy="-212.9" r="9.4"/>
		</g>
		<g id="XMLID_16167_">
			<circle id="XMLID_372_" class="st2" cx="4101.4" cy="64.5" r="9.4"/>
		</g>
		<g id="XMLID_16164_">
			<circle id="XMLID_370_" class="st2" cx="4141.7" cy="-186.3" r="18.9"/>
		</g>
		<g id="XMLID_16161_">
			<circle id="XMLID_368_" class="st2" cx="3908.8" cy="-560.7" r="18.9"/>
		</g>
		<g id="XMLID_16158_">
			<circle id="XMLID_366_" class="st2" cx="3755.7" cy="-224.8" r="9.4"/>
		</g>
		<g id="XMLID_16155_">
			<circle id="XMLID_364_" class="st2" cx="3752.8" cy="-86.7" r="19.5"/>
		</g>
		<g id="XMLID_16152_">
			<circle id="XMLID_362_" class="st2" cx="3558.4" cy="-49.7" r="18.9"/>
		</g>
		<g id="XMLID_16149_">
			<circle id="XMLID_360_" class="st2" cx="3998.8" cy="168.2" r="9.4"/>
		</g>
		<g id="XMLID_16146_">
			<circle id="XMLID_358_" class="st2" cx="3805" cy="-149.7" r="18.9"/>
		</g>
		<g id="XMLID_16143_">
			<circle id="XMLID_356_" class="st2" cx="3942.7" cy="-324.6" r="18.9"/>
		</g>
		<g id="XMLID_16140_">
			<circle id="XMLID_354_" class="st2" cx="3965.1" cy="-240.9" r="18.9"/>
		</g>
		<g id="XMLID_16137_">
			<circle id="XMLID_352_" class="st2" cx="3884.5" cy="-10.5" r="9.4"/>
		</g>
		<g id="XMLID_16134_">
			<circle id="XMLID_350_" class="st2" cx="4193.7" cy="-212.8" r="9.4"/>
		</g>
		<g id="XMLID_16131_">
			<circle id="XMLID_348_" class="st2" cx="3874.4" cy="203.1" r="9.4"/>
		</g>
		<g id="XMLID_16128_">
			<circle id="XMLID_346_" class="st2" cx="4128" cy="-345.1" r="9.4"/>
		</g>
		<g id="XMLID_16125_">
			<circle id="XMLID_344_" class="st2" cx="4214.5" cy="-419" r="18.9"/>
		</g>
		<g id="XMLID_16122_">
			<circle id="XMLID_342_" class="st2" cx="4162.2" cy="-457" r="18.9"/>
		</g>
		<g id="XMLID_16119_">
			<circle id="XMLID_340_" class="st2" cx="3939.9" cy="-186.3" r="15.2"/>
		</g>
		<g id="XMLID_16116_">
			<circle id="XMLID_338_" class="st2" cx="3148.1" cy="-339.5" r="9.4"/>
		</g>
		<g id="XMLID_16113_">
			<circle id="XMLID_336_" class="st2" cx="3471.4" cy="-421.5" r="19.5"/>
		</g>
		<g id="XMLID_16110_">
			<circle id="XMLID_334_" class="st2" cx="3520.8" cy="-545.5" r="15.2"/>
		</g>
		<g id="XMLID_16107_">
			<circle id="XMLID_332_" class="st2" cx="3155.6" cy="-431.6" r="18.9"/>
		</g>
		<g id="XMLID_16104_">
			<circle id="XMLID_330_" class="st2" cx="3075.1" cy="-366.2" r="13"/>
		</g>
		<g id="XMLID_16101_">
			<circle id="XMLID_328_" class="st2" cx="3536" cy="-475.1" r="18.9"/>
		</g>
		<g id="XMLID_16098_">
			<circle id="XMLID_326_" class="st2" cx="3222.3" cy="-246.8" r="18.9"/>
		</g>
		<g id="XMLID_16095_">
			<circle id="XMLID_324_" class="st2" cx="2965.2" cy="-352.8" r="18.9"/>
		</g>
		<g id="XMLID_16092_">
			<circle id="XMLID_322_" class="st2" cx="3038" cy="20.9" r="18.9"/>
		</g>
		<g id="XMLID_16089_">
			<circle id="XMLID_320_" class="st2" cx="3030.2" cy="-146.1" r="19.5"/>
		</g>
		<g id="XMLID_16086_">
			<circle id="XMLID_318_" class="st2" cx="2685.8" cy="-103.4" r="19.5"/>
		</g>
		<g id="XMLID_16083_">
			<circle id="XMLID_316_" class="st2" cx="2935.7" cy="-144.2" r="19.5"/>
		</g>
		<g id="XMLID_16080_">
			<circle id="XMLID_314_" class="st2" cx="3399.9" cy="-145.1" r="19.5"/>
		</g>
		<g id="XMLID_16077_">
			<circle id="XMLID_312_" class="st2" cx="3473.5" cy="-240.9" r="19.5"/>
		</g>
		<g id="XMLID_16074_">
			<circle id="XMLID_310_" class="st2" cx="3332.1" cy="-29.8" r="18.9"/>
		</g>
		<g id="XMLID_16071_">
			<circle id="XMLID_308_" class="st2" cx="3107.6" cy="-111.5" r="18.9"/>
		</g>
		<g id="XMLID_16068_">
			<circle id="XMLID_306_" class="st2" cx="3292.3" cy="115.5" r="18.9"/>
		</g>
		<g id="XMLID_16065_">
			<circle id="XMLID_304_" class="st2" cx="3418.1" cy="-328.6" r="18.9"/>
		</g>
		<g id="XMLID_16062_">
			<circle id="XMLID_302_" class="st2" cx="3283.9" cy="-102.1" r="18.9"/>
		</g>
		<g id="XMLID_16059_">
			<circle id="XMLID_300_" class="st2" cx="3282" cy="-508.1" r="18.9"/>
		</g>
		<g id="XMLID_16056_">
			<circle id="XMLID_298_" class="st2" cx="3049.4" cy="-426.7" r="18.9"/>
		</g>
		<g id="XMLID_16053_">
			<circle id="XMLID_296_" class="st2" cx="3144.5" cy="-249.7" r="18.9"/>
		</g>
		<g id="XMLID_16050_">
			<circle id="XMLID_294_" class="st2" cx="3192.8" cy="-522.1" r="18.9"/>
		</g>
		<g id="XMLID_16047_">
			<circle id="XMLID_292_" class="st2" cx="3418.1" cy="-562.7" r="18.9"/>
		</g>
		<g id="XMLID_16044_">
			<circle id="XMLID_290_" class="st2" cx="2886.2" cy="-377.1" r="15.2"/>
		</g>
		<g id="XMLID_16041_">
			<circle id="XMLID_288_" class="st2" cx="2905.3" cy="-319.7" r="18.9"/>
		</g>
		<g id="XMLID_16038_">
			<circle id="XMLID_286_" class="st2" cx="2800.4" cy="-394.3" r="18.9"/>
		</g>
		<g id="XMLID_16035_">
			<circle id="XMLID_284_" class="st2" cx="2813.3" cy="-331.5" r="15.2"/>
		</g>
		<g id="XMLID_16032_">
			<circle id="XMLID_282_" class="st2" cx="2768.5" cy="-157.2" r="18.9"/>
		</g>
		<g id="XMLID_16029_">
			<circle id="XMLID_280_" class="st2" cx="2708.9" cy="99.7" r="18.9"/>
		</g>
		<g id="XMLID_16026_">
			<circle id="XMLID_278_" class="st2" cx="2948.7" cy="218" r="18.9"/>
		</g>
		<g id="XMLID_16023_">
			<circle id="XMLID_276_" class="st2" cx="4028.4" cy="175.2" r="9.4"/>
		</g>
		<g id="XMLID_16020_">
			<circle id="XMLID_274_" class="st2" cx="4168.9" cy="502.1" r="15.2"/>
		</g>
		<g id="XMLID_16017_">
			<circle id="XMLID_272_" class="st2" cx="4203.5" cy="571.9" r="9.4"/>
		</g>
		<g id="XMLID_16014_">
			<circle id="XMLID_270_" class="st2" cx="4173" cy="566.1" r="10.8"/>
		</g>
		<g id="XMLID_16011_">
			<circle id="XMLID_268_" class="st2" cx="4098.7" cy="568.9" r="9.4"/>
		</g>
		<g id="XMLID_16008_">
			<circle id="XMLID_266_" class="st2" cx="4356.6" cy="295.4" r="10.8"/>
		</g>
		<g id="XMLID_16005_">
			<circle id="XMLID_264_" class="st2" cx="4214.1" cy="417.4" r="18.9"/>
		</g>
		<g id="XMLID_16002_">
			<circle id="XMLID_262_" class="st2" cx="4252.5" cy="234.4" r="9.4"/>
		</g>
		<g id="XMLID_15999_">
			<circle id="XMLID_260_" class="st2" cx="4298.2" cy="362.9" r="9.4"/>
		</g>
		<g id="XMLID_15996_">
			<circle id="XMLID_258_" class="st2" cx="4191.6" cy="370.8" r="9.4"/>
		</g>
		<g id="XMLID_15991_">
			<circle id="XMLID_256_" class="st2" cx="4324.6" cy="447.7" r="15.2"/>
		</g>
		<g id="XMLID_15982_">
			<circle id="XMLID_254_" class="st2" cx="4305.1" cy="588.5" r="18.9"/>
		</g>
		<g id="XMLID_15979_">
			<circle id="XMLID_252_" class="st2" cx="3730.2" cy="-421.5" r="18.9"/>
		</g>
		<g id="XMLID_15976_">
			<circle id="XMLID_250_" class="st2" cx="3964" cy="-121.2" r="18.9"/>
		</g>
		<g id="XMLID_15973_">
			<circle id="XMLID_248_" class="st2" cx="4306.7" cy="514.9" r="18.9"/>
		</g>
		<g id="XMLID_15970_">
			<circle id="XMLID_246_" class="st2" cx="4062.5" cy="-357.2" r="18.9"/>
		</g>
		<g id="XMLID_15967_">
			<circle id="XMLID_244_" class="st2" cx="3577.5" cy="-589.4" r="18.9"/>
		</g>
		<g id="XMLID_15964_">
			<circle id="XMLID_242_" class="st2" cx="2153.9" cy="554.3" r="18.9"/>
		</g>
		<g id="XMLID_15961_">
			<circle id="XMLID_240_" class="st2" cx="2375.5" cy="308.2" r="18.9"/>
		</g>
		<g id="XMLID_15958_">
			<circle id="XMLID_238_" class="st2" cx="2251.6" cy="172.7" r="18.9"/>
		</g>
		<g id="XMLID_15955_">
			<circle id="XMLID_236_" class="st2" cx="2037.6" cy="-399.5" r="18.9"/>
		</g>
		<g id="XMLID_15952_">
			<circle id="XMLID_234_" class="st2" cx="2019" cy="-242.5" r="18.9"/>
		</g>
		<g id="XMLID_15949_">
			<circle id="XMLID_232_" class="st2" cx="1761.9" cy="-53.5" r="18.9"/>
		</g>
		<g id="XMLID_15946_">
			<circle id="XMLID_230_" class="st2" cx="1974" cy="-383.9" r="9.4"/>
		</g>
		<g id="XMLID_15943_">
			<circle id="XMLID_228_" class="st2" cx="1668.7" cy="-151.2" r="18.9"/>
		</g>
		<g id="XMLID_15940_">
			<circle id="XMLID_226_" class="st2" cx="2124.8" cy="-546.3" r="9.4"/>
		</g>
		<g id="XMLID_15937_">
			<circle id="XMLID_224_" class="st2" cx="1797.9" cy="-291.5" r="9.4"/>
		</g>
		<g id="XMLID_15934_">
			<circle id="XMLID_222_" class="st2" cx="2501" cy="-542" r="9.4"/>
		</g>
		<g id="XMLID_15931_">
			<circle id="XMLID_220_" class="st2" cx="2489.8" cy="-612.8" r="9.4"/>
		</g>
		<g id="XMLID_15928_">
			<circle id="XMLID_218_" class="st2" cx="2412.1" cy="-659.6" r="9.4"/>
		</g>
		<g id="XMLID_15925_">
			<circle id="XMLID_216_" class="st2" cx="2596.7" cy="-667.7" r="18.9"/>
		</g>
		<g id="XMLID_15922_">
			<circle id="XMLID_214_" class="st2" cx="2619.3" cy="-588.7" r="18.9"/>
		</g>
		<g id="XMLID_15919_">
			<circle id="XMLID_212_" class="st2" cx="1911.3" cy="-331.1" r="9.4"/>
		</g>
		<g id="XMLID_15916_">
			<circle id="XMLID_210_" class="st2" cx="2050.3" cy="-534.5" r="9.4"/>
		</g>
		<g id="XMLID_15913_">
			<circle id="XMLID_208_" class="st2" cx="1647.8" cy="-230.8" r="15.2"/>
		</g>
		<g id="XMLID_15910_">
			<circle id="XMLID_206_" class="st2" cx="1824.1" cy="-214.3" r="9.4"/>
		</g>
		<g id="XMLID_15907_">
			<circle id="XMLID_204_" class="st2" cx="1742.1" cy="-274.9" r="9.4"/>
		</g>
		<g id="XMLID_15904_">
			<circle id="XMLID_202_" class="st2" cx="1701.8" cy="-338.5" r="17.3"/>
		</g>
		<g id="XMLID_15901_">
			<circle id="XMLID_200_" class="st2" cx="1701.8" cy="-422.7" r="9.4"/>
		</g>
		<g id="XMLID_15898_">
			<circle id="XMLID_198_" class="st2" cx="1537.8" cy="-484.1" r="10.8"/>
		</g>
		<g id="XMLID_15895_">
			<circle id="XMLID_196_" class="st2" cx="1549.5" cy="-522.4" r="17.3"/>
		</g>
		<g id="XMLID_15892_">
			<circle id="XMLID_194_" class="st2" cx="1853.6" cy="-456.6" r="9.4"/>
		</g>
		<g id="XMLID_15889_">
			<circle id="XMLID_192_" class="st2" cx="1599.1" cy="-565.1" r="10.3"/>
		</g>
		<g id="XMLID_15886_">
			<circle id="XMLID_190_" class="st2" cx="1921.5" cy="-535.7" r="12.3"/>
		</g>
		<g id="XMLID_15883_">
			<circle id="XMLID_188_" class="st2" cx="1921.5" cy="-535.7" r="10.3"/>
		</g>
		<g id="XMLID_15880_">
			<circle id="XMLID_186_" class="st2" cx="1872.1" cy="-552.1" r="9.4"/>
		</g>
		<g id="XMLID_15877_">
			<circle id="XMLID_184_" class="st2" cx="1687.3" cy="-472.5" r="9.4"/>
		</g>
		<g id="XMLID_15874_">
			<circle id="XMLID_182_" class="st2" cx="1633.1" cy="-502.7" r="9.4"/>
		</g>
		<g id="XMLID_15871_">
			<circle id="XMLID_180_" class="st2" cx="1702.5" cy="-550.9" r="18.9"/>
		</g>
		<g id="XMLID_15868_">
			<circle id="XMLID_178_" class="st2" cx="2054.4" cy="-354.9" r="8.7"/>
		</g>
		<g id="XMLID_15865_">
			<circle id="XMLID_176_" class="st2" cx="1880.8" cy="-287.2" r="9.4"/>
		</g>
		<g id="XMLID_15862_">
			<circle id="XMLID_174_" class="st2" cx="2178.7" cy="126.9" r="9.4"/>
		</g>
		<g id="XMLID_15859_">
			<circle id="XMLID_172_" class="st2" cx="2248.1" cy="259.6" r="9.4"/>
		</g>
		<g id="XMLID_15856_">
			<circle id="XMLID_170_" class="st2" cx="2274" cy="384.9" r="9.4"/>
		</g>
		<g id="XMLID_15853_">
			<circle id="XMLID_168_" class="st2" cx="2103.8" cy="436.3" r="18.9"/>
		</g>
		<g id="XMLID_15850_">
			<circle id="XMLID_166_" class="st2" cx="2200.2" cy="653.7" r="18.9"/>
		</g>
		<g id="XMLID_15847_">
			<circle id="XMLID_164_" class="st2" cx="2209.2" cy="507.9" r="19.5"/>
		</g>
		<g id="XMLID_15844_">
			<circle id="XMLID_162_" class="st2" cx="2300.4" cy="514.9" r="18.9"/>
		</g>
		<g id="XMLID_15841_">
			<circle id="XMLID_160_" class="st2" cx="2199.3" cy="248.9" r="9.4"/>
		</g>
		<g id="XMLID_15838_">
			<circle id="XMLID_158_" class="st2" cx="2061.7" cy="91.3" r="9.4"/>
		</g>
		<g id="XMLID_15835_">
			<circle id="XMLID_156_" class="st2" cx="2325.6" cy="339" r="9.4"/>
		</g>
		<g id="XMLID_15832_">
			<circle id="XMLID_154_" class="st2" cx="2116.8" cy="611.7" r="9.4"/>
		</g>
		<g id="XMLID_15829_">
			<circle id="XMLID_152_" class="st2" cx="2182" cy="796.8" r="9.4"/>
		</g>
		<g id="XMLID_15826_">
			<circle id="XMLID_150_" class="st2" cx="2132.4" cy="659.3" r="9.4"/>
		</g>
		<g id="XMLID_15823_">
			<circle id="XMLID_148_" class="st2" cx="2097.3" cy="508.8" r="19.5"/>
		</g>
		<g id="XMLID_15820_">
			<circle id="XMLID_146_" class="st2" cx="1998.4" cy="292.1" r="9.4"/>
		</g>
		<g id="XMLID_15817_">
			<circle id="XMLID_144_" class="st2" cx="2054.2" cy="300.4" r="8.7"/>
		</g>
		<g id="XMLID_15814_">
			<circle id="XMLID_142_" class="st2" cx="2109.2" cy="199.9" r="8.7"/>
		</g>
		<g id="XMLID_15811_">
			<circle id="XMLID_140_" class="st2" cx="2406.3" cy="378" r="9.4"/>
		</g>
		<g id="XMLID_15808_">
			<circle id="XMLID_138_" class="st2" cx="2145.4" cy="96.5" r="8.7"/>
		</g>
		<g id="XMLID_15805_">
			<circle id="XMLID_136_" class="st2" cx="1998.4" cy="145.3" r="8.7"/>
		</g>
		<g id="XMLID_15802_">
			<circle id="XMLID_134_" class="st2" cx="1911" cy="62.4" r="8.7"/>
		</g>
		<g id="XMLID_15797_">
			<circle id="XMLID_132_" class="st2" cx="1860.9" cy="30.2" r="9.4"/>
		</g>
		<g id="XMLID_15788_">
			<circle id="XMLID_130_" class="st2" cx="1732.5" cy="-28.2" r="8.7"/>
		</g>
		<g id="XMLID_15785_">
			<circle id="XMLID_128_" class="st2" cx="1805.9" cy="-102.8" r="9.4"/>
		</g>
		<g id="XMLID_15782_">
			<circle id="XMLID_126_" class="st2" cx="1726.8" cy="-89.4" r="8.7"/>
		</g>
		<g id="XMLID_15779_">
			<circle id="XMLID_124_" class="st2" cx="2189.7" cy="325.6" r="18.9"/>
		</g>
		<g id="XMLID_15776_">
			<circle id="XMLID_122_" class="st2" cx="2075.5" cy="259.6" r="18.9"/>
		</g>
		<g id="XMLID_15773_">
			<circle id="XMLID_120_" class="st2" cx="2143.7" cy="255.3" r="9.4"/>
		</g>
		<g id="XMLID_15770_">
			<circle id="XMLID_118_" class="st2" cx="2279.5" cy="452.1" r="19.5"/>
		</g>
		<g id="XMLID_15767_">
			<circle id="XMLID_116_" class="st2" cx="2053.4" cy="369.3" r="19.5"/>
		</g>
		<g id="XMLID_15764_">
			<circle id="XMLID_114_" class="st2" cx="2110.6" cy="328.1" r="18.9"/>
		</g>
		<g id="XMLID_15761_">
			<circle id="XMLID_112_" class="st2" cx="2325.6" cy="239.7" r="18.9"/>
		</g>
		<g id="XMLID_15758_">
			<circle id="XMLID_110_" class="st2" cx="1958.7" cy="-526.7" r="18.5"/>
		</g>
		<g id="XMLID_15755_">
			<circle id="XMLID_108_" class="st2" cx="1693.9" cy="-207.4" r="9.4"/>
		</g>
		<g id="XMLID_15752_">
			<circle id="XMLID_106_" class="st2" cx="1947.6" cy="-229.5" r="9.4"/>
		</g>
		<g id="XMLID_15749_">
			<circle id="XMLID_104_" class="st2" cx="1852.1" cy="-159.9" r="20.5"/>
		</g>
		<g id="XMLID_15746_">
			<circle id="XMLID_102_" class="st2" cx="1746.9" cy="-227.2" r="18.5"/>
		</g>
		<g id="XMLID_15743_">
			<circle id="XMLID_100_" class="st2" cx="2012.4" cy="-445.3" r="9.4"/>
		</g>
		<g id="XMLID_15740_">
			<circle id="XMLID_98_" class="st2" cx="2271.8" cy="-448.6" r="9.4"/>
		</g>
		<g id="XMLID_15737_">
			<circle id="XMLID_96_" class="st2" cx="2291.7" cy="-528.9" r="15.2"/>
		</g>
		<g id="XMLID_15734_">
			<circle id="XMLID_94_" class="st2" cx="2202.6" cy="-377.2" r="9.4"/>
		</g>
		<g id="XMLID_15731_">
			<circle id="XMLID_92_" class="st2" cx="2099.6" cy="-530.7" r="15.2"/>
		</g>
		<g id="XMLID_15728_">
			<circle id="XMLID_90_" class="st2" cx="2748.5" cy="-401.7" r="9.4"/>
		</g>
		<g id="XMLID_15725_">
			<circle id="XMLID_88_" class="st2" cx="1814.7" cy="-2.6" r="9.4"/>
		</g>
		<g id="XMLID_15722_">
			<circle id="XMLID_86_" class="st2" cx="1929.1" cy="50.3" r="9.4"/>
		</g>
		<g id="XMLID_15719_">
			<circle id="XMLID_84_" class="st2" cx="1862.9" cy="-4.1" r="9.4"/>
		</g>
		<g id="XMLID_15716_">
			<circle id="XMLID_82_" class="st2" cx="2561.6" cy="-662.5" r="9.4"/>
		</g>
		<g id="XMLID_15713_">
			<circle id="XMLID_80_" class="st2" cx="2306.8" cy="-557.2" r="9.4"/>
		</g>
		<g id="XMLID_15710_">
			<circle id="XMLID_78_" class="st2" cx="2328.4" cy="-659.7" r="9.4"/>
		</g>
		<g id="XMLID_15707_">
			<circle id="XMLID_76_" class="st2" cx="2163.6" cy="-396.3" r="9.4"/>
		</g>
		<g id="XMLID_15704_">
			<circle id="XMLID_74_" class="st2" cx="1895.1" cy="-17.3" r="9.4"/>
		</g>
		<g id="XMLID_15701_">
			<circle id="XMLID_72_" class="st2" cx="1883.4" cy="-399.5" r="17"/>
		</g>
		<g id="XMLID_15698_">
			<circle id="XMLID_70_" class="st2" cx="1747.1" cy="-377.2" r="9.4"/>
		</g>
		<g id="XMLID_15695_">
			<circle id="XMLID_68_" class="st2" cx="1883.4" cy="-483" r="9.4"/>
		</g>
		<g id="XMLID_15692_">
			<circle id="XMLID_66_" class="st2" cx="2215.5" cy="-431.6" r="18.9"/>
		</g>
		<g id="XMLID_15689_">
			<circle id="XMLID_64_" class="st2" cx="2117.9" cy="-346.6" r="9.4"/>
		</g>
		<g id="XMLID_15686_">
			<circle id="XMLID_62_" class="st2" cx="1990.5" cy="205.2" r="18.9"/>
		</g>
		<g id="XMLID_15683_">
			<circle id="XMLID_60_" class="st2" cx="2261.9" cy="325.6" r="20.5"/>
		</g>
		<g id="XMLID_15680_">
			<circle id="XMLID_58_" class="st2" cx="2189.7" cy="423.3" r="18.5"/>
		</g>
		<g id="XMLID_15677_">
			<circle id="XMLID_56_" class="st2" cx="3160.5" cy="350.7" r="18.9"/>
		</g>
		<g id="XMLID_15674_">
			<circle id="XMLID_54_" class="st2" cx="3581.7" cy="-334.2" r="18.9"/>
		</g>
		<g id="XMLID_15671_">
			<circle id="XMLID_52_" class="st2" cx="2365.8" cy="422" r="18.9"/>
		</g>
		<g id="XMLID_15668_">
			<circle id="XMLID_50_" class="st2" cx="2859.6" cy="-152.8" r="20.5"/>
		</g>
		<g id="XMLID_15665_">
			<circle id="XMLID_48_" class="st2" cx="2011.1" cy="-318.2" r="15.1"/>
		</g>
		<g id="XMLID_15662_">
			<circle id="XMLID_46_" class="st2" cx="2662.7" cy="-648.9" r="18.9"/>
		</g>
		<g id="XMLID_15659_">
			<circle id="XMLID_44_" class="st2" cx="1883.4" cy="-229.5" r="9.4"/>
		</g>
		<g id="XMLID_15656_">
			<circle id="XMLID_42_" class="st2" cx="1808.7" cy="-488.2" r="17"/>
		</g>
		<g id="XMLID_15653_">
			<circle id="XMLID_40_" class="st2" cx="1751.4" cy="-139.3" r="20.5"/>
		</g>
		<g id="XMLID_15650_">
			<circle id="XMLID_38_" class="st2" cx="1952.4" cy="-453.6" r="17"/>
		</g>
		<g id="XMLID_15647_">
			<circle id="XMLID_36_" class="st2" cx="2298.3" cy="-373.1" r="18.9"/>
		</g>
		<g id="XMLID_15644_">
			<circle id="XMLID_34_" class="st2" cx="1944.5" cy="-274" r="18.5"/>
		</g>
		<g id="XMLID_15641_">
			<circle id="XMLID_32_" class="st2" cx="2028.3" cy="-43.8" r="18.9"/>
		</g>
		<g id="XMLID_15638_">
			<circle id="XMLID_30_" class="st2" cx="1960.4" cy="-147.1" r="18.9"/>
		</g>
		<g id="XMLID_15635_">
			<circle id="XMLID_28_" class="st2" cx="2080.1" cy="-273.5" r="19.5"/>
		</g>
		<g id="XMLID_15632_">
			<circle id="XMLID_26_" class="st2" cx="1847.1" cy="-324" r="17.3"/>
		</g>
		<g id="XMLID_15629_">
			<circle id="XMLID_633_" class="st2" cx="1761.9" cy="-314.6" r="17"/>
		</g>
		<g id="XMLID_15626_">
			<circle id="XMLID_635_" class="st2" cx="2202" cy="-327" r="18.9"/>
		</g>
		<g id="XMLID_15623_">
			<circle id="XMLID_637_" class="st2" cx="2449.5" cy="-644.7" r="9.4"/>
		</g>
		<g id="XMLID_15618_">
			<circle id="XMLID_639_" class="st2" cx="2248.9" cy="556.8" r="9.4"/>
		</g>
		<g id="XMLID_15612_">
			<circle id="XMLID_641_" class="st2" cx="2027" cy="113.8" r="9.4"/>
		</g>
		<g id="XMLID_14900_">
			<circle id="XMLID_643_" class="st2" cx="2175.5" cy="756.4" r="9.4"/>
		</g>
	</g>
</g>
<g id="XMLID_15614_">
	<g>
		<path id="XMLID_9_" d="M3367-100.7c-0.2,7.2-2.1,14-4.9,20.6c-4.6,10.8-10.7,20.6-17.8,29.7c-3.5,4.6-7.3,9.1-11.1,13.6
			c-2.9,3.4-6.6,3.4-9.4,0c-10.2-11.4-19.3-23.8-26.2-37.5c-3.5-6.9-6.2-14-7.2-21.6c-1.4-12.3,2.3-23.2,11.1-32
			c7.9-7.9,17.8-11.6,29.1-11.1c18,0.9,33.4,14.9,35.8,32.6C3366.7-104.5,3366.8-102.6,3367-100.7z M3328.6-117
			c-8.4,0-15.2,6.7-15.2,15.1s6.9,15.2,15.1,15.1c8.4,0,15.1-6.7,15.1-15.1C3343.7-110.1,3337-117,3328.6-117z"/>
	</g>
</g>
<g id="XMLID_5_">
	<g>
		<path id="XMLID_7_" d="M3793-292.7c-0.2,7.2-2.1,14-4.9,20.6c-4.6,10.8-10.7,20.6-17.8,29.7c-3.5,4.6-7.3,9.1-11.1,13.6
			c-2.9,3.4-6.6,3.4-9.4,0c-10.2-11.4-19.3-23.8-26.2-37.5c-3.5-6.9-6.2-14-7.2-21.6c-1.4-12.3,2.3-23.2,11.1-32
			c7.9-7.9,17.8-11.6,29.1-11.1c18,0.9,33.4,14.9,35.8,32.6C3792.7-296.5,3792.9-294.7,3793-292.7z M3754.6-309
			c-8.4,0-15.2,6.7-15.2,15.1s6.9,15.2,15.1,15.1c8.4,0,15.1-6.7,15.1-15.1C3769.7-302.1,3763-309,3754.6-309z"/>
	</g>
</g>
<g id="XMLID_15_">
	<g>
		<path id="XMLID_17_" d="M4180.1-259.7c-0.2,7.2-2.1,14-4.9,20.6c-4.6,10.8-10.7,20.6-17.8,29.7c-3.5,4.6-7.3,9.1-11.1,13.6
			c-2.9,3.4-6.6,3.4-9.4,0c-10.2-11.4-19.3-23.8-26.2-37.5c-3.5-6.9-6.2-14-7.2-21.6c-1.4-12.3,2.3-23.2,11.1-32
			c7.9-7.9,17.8-11.6,29.1-11.1c18,0.9,33.4,14.9,35.8,32.6C4179.8-263.5,4179.9-261.7,4180.1-259.7z M4141.7-276
			c-8.4,0-15.2,6.7-15.2,15.1s6.9,15.2,15.1,15.1c8.4,0,15.1-6.7,15.1-15.1C4156.8-269.1,4150-276,4141.7-276z"/>
	</g>
</g>
<g id="XMLID_19_">
	<g>
		<path id="XMLID_21_" d="M4007-307.7c-0.2,7.2-2.1,14-4.9,20.6c-4.6,10.8-10.7,20.6-17.8,29.7c-3.5,4.6-7.3,9.1-11.1,13.6
			c-2.9,3.4-6.6,3.4-9.4,0c-10.2-11.4-19.3-23.8-26.2-37.5c-3.5-6.9-6.2-14-7.2-21.6c-1.4-12.3,2.3-23.2,11.1-32
			c7.9-7.9,17.8-11.6,29.1-11.1c18,0.9,33.4,14.9,35.8,32.6C4006.7-311.5,4006.9-309.7,4007-307.7z M3968.7-324
			c-8.4,0-15.2,6.7-15.2,15.1s6.9,15.2,15.1,15.1c8.4,0,15.1-6.7,15.1-15.1C3983.7-317.1,3977-324,3968.7-324z"/>
	</g>
</g>
<g id="XMLID_23_">
	<g>
		<path id="XMLID_25_" d="M3938-196.7c-0.2,7.2-2.1,14-4.9,20.6c-4.6,10.8-10.7,20.6-17.8,29.7c-3.5,4.6-7.3,9.1-11.1,13.6
			c-2.9,3.4-6.6,3.4-9.4,0c-10.2-11.4-19.3-23.8-26.2-37.5c-3.5-6.9-6.2-14-7.2-21.6c-1.4-12.3,2.3-23.2,11.1-32
			c7.9-7.9,17.8-11.6,29.1-11.1c18,0.9,33.4,14.9,35.8,32.6C3937.7-200.5,3937.9-198.7,3938-196.7z M3899.6-213
			c-8.4,0-15.2,6.7-15.2,15.1s6.9,15.2,15.1,15.1c8.4,0,15.1-6.7,15.1-15.1C3914.7-206.1,3908-213,3899.6-213z"/>
	</g>
</g>
<g id="XMLID_29_">
	<g>
		<path id="XMLID_33_" d="M4041.9,145.1c-0.2,7.2-2.1,14-4.9,20.6c-4.6,10.8-10.7,20.6-17.8,29.7c-3.5,4.6-7.3,9.1-11.1,13.6
			c-2.9,3.4-6.6,3.4-9.4,0c-10.2-11.4-19.3-23.8-26.2-37.5c-3.5-6.9-6.2-14-7.2-21.6c-1.4-12.3,2.3-23.2,11.1-32
			c7.9-7.9,17.8-11.6,29.1-11.1c18,0.9,33.4,14.9,35.8,32.6C4041.6,141.3,4041.8,143.1,4041.9,145.1z M4003.5,128.8
			c-8.4,0-15.2,6.7-15.2,15.1s6.9,15.2,15.1,15.1c8.4,0,15.1-6.7,15.1-15.1C4018.6,135.7,4011.9,128.8,4003.5,128.8z"/>
	</g>
</g>
<g id="XMLID_37_">
	<g>
		<path id="XMLID_41_" d="M4206.9,436.2c-0.2,7.2-2.1,14-4.9,20.6c-4.6,10.8-10.7,20.6-17.8,29.7c-3.5,4.6-7.3,9.1-11.1,13.6
			c-2.9,3.4-6.6,3.4-9.4,0c-10.2-11.4-19.3-23.8-26.2-37.5c-3.5-6.9-6.2-14-7.2-21.6c-1.4-12.3,2.3-23.2,11.1-32
			c7.9-7.9,17.8-11.6,29.1-11.1c18,0.9,33.4,14.9,35.8,32.6C4206.6,432.3,4206.8,434.2,4206.9,436.2z M4168.6,419.8
			c-8.4,0-15.2,6.7-15.2,15.1s6.9,15.2,15.1,15.1c8.4,0,15.1-6.7,15.1-15.1C4183.6,426.7,4176.9,419.8,4168.6,419.8z"/>
	</g>
</g>
<g id="XMLID_10_">
	<g>
		<path id="XMLID_13_" d="M3661-55.7c-0.2,7.2-2.1,14-4.9,20.6c-4.6,10.8-10.7,20.6-17.8,29.7c-3.5,4.6-7.3,9.1-11.1,13.6
			c-2.9,3.4-6.6,3.4-9.4,0c-10.2-11.4-19.3-23.8-26.2-37.5c-3.5-6.9-6.2-14-7.2-21.6c-1.4-12.3,2.3-23.2,11.1-32
			c7.9-7.9,17.8-11.6,29.1-11.1c18,0.9,33.4,14.9,35.8,32.6C3660.7-59.5,3660.9-57.6,3661-55.7z M3622.6-72
			c-8.4,0-15.2,6.7-15.2,15.1s6.9,15.2,15.1,15.1c8.4,0,15.1-6.7,15.1-15.1C3637.7-65.1,3631-72,3622.6-72z"/>
	</g>
</g>
<g id="XMLID_1_">
	<g>
		<path id="XMLID_3_" d="M2286.9,187.4c-0.2,7.2-2.1,14-4.9,20.6c-4.6,10.8-10.7,20.6-17.8,29.7c-3.5,4.6-7.3,9.1-11.1,13.6
			c-2.9,3.4-6.6,3.4-9.4,0c-10.2-11.4-19.3-23.8-26.2-37.5c-3.5-6.9-6.2-14-7.2-21.6c-1.4-12.3,2.3-23.2,11.1-32
			c7.9-7.9,17.8-11.6,29.1-11.1c18,0.9,33.4,14.9,35.8,32.6C2286.6,183.6,2286.7,185.4,2286.9,187.4z M2248.5,171.1
			c-8.4,0-15.2,6.7-15.2,15.1s6.9,15.2,15.1,15.1c8.4,0,15.1-6.7,15.1-15.1C2263.6,177.9,2256.9,171.1,2248.5,171.1z"/>
	</g>
</g>
</svg>
