<?xml version="1.0" encoding="utf-8"?>
<!-- Generator: Adobe Illustrator 19.0.0, SVG Export Plug-In . SVG Version: 6.00 Build 0)  -->
<svg version="1.1" id="Layer_1" xmlns="http://www.w3.org/2000/svg" xmlns:xlink="http://www.w3.org/1999/xlink" x="0px" y="0px"
	 viewBox="0 0 2980 1600" style="enable-background:new 0 0 2980 1600;" xml:space="preserve">
<style type="text/css">
	
		.st0{fill-rule:evenodd;clip-rule:evenodd;fill:none;stroke:#B0AFB5;stroke-linecap:round;stroke-linejoin:round;stroke-miterlimit:1;}
	.st1{fill-rule:evenodd;clip-rule:evenodd;fill:none;stroke:#B0AFB5;stroke-miterlimit:1;}
	.st2{fill-rule:evenodd;clip-rule:evenodd;fill:#B0AFB5;}
</style>
<g id="XMLID_10336_">
	<g id="XMLID_16602_">
		<polyline id="XMLID_16640_" class="st0" points="66.1,267 107.6,259 119.3,220.8 169.2,178 204,180.8 202.9,239.4 115.6,215.4 
			204,180.8 275.8,193.7 259.3,268 202.9,239.4 273.8,188.3 360,184.5 378.5,255.4 272.3,320.4 316.9,364.9 271.6,403.6 
			331.7,428.5 335.2,429.9 311.2,468.1 317.2,516 262.2,535.2 217.6,511.3 250.9,469.1 316.7,468.2 367.7,450.6 415.6,419.1 
			375.7,338.2 316.9,364.9 381.7,258 377.2,332.8 423.4,285.5 453.5,346.8 451.9,263.2 491.3,207.5 528.5,215.4 577.7,171.5 
			593.1,233.6 620.3,208.7 665,211.4 694.6,195.8 585.4,171.5 525.3,293.1 543.8,358.2 582.2,296.8 609.3,345.8 624.2,387.2 
			687.7,395.5 733.7,346.8 768.3,364.9 780.6,312.6 841.6,293.5 771.8,416.9 646.3,467.2 586.5,419.1 478.8,411 517.4,472.5 
			450.6,454.9 457.4,512.6 517.4,512.6 592,499.6 532.8,597 517.4,512.6 423.7,582.2 393.9,525.6 421.9,422 335.2,427.2 
			461.4,345.8 514.3,290 481.1,406.9 400.6,525.6 321.2,602.8 238.5,590.9 296.6,652.7 331.7,688.6 375.7,639.3 327.2,609.3 
			331.7,688.6 299.1,713.9 380.4,740.5 434.3,735.6 462.9,724.8 468.7,722.6 501.2,792.4 483.1,801 431,773.3 430.7,744.9 		"/>
		<polyline id="XMLID_16639_" class="st0" points="868.1,364.9 841.6,293.5 785.3,310.5 868.3,376.7 778.9,409.7 		"/>
		<polyline id="XMLID_16638_" class="st0" points="898.2,82.4 981.9,82.5 1019.5,95 1059.6,129.3 1105.4,144.8 1070.8,200.1 
			1024.6,229.8 1059.6,129.3 1133,79.6 1166.8,72.6 1232.5,93.2 1189.4,154.4 1105.4,144.8 1166.5,83.4 1189.4,154.4 		"/>
		<polyline id="XMLID_16637_" class="st0" points="374.4,335.2 453.2,342.6 481.1,411 416.9,418.1 450.6,454.9 367.7,450.6 
			316.7,514.9 393.9,527.8 453.2,512.6 421.9,582.2 325.1,599.1 		"/>
		<polyline id="XMLID_16636_" class="st0" points="217.6,511.3 238.5,590.9 263.7,534.7 321.2,602.8 296.8,649.6 		"/>
		<polyline id="XMLID_16635_" class="st0" points="687.7,395.5 577.2,421 588.8,496.5 646.3,472.5 514.3,468.1 589.1,503.9 
			533.3,595 421.9,582.2 375.7,639.3 316.7,514.9 250.9,472.5 271.6,403.6 271.6,319.4 257.1,269.6 378.5,253.9 272.3,191.2 
			364,183.5 441.9,190 		"/>
		<polyline id="XMLID_16634_" class="st1" points="380.4,254.4 453.2,259.1 522.2,288.5 528.5,217.9 		"/>
		<polyline id="XMLID_16633_" class="st1" points="568.5,888.4 560.3,947.3 568.2,1035.3 624,1042.5 623.2,1111.4 680.4,1070.2 
			645.3,1001.7 679,942 596.8,860.1 629.5,838.6 718.4,839.2 752.6,870.1 680.4,878.5 713.5,997.4 769.1,991 821.4,914.8 
			895.7,982.8 817.9,1001.7 763.6,1064 680.4,1070.2 674.1,1175.6 761.2,1166.7 828.7,1070.2 897,1082.1 938.3,1051.4 833.1,1063.5 
			843.8,1127 935.6,1166.4 850.9,1192.4 870.2,1257 817.6,1297.5 779,1250 720.6,1296.4 667.1,1250.9 686.6,1353.8 770,1395.8 
			702.2,1401.4 745.3,1498.5 772,1391.2 724,1302.8 818.7,1300.1 849.3,1194.2 761.7,1165.4 674.1,1247.9 674.1,1181.6 
			759.5,1070.2 715.2,1002.8 748.5,869 821.4,914.8 817.9,997.4 952.2,1050.7 976.1,1120.1 940.9,1159.3 874.4,1254.5 784.2,1244.4 
			780,1395.8 702.2,1399.9 686.6,1357.8 718.9,1299.9 665,1250.2 780,1244.4 761.2,1166.7 624,1120.1 563.9,1033.8 645.3,1001.7 
			570.6,885.3 595.3,852.5 678.6,877.5 773.4,997.4 826.3,1064.5 763.9,1071.3 850.9,1192.4 897,1086 979.9,1120.1 		"/>
		<polyline id="XMLID_16632_" class="st1" points="533.3,595 598.1,699.6 596.8,860.1 498.9,792.4 630.7,834.4 598.1,699.6 		"/>
		<polyline id="XMLID_16631_" class="st0" points="2565.8,1306.9 2559.3,1212 2651.7,1240.7 2686.2,1149.9 2761.4,1112.9 
			2783.9,1159.5 2844.2,1187.4 2868,1105 2894.4,1189.8 2878.6,1256.5 2876.5,1330.2 2814.4,1348.7 2773.3,1314 2739,1245.2 
			2668.5,1311 2564.9,1308.2 2651.6,1244.2 2783.9,1159.5 2878.6,1256.5 2738.7,1244.2 2783.9,1159.5 2814.6,1350.1 2878.6,1256.5 
			2773.3,1314 2742.8,1308.2 2653.3,1241.8 		"/>
		<polyline id="XMLID_16630_" class="st0" points="2561.4,1212.9 2688.4,1150.9 2779.9,1162.1 		"/>
		<g id="XMLID_16620_">
			<polyline id="XMLID_16629_" class="st0" points="2926.4,1037.5 2858.5,1007 2822.8,978.2 2644.4,978.2 2563.4,947.9 2600.7,915 
				2568.6,910.3 2563.4,947.9 			"/>
			<polyline id="XMLID_16628_" class="st0" points="2481.5,798 2433.1,878.5 2444.2,945.2 2460.1,976.5 2567,949.2 			"/>
			<polyline id="XMLID_16627_" class="st0" points="2538.8,619.6 2505.1,688.8 2454.3,731.6 2481.5,798 			"/>
			<polyline id="XMLID_16626_" class="st0" points="2509.7,555.8 2369.9,592.4 2416.7,687 2465.6,615.1 2543.1,622.8 2596.3,608.8 
				2636.9,531.4 2614.1,508.3 2607.1,473.6 2533.8,497.4 2508.5,418.2 2636.7,379.1 2524.6,327.6 2508.2,242.7 2586.8,258 			"/>
			<polyline id="XMLID_16625_" class="st0" points="2732,285.1 2792.6,229.4 2754.4,192.9 2701.3,207.6 2633.8,186.1 			"/>
			<polyline id="XMLID_16624_" class="st0" points="2488,795 2436.2,775.5 2416.7,687 2322.6,655.4 2258.4,670.8 2212.3,699.4 
				2187.5,751.7 2200.7,788.3 2201.3,790 2186.1,832.6 2159.2,782.4 2203.9,790 			"/>
			<polyline id="XMLID_16623_" class="st0" points="2140.9,739.1 2128.2,692.4 2187.7,601 2114.8,622.8 2042,627.5 2073.6,558.9 
				2150,505.4 2264.5,590.1 2258.4,670.8 2187.7,593.4 2223.3,706.1 2126.8,693.1 			"/>
			<line id="XMLID_16622_" class="st0" x1="2568.6" y1="910.3" x2="2460.1" y2="976.5"/>
			<line id="XMLID_16621_" class="st0" x1="2600.7" y1="915" x2="2822.3" y2="976.5"/>
		</g>
		<g id="XMLID_16614_">
			<polyline id="XMLID_16619_" class="st0" points="2633.6,192.9 2588.1,261.6 2524.6,327.6 2732.2,287.9 2784.3,323.1 
				2792.6,234.8 2698.1,208.6 2732.2,287.9 2632.3,384.9 2697.8,397 2608.5,464.7 2512.5,417.5 2481.5,490.7 2509.7,553.6 
				2533.8,620.9 2413.2,681.2 2260.5,583.4 2325.5,517.3 2247,493.9 2332.3,449.2 2390.9,413.4 2426.4,477.7 2374.8,592.4 
				2482.5,488.8 2411.2,315.4 2300.2,320.6 2223.6,408.1 2329.4,449.9 2300.3,324.3 2227.3,247.6 2267.2,193.9 2329.4,187.1 
				2405.3,218.9 2478.6,181.4 2511.4,243.6 2413,314.6 2390.9,413.4 2326,517.2 2373.6,591.7 2322.6,655.4 			"/>
			<polyline id="XMLID_16618_" class="st0" points="2245.3,486.1 2147.6,499 2186.1,597.9 2073.6,558.9 2112.9,620.9 2125.2,692.4 
				2046.6,625.9 1993.6,536.4 2041.2,506.9 2073.6,431.3 2042,407.9 1990.7,412.2 2043.6,320 2147.3,407.9 2181.7,342.1 2105.8,267 
				2226.1,251.1 2223.3,413.5 2141.1,501 2079.1,424.6 2151.5,407.9 2102.4,274.9 2092.6,197.7 2147.3,152.7 2081.7,144.8 
				1987.9,179.4 1935.6,267 1844.9,234.8 1871,180.4 1828.5,133.9 1762.6,220 1809,205.2 1832.2,327.9 1838.3,397.4 1717.9,402.6 
				1725.4,310.5 1838.5,327.9 1937.6,262.8 			"/>
			<polyline id="XMLID_16617_" class="st0" points="1677.4,630.6 1793,645.7 1853.7,640 1906.4,712.7 1852.5,763.8 1762.3,744.3 
				1687,698.3 1676.2,630.8 			"/>
			<polyline id="XMLID_16616_" class="st0" points="2004.7,310.5 1937.6,262.8 1981.6,418.7 1921.1,492.4 1841.8,401 1788.3,493.9 
				1844.9,569.8 1969.7,597 1993.6,536.4 1926.1,498.5 1800.3,493.9 1715.4,493.9 			"/>
			<polyline id="XMLID_16615_" class="st0" points="1599.4,594 1508.7,601 1563.2,663.1 1494.8,739.8 1415.7,683.9 1429.4,589.3 
				1336.1,581.6 1255.6,638.7 1329.1,680.1 1368.3,637.1 1345.9,762.6 1231.5,700.7 1225.8,733.3 1242.3,781.3 1278.7,841.8 
				1359.6,848.3 1435.8,815.3 1345.9,762.6 1415.7,683.9 1435.8,815.3 1533.6,816 1608,758.6 1563.2,663.1 1677.4,630.6 
				1852.5,763.8 1863.8,858.7 1816.4,919.4 1744.5,904.4 1710.9,856.9 1773.5,820.2 1815.7,919.6 1781.7,971.2 1717.9,1015.9 
				1627.9,1018.4 1685,916.4 1617.9,929.4 1595.7,877.1 1664.5,812.2 1762.3,744.3 1773.5,820.2 1744.5,905.1 1685.2,915.7 			"/>
		</g>
		<polyline id="XMLID_16613_" class="st0" points="1588.3,90.5 1562.5,105.4 1560.5,195.4 1518.5,242.7 1465.7,251.3 1517.5,318.1 
			1535,389.3 1475.1,422.4 1456,365 1383.1,411.6 1370.2,476.6 1323.3,484 1383.1,411.6 1475.1,422.4 1517.5,318.1 1620.4,313.6 
			1644.9,375.9 1635.6,443 1569.1,447.7 1622,309.4 1664.3,200.1 1560.5,195.4 1614.8,312.7 1728.7,310.5 1664.3,200.1 1764.9,220 
			1728.7,310.5 1648.8,374.6 1717.9,402.6 1832.2,327.9 1990.7,412.2 1838.3,397.4 1714.3,492.4 1791.8,644.6 1845.5,570.8 
			1853.7,642.3 1969.7,597 1901.9,712.3 2042,627.5 1969.7,597 1921.1,492.4 1847,569.8 		"/>
		<g id="XMLID_16609_">
			<polyline id="XMLID_16612_" class="st0" points="1987.9,413.5 2043.3,501.2 2073.6,558.9 1993.6,536.4 1984.8,410.7 
				2004.7,310.5 2041.2,320.6 2105.8,267 1993.2,180.4 1868.4,179.4 1806.5,205.2 1847.4,232.7 1988.2,175.4 2087.3,195.6 
				2230.2,248.1 2147.3,152.7 2243.2,160.7 2262.7,187.1 2291.7,160.7 2332.3,183.1 2300,320.6 2178.4,342.1 2230.2,248.1 
				2405.3,216 2408.2,315.4 2478.6,181.4 2528,181.4 2586.8,258 2632.3,380.5 2702.2,204.1 2633.4,186.9 2532.2,180.4 2508.2,242.7 
							"/>
			<path id="XMLID_16611_" class="st0" d="M2004.7,310.5"/>
			<polyline id="XMLID_16610_" class="st0" points="2417.1,320 2522.4,331.1 2512.5,414.8 2390.9,413.4 2304.1,326.9 2402.7,219.8 
				2509.7,250.1 			"/>
		</g>
		<polyline id="XMLID_16608_" class="st0" points="1429.4,589.3 1505.5,597.9 1494.6,737 1529.5,813.3 1482.9,900.5 1516.4,956.4 
			1595.7,877.1 1710.9,856.9 1664.5,812.2 1607.8,763 1687,698.3 1664.5,812.2 1681.5,914.5 1717.9,1015.9 1792.1,1061.9 
			1789,1128.8 1730.3,1092.8 1717.9,1015.9 1624.4,1110.9 1563.2,1051 1629.5,1018.4 1617.9,929.4 1525.9,1015.9 1520,1102.2 
			1525.9,1137.9 1610.8,1176.5 1624.4,1110.9 1706.8,1178.4 1685.1,1259.8 1610.3,1280 1565.8,1333.1 1559.9,1203.5 1610.8,1176.5 
			1706.8,1178.4 1730.3,1092.8 1629.5,1017 1516.4,956.4 1525.9,1015.9 1563.2,1051 1525.9,1137.9 1624.4,1110.9 		"/>
		<polyline id="XMLID_16607_" class="st0" points="2596.3,608.8 2565.8,566.6 2508.1,553.6 2614.1,508.3 2534.9,501.2 2478.9,490.2 
			2425.6,479.4 2322.6,519.1 2329.4,449.9 		"/>
		<polyline id="XMLID_16606_" class="st0" points="2465.6,612.9 2369.9,592.4 2264.5,579.3 2245,490.2 2223.3,413.5 2151.5,407.9 
			2145.9,501 2043.3,501.2 1921.1,492.4 		"/>
		<polyline id="XMLID_16605_" class="st0" points="1253.4,637.1 1231.5,698.3 1329.1,680.1 1345.9,758.9 1242.3,781.3 		"/>
		<polyline id="XMLID_16604_" class="st0" points="491.3,206.4 441.9,190 378.5,253.9 423.4,285.5 		"/>
		<polyline id="XMLID_16603_" class="st0" points="2710.8,555.8 2763.5,529 2761.5,469.9 2710.8,555.8 		"/>
	</g>
	<g id="XMLID_10391_">
		<g id="XMLID_16599_">
			<circle id="XMLID_644_" class="st2" cx="66.1" cy="267" r="20.5"/>
		</g>
		<g id="XMLID_16596_">
			<circle id="XMLID_642_" class="st2" cx="204" cy="180.8" r="16.4"/>
		</g>
		<g id="XMLID_16593_">
			<circle id="XMLID_640_" class="st2" cx="363.1" cy="184.9" r="18.9"/>
		</g>
		<g id="XMLID_16590_">
			<circle id="XMLID_638_" class="st2" cx="249.2" cy="469.3" r="17"/>
		</g>
		<g id="XMLID_16587_">
			<circle id="XMLID_636_" class="st2" cx="374.4" cy="335.2" r="17"/>
		</g>
		<g id="XMLID_16584_">
			<circle id="XMLID_634_" class="st2" cx="588.8" cy="236.1" r="16.4"/>
		</g>
		<g id="XMLID_16581_">
			<circle id="XMLID_632_" class="st2" cx="1105.4" cy="144.8" r="18.9"/>
		</g>
		<g id="XMLID_16578_">
			<circle id="XMLID_630_" class="st2" cx="580.9" cy="173.9" r="18.9"/>
		</g>
		<g id="XMLID_16573_">
			<circle id="XMLID_628_" class="st2" cx="679" cy="877.2" r="18.9"/>
		</g>
		<g id="XMLID_16564_">
			<circle id="XMLID_626_" class="st2" cx="1610.3" cy="1280" r="18.9"/>
		</g>
		<g id="XMLID_16561_">
			<circle id="XMLID_624_" class="st2" cx="1345.9" cy="758.9" r="18.9"/>
		</g>
		<g id="XMLID_16558_">
			<circle id="XMLID_622_" class="st2" cx="1664.5" cy="812.2" r="20.5"/>
		</g>
		<g id="XMLID_16555_">
			<circle id="XMLID_620_" class="st2" cx="1533.6" cy="816" r="18.9"/>
		</g>
		<g id="XMLID_16552_">
			<circle id="XMLID_618_" class="st2" cx="1242.3" cy="781.3" r="18.9"/>
		</g>
		<g id="XMLID_16549_">
			<circle id="XMLID_616_" class="st2" cx="1435.8" cy="815.3" r="18.9"/>
		</g>
		<g id="XMLID_16546_">
			<circle id="XMLID_614_" class="st2" cx="2565.8" cy="1306.9" r="9.4"/>
		</g>
		<g id="XMLID_16543_">
			<circle id="XMLID_612_" class="st2" cx="2814.4" cy="1348.7" r="9.4"/>
		</g>
		<g id="XMLID_16540_">
			<circle id="XMLID_610_" class="st2" cx="2858.5" cy="1006.4" r="18.9"/>
		</g>
		<g id="XMLID_16537_">
			<circle id="XMLID_608_" class="st2" cx="2686.2" cy="1149.9" r="18.9"/>
		</g>
		<g id="XMLID_16534_">
			<circle id="XMLID_606_" class="st2" cx="2565.8" cy="948.2" r="18.9"/>
		</g>
		<g id="XMLID_16531_">
			<circle id="XMLID_604_" class="st2" cx="2481.5" cy="798" r="18.9"/>
		</g>
		<g id="XMLID_16528_">
			<circle id="XMLID_602_" class="st2" cx="2147.3" cy="503" r="18.9"/>
		</g>
		<g id="XMLID_16525_">
			<circle id="XMLID_600_" class="st2" cx="2216.2" cy="698.3" r="18.9"/>
		</g>
		<g id="XMLID_16522_">
			<circle id="XMLID_598_" class="st2" cx="2230.2" cy="248.1" r="18.9"/>
		</g>
		<g id="XMLID_16519_">
			<circle id="XMLID_596_" class="st2" cx="2701.3" cy="207.6" r="18.9"/>
		</g>
		<g id="XMLID_16516_">
			<circle id="XMLID_594_" class="st2" cx="2402.7" cy="216" r="18.9"/>
		</g>
		<g id="XMLID_16513_">
			<circle id="XMLID_592_" class="st2" cx="2788.5" cy="227.6" r="18.9"/>
		</g>
		<g id="XMLID_16510_">
			<circle id="XMLID_590_" class="st2" cx="1560.5" cy="192.9" r="18.9"/>
		</g>
		<g id="XMLID_16507_">
			<circle id="XMLID_588_" class="st2" cx="2608.5" cy="464.7" r="18.9"/>
		</g>
		<g id="XMLID_16504_">
			<circle id="XMLID_586_" class="st2" cx="1853.3" cy="1192.5" r="18.9"/>
		</g>
		<g id="XMLID_16501_">
			<circle id="XMLID_584_" class="st2" cx="1029.1" cy="228.3" r="18.9"/>
		</g>
		<g id="XMLID_16498_">
			<circle id="XMLID_582_" class="st2" cx="1323.3" cy="484" r="18.9"/>
		</g>
		<g id="XMLID_16495_">
			<circle id="XMLID_580_" class="st2" cx="1465.7" cy="251.3" r="17.3"/>
		</g>
		<g id="XMLID_16492_">
			<circle id="XMLID_578_" class="st2" cx="1518.5" cy="242.7" r="18.5"/>
		</g>
		<g id="XMLID_16489_">
			<circle id="XMLID_576_" class="st2" cx="1514.1" cy="320.6" r="18.9"/>
		</g>
		<g id="XMLID_16486_">
			<circle id="XMLID_574_" class="st2" cx="1633.9" cy="441.7" r="18.9"/>
		</g>
		<g id="XMLID_16483_">
			<circle id="XMLID_572_" class="st2" cx="1937.2" cy="261.6" r="18.9"/>
		</g>
		<g id="XMLID_16480_">
			<circle id="XMLID_570_" class="st2" cx="2246.8" cy="490.7" r="18.9"/>
		</g>
		<g id="XMLID_16477_">
			<circle id="XMLID_568_" class="st2" cx="2524.6" cy="327.6" r="18.9"/>
		</g>
		<g id="XMLID_16474_">
			<circle id="XMLID_566_" class="st2" cx="1664.3" cy="200.1" r="18.9"/>
		</g>
		<g id="XMLID_16471_">
			<circle id="XMLID_564_" class="st2" cx="1868.8" cy="1143.9" r="9.4"/>
		</g>
		<g id="XMLID_16468_">
			<circle id="XMLID_562_" class="st2" cx="2644.4" cy="978.2" r="9.4"/>
		</g>
		<g id="XMLID_16465_">
			<circle id="XMLID_560_" class="st2" cx="2460.1" cy="976.5" r="9.4"/>
		</g>
		<g id="XMLID_16462_">
			<circle id="XMLID_558_" class="st2" cx="2561.4" cy="1212.9" r="9.4"/>
		</g>
		<g id="XMLID_16459_">
			<circle id="XMLID_556_" class="st2" cx="2844.2" cy="1187.4" r="9.4"/>
		</g>
		<g id="XMLID_16456_">
			<circle id="XMLID_554_" class="st2" cx="2651.7" cy="1240.7" r="18.9"/>
		</g>
		<g id="XMLID_16453_">
			<circle id="XMLID_552_" class="st2" cx="2413.2" cy="681.2" r="18.9"/>
		</g>
		<g id="XMLID_16450_">
			<circle id="XMLID_550_" class="st2" cx="2505.1" cy="688.8" r="17.3"/>
		</g>
		<g id="XMLID_16447_">
			<circle id="XMLID_548_" class="st2" cx="2186.1" cy="832.6" r="9.4"/>
		</g>
		<g id="XMLID_16444_">
			<circle id="XMLID_546_" class="st2" cx="1370.2" cy="476.6" r="15.2"/>
		</g>
		<g id="XMLID_16441_">
			<circle id="XMLID_544_" class="st2" cx="1495.2" cy="739.1" r="18.9"/>
		</g>
		<g id="XMLID_16438_">
			<circle id="XMLID_542_" class="st2" cx="1844.9" cy="569.8" r="10.8"/>
		</g>
		<g id="XMLID_16435_">
			<circle id="XMLID_540_" class="st2" cx="1789" cy="1128.8" r="9.4"/>
		</g>
		<g id="XMLID_16432_">
			<circle id="XMLID_538_" class="st2" cx="1609.5" cy="1178.4" r="9.4"/>
		</g>
		<g id="XMLID_16429_">
			<circle id="XMLID_536_" class="st2" cx="1482.7" cy="898.4" r="9.4"/>
		</g>
		<g id="XMLID_16426_">
			<circle id="XMLID_534_" class="st2" cx="1687" cy="698.3" r="10.8"/>
		</g>
		<g id="XMLID_16423_">
			<circle id="XMLID_532_" class="st2" cx="1773.5" cy="820.2" r="9.4"/>
		</g>
		<g id="XMLID_16420_">
			<circle id="XMLID_530_" class="st2" cx="1744.5" cy="904.4" r="8.7"/>
		</g>
		<g id="XMLID_16417_">
			<circle id="XMLID_528_" class="st2" cx="1329.1" cy="680.1" r="8.7"/>
		</g>
		<g id="XMLID_16414_">
			<circle id="XMLID_526_" class="st2" cx="1225.8" cy="733.3" r="8.7"/>
		</g>
		<g id="XMLID_16411_">
			<circle id="XMLID_524_" class="st2" cx="1368.3" cy="637.1" r="9.4"/>
		</g>
		<g id="XMLID_16408_">
			<circle id="XMLID_522_" class="st2" cx="1231.5" cy="700.7" r="15.2"/>
		</g>
		<g id="XMLID_16405_">
			<circle id="XMLID_520_" class="st2" cx="1415.7" cy="683.9" r="18.9"/>
		</g>
		<g id="XMLID_16402_">
			<circle id="XMLID_518_" class="st2" cx="1710.9" cy="856.9" r="8.7"/>
		</g>
		<g id="XMLID_16399_">
			<circle id="XMLID_516_" class="st2" cx="1762.3" cy="744.3" r="10.8"/>
		</g>
		<g id="XMLID_16396_">
			<circle id="XMLID_514_" class="st2" cx="1792.1" cy="1061.9" r="9.4"/>
		</g>
		<g id="XMLID_16393_">
			<circle id="XMLID_512_" class="st2" cx="1781.3" cy="970.2" r="9.4"/>
		</g>
		<g id="XMLID_16390_">
			<circle id="XMLID_510_" class="st2" cx="1528" cy="1016" r="13"/>
		</g>
		<g id="XMLID_16387_">
			<circle id="XMLID_508_" class="st2" cx="1624.4" cy="1110.9" r="20.5"/>
		</g>
		<g id="XMLID_16384_">
			<circle id="XMLID_506_" class="st2" cx="1793" cy="645.7" r="19.5"/>
		</g>
		<g id="XMLID_16379_">
			<circle id="XMLID_504_" class="st2" cx="1563.2" cy="663.1" r="18.9"/>
		</g>
		<g id="XMLID_16370_">
			<circle id="XMLID_502_" class="st2" cx="1681.5" cy="914.5" r="18.9"/>
		</g>
		<g id="XMLID_16367_">
			<circle id="XMLID_500_" class="st2" cx="1852.5" cy="763.8" r="18.9"/>
		</g>
		<g id="XMLID_16364_">
			<circle id="XMLID_498_" class="st2" cx="1921.1" cy="492.4" r="18.9"/>
		</g>
		<g id="XMLID_16361_">
			<circle id="XMLID_496_" class="st2" cx="2081.7" cy="144.8" r="9.4"/>
		</g>
		<g id="XMLID_16358_">
			<circle id="XMLID_494_" class="st2" cx="2062.8" cy="82.4" r="10.8"/>
		</g>
		<g id="XMLID_16355_">
			<circle id="XMLID_492_" class="st2" cx="1824.9" cy="136.3" r="9.4"/>
		</g>
		<g id="XMLID_16352_">
			<circle id="XMLID_490_" class="st2" cx="1588.3" cy="90.5" r="15.2"/>
		</g>
		<g id="XMLID_16349_">
			<circle id="XMLID_488_" class="st2" cx="1832.2" cy="327.9" r="9.4"/>
		</g>
		<g id="XMLID_16346_">
			<circle id="XMLID_486_" class="st2" cx="1838.3" cy="397.4" r="18.9"/>
		</g>
		<g id="XMLID_16343_">
			<circle id="XMLID_484_" class="st2" cx="1562.5" cy="105.4" r="10.8"/>
		</g>
		<g id="XMLID_16340_">
			<circle id="XMLID_482_" class="st2" cx="1806.5" cy="205.2" r="10.8"/>
		</g>
		<g id="XMLID_16337_">
			<circle id="XMLID_480_" class="st2" cx="2433.1" cy="878.5" r="9.4"/>
		</g>
		<g id="XMLID_16334_">
			<circle id="XMLID_478_" class="st2" cx="2140.9" cy="739.1" r="9.4"/>
		</g>
		<g id="XMLID_16331_">
			<circle id="XMLID_476_" class="st2" cx="2042" cy="627.5" r="18.9"/>
		</g>
		<g id="XMLID_16328_">
			<circle id="XMLID_474_" class="st2" cx="2004.7" cy="310.5" r="10.8"/>
		</g>
		<g id="XMLID_16325_">
			<circle id="XMLID_472_" class="st2" cx="2042" cy="407.9" r="9.4"/>
		</g>
		<g id="XMLID_16322_">
			<circle id="XMLID_470_" class="st2" cx="1993.6" cy="536.4" r="9.4"/>
		</g>
		<g id="XMLID_16319_">
			<circle id="XMLID_468_" class="st2" cx="2565.8" cy="566.6" r="9.4"/>
		</g>
		<g id="XMLID_16316_">
			<circle id="XMLID_466_" class="st2" cx="2761.1" cy="469.9" r="9.4"/>
		</g>
		<g id="XMLID_16313_">
			<circle id="XMLID_464_" class="st2" cx="2201.3" cy="790" r="9.4"/>
		</g>
		<g id="XMLID_16310_">
			<circle id="XMLID_462_" class="st2" cx="1520" cy="1102.2" r="8.7"/>
		</g>
		<g id="XMLID_16307_">
			<circle id="XMLID_460_" class="st2" cx="1617.9" cy="929.4" r="9.4"/>
		</g>
		<g id="XMLID_16304_">
			<circle id="XMLID_458_" class="st2" cx="1717.9" cy="1015.9" r="9.4"/>
		</g>
		<g id="XMLID_16301_">
			<circle id="XMLID_456_" class="st2" cx="1595.7" cy="877.1" r="9.4"/>
		</g>
		<g id="XMLID_16298_">
			<circle id="XMLID_454_" class="st2" cx="1359.6" cy="848.3" r="18.9"/>
		</g>
		<g id="XMLID_16295_">
			<circle id="XMLID_452_" class="st2" cx="2258.4" cy="670.8" r="9.4"/>
		</g>
		<g id="XMLID_16292_">
			<circle id="XMLID_450_" class="st2" cx="2426.4" cy="477.7" r="9.4"/>
		</g>
		<g id="XMLID_16289_">
			<circle id="XMLID_448_" class="st2" cx="2329.8" cy="448.1" r="18.9"/>
		</g>
		<g id="XMLID_16286_">
			<circle id="XMLID_446_" class="st2" cx="2262.7" cy="582.3" r="18.9"/>
		</g>
		<g id="XMLID_16283_">
			<circle id="XMLID_444_" class="st2" cx="2411.2" cy="315.4" r="9.4"/>
		</g>
		<g id="XMLID_16280_">
			<circle id="XMLID_442_" class="st2" cx="2390.9" cy="413.4" r="18.9"/>
		</g>
		<g id="XMLID_16277_">
			<circle id="XMLID_440_" class="st2" cx="2181.7" cy="342.1" r="9.4"/>
		</g>
		<g id="XMLID_16274_">
			<circle id="XMLID_438_" class="st2" cx="2223.3" cy="410.6" r="9.4"/>
		</g>
		<g id="XMLID_16271_">
			<circle id="XMLID_436_" class="st2" cx="2073.6" cy="558.9" r="10.8"/>
		</g>
		<g id="XMLID_16268_">
			<circle id="XMLID_434_" class="st2" cx="2187.5" cy="751.7" r="9.4"/>
		</g>
		<g id="XMLID_16265_">
			<circle id="XMLID_432_" class="st2" cx="2162" cy="783.4" r="9.4"/>
		</g>
		<g id="XMLID_16262_">
			<circle id="XMLID_430_" class="st2" cx="2073.6" cy="425.7" r="18.9"/>
		</g>
		<g id="XMLID_16259_">
			<circle id="XMLID_428_" class="st2" cx="2186.1" cy="597.9" r="21.7"/>
		</g>
		<g id="XMLID_16256_">
			<circle id="XMLID_426_" class="st2" cx="1868.4" cy="179.4" r="10.8"/>
		</g>
		<g id="XMLID_16253_">
			<circle id="XMLID_424_" class="st2" cx="1569.1" cy="447.7" r="10.8"/>
		</g>
		<g id="XMLID_16250_">
			<circle id="XMLID_422_" class="st2" cx="1565.5" cy="1332.1" r="10.8"/>
		</g>
		<g id="XMLID_16247_">
			<circle id="XMLID_420_" class="st2" cx="1685.1" cy="1259.8" r="18.9"/>
		</g>
		<g id="XMLID_16244_">
			<circle id="XMLID_418_" class="st2" cx="1563.2" cy="1051" r="20.5"/>
		</g>
		<g id="XMLID_16241_">
			<circle id="XMLID_416_" class="st2" cx="1528.2" cy="1136.2" r="18.9"/>
		</g>
		<g id="XMLID_16238_">
			<circle id="XMLID_414_" class="st2" cx="1816.4" cy="919.4" r="19.5"/>
		</g>
		<g id="XMLID_16235_">
			<circle id="XMLID_412_" class="st2" cx="1629.5" cy="1018.4" r="19.5"/>
		</g>
		<g id="XMLID_16232_">
			<circle id="XMLID_410_" class="st2" cx="1701.8" cy="1175.5" r="18.9"/>
		</g>
		<g id="XMLID_16229_">
			<circle id="XMLID_408_" class="st2" cx="1559.7" cy="1206.5" r="18.9"/>
		</g>
		<g id="XMLID_16226_">
			<circle id="XMLID_406_" class="st2" cx="2114.8" cy="622.8" r="10.8"/>
		</g>
		<g id="XMLID_16223_">
			<circle id="XMLID_404_" class="st2" cx="2465.6" cy="612.9" r="9.4"/>
		</g>
		<g id="XMLID_16220_">
			<circle id="XMLID_402_" class="st2" cx="2814.4" cy="267" r="9.4"/>
		</g>
		<g id="XMLID_16217_">
			<circle id="XMLID_400_" class="st2" cx="2754.4" cy="192.9" r="9.4"/>
		</g>
		<g id="XMLID_16214_">
			<circle id="XMLID_398_" class="st2" cx="2528" cy="181.4" r="9.4"/>
		</g>
		<g id="XMLID_16211_">
			<circle id="XMLID_396_" class="st2" cx="2588.1" cy="261.6" r="18.9"/>
		</g>
		<g id="XMLID_16208_">
			<circle id="XMLID_394_" class="st2" cx="2633.6" cy="192.9" r="18.9"/>
		</g>
		<g id="XMLID_16205_">
			<circle id="XMLID_392_" class="st2" cx="2332" cy="186.1" r="20.5"/>
		</g>
		<g id="XMLID_16202_">
			<circle id="XMLID_390_" class="st2" cx="2512.3" cy="246.3" r="18.9"/>
		</g>
		<g id="XMLID_16199_">
			<circle id="XMLID_388_" class="st2" cx="2614.1" cy="508.3" r="9.4"/>
		</g>
		<g id="XMLID_16196_">
			<circle id="XMLID_386_" class="st2" cx="2651.7" cy="787.9" r="9.4"/>
		</g>
		<g id="XMLID_16193_">
			<circle id="XMLID_384_" class="st2" cx="2268.7" cy="192.9" r="18.9"/>
		</g>
		<g id="XMLID_16190_">
			<circle id="XMLID_382_" class="st2" cx="2596.3" cy="608.8" r="9.4"/>
		</g>
		<g id="XMLID_16185_">
			<circle id="XMLID_380_" class="st2" cx="2481.5" cy="490.7" r="9.4"/>
		</g>
		<g id="XMLID_16176_">
			<circle id="XMLID_378_" class="st2" cx="2291.7" cy="160.7" r="9.4"/>
		</g>
		<g id="XMLID_16173_">
			<circle id="XMLID_376_" class="st2" cx="2243.2" cy="160.7" r="9.4"/>
		</g>
		<g id="XMLID_16170_">
			<circle id="XMLID_374_" class="st2" cx="2636.7" cy="529.2" r="9.4"/>
		</g>
		<g id="XMLID_16167_">
			<circle id="XMLID_372_" class="st2" cx="2671.2" cy="806.6" r="9.4"/>
		</g>
		<g id="XMLID_16164_">
			<circle id="XMLID_370_" class="st2" cx="2711.5" cy="555.8" r="18.9"/>
		</g>
		<g id="XMLID_16161_">
			<circle id="XMLID_368_" class="st2" cx="2478.6" cy="181.4" r="18.9"/>
		</g>
		<g id="XMLID_16158_">
			<circle id="XMLID_366_" class="st2" cx="2325.5" cy="517.3" r="9.4"/>
		</g>
		<g id="XMLID_16155_">
			<circle id="XMLID_364_" class="st2" cx="2322.6" cy="655.4" r="19.5"/>
		</g>
		<g id="XMLID_16152_">
			<circle id="XMLID_362_" class="st2" cx="2128.2" cy="692.4" r="18.9"/>
		</g>
		<g id="XMLID_16149_">
			<circle id="XMLID_360_" class="st2" cx="2568.6" cy="910.3" r="9.4"/>
		</g>
		<g id="XMLID_16146_">
			<circle id="XMLID_358_" class="st2" cx="2374.8" cy="592.4" r="18.9"/>
		</g>
		<g id="XMLID_16143_">
			<circle id="XMLID_356_" class="st2" cx="2512.5" cy="417.5" r="18.9"/>
		</g>
		<g id="XMLID_16140_">
			<circle id="XMLID_354_" class="st2" cx="2534.9" cy="501.2" r="18.9"/>
		</g>
		<g id="XMLID_16137_">
			<circle id="XMLID_352_" class="st2" cx="2454.3" cy="731.6" r="9.4"/>
		</g>
		<g id="XMLID_16134_">
			<circle id="XMLID_350_" class="st2" cx="2763.5" cy="529.3" r="9.4"/>
		</g>
		<g id="XMLID_16131_">
			<circle id="XMLID_348_" class="st2" cx="2444.2" cy="945.2" r="9.4"/>
		</g>
		<g id="XMLID_16128_">
			<circle id="XMLID_346_" class="st2" cx="2697.8" cy="397" r="9.4"/>
		</g>
		<g id="XMLID_16125_">
			<circle id="XMLID_344_" class="st2" cx="2784.3" cy="323.1" r="18.9"/>
		</g>
		<g id="XMLID_16122_">
			<circle id="XMLID_342_" class="st2" cx="2732" cy="285.1" r="18.9"/>
		</g>
		<g id="XMLID_16119_">
			<circle id="XMLID_340_" class="st2" cx="2509.7" cy="555.8" r="15.2"/>
		</g>
		<g id="XMLID_16116_">
			<circle id="XMLID_338_" class="st2" cx="1717.9" cy="402.6" r="9.4"/>
		</g>
		<g id="XMLID_16113_">
			<circle id="XMLID_336_" class="st2" cx="2041.2" cy="320.6" r="19.5"/>
		</g>
		<g id="XMLID_16110_">
			<circle id="XMLID_334_" class="st2" cx="2090.6" cy="196.6" r="15.2"/>
		</g>
		<g id="XMLID_16107_">
			<circle id="XMLID_332_" class="st2" cx="1725.4" cy="310.5" r="18.9"/>
		</g>
		<g id="XMLID_16104_">
			<circle id="XMLID_330_" class="st2" cx="1644.9" cy="375.9" r="13"/>
		</g>
		<g id="XMLID_16101_">
			<circle id="XMLID_328_" class="st2" cx="2105.8" cy="267" r="18.9"/>
		</g>
		<g id="XMLID_16098_">
			<circle id="XMLID_326_" class="st2" cx="1792.1" cy="495.3" r="18.9"/>
		</g>
		<g id="XMLID_16095_">
			<circle id="XMLID_324_" class="st2" cx="1535" cy="389.3" r="18.9"/>
		</g>
		<g id="XMLID_16092_">
			<circle id="XMLID_322_" class="st2" cx="1607.8" cy="763" r="18.9"/>
		</g>
		<g id="XMLID_16089_">
			<circle id="XMLID_320_" class="st2" cx="1600" cy="596" r="19.5"/>
		</g>
		<g id="XMLID_16086_">
			<circle id="XMLID_318_" class="st2" cx="1255.6" cy="638.7" r="19.5"/>
		</g>
		<g id="XMLID_16083_">
			<circle id="XMLID_316_" class="st2" cx="1505.5" cy="597.9" r="19.5"/>
		</g>
		<g id="XMLID_16080_">
			<circle id="XMLID_314_" class="st2" cx="1969.7" cy="597" r="19.5"/>
		</g>
		<g id="XMLID_16077_">
			<circle id="XMLID_312_" class="st2" cx="2043.3" cy="501.2" r="19.5"/>
		</g>
		<g id="XMLID_16074_">
			<circle id="XMLID_310_" class="st2" cx="1901.9" cy="712.3" r="18.9"/>
		</g>
		<g id="XMLID_16071_">
			<circle id="XMLID_308_" class="st2" cx="1677.4" cy="630.6" r="18.9"/>
		</g>
		<g id="XMLID_16068_">
			<circle id="XMLID_306_" class="st2" cx="1862.1" cy="857.6" r="18.9"/>
		</g>
		<g id="XMLID_16065_">
			<circle id="XMLID_304_" class="st2" cx="1987.9" cy="413.5" r="18.9"/>
		</g>
		<g id="XMLID_16062_">
			<circle id="XMLID_302_" class="st2" cx="1853.7" cy="640" r="18.9"/>
		</g>
		<g id="XMLID_16059_">
			<circle id="XMLID_300_" class="st2" cx="1851.8" cy="234" r="18.9"/>
		</g>
		<g id="XMLID_16056_">
			<circle id="XMLID_298_" class="st2" cx="1619.2" cy="315.4" r="18.9"/>
		</g>
		<g id="XMLID_16053_">
			<circle id="XMLID_296_" class="st2" cx="1714.3" cy="492.4" r="18.9"/>
		</g>
		<g id="XMLID_16050_">
			<circle id="XMLID_294_" class="st2" cx="1762.6" cy="220" r="18.9"/>
		</g>
		<g id="XMLID_16047_">
			<circle id="XMLID_292_" class="st2" cx="1987.9" cy="179.4" r="18.9"/>
		</g>
		<g id="XMLID_16044_">
			<circle id="XMLID_290_" class="st2" cx="1456" cy="365" r="15.2"/>
		</g>
		<g id="XMLID_16041_">
			<circle id="XMLID_288_" class="st2" cx="1475.1" cy="422.4" r="18.9"/>
		</g>
		<g id="XMLID_16038_">
			<circle id="XMLID_286_" class="st2" cx="1370.2" cy="347.8" r="18.9"/>
		</g>
		<g id="XMLID_16035_">
			<circle id="XMLID_284_" class="st2" cx="1383.1" cy="410.6" r="15.2"/>
		</g>
		<g id="XMLID_16032_">
			<circle id="XMLID_282_" class="st2" cx="1338.3" cy="584.9" r="18.9"/>
		</g>
		<g id="XMLID_16029_">
			<circle id="XMLID_280_" class="st2" cx="1278.7" cy="841.8" r="18.9"/>
		</g>
		<g id="XMLID_16026_">
			<circle id="XMLID_278_" class="st2" cx="1518.5" cy="960.1" r="18.9"/>
		</g>
		<g id="XMLID_16023_">
			<circle id="XMLID_276_" class="st2" cx="2598.2" cy="917.3" r="9.4"/>
		</g>
		<g id="XMLID_16020_">
			<circle id="XMLID_274_" class="st2" cx="2738.7" cy="1244.2" r="15.2"/>
		</g>
		<g id="XMLID_16017_">
			<circle id="XMLID_272_" class="st2" cx="2773.3" cy="1314" r="9.4"/>
		</g>
		<g id="XMLID_16014_">
			<circle id="XMLID_270_" class="st2" cx="2742.8" cy="1308.2" r="10.8"/>
		</g>
		<g id="XMLID_16011_">
			<circle id="XMLID_268_" class="st2" cx="2668.5" cy="1311" r="9.4"/>
		</g>
		<g id="XMLID_16008_">
			<circle id="XMLID_266_" class="st2" cx="2926.4" cy="1037.5" r="10.8"/>
		</g>
		<g id="XMLID_16005_">
			<circle id="XMLID_264_" class="st2" cx="2783.9" cy="1159.5" r="18.9"/>
		</g>
		<g id="XMLID_16002_">
			<circle id="XMLID_262_" class="st2" cx="2822.3" cy="976.5" r="9.4"/>
		</g>
		<g id="XMLID_15999_">
			<circle id="XMLID_260_" class="st2" cx="2868" cy="1105" r="9.4"/>
		</g>
		<g id="XMLID_15996_">
			<circle id="XMLID_258_" class="st2" cx="2761.4" cy="1112.9" r="9.4"/>
		</g>
		<g id="XMLID_15991_">
			<circle id="XMLID_256_" class="st2" cx="2894.4" cy="1189.8" r="15.2"/>
		</g>
		<g id="XMLID_15982_">
			<circle id="XMLID_254_" class="st2" cx="2874.9" cy="1330.6" r="18.9"/>
		</g>
		<g id="XMLID_15979_">
			<circle id="XMLID_252_" class="st2" cx="2300" cy="320.6" r="18.9"/>
		</g>
		<g id="XMLID_15976_">
			<circle id="XMLID_250_" class="st2" cx="2533.8" cy="620.9" r="18.9"/>
		</g>
		<g id="XMLID_15973_">
			<circle id="XMLID_248_" class="st2" cx="2876.5" cy="1257" r="18.9"/>
		</g>
		<g id="XMLID_15970_">
			<circle id="XMLID_246_" class="st2" cx="2632.3" cy="384.9" r="18.9"/>
		</g>
		<g id="XMLID_15967_">
			<circle id="XMLID_244_" class="st2" cx="2147.3" cy="152.7" r="18.9"/>
		</g>
		<g id="XMLID_15964_">
			<circle id="XMLID_242_" class="st2" cx="723.7" cy="1296.4" r="18.9"/>
		</g>
		<g id="XMLID_15961_">
			<circle id="XMLID_240_" class="st2" cx="945.3" cy="1050.3" r="18.9"/>
		</g>
		<g id="XMLID_15958_">
			<circle id="XMLID_238_" class="st2" cx="821.4" cy="914.8" r="18.9"/>
		</g>
		<g id="XMLID_15955_">
			<circle id="XMLID_236_" class="st2" cx="607.4" cy="342.6" r="18.9"/>
		</g>
		<g id="XMLID_15952_">
			<circle id="XMLID_234_" class="st2" cx="588.8" cy="499.6" r="18.9"/>
		</g>
		<g id="XMLID_15949_">
			<circle id="XMLID_232_" class="st2" cx="331.7" cy="688.6" r="18.9"/>
		</g>
		<g id="XMLID_15946_">
			<circle id="XMLID_230_" class="st2" cx="543.8" cy="358.2" r="9.4"/>
		</g>
		<g id="XMLID_15943_">
			<circle id="XMLID_228_" class="st2" cx="238.5" cy="590.9" r="18.9"/>
		</g>
		<g id="XMLID_15940_">
			<circle id="XMLID_226_" class="st2" cx="694.6" cy="195.8" r="9.4"/>
		</g>
		<g id="XMLID_15937_">
			<circle id="XMLID_224_" class="st2" cx="367.7" cy="450.6" r="9.4"/>
		</g>
		<g id="XMLID_15934_">
			<circle id="XMLID_222_" class="st2" cx="1070.8" cy="200.1" r="9.4"/>
		</g>
		<g id="XMLID_15931_">
			<circle id="XMLID_220_" class="st2" cx="1059.6" cy="129.3" r="9.4"/>
		</g>
		<g id="XMLID_15928_">
			<circle id="XMLID_218_" class="st2" cx="981.9" cy="82.5" r="9.4"/>
		</g>
		<g id="XMLID_15925_">
			<circle id="XMLID_216_" class="st2" cx="1166.5" cy="74.4" r="18.9"/>
		</g>
		<g id="XMLID_15922_">
			<circle id="XMLID_214_" class="st2" cx="1189.1" cy="153.4" r="18.9"/>
		</g>
		<g id="XMLID_15919_">
			<circle id="XMLID_212_" class="st2" cx="481.1" cy="411" r="9.4"/>
		</g>
		<g id="XMLID_15916_">
			<circle id="XMLID_210_" class="st2" cx="620.1" cy="207.6" r="9.4"/>
		</g>
		<g id="XMLID_15913_">
			<circle id="XMLID_208_" class="st2" cx="217.6" cy="511.3" r="15.2"/>
		</g>
		<g id="XMLID_15910_">
			<circle id="XMLID_206_" class="st2" cx="393.9" cy="527.8" r="9.4"/>
		</g>
		<g id="XMLID_15907_">
			<circle id="XMLID_204_" class="st2" cx="311.9" cy="467.2" r="9.4"/>
		</g>
		<g id="XMLID_15904_">
			<circle id="XMLID_202_" class="st2" cx="271.6" cy="403.6" r="17.3"/>
		</g>
		<g id="XMLID_15901_">
			<circle id="XMLID_200_" class="st2" cx="271.6" cy="319.4" r="9.4"/>
		</g>
		<g id="XMLID_15898_">
			<circle id="XMLID_198_" class="st2" cx="107.6" cy="258" r="10.8"/>
		</g>
		<g id="XMLID_15895_">
			<circle id="XMLID_196_" class="st2" cx="119.3" cy="219.7" r="17.3"/>
		</g>
		<g id="XMLID_15892_">
			<circle id="XMLID_194_" class="st2" cx="423.4" cy="285.5" r="9.4"/>
		</g>
		<g id="XMLID_15889_">
			<circle id="XMLID_192_" class="st2" cx="168.9" cy="177" r="10.3"/>
		</g>
		<g id="XMLID_15886_">
			<circle id="XMLID_190_" class="st2" cx="491.3" cy="206.4" r="12.3"/>
		</g>
		<g id="XMLID_15883_">
			<circle id="XMLID_188_" class="st2" cx="491.3" cy="206.4" r="10.3"/>
		</g>
		<g id="XMLID_15880_">
			<circle id="XMLID_186_" class="st2" cx="441.9" cy="190" r="9.4"/>
		</g>
		<g id="XMLID_15877_">
			<circle id="XMLID_184_" class="st2" cx="257.1" cy="269.6" r="9.4"/>
		</g>
		<g id="XMLID_15874_">
			<circle id="XMLID_182_" class="st2" cx="202.9" cy="239.4" r="9.4"/>
		</g>
		<g id="XMLID_15871_">
			<circle id="XMLID_180_" class="st2" cx="272.3" cy="191.2" r="18.9"/>
		</g>
		<g id="XMLID_15868_">
			<circle id="XMLID_178_" class="st2" cx="624.2" cy="387.2" r="8.7"/>
		</g>
		<g id="XMLID_15865_">
			<circle id="XMLID_176_" class="st2" cx="450.6" cy="454.9" r="9.4"/>
		</g>
		<g id="XMLID_15862_">
			<circle id="XMLID_174_" class="st2" cx="748.5" cy="869" r="9.4"/>
		</g>
		<g id="XMLID_15859_">
			<circle id="XMLID_172_" class="st2" cx="817.9" cy="1001.7" r="9.4"/>
		</g>
		<g id="XMLID_15856_">
			<circle id="XMLID_170_" class="st2" cx="843.8" cy="1127" r="9.4"/>
		</g>
		<g id="XMLID_15853_">
			<circle id="XMLID_168_" class="st2" cx="673.6" cy="1178.4" r="18.9"/>
		</g>
		<g id="XMLID_15850_">
			<circle id="XMLID_166_" class="st2" cx="770" cy="1395.8" r="18.9"/>
		</g>
		<g id="XMLID_15847_">
			<circle id="XMLID_164_" class="st2" cx="779" cy="1250" r="19.5"/>
		</g>
		<g id="XMLID_15844_">
			<circle id="XMLID_162_" class="st2" cx="870.2" cy="1257" r="18.9"/>
		</g>
		<g id="XMLID_15841_">
			<circle id="XMLID_160_" class="st2" cx="769.1" cy="991" r="9.4"/>
		</g>
		<g id="XMLID_15838_">
			<circle id="XMLID_158_" class="st2" cx="631.5" cy="833.4" r="9.4"/>
		</g>
		<g id="XMLID_15835_">
			<circle id="XMLID_156_" class="st2" cx="895.4" cy="1081.1" r="9.4"/>
		</g>
		<g id="XMLID_15832_">
			<circle id="XMLID_154_" class="st2" cx="686.6" cy="1353.8" r="9.4"/>
		</g>
		<g id="XMLID_15829_">
			<circle id="XMLID_152_" class="st2" cx="751.8" cy="1538.9" r="9.4"/>
		</g>
		<g id="XMLID_15826_">
			<circle id="XMLID_150_" class="st2" cx="702.2" cy="1401.4" r="9.4"/>
		</g>
		<g id="XMLID_15823_">
			<circle id="XMLID_148_" class="st2" cx="667.1" cy="1250.9" r="19.5"/>
		</g>
		<g id="XMLID_15820_">
			<circle id="XMLID_146_" class="st2" cx="568.2" cy="1034.2" r="9.4"/>
		</g>
		<g id="XMLID_15817_">
			<circle id="XMLID_144_" class="st2" cx="624" cy="1042.5" r="8.7"/>
		</g>
		<g id="XMLID_15814_">
			<circle id="XMLID_142_" class="st2" cx="679" cy="942" r="8.7"/>
		</g>
		<g id="XMLID_15811_">
			<circle id="XMLID_140_" class="st2" cx="976.1" cy="1120.1" r="9.4"/>
		</g>
		<g id="XMLID_15808_">
			<circle id="XMLID_138_" class="st2" cx="715.2" cy="838.6" r="8.7"/>
		</g>
		<g id="XMLID_15805_">
			<circle id="XMLID_136_" class="st2" cx="568.2" cy="887.4" r="8.7"/>
		</g>
		<g id="XMLID_15802_">
			<circle id="XMLID_134_" class="st2" cx="480.8" cy="804.5" r="8.7"/>
		</g>
		<g id="XMLID_15797_">
			<circle id="XMLID_132_" class="st2" cx="430.7" cy="772.3" r="9.4"/>
		</g>
		<g id="XMLID_15788_">
			<circle id="XMLID_130_" class="st2" cx="302.3" cy="713.9" r="8.7"/>
		</g>
		<g id="XMLID_15785_">
			<circle id="XMLID_128_" class="st2" cx="375.7" cy="639.3" r="9.4"/>
		</g>
		<g id="XMLID_15782_">
			<circle id="XMLID_126_" class="st2" cx="296.6" cy="652.7" r="8.7"/>
		</g>
		<g id="XMLID_15779_">
			<circle id="XMLID_124_" class="st2" cx="759.5" cy="1067.7" r="18.9"/>
		</g>
		<g id="XMLID_15776_">
			<circle id="XMLID_122_" class="st2" cx="645.3" cy="1001.7" r="18.9"/>
		</g>
		<g id="XMLID_15773_">
			<circle id="XMLID_120_" class="st2" cx="713.5" cy="997.4" r="9.4"/>
		</g>
		<g id="XMLID_15770_">
			<circle id="XMLID_118_" class="st2" cx="849.3" cy="1194.2" r="19.5"/>
		</g>
		<g id="XMLID_15767_">
			<circle id="XMLID_116_" class="st2" cx="623.2" cy="1111.4" r="19.5"/>
		</g>
		<g id="XMLID_15764_">
			<circle id="XMLID_114_" class="st2" cx="680.4" cy="1070.2" r="18.9"/>
		</g>
		<g id="XMLID_15761_">
			<circle id="XMLID_112_" class="st2" cx="895.4" cy="981.8" r="18.9"/>
		</g>
		<g id="XMLID_15758_">
			<circle id="XMLID_110_" class="st2" cx="528.5" cy="215.4" r="18.5"/>
		</g>
		<g id="XMLID_15755_">
			<circle id="XMLID_108_" class="st2" cx="263.7" cy="534.7" r="9.4"/>
		</g>
		<g id="XMLID_15752_">
			<circle id="XMLID_106_" class="st2" cx="517.4" cy="512.6" r="9.4"/>
		</g>
		<g id="XMLID_15749_">
			<circle id="XMLID_104_" class="st2" cx="421.9" cy="582.2" r="20.5"/>
		</g>
		<g id="XMLID_15746_">
			<circle id="XMLID_102_" class="st2" cx="316.7" cy="514.9" r="18.5"/>
		</g>
		<g id="XMLID_15743_">
			<circle id="XMLID_100_" class="st2" cx="582.2" cy="296.8" r="9.4"/>
		</g>
		<g id="XMLID_15740_">
			<circle id="XMLID_98_" class="st2" cx="841.6" cy="293.5" r="9.4"/>
		</g>
		<g id="XMLID_15737_">
			<circle id="XMLID_96_" class="st2" cx="861.5" cy="213.2" r="15.2"/>
		</g>
		<g id="XMLID_15734_">
			<circle id="XMLID_94_" class="st2" cx="772.4" cy="364.9" r="9.4"/>
		</g>
		<g id="XMLID_15731_">
			<circle id="XMLID_92_" class="st2" cx="669.4" cy="211.4" r="15.2"/>
		</g>
		<g id="XMLID_15728_">
			<circle id="XMLID_90_" class="st2" cx="1318.3" cy="340.4" r="9.4"/>
		</g>
		<g id="XMLID_15725_">
			<circle id="XMLID_88_" class="st2" cx="384.5" cy="739.5" r="9.4"/>
		</g>
		<g id="XMLID_15722_">
			<circle id="XMLID_86_" class="st2" cx="498.9" cy="792.4" r="9.4"/>
		</g>
		<g id="XMLID_15719_">
			<circle id="XMLID_84_" class="st2" cx="432.7" cy="738" r="9.4"/>
		</g>
		<g id="XMLID_15716_">
			<circle id="XMLID_82_" class="st2" cx="1131.4" cy="79.6" r="9.4"/>
		</g>
		<g id="XMLID_15713_">
			<circle id="XMLID_80_" class="st2" cx="876.6" cy="184.9" r="9.4"/>
		</g>
		<g id="XMLID_15710_">
			<circle id="XMLID_78_" class="st2" cx="898.2" cy="82.4" r="9.4"/>
		</g>
		<g id="XMLID_15707_">
			<circle id="XMLID_76_" class="st2" cx="733.4" cy="345.8" r="9.4"/>
		</g>
		<g id="XMLID_15704_">
			<circle id="XMLID_74_" class="st2" cx="464.9" cy="724.8" r="9.4"/>
		</g>
		<g id="XMLID_15701_">
			<circle id="XMLID_72_" class="st2" cx="453.2" cy="342.6" r="17"/>
		</g>
		<g id="XMLID_15698_">
			<circle id="XMLID_70_" class="st2" cx="316.9" cy="364.9" r="9.4"/>
		</g>
		<g id="XMLID_15695_">
			<circle id="XMLID_68_" class="st2" cx="453.2" cy="259.1" r="9.4"/>
		</g>
		<g id="XMLID_15692_">
			<circle id="XMLID_66_" class="st2" cx="785.3" cy="310.5" r="18.9"/>
		</g>
		<g id="XMLID_15689_">
			<circle id="XMLID_64_" class="st2" cx="687.7" cy="395.5" r="9.4"/>
		</g>
		<g id="XMLID_15686_">
			<circle id="XMLID_62_" class="st2" cx="560.3" cy="947.3" r="18.9"/>
		</g>
		<g id="XMLID_15683_">
			<circle id="XMLID_60_" class="st2" cx="831.7" cy="1067.7" r="20.5"/>
		</g>
		<g id="XMLID_15680_">
			<circle id="XMLID_58_" class="st2" cx="759.5" cy="1165.4" r="18.5"/>
		</g>
		<g id="XMLID_15677_">
			<circle id="XMLID_56_" class="st2" cx="1730.3" cy="1092.8" r="18.9"/>
		</g>
		<g id="XMLID_15674_">
			<circle id="XMLID_54_" class="st2" cx="2151.5" cy="407.9" r="18.9"/>
		</g>
		<g id="XMLID_15671_">
			<circle id="XMLID_52_" class="st2" cx="935.6" cy="1164.1" r="18.9"/>
		</g>
		<g id="XMLID_15668_">
			<circle id="XMLID_50_" class="st2" cx="1429.4" cy="589.3" r="20.5"/>
		</g>
		<g id="XMLID_15665_">
			<circle id="XMLID_48_" class="st2" cx="580.9" cy="423.9" r="15.1"/>
		</g>
		<g id="XMLID_15662_">
			<circle id="XMLID_46_" class="st2" cx="1232.5" cy="93.2" r="18.9"/>
		</g>
		<g id="XMLID_15659_">
			<circle id="XMLID_44_" class="st2" cx="453.2" cy="512.6" r="9.4"/>
		</g>
		<g id="XMLID_15656_">
			<circle id="XMLID_42_" class="st2" cx="378.5" cy="253.9" r="17"/>
		</g>
		<g id="XMLID_15653_">
			<circle id="XMLID_40_" class="st2" cx="321.2" cy="602.8" r="20.5"/>
		</g>
		<g id="XMLID_15650_">
			<circle id="XMLID_38_" class="st2" cx="522.2" cy="288.5" r="17"/>
		</g>
		<g id="XMLID_15647_">
			<circle id="XMLID_36_" class="st2" cx="868.1" cy="369" r="18.9"/>
		</g>
		<g id="XMLID_15644_">
			<circle id="XMLID_34_" class="st2" cx="514.3" cy="468.1" r="18.5"/>
		</g>
		<g id="XMLID_15641_">
			<circle id="XMLID_32_" class="st2" cx="598.1" cy="698.3" r="18.9"/>
		</g>
		<g id="XMLID_15638_">
			<circle id="XMLID_30_" class="st2" cx="530.2" cy="595" r="18.9"/>
		</g>
		<g id="XMLID_15635_">
			<circle id="XMLID_28_" class="st2" cx="649.9" cy="468.6" r="19.5"/>
		</g>
		<g id="XMLID_15632_">
			<circle id="XMLID_26_" class="st2" cx="416.9" cy="418.1" r="17.3"/>
		</g>
		<g id="XMLID_15629_">
			<circle id="XMLID_633_" class="st2" cx="331.7" cy="427.5" r="17"/>
		</g>
		<g id="XMLID_15626_">
			<circle id="XMLID_635_" class="st2" cx="771.8" cy="415.1" r="18.9"/>
		</g>
		<g id="XMLID_15623_">
			<circle id="XMLID_637_" class="st2" cx="1019.3" cy="97.4" r="9.4"/>
		</g>
		<g id="XMLID_15618_">
			<circle id="XMLID_639_" class="st2" cx="818.7" cy="1298.9" r="9.4"/>
		</g>
		<g id="XMLID_15612_">
			<circle id="XMLID_641_" class="st2" cx="596.8" cy="855.9" r="9.4"/>
		</g>
		<g id="XMLID_14900_">
			<circle id="XMLID_643_" class="st2" cx="745.3" cy="1498.5" r="9.4"/>
		</g>
	</g>
</g>
</svg>
