<?xml version="1.0" encoding="utf-8"?>
<!-- Generator: Adobe Illustrator 19.0.0, SVG Export Plug-In . SVG Version: 6.00 Build 0)  -->
<svg version="1.1" id="Layer_1" xmlns="http://www.w3.org/2000/svg" xmlns:xlink="http://www.w3.org/1999/xlink" x="0px" y="0px"
	 viewBox="-131 239 348 315" style="enable-background:new -131 239 348 315;" xml:space="preserve">
<style type="text/css">
	.st0{fill:#F8835E;}
	.st1{fill:#FFFFFF;}
	.st2{fill:none;stroke:#FFFFFF;stroke-width:2;stroke-dasharray:4,4;}
</style>
<g>
	<circle class="st0" cx="-28.5" cy="314.7" r="27.5"/>
	<path class="st0" d="M60.4,271c12.5-3.4,25.4,4.1,28.8,16.6c3.4,12.5-4.1,25.4-16.6,28.8c-12.5,3.4-25.4-4.1-28.8-16.6
		C40.5,287.3,47.9,274.4,60.4,271z"/>
	<circle class="st0" cx="-65.5" cy="407.7" r="22.5"/>
	<circle class="st0" cx="147" cy="433.2" r="30"/>
	<circle class="st0" cx="-5" cy="491.2" r="32"/>
	<circle class="st0" cx="135.8" cy="340" r="20.5"/>
	<circle class="st0" cx="86.9" cy="493.3" r="20.5"/>
	<circle class="st1" cx="45" cy="398.2" r="13"/>
	<path class="st2" d="M43,287.2c60.8,0,110,49.2,110,110c0,60.7-49.3,110-110,110c-60.8,0-110-49.2-110-110
		C-67,336.5-17.8,287.2,43,287.2z"/>
	<circle class="st1" cx="-65.5" cy="407.7" r="4.5"/>
	<circle class="st1" cx="-29" cy="315.2" r="10"/>
	<circle class="st1" cx="87" cy="496.2" r="7"/>
	<circle class="st1" cx="136" cy="339.2" r="7"/>
	<circle class="st1" cx="-6" cy="492.2" r="10"/>
	<circle class="st1" cx="67.5" cy="292.7" r="8.5"/>
	<circle class="st1" cx="148" cy="434.2" r="10"/>
</g>
</svg>
