<?xml version="1.0" encoding="utf-8"?>
<!-- Generator: Adobe Illustrator 19.0.0, SVG Export Plug-In . SVG Version: 6.00 Build 0)  -->
<svg version="1.1" id="Layer_1" xmlns="http://www.w3.org/2000/svg" xmlns:xlink="http://www.w3.org/1999/xlink" x="0px" y="0px"
	 viewBox="585 -21 1781 835" style="enable-background:new 585 -21 1781 835;" xml:space="preserve">
<style type="text/css">
	.st0{fill:#F8835E;}
	.st1{fill:#FFFFFF;}
	.st2{fill:none;stroke:#FFFFFF;stroke-width:2;stroke-dasharray:4,4;}
</style>
<circle class="st0" cx="765" cy="218.2" r="26"/>
<circle class="st0" cx="812" cy="290.2" r="24"/>
<circle class="st0" cx="1062" cy="239.2" r="21"/>
<circle class="st0" cx="968.5" cy="22.8" r="15.5"/>
<circle class="st0" cx="897.5" cy="329.7" r="29.5"/>
<circle class="st0" cx="1359.5" cy="551.6" r="27.5"/>
<circle class="st0" cx="1290.5" cy="633.6" r="23.5"/>
<circle class="st0" cx="1492.5" cy="707.6" r="31.5"/>
<circle class="st0" cx="1320" cy="728" r="31"/>
<circle class="st0" cx="1452.5" cy="558.6" r="20.5"/>
<circle class="st0" cx="1419.5" cy="759.5" r="20.5"/>
<circle class="st0" cx="1836.5" cy="203.7" r="27.5"/>
<path class="st0" d="M1925.4,160c12.5-3.4,25.4,4.1,28.8,16.6c3.4,12.5-4.1,25.4-16.6,28.8c-12.5,3.4-25.4-4.1-28.8-16.6
	C1905.5,176.3,1912.9,163.4,1925.4,160z"/>
<circle class="st0" cx="1799.5" cy="296.7" r="22.5"/>
<circle class="st0" cx="2012" cy="322.2" r="30"/>
<circle class="st0" cx="1860" cy="380.2" r="32"/>
<circle class="st0" cx="2000.8" cy="229" r="20.5"/>
<circle class="st0" cx="1951.9" cy="382.3" r="20.5"/>
<circle class="st0" cx="992" cy="313.2" r="25"/>
<circle class="st0" cx="1074" cy="152.2" r="31"/>
<circle class="st0" cx="887.5" cy="19.8" r="22.5"/>
<circle class="st0" cx="817.5" cy="52.8" r="22.5"/>
<circle class="st0" cx="1030.5" cy="63.8" r="22.5"/>
<circle class="st0" cx="765.5" cy="125.7" r="24.5"/>
<path class="st0" d="M922.4,172.2l476.8,480.6l-0.4,2.1L922,174.3L922.4,172.2z"/>
<path class="st1" d="M922,174L757.9,468.8l-1.6-0.7l163.6-293.9L922,174z"/>
<path class="st1" d="M612,467l145.8,0.2l0.2,1.8l-145.8-0.2L612,467z"/>
<path class="st1" d="M1624,619l225.8,0.2l0.2,1.8l-225.8-0.2L1624,619z"/>
<path class="st1" d="M1401.7,653.1l222.1-32.6l0.5,1.7l-222.1,32.6L1401.7,653.1z"/>
<path class="st1" d="M2329,451l-265.8,0.2l-0.2,1.8l265.8-0.2L2329,451z"/>
<path class="st1" d="M1911.1,287l152.7,164.5l-1.2,1.4L1910,288.4L1911.1,287z"/>
<path class="st0" d="M1398.7,654.1l519.2-370.5l2.2,1.1l-518.2,368.5L1398.7,654.1z"/>
<circle class="st1" cx="922" cy="174.2" r="13"/>
<circle class="st1" cx="1400" cy="654.1" r="13"/>
<circle class="st1" cx="1910" cy="287.2" r="13"/>
<circle class="st2" cx="917.5" cy="176.5" r="159.5"/>
<path class="st2" d="M1398,543.1c60.8,0,110,49.2,110,110c0,60.7-49.3,110-110,110c-60.8,0-110-49.2-110-110
	C1288,592.3,1337.2,543.1,1398,543.1z"/>
<path class="st2" d="M1908,176.2c60.8,0,110,49.2,110,110c0,60.7-49.3,110-110,110c-60.8,0-110-49.2-110-110
	C1798,225.5,1847.2,176.2,1908,176.2z"/>
<circle class="st1" cx="897.5" cy="330.7" r="8.5"/>
<circle class="st1" cx="812" cy="291.2" r="7"/>
<circle class="st1" cx="765" cy="218.2" r="7"/>
<circle class="st1" cx="765" cy="125.2" r="7"/>
<circle class="st1" cx="817" cy="52.3" r="7"/>
<circle class="st1" cx="888" cy="18.3" r="7"/>
<circle class="st1" cx="1031" cy="63.3" r="7"/>
<circle class="st1" cx="1075" cy="152.2" r="7"/>
<circle class="st1" cx="1359" cy="551.1" r="7"/>
<circle class="st1" cx="1453" cy="559.1" r="4"/>
<circle class="st1" cx="1799.5" cy="296.7" r="4.5"/>
<circle class="st1" cx="1420" cy="760" r="7"/>
<circle class="st1" cx="1290" cy="634.1" r="7"/>
<circle class="st1" cx="1319" cy="729" r="10"/>
<circle class="st1" cx="1492" cy="707.1" r="10"/>
<circle class="st1" cx="1836" cy="204.2" r="10"/>
<circle class="st1" cx="1952" cy="385.2" r="7"/>
<circle class="st1" cx="2001" cy="228.2" r="7"/>
<circle class="st1" cx="1859" cy="381.2" r="10"/>
<circle class="st1" cx="1932.5" cy="181.7" r="8.5"/>
<circle class="st1" cx="2013" cy="323.2" r="10"/>
<circle class="st1" cx="1062" cy="240.2" r="7"/>
<circle class="st1" cx="993" cy="313.2" r="7"/>
<circle class="st1" cx="969" cy="22.3" r="5"/>
</svg>
