<?xml version="1.0" encoding="utf-8"?>
<!-- Generator: Adobe Illustrator 19.1.0, SVG Export Plug-In . SVG Version: 6.00 Build 0)  -->
<svg version="1.1" id="Layer_1" xmlns="http://www.w3.org/2000/svg" xmlns:xlink="http://www.w3.org/1999/xlink" x="0px" y="0px"
	 viewBox="-391.5 218.5 125 125" style="enable-background:new -391.5 218.5 125 125;" xml:space="preserve">
<style type="text/css">
	.st0{fill:none;stroke:#000000;stroke-miterlimit:10;}
	.st1{enable-background:new    ;}
</style>
<g id="XMLID_15887_">
	<path id="XMLID_15893_" d="M-329.6,263.9c-0.3-0.6-0.6-1.2-0.9-1.7c0.1-0.1,0.1-0.1,0.1-0.2c0.8,0.5,1.7,1,2.6,1.6
		c0.4-0.5,0.8-1.1,1.4-1.8c-0.1,0.8-0.2,1.4-0.3,2.2c0.3,0.1,0.8,0.2,1.1,0.3c5.2,1.4,9.8,3.7,13.5,7.7c2.9,3.1,4.1,6.9,4.3,11
		c0.2,4.1-0.3,8.1-1.6,12c-1.4,3.8-3.3,7.4-6.4,10.1c-0.1,0.1-0.2,0.2-0.3,0.3c0.4,0.4,0.8,0.8,1.3,1.1c2.7,2.6,4.2,5.9,5,9.6
		c0.9,4.2,1.2,8.3,1.2,12.5c0,0.8-0.4,1.3-1.1,1.5c-0.9,0.3-1.9,0.6-2.7,0.9c-0.3,0.1-0.5,0.3-0.5,0.5c-0.8,5-4.2,6.5-7.7,7.1
		c-1.8,0.3-3.6,0.4-5.3,0.4c-3.8,0-7.7,0-11.5-0.2c-1.4-0.1-3-0.5-4.4-1c-2.5-1-3.8-3.1-4.2-5.7c-0.1-0.8-0.4-1.3-1.3-1.4
		c-0.8-0.2-1.5-0.4-2.3-0.8c-0.6-0.3-1-0.8-1-1.4c0.1-5.3,0.4-10.5,2.3-15.5c1.1-2.9,2.2-4.4,5-7.3c-0.1-0.1-0.1-0.2-0.2-0.3
		c-2.6-2.2-4.5-4.9-5.9-8.1c-2.5-5.3-3.1-10.8-2.3-16.4c0.8-6.5,4.4-11.2,10.3-14.2c3.6-1.9,7.4-2.8,11.4-3.1
		C-329.9,264-329.8,264-329.6,263.9z M-317.1,292.1c-0.5,0.1-0.8,0.1-1,0.1c-3.1-0.1-6.1,0-9.1-0.2c-2-0.2-4.1-0.4-6-1
		c-3.8-1.2-7-3.6-10-6.1c-0.3-0.2-0.4-0.3-0.7-0.6c-0.7,2.5-2,4.7-3.7,6.4c-0.5,0.4-0.5,0.9-0.4,1.5c1.2,8.7,8.3,15.3,17.1,16
		c8.5,0.6,16.4-4.7,18.9-12.8c0.3-1,0.5-2,0.8-3.1c-2.9,0.3-5.3-1.1-7.8-1.5C-318.6,291.1-318,291.5-317.1,292.1z M-320.9,308.8
		c0.4,0.5,0.9,1,1.4,1.4c0.8,0.9,0.8,1.3-0.2,2c-0.4,0.3-0.9,0.7-1.4,1.1c0.2,0.3,0.3,0.7,0.5,0.9c0.6,0.8,0.4,1.4-0.2,2.1
		c-2.6,3.3-5.2,6.6-7.7,9.9c-0.2,0.2-0.3,0.4-0.3,0.7c-0.1,1.2,0,2.3,0,3.5c4.6,0,9,0,13.5,0c0.3-4.2-0.3-8.3-0.2-12.5
		c0.7,3.6,1.3,7.1,2,10.8c0.6-0.2,1.2-0.3,1.7-0.5c0.5-0.2,0.7-0.4,0.7-0.9c-0.3-2.9-0.3-5.8-0.7-8.6c-0.4-3.1-1.4-6.2-3.4-8.8
		c-0.8-1.1-1.9-2-2.7-2.9C-319.1,307.7-320,308.3-320.9,308.8z M-345.4,328.8c0.7-3.6,1.3-7.2,1.9-10.4c0,0.9,0,2.2,0,3.5
		c-0.1,2.5-0.2,5.1-0.2,7.6c0,1.1,0,1.1,1.1,1.1c3.6,0,7.3,0,10.9,0c0.3,0,0.6,0,0.8,0c0-1.1,0-2.1,0-3.1c0-0.3-0.2-0.8-0.4-1.1
		c-2.6-3.5-5.3-6.9-8-10.3c-0.3-0.5-0.4-0.8-0.1-1.4c0.3-0.4,0.5-0.8,0.8-1.4c-0.5-0.4-1-0.8-1.5-1.3c-0.7-0.5-0.7-0.9-0.2-1.6
		c0.5-0.6,1-1.1,1.5-1.7c-0.8-0.4-1.5-0.8-2.3-1.3c-0.2,0.2-0.4,0.3-0.6,0.4c-2.4,2-3.8,4.6-4.7,7.5c-1.2,3.7-1.5,7.5-1.7,11.4
		c0,1.2-0.1,1.2,1.1,1.5C-346.5,328.5-346,328.6-345.4,328.8z M-343.3,332.6c0.1,0.2,0.1,0.3,0.1,0.3c0.6,1.9,2,2.8,3.8,3.1
		c1.4,0.3,2.8,0.4,4.2,0.5c4.7,0.2,9.3,0.3,13.9-0.3c1.4-0.2,2.9-0.5,4.1-1.5c0.7-0.6,1.2-1.3,1.4-2.2
		C-325,332.6-334.2,332.6-343.3,332.6z M-333,321.3c-0.6-2-1.2-3.6-1.5-5.5c-0.4-1.8-0.6-3.6-0.8-5.5c-0.1-0.4-1.4-0.9-1.8-0.6
		c-0.5,0.4-0.8,0.9-1.4,1.5c0.4,0.3,0.8,0.7,1.2,0.9c0.9,0.8,0.9,0.8,0.3,1.9c-0.2,0.3-0.3,0.6-0.5,0.8c-0.1,0.2-0.1,0.5,0.1,0.6
		C-335.9,317.4-334.5,319.3-333,321.3z M-321.2,311.2c-0.3-0.3-0.7-0.6-0.8-0.9c-0.4-0.8-1-0.5-1.6-0.4c-0.7,0.2-0.7,0.7-0.8,1.2
		c-0.3,2.6-0.7,5.2-1.5,7.7c-0.3,0.8-0.5,1.6-0.8,2.4c1.3-1.4,2.3-2.9,3.5-4.2c0.9-1,1.4-2,0.3-3.1c-0.3-0.4-0.3-0.9,0.3-1.3
		C-322.2,312-321.7,311.6-321.2,311.2z M-332.2,311.8c-1.1,0.7-1,0.7-0.8,1.9c0.1,0.5,0.1,1.1,0.2,1.6c0.2,0.8,0.4,1.8,0.6,2.6
		c0.1,0,0.2,0,0.2-0.1c0.3-0.8,0.3-1.7,0.7-2.5C-330.9,314-331.5,312.9-332.2,311.8z M-327.7,317.8c0.1,0,0.2,0,0.3,0
		c0.3-1.4,0.6-2.9,0.8-4.2c0.3-1.2,0.3-1.2-0.9-1.9c-0.3,0.4-0.4,0.8-0.6,1.2c-0.2,0.4-0.4,0.9-0.3,1.4
		C-328.4,315.4-328,316.6-327.7,317.8z M-326.3,311.6c0.1-0.4,0.1-0.8,0.2-1.2c-0.5,0.1-0.8,0.1-1.4,0.2
		C-327,310.9-326.7,311.3-326.3,311.6z M-333.4,311.6c0.4-0.3,0.8-0.7,1.2-1c-0.5-0.1-0.8-0.1-1.3-0.2
		C-333.5,310.8-333.5,311.2-333.4,311.6z"/>
	<path id="XMLID_15891_" d="M-323.1,298.3c0,0.4,0.1,0.9,0,1.4c-0.2,1-0.9,1.7-2,1.7c-0.9,0-1.8-0.7-1.9-1.7c-0.1-0.8-0.1-1.8,0-2.6
		c0.1-0.9,0.9-1.7,1.9-1.7c0.9,0,1.8,0.7,2,1.7C-323.1,297.4-323.1,297.9-323.1,298.3L-323.1,298.3z"/>
	<path id="XMLID_15890_" d="M-336.4,298.3c0-0.4,0-0.8,0-1.3c0.1-0.9,0.9-1.8,1.9-1.8s1.9,0.8,1.9,1.7c0.1,0.8,0.1,1.7,0,2.6
		c-0.1,1-0.8,1.7-1.9,1.8c-1,0-1.9-0.8-1.9-1.8C-336.5,299.1-336.5,298.7-336.4,298.3C-336.5,298.3-336.5,298.3-336.4,298.3z"/>
	<path id="XMLID_15888_" d="M-329.5,306.8c-3.7-0.1-7-1.2-9.8-3.1c-0.2-0.1-0.3-0.2-0.3-0.3c-0.3-0.3-0.5-0.5-0.3-0.9
		c0.3-0.3,0.6-0.3,0.9,0c1.4,1.1,3,2,4.7,2.5c5.1,1.6,9.7,0.6,13.7-3c0.3-0.3,0.6-0.5,1-0.2c0.4,0.4,0.1,0.8-0.2,1
		C-322.6,305.3-325.9,306.8-329.5,306.8z"/>
</g>
<g id="XMLID_15915_">
	<path id="XMLID_15917_" class="st0" d="M-306.3,268.8c-1.8-0.3-3.6-0.6-5.3-0.9c-4.9-1-8.1-5.2-8.9-9.5c-0.8-4.5-0.9-9.1-0.3-13.6
		c0.3-2.6,1.2-5.1,2.8-7.1c1.8-2.2,4.1-3.6,7-4.1c5.9-1.2,11.9-1.4,17.9-1.3c4.2,0.1,8.3,0.4,12.4,1.4c4.7,1,7.5,4,8.7,8.5
		c1,3.6,1.3,7.4,0.9,11.2c-0.2,2.1-0.4,4.4-1,6.4c-1.4,4.6-4.5,7.4-9.2,8.3c-3.8,0.7-7.5,1.1-11.4,1.2c-1.2,0-2,0.3-3.1,1
		c-3,2.2-5.9,4.4-9.5,5.5c-1.3,0.4-2.5,0.7-3.8,0.8c-0.3,0.1-0.7-0.2-1-0.3c0.2-0.3,0.2-0.8,0.4-1c0.8-0.9,1.6-1.8,2.3-2.8
		C-306.5,271.1-306.1,269.9-306.3,268.8z"/>
</g>
<g id="XMLID_15911_">
	<g class="st1">
		<path d="M-312.9,249.9v-2.3h-2.8v2.3h-0.9v-5.3h0.9v2.2h2.8v-2.2h0.9v5.3H-312.9z"/>
		<path d="M-311,247.2c0-1.6,1.1-2.7,2.7-2.7c1.6,0,2.7,1.2,2.7,2.7s-1.1,2.7-2.7,2.7C-309.9,250-311,248.8-311,247.2z
			 M-306.6,247.2c0-1.1-0.7-1.9-1.8-1.9c-1.1,0-1.8,0.8-1.8,1.9c0,1.1,0.7,1.9,1.8,1.9C-307.3,249.2-306.6,248.3-306.6,247.2z"/>
		<path d="M-300.8,249.9l-1-3.9l-1,3.9h-1l-1.5-5.3h1l1,4.1l1.1-4.1h0.7l1.1,4.1l1-4.1h1l-1.5,5.3H-300.8z"/>
		<path d="M-295.9,247.2c0-1.6,1.2-2.7,2.8-2.7c1.1,0,1.7,0.5,2.1,1.2l-0.8,0.4c-0.3-0.4-0.8-0.8-1.3-0.8c-1,0-1.8,0.8-1.8,1.9
			c0,1.1,0.8,1.9,1.8,1.9c0.6,0,1.1-0.3,1.3-0.8l0.8,0.4c-0.4,0.6-1.1,1.2-2.1,1.2C-294.7,250-295.9,248.9-295.9,247.2z"/>
		<path d="M-286.6,249.9l-0.4-1h-2.4l-0.4,1h-1.1l2.1-5.3h1.2l2.1,5.3H-286.6z M-288.2,245.5l-1,2.5h1.9L-288.2,245.5z"/>
		<path d="M-281.2,249.9l-2.8-3.8v3.8h-0.9v-5.3h1l2.7,3.7v-3.7h0.9v5.3H-281.2z"/>
		<path d="M-277.2,249.9v-5.3h0.9v5.3H-277.2z"/>
	</g>
	<g class="st1">
		<path d="M-312.9,259.4v-2.3h-2.8v2.3h-0.9v-5.3h0.9v2.2h2.8v-2.2h0.9v5.3H-312.9z"/>
		<path d="M-310.8,259.4v-5.3h3.6v0.8h-2.7v1.4h2.6v0.8h-2.6v1.5h2.7v0.8H-310.8z"/>
		<path d="M-306.3,259.4v-5.3h0.9v4.5h2.3v0.8H-306.3z"/>
		<path d="M-302.2,259.4v-5.3h2.3c1.1,0,1.7,0.8,1.7,1.7c0,0.9-0.6,1.7-1.7,1.7h-1.4v2H-302.2z M-299.1,255.8c0-0.5-0.4-0.8-0.9-0.8
			h-1.3v1.7h1.3C-299.5,256.6-299.1,256.3-299.1,255.8z"/>
		<path d="M-293.8,259.4v-2.2l-2.1-3.1h1.1l1.5,2.3l1.5-2.3h1.1l-2.1,3.1v2.2H-293.8z"/>
		<path d="M-290.8,256.8c0-1.6,1.1-2.7,2.7-2.7c1.6,0,2.7,1.2,2.7,2.7s-1.1,2.7-2.7,2.7C-289.7,259.5-290.8,258.4-290.8,256.8z
			 M-286.3,256.8c0-1.1-0.7-1.9-1.8-1.9c-1.1,0-1.8,0.8-1.8,1.9c0,1.1,0.7,1.9,1.8,1.9C-287,258.7-286.3,257.9-286.3,256.8z"/>
		<path d="M-284.5,257.3v-3.2h0.9v3.2c0,0.8,0.5,1.4,1.4,1.4c0.9,0,1.4-0.5,1.4-1.4v-3.2h0.9v3.2c0,1.3-0.8,2.2-2.3,2.2
			C-283.7,259.5-284.5,258.6-284.5,257.3z"/>
		<path d="M-278.1,257.2c0-1,1.3-1.1,1.3-1.7c0-0.3-0.2-0.6-0.8-0.6c-0.5,0-0.8,0.2-1.1,0.6l-0.5-0.6c0.4-0.5,1-0.8,1.7-0.8
			c1,0,1.6,0.5,1.6,1.2c0,1.2-1.4,1.3-1.4,2c0,0.1,0.1,0.3,0.2,0.4l-0.7,0.2C-278,257.7-278.1,257.4-278.1,257.2z M-278.1,258.9
			c0-0.3,0.3-0.5,0.6-0.5c0.3,0,0.6,0.3,0.6,0.5c0,0.3-0.3,0.6-0.6,0.6C-277.9,259.5-278.1,259.2-278.1,258.9z"/>
	</g>
</g>
<g id="XMLID_15914_">
	<path id="XMLID_15918_" class="st0" d="M-350.3,260.8c1.9-0.3,3.7-0.6,5.5-1c5.1-1,8.4-5.3,9.2-9.8c0.9-4.7,0.9-9.4,0.3-14.2
		c-0.4-2.7-1.2-5.3-3-7.5c-1.9-2.3-4.2-3.6-7.2-4.2c-6.2-1.2-12.4-1.4-18.6-1.3c-4.3,0.1-8.6,0.4-12.9,1.4c-4.8,1-7.8,4.2-9.2,8.8
		c-1.1,3.8-1.3,7.7-0.9,11.6c0.2,2.3,0.4,4.6,1.1,6.7c1.4,4.7,4.7,7.7,9.7,8.6c3.9,0.8,7.9,1.1,11.9,1.2c1.2,0,2.1,0.3,3.1,1.1
		c3.1,2.3,6.2,4.6,9.9,5.8c1.3,0.4,2.6,0.7,4,0.9c0.3,0.1,0.8-0.3,1.1-0.3c-0.2-0.3-0.2-0.8-0.4-1.1c-0.8-1-1.7-1.9-2.4-2.9
		C-349.9,263.3-350.4,261.9-350.3,260.8z"/>
</g>
<g id="XMLID_15912_" class="st1">
	<path d="M-358.2,250.6v-7.4h-8.8v7.4h-3v-16.9h3v6.9h8.8v-6.9h3v16.9H-358.2z"/>
	<path d="M-351.6,250.6v-16.9h3v16.9H-351.6z"/>
</g>
</svg>
