<?xml version="1.0" encoding="utf-8"?>
<!-- Generator: Adobe Illustrator 19.0.0, SVG Export Plug-In . SVG Version: 6.00 Build 0)  -->
<svg version="1.1" id="Layer_1" xmlns="http://www.w3.org/2000/svg" xmlns:xlink="http://www.w3.org/1999/xlink" x="0px" y="0px"
	 viewBox="0 0 1200 1200" style="enable-background:new 0 0 1200 1200;" xml:space="preserve">
<style type="text/css">
	.st0{fill:#F2F2F2;}
	.st1{fill:#C0BFBF;}
	.st2{fill:#E5E5E5;}
</style>
<g id="XMLID_10335_">
	<polygon id="XMLID_14868_" class="st0" points="1122.4,342.6 1091.9,1012.4 448.1,1138.7 356.4,737.6 459.3,458.7 	"/>
	<polygon id="XMLID_12513_" class="st1" points="459.3,458.7 448.1,1138.7 144,831.1 154.5,181.6 	"/>
	<polygon id="XMLID_12508_" class="st2" points="1122.4,342.6 459.3,458.7 154.5,181.6 773.8,61.2 	"/>
</g>
<g id="XMLID_15620_">
	<path id="XMLID_15637_" d="M652.8,763.6c0.4-78.2,0.8-156.4,1.1-234.6c0-9.4,2.5-17.8,10-25.3c5.1-5.1,10.9-7.9,17.4-9.2
		c89.4-16.9,178.9-33.8,268.3-50.6c15.5-2.9,26.1,5.9,26.4,21.4c0,1.1,0,2.2,0,3.3c-0.7,156.4-1.5,312.8-2.2,469.2
		c0,8.7-2.1,16.7-8.5,24.1c-5.5,6.2-12.2,9.6-19.6,11.1c-88.7,16.8-177.4,33.6-266.1,50.2c-17.2,3.2-27.9-5.8-27.8-23.3
		C652.1,921.1,652.5,842.4,652.8,763.6z M947,903.6c0.7-144.5,1.4-288.4,2.1-432.3c-89.6,16.9-178.8,33.8-268.2,50.7
		c-0.7,144.2-1.4,288.2-2.1,432.3C768.3,937.3,857.5,920.5,947,903.6z M813.1,986.5c11.9-2.4,21.8-14.1,21.7-25.9
		c0-12-10.1-19.9-22.3-17.4c-11.8,2.4-21.7,14.4-21.5,26.1C791.3,981.2,801.2,988.9,813.1,986.5z"/>
	<path id="XMLID_15633_" d="M855.8,705.9c5.4,8.3,10.6,15.9,15.3,23.8c1.8,3.1,4,4,7.7,3c2.7-0.7,5.5-1.2,8.2-1.2
		c11.1-0.2,15.4,4.1,15.4,15.4c-0.1,29.9-0.2,59.8-0.4,89.7c-0.1,12.4-6.2,19.5-18.8,21.9c-42.8,8.1-85.5,16.2-128.3,24.2
		c-13.1,2.5-18.7-2.1-18.7-15.2c0.1-29.9,0.3-59.8,0.4-89.7c0.1-12.5,6-19.5,18.7-21.9c25.5-4.8,51-9.8,76.5-14.3
		c4.5-0.8,6.9-2.8,9-7C845.5,725.2,850.5,716,855.8,705.9z M753.6,773.3c-0.2,31.7-0.3,62.6-0.4,93.6c44.2-8.4,88-16.6,131.8-24.9
		c0.1-31.3,0.3-62.2,0.4-93.6c-6.1,1.2-11.8,2.5-17.4,3.1c-2.1,0.2-4.7-0.8-6-2.3c-2.4-2.6-4.1-5.9-6.3-9.4
		c-1.9,3.7-3.7,6.4-4.9,9.3c-2,5.1-5.3,7-10.4,7.9c-23.1,4.1-46.3,8.6-69.4,13C765.4,771.1,759.7,772.1,753.6,773.3z"/>
	<path id="XMLID_15628_" d="M771.3,704.4c-4.2-6.4-8.5-11.8-11.5-18c-2.8-5.8-7.2-6-13.2-4.2c-8.9,2.7-14.8-1.3-14.8-10.3
		c0-26,0.2-52.1,0.4-78.1c0.1-8.3,5.6-14.8,13.9-16.4c36.7-7,73.4-13.9,110.1-20.8c8.8-1.6,14,2.6,14,11.4c0,25.7-0.1,51.3-0.4,77
		c-0.1,9.5-5.3,15.5-14.8,17.3c-21.3,4.1-42.6,8.1-63.9,12c-3.3,0.6-5.3,1.9-7,5.2C780.4,687.6,776,695.5,771.3,704.4z M746.5,591.5
		c-0.1,26.1-0.2,51.5-0.4,77.6c5.4-1,11.2-3.6,15.4-2.5c4,1,6.4,5.9,9.6,9.2c1-1.9,2.3-3.7,3.1-5.7c2.1-5.4,5.5-7.7,11.1-8.6
		c21.5-3.7,42.9-7.9,64.4-12c2-0.4,3.9-0.9,6-1.4c0.1-26,0.2-51.6,0.4-77.3C819.4,577.7,783.1,584.6,746.5,591.5z"/>
	<path id="XMLID_15627_" d="M771.8,815.1c0-5.2,0-10.2,0.1-15.7c32.1-6.1,64.1-12.1,96.5-18.2c0,5.1,0,10.1-0.1,15.7
		C836.3,802.9,804.2,809,771.8,815.1z"/>
	<path id="XMLID_15625_" d="M772.2,845.3c0-5.3,0-10.3,0.1-15.7c19.2-3.6,38.3-7.2,57.7-10.9c0,5.3,0,10.3-0.1,15.7
		C810.6,838.1,791.6,841.7,772.2,845.3z"/>
	<path id="XMLID_15624_" d="M759.9,642.5c0-4.5,0-8.8,0.1-13.4c27-5.1,53.7-10.1,80.7-15.2c0,4.4,0,8.7-0.1,13.4
		C813.9,632.3,787.1,637.3,759.9,642.5z"/>
	<path id="XMLID_15622_" d="M840.2,588.5c0,4.4,0,8.5-0.1,12.9c-16.2,3.1-32,6-48.2,9.1c0-4.3,0-8.4,0.1-12.9
		C807.9,594.6,823.9,591.6,840.2,588.5z"/>
</g>
</svg>
