<?xml version="1.0" encoding="utf-8"?>
<!-- Generator: Adobe Illustrator 19.1.0, SVG Export Plug-In . SVG Version: 6.00 Build 0)  -->
<svg version="1.1" id="Layer_1" xmlns="http://www.w3.org/2000/svg" xmlns:xlink="http://www.w3.org/1999/xlink" x="0px" y="0px"
	 viewBox="-391.5 218.5 125 125" style="enable-background:new -391.5 218.5 125 125;" xml:space="preserve">
<style type="text/css">
	.st0{fill:none;stroke:#4DBEC0;stroke-width:2;stroke-miterlimit:10;}
	.st1{fill:none;stroke:#4DBEC0;stroke-miterlimit:10;}
</style>
<g>
	<path id="XMLID_10333_" class="st0" d="M-339,291.6c-2.1-1.1-4.3-2.2-6.2-3.5c-0.9-0.7-1.8-0.5-2.6,0.3c-1,1-1.9,2.1-2.8,3.2
		c-0.7,0.8-1.4,0.9-2.3,0.4c-5.5-2.8-9.6-7-12.4-12.5c-0.5-1-0.3-1.7,0.5-2.3c1.1-0.9,2.1-1.9,3.2-2.9c0.7-0.7,0.9-1.3,0.3-2.3
		c-1.3-2.3-2.6-4.5-3.9-6.8c-0.3-0.7-0.8-1.2-1.7-1.2c-2,0.1-3.9,0.5-5.2,2.3c-2.2,2.9-2.9,6-2,9.7c2.6,9.6,8.7,16.5,17,21.5
		c3.3,2,7,3.2,10.3,3.6c4.6,0,8.2-2.4,9.1-5.7c0.1-0.4,0.2-0.8,0.3-1.3C-337.5,293.1-337.9,292.2-339,291.6z"/>
	<path id="XMLID_9262_" class="st0" d="M-289.7,288.8c-2.8-2-6.1-2.9-9.3-3.8c-5.8-0.7-11.3-0.2-16.5,2.6
		c-9.8,5.1-10.5,14.8-1.8,21.3c0.1,0.1,0.1,0.1,0.2,0.1c1.1,0.5,1,1.3,0.6,2.3c-0.8,1.8-1.8,3.3-3.2,4.7c-0.5,0.6-1.2,1.1-0.6,1.9
		c0.5,0.7,1.2,0.4,1.8,0.3c3.8-0.8,7.3-2.2,10.3-4.5c0.9-0.8,1.9-1.1,3.1-1c5.4,0.4,10.4-0.8,15.1-3.7c0.3-0.3,0.6-0.5,0.8-0.8
		C-281.9,302.2-282.2,294.2-289.7,288.8z"/>
	<path id="XMLID_9261_" class="st0" d="M-303.7,336.2c-15.8,0-29.1-10.6-33.3-25.1c-5.3,3.5-11.6,5.5-18.5,5.5
		c-18.6,0-33.7-15.1-33.7-33.7c0-18.5,15.1-33.7,33.7-33.7c3.5,0,6.8,0.5,10,1.5c0.9-13.9,12.4-25,26.6-25
		c14.8,0,26.7,11.9,26.7,26.7c0,5.6-1.7,10.8-4.6,15c15.8,3.2,27.7,17.2,27.7,34C-269,320.6-284.5,336.2-303.7,336.2z"/>
	<path id="XMLID_9238_" class="st1" d="M-326.5,257.5c-5.5,0-11,0-16.5,0c-1.3,0-1.8,0.5-1.8,1.8c0,3.7,0,7.4,0,11.1
		c0,0.2,0,0.4,0,0.6c-0.1,0.9,0.5,1.4,1.7,1.3c0.1,0,0.2,0,0.3,0c2.7-0.1,5.4,0,8.1,0c2.8,0,5.5,0,8.3,0c1.3,0,1.8-0.5,1.8-1.8
		c0-3.7,0-7.4,0-11.1C-324.7,258.2-325.2,257.5-326.5,257.5z M-327.5,268.8c0,0.5-0.2,0.8-0.7,0.8c-4.6-0.1-9.3,0.2-13.9-0.2
		c0-2,0-4,0-6.3c1.8,1,3.4,1.8,4.8,2.8c1.7,1.3,3.2,1.4,4.9,0.1c1.2-0.9,2.7-1.5,4-2.3c0.5,0.1,0.8,0.3,0.8,0.9
		C-327.6,266-327.5,267.4-327.5,268.8z M-334.5,265c-0.2,0.1-0.4,0.1-0.6,0c-2.3-1.4-4.9-2.5-7.1-4.3c0.3-0.5,0.8-0.4,1.2-0.4
		c4.1,0,8.3,0,12.4,0c0.4,0,0.9-0.1,1.2,0.4C-329.5,262.5-332.1,263.6-334.5,265z"/>
	<path id="XMLID_9196_" class="st1" d="M-304.6,238c-3.8,0-7.8,0-11.6,0c-0.3,0-0.8,0-1.1,0.2c-1,0.3-1.5,1.2-1.5,2.3
		c0,4.3,0,8.6,0,12.9c0,4.3,0,8.6,0,12.9c0,1.7,0.8,2.6,2.5,2.6c3.9,0,7.8,0,11.7,0c1.7,0,2.5-0.9,2.5-2.6c0-8.6,0-17.2,0-25.8
		C-302.1,239-302.9,238-304.6,238z M-310.4,267.9c-0.8,0-1.4-0.7-1.4-1.4c0-0.8,0.7-1.4,1.4-1.4c0.8,0,1.4,0.7,1.4,1.4
		C-309,267.3-309.6,267.9-310.4,267.9z M-303.5,262.9c0,0.9-0.3,1.2-1.2,1.2c-3.8,0-7.7,0-11.4,0c-1.1,0-1.3-0.3-1.3-1.3
		c0-3.7,0-7.3,0-11.1c0-3.7,0-7.3,0-10.9c0-1.2,0.2-1.3,1.3-1.3c3.8,0,7.6,0,11.4,0c0.9,0,1.2,0.3,1.2,1.2
		C-303.5,248.1-303.5,255.5-303.5,262.9z"/>
</g>
</svg>
