<?xml version="1.0" encoding="utf-8"?>
<!-- Generator: Adobe Illustrator 19.0.0, SVG Export Plug-In . SVG Version: 6.00 Build 0)  -->
<svg version="1.1" xmlns="http://www.w3.org/2000/svg" xmlns:xlink="http://www.w3.org/1999/xlink" x="0px" y="0px"
	 viewBox="0 0 1920 1800" style="enable-background:new 0 0 1920 1800;" xml:space="preserve">
<style type="text/css">
	.st0{clip-path:url(#SVGID_2_);}
	.st1{fill-rule:evenodd;clip-rule:evenodd;fill:none;stroke:#B5B7B9;stroke-width:1.1999;stroke-miterlimit:22.9256;}
	.st2{fill-rule:evenodd;clip-rule:evenodd;fill:none;stroke:#CACCCE;stroke-width:1.1999;stroke-miterlimit:22.9256;}
	.st3{fill-rule:evenodd;clip-rule:evenodd;fill:#CACCCE;}
	.st4{fill-rule:evenodd;clip-rule:evenodd;fill:#B5B7B9;}
</style>
<g id="Background">
	<g>
		<defs>
			<rect id="SVGID_1_" x="-3.9" y="-52.8" width="1923.2" height="1923.2"/>
		</defs>
		<clipPath id="SVGID_2_">
			<use xlink:href="#SVGID_1_"  style="overflow:visible;"/>
		</clipPath>
		<g class="st0">
			<line class="st1" x1="1504.6" y1="1363.5" x2="1982.8" y2="313.4"/>
			<path class="st2" d="M2216,1498.2l-988.3-871.3l276.9,736.7l615-355.5l-133.3-677.3l-381.8,423.4 M1228.8,1099.1l856.1-267.3
				l-374.4,275l-1310.4,507l1240.3,48.9l575.6-164.6l-453.7,411.6l133.9-1143.5l319.9,731.9l-85.7,304.8"/>
			<path class="st1" d="M-335.7,582l306-649l542.5-156.7l-430,691.3l543.2,61.6 M754.4,1199.8l380.3,800l-663.7-99.5l331.4,176.5
				l160.3-562.7l747.6-407.2l-106.1-352.7l-333.6,761.6l945.2-17.6l-711.5-134.7l621,456.5l-1654.4,80.2l-126.9,346.9l-157.3-283.6
				l-240.5-440.1L754.4,1199.8l-283.4,700.4l-354.8-593.1L-45.2,635.7L-29.7-67"/>
			<path class="st1" d="M147.6,2186.1l323.5-285.8L-57,1506.1 M815.2,913.2l-415.2,700.7l777.1,114.4l-698.5,396.5"/>
			<path class="st2" d="M478.2,2122.3l349.3-365.4l-427.4-143 M962.8,1514.1l796,378.4l-118.5-229.7L815.2,913.2l455.6,602.6
				l699.5-112.1l-74.2-637.4l223.4,241.7l-942.4,720.3L2216,1498.2l-453.7,411.6l-51.8-802.9l415.1,713.1l-485.1-157.2l-837.9,414
				 M-57,1506.1l1019.8,8l-491.7,386.1l-551.6-85.6"/>
			<polyline class="st1" points="-309.6,30.3 82.9,467.6 -29.7,-67 579.2,179.4 149.4,154.2 1061.1,22.3 756.8,-276.7 579.2,179.4 
				1071.4,335.3 1364.4,-279.1 1860.8,-362.2 1568.6,-469.5 1736.4,-26.4 1896.1,766.3 1227.7,626.9 1515.4,339.5 1980.6,-107.4 			
				"/>
			<polyline class="st1" points="1982.8,313.4 1504.8,136.4 1227.7,626.9 626.1,529.2 1061.1,22.3 1504.8,136.4 1515.4,339.5 
				1211.4,1102.6 471.1,1900.3 528.5,832.3 82.9,467.6 -156.2,983.5 754.4,1199.8 1237,259.3 380,321.2 149.4,154.2 288.8,-49.1 
				627.8,-20.6 149.4,154.2 -331.2,355 380,321.2 626.1,529.2 1710.4,1106.9 827.4,1756.9 528.5,832.3 116.3,1307.1 386.3,594.7 			
				"/>
			<polyline class="st2" points="579.2,179.4 386.3,594.7 528.6,834.1 815.2,913.2 1697.5,483.1 1211.4,1102.6 1504.6,1363.5 
				1710.4,1106.9 2119.5,1008.1 1970.3,1403.7 1710.4,1106.9 1227.7,626.9 962.8,1514.1 1504.6,1363.5 2125.5,1820 1762.3,1909.8 
				1970.3,1403.7 1640.4,1662.8 1177.1,1728.3 827.4,1756.9 471.1,1900.3 186.9,1963.5 -80.5,1814.7 340,1197.2 896.9,472.2 
				756.8,-276.7 1364.4,-279.1 1736.4,-26.4 1982.8,313.4 1896.1,766.3 2119.5,1008.1 			"/>
			<polyline class="st1" points="-331.2,355 -45.2,635.7 82.9,467.6 896.9,472.2 1211.4,1102.6 962.8,1514.1 815.2,913.2 
				896.9,472.2 961,-207 			"/>
			<polyline class="st1" points="-80.5,1814.7 400.1,1613.9 340,1197.2 815.2,913.2 1604.4,754.2 1504.6,1363.5 			"/>
			<polyline class="st2" points="-29.7,-67 288.8,-49.1 579.2,179.4 896.9,472.2 516,846.4 340,1197.2 962.8,1514.1 471.1,1900.3 
				802.5,2076.8 827.4,1756.9 1501.3,1961.2 1270.8,1515.8 1177.1,1728.3 802.5,2076.8 			"/>
			<polyline class="st1" points="1504.6,1363.5 1970.3,1403.7 2216,1498.2 2119.5,1008.1 1604.4,754.2 1515.4,339.5 1237,259.3 
				1364.4,-279.1 1061.1,22.3 579.2,179.4 626.1,529.2 815.2,913.2 			"/>
			<path class="st1" d="M400.1,1613.9l-204,334.5l282.1,173.9l-7.1-222C471.1,1900.3,417.4,1610.5,400.1,1613.9
				c-17.3,3.4-283.8-306.8-283.8-306.8l223.8-110l414.4,2.7l457-97.3l16.2-475.7l-156.3-291.6l444,4.2l182.1,143.6l38.9-509.5
				l124.4-335.8c3.4,17.3,119.7,254.8,119.7,254.8l2.2,420.8l-285.3,169.7l-469.8,143.8L815.2,913.2l-60.8,286.7"/>
			<polyline class="st2" points="1568.6,-469.5 1364.4,-279.1 1466.1,-134.3 1504.8,136.4 1697.5,483.1 1896.1,766.3 1604.4,754.2 
				1710.4,1106.9 1211.4,1102.6 1270.8,1515.8 1504.6,1363.5 1640.4,1662.8 1501.3,1961.2 1177.1,1728.3 962.8,1514.1 827.4,1756.9 
				400.1,1613.9 -57,1506.1 116.3,1307.1 -156.2,983.5 153,823.7 -45.2,635.7 386.3,594.7 82.9,467.6 -331.2,355 -29.7,-67 
				149.4,154.2 82.9,467.6 380,321.2 288.8,-49.1 579.2,179.4 627.8,-20.6 756.8,-276.7 961,-207 1061.1,22.3 1071.4,335.3 
				760.2,-259.4 			"/>
			<path class="st1" d="M1980.6-107.4l-244.1,81l-231.7,162.8l-433.4,198.8L896.9,472.2l330.8,154.7l376.7,127.3L1061.1,22.3
				L380,321.2c0,0,152,530.2,148.6,512.8c-3.4-17.3,97.5-304.9,97.5-304.9l-239.8,65.5L153,823.7l187,373.4l487.4,559.7l443.4-241.1
				l-308-1.6l-208.4-314.3L528.6,834.1l-684.8,149.4L340,1197.2"/>
			<g>
				<path class="st3" d="M1074.8,352.6c9.6-1.9,15.8-11.2,13.9-20.8c-1.9-9.6-11.2-15.8-20.8-13.9c-9.6,1.9-15.8,11.2-13.9,20.8
					C1056,348.3,1065.2,354.5,1074.8,352.6z"/>
				<path class="st4" d="M1469.5-117c9.6-1.9,15.8-11.2,13.9-20.8c-1.9-9.6-11.2-15.8-20.8-13.9c-9.6,1.9-15.8,11.2-13.9,20.8
					C1450.7-121.3,1460-115.1,1469.5-117z"/>
				<circle class="st4" cx="1736.4" cy="-26.4" r="17.7"/>
				<path class="st4" d="M1701,500.4c9.6-1.9,15.8-11.2,13.9-20.8c-1.9-9.6-11.2-15.8-20.8-13.9s-15.8,11.2-13.9,20.8
					C1682.1,496.1,1691.4,502.3,1701,500.4z"/>
				<circle class="st4" cx="1504.8" cy="136.4" r="17.7"/>
				<path class="st3" d="M1064.5,39.7c9.6-1.9,15.8-11.2,13.9-20.8c-1.9-9.6-11.2-15.8-20.8-13.9c-9.6,1.9-15.8,11.2-13.9,20.8
					C1045.6,35.3,1054.9,41.6,1064.5,39.7z"/>
				<circle class="st4" cx="627.8" cy="-20.6" r="17.7"/>
				<circle class="st4" cx="380" cy="321.2" r="17.7"/>
				<circle class="st4" cx="-29.7" cy="-67" r="17.7"/>
				<circle class="st4" cx="-331.2" cy="355" r="17.7"/>
				<circle class="st4" cx="82.9" cy="467.6" r="17.7"/>
				<circle class="st3" cx="153" cy="823.7" r="17.7"/>
				<circle class="st4" cx="386.3" cy="594.7" r="17.7"/>
				<circle class="st4" cx="579.2" cy="179.4" r="17.7"/>
				<path class="st3" d="M152.8,171.5c9.6-1.9,15.8-11.2,13.9-20.8c-1.9-9.6-11.2-15.8-20.8-13.9c-9.6,1.9-15.8,11.2-13.9,20.8
					C133.9,167.2,143.2,173.4,152.8,171.5z"/>
				<circle class="st3" cx="-45.2" cy="635.7" r="17.7"/>
				<circle class="st4" cx="116.3" cy="1307.1" r="17.7"/>
				<circle class="st4" cx="754.4" cy="1199.8" r="17.7"/>
				<circle class="st4" cx="815.2" cy="913.2" r="17.7"/>
				<path class="st4" d="M1214.9,1119.9c9.6-1.9,15.8-11.2,13.9-20.8c-1.9-9.6-11.2-15.8-20.8-13.9c-9.6,1.9-15.8,11.2-13.9,20.8
					C1196,1115.5,1205.3,1121.8,1214.9,1119.9z"/>
				<circle class="st4" cx="896.9" cy="472.2" r="17.7"/>
				<circle class="st4" cx="528.6" cy="834.1" r="17.7"/>
				<path class="st4" d="M-53.6,1523.4c9.6-1.9,15.8-11.2,13.9-20.8c-1.9-9.6-11.2-15.8-20.8-13.9c-9.6,1.9-15.8,11.2-13.9,20.8
					C-72.5,1519.1-63.2,1525.3-53.6,1523.4z"/>
				<circle class="st4" cx="-156.2" cy="983.5" r="17.7"/>
				<circle class="st4" cx="288.8" cy="-49.1" r="17.7"/>
				<circle class="st4" cx="756.8" cy="-276.7" r="17.7"/>
				<path class="st4" d="M964.4-189.7c9.6-1.9,15.8-11.2,13.9-20.8c-1.9-9.6-11.2-15.8-20.8-13.9c-9.6,1.9-15.8,11.2-13.9,20.8
					C945.5-194.1,954.8-187.8,964.4-189.7z"/>
				<path class="st4" d="M1367.8-261.8c9.6-1.9,15.8-11.2,13.9-20.8c-1.9-9.6-11.2-15.8-20.8-13.9c-9.6,1.9-15.8,11.2-13.9,20.8
					C1348.9-266.1,1358.2-259.9,1367.8-261.8z"/>
				<path class="st4" d="M1572.1-452.2c9.6-1.9,15.8-11.2,13.9-20.8c-1.9-9.6-11.2-15.8-20.8-13.9c-9.6,1.9-15.8,11.2-13.9,20.8
					C1553.2-456.5,1562.5-450.3,1572.1-452.2z"/>
				<path class="st4" d="M1984-90c9.6-1.9,15.8-11.2,13.9-20.8c-1.9-9.6-11.2-15.8-20.8-13.9c-9.6,1.9-15.8,11.2-13.9,20.8
					C1965.1-94.4,1974.4-88.2,1984-90z"/>
				<circle class="st4" cx="1860.8" cy="-362.2" r="17.7"/>
				<path class="st4" d="M1986.2,330.7c9.6-1.9,15.8-11.2,13.9-20.8c-1.9-9.6-11.2-15.8-20.8-13.9c-9.6,1.9-15.8,11.2-13.9,20.8
					C1967.3,326.4,1976.6,332.6,1986.2,330.7z"/>
				<circle class="st4" cx="1515.4" cy="339.5" r="17.7"/>
				<path class="st3" d="M1231.1,644.2c9.6-1.9,15.8-11.2,13.9-20.8c-1.9-9.6-11.2-15.8-20.8-13.9c-9.6,1.9-15.8,11.2-13.9,20.8
					C1212.2,639.8,1221.5,646.1,1231.1,644.2z"/>
				<circle class="st3" cx="626.1" cy="529.2" r="17.7"/>
				<path class="st4" d="M1713.8,1124.2c9.6-1.9,15.8-11.2,13.9-20.8c-1.9-9.6-11.2-15.8-20.8-13.9c-9.6,1.9-15.8,11.2-13.9,20.8
					C1695,1119.9,1704.3,1126.1,1713.8,1124.2z"/>
				<path class="st3" d="M966.2,1531.5c9.6-1.9,15.8-11.2,13.9-20.8c-1.9-9.6-11.2-15.8-20.8-13.9c-9.6,1.9-15.8,11.2-13.9,20.8
					C947.3,1527.1,956.6,1533.3,966.2,1531.5z"/>
				<circle class="st4" cx="400.1" cy="1613.9" r="17.7"/>
				<path class="st4" d="M190.3,1980.9c9.6-1.9,15.8-11.2,13.9-20.8c-1.9-9.6-11.2-15.8-20.8-13.9c-9.6,1.9-15.8,11.2-13.9,20.8
					C171.4,1976.5,180.7,1982.8,190.3,1980.9z"/>
				<circle class="st4" cx="-80.5" cy="1814.7" r="17.7"/>
				
					<ellipse transform="matrix(0.1931 0.9812 -0.9812 0.1931 2471.064 1244.8231)" class="st4" cx="478.7" cy="2124.9" rx="20.3" ry="17.7"/>
				<path class="st4" d="M805.9,2094.1c9.6-1.9,15.8-11.2,13.9-20.8c-1.9-9.6-11.2-15.8-20.8-13.9c-9.6,1.9-15.8,11.2-13.9,20.8
					C787.1,2089.8,796.3,2096,805.9,2094.1z"/>
				<path class="st4" d="M830.9,1774.2c9.6-1.9,15.8-11.2,13.9-20.8c-1.9-9.6-11.2-15.8-20.8-13.9c-9.6,1.9-15.8,11.2-13.9,20.8
					C812,1769.8,821.3,1776.1,830.9,1774.2z"/>
				<path class="st4" d="M1765.7,1927.2c9.6-1.9,15.8-11.2,13.9-20.8c-1.9-9.6-11.2-15.8-20.8-13.9c-9.6,1.9-15.8,11.2-13.9,20.8
					C1746.8,1922.8,1756.1,1929.1,1765.7,1927.2z"/>
				<path class="st4" d="M1643.8,1680.1c9.6-1.9,15.8-11.2,13.9-20.8c-1.9-9.6-11.2-15.8-20.8-13.9c-9.6,1.9-15.8,11.2-13.9,20.8
					C1624.9,1675.8,1634.2,1682,1643.8,1680.1z"/>
				<circle class="st4" cx="1270.8" cy="1515.8" r="17.7"/>
				<circle class="st3" cx="471.1" cy="1900.3" r="17.7"/>
				<circle class="st4" cx="1604.4" cy="754.2" r="17.7"/>
				<circle class="st3" cx="1970.3" cy="1403.7" r="17.7"/>
				<path class="st3" d="M1508,1380.9c9.6-1.9,15.8-11.2,13.9-20.8c-1.9-9.6-11.2-15.8-20.8-13.9c-9.6,1.9-15.8,11.2-13.9,20.8
					C1489.1,1376.5,1498.4,1382.7,1508,1380.9z"/>
				<path class="st4" d="M2122.9,1025.4c9.6-1.9,15.8-11.2,13.9-20.8c-1.9-9.6-11.2-15.8-20.8-13.9c-9.6,1.9-15.8,11.2-13.9,20.8
					C2104.1,1021,2113.4,1027.3,2122.9,1025.4z"/>
				<path class="st4" d="M2219.4,1515.5c9.6-1.9,15.8-11.2,13.9-20.8c-1.9-9.6-11.2-15.8-20.8-13.9c-9.6,1.9-15.8,11.2-13.9,20.8
					C2200.6,1511.2,2209.8,1517.4,2219.4,1515.5z"/>
				<path class="st4" d="M2128.9,1837.4c9.6-1.9,15.8-11.2,13.9-20.8c-1.9-9.6-11.2-15.8-20.8-13.9c-9.6,1.9-15.8,11.2-13.9,20.8
					C2110.1,1833,2119.4,1839.2,2128.9,1837.4z"/>
				<path class="st3" d="M1899.5,783.7c9.6-1.9,15.8-11.2,13.9-20.8c-1.9-9.6-11.2-15.8-20.8-13.9c-9.6,1.9-15.8,11.2-13.9,20.8
					C1880.7,779.3,1890,785.6,1899.5,783.7z"/>
				<path class="st4" d="M1180.5,1745.7c9.6-1.9,15.8-11.2,13.9-20.8c-1.9-9.6-11.2-15.8-20.8-13.9c-9.6,1.9-15.8,11.2-13.9,20.8
					C1161.7,1741.3,1171,1747.5,1180.5,1745.7z"/>
				<circle class="st4" cx="1501.3" cy="1961.2" r="17.7"/>
				<circle class="st3" cx="340" cy="1197.2" r="17.7"/>
				<path class="st4" d="M1240.4,276.6c9.6-1.9,15.8-11.2,13.9-20.8c-1.9-9.6-11.2-15.8-20.8-13.9c-9.6,1.9-15.8,11.2-13.9,20.8
					C1221.6,272.3,1230.9,278.5,1240.4,276.6z"/>
				<circle class="st4" cx="-309.6" cy="30.3" r="17.7"/>
				
					<ellipse transform="matrix(0.1931 0.9812 -0.9812 0.1931 2264.0188 1619.0038)" class="st4" cx="147.6" cy="2186.1" rx="20.3" ry="17.7"/>
				<circle class="st4" cx="-335.7" cy="582" r="17.7"/>
				<circle class="st4" cx="-153.4" cy="1238" r="17.7"/>
				<path class="st4" d="M2191.2,544.8c9.6-1.9,15.8-11.2,13.9-20.8c-1.9-9.6-11.2-15.8-20.8-13.9c-9.6,1.9-15.8,11.2-13.9,20.8
					C2172.3,540.4,2181.6,546.7,2191.2,544.8z"/>
				<circle class="st4" cx="2335.5" cy="1173.9" r="17.7"/>
				<path class="st4" d="M1138.2,2017.1c9.6-1.9,15.8-11.2,13.9-20.8c-1.9-9.6-11.2-15.8-20.8-13.9c-9.6,1.9-15.8,11.2-13.9,20.8
					C1119.3,2012.8,1128.6,2019,1138.2,2017.1z"/>
				<circle class="st4" cx="512.8" cy="-223.7" r="17.7"/>
			</g>
			<polygon class="st1" points="1568.6,-469.5 1466.1,-134.3 1860.8,-362.2 1501.4,119.1 			"/>
		</g>
	</g>
</g>
<g id="Objects">
</g>
</svg>
