<?xml version="1.0" encoding="utf-8"?>
<!-- Generator: Adobe Illustrator 19.1.0, SVG Export Plug-In . SVG Version: 6.00 Build 0)  -->
<svg version="1.1" id="Layer_1" xmlns="http://www.w3.org/2000/svg" xmlns:xlink="http://www.w3.org/1999/xlink" x="0px" y="0px"
	 viewBox="-391.5 218.5 125 125" style="enable-background:new -391.5 218.5 125 125;" xml:space="preserve">
<style type="text/css">
	.st0{fill:none;stroke:#4DBEC0;stroke-miterlimit:10;}
	.st1{fill:#4CBEC0;}
</style>
<path id="XMLID_10432_" class="st0" d="M-319.7,319.8c2.3,0,4.6,0,6.8,0c0.6,2.6-0.7,4.3-3.3,4.3c-22.3,0-44.8,0-67.1,0
	c-1.4,0-2.4-0.6-3.2-1.6c-0.6-0.8-0.5-1.7-0.5-2.7c2.2,0,4.6,0,6.9,0c0-0.3,0-0.6,0-0.8c0-9.7,0-19.4,0-29.1c0-2.1,1-3,3-3
	c17.9,0,36,0,53.9,0c1.7,0,3.4,1.5,3.4,3.4c-0.1,9.5,0,19.1,0,28.7C-319.7,319.2-319.7,319.4-319.7,319.8z M-322.4,317.8
	c0-9.5,0-18.9,0-28.3c-18.4,0-36.8,0-55.3,0c0,9.5,0,18.9,0,28.3C-359.2,317.8-340.9,317.8-322.4,317.8z M-345.1,320
	c-3.3,0-6.5,0-9.8,0c0,0.2,0,0.5,0,0.7c3.3,0,6.6,0,9.9,0C-345.1,320.5-345.1,320.3-345.1,320z"/>
<g id="XMLID_10202_">
	<path id="XMLID_10898_" class="st1" d="M-281.6,237.9c0.3,0.3,0.7,0.6,1,0.9c3,2.9,5.8,5.8,8.8,8.8c1,1,1,1.6,0,2.6
		c-6.8,6.8-13.6,13.6-20.5,20.5c-1,1-1.7,1-2.7,0c-3-3-6-6-9-9c-0.9-1-1-1.6,0-2.5c6.9-6.9,13.8-13.8,20.7-20.7
		c0.2-0.2,0.5-0.4,0.7-0.6C-282.2,237.9-281.9,237.9-281.6,237.9z M-292.2,268.9c6-5.9,12-11.9,17.9-17.9c-3.3-3.3-6.6-6.6-9.9-9.9
		c-5.9,5.9-11.9,11.9-17.9,17.9C-298.8,262.3-295.5,265.6-292.2,268.9z M-297.5,265.5c-0.1-0.2-0.1-0.2-0.1-0.3
		c-0.8-0.8-1.5-1.6-2.3-2.3c-0.1-0.1-0.5,0-0.6,0.2s-0.1,0.5,0,0.6c0.7,0.8,1.4,1.5,2.2,2.2c0.1,0.1,0.4,0.2,0.6,0.1
		C-297.6,265.8-297.5,265.7-297.5,265.5z M-277.8,245.6c0.5,0,1-0.5,1-1c0-0.6-0.5-1-1-1s-1,0.5-1,1
		C-278.8,245-278.2,245.5-277.8,245.6z M-295.8,266.9c-0.4-0.2-0.6-0.5-0.7-0.4c-0.2,0-0.4,0.3-0.4,0.5c0,0.2,0.3,0.4,0.5,0.4
		C-296.3,267.4-296.1,267.1-295.8,266.9z"/>
	<path id="XMLID_10891_" class="st1" d="M-310.4,264.9c0.4,0,0.8,0,1.1,0c0.7,6.7,4.4,10.5,11.2,11.2c0,0.1,0,0.2,0.1,0.2
		c0,0.2,0,0.6,0,0.8C-304,277.7-310.8,272.1-310.4,264.9z"/>
	<path id="XMLID_10890_" class="st1" d="M-309.9,289c-0.4,0-0.8,0-1.2,0c-0.2-6.4-5.4-11.1-11.2-11.1c0-0.4,0-0.8,0-1.1
		C-316.8,276.2-309.7,281.5-309.9,289z"/>
	<path id="XMLID_10889_" class="st1" d="M-298.1,273c0,0.5,0,0.9,0,1.2c-4.9,0.3-9.7-4.3-9.5-9.5c0.4,0,0.8,0,1.2,0
		c0.1,2.2,0.9,4.2,2.4,5.8C-302.3,272.2-300.3,273-298.1,273z"/>
	<path id="XMLID_10888_" class="st1" d="M-312.9,289c-0.4,0-0.8,0-1.1,0c-0.5-5-3.2-7.7-8.2-8.2c0-0.3,0-0.7,0-1.1
		C-317.5,279.2-312.5,284.1-312.9,289z"/>
	<path id="XMLID_10881_" class="st1" d="M-315.7,289c-0.4,0-0.8,0-1.2,0c-0.3-3.1-2.1-4.9-5.3-5.3c0-0.2,0-0.4,0-0.6
		c0-0.2,0-0.4,0-0.6C-319.2,282.3-315.7,285.1-315.7,289z"/>
	<path id="XMLID_10880_" class="st1" d="M-298.1,271.4c-4.1,0-6.6-3.6-6.5-6.6c0.4,0,0.8,0,1.2,0c0.3,3.1,2.1,4.9,5.3,5.3
		C-298.1,270.5-298.1,270.9-298.1,271.4z"/>
</g>
</svg>
