<?xml version="1.0" encoding="utf-8"?>
<!-- Generator: Adobe Illustrator 19.1.0, SVG Export Plug-In . SVG Version: 6.00 Build 0)  -->
<svg version="1.1" id="Layer_1" xmlns="http://www.w3.org/2000/svg" xmlns:xlink="http://www.w3.org/1999/xlink" x="0px" y="0px"
	 viewBox="-391.5 218.5 125 125" style="enable-background:new -391.5 218.5 125 125;" xml:space="preserve">
<g id="XMLID_15932_">
	<g id="XMLID_15929_">
		<path id="XMLID_15930_" d="M-336.7,265.7c20.5,12.2,41,24.3,61.8,36.7c-7.8,1.9-15.2,3.7-22.9,5.6c7.3,8.5,14.6,17,22,25.5
			c-2.3,1.9-4.5,3.8-6.8,5.7c-7.1-8.4-14.1-16.9-21.2-25.3c-3.2,6.7-6.4,13.2-9.7,19.9c-7.9-22.8-15.7-45.4-23.5-67.9
			C-336.8,265.9-336.8,265.8-336.7,265.7z"/>
	</g>
	<g id="XMLID_15923_">
		<path id="XMLID_15927_" d="M-314.2,224c-0.3,2.7-0.5,5.3-0.8,8c-15.5-3-29.5-0.2-41.8,9.6c-12.3,9.9-18.2,23-18.5,38.9
			c-1.3-0.2-2.6-0.4-3.9-0.6c-1.4-0.2-2.6-0.3-4-0.4C-383.9,245.8-351.5,216.1-314.2,224z"/>
		<path id="XMLID_15926_" d="M-315.4,237c-0.3,2.6-0.5,5.3-0.8,7.9c-22.6-5.9-46.5,11.7-46.3,36.9c-2.6-0.3-5.3-0.6-8-0.9
			C-370.4,251.2-342.3,230.6-315.4,237z"/>
		<path id="XMLID_15924_" d="M-349.5,283.8c-2.4-0.3-4.7-0.6-7.1-0.9c-0.3,0-0.6-0.1-0.8-0.2c-0.8-20,18.7-38,40.9-32.9
			c-0.3,2.6-0.5,5.3-0.8,8.1c-8.3-1.9-15.9-0.6-22.6,4.7C-346.6,268.1-349.6,275.2-349.5,283.8z"/>
	</g>
</g>
</svg>
