<?xml version="1.0" encoding="utf-8"?>
<!-- Generator: Adobe Illustrator 19.1.0, SVG Export Plug-In . SVG Version: 6.00 Build 0)  -->
<svg version="1.1" id="Layer_1" xmlns="http://www.w3.org/2000/svg" xmlns:xlink="http://www.w3.org/1999/xlink" x="0px" y="0px"
	 viewBox="-391.5 218.5 125 125" style="enable-background:new -391.5 218.5 125 125;" xml:space="preserve">
<style type="text/css">
	.st0{fill:#4DBEC0;}
</style>
<g>
	<path id="XMLID_9178_" class="st0" d="M-270.5,281.5c0,7,0.2,13.9-0.1,20.9c-0.1,1.8-0.9,4-2.2,5.3c-9.8,10-19.8,20-29.8,29.8
		c-1.3,1.2-3.5,2.1-5.3,2.1c-14,0.2-28.1,0.2-42.1,0c-1.8,0-4-1-5.2-2.2c-10-9.8-20-19.7-29.8-29.7c-1.1-1.1-2-3-2.1-4.5
		c-0.3-13.9-0.4-27.8-0.6-41.7c-0.1-2.8,0.8-5,2.9-7c9.8-9.6,19.4-19.5,29.3-29.1c1.5-1.5,4.1-2.6,6.2-2.7c13.7-0.2,27.3-0.2,41,0
		c2,0,4.5,1.1,5.9,2.5c9.8,9.6,19.4,19.3,29.1,28.9c2.1,2,2.9,4.1,2.8,7C-270.5,267.8-270.5,274.6-270.5,281.5L-270.5,281.5z
		 M-273.8,281.4L-273.8,281.4c0-6.7,0.1-13.4-0.1-20.1c0-1.5-0.6-3.4-1.5-4.4c-9.4-9.6-18.9-18.9-28.6-28.3
		c-1.3-1.2-3.5-2.1-5.3-2.1c-13-0.2-26.1-0.2-39,0c-1.8,0-4,1-5.3,2.2c-9.3,9.1-18.5,18.3-27.6,27.6c-1.3,1.4-2.2,3.7-2.2,5.6
		c-0.2,13-0.2,26.1-0.2,39c0,1.7,0.8,3.7,2,4.9c9.1,9.4,18.5,18.7,27.9,27.9c1.3,1.2,3.5,2.1,5.3,2.2c13.1,0.2,26.3,0.2,39.4,0
		c1.8,0,4-0.9,5.3-2.1c9.3-9.1,18.5-18.3,27.6-27.6c1.3-1.4,2.2-3.6,2.3-5.6C-273.6,294.3-273.8,287.9-273.8,281.4z"/>
	<g id="XMLID_9155_">
		<path id="XMLID_9161_" class="st0" d="M-341.5,295.5h8.5v-27.4l-8.1,2.5v-9.8l18.7-6.7v41.3h7.9v9.2h-27.1L-341.5,295.5
			L-341.5,295.5z"/>
	</g>
</g>
</svg>
