<?xml version="1.0" encoding="utf-8"?>
<!-- Generator: Adobe Illustrator 19.1.0, SVG Export Plug-In . SVG Version: 6.00 Build 0)  -->
<svg version="1.1" id="Layer_1" xmlns="http://www.w3.org/2000/svg" xmlns:xlink="http://www.w3.org/1999/xlink" x="0px" y="0px"
	 viewBox="-391.5 218.5 125 125" style="enable-background:new -391.5 218.5 125 125;" xml:space="preserve">
<style type="text/css">
	.st0{fill:none;stroke:#4DBEC0;stroke-width:3;stroke-miterlimit:10;}
	.st1{fill:#4DBEC0;}
	.st2{fill:#FFFFFF;}
</style>
<g>
	<path id="XMLID_10338_" class="st0" d="M-349.4,290.7c-0.4,12.9,2.5,25.3,6.1,37.6c0.3,1,0.5,2.1,2.1,2.1c5.1-0.3,9.7,1.5,14.5,2.6
		c9.9,2.2,19.8,4.2,30,2.7c9.5-1.5,14.1-5.6,15.5-14.5c0.2-1.3,1.1-1.8,1.9-2.5c4.1-3.8,5.8-8.5,4.5-14c-0.3-1.6-0.3-2.7,0.6-4.2
		c3-5.1,3.3-10.4,0-15.5c-0.7-1-0.8-1.9-0.4-3c2.7-9.1-1.4-14.9-10.7-16.2c-4.4-0.6-8.7,0.3-13.1-0.5c-4.9-0.8-4.9-0.6-2.9-5.3
		c1.8-4.4,4.5-8.3,5.7-12.9c2.2-8.4-0.7-17.9-6.6-21.6c-6.3-3.9-11.7-1-12.1,6.3c-0.1,2.4,0.3,5-0.9,7.1c-3.9,7-8.1,13.9-14.3,19.2
		c-4.7,4-8.4,8.6-11.1,14.1c-0.9,2-1.9,4.4-4.1,5c-4.3,1.3-4.4,4.5-4.4,7.9C-349.4,286.8-349.4,288.7-349.4,290.7z"/>
	<path id="XMLID_10337_" class="st1" d="M-367.1,276.9c0,0.2,0,0.3,0,0.4c-4.2,0-8.3-0.2-12.5,0.1c-4,0.3-6.1,2.6-6.3,6.6
		c-0.9,16.5,1.7,32.3,6.9,47.9c1.6,4.9,6.2,7.4,11.3,6.2c6.1-1.4,12.1-3,18.2-4.5c2.2-0.5,2.7-1.5,2.1-3.7c-5.1-16.4-8-33-6-50.3
		c0.3-2.3-0.7-2.8-2.7-2.7C-359.9,277-363.5,276.9-367.1,276.9z"/>
	<path id="XMLID_10335_" class="st2" d="M-357,330.9c-2.2-0.1-4.4-2.2-4.5-4.5c0-2.4,2.2-4.6,4.6-4.6c2.2,0.1,4.4,2.2,4.5,4.5
		C-352.2,328.8-354.6,331-357,330.9z"/>
</g>
</svg>
