<?xml version="1.0" encoding="utf-8"?>
<!-- Generator: Adobe Illustrator 19.1.0, SVG Export Plug-In . SVG Version: 6.00 Build 0)  -->
<svg version="1.1" id="Layer_1" xmlns="http://www.w3.org/2000/svg" xmlns:xlink="http://www.w3.org/1999/xlink" x="0px" y="0px"
	 viewBox="-391.5 218.5 125 125" style="enable-background:new -391.5 218.5 125 125;" xml:space="preserve">
<style type="text/css">
	.st0{fill:none;stroke:#4DBEC0;stroke-width:1.5;stroke-miterlimit:10;}
</style>
<g>
	<path id="XMLID_9134_" class="st0" d="M-387.2,284.9c0-8.7,0-17.3,0-26c0-2.3,1.1-4,3-4.7c0.7-0.2,1.5-0.3,2.2-0.3
		c7.8,0,15.5,0,23.3,0c3.4,0,5.2,1.8,5.2,5.2c0,17.3,0,34.6,0,51.9c0,3.4-1.7,5.2-5.1,5.2c-7.8,0-15.7,0-23.5,0
		c-3.3,0-5.1-1.8-5.1-5.2C-387.2,302.2-387.2,293.5-387.2,284.9z M-384.4,281.4c0,7.4,0,14.9,0,22.2c0,2.1,0.4,2.5,2.6,2.5
		c7.6,0,15.3,0,23,0c1.8,0,2.3-0.5,2.3-2.3c0-15,0-30,0-45c0-1.8-0.6-2.3-2.3-2.3c-7.6,0-15.3,0-22.9,0c-2.3,0-2.7,0.4-2.7,2.7
		C-384.4,266.7-384.4,274.1-384.4,281.4z M-370.5,314c1.6,0,2.9-1.3,2.9-3c0-1.6-1.3-3-3-2.9c-1.6,0-2.9,1.3-2.9,3
		C-373.4,312.7-372.1,314-370.5,314z"/>
	<path id="XMLID_9129_" class="st0" d="M-306,282.1c0-8.7,0-17.3,0-26c0-4.8,2.1-7.3,6.8-8c1.6-0.2,3.4-0.4,5.1-0.4
		c5,0,10.1,0.1,15.1,0.2c1.5,0.1,3,0.5,4.4,1.1c2.8,1.1,3.9,3.4,3.9,6.3c0,11.9,0,23.7,0,35.5c0,5.7-0.1,11.3,0,17
		c0.2,5.5-3,8-7.2,8.9c-1.1,0.2-2.4,0.4-3.6,0.4c-4.8,0-9.7,0.1-14.4-0.1c-2.8-0.1-5.5-0.8-7.6-2.8c-1.6-1.6-2.3-3.4-2.3-5.7
		C-306,299.9-306,291-306,282.1z M-273,309c0-18.2,0-36.4,0-54.7c-10.3,0-20.5,0-30.8,0c0,18.2,0,36.4,0,54.7
		C-293.5,309-283.2,309-273,309z M-288.3,312.6c-1,0-2-0.1-3,0c-0.4,0-1,0.3-1.1,0.7c-0.2,0.7,0.2,1.4,1,1.4c2,0.1,3.9,0.1,5.8,0
		c0.7,0,1.1-0.7,1-1.4c-0.1-0.2-0.7-0.6-1.1-0.7C-286.4,312.5-287.3,312.6-288.3,312.6z"/>
	<path id="XMLID_9124_" class="st0" d="M-312.9,315.2H-347c-0.2,0-0.5-0.2-0.5-0.5v-69.4c0-0.2,0.2-0.5,0.5-0.5h34.1
		c0.2,0,0.5,0.2,0.5,0.5v69.4C-312.5,314.9-312.6,315.2-312.9,315.2z M-317.1,248.4h-25.8c-0.2,0-0.5,0.2-0.5,0.5v57.5
		c0,0.2,0.2,0.5,0.5,0.5h25.8c0.2,0,0.5-0.2,0.5-0.5v-57.5C-316.7,248.5-316.8,248.4-317.1,248.4z M-327.9,309.3
		c0-0.2-0.2-0.5-0.5-0.5c-1.1,0-2.1,0-3.2,0c-0.2,0-0.5,0.2-0.5,0.4c0,1.1,0,2.2,0,3.3c0,0.2,0.2,0.5,0.5,0.5h3.3
		c0.2,0,0.5-0.2,0.5-0.5L-327.9,309.3L-327.9,309.3z"/>
</g>
</svg>
