<?xml version="1.0" encoding="utf-8"?>
<!-- Generator: Adobe Illustrator 19.0.0, SVG Export Plug-In . SVG Version: 6.00 Build 0)  -->
<svg version="1.1" id="Layer_1" xmlns="http://www.w3.org/2000/svg" xmlns:xlink="http://www.w3.org/1999/xlink" x="0px" y="0px"
	 viewBox="0 0 100 100" style="enable-background:new 0 0 100 100;" xml:space="preserve">
<style type="text/css">
	.st0{fill:#FFFFFF;}
</style>
<g id="XMLID_118_">
	<path id="XMLID_664_" class="st0" d="M96.8,50.4c0,26-21.3,47.4-47.1,47.4C23.3,97.7,2,76.6,2,50.4C2,24,23.3,2.8,50,3
		C75.7,3.2,96.7,24.3,96.8,50.4z M49.5,8.5c-23.3,0-42,18.7-42,41.8c0,23.3,18.7,42,42,42c23.2,0,41.8-18.8,41.8-42.2
		C91.3,27.2,72.4,8.4,49.5,8.5z"/>
	<path id="XMLID_543_" class="st0" d="M39.8,50.3c0-7.1,0-14.1,0-21.2c0-0.5,0-1.1,0.1-1.6c0.4-1.9,2.4-2.8,4.1-1.7
		c0.5,0.4,1,0.8,1.5,1.3c7,7,13.9,14,20.9,21c1.5,1.5,1.6,2.9,0.1,4.5C59.2,59.8,52,67,44.7,74.2c-0.9,0.9-2,1.4-3.3,0.8
		c-1.3-0.6-1.6-1.7-1.6-3C39.8,64.8,39.8,57.6,39.8,50.3z M60.4,50.4C51.2,64,46.8,67,44.5,66.1c-2.6-1-3.8-7.7,0.8-30.8
		c0,10,0,20.1,0,30.1C50.3,60.4,55.4,55.3,60.4,50.4z"/>
</g>
</svg>
