<?xml version="1.0" encoding="utf-8"?>
<!-- Generator: Adobe Illustrator 19.0.0, SVG Export Plug-In . SVG Version: 6.00 Build 0)  -->
<svg version="1.1" id="Layer_1" xmlns="http://www.w3.org/2000/svg" xmlns:xlink="http://www.w3.org/1999/xlink" x="0px" y="0px"
	 viewBox="1060 -110 250 250" style="enable-background:new 1060 -110 250 250;" xml:space="preserve">
<style type="text/css">
	.st0{fill:#F2F2F2;}
	.st1{fill:#C0BFBF;}
	.st2{fill:#E5E5E5;}
</style>
<g id="XMLID_1_">
	<g id="XMLID_10335_">
		<polygon id="XMLID_14868_" class="st0" points="1298.2,-45 1293.4,107.2 1147.7,137.9 1125.6,47.1 1148.1,-16.5 		"/>
		<polygon id="XMLID_12513_" class="st1" points="1148.1,-16.5 1147.7,137.9 1077.7,69 1078,-78.5 		"/>
		<polygon id="XMLID_12508_" class="st2" points="1298.2,-45 1148.1,-16.5 1078,-78.5 1218.2,-107.7 		"/>
	</g>
	<g id="XMLID_10385_">
		<path id="XMLID_14891_" d="M1239.8,35.5c-2.7,3.4-5.5,6.8-8.8,10.9c0.4-3.6-1.3-4.9-3.5-5.9c-0.5-0.4-1-0.9-1-1.7
			c6.9-7.5,13.9-14.9,20.7-22.4c1.6-1.8,2.4-1.5,3.8-0.2c1.2,1.2,2.5,1.8,0.7,4C1247.6,25.1,1243.8,30.4,1239.8,35.5z"/>
		<path id="XMLID_14890_" d="M1226.5,38.8c-0.1,0.8,0.5,1.3,1,1.7c-4.5,1.1-5.4,2.2-5.8,6.7c-2-0.4-2.8-2.5-4.6-3.1
			c-3.9-4.2-8.5-7.8-12.9-11.4c-1.9-1.6-2.4-2.9-0.3-5c1.3-1.3,2.2-1.4,3.6-0.5c5.1,3.4,10.2,6.8,15.4,10.1
			C1224,38,1224.9,39.2,1226.5,38.8z"/>
		<path id="XMLID_14889_" d="M1192.8,65.8c1.7,1.2,2.6,2.9,1.2,5c-1.4,2.1-3.3,2-5.2,0.8C1187.5,67.7,1188.6,66.1,1192.8,65.8z"/>
		<path id="XMLID_14888_" d="M1205.2,9.4c2.1-0.2,3.4,0.7,3.4,2.7s-1.1,3.3-3.2,3.5c-1.9,0.2-3.1-0.8-3.2-2.6
			C1202.1,11.1,1203.2,9.8,1205.2,9.4z"/>
		<path id="XMLID_14887_" d="M1245.9,11.5c-2.1,0.2-3.3-0.7-3.4-2.7c0-2,1.1-3.3,3.2-3.5c1.9-0.2,3.1,0.8,3.2,2.6
			C1249.1,9.9,1247.9,11.2,1245.9,11.5z"/>
		<path id="XMLID_14886_" d="M1194,28.4c0,2-1.1,3.4-3.1,3.6c-1.8,0.2-3-0.7-3.2-2.6c-0.1-2,0.9-3.4,2.9-3.7
			C1192.7,25.3,1193.8,26.3,1194,28.4z"/>
		<path id="XMLID_14885_" d="M1263.8,21.4c-0.1,2-1.1,3.3-3.2,3.5c-1.9,0.2-3-0.8-3.1-2.7c-0.1-2,1-3.4,3-3.7
			C1262.6,18.2,1263.7,19.3,1263.8,21.4z"/>
		<path id="XMLID_14884_" d="M1228.6,4.8c-0.1,2-1.3,3.3-3.2,3.4c-2,0.1-3.1-1.1-3-3.1c0.1-1.9,1.2-3,3.1-3.2
			C1227.5,1.7,1228.5,2.8,1228.6,4.8z"/>
		<path id="XMLID_14883_" d="M1185.9,52.6c-2.2,0.1-3.3-0.8-3.3-2.9c0-1.9,1-3.1,2.9-3.3c2-0.3,3.3,0.7,3.4,2.7
			C1189,51.1,1187.8,52.3,1185.9,52.6z"/>
		<polygon id="XMLID_14881_" points="1179.9,71.9 1180.1,71.9 1180,71.8 		"/>
		<path id="XMLID_12515_" d="M1226.5,49.1c-2.2-0.1-3.5-1.1-3.5-3.4c0-2.3,1.4-3.7,3.6-3.8c2.2-0.2,3.5,1.1,3.5,3.3
			C1230.1,47.3,1228.7,48.7,1226.5,49.1z"/>
		<path id="XMLID_12514_" d="M1264.5,61.6c-0.1,2.1-1.2,3.5-3.1,3.7c-2.1,0.2-3.4-0.9-3.3-3.1c0-2,1.3-3.3,3.2-3.4
			C1263.3,58.6,1264.3,59.8,1264.5,61.6z"/>
		<path id="XMLID_12512_" d="M1206.6,85.6c-2.1,0.1-3.3-0.8-3.4-2.7c-0.1-2.1,1.2-3.5,3.3-3.7c2-0.2,3.2,0.9,3.2,2.9
			C1209.6,84.1,1208.5,85.3,1206.6,85.6z"/>
		<path id="XMLID_10530_" d="M1246.7,81.6c-2,0-3.2-1-3.2-3c0-2,1.2-3.3,3.2-3.5c2.1-0.2,3.4,0.9,3.3,3.1
			C1249.9,80.1,1248.6,81.3,1246.7,81.6z"/>
		<path id="XMLID_10389_" d="M1266.2,38.1c1.9-0.1,3.2,0.7,3.3,2.8c0.1,2-1,3.3-3,3.6c-2,0.3-3.3-0.7-3.4-2.7
			C1263,39.8,1264.2,38.5,1266.2,38.1z"/>
		<path id="XMLID_10388_" d="M1226.5,89c-2.1-0.1-3.1-1.2-3-3.2c0.1-2.1,1.4-3.2,3.4-3.3c2,0,3.1,1.1,3,3.2
			C1229.7,87.8,1228.4,88.8,1226.5,89z"/>
		<path id="XMLID_10387_" d="M1264.3-6.1c0,0-32.2-26.4-74,4.1c0,0-32.5,23.8-24.4,68.3l4.2,1.7c0,0-3.9-45.8,24.1-66.2
			c0,0,32.2-28,65.7-3.6l-2.7,2.7l10.9,3.7l-1.4-13.1L1264.3-6.1z"/>
		<path id="XMLID_10386_" d="M1188.2,96.5c0,0,33.8,24.4,74-8.3c0,0,31.3-25.6,20.6-69.3l-4.4-1.4c0,0,6.6,45.3-20.4,67.1
			c0,0-30.7,29.7-65.7,7.4l2.5-2.8l-11.2-3.1l2.1,13L1188.2,96.5z"/>
	</g>
</g>
</svg>
