<?xml version="1.0" encoding="utf-8"?>
<!-- Generator: Adobe Illustrator 19.0.0, SVG Export Plug-In . SVG Version: 6.00 Build 0)  -->
<svg version="1.1" id="Layer_1" xmlns="http://www.w3.org/2000/svg" xmlns:xlink="http://www.w3.org/1999/xlink" x="0px" y="0px"
	 viewBox="1060 -110 250 250" style="enable-background:new 1060 -110 250 250;" xml:space="preserve">
<style type="text/css">
	.st0{fill:#F2F2F2;}
	.st1{fill:#C0BFBF;}
	.st2{fill:#E5E5E5;}
	.st3{fill:none;stroke:#000000;stroke-width:2;stroke-miterlimit:10;}
	.st4{fill:none;stroke:#000000;stroke-width:4;stroke-miterlimit:10;}
</style>
<g id="XMLID_14892_">
	<polygon id="XMLID_14899_" class="st0" points="1072.8,-45.6 1077,108.1 1224,139.7 1246.7,48.2 1224.3,-16.2 	"/>
	<polygon id="XMLID_14896_" class="st1" points="1224.3,-16.2 1224,139.7 1295,70.5 1295.3,-78.4 	"/>
	<polygon id="XMLID_14893_" class="st2" points="1072.8,-45.6 1224.3,-16.2 1295.3,-78.4 1153.9,-108.6 	"/>
</g>
<path id="XMLID_14914_" class="st3" d="M1215.4,72.3c-4.3,27-24.2,42.7-52.4,41.5c-0.5,0-21.1-4.6-21.6-4.8
	c-28.5-11.5-49.6-36.4-55.6-65.6c-0.1-0.5-0.7-20.9-0.6-21.4c4.3-27,24.2-42.7,52.4-41.5c0.5,0,21.1,4.6,21.6,4.8
	c28.5,11.5,49.6,36.4,55.6,65.6C1214.9,51.4,1215.5,71.9,1215.4,72.3z M1137,48.9c0,8.4,2.1,17,4.7,25.6c0.2,0.7,0.4,1.5,1.4,1.6
	c3.3,0.6,6.5,2.4,9.7,3.9c6.6,2.9,13.2,5.7,19.9,6.2c6.3,0.5,9.2-1.6,10-7.2c0.1-0.8,0.7-1,1.2-1.4c2.7-1.9,3.7-4.7,2.7-8.5
	c-0.3-1.1-0.3-1.9,0.3-2.7c1.9-2.9,2-6.4-0.3-10.2c-0.5-0.8-0.5-1.3-0.3-2.1c1.6-5.6-1.2-10-7.4-12.3c-2.9-1.1-5.8-1.2-8.7-2.3
	c-3.3-1.2-3.2-1.1-2-3.9c1.1-2.6,2.8-4.8,3.5-7.7c1.3-5.2-0.8-11.9-4.8-15.2c-4.2-3.5-7.8-2.4-7.9,2.4c0,1.6,0.3,3.3-0.5,4.6
	c-2.4,4.1-5.2,7.9-9.1,10.5c-3,1.9-5.4,4.4-7.1,7.6c-0.6,1.2-1.2,2.6-2.6,2.7c-2.8,0.2-2.8,2.3-2.8,4.5
	C1136.9,46.3,1136.9,47.6,1137,48.9z M1125,37.1c0,0.1,0,0.2,0,0.3c-2.8-0.6-5.5-1.4-8.3-1.8c-2.6-0.4-4,0.8-4.1,3.4
	c-0.3,10.7,1.7,21.5,5.5,32.5c1.2,3.5,4.2,5.8,7.6,5.7c4,0,8-0.2,12-0.2c1.4,0,1.8-0.5,1.3-2.1c-3.7-11.5-5.9-22.9-5-34
	c0.1-1.5-0.5-2-1.9-2.2C1129.8,38.3,1127.4,37.7,1125,37.1z"/>
<path id="XMLID_14901_" class="st4" d="M1128.8,73.4c-1.5-0.4-2.8-2.2-2.8-3.7c0-1.6,1.5-2.7,3.1-2.2c1.5,0.4,2.8,2.2,2.9,3.7
	C1131.9,72.8,1130.3,73.9,1128.8,73.4z"/>
</svg>
