<?xml version="1.0" encoding="utf-8"?>
<!-- Generator: Adobe Illustrator 19.0.0, SVG Export Plug-In . SVG Version: 6.00 Build 0)  -->
<svg version="1.1" id="Layer_1" xmlns="http://www.w3.org/2000/svg" xmlns:xlink="http://www.w3.org/1999/xlink" x="0px" y="0px"
	 viewBox="1060 -110 250 250" style="enable-background:new 1060 -110 250 250;" xml:space="preserve">
<style type="text/css">
	.st0{fill:#F2F2F2;}
	.st1{fill:#C0BFBF;}
	.st2{fill:#E5E5E5;}
</style>
<g id="XMLID_1_">
	<g id="XMLID_10335_">
		<polygon id="XMLID_14868_" class="st0" points="1295.7,-43.5 1291.6,106.9 1147.7,137.8 1125.5,48.2 1147.5,-14.8 		"/>
		<polygon id="XMLID_12513_" class="st1" points="1147.5,-14.8 1147.7,137.8 1078.3,70 1078,-75.7 		"/>
		<polygon id="XMLID_12508_" class="st2" points="1295.7,-43.5 1147.5,-14.8 1078,-75.7 1216.4,-105.1 		"/>
	</g>
	<g id="XMLID_9429_">
		<path id="XMLID_12511_" d="M1188.8,47.6c8.2-2.3,16.6,1.8,17.2,11.8c0.6,8.4-6.6,18.3-15.1,21.2c-10,3.4-17.7-2.1-18.6-10.5
			C1171.5,60.4,1179.2,50.2,1188.8,47.6z"/>
		<polygon id="XMLID_10390_" points="1194,44 1184.4,46.3 1184.4,-12.3 1194.1,-14.7 		"/>
		<polygon id="XMLID_10384_" points="1233.2,4.8 1223.5,7.2 1223.6,-18.5 1233.2,-20.8 		"/>
		<polygon id="XMLID_10383_" points="1194,115.4 1184.3,117.8 1184.3,83.3 1194,80.9 		"/>
		<path id="XMLID_10382_" d="M1264.3,33.8c8.2-2.6,16.6,1.3,17.3,11.3c0.6,8.3-6.6,18.6-15.1,21.7c-10,3.7-17.7-1.4-18.5-9.9
			C1247,47.2,1254.7,36.7,1264.3,33.8z"/>
		<polygon id="XMLID_10381_" points="1269.5,30.5 1259.8,32.1 1259.9,-26.5 1269.6,-28.2 		"/>
		<polygon id="XMLID_10380_" points="1269.4,102.9 1259.7,104.9 1259.8,70.4 1269.4,68.4 		"/>
		<path id="XMLID_10338_" d="M1227.6,8.6c8.2-2.3,16.6,1.8,17.2,11.8c0.6,8.4-6.6,18.3-15.1,21.2c-10,3.4-17.7-2.1-18.6-10.5
			C1210.3,21.4,1218,11.1,1227.6,8.6z"/>
		<polygon id="XMLID_10337_" points="1232.7,110.6 1223,112.9 1223.1,45.8 1232.8,43.4 		"/>
	</g>
</g>
</svg>
