<?xml version="1.0" encoding="utf-8"?>
<!-- Generator: Adobe Illustrator 19.0.0, SVG Export Plug-In . SVG Version: 6.00 Build 0)  -->
<svg version="1.1" id="Layer_1" xmlns="http://www.w3.org/2000/svg" xmlns:xlink="http://www.w3.org/1999/xlink" x="0px" y="0px"
	 viewBox="1060 -110 250 250" style="enable-background:new 1060 -110 250 250;" xml:space="preserve">
<style type="text/css">
	.st0{fill:#F2F2F2;}
	.st1{fill:#C0BFBF;}
	.st2{fill:#E5E5E5;}
	.st3{fill:none;stroke:#000000;stroke-width:2;stroke-miterlimit:10;}
</style>
<g id="XMLID_14892_">
	<polygon id="XMLID_14899_" class="st0" points="1073.1,-45.1 1078.6,107.3 1224.7,137.4 1246.4,46.4 1223.7,-17.2 	"/>
	<polygon id="XMLID_14896_" class="st1" points="1223.7,-17.2 1224.7,137.4 1294.5,68.1 1293.6,-79.5 	"/>
	<polygon id="XMLID_14893_" class="st2" points="1073.1,-45.1 1223.7,-17.2 1293.6,-79.5 1153.1,-108.3 	"/>
</g>
<path id="XMLID_10369_" class="st3" d="M1090.7,31.9c0-1,0-2.1,0-3.1c0.5-2.9,2.2-4.9,4-6.9c0.8-0.9,1.7-1.7,2.3-2.7
	c0.8-1.4,1.8-2.8,2-4.5c0.4-2.8,0.2-5.9,0.2-8.8c0-5.4,3.1-9,8.2-9.5c2.1-0.2,4.1-0.4,6.2-0.6c2.7-0.2,4.7-1.3,6.3-3.2
	c1.3-1.6,2.6-3.2,4.1-4.7c2.9-3,6.7-3.8,11.2-1.9c2.8,1.2,5.5,2.9,8.3,4.4c2.5,1.4,5,1.9,7.4,1.7c2.2-0.2,4.4-0.5,6.6-0.7
	c5.1-0.4,10,2.3,13.2,7.3c1.3,2.1,2.6,4.1,3.9,6.2c1.6,2.7,3.8,4.7,6.5,6.1c2.3,1.2,4.5,2.4,6.8,3.7c4.2,2.5,6.9,6.1,7.6,10.7
	c0.4,3,0.3,5.9,0.3,8.8c0,2.8,0.8,5.5,2.5,8.1c1.3,2.1,2.7,4.2,4,6.3c3.1,5,3.1,10.2,0.1,13.8c-1.3,1.6-2.7,3.1-4,4.6
	c-1.6,1.8-2.4,4-2.3,6.7c0,2.3,0,4.6,0,6.9c0,5.1-3,8.6-7.8,9.2c-2.2,0.3-4.4,0.5-6.5,0.6c-2.8,0.2-4.9,1.3-6.6,3.3
	c-1.3,1.6-2.6,3.1-3.9,4.6c-3,3.3-8,3.8-12.8,1.2c-2.3-1.2-4.5-2.5-6.8-3.7c-2.5-1.4-5-2-7.5-1.7c-2.1,0.2-4.2,0.4-6.3,0.6
	c-5.3,0.5-10.3-2.2-13.6-7.5c-1.3-2.1-2.6-4.2-3.9-6.3c-1.6-2.5-3.6-4.4-6.1-5.8c-2.1-1.1-4.2-2.3-6.4-3.4c-3.1-1.7-5.6-4-6.9-7.3
	c-0.8-1.8-1.2-3.7-1.4-5.5c-0.2-2.4-0.1-4.7-0.1-7.1c0-2.7-0.9-5.3-2.4-7.9C1094.7,40.2,1091.5,36.5,1090.7,31.9z"/>
<path id="XMLID_10368_" class="st3" d="M1108.2,34.3c0.1,21.8,17.9,43.4,39.7,48.3c21.7,4.9,39.4-8.8,39.3-30.5
	c-0.1-21.7-17.9-43.3-39.7-48.3C1125.8-1.2,1108.1,12.5,1108.2,34.3z"/>
<path id="XMLID_10367_" d="M1170.2,31c-0.9-0.8-1.6-0.5-2.3,0c-5.8,4.3-11.6,8.6-17.3,13.1c-2.6,2-5,4.4-7.6,6.6
	c-0.3-0.3-0.5-0.6-0.8-0.9c-4.9-5.1-9.9-10.2-14.8-15.3c-0.8-0.8-1.7-1.5-2.5-0.9c-0.8,0.6,0,1.5,0.5,2.3c4.6,7.4,9.7,14.6,15,21.6
	c0.2,0.3,0.4,0.5,0.6,0.8c1.8,1.9,3.7,2.1,5.5,0.5c8.7-7.4,16.2-15.9,23.4-24.7c0.2-0.2,0.4-0.5,0.5-0.8
	C1170.8,32.6,1171.1,31.8,1170.2,31z"/>
</svg>
