<?xml version="1.0" encoding="utf-8"?>
<!-- Generator: Adobe Illustrator 19.1.0, SVG Export Plug-In . SVG Version: 6.00 Build 0)  -->
<svg version="1.1" id="Layer_1" xmlns="http://www.w3.org/2000/svg" xmlns:xlink="http://www.w3.org/1999/xlink" x="0px" y="0px"
	 viewBox="-354 156 250 250" style="enable-background:new -354 156 250 250;" xml:space="preserve">
<style type="text/css">
	.st0{fill:#F2F2F2;}
	.st1{fill:#C0BFBF;}
	.st2{fill:#E5E5E5;}
	.st3{fill:#010101;}
</style>
<g>
	<g id="XMLID_1_">
		<polygon id="XMLID_14868_" class="st0" points="-117.1,220 -121.1,373.7 -268.2,405.5 -291,314 -268.6,249.5 		"/>
		<polygon id="XMLID_12513_" class="st1" points="-268.6,249.5 -268.2,405.5 -339.3,336.3 -339.7,187.4 		"/>
		<polygon id="XMLID_12508_" class="st2" points="-117.1,220 -268.6,249.5 -339.7,187.4 -198.3,157 		"/>
	</g>
	<path id="XMLID_14876_" class="st3" d="M-127.9,301.1c-0.1,7.5,0,14.9-0.3,22.5c-0.1,1.9-1,4.5-2.3,6.1
		c-10.3,12.7-20.8,25.2-31.4,37.8c-1.3,1.6-3.6,2.9-5.5,3.3c-14.6,2.9-29.3,5.6-44,8.1c-1.8,0.3-4.1-0.2-5.4-1.3
		c-10.4-8.6-20.7-17.4-30.8-26.2c-1.2-1-2.1-2.8-2.2-4.4c-0.2-14.9-0.1-29.8-0.2-44.7c0-3.1,0.9-5.5,3.1-8.1
		c10.4-12.3,20.5-24.7,31-37c1.6-1.9,4.3-3.6,6.5-4.1c14.2-2.9,28.5-5.5,42.8-7.9c2.1-0.4,4.6,0.3,6.2,1.5c10.1,8.4,20,17.1,30,25.5
		c2.2,1.8,3,3.9,2.8,7C-127.8,286.4-127.7,293.7-127.9,301.1L-127.9,301.1z M-131.3,301.7L-131.3,301.7c0.1-7.2,0.2-14.4,0.1-21.6
		c0-1.6-0.5-3.5-1.6-4.4c-9.7-8.5-19.6-16.7-29.5-24.9c-1.3-1.1-3.6-1.6-5.5-1.3c-13.6,2.3-27.1,4.8-40.8,7.5
		c-1.8,0.4-4.1,1.8-5.4,3.4c-9.9,11.5-19.6,23.3-29.1,35c-1.4,1.7-2.3,4.4-2.3,6.5c-0.4,14.1-0.6,28.1-0.6,42c0,1.8,0.9,3.8,2.1,4.9
		c9.4,8.4,19.1,16.6,28.8,24.7c1.3,1.1,3.6,1.6,5.4,1.3c13.7-2.3,27.4-4.8,41.2-7.5c1.9-0.4,4.2-1.8,5.5-3.3
		c9.9-11.5,19.6-23.3,29.2-35c1.4-1.7,2.3-4.4,2.4-6.5C-131.3,315.5-131.4,308.6-131.3,301.7z"/>
	<g id="XMLID_14873_">
		<path id="XMLID_14874_" class="st3" d="M-198.8,333.7l8.9-1.7l0.3-29.3l-8.5,4.4l0.1-10.5l19.7-11.2l-0.4,44.3l8.3-1.6l-0.1,9.9
			l-28.3,5.7L-198.8,333.7z"/>
	</g>
</g>
</svg>
