<?xml version="1.0" encoding="utf-8"?>
<!-- Generator: Adobe Illustrator 19.0.0, SVG Export Plug-In . SVG Version: 6.00 Build 0)  -->
<svg version="1.1" id="Layer_1" xmlns="http://www.w3.org/2000/svg" xmlns:xlink="http://www.w3.org/1999/xlink" x="0px" y="0px"
	 viewBox="1060 -110 250 250" style="enable-background:new 1060 -110 250 250;" xml:space="preserve">
<style type="text/css">
	.st0{fill:#F2F2F2;}
	.st1{fill:#C0BFBF;}
	.st2{fill:#E5E5E5;}
	.st3{fill:none;stroke:#000000;stroke-width:2;stroke-miterlimit:10;}
	.st4{fill:none;stroke:#000000;stroke-miterlimit:10;}
</style>
<g id="XMLID_3_">
	<polygon id="XMLID_6_" class="st0" points="1297.5,-42.8 1290.6,109.3 1144.4,138 1123.6,46.9 1146.9,-16.4 	"/>
	<polygon id="XMLID_5_" class="st1" points="1146.9,-16.4 1144.4,138 1075.4,68.1 1077.7,-79.4 	"/>
	<polygon id="XMLID_4_" class="st2" points="1297.5,-42.8 1146.9,-16.4 1077.7,-79.4 1218.4,-106.7 	"/>
</g>
<path id="XMLID_10333_" class="st3" d="M1210.7,59.9c-2.3-0.7-4.6-1.4-6.7-2.5c-1-0.5-1.9-0.2-2.8,0.8c-1,1.3-2.1,2.7-3.1,4
	c-0.7,1-1.5,1.3-2.6,1c-6-1.9-10.5-5.6-13.5-11c-0.5-1-0.3-1.8,0.5-2.7c1.2-1.3,2.3-2.5,3.4-3.8c0.7-0.8,1-1.7,0.4-2.5
	c-1.4-2.2-2.8-4.4-4.2-6.5c-0.4-0.6-0.8-1.1-1.8-0.9c-2.2,0.5-4.2,1.4-5.6,3.5c-2.3,3.6-3.2,7.2-2.1,10.9
	c2.8,9.9,9.4,16.1,18.4,19.9c3.6,1.5,7.6,2,11.1,1.7c5-1,8.9-4.4,9.9-8.1c0.1-0.5,0.2-1,0.3-1.5
	C1212.3,61.1,1211.9,60.3,1210.7,59.9z"/>
<path id="XMLID_9262_" class="st3" d="M1264.1,46.4c-3-1.6-6.6-1.9-10.1-2.2c-6.2,0.5-12.2,2.2-17.9,6.2
	c-10.6,7.6-11.4,18.3-1.9,23.5c0.1,0,0.1,0.1,0.2,0.1c1.2,0.3,1.1,1.2,0.7,2.3c-0.8,2.1-2,3.9-3.4,5.7c-0.5,0.7-1.3,1.5-0.6,2.2
	c0.5,0.6,1.3,0.2,2-0.1c4-1.7,7.8-3.9,11.1-7.1c1-1,2.1-1.6,3.4-1.7c5.9-0.7,11.4-3.1,16.4-7.2c0.3-0.3,0.6-0.7,0.9-1
	C1272.6,59.3,1272.3,50.7,1264.1,46.4z"/>
<path id="XMLID_9261_" class="st3" d="M1249,100.7c-17.1,3.3-31.6-5.4-36.1-20.2c-5.7,4.9-12.6,8.4-20,9.8
	c-20.2,3.9-36.5-9.3-36.5-29.5s16.4-39.7,36.5-43.6c3.8-0.7,7.4-0.8,10.8-0.5c1-15.3,13.5-29.7,28.9-32.6c16-3.1,29,7.4,29,23.4
	c0,6-1.8,12-5,17.2c17.2,0.2,30.1,12.9,30.1,31.1C1286.6,76.6,1269.8,96.7,1249,100.7z"/>
<path id="XMLID_9238_" class="st4" d="M1224.3,20.2c-6,1.2-12,2.3-17.9,3.5c-1.4,0.3-2,1-2,2.3c0,4,0,8,0,12.1c0,0.2,0,0.4,0,0.6
	c-0.1,1,0.5,1.4,1.8,1c0.1,0,0.2,0,0.2,0c2.9-0.6,5.9-1.2,8.8-1.7c3-0.6,6-1.2,9-1.7c1.4-0.2,2-0.9,2-2.3c0-4,0-8,0-12.1
	C1226.2,20.5,1225.6,19.9,1224.3,20.2z M1223.1,32.7c0,0.5-0.2,0.8-0.8,0.9c-5,0.9-10,2.2-15.1,2.7c0-2.2,0-4.3,0-6.8
	c1.9,0.7,3.7,1.2,5.3,2c1.8,1,3.5,0.8,5.4-1c1.3-1.3,2.9-2.2,4.4-3.3c0.6,0,0.8,0.2,0.8,0.8C1223.1,29.7,1223.1,31.2,1223.1,32.7z
	 M1215.6,30c-0.2,0.1-0.5,0.2-0.6,0.1c-2.6-1.1-5.4-1.7-7.7-3.2c0.3-0.6,0.8-0.6,1.3-0.7c4.5-0.9,8.9-1.7,13.4-2.6
	c0.5-0.1,1-0.2,1.3,0.2C1220.9,26.2,1218.1,28,1215.6,30z"/>
<path id="XMLID_9196_" class="st4" d="M1248-5.5c-4.2,0.8-8.4,1.6-12.6,2.4c-0.4,0.1-0.8,0.2-1.2,0.4c-1,0.6-1.6,1.6-1.6,2.8
	c0,4.7,0,9.4,0,14.1s0,9.4,0,14.1c0,1.8,0.9,2.6,2.7,2.3c4.2-0.8,8.5-1.6,12.7-2.5c1.8-0.3,2.7-1.5,2.7-3.3c0-9.3,0-18.7,0-28
	C1250.8-5.1,1249.8-5.9,1248-5.5z M1241.7,28.2c-0.9,0.2-1.6-0.4-1.6-1.3s0.7-1.7,1.6-1.9c0.8-0.2,1.6,0.4,1.6,1.3
	C1243.3,27.2,1242.6,28,1241.7,28.2z M1249.2,21.3c0,1-0.3,1.3-1.3,1.5c-4.1,0.8-8.3,1.6-12.4,2.4c-1.2,0.2-1.4,0-1.4-1.1
	c0-4,0-8,0-12c0-4,0-7.9,0-11.9c0-1.2,0.2-1.5,1.5-1.7c4.1-0.8,8.2-1.6,12.4-2.4c1-0.2,1.3,0,1.3,1
	C1249.2,5.1,1249.2,13.2,1249.2,21.3z"/>
</svg>
