<?xml version="1.0" encoding="utf-8"?>
<!-- Generator: Adobe Illustrator 19.0.0, SVG Export Plug-In . SVG Version: 6.00 Build 0)  -->
<svg version="1.1" id="Layer_1" xmlns="http://www.w3.org/2000/svg" xmlns:xlink="http://www.w3.org/1999/xlink" x="0px" y="0px"
	 viewBox="1060 -110 250 250" style="enable-background:new 1060 -110 250 250;" xml:space="preserve">
<style type="text/css">
	.st0{fill:#F2F2F2;}
	.st1{fill:#C0BFBF;}
	.st2{fill:#E5E5E5;}
</style>
<g id="XMLID_14892_">
	<polygon id="XMLID_14899_" class="st0" points="1075.2,-44.4 1080,106.9 1224.9,137.5 1246.9,47.2 1224.5,-16 	"/>
	<polygon id="XMLID_14896_" class="st1" points="1224.5,-16 1224.9,137.5 1294.5,69 1294.2,-77.6 	"/>
	<polygon id="XMLID_14893_" class="st2" points="1075.2,-44.4 1224.5,-16 1294.2,-77.6 1154.8,-106.8 	"/>
</g>
<g id="XMLID_14898_">
	<path id="XMLID_15249_" d="M1213.5,49.1c3.1,1.2,3.1,1.2,3,4.5c-0.1,9.3-0.3,18.5-0.4,27.8c0,2.7-0.3,2.8-2.9,2.3
		c-3-0.6-6.1-1.2-9.1-1.9c-1.6-0.4-2.3-0.1-3,1.3c-9.2,18.7-24.8,28.2-47,27.3c-29.8-1.2-58.8-26.7-66.2-57.7
		c-8.7-36.4,14.6-66.9,49.9-64.7c22.7,1.4,41.2,13.2,55.6,33.7c0.9,1.3,1.6,1.8,3.1,1.8c9,0.3,17.6,9.9,17.1,19
		C1213.5,44.7,1213.5,46.9,1213.5,49.1z M1117.6,89.8c0.6-6.1,1.1-12,1.6-17.9c0.8-9,6.5-14.9,15.4-15.5c6.8-0.5,13.8,1,20.6,3.9
		c9.1,3.8,14.8,10.7,16.2,20.3c0.7,4.4,0.7,8.8,1,13.1c0.2,2.5,0.3,5,0.5,7.8c10.6-4.2,18.1-11.2,23-21.6c-5-1-9.7-2-14.4-3
		c-2.4-0.5-2.7-0.8-2.6-3.2c0.1-9,0.3-18,0.4-27c0.1-4.8-0.4-4.6,4.3-3.8c0.1,0,0.2-0.1,0.6-0.2c-0.1-6.7-0.7-13.8,5.6-17.4
		c-12.6-20.2-34.8-33-56.9-31.9c-23.1,1.2-39,17-40.9,40.9C1090.1,56.1,1101.6,77.5,1117.6,89.8z M1206.7,47.8
		c0-3.1,0.3-6.1,0.1-9.2c-0.3-4-3.2-7.1-7.1-8.2c-4.1-1.1-7.7,0.1-8.4,3.4c-0.7,3.3-0.6,6.9-0.9,10.4
		C1196.1,45.6,1201.3,46.7,1206.7,47.8z"/>
	<path id="XMLID_15167_" d="M1165.1,35.4c-0.1,10.4-8.9,17.2-19.3,15.1c-10.4-2.2-18.8-12.7-18.7-23.1c0.2-10.4,8.9-17.1,19.4-14.9
		C1156.8,14.6,1165.3,25.1,1165.1,35.4z"/>
</g>
</svg>
