<?xml version="1.0" encoding="utf-8"?>
<!-- Generator: Adobe Illustrator 19.1.0, SVG Export Plug-In . SVG Version: 6.00 Build 0)  -->
<svg version="1.1" id="Layer_1" xmlns="http://www.w3.org/2000/svg" xmlns:xlink="http://www.w3.org/1999/xlink" x="0px" y="0px"
	 viewBox="-354 156 250 250" style="enable-background:new -354 156 250 250;" xml:space="preserve">
<style type="text/css">
	.st0{fill:#F2F2F2;}
	.st1{fill:#C0BFBF;}
	.st2{fill:#E5E5E5;}
	.st3{enable-background:new    ;}
</style>
<g id="XMLID_66_">
	<g id="XMLID_14892_">
		<polygon id="XMLID_14899_" class="st0" points="-339,221.1 -334.3,372.8 -189,403.5 -166.9,313 -189.3,249.5 		"/>
		<polygon id="XMLID_14896_" class="st1" points="-189.3,249.5 -189,403.5 -119.1,334.8 -119.4,187.8 		"/>
		<polygon id="XMLID_14893_" class="st2" points="-339,221.1 -189.3,249.5 -119.4,187.8 -259.2,158.5 		"/>
	</g>
	<g id="XMLID_14895_">
		<path id="XMLID_15356_" d="M-278.4,256.6c13.3,10.2,26.4,20.3,39.5,30.4c-2.6,2.1-6.1,2.1-9.3-0.5c-5.1-4.1-10.2-8.4-15.2-12.7
			c-6.4-5.4-12.7-10.8-19.7-15.1c-1.1-0.7-2.3-1.3-3.5-2c-3.8-2-6.2-5.7-6.2-9.6c0-3.6,2.5-6.3,6.1-6.5c3.5-0.2,7.4,2.1,9.4,5.6
			c2.1,3.6,1.8,7.5-0.8,9.9C-278,256.2-278.1,256.3-278.4,256.6z M-284.4,244.6c-2.5-0.5-4.5,1.1-4.4,3.6c0.1,2.4,2.2,4.9,4.6,5.4
			c2.5,0.5,4.5-1.2,4.4-3.6C-279.8,247.5-281.9,245.1-284.4,244.6z"/>
		<path id="XMLID_15353_" d="M-273.9,266.9c-1.5,0.6-2.7,1-4.1,1.6c1.6,2.1,2.7,4.3,2.7,6.6c0.1,4.4-3,7.3-7.5,6.9
			c-4.1-0.4-8.2-4.1-9.2-8.7c-1-4.2,1.5-7.8,5.4-8.4c2.4-0.3,4.7-0.9,7.1-1.3c0.5-0.1,1.1,0.1,1.5,0.4
			C-276.6,264.8-275.4,265.8-273.9,266.9z M-283.8,269c-2.5-0.5-4.4,1.1-4.4,3.6c0.1,2.4,2.2,4.9,4.6,5.4c2.5,0.5,4.5-1.2,4.4-3.6
			C-279.2,271.8-281.3,269.5-283.8,269z"/>
		<path id="XMLID_15352_" d="M-270.6,260.4c1.4-0.6,2.7-1.2,4-1.8c4.9-2.2,9.8-4.5,14.7-6.7c0.8-0.4,1.8-0.6,2.6-1
			c2.5-1.2,5-0.5,7.6,1.5c0.7,0.5,1.4,1,2.1,1.7c-0.4,0.2-0.7,0.3-1,0.4c-8.2,3.1-16.3,6.1-24.5,9.2c-0.7,0.2-1.2,0.2-1.9-0.4
			C-268,262.3-269.2,261.4-270.6,260.4z"/>
		<path id="XMLID_15351_" d="M-314.3,360.9c0.8,0.2,1.6,0.3,2.3,0.5c1.3,0.4,2.2,1.5,2.2,2.8c0,1.2-0.9,1.9-2.2,1.6
			c-1.4-0.3-2.8-0.6-4.3-0.9s-2.4-1.3-2.5-2.7c-0.1-1.5-0.1-3-0.1-4.5c0-1.3,1-2,2.2-1.8c1.3,0.3,2.2,1.5,2.3,2.9
			C-314.3,359.5-314.3,360.1-314.3,360.9z"/>
		<path id="XMLID_15350_" d="M-209.1,382.5c0-0.8-0.1-1.5,0-2.2c0-1.2,0.9-2,2.1-1.8c1.1,0.2,2.3,1.3,2.4,2.5
			c0.1,1.6,0.2,3.3,0.1,4.9c-0.1,1.3-0.9,1.8-2.3,1.5s-2.8-0.6-4.3-0.9c-1.4-0.3-2.3-1.3-2.4-2.6c-0.1-1.3,0.8-2,2.2-1.8
			C-210.6,382.2-210,382.3-209.1,382.5z"/>
		<path id="XMLID_15349_" d="M-316.8,256.6c0,0.8,0.1,1.5,0,2.1c0,1.3-0.8,2-2,1.8c-1.3-0.2-2.3-1.2-2.5-2.6
			c-0.1-1.6-0.2-3.2-0.1-4.7c0.1-1.2,0.8-1.8,2.1-1.6c1.5,0.2,3.1,0.6,4.6,1c1.4,0.4,2.2,1.5,2.2,2.8c0,1.2-0.9,1.9-2.2,1.6
			C-315.3,256.9-316,256.8-316.8,256.6z"/>
		<path id="XMLID_15348_" d="M-211.6,278.2c-0.9-0.2-1.6-0.3-2.3-0.5c-1.2-0.3-2.1-1.3-2.2-2.5c-0.1-1.3,0.6-2.1,1.9-1.9
			c1.6,0.2,3.3,0.6,4.9,1c1.2,0.3,2,1.3,2.1,2.6c0.1,1.5,0.2,3,0.1,4.5c0,1.4-1,2-2.3,1.7c-1.2-0.3-2.1-1.4-2.2-2.8
			C-211.6,279.7-211.6,279-211.6,278.2z"/>
		<path id="XMLID_15347_" d="M-314.7,343.6c0,0.7,0.1,1.5,0,2.2c-0.1,1.2-1,1.9-2.1,1.8c-1.1-0.2-2.2-1.2-2.3-2.4
			c-0.1-1.7-0.2-3.4-0.1-5.1c0.1-1.2,1.1-1.7,2.3-1.4c1.1,0.3,2.1,1.3,2.2,2.5C-314.7,342-314.7,342.8-314.7,343.6z"/>
		<path id="XMLID_15346_" d="M-211.2,295.6c0-0.7-0.1-1.5,0-2.2c0-1.2,0.9-2,2.1-1.8c1.2,0.2,2.2,1.2,2.4,2.5
			c0.1,1.6,0.2,3.3,0.1,4.8c-0.1,1.2-1.1,1.9-2.3,1.6c-1.2-0.3-2.1-1.5-2.2-2.8C-211.2,297-211.2,296.3-211.2,295.6z"/>
		<path id="XMLID_15345_" d="M-315.6,308.7c0,0.8,0.1,1.5,0,2.3c-0.1,1.2-0.9,1.9-2.1,1.7c-1.1-0.1-2.2-1.2-2.4-2.4
			c-0.2-1.8-0.2-3.5-0.1-5.2c0.1-1.2,1.1-1.7,2.3-1.3c1.1,0.3,2,1.4,2.1,2.6C-315.6,307.2-315.6,308-315.6,308.7z"/>
		<path id="XMLID_15344_" d="M-315.1,326.2c0,0.7,0.1,1.5,0,2.2c0,1.3-0.9,1.9-2.1,1.8c-1.2-0.2-2.2-1.2-2.4-2.5
			c-0.1-1.6-0.2-3.3-0.1-4.8c0.1-1.2,1.1-1.9,2.3-1.6c1.2,0.3,2.1,1.5,2.2,2.8C-315.1,324.7-315.2,325.4-315.1,326.2z"/>
		<path id="XMLID_15343_" d="M-205.9,331.3c0,0.8,0.1,1.6,0,2.3c-0.1,1.2-1.1,1.9-2.2,1.7c-1.2-0.3-2.2-1.4-2.3-2.7
			c-0.1-1.5-0.1-2.9-0.1-4.4c0-1.3,0.8-2,2-1.8c1.2,0.2,2.3,1.2,2.5,2.6C-205.8,329.7-205.9,330.5-205.9,331.3z"/>
		<path id="XMLID_15342_" d="M-316.4,274c0,0.7,0.1,1.5,0,2.2c0,1.3-0.9,2-2,1.9c-1.1-0.1-2.3-1.2-2.4-2.5c-0.1-1.7-0.2-3.3-0.1-5
			c0.1-1.2,1.1-1.8,2.3-1.5c1.2,0.3,2.1,1.4,2.2,2.7C-316.4,272.5-316.4,273.2-316.4,274z"/>
		<path id="XMLID_15341_" d="M-205,366c0,0.8,0.1,1.6,0,2.3c-0.1,1.3-1.1,2-2.3,1.7c-1.2-0.3-2.2-1.5-2.2-2.8
			c-0.1-1.4-0.1-2.8-0.1-4.3c0-1.3,0.9-2.1,2.1-1.9c1.3,0.2,2.2,1.2,2.4,2.6C-205,364.5-205,365.3-205,366z"/>
		<path id="XMLID_15340_" d="M-205.4,348.7c0,0.8,0.1,1.6,0,2.3c-0.1,1.3-1,1.9-2.3,1.6c-1.2-0.3-2.1-1.4-2.2-2.8
			c-0.1-1.4-0.1-2.8-0.1-4.3c0-1.3,0.9-2.1,2.1-1.9c1.2,0.2,2.2,1.3,2.4,2.6C-205.4,347.2-205.4,347.9-205.4,348.7L-205.4,348.7z"/>
		<path id="XMLID_15339_" d="M-210.8,312.9c0-0.7-0.1-1.4,0-2.1c0-1.3,0.9-2.1,2.1-1.9c1.2,0.2,2.2,1.2,2.4,2.5
			c0.1,1.6,0.2,3.3,0.1,4.8c-0.1,1.3-1.1,1.9-2.4,1.5c-1.2-0.3-2-1.4-2.1-2.7C-210.8,314.4-210.8,313.7-210.8,312.9z"/>
		<path id="XMLID_15338_" d="M-316,291.4c0,0.8,0.1,1.5,0,2.3c-0.1,1.2-0.9,1.9-2.1,1.7s-2.2-1.1-2.3-2.3c-0.2-1.8-0.2-3.5-0.1-5.2
			c0.1-1.1,1.1-1.6,2.2-1.4c1.1,0.3,2.1,1.3,2.2,2.5C-316,289.8-316,290.6-316,291.4L-316,291.4z"/>
		<path id="XMLID_15337_" d="M-296.7,368.9c-0.8-0.2-1.5-0.3-2.3-0.5c-1.2-0.3-2.2-1.5-2.2-2.6c-0.1-1.2,0.8-2,2.1-1.8
			c1.6,0.3,3.2,0.6,4.8,1c1.2,0.3,2.2,1.5,2.2,2.7c0,1.2-0.9,1.9-2.1,1.7C-295.1,369.3-295.9,369.1-296.7,368.9z"/>
		<path id="XMLID_15336_" d="M-226.6,383.3c-0.7-0.1-1.5-0.3-2.2-0.5c-1.3-0.3-2.2-1.4-2.3-2.6c-0.1-1.2,0.8-2,2-1.8
			c1.6,0.3,3.3,0.6,4.9,1c1.2,0.3,2.1,1.5,2.1,2.6c0,1.2-0.9,2-2.1,1.8C-225,383.7-225.8,383.5-226.6,383.3z"/>
		<path id="XMLID_15335_" d="M-244,379.7c-0.7-0.1-1.5-0.3-2.2-0.5c-1.3-0.3-2.3-1.4-2.4-2.6c-0.1-1.2,0.8-2,2.2-1.8
			c1.5,0.3,3.1,0.6,4.6,1c1.3,0.3,2.2,1.5,2.2,2.7c0,1.2-0.9,1.9-2.2,1.6C-242.5,380.1-243.3,379.9-244,379.7z"/>
		<path id="XMLID_15334_" d="M-247.3,270.9c-0.8-0.2-1.5-0.3-2.3-0.5c-1.2-0.3-2.1-1.3-2.2-2.5c-0.1-1.3,0.7-2.1,1.9-1.9
			c1.7,0.2,3.3,0.6,5,1c1.2,0.3,2.1,1.5,2,2.6c0,1.2-0.9,1.9-2.1,1.7C-245.7,271.3-246.5,271.1-247.3,270.9z"/>
		<path id="XMLID_15333_" d="M-229.5,274.6c-0.8-0.2-1.5-0.3-2.3-0.5c-1.2-0.3-2.1-1.4-2.2-2.5c-0.1-1.3,0.7-2.1,1.9-1.9
			c1.6,0.2,3.2,0.6,4.9,1c1.3,0.3,2.2,1.5,2.2,2.7s-0.9,1.9-2.2,1.7C-227.9,274.9-228.7,274.7-229.5,274.6z"/>
		<path id="XMLID_15332_" d="M-279.1,372.5c-0.8-0.2-1.5-0.3-2.3-0.5c-1.3-0.3-2.2-1.4-2.2-2.6c-0.1-1.2,0.8-2,2-1.8
			c1.6,0.3,3.2,0.6,4.8,1c1.2,0.3,2.2,1.5,2.2,2.6c0,1.2-0.9,1.9-2.2,1.7C-277.7,372.8-278.4,372.7-279.1,372.5z"/>
		<path id="XMLID_15331_" d="M-261.6,376.1c-0.8-0.2-1.5-0.3-2.3-0.5c-1.3-0.3-2.2-1.4-2.2-2.6c-0.1-1.2,0.7-2,2-1.8
			c1.6,0.3,3.2,0.6,4.7,1c1.3,0.3,2.1,1.4,2.1,2.6c0,1.3-0.9,2-2.2,1.7C-260.1,376.5-260.9,376.3-261.6,376.1z"/>
		<path id="XMLID_15330_" d="M-298.2,260.4c-0.8-0.2-1.5-0.3-2.3-0.5c-1.2-0.3-2.2-1.4-2.2-2.6c0-1.2,0.7-2,1.9-1.8
			c1.7,0.2,3.3,0.6,5,1c1.3,0.3,2.1,1.5,2,2.7c0,1.1-0.9,1.8-2.1,1.6C-296.7,260.8-297.5,260.6-298.2,260.4z"/>
	</g>
</g>
<g class="st3">
	<path d="M-289.6,312.4l-0.1-8.7l-3.6-0.7l0-1.6l9.3,1.7l0,1.6l-3.6-0.7l0.1,8.7L-289.6,312.4z"/>
	<path d="M-275,315.1l-0.9-2.2l-5.5-1l-0.9,1.8l-2.4-0.4l4.6-9.5l2.6,0.5l4.7,11.2L-275,315.1z M-278.6,305.9l-2.1,4.5l4.3,0.8
		L-278.6,305.9z"/>
	<path d="M-271.3,315.8l-0.1-10.3l2.1,0.4l0.1,10.3L-271.3,315.8z"/>
	<path d="M-266.8,316.6l-0.1-10.3l2.1,0.4l0.1,8.7l5.3,1l0,1.6L-266.8,316.6z"/>
	<path d="M-258.7,312.9c0-3.1,2.5-4.9,6.1-4.2c3.6,0.6,6.1,3.4,6.1,6.4s-2.5,4.9-6.1,4.2C-256.1,318.7-258.7,316-258.7,312.9z
		 M-248.6,314.7c0-2.1-1.6-4-4-4.4c-2.4-0.4-3.9,0.9-3.9,3c0,2.1,1.6,4,4,4.4C-250.2,318.2-248.6,316.8-248.6,314.7z"/>
	<path d="M-237.6,321.8l-2.7-4.3l-2.1-0.4l0,3.8l-2.1-0.4l-0.1-10.3l5.2,0.9c2.4,0.4,3.9,2,3.9,3.9c0,1.8-1.4,2.6-2.8,2.5l3,4.6
		L-237.6,321.8z M-237.5,314.8c0-1-0.9-1.8-2-2l-2.9-0.5l0,3.3l2.9,0.5C-238.3,316.3-237.5,315.8-237.5,314.8z"/>
</g>
<g class="st3">
	<path d="M-274.3,333.8l0-8l-3.6,7.3l-0.9-0.2l-3.7-8.6l0,8l-2.1-0.4l-0.1-10.3l3,0.5l3.3,7.7l3.2-6.5l3,0.5l0.1,10.3L-274.3,333.8z
		"/>
	<path d="M-261.3,336.1l-0.9-2.2l-5.5-1l-0.9,1.8l-2.4-0.4l4.6-9.5l2.6,0.5l4.7,11.2L-261.3,336.1z M-264.9,326.9l-2.1,4.5l4.3,0.8
		L-264.9,326.9z"/>
	<path d="M-257.6,336.8l-0.1-10.3l4.4,0.8c3.7,0.7,6.3,3.3,6.3,6.3c0,3-2.5,4.7-6.2,4L-257.6,336.8z M-249.1,333.2
		c0-2-1.5-3.8-4.1-4.3l-2.4-0.4l0,7.1l2.3,0.4C-250.6,336.4-249.1,335.1-249.1,333.2z"/>
	<path d="M-244.9,339.1l-0.1-10.3l8.2,1.5l0,1.6l-6.1-1.1l0,2.7l6,1.1l0,1.6l-6-1.1l0,2.9l6.1,1.1l0,1.6L-244.9,339.1z"/>
</g>
</svg>
