<?xml version="1.0" encoding="utf-8"?>
<!-- Generator: Adobe Illustrator 19.0.0, SVG Export Plug-In . SVG Version: 6.00 Build 0)  -->
<svg version="1.1" id="Layer_1" xmlns="http://www.w3.org/2000/svg" xmlns:xlink="http://www.w3.org/1999/xlink" x="0px" y="0px"
	 viewBox="1060 -110 250 250" style="enable-background:new 1060 -110 250 250;" xml:space="preserve">
<style type="text/css">
	.st0{fill:#F2F2F2;}
	.st1{fill:#C0BFBF;}
	.st2{fill:#E5E5E5;}
</style>
<g id="XMLID_1_">
	<g id="XMLID_10335_">
		<polygon id="XMLID_14868_" class="st0" points="1297,-44.7 1292.7,105.9 1148.6,136.7 1126.5,47 1148.5,-16.1 		"/>
		<polygon id="XMLID_12513_" class="st1" points="1148.5,-16.1 1148.6,136.7 1079.1,68.8 1079,-77.1 		"/>
		<polygon id="XMLID_12508_" class="st2" points="1297,-44.7 1148.5,-16.1 1079,-77.1 1217.6,-106.5 		"/>
	</g>
	<g id="XMLID_10053_">
		<path id="XMLID_10054_" d="M1207.6,84.9c0-1.7,0-3.4,0.1-5.2c0.2-6.3,0.4-12.6,0.6-18.9c0-0.9,0.3-1.3,1.3-1.6
			c7.2-1.9,14.5-3.9,21.7-5.9c0.4-0.1,0.8-0.2,1.3-0.3c-0.2,4-0.3,7.9-0.5,11.8c-0.2,4.1-0.5,8.1-0.7,12.2c0,0.6-0.1,1-0.9,1.2
			c-7.4,2.1-14.8,4.3-22.2,6.5C1208.1,84.9,1208,84.8,1207.6,84.9z"/>
		<path id="XMLID_10055_" d="M1259.3,45.6c-0.2,2.8-0.4,5.5-0.7,8.2c-0.5,5.1-1.1,10.2-1.5,15.3c-0.1,0.9-0.4,1.4-1.4,1.7
			c-7.1,2.1-14.3,4.2-21.4,6.4c-0.3,0.1-0.7,0.2-1.2,0.3c0.1-3.3,0.3-6.5,0.4-9.6c0.3-4.8,0.6-9.7,0.9-14.5c0-0.4,0.5-0.9,0.8-1.1
			c7.8-2.2,15.7-4.4,23.6-6.6C1259,45.6,1259.1,45.6,1259.3,45.6z"/>
		<path id="XMLID_10056_" d="M1234,27.9c-0.1,1.5-0.1,2.9-0.2,4.3c-0.4,5.9-0.7,11.8-1.1,17.7c0,0.4-0.4,1-0.7,1.1
			c-7.8,2.2-15.5,4.4-23.5,6.7c0-1-0.1-1.9-0.1-2.7c0.1-6.5,0.3-12.9,0.4-19.3c0-1.1,0.5-1.6,1.6-1.9c7.5-1.9,15-3.8,22.5-5.7
			C1233.2,28,1233.4,28,1234,27.9z"/>
		<path id="XMLID_10057_" d="M1261.5,21.1c-0.1,2-0.2,3.8-0.4,5.6c-0.5,5.3-1.1,10.7-1.6,16c-0.1,0.6-0.2,1-0.9,1.1
			c-7.8,2.2-15.6,4.3-23.5,6.5c-0.1,0-0.3,0-0.7,0.1c0.1-1.9,0.1-3.8,0.2-5.7c0.3-5.2,0.6-10.3,0.9-15.5c0.1-2,0.1-2,2.1-2.5
			c7.6-1.9,15.1-3.7,22.7-5.5C1260.8,21.2,1261,21.2,1261.5,21.1z"/>
		<path id="XMLID_10058_" d="M1207.1,112.6c0-3.9,0-7.6,0.1-11.4c0.1-4.5,0.3-8.9,0.4-13.4c0-0.6,0.1-1.1,0.9-1.3
			c7.4-2.1,14.8-4.3,22.2-6.4c0.1,0,0.1,0,0.4,0c0,1.4-0.1,2.8-0.1,4.2c-0.3,6.2-0.6,12.4-0.9,18.7c0,0.4-0.4,1-0.7,1.1
			c-7.2,2.8-14.4,5.6-21.6,8.4C1207.6,112.5,1207.4,112.5,1207.1,112.6z"/>
		<path id="XMLID_10059_" d="M1231.7,103c0.5-7.9,0.9-15.7,1.4-23.7c7.8-2.3,15.7-4.6,23.7-7c-0.2,3-0.4,5.7-0.6,8.5
			c-0.4,4.1-0.8,8.1-1.2,12.2c-0.1,0.6-0.1,1.2-0.9,1.4c-7.2,2.7-14.4,5.5-21.6,8.3C1232.2,102.9,1232,102.9,1231.7,103z"/>
		<path id="XMLID_10060_" d="M1258.9,69.9c0.1-1.6,0.2-3.1,0.4-4.6c0.6-6.4,1.3-12.8,1.9-19.2c0.1-0.6,0.1-1,0.9-1.2
			c6.4-1.7,12.8-3.5,19.3-5.2c0.1,0,0.3,0,0.6-0.1c0,0.3,0,0.6,0,0.9c-1.2,7.5-2.4,15.1-3.5,22.6c-0.1,0.9-0.5,1.3-1.4,1.5
			c-5.7,1.7-11.3,3.4-16.9,5.1C1259.7,69.7,1259.4,69.7,1258.9,69.9z"/>
		<path id="XMLID_10061_" d="M1285,4.2c-0.5,0.3-0.8,0.4-1.1,0.6c-5.7,2.3-11.4,4.7-17.2,7c-0.5,0.2-1.3,0.2-1.8,0.1
			c-4.5-1.4-9.1-2.9-13.6-4.4c-0.2-0.1-0.3-0.1-0.8-0.3c2.4-1.1,4.7-2.1,6.9-3.1c0-0.1,0-0.1-0.1-0.2c-0.4,0.1-0.9,0.2-1.3,0.3
			c-3.1,0.8-6.1,1.7-9.2,2.5c-0.4,0.1-1,0.2-1.2,0c-3.5-2.9-7.1-5.9-10.8-9c0.5-0.2,0.8-0.3,1.1-0.4c4.5-1.1,9.1-2.2,13.6-3.2
			c0.6-0.1,1.3,0,1.7,0.3c3.7,2.2,7.3,4.5,10.9,6.8c0.6,0.4,1,0.5,1.6,0.1c2.4-1.6,4.7-1.3,7.3-0.5c4.3,1.3,8.7,2.2,13.1,3.3
			C1284.5,4,1284.6,4.1,1285,4.2z"/>
		<path id="XMLID_10062_" d="M1285.3,6.3c-1.2,7.2-2.4,14.2-3.5,21.1c-0.1,0.3-0.3,0.7-0.5,0.8c-5.7,2.7-11.3,5.3-17.2,8
			c0.1-1.6,0.2-3,0.3-4.4c0.5-5.6,1-11.2,1.5-16.8c0-0.4,0.4-0.9,0.7-1c5.9-2.5,11.9-5,17.9-7.5C1284.5,6.5,1284.7,6.5,1285.3,6.3z"
			/>
		<path id="XMLID_10063_" d="M1278,66.3c-0.2,1.1-0.3,1.9-0.5,2.8c-0.8,5.3-1.7,10.6-2.5,15.8c-0.1,0.9-0.6,1.4-1.5,1.7
			c-5.2,2-10.4,4.1-15.5,6.1c-0.4,0.2-0.8,0.3-1.3,0.5c0-0.4-0.1-0.8,0-1.1c0.6-6.6,1.3-13.1,2-19.7c0-0.3,0.4-0.8,0.7-0.9
			c5.9-1.7,11.8-3.4,17.8-5.1C1277.2,66.4,1277.5,66.4,1278,66.3z"/>
		<path id="XMLID_10064_" d="M1205,85.1c-1.2-1-2.2-1.7-3.3-2.5c-3-2.3-6-4.6-8.9-7c-0.4-0.3-0.7-0.9-0.7-1.4
			c0.1-7.6,0.3-15.1,0.4-22.7c0-0.2,0.1-0.4,0.1-0.7c1.6,1,3.1,1.9,4.6,2.9c2.5,1.6,5.1,3.3,7.6,4.9c0.6,0.4,0.8,0.8,0.8,1.5
			c-0.2,6.8-0.4,13.5-0.6,20.3C1205.2,81.9,1205.1,83.4,1205,85.1z"/>
		<path id="XMLID_10065_" d="M1192.1,77.3c1.6,1.2,3.1,2.4,4.6,3.5c2.5,2,5.1,4,7.6,6c0.4,0.3,0.7,0.9,0.7,1.4
			c-0.2,8.1-0.6,16.3-0.8,24.4c0,0.3-0.1,0.5-0.2,0.9c-0.3-0.3-0.6-0.5-0.8-0.8c-3.7-3.8-7.4-7.5-11.1-11.3
			c-0.3-0.4-0.7-0.9-0.7-1.4c0.2-7.3,0.3-14.6,0.5-21.9C1192,78.1,1192,77.8,1192.1,77.3z"/>
		<path id="XMLID_10066_" d="M1206,57.1c-2.9-1.8-5.4-3.5-8-5.1c-1.3-0.8-2.5-1.8-3.9-2.6c-0.9-0.6-1.3-1.3-1.3-2.3
			c0.1-4.4,0.1-8.8,0.2-13.2c0-2.5,0.1-5.1,0.2-7.6c0-0.2,0.1-0.4,0.1-0.6c4.5,2.8,8.9,5.5,13.4,8.2
			C1206.5,41.4,1206.3,49.1,1206,57.1z"/>
		<path id="XMLID_10067_" d="M1179.1,17c1.6,1,3,1.8,4.4,2.7c2.5,1.5,5,3,7.4,4.5c0.4,0.2,0.7,0.7,0.7,1.1
			c-0.2,7.2-0.5,14.4-0.8,21.5c0,0.1-0.1,0.2-0.1,0.4c-0.3-0.2-0.6-0.3-0.9-0.5c-3.4-2.2-6.8-4.4-10.2-6.5c-0.6-0.4-0.9-0.8-0.9-1.6
			c0.1-6.7,0-13.4,0.1-20.1C1179,18.1,1179,17.6,1179.1,17z"/>
		<path id="XMLID_10068_" d="M1190,73.3c-0.7-0.6-1.4-1.1-2-1.6c-2.7-2.1-5.4-4.3-8.1-6.5c-0.6-0.5-1-1.1-1-1.9c0-5.6,0-11.3,0-16.9
			c0-1.4,0-2.8,0.1-4.4c0.4,0.2,0.7,0.3,1,0.5c3.4,2.2,6.9,4.3,10.3,6.6c0.4,0.3,0.8,0.9,0.8,1.3c-0.2,7.5-0.5,15-0.7,22.5
			C1190.2,73,1190.1,73.1,1190,73.3z"/>
		<path id="XMLID_10069_" d="M1221.2,18c1.3-0.4,2.5-0.8,3.7-1.1c6.6-1.8,13.2-3.5,19.7-5.3c0.4-0.1,0.9-0.2,1.3,0
			c4.6,2.3,9.1,4.6,14,7c-0.6,0.2-0.9,0.3-1.3,0.4c-7.7,1.9-15.5,3.9-23.2,5.8c-0.5,0.1-1.1,0.1-1.5-0.1c-4.1-2.1-8.2-4.3-12.3-6.4
			C1221.5,18.3,1221.4,18.2,1221.2,18z"/>
		<path id="XMLID_10070_" d="M1189.3,98.7c-2.3-2.3-4.3-4.4-6.4-6.6c-0.5-0.5-1-1.2-1.6-1.6c-2.1-1.6-2.8-3.6-2.7-6.2
			c0.2-5.3,0.2-10.7,0.2-16c0-0.4,0.1-0.8,0.1-1.4c0.6,0.5,1.1,0.9,1.6,1.2c3,2.3,5.9,4.7,8.9,7c0.4,0.3,0.7,0.8,0.7,1.3
			c-0.2,7.1-0.5,14.3-0.7,21.4C1189.5,98.1,1189.4,98.3,1189.3,98.7z"/>
		<path id="XMLID_10071_" d="M1176.9,38.4c-1.8-1.1-3.5-2.2-5.2-3.3c-1.4-0.9-2.9-1.8-4.2-2.9c-0.5-0.4-1-1.1-1-1.7
			c-0.2-5.5-0.3-10.9-0.5-16.4c0-1.6,0-3.1,0-4.9c0.6,0.3,1.1,0.5,1.5,0.7c2.8,1.7,5.5,3.4,8.3,5.1c1,0.6,1.4,1.3,1.4,2.6
			c-0.1,6.6-0.2,13.3-0.2,19.9C1177,37.8,1176.9,38,1176.9,38.4z"/>
		<path id="XMLID_10072_" d="M1215.4,17.7c-0.8,0.2-1.5,0.5-2.3,0.7c-5.6,1.5-11.3,3-16.9,4.5c-0.4,0.1-1,0.1-1.3,0
			c-4.3-2.6-8.5-5.3-12.7-7.9c-0.2-0.1-0.3-0.2-0.5-0.5c0.8-0.2,1.5-0.3,2.2-0.5c5.2-1.2,10.5-2.4,15.7-3.6c0.6-0.1,1.3-0.2,1.7,0
			c4.7,2.3,9.4,4.6,14.1,6.9C1215.4,17.4,1215.4,17.5,1215.4,17.7z"/>
		<path id="XMLID_10073_" d="M1189.8-8c4.5-0.3,8.8-0.5,13.1-0.8c3.7-0.2,7.3-0.5,11-0.6c0.7,0,1.5,0.2,2,0.6c2.4,2,4.7,4.2,7,6.3
			c0.2,0.2,0.5,0.5,0.8,0.8c-3.7,0.4-7.3,0.8-10.8,1.3c-4.2,0.5-8.4,1-12.6,1.4c-0.5,0.1-1.1,0-1.4-0.3
			C1195.8-2.1,1192.9-4.9,1189.8-8z"/>
		<path id="XMLID_10074_" d="M1206.9,8.2c3.7-1.5,7.1-2.8,10.6-4.2c2.3-0.9,4.7-1.9,7-2.8c0.4-0.2,1-0.3,1.4-0.2
			c5.1,1.1,10.1,2.3,15.2,3.5c0.2,0,0.4,0.1,0.7,0.2c-0.4,0.2-0.7,0.4-1,0.6c-5.6,2.7-11.3,5.5-16.9,8.2c-0.5,0.2-1.3,0.3-1.9,0.1
			c-4.7-1.6-9.3-3.3-14-5C1207.7,8.6,1207.4,8.5,1206.9,8.2z"/>
		<path id="XMLID_10075_" d="M1176.8,62.8c-1.6-1.3-3-2.4-4.5-3.6c-1.4-1.1-2.8-2.3-4.2-3.4c-0.9-0.7-1.3-1.6-1.3-2.8
			c0-6-0.2-12.1-0.2-18.2c0-0.2,0-0.4,0.1-0.9c1.4,0.9,2.8,1.6,4,2.4c1.9,1.2,3.8,2.4,5.6,3.7c0.3,0.2,0.7,0.7,0.7,1.1
			c0,6.9,0,13.7-0.1,20.6C1176.9,62.1,1176.9,62.4,1176.8,62.8z"/>
		<path id="XMLID_10076_" d="M1231.5,25.8c-7.5,1.8-14.8,3.6-22.1,5.4c-0.3,0.1-0.7,0.1-0.9,0c-3.6-2.2-7.2-4.3-11.1-6.6
			c0.7-0.2,1-0.3,1.3-0.4c6.2-1.7,12.4-3.4,18.5-5.1c0.5-0.1,1.1-0.2,1.5,0c4.1,2.1,8.2,4.2,12.3,6.4
			C1231.1,25.4,1231.2,25.5,1231.5,25.8z"/>
		<path id="XMLID_10077_" d="M1167.1,57.6c1.6,1.2,3.2,2.4,4.7,3.5c1.5,1.2,3,2.4,4.5,3.6c0.3,0.2,0.6,0.6,0.6,1
			c0,6.5-0.1,13-0.2,19.5c0,0.1,0,0.1-0.1,0.3c-0.3-0.3-0.5-0.4-0.8-0.7c-2.6-2.7-5.3-5.4-7.9-8.1c-0.4-0.4-0.7-1.2-0.7-1.8
			c-0.2-5.4-0.2-10.9-0.3-16.3C1166.9,58.4,1167,58.1,1167.1,57.6z"/>
		<path id="XMLID_10078_" d="M1247.6-8.9c-2.8,0.6-5.4,1.1-7.9,1.6c-2.1,0.4-4.1,0.8-6.2,1.2c-0.4,0.1-0.9,0.1-1.1-0.1
			c-2.7-2.6-5.4-5.3-8.2-8.1c0.4-0.2,0.7-0.3,1-0.3c4.4-1,8.8-2.1,13.1-3.1c0.7-0.2,1.2-0.1,1.6,0.5c2.2,2.5,4.5,5,6.7,7.5
			C1247-9.5,1247.2-9.3,1247.6-8.9z"/>
		<path id="XMLID_10079_" d="M1169.5,7.1c4.9-1,9.8-1.7,14.6-2.9c3-0.7,5.5-0.5,8,1.1c1.9,1.2,4.1,2.2,6.1,3.3
			c0,0.1-0.1,0.2-0.1,0.3c-4.4,1-8.9,2-13.3,3.1c-1.3,0.3-2.7,0.5-4,0.9c-1.1,0.3-1.9,0.2-2.8-0.4c-2.8-1.7-5.7-3.4-8.5-5.1
			C1169.4,7.3,1169.5,7.2,1169.5,7.1z"/>
	</g>
</g>
</svg>
