<?xml version="1.0" encoding="utf-8"?>
<!-- Generator: Adobe Illustrator 19.1.0, SVG Export Plug-In . SVG Version: 6.00 Build 0)  -->
<svg version="1.1" id="Layer_1" xmlns="http://www.w3.org/2000/svg" xmlns:xlink="http://www.w3.org/1999/xlink" x="0px" y="0px"
	 viewBox="-391.5 218.5 125 125" style="enable-background:new -391.5 218.5 125 125;" xml:space="preserve">
<style type="text/css">
	.st0{fill:#4CBEC0;}
</style>
<g id="XMLID_15774_">
	<path id="XMLID_11002_" class="st0" d="M-366.8,285.8c0-1.2,0-2.5,0-3.8c0-1.2,0.7-2,2-2c1.1,0,2.1,0,3.2,0c0.8,0,1.5,0.3,1.9,0.9
		c0.2,0.2,0.4,0.7,0.4,1c0,2.5,0,4.9,0,7.4c0,0.8-0.7,1.6-1.7,1.6c-1.5,0.1-2.9,0.1-4.4,0c-0.7,0-1.3-0.7-1.3-1.6
		C-366.8,288.3-366.8,287.1-366.8,285.8z"/>
	<path id="XMLID_11001_" class="st0" d="M-286.5,234.3c0-1.2,0-2.5,0-3.8c0-1.1,0.7-1.9,1.9-1.9c1.1,0,2.1,0,3.2,0
		c0.7,0,1.3,0.2,1.8,0.7c0.3,0.3,0.5,0.7,0.5,1.2c0,2.5,0,4.8,0,7.3c0,0.6-0.2,1.1-0.7,1.3c-0.5,0.2-1,0.5-1.6,0.5
		c-1.1,0.1-2.3,0-3.4,0c-1.1,0-1.8-0.7-1.8-1.9C-286.5,236.7-286.5,235.5-286.5,234.3z"/>
	<path id="XMLID_11000_" class="st0" d="M-388.5,333.8c0-1.2,0-2.5,0-3.8c0-1.1,0.7-1.9,1.9-1.9c1.1,0,2.1,0,3.2,0
		c0.7,0,1.4,0.2,1.8,0.8c0.2,0.3,0.5,0.7,0.5,1.1c0.1,2.4,0,4.7,0,7c0,1.1-0.5,1.7-1.6,2c-0.3,0.1-0.7,0.1-1.1,0.1c-1,0-2,0-2.9,0
		c-1.2,0-1.8-0.7-1.8-1.8S-388.5,335.1-388.5,333.8z"/>
	<path id="XMLID_10993_" class="st0" d="M-340.8,288.1c0-1.3,0-2.5,0-3.8c0-1.1,0.7-1.8,1.8-1.8c1.1,0,2.3,0,3.4,0
		c1.2,0,2.2,0.9,2.2,2.2c0,2.3,0,4.6,0,6.9c0,1.1-0.7,2-1.9,2c-1.3,0.1-2.7,0.1-4,0c-0.8,0-1.5-0.7-1.5-1.6
		C-340.8,290.7-340.8,289.4-340.8,288.1z"/>
	<path id="XMLID_10992_" class="st0" d="M-355.5,324.9c0-1.3,0-2.5,0-3.8c0-1.1,0.7-1.8,1.8-1.8c1.1,0,2.3,0,3.4,0
		c1.3,0,2.2,0.9,2.2,2.2c0,2.3,0,4.5,0,6.8c0,1.2-0.7,2-1.9,2c-1.3,0.1-2.7,0-4,0c-0.9,0-1.5-0.7-1.5-1.6
		C-355.5,327.5-355.5,326.2-355.5,324.9z"/>
	<path id="XMLID_10991_" class="st0" d="M-376.8,306.5c0-1.2,0-2.5,0-3.7c0-1.1,0.7-1.9,1.9-1.9c1.1,0,2.2,0,3.4,0
		c1.2,0,2.2,0.9,2.2,2.2c0,2.3,0,4.6,0,6.9c0,1.1-0.7,2-2,2c-1.3,0.1-2.6,0-3.9,0c-0.9,0-1.5-0.7-1.6-1.6
		C-376.8,309.1-376.8,307.8-376.8,306.5z"/>
	<path id="XMLID_10989_" class="st0" d="M-309.2,303.3c0-1.2,0-2.5,0-3.8c0-1.1,0.7-1.9,1.9-1.9c1.1,0,2.2,0,3.4,0
		c1.3,0,2.2,0.9,2.2,2.2c0,2.3,0,4.5,0,6.8c0,1.2-0.7,2-1.9,2c-1.3,0.1-2.7,0-4,0c-0.9,0-1.5-0.7-1.5-1.6
		C-309.2,305.8-309.2,304.5-309.2,303.3z"/>
	<path id="XMLID_10988_" class="st0" d="M-276.9,282c0-1.2,0-2.5,0-3.8c0-1.1,0.7-1.8,1.8-1.8c1.1,0,2.3,0,3.4,0
		c0.7,0,1.4,0.3,1.8,0.9c0.2,0.2,0.4,0.7,0.4,1c0,2.5,0,5,0,7.4c0,0.5-0.2,0.9-0.6,1.1c-0.5,0.2-1.1,0.5-1.6,0.6
		c-1.1,0.1-2.3,0-3.5,0c-1.1,0-1.7-0.7-1.7-1.7C-276.9,284.5-276.9,283.2-276.9,282z"/>
	<path id="XMLID_10987_" class="st0" d="M-275,325.2c0,1.1,0,2.2,0,3.4c0,1.2-0.7,2-2,2c-1.3,0.1-2.6,0.1-3.9,0
		c-0.9,0-1.6-0.7-1.6-1.6c0-2.5,0-5.1,0-7.6c0-1.1,0.7-1.8,1.8-1.8c1.1,0,2.2,0,3.4,0c0.7,0,1.3,0.2,1.7,0.8
		c0.2,0.3,0.4,0.7,0.5,1.1C-275,322.7-275,323.9-275,325.2z"/>
	<path id="XMLID_10986_" class="st0" d="M-325.5,248.7c0-1.2,0-2.5,0-3.8c0-1.1,0.7-1.9,1.9-1.9c1.1,0,2.1,0,3.2,0
		c0.8,0,1.5,0.3,2,1c0.2,0.2,0.3,0.7,0.3,1c0,2.4,0,4.7,0,7.1c0,1.1-0.5,1.9-1.6,2c-1.5,0.1-3,0.1-4.5,0c-0.7,0-1.2-0.7-1.2-1.5
		C-325.5,251.3-325.5,250-325.5,248.7z"/>
	<path id="XMLID_10985_" class="st0" d="M-349.7,263.5c0-1.2,0-2.5,0-3.8c0-1.1,0.7-1.9,1.9-1.9c1.1,0,2.1,0,3.2,0
		c0.7,0,1.3,0.2,1.8,0.7c0.3,0.3,0.6,0.7,0.6,1.2c0,2.4,0,4.7,0,7c0,1.1-0.6,1.9-1.6,2c-1.5,0.1-2.9,0.1-4.4,0
		c-0.7,0-1.3-0.7-1.3-1.6C-349.7,266-349.7,264.8-349.7,263.5z"/>
	<path id="XMLID_10984_" class="st0" d="M-313.3,279.8c0-1.2,0-2.5,0-3.8c0-1.1,0.7-1.9,1.9-1.9c1.1,0,2.1,0,3.2,0
		c0.7,0,1.2,0.2,1.7,0.7c0.3,0.3,0.6,0.7,0.6,1.2c0,2.3,0,4.7,0,6.9c0,1.3-0.7,2-2,2.1c-1.3,0.1-2.5,0.1-3.8,0c-1,0-1.6-0.7-1.6-1.6
		C-313.3,282.3-313.3,281.1-313.3,279.8z"/>
	<path id="XMLID_10983_" class="st0" d="M-378.4,234.2c0-1.2,0-2.5,0-3.8c0-1.1,0.7-1.9,1.9-1.9c1.1,0,2.2,0,3.3,0
		c0.7,0,1.3,0.3,1.8,0.7c0.3,0.3,0.5,0.7,0.5,1.2c0,2.5,0,4.9,0,7.4c0,0.6-0.2,1-0.7,1.2c-0.5,0.2-1.1,0.5-1.6,0.5
		c-1.1,0.1-2.3,0-3.4,0c-1.1,0-1.7-0.7-1.7-1.7C-378.4,236.7-378.4,235.4-378.4,234.2z"/>
	<path id="XMLID_10982_" class="st0" d="M-368.7,232.3c0,0-0.2-0.2-0.3-0.2c0.2-0.1,0.2-0.2,0.4-0.2c3.8-0.3,7.6-0.6,11.4-0.8
		c4-0.3,7.9-0.6,11.9-0.9c3-0.2,6.1-0.4,9.2-0.7c3.5-0.2,7-0.6,10.5-0.8c3-0.2,6.1-0.4,9.2-0.7c3-0.2,6.1-0.5,9.2-0.7
		c2.6-0.2,5.1-0.3,7.8-0.6c3-0.2,6.1-0.4,9.2-0.7c1-0.1,1.9-0.2,2.9-0.2c0.2,0,0.2,0.2,0.4,0.2c-0.1,0.1-0.2,0.2-0.3,0.2
		c-1.2,0.1-2.5,0.2-3.6,0.3c-2.7,0.2-5.3,0.4-7.9,0.6c-2.5,0.2-5.1,0.3-7.7,0.6c-2.6,0.2-5.2,0.4-7.8,0.6c-2.5,0.2-5.1,0.3-7.6,0.6
		c-2.7,0.2-5.3,0.4-7.9,0.6c-2.5,0.2-5.1,0.3-7.7,0.6c-2.6,0.2-5.2,0.4-7.8,0.6c-2.5,0.2-5.1,0.3-7.6,0.6c-2.7,0.2-5.3,0.4-7.9,0.6
		C-363.6,231.9-366.1,232.1-368.7,232.3z"/>
	<path id="XMLID_10981_" class="st0" d="M-315.1,326.8c-9.6,0.2-19.2,0.2-28.8,0.4c-0.2,0-0.4,0-0.6,0c-0.1,0-0.2-0.2-0.3-0.2
		c0.1-0.1,0.2-0.2,0.3-0.2c0.1-0.1,0.2,0,0.3,0c13.2-0.2,26.5-0.3,39.6-0.6c6.1-0.1,12.3-0.2,18.4-0.2c0.2,0,0.7-0.2,0.7,0.2
		c0,0.1-0.4,0.2-0.7,0.2C-295.8,326.6-305.4,326.6-315.1,326.8L-315.1,326.8z"/>
	<path id="XMLID_10980_" class="st0" d="M-374.9,268.8c0.1,6.4,0.2,14.7,0.3,23c0,0.2-0.2,0.7-0.2,0.7c-0.4-0.1-0.2-0.4-0.2-0.7
		c-0.2-16.4-0.4-32.9-0.7-49.3c0-0.3,0-0.7,0-0.9c0-0.2,0.2-0.3,0.2-0.5c0.1,0.2,0.2,0.3,0.2,0.5c0.1,2,0.1,4.1,0.1,6.1
		C-375,254.2-375,260.5-374.9,268.8z"/>
	<path id="XMLID_10979_" class="st0" d="M-346.4,256.9c-1.4,0-2.4-1.1-2.4-2.4c0-1.3,1.1-2.4,2.4-2.5c1.3,0,2.5,1.1,2.5,2.4
		C-344,255.8-345.1,256.9-346.4,256.9z"/>
	<path id="XMLID_10978_" class="st0" d="M-319.8,239.7c0,1.4-1.1,2.4-2.4,2.4s-2.5-1.1-2.4-2.4c0-1.3,1.1-2.4,2.5-2.4
		C-320.9,237.3-319.8,238.4-319.8,239.7z"/>
	<path id="XMLID_10977_" class="st0" d="M-335.1,279.2c0,1.3-1.1,2.4-2.5,2.4c-1.3,0-2.4-1.1-2.4-2.5s1.1-2.4,2.5-2.4
		C-336.1,276.7-335.1,277.8-335.1,279.2z"/>
	<path id="XMLID_10976_" class="st0" d="M-349.8,315.9c0,1.3-1.1,2.5-2.4,2.5c-1.3,0-2.5-1.1-2.5-2.5c0-1.3,1.1-2.4,2.4-2.4
		C-350.9,313.6-349.8,314.6-349.8,315.9z"/>
	<path id="XMLID_10975_" class="st0" d="M-305.8,291.9c1.4,0,2.4,1.1,2.4,2.4s-1.1,2.5-2.4,2.4c-1.3,0-2.5-1.1-2.4-2.5
		C-308.2,293-307.1,291.9-305.8,291.9z"/>
	<path id="XMLID_10974_" class="st0" d="M-276.7,316.2c0,1.3-1.1,2.5-2.4,2.5c-1.3,0-2.5-1.1-2.5-2.4s1.1-2.4,2.4-2.4
		C-277.7,313.7-276.7,314.8-276.7,316.2z"/>
	<path id="XMLID_10973_" class="st0" d="M-373.5,295.2c1.4,0,2.4,1.1,2.5,2.4c0,1.3-1.1,2.5-2.4,2.5s-2.5-1.1-2.5-2.4
		C-375.9,296.2-374.8,295.2-373.5,295.2z"/>
	<path id="XMLID_10972_" class="st0" d="M-271.2,273c0,1.3-1.1,2.5-2.5,2.4c-1.3,0-2.4-1.1-2.4-2.5c0-1.3,1.1-2.4,2.5-2.4
		C-272.2,270.7-271.2,271.7-271.2,273z"/>
	<path id="XMLID_10971_" class="st0" d="M-307.5,270.9c0,1.3-1.1,2.5-2.5,2.4c-1.3,0-2.4-1.1-2.4-2.5c0-1.3,1.1-2.4,2.5-2.4
		C-308.6,268.5-307.5,269.6-307.5,270.9z"/>
	<path id="XMLID_10970_" class="st0" d="M-285.6,225.3c0-1.3,1.1-2.5,2.4-2.5c1.3,0,2.5,1.1,2.5,2.4c0,1.3-1.1,2.4-2.4,2.5
		C-284.5,227.8-285.6,226.7-285.6,225.3z"/>
	<path id="XMLID_10969_" class="st0" d="M-372.7,225.2c0,1.3-1.1,2.5-2.5,2.4c-1.3,0-2.4-1.1-2.4-2.5c0-1.3,1.1-2.4,2.5-2.4
		C-373.7,222.9-372.7,223.9-372.7,225.2z"/>
	<path id="XMLID_10968_" class="st0" d="M-387.5,324.8c0-1.3,1.1-2.5,2.4-2.5c1.3,0,2.5,1.1,2.5,2.4s-1.1,2.4-2.4,2.5
		C-386.4,327.2-387.5,326.2-387.5,324.8z"/>
	<path id="XMLID_10967_" class="st0" d="M-365.8,276.8c0-1.3,1.1-2.4,2.5-2.4c1.3,0,2.5,1.1,2.4,2.5c0,1.3-1.1,2.4-2.5,2.4
		C-364.8,279.2-365.8,278.1-365.8,276.8z"/>
	<path id="XMLID_10966_" class="st0" d="M-345.3,323.4c-0.1-0.1-0.2-0.1-0.2-0.2s0-0.2,0-0.2c0.2-0.1,0.3-0.2,0.4-0.2
		c10.6-5.6,21.2-11,31.9-16.5c0.1-0.1,0.2-0.1,0.2-0.1c0.2,0,0.2,0,0.4,0c-0.1,0.2-0.1,0.2-0.2,0.4c-0.1,0.1-0.2,0.1-0.2,0.2
		c-10.5,5.5-21.2,11-31.7,16.4C-345,323.1-345.1,323.2-345.3,323.4z"/>
	<path id="XMLID_10965_" class="st0" d="M-285.6,241.4c-0.1,0.2-0.2,0.3-0.3,0.5c-3.8,6-7.5,11.8-11.3,17.8
		c-2.1,3.4-4.2,6.8-6.4,10.1c0,0,0,0.1-0.1,0.1c-0.2,0.2-0.3,0.2-0.5,0.3c0-0.2,0-0.4,0.1-0.7c5.9-9.4,11.8-18.7,17.7-28.1
		c0.1-0.1,0.2-0.2,0.2-0.3c0.1-0.1,0.2-0.1,0.2-0.1C-285.6,241.2-285.6,241.3-285.6,241.4z"/>
	<path id="XMLID_10964_" class="st0" d="M-316.6,243.3c-0.1-0.1-0.2-0.1-0.2-0.2c0-0.1,0.1-0.2,0.2-0.2c0.3-0.2,0.7-0.2,1-0.3
		c9.3-3.3,18.6-6.6,27.9-9.9c0.2-0.1,0.7-0.1,0.7,0c0.2,0.4-0.3,0.4-0.5,0.5c-9.5,3.4-19,6.8-28.5,10.1
		C-316.3,243.2-316.4,243.2-316.6,243.3z"/>
	<path id="XMLID_10955_" class="st0" d="M-314.1,275.7c-0.2,0-0.3,0.1-0.5,0.1c-1.1-0.3-2.1-0.7-3.3-0.9c-7-2-14.1-4.2-21-6.2
		c-0.1,0-0.2,0-0.2-0.1c-0.1-0.1-0.2-0.2-0.3-0.3c0.2-0.1,0.3-0.2,0.5-0.1c1.6,0.4,3.1,0.9,4.6,1.3c6.6,2,13.2,3.9,19.8,5.8
		c0.2,0.1,0.3,0.2,0.5,0.2C-314.1,275.6-314.1,275.6-314.1,275.7z"/>
	<path id="XMLID_10954_" class="st0" d="M-352.8,258.5c-0.1,0.1-0.1,0.2-0.2,0.2c-0.1,0-0.2,0-0.2,0c-0.1-0.1-0.2-0.2-0.2-0.3
		c-5-6.3-10-12.6-15-19c0,0,0,0,0-0.1c-0.1-0.2-0.1-0.4-0.2-0.7c0.2,0.1,0.4,0.2,0.6,0.3c5,6.3,10.1,12.7,15,19
		C-353.1,258.2-352.9,258.3-352.8,258.5z"/>
	<path id="XMLID_10953_" class="st0" d="M-299.9,299.9c-0.1-0.1-0.2-0.1-0.2-0.2c0-0.1,0-0.2,0-0.2c0.1-0.1,0.2-0.2,0.3-0.3
		c6.5-4.7,13.1-9.3,19.7-14c0.2-0.2,0.7-0.2,0.7-0.2c0.2,0.4-0.2,0.5-0.4,0.6c-6.5,4.7-13.1,9.3-19.6,14
		C-299.5,299.8-299.7,299.8-299.9,299.9z"/>
	<path id="XMLID_10952_" class="st0" d="M-276,268.3c-0.1,0.1-0.2,0.2-0.2,0.2c-0.1-0.1-0.2-0.2-0.2-0.3c-0.2-1.1-0.3-2.2-0.5-3.3
		c-0.5-3.2-0.9-6.4-1.4-9.5c-0.4-2.9-0.9-5.9-1.3-8.8c-0.1-0.7-0.2-1.2-0.2-1.9c0-0.2,0.1-0.3,0.2-0.5c0.1,0.2,0.2,0.2,0.3,0.4
		c0.5,3.5,1.1,7,1.6,10.5c0.5,3.2,0.9,6.4,1.4,9.5C-276.4,265.8-276.2,267-276,268.3z"/>
	<path id="XMLID_10951_" class="st0" d="M-291.5,278.4c-2.7-0.1-5.3-0.2-8-0.3c-1.1-0.1-2-0.1-3.1-0.2c-0.1,0-0.2,0-0.2,0
		c-0.1-0.1-0.2-0.2-0.2-0.2c0.1-0.1,0.2-0.2,0.3-0.2c0.1,0,0.2,0,0.3,0c3.6,0.2,7.3,0.3,10.9,0.5c3.4,0.2,6.8,0.3,10.1,0.4
		c0.5,0,0.9,0.1,1.4,0.1c0.1,0,0.2,0.2,0.2,0.2c-0.1,0.1-0.2,0.2-0.2,0.2c0,0-0.1,0-0.2,0C-284.1,278.8-287.8,278.6-291.5,278.4
		L-291.5,278.4z"/>
	<path id="XMLID_10950_" class="st0" d="M-273.6,289.7c-0.3,1.4-0.6,2.7-0.9,4c-1.3,5.7-2.5,11.4-3.8,17.1c-0.1,0.2-0.3,0.7-0.4,0.7
		c-0.4-0.2-0.2-0.5-0.1-0.7c1.6-6.9,3.1-13.9,4.7-20.8c0-0.2,0.2-0.3,0.3-0.4C-273.7,289.5-273.6,289.7-273.6,289.7z"/>
	<path id="XMLID_10949_" class="st0" d="M-283.8,323c-0.2,0-0.2,0.1-0.4,0.1c-0.1,0-0.2-0.2-0.3-0.2c-5.2-4.5-10.4-8.9-15.6-13.4
		c-0.1-0.1-0.2-0.2-0.2-0.2c-0.1-0.1-0.1-0.2,0-0.3c0.1-0.1,0.2-0.1,0.3,0c0.2,0.2,0.4,0.3,0.6,0.5c5.1,4.4,10.2,8.8,15.4,13.2
		c0.1,0.1,0.2,0.2,0.4,0.2C-283.7,322.8-283.7,322.9-283.8,323z"/>
	<path id="XMLID_10948_" class="st0" d="M-358.2,328.2c-0.3,0.2-0.5,0.2-0.7,0.3c-2.3,0.7-4.6,1.5-6.9,2.1c-4,1.2-8.1,2.5-12.1,3.8
		c-0.1,0-0.1,0.1-0.2,0.1c-0.2,0-0.4-0.1-0.6-0.1c0.2-0.1,0.2-0.3,0.4-0.3c1.7-0.6,3.4-1.1,5.1-1.6c4.7-1.5,9.3-2.9,14-4.3
		c0.1,0,0.2-0.1,0.3-0.1C-358.5,328-358.5,328.1-358.2,328.2z"/>
	<path id="XMLID_10947_" class="st0" d="M-331.2,288.1c-0.1-0.1-0.2-0.1-0.2-0.2c0-0.1,0-0.2,0.1-0.2c0.1-0.1,0.2-0.2,0.3-0.2
		c4.9-2,9.9-4.2,14.8-6.2c0,0,0,0,0.1,0c0.2,0,0.4,0,0.6,0c-0.2,0.2-0.2,0.3-0.4,0.4c-1.4,0.6-2.8,1.2-4.2,1.8
		c-3.6,1.5-7.1,3-10.7,4.5C-331,288-331.1,288.1-331.2,288.1z"/>
	<path id="XMLID_10946_" class="st0" d="M-326.8,252.9c-0.2,0.2-0.3,0.3-0.5,0.5c-2.9,2.2-5.8,4.3-8.7,6.5c-1.3,1-2.6,2-3.9,3
		c-0.1,0.1-0.2,0.2-0.3,0.2c-0.1,0-0.2,0-0.3-0.1c-0.1-0.1,0-0.2,0.1-0.3s0.2-0.2,0.2-0.2c4.2-3.2,8.5-6.4,12.7-9.6
		c0.1-0.1,0.2-0.2,0.3-0.2C-327.2,252.8-327.1,252.8-326.8,252.9z"/>
	<path id="XMLID_10945_" class="st0" d="M-343.4,288.3c-2.8-0.2-5.3-0.5-7.9-0.7c-2-0.2-4-0.3-6-0.5c-0.2,0-0.3-0.2-0.5-0.3
		c0.2-0.1,0.4-0.2,0.6-0.2c2.6,0.2,5.3,0.4,7.9,0.7c2,0.2,3.9,0.3,5.9,0.5c0.2,0,0.2,0.2,0.3,0.2
		C-343.3,288.2-343.4,288.2-343.4,288.3z"/>
	<path id="XMLID_10944_" class="st0" d="M-318,255.4c0.1,0.1,0.2,0.2,0.2,0.3c2.3,3.7,4.6,7.4,6.9,11c0.1,0.2,0,0.3,0,0.6
		c-0.2-0.1-0.3-0.2-0.4-0.2c-2.3-3.7-4.6-7.4-6.9-11c-0.1-0.1-0.1-0.2-0.1-0.4C-318.3,255.5-318.1,255.5-318,255.4z"/>
	<path id="XMLID_10943_" class="st0" d="M-380.1,326.4c0-0.2-0.1-0.3,0-0.5c0.5-1.1,0.9-2.3,1.4-3.4c1-2.5,2-4.9,3-7.3
		c0.1-0.1,0.1-0.2,0.2-0.3c0.1-0.1,0.2-0.1,0.3-0.1c0.1,0,0.1,0.2,0.1,0.3c-0.1,0.2-0.2,0.4-0.2,0.7c-1.5,3.4-2.9,6.9-4.3,10.3
		c-0.1,0.2-0.2,0.3-0.3,0.5C-380,326.4-380,326.4-380.1,326.4z"/>
	<path id="XMLID_10942_" class="st0" d="M-367.8,312.8c0.1,0.1,0.2,0.1,0.3,0.2c3.2,2.1,6.5,4.3,9.6,6.5c0.2,0.1,0.2,0.2,0.2,0.4
		c-0.2,0-0.4,0.1-0.5,0c-3.2-2.1-6.5-4.3-9.6-6.5c-0.1-0.1-0.2-0.2-0.2-0.4c0-0.1,0.1-0.2,0.1-0.3
		C-367.9,312.7-367.8,312.8-367.8,312.8z"/>
	<path id="XMLID_10941_" class="st0" d="M-349.8,270.7c-0.1,0.1-0.2,0.2-0.2,0.3c-2.5,2.1-4.9,4.3-7.4,6.5c-0.1,0.1-0.3,0.1-0.5,0.1
		c0.1-0.2,0.1-0.3,0.2-0.4c2.5-2.1,4.9-4.3,7.4-6.5c0.1-0.1,0.2-0.2,0.4-0.2C-349.9,270.5-349.8,270.7-349.8,270.7z"/>
	<path id="XMLID_10940_" class="st0" d="M-364,292.7c-0.1,0.2-0.1,0.3-0.2,0.4c-0.9,2.4-1.9,4.7-2.8,7.1c-0.1,0.1-0.1,0.2-0.2,0.3
		s-0.2,0.1-0.3,0.1s-0.1-0.2-0.1-0.2c0-0.1,0.1-0.2,0.1-0.3c0.9-2.4,1.9-4.7,2.9-7.2c0.1-0.1,0.1-0.2,0.2-0.2
		c0.1-0.1,0.2-0.1,0.3-0.1C-364.1,292.6-364.1,292.6-364,292.7z"/>
</g>
</svg>
