<?xml version="1.0" encoding="utf-8"?>
<!-- Generator: Adobe Illustrator 19.0.0, SVG Export Plug-In . SVG Version: 6.00 Build 0)  -->
<svg version="1.1" id="Layer_1" xmlns="http://www.w3.org/2000/svg" xmlns:xlink="http://www.w3.org/1999/xlink" x="0px" y="0px"
	 viewBox="1110 -60 150 150" style="enable-background:new 1110 -60 150 150;" xml:space="preserve">
<style type="text/css">
	.st0{fill:#4CBEC0;}
</style>
<g id="XMLID_15774_">
	<path id="XMLID_11002_" class="st0" d="M1138.7,21.5c0-1.5,0-3,0-4.6c0-1.5,0.9-2.4,2.4-2.4c1.3,0,2.6,0,3.9,0c1,0,1.8,0.4,2.3,1.1
		c0.3,0.3,0.5,0.8,0.5,1.2c0,3,0,6,0,9.1c0,1-0.9,2-2.1,2c-1.8,0.1-3.6,0.1-5.4,0c-0.9,0-1.6-0.9-1.6-1.9
		C1138.7,24.6,1138.7,23.1,1138.7,21.5z"/>
	<path id="XMLID_11001_" class="st0" d="M1236.9-41.5c0-1.5,0-3,0-4.6c0-1.4,0.9-2.3,2.3-2.3c1.3,0,2.6,0,3.9,0
		c0.9,0,1.6,0.3,2.2,0.9c0.4,0.4,0.6,0.9,0.6,1.5c0,3,0,5.9,0,8.9c0,0.7-0.2,1.3-0.9,1.6c-0.6,0.3-1.2,0.6-1.9,0.6
		c-1.4,0.1-2.8,0-4.1,0c-1.4,0-2.2-0.8-2.2-2.3C1236.9-38.6,1236.9-40,1236.9-41.5z"/>
	<path id="XMLID_11000_" class="st0" d="M1112.2,80.3c0-1.5,0-3.1,0-4.6c0-1.4,0.9-2.3,2.3-2.3c1.3,0,2.6,0,3.9,0
		c0.9,0,1.7,0.3,2.2,1c0.3,0.4,0.6,0.9,0.6,1.4c0.1,2.9,0,5.8,0,8.6c0,1.4-0.6,2.1-1.9,2.4c-0.4,0.1-0.9,0.1-1.3,0.1
		c-1.2,0-2.4,0-3.6,0c-1.5,0-2.2-0.8-2.2-2.2C1112.2,83.3,1112.2,81.8,1112.2,80.3z"/>
	<path id="XMLID_10993_" class="st0" d="M1170.5,24.3c0-1.6,0-3.1,0-4.7c0-1.3,0.9-2.2,2.2-2.2c1.4,0,2.8,0,4.2,0
		c1.5,0,2.7,1.1,2.7,2.7c0,2.8,0,5.6,0,8.4c0,1.4-0.9,2.4-2.3,2.5c-1.6,0.1-3.3,0.1-4.9,0c-1,0-1.8-0.9-1.8-1.9
		C1170.5,27.5,1170.5,25.9,1170.5,24.3z"/>
	<path id="XMLID_10992_" class="st0" d="M1152.5,69.4c0-1.6,0-3.1,0-4.7c0-1.3,0.9-2.2,2.2-2.2c1.4,0,2.8,0,4.1,0
		c1.6,0,2.7,1.1,2.7,2.7c0,2.8,0,5.5,0,8.3c0,1.5-0.9,2.4-2.3,2.5c-1.6,0.1-3.3,0-4.9,0c-1.1,0-1.8-0.9-1.8-1.9
		C1152.5,72.6,1152.5,71,1152.5,69.4z"/>
	<path id="XMLID_10991_" class="st0" d="M1126.4,46.8c0-1.5,0-3,0-4.5c0-1.4,0.9-2.3,2.3-2.3c1.4,0,2.7,0,4.1,0
		c1.5,0,2.7,1.1,2.7,2.7c0,2.8,0,5.6,0,8.4c0,1.4-0.9,2.4-2.4,2.5c-1.6,0.1-3.2,0-4.8,0c-1.1,0-1.8-0.9-1.9-2
		C1126.4,50,1126.4,48.4,1126.4,46.8z"/>
	<path id="XMLID_10989_" class="st0" d="M1209.2,42.9c0-1.5,0-3.1,0-4.6c0-1.4,0.9-2.3,2.3-2.3c1.4,0,2.7,0,4.1,0
		c1.6,0,2.7,1.1,2.7,2.7c0,2.8,0,5.5,0,8.3c0,1.5-0.9,2.4-2.3,2.5c-1.6,0.1-3.3,0-4.9,0c-1.1,0-1.8-0.9-1.8-1.9
		C1209.2,46,1209.2,44.4,1209.2,42.9z"/>
	<path id="XMLID_10988_" class="st0" d="M1248.7,16.9c0-1.5,0-3.1,0-4.6c0-1.3,0.9-2.2,2.2-2.2c1.4,0,2.8,0,4.1,0
		c0.9,0,1.7,0.4,2.2,1.1c0.3,0.3,0.5,0.8,0.5,1.2c0,3,0,6.1,0,9.1c0,0.6-0.2,1.1-0.7,1.4c-0.6,0.3-1.3,0.6-2,0.7
		c-1.4,0.1-2.8,0-4.3,0c-1.4,0-2.1-0.8-2.1-2.1C1248.7,19.9,1248.7,18.4,1248.7,16.9z"/>
	<path id="XMLID_10987_" class="st0" d="M1251,69.7c0,1.4,0,2.7,0,4.1c0,1.5-0.8,2.5-2.4,2.5c-1.6,0.1-3.2,0.1-4.8,0
		c-1.1,0-1.9-0.9-1.9-2c0-3.1,0-6.2,0-9.3c0-1.3,0.9-2.2,2.2-2.2c1.4,0,2.7,0,4.1,0c0.9,0,1.6,0.3,2.1,1c0.3,0.4,0.5,0.9,0.6,1.4
		C1251,66.7,1251,68.2,1251,69.7z"/>
	<path id="XMLID_10986_" class="st0" d="M1189.2-23.9c0-1.5,0-3,0-4.6c0-1.4,0.9-2.3,2.3-2.3c1.3,0,2.6,0,3.9,0c1,0,1.8,0.4,2.4,1.2
		c0.2,0.3,0.4,0.8,0.4,1.2c0,2.9,0,5.8,0,8.7c0,1.4-0.6,2.3-2,2.4c-1.8,0.1-3.7,0.1-5.5,0c-0.9,0-1.5-0.9-1.5-1.8
		C1189.2-20.7,1189.2-22.3,1189.2-23.9z"/>
	<path id="XMLID_10985_" class="st0" d="M1159.6-5.8c0-1.5,0-3.1,0-4.6c0-1.4,0.9-2.3,2.3-2.3c1.3,0,2.6,0,3.9,0
		c0.9,0,1.6,0.3,2.2,0.9c0.4,0.4,0.7,0.9,0.7,1.5c0,2.9,0,5.8,0,8.6c0,1.3-0.7,2.3-2,2.4c-1.8,0.1-3.6,0.1-5.4,0
		c-0.9,0-1.6-0.9-1.6-1.9C1159.6-2.7,1159.6-4.2,1159.6-5.8z"/>
	<path id="XMLID_10984_" class="st0" d="M1204.2,14.2c0-1.5,0-3,0-4.6c0-1.4,0.9-2.3,2.3-2.3c1.3,0,2.6,0,3.9,0
		c0.8,0,1.5,0.3,2.1,0.9c0.4,0.4,0.7,0.9,0.7,1.5c0,2.8,0,5.7,0,8.5c0,1.6-0.9,2.5-2.4,2.6c-1.6,0.1-3.1,0.1-4.7,0
		c-1.2,0-1.9-0.9-1.9-2C1204.2,17.3,1204.2,15.8,1204.2,14.2z"/>
	<path id="XMLID_10983_" class="st0" d="M1124.5-41.6c0-1.5,0-3.1,0-4.6c0-1.4,0.9-2.3,2.3-2.3c1.3,0,2.7,0,4,0
		c0.9,0,1.6,0.4,2.2,0.9c0.4,0.4,0.6,0.9,0.6,1.5c0,3,0,6,0,9c0,0.7-0.2,1.2-0.8,1.5c-0.6,0.3-1.3,0.6-1.9,0.6c-1.4,0.1-2.8,0-4.2,0
		c-1.4,0-2.1-0.8-2.1-2.1C1124.5-38.6,1124.5-40.1,1124.5-41.6z"/>
	<path id="XMLID_10982_" class="st0" d="M1136.4-44c0,0-0.2-0.2-0.4-0.3c0.2-0.1,0.3-0.3,0.5-0.3c4.6-0.4,9.3-0.7,13.9-1
		c4.9-0.4,9.7-0.7,14.6-1.1c3.7-0.3,7.5-0.5,11.2-0.8c4.3-0.3,8.6-0.7,12.9-1c3.7-0.3,7.5-0.5,11.2-0.8c3.7-0.3,7.5-0.6,11.2-0.8
		c3.2-0.2,6.3-0.4,9.5-0.7c3.7-0.3,7.5-0.5,11.2-0.8c1.2-0.1,2.3-0.2,3.5-0.2c0.2,0,0.3,0.2,0.5,0.3c-0.1,0.1-0.3,0.3-0.4,0.3
		c-1.5,0.1-3,0.2-4.4,0.4c-3.3,0.2-6.5,0.5-9.7,0.7c-3.1,0.2-6.3,0.4-9.4,0.7c-3.2,0.2-6.4,0.5-9.5,0.7c-3.1,0.2-6.2,0.4-9.3,0.7
		c-3.3,0.2-6.5,0.5-9.7,0.7c-3.1,0.2-6.3,0.4-9.4,0.7c-3.2,0.2-6.4,0.5-9.5,0.7c-3.1,0.2-6.2,0.4-9.3,0.7c-3.3,0.2-6.5,0.5-9.7,0.7
		C1142.6-44.4,1139.6-44.2,1136.4-44z"/>
	<path id="XMLID_10981_" class="st0" d="M1202,71.7c-11.7,0.2-23.5,0.3-35.3,0.5c-0.2,0-0.5,0-0.7,0c-0.1,0-0.2-0.2-0.4-0.3
		c0.1-0.1,0.2-0.2,0.4-0.3c0.1-0.1,0.2,0,0.4,0c16.2-0.2,32.4-0.4,48.5-0.7c7.5-0.1,15-0.2,22.5-0.3c0.3,0,0.8-0.2,0.8,0.3
		c0,0.1-0.5,0.2-0.8,0.2C1225.6,71.4,1213.8,71.5,1202,71.7C1202,71.7,1202,71.7,1202,71.7z"/>
	<path id="XMLID_10980_" class="st0" d="M1128.8,0.7c0.1,7.8,0.2,18,0.4,28.2c0,0.3-0.2,0.9-0.3,0.9c-0.5-0.1-0.3-0.5-0.3-0.8
		c-0.3-20.1-0.5-40.2-0.8-60.3c0-0.4,0-0.8,0-1.1c0-0.2,0.2-0.4,0.3-0.6c0.1,0.2,0.3,0.4,0.3,0.6c0.1,2.5,0.1,5,0.1,7.5
		C1128.6-17.2,1128.7-9.4,1128.8,0.7z"/>
	<path id="XMLID_10979_" class="st0" d="M1163.7-13.9c-1.7,0-2.9-1.3-2.9-2.9s1.3-2.9,2.9-3c1.6,0,3,1.3,3,2.9
		C1166.6-15.2,1165.3-13.9,1163.7-13.9z"/>
	<path id="XMLID_10978_" class="st0" d="M1196.2-34.9c0,1.7-1.3,2.9-2.9,2.9c-1.6,0-3-1.3-2.9-2.9c0-1.6,1.4-2.9,3-2.9
		C1194.9-37.8,1196.2-36.5,1196.2-34.9z"/>
	<path id="XMLID_10977_" class="st0" d="M1177.5,13.4c0,1.6-1.4,2.9-3,2.9c-1.6,0-2.9-1.4-2.9-3c0-1.6,1.3-2.9,3-2.9
		C1176.3,10.4,1177.5,11.7,1177.5,13.4z"/>
	<path id="XMLID_10976_" class="st0" d="M1159.5,58.4c0,1.6-1.3,3-2.9,3c-1.6,0-3-1.3-3-3c0-1.6,1.3-2.9,2.9-2.9
		C1158.2,55.5,1159.5,56.8,1159.5,58.4z"/>
	<path id="XMLID_10975_" class="st0" d="M1213.3,29c1.7,0,2.9,1.3,2.9,2.9c0,1.6-1.3,3-2.9,2.9c-1.6,0-3-1.4-2.9-3
		C1210.4,30.3,1211.7,29,1213.3,29z"/>
	<path id="XMLID_10974_" class="st0" d="M1249,58.7c0,1.6-1.3,3-2.9,3c-1.6,0-3-1.3-3-2.9c0-1.6,1.3-2.9,2.9-2.9
		C1247.7,55.7,1249,57,1249,58.7z"/>
	<path id="XMLID_10973_" class="st0" d="M1130.5,33c1.7,0,2.9,1.3,3,2.9c0,1.6-1.3,3-2.9,3c-1.6,0-3-1.3-3-2.9
		C1127.5,34.3,1128.9,33,1130.5,33z"/>
	<path id="XMLID_10972_" class="st0" d="M1255.7,5.9c0,1.6-1.3,3-3,2.9c-1.6,0-2.9-1.4-2.9-3c0-1.6,1.3-2.9,3-2.9
		C1254.4,3,1255.7,4.3,1255.7,5.9z"/>
	<path id="XMLID_10971_" class="st0" d="M1211.2,3.3c0,1.6-1.4,3-3,2.9c-1.6,0-2.9-1.4-2.9-3c0-1.6,1.4-2.9,3-2.9
		C1209.9,0.4,1211.2,1.7,1211.2,3.3z"/>
	<path id="XMLID_10970_" class="st0" d="M1238.1-52.5c0-1.6,1.3-3,2.9-3c1.6,0,3,1.3,3,2.9c0,1.6-1.3,2.9-2.9,3
		C1239.4-49.5,1238.1-50.8,1238.1-52.5z"/>
	<path id="XMLID_10969_" class="st0" d="M1131.5-52.6c0,1.6-1.4,3-3,2.9c-1.6,0-2.9-1.4-2.9-3c0-1.6,1.4-2.9,3-2.9
		C1130.2-55.5,1131.5-54.2,1131.5-52.6z"/>
	<path id="XMLID_10968_" class="st0" d="M1113.4,69.3c0-1.6,1.3-3,2.9-3c1.6,0,3,1.3,3,2.9c0,1.6-1.3,2.9-2.9,3
		C1114.7,72.2,1113.4,71,1113.4,69.3z"/>
	<path id="XMLID_10967_" class="st0" d="M1139.9,10.5c0-1.6,1.3-2.9,3-2.9c1.6,0,3,1.4,2.9,3c0,1.6-1.4,2.9-3.1,2.9
		C1141.1,13.4,1139.9,12.1,1139.9,10.5z"/>
	<path id="XMLID_10966_" class="st0" d="M1165,67.5c-0.1-0.1-0.2-0.1-0.2-0.2c0-0.1,0-0.3,0-0.3c0.2-0.1,0.4-0.2,0.5-0.3
		c13-6.8,26-13.5,39-20.2c0.1-0.1,0.2-0.1,0.3-0.1c0.2,0,0.3,0,0.5,0c-0.1,0.2-0.1,0.3-0.2,0.5c-0.1,0.1-0.2,0.1-0.3,0.2
		c-12.9,6.7-25.9,13.4-38.8,20.1C1165.4,67.2,1165.2,67.3,1165,67.5z"/>
	<path id="XMLID_10965_" class="st0" d="M1238.1-32.8c-0.1,0.2-0.2,0.4-0.4,0.6c-4.6,7.3-9.2,14.5-13.8,21.8
		c-2.6,4.2-5.2,8.3-7.8,12.4c0,0,0,0.1-0.1,0.1c-0.2,0.2-0.4,0.3-0.6,0.4c0-0.2,0-0.5,0.1-0.8c7.2-11.5,14.5-22.9,21.7-34.4
		c0.1-0.1,0.2-0.3,0.3-0.4c0.1-0.1,0.2-0.1,0.3-0.1C1238-33,1238-32.9,1238.1-32.8z"/>
	<path id="XMLID_10964_" class="st0" d="M1200.1-30.5c-0.1-0.1-0.2-0.1-0.3-0.2c0-0.1,0.1-0.3,0.2-0.3c0.4-0.2,0.8-0.3,1.2-0.4
		c11.4-4,22.8-8.1,34.2-12.1c0.2-0.1,0.8-0.1,0.8,0c0.2,0.5-0.4,0.5-0.6,0.6c-11.6,4.1-23.3,8.3-34.9,12.4
		C1200.5-30.6,1200.4-30.6,1200.1-30.5z"/>
	<path id="XMLID_10955_" class="st0" d="M1203.2,9.2c-0.2,0-0.4,0.1-0.6,0.1c-1.3-0.4-2.6-0.8-4-1.1c-8.6-2.5-17.2-5.1-25.7-7.6
		c-0.1,0-0.2,0-0.3-0.1c-0.1-0.1-0.3-0.3-0.4-0.4c0.2-0.1,0.4-0.2,0.6-0.1c1.9,0.5,3.8,1.1,5.6,1.6c8.1,2.4,16.1,4.8,24.2,7.1
		c0.2,0.1,0.4,0.2,0.6,0.3C1203.2,9,1203.2,9.1,1203.2,9.2z"/>
	<path id="XMLID_10954_" class="st0" d="M1155.8-11.9c-0.1,0.1-0.1,0.2-0.2,0.2c-0.1,0-0.3,0-0.3,0c-0.1-0.1-0.2-0.2-0.3-0.4
		c-6.1-7.7-12.2-15.4-18.3-23.2c0,0,0,0,0-0.1c-0.1-0.2-0.1-0.5-0.2-0.8c0.2,0.1,0.5,0.2,0.7,0.4c6.1,7.7,12.3,15.5,18.4,23.2
		C1155.5-12.3,1155.7-12.1,1155.8-11.9z"/>
	<path id="XMLID_10953_" class="st0" d="M1220.6,38.8c-0.1-0.1-0.2-0.1-0.3-0.2c0-0.1,0-0.3,0-0.3c0.1-0.1,0.3-0.2,0.4-0.4
		c8-5.7,16-11.4,24.1-17.1c0.2-0.2,0.8-0.3,0.8-0.3c0.3,0.5-0.3,0.6-0.5,0.7c-8,5.7-16,11.4-24,17.1
		C1221,38.6,1220.8,38.7,1220.6,38.8z"/>
	<path id="XMLID_10952_" class="st0" d="M1249.8,0.1c-0.1,0.1-0.2,0.2-0.3,0.3c-0.1-0.1-0.3-0.2-0.3-0.4c-0.2-1.3-0.4-2.7-0.6-4
		c-0.6-3.9-1.1-7.8-1.7-11.6c-0.5-3.6-1.1-7.2-1.6-10.8c-0.1-0.8-0.2-1.5-0.3-2.3c0-0.2,0.1-0.4,0.2-0.6c0.1,0.2,0.3,0.3,0.4,0.5
		c0.6,4.3,1.3,8.6,1.9,12.9c0.6,3.9,1.1,7.8,1.7,11.6C1249.3-2.9,1249.5-1.5,1249.8,0.1z"/>
	<path id="XMLID_10951_" class="st0" d="M1230.8,12.5c-3.3-0.1-6.5-0.3-9.8-0.4c-1.3-0.1-2.5-0.1-3.8-0.2c-0.1,0-0.2,0-0.3,0
		c-0.1-0.1-0.2-0.2-0.3-0.3c0.1-0.1,0.2-0.2,0.4-0.3c0.1,0,0.2,0,0.4,0c4.4,0.2,8.9,0.4,13.3,0.6c4.2,0.2,8.3,0.4,12.4,0.5
		c0.6,0,1.1,0.1,1.7,0.1c0.1,0,0.2,0.2,0.3,0.2c-0.1,0.1-0.2,0.2-0.3,0.3c0,0-0.1,0-0.2,0C1239.9,12.9,1235.4,12.7,1230.8,12.5
		C1230.8,12.5,1230.8,12.5,1230.8,12.5z"/>
	<path id="XMLID_10950_" class="st0" d="M1252.8,26.3c-0.4,1.7-0.7,3.3-1.1,4.9c-1.6,7-3.1,13.9-4.7,20.9c-0.1,0.3-0.4,0.8-0.5,0.8
		c-0.5-0.2-0.2-0.6-0.1-0.9c1.9-8.5,3.8-17,5.8-25.5c0-0.2,0.3-0.4,0.4-0.5C1252.6,26.1,1252.7,26.3,1252.8,26.3z"/>
	<path id="XMLID_10949_" class="st0" d="M1240.3,67c-0.2,0-0.3,0.1-0.5,0.1c-0.1,0-0.3-0.2-0.4-0.3c-6.4-5.5-12.7-10.9-19.1-16.4
		c-0.1-0.1-0.2-0.2-0.3-0.3c-0.1-0.1-0.1-0.3,0-0.4c0.1-0.1,0.3-0.1,0.4,0c0.2,0.2,0.5,0.4,0.7,0.6c6.3,5.4,12.5,10.8,18.8,16.2
		c0.1,0.1,0.3,0.2,0.5,0.3C1240.4,66.8,1240.4,66.9,1240.3,67z"/>
	<path id="XMLID_10948_" class="st0" d="M1149.2,73.4c-0.4,0.2-0.6,0.3-0.8,0.4c-2.8,0.9-5.6,1.8-8.5,2.6c-4.9,1.5-9.9,3-14.8,4.6
		c-0.1,0-0.1,0.1-0.2,0.1c-0.2,0-0.5-0.1-0.7-0.1c0.2-0.1,0.3-0.4,0.5-0.4c2.1-0.7,4.2-1.3,6.3-2c5.7-1.8,11.4-3.5,17.1-5.3
		c0.1,0,0.3-0.1,0.4-0.1C1148.8,73.2,1148.9,73.3,1149.2,73.4z"/>
	<path id="XMLID_10947_" class="st0" d="M1182.2,24.3c-0.1-0.1-0.2-0.1-0.3-0.2c0-0.1,0-0.3,0.1-0.3c0.1-0.1,0.3-0.2,0.4-0.2
		c6-2.5,12.1-5.1,18.1-7.6c0,0,0,0,0.1,0c0.2,0,0.5,0,0.7,0c-0.2,0.2-0.3,0.4-0.5,0.5c-1.7,0.7-3.4,1.5-5.1,2.2
		c-4.4,1.8-8.7,3.7-13.1,5.5C1182.5,24.2,1182.4,24.3,1182.2,24.3z"/>
	<path id="XMLID_10946_" class="st0" d="M1187.6-18.7c-0.3,0.3-0.4,0.4-0.6,0.6c-3.5,2.7-7.1,5.3-10.6,8c-1.6,1.2-3.2,2.4-4.8,3.7
		c-0.1,0.1-0.3,0.2-0.4,0.3c-0.1,0-0.3,0-0.4-0.1c-0.1-0.1,0-0.3,0.1-0.4c0.1-0.1,0.2-0.2,0.3-0.3c5.2-3.9,10.4-7.8,15.5-11.7
		c0.1-0.1,0.2-0.2,0.4-0.2C1187.1-18.9,1187.3-18.8,1187.6-18.7z"/>
	<path id="XMLID_10945_" class="st0" d="M1167.3,24.6c-3.4-0.3-6.5-0.6-9.7-0.8c-2.4-0.2-4.9-0.4-7.3-0.6c-0.2,0-0.4-0.2-0.6-0.4
		c0.2-0.1,0.5-0.2,0.7-0.2c3.2,0.3,6.5,0.5,9.7,0.8c2.4,0.2,4.8,0.4,7.2,0.6c0.2,0,0.3,0.2,0.4,0.3
		C1167.5,24.4,1167.3,24.5,1167.3,24.6z"/>
	<path id="XMLID_10944_" class="st0" d="M1198.4-15.7c0.1,0.1,0.2,0.2,0.3,0.4c2.8,4.5,5.6,9,8.4,13.5c0.1,0.2,0,0.4,0,0.7
		c-0.2-0.1-0.4-0.2-0.5-0.3c-2.8-4.5-5.6-9-8.5-13.5c-0.1-0.1-0.1-0.3-0.1-0.5C1198.1-15.6,1198.3-15.6,1198.4-15.7z"/>
	<path id="XMLID_10943_" class="st0" d="M1122.4,71.2c0-0.2-0.1-0.4,0-0.6c0.6-1.4,1.1-2.8,1.7-4.2c1.2-3,2.5-6,3.7-8.9
		c0.1-0.1,0.1-0.3,0.2-0.4c0.1-0.1,0.3-0.1,0.4-0.1c0.1,0,0.1,0.2,0.1,0.4c-0.1,0.3-0.2,0.5-0.3,0.8c-1.8,4.2-3.5,8.4-5.3,12.6
		c-0.1,0.2-0.2,0.4-0.4,0.6C1122.6,71.2,1122.5,71.2,1122.4,71.2z"/>
	<path id="XMLID_10942_" class="st0" d="M1137.5,54.6c0.1,0.1,0.3,0.1,0.4,0.2c3.9,2.6,7.9,5.3,11.8,7.9c0.2,0.1,0.2,0.3,0.3,0.5
		c-0.2,0-0.5,0.1-0.6,0c-3.9-2.6-7.9-5.3-11.8-7.9c-0.1-0.1-0.2-0.3-0.3-0.5c0-0.1,0.1-0.2,0.1-0.4
		C1137.4,54.5,1137.5,54.6,1137.5,54.6z"/>
	<path id="XMLID_10941_" class="st0" d="M1159.5,3.1c-0.1,0.1-0.2,0.3-0.3,0.4c-3,2.6-6,5.3-9.1,7.9c-0.1,0.1-0.4,0.1-0.6,0.1
		c0.1-0.2,0.1-0.4,0.3-0.5c3-2.6,6-5.3,9.1-7.9c0.1-0.1,0.3-0.2,0.5-0.2C1159.4,2.8,1159.5,3,1159.5,3.1z"/>
	<path id="XMLID_10940_" class="st0" d="M1142.1,30c-0.1,0.2-0.1,0.4-0.2,0.5c-1.1,2.9-2.3,5.8-3.4,8.7c-0.1,0.1-0.1,0.3-0.2,0.4
		c-0.1,0.1-0.3,0.1-0.4,0.1c-0.1,0-0.1-0.2-0.1-0.3c0-0.1,0.1-0.3,0.1-0.4c1.1-2.9,2.3-5.8,3.5-8.8c0.1-0.1,0.1-0.3,0.2-0.3
		c0.1-0.1,0.2-0.1,0.4-0.1C1142,29.8,1142,29.9,1142.1,30z"/>
</g>
</svg>
