<?xml version="1.0" encoding="utf-8"?>
<!-- Generator: Adobe Illustrator 19.0.0, SVG Export Plug-In . SVG Version: 6.00 Build 0)  -->
<svg version="1.1" id="Layer_1" xmlns="http://www.w3.org/2000/svg" xmlns:xlink="http://www.w3.org/1999/xlink" x="0px" y="0px"
	 viewBox="1060 -110 250 250" style="enable-background:new 1060 -110 250 250;" xml:space="preserve">
<style type="text/css">
	.st0{fill:#F2F2F2;}
	.st1{fill:#C0BFBF;}
	.st2{fill:#E5E5E5;}
</style>
<g id="XMLID_27_">
	<g id="XMLID_14892_">
		<polygon id="XMLID_14899_" class="st0" points="1077.3,-44.5 1081.2,107.3 1226.4,138.8 1249,48.4 1226.9,-15.2 		"/>
		<polygon id="XMLID_14896_" class="st1" points="1226.9,-15.2 1226.4,138.8 1296.6,70.5 1297.2,-76.5 		"/>
		<polygon id="XMLID_14893_" class="st2" points="1077.3,-44.5 1226.9,-15.2 1297.2,-76.5 1157.5,-106.6 		"/>
	</g>
	<path id="XMLID_16144_" d="M1221.8,58.7c-0.1-1.3-0.7-2.1-2.1-2.4c-1.7-0.4-3.5-0.8-5.4-1.2c0-0.6,0-1.1,0-1.6
		c-0.1-10.8-0.3-21.6-0.4-32.4c0-2.4-1-3.6-3.4-4.1c-40.2-8.6-80.3-17.3-120.5-25.9c-2.7-0.6-3.6,0.2-3.6,2.8
		c0.3,19.2,0.5,38.5,0.7,57.7c0,3,0.1,6.1,0.1,9.1c0,2.8,1.7,4.7,4.4,5.3c14.6,3.1,29.2,6.3,43.8,9.4c0.5,0.1,1,0.2,1.5,0.3
		c-0.4,3.1-0.8,6.1-1.1,9.1c-0.1,0.6-0.3,0.8-1,0.8c-1.1-0.1-2.3-0.1-3.4-0.1c-0.3,0-0.5,0.3-0.7,0.4c0.3,0.2,0.5,0.5,0.8,0.6
		c0.2,0.1,0.5,0.1,0.7,0.2c12,2.6,23.9,5.1,35.9,7.7c0.3,0,0.5,0.2,0.7,0.1c0.3-0.1,0.5-0.3,0.8-0.4c-0.2-0.3-0.5-0.7-0.7-0.8
		c-1.1-0.5-2.3-0.8-3.5-1.3c-0.3-0.1-0.8-0.5-0.8-0.7c-0.5-3.3-1-6.6-1.4-9.9c3.7,0.8,7.3,1.6,11,2.4c0,3.1,0.1,6.1,0.1,9.2
		c0,2.2,0.5,2.8,2.7,3.3c14.2,3.1,28.4,6.1,42.6,9.2c2.3,0.5,2.7,0.2,2.7-2.1c-0.2-14.6-0.4-29.2-0.6-43.9
		C1221.8,59.3,1221.8,59,1221.8,58.7z M1174,62.9c0.1,3.9,0.1,7.8,0.2,11.8c-27.5-5.9-54.9-11.8-82.4-17.7
		c-0.3-19.8-0.5-39.7-0.8-59.7c39.5,8.5,78.9,16.9,118.4,25.4c0.1,10.4,0.3,20.8,0.4,31.4c-0.4-0.1-0.8-0.2-1.3-0.3
		c-7.2-1.6-14.4-3.1-21.6-4.7c-1.9-0.4-2.5,0.1-2.5,2c0,4.1,0.1,8.1,0.2,12.4c-0.4-0.1-0.8-0.2-1.2-0.3c-2.6-0.6-5.2-1.1-7.8-1.7
		C1174.4,61.4,1173.9,61.8,1174,62.9z M1183.4,96c-1.1-0.3-1.7-0.9-1.7-1.9c0-1,0.5-1.4,1.5-1.2c1,0.2,1.6,0.9,1.6,1.8
		C1184.9,95.7,1184.3,96.1,1183.4,96z M1190.8,93.3c-5-1.1-9.9-2.1-14.9-3.2c-0.1-7.4-0.2-14.8-0.3-22.3c4.9,1.1,9.9,2.1,14.9,3.2
		C1190.6,78.4,1190.7,85.8,1190.8,93.3z M1206.4,101.9c-0.8-0.2-1.5-1-1.5-1.8c0-0.8,0.6-1.3,1.5-1.2c0.8,0.2,1.5,1,1.5,1.8
		C1207.9,101.5,1207.2,102,1206.4,101.9z M1219.3,100.8c-8.9-1.9-17.8-3.8-26.9-5.8c0-4-0.1-7.9-0.1-11.8
		c-0.1-5.2-0.1-10.5-0.2-15.7c0-2.2-0.1-2.3-2.4-2.8c-0.2,0-0.3-0.1-0.6-0.2c0-2.9-0.1-5.9-0.1-8.9c9.9,2.1,19.8,4.3,29.8,6.4
		C1218.9,75,1219.1,87.9,1219.3,100.8z"/>
</g>
</svg>
