<?xml version="1.0" encoding="utf-8"?>
<!-- Generator: Adobe Illustrator 19.1.0, SVG Export Plug-In . SVG Version: 6.00 Build 0)  -->
<svg version="1.1" id="Layer_1" xmlns="http://www.w3.org/2000/svg" xmlns:xlink="http://www.w3.org/1999/xlink" x="0px" y="0px"
	 viewBox="-409 191 180 180" style="enable-background:new -409 191 180 180;" xml:space="preserve">
<style type="text/css">
	.st0{fill:#EE6336;}
	.st1{enable-background:new    ;}
	.st2{fill:#FFFFFF;}
</style>
<g id="XMLID_3_">
	<path id="XMLID_56_" class="st0" d="M-405.6,285.4c0-3.1,0-6.2,0-9.2c0.5-2.7,0.9-5.6,1.3-8.4c4.8-35.4,33.6-65.5,68.6-71.9
		c4.1-0.7,8.2-1.3,12.3-1.9c3.1,0,6.2,0,9.2,0c0.9,0.2,1.7,0.6,2.6,0.7c4.1,0.7,8.2,1,12.4,1.9c33.1,7.3,59.1,34.5,65.3,67.9
		c0.7,3.9,1.3,7.8,1.9,11.7c0,3.1,0,6.2,0,9.2c-0.5,2.7-0.9,5.4-1.3,8.1c-5.4,36.5-32.8,65.1-69.2,72.2c-3.9,0.8-7.8,1.3-11.7,1.8
		c-3.1,0-6.2,0-9.2,0c-0.9-0.2-1.7-0.6-2.6-0.7c-4.1-0.7-8.2-1-12.4-1.9c-33-7.3-59.2-34.6-65.3-67.9
		C-404.4,293.2-405,289.3-405.6,285.4z M-319,201.3c-43.6,0.1-79.5,35.9-79.3,79.7c0.2,43.8,35.3,79.2,79.5,79.2
		c44.3-0.1,79.2-35.5,79.3-79.3C-239.3,237.1-275.3,201.3-319,201.3z"/>
</g>
<g class="st1">
	<path class="st2" d="M-391.7,300.7l6.9-9.1c2.9,2.4,7.1,3.7,10.8,3.7c4.3,0,6-1.7,6-3.5c0-1.9-1.7-3.5-5.6-3.5
		c-3.3,0-5.8,0.9-7.9,2.9l-8.9-2v-25.9h32.6v11.3h-19.7v6c2-2,5.3-3.3,8.9-3.3c7.3,0,13.8,5.4,13.8,14c0,9.4-7,15.5-19,15.5
		C-381.4,306.8-387.5,304.5-391.7,300.7z"/>
	<path class="st2" d="M-352.5,284.7c0-11.6,6.2-22,18.9-22s18.9,10.4,18.9,22s-6.2,22.1-18.9,22.1S-352.5,296.3-352.5,284.7z
		 M-327.6,284.7c0-7.2-1.9-10.6-6-10.6s-6,3.4-6,10.6s1.9,10.7,6,10.7S-327.6,291.9-327.6,284.7z"/>
	<path class="st2" d="M-312.3,284.7c0-11.6,6.2-22,18.9-22s18.9,10.4,18.9,22s-6.2,22.1-18.9,22.1S-312.3,296.3-312.3,284.7z
		 M-287.4,284.7c0-7.2-1.9-10.6-6-10.6s-6,3.4-6,10.6s1.9,10.7,6,10.7S-287.4,291.9-287.4,284.7z"/>
	<path class="st2" d="M-253.2,287.7v12.4h-7.4v-12.4h-10.8V281h10.8v-11.8h7.4V281h10.8v6.7H-253.2z"/>
</g>
</svg>
