<?xml version="1.0" encoding="utf-8"?>
<!-- Generator: Adobe Illustrator 19.1.0, SVG Export Plug-In . SVG Version: 6.00 Build 0)  -->
<svg version="1.1" id="Layer_1" xmlns="http://www.w3.org/2000/svg" xmlns:xlink="http://www.w3.org/1999/xlink" x="0px" y="0px"
	 viewBox="-409 191 180 180" style="enable-background:new -409 191 180 180;" xml:space="preserve">
<style type="text/css">
	.st0{fill:#EE6336;}
	.st1{enable-background:new    ;}
	.st2{fill:#FFFFFF;}
</style>
<g id="XMLID_3_">
	<path id="XMLID_56_" class="st0" d="M-406,286.2c0-3.1,0-6.2,0-9.2c0.5-2.8,0.9-5.7,1.3-8.4c4.9-35.7,33.8-66.1,69.2-72.5
		c4.2-0.7,8.3-1.3,12.4-2c3.1,0,6.2,0,9.2,0c0.9,0.2,1.7,0.6,2.7,0.7c4.2,0.7,8.3,1,12.5,2c33.4,7.4,59.6,34.8,65.8,68.5
		c0.7,3.9,1.3,7.9,2,11.8c0,3.1,0,6.2,0,9.2c-0.5,2.8-0.9,5.4-1.3,8.2c-5.4,36.8-33,65.6-69.8,72.8c-3.9,0.8-7.9,1.3-11.8,1.8
		c-3.1,0-6.2,0-9.2,0c-0.9-0.2-1.7-0.6-2.7-0.7c-4.2-0.7-8.3-1-12.5-2c-33.3-7.4-59.7-34.9-65.8-68.5
		C-404.8,294-405.4,290.1-406,286.2z M-318.7,201.4c-44,0.1-80.2,36.2-79.9,80.4c0.2,44.1,35.6,79.8,80.2,79.8
		c44.7-0.1,79.8-35.8,79.9-79.9C-238.4,237.4-274.7,201.4-318.7,201.4z"/>
</g>
<g class="st1">
	<path class="st2" d="M-391.5,295.6c0-5.7,4.1-10.7,10.1-13.2c-5.6-2.3-9.3-6.1-9.3-12.3c0-10.4,11.9-14.3,22.8-14.3
		c10.9,0,22.8,3.8,22.8,14.3c0,6.2-3.7,10-9.3,12.3c6.1,2.6,10.2,7.5,10.2,13.2c0,10.8-11.9,15.2-23.7,15.2
		C-379.7,310.8-391.5,306.5-391.5,295.6z M-360.5,293.8c0-2.1-4-3.7-7.3-4.1c-3.4,0.5-7.3,2.1-7.3,4.1c0,2.3,2.8,3.9,7.3,3.9
		C-363.5,297.7-360.5,296.1-360.5,293.8z M-361.5,272.5c0-2.2-2.4-3.6-6.4-3.6c-4.1,0-6.5,1.4-6.5,3.6c0,1.7,3.2,3.2,6.5,3.7
		C-364.6,275.7-361.5,274.2-361.5,272.5z"/>
	<path class="st2" d="M-341.3,283.3c0-14.4,7.7-27.4,23.6-27.4s23.6,13,23.6,27.4c0,14.4-7.7,27.5-23.6,27.5
		S-341.3,297.7-341.3,283.3z M-310.3,283.3c0-9-2.3-13.2-7.4-13.2s-7.4,4.2-7.4,13.2c0,9,2.3,13.3,7.4,13.3
		S-310.3,292.3-310.3,283.3z"/>
	<path class="st2" d="M-291.2,283.3c0-14.4,7.7-27.4,23.6-27.4s23.6,13,23.6,27.4c0,14.4-7.7,27.5-23.6,27.5
		S-291.2,297.7-291.2,283.3z M-260.2,283.3c0-9-2.3-13.2-7.4-13.2c-5.1,0-7.4,4.2-7.4,13.2c0,9,2.3,13.3,7.4,13.3
		C-262.5,296.6-260.2,292.3-260.2,283.3z"/>
</g>
</svg>
