<?xml version="1.0" encoding="utf-8"?>
<!-- Generator: Adobe Illustrator 19.1.0, SVG Export Plug-In . SVG Version: 6.00 Build 0)  -->
<svg version="1.1" id="Layer_1" xmlns="http://www.w3.org/2000/svg" xmlns:xlink="http://www.w3.org/1999/xlink" x="0px" y="0px"
	 viewBox="-409 191 180 180" style="enable-background:new -409 191 180 180;" xml:space="preserve">
<style type="text/css">
	.st0{fill:#EE6336;}
	.st1{enable-background:new    ;}
	.st2{fill:#FFFFFF;}
</style>
<g id="XMLID_3_">
	<path id="XMLID_56_" class="st0" d="M-407,286.2c0-3.1,0-6.2,0-9.2c0.5-2.8,0.9-5.7,1.3-8.4c4.9-35.7,33.8-66.1,69.2-72.5
		c4.2-0.7,8.3-1.3,12.4-2c3.1,0,6.2,0,9.2,0c0.9,0.2,1.7,0.6,2.7,0.7c4.2,0.7,8.3,1,12.5,2c33.4,7.4,59.6,34.8,65.8,68.5
		c0.7,3.9,1.3,7.9,2,11.8c0,3.1,0,6.2,0,9.2c-0.5,2.8-0.9,5.4-1.3,8.2c-5.4,36.8-33,65.6-69.8,72.8c-3.9,0.8-7.9,1.3-11.8,1.8
		c-3.1,0-6.2,0-9.2,0c-0.9-0.2-1.7-0.6-2.7-0.7c-4.2-0.7-8.3-1-12.5-2c-33.3-7.4-59.7-34.9-65.8-68.5
		C-405.8,294-406.4,290.1-407,286.2z M-319.7,201.4c-44,0.1-80.2,36.2-79.9,80.4c0.2,44.1,35.6,79.8,80.2,79.8
		c44.7-0.1,79.8-35.8,79.9-79.9C-239.4,237.4-275.7,201.4-319.7,201.4z"/>
</g>
<g class="st1">
	<path class="st2" d="M-366.3,312v-9.4h-28.1V289l21.3-35.5h24.5v33.6h6.7v15.4h-6.7v9.4H-366.3z M-366.3,268.8l-11,18.4h11V268.8z"
		/>
	<path class="st2" d="M-338.8,282.8c0-15.8,8.5-30.1,25.9-30.1c17.4,0,25.9,14.3,25.9,30.1c0,15.8-8.5,30.2-25.9,30.2
		C-330.3,313-338.8,298.6-338.8,282.8z M-304.7,282.8c0-9.9-2.5-14.5-8.1-14.5s-8.1,4.6-8.1,14.5c0,9.9,2.5,14.6,8.1,14.6
		S-304.7,292.7-304.7,282.8z"/>
	<path class="st2" d="M-258,287v16.9h-10.2V287h-14.7v-9.2h14.7v-16.2h10.2v16.2h14.7v9.2H-258z"/>
</g>
</svg>
