<?xml version="1.0" encoding="utf-8"?>
<!-- Generator: Adobe Illustrator 19.1.0, SVG Export Plug-In . SVG Version: 6.00 Build 0)  -->
<svg version="1.1" id="Layer_1" xmlns="http://www.w3.org/2000/svg" xmlns:xlink="http://www.w3.org/1999/xlink" x="0px" y="0px"
	 viewBox="-409 191 180 180" style="enable-background:new -409 191 180 180;" xml:space="preserve">
<style type="text/css">
	.st0{fill:#EE6336;}
	.st1{enable-background:new    ;}
	.st2{fill:#FFFFFF;}
</style>
<g id="XMLID_3_">
	<path id="XMLID_56_" class="st0" d="M-404.5,286c0-3.1,0-6.2,0-9.1c0.5-2.7,0.9-5.6,1.3-8.3c4.8-35.2,33.4-65.2,68.3-71.6
		c4.1-0.7,8.2-1.3,12.2-1.9c3.1,0,6.2,0,9.1,0c0.9,0.2,1.7,0.6,2.6,0.7c4.1,0.7,8.2,1,12.3,1.9c33,7.3,58.8,34.3,65,67.6
		c0.7,3.9,1.3,7.8,1.9,11.6c0,3.1,0,6.2,0,9.1c-0.5,2.7-0.9,5.4-1.3,8.1c-5.4,36.4-32.6,64.8-68.9,71.8c-3.9,0.8-7.8,1.3-11.6,1.8
		c-3.1,0-6.2,0-9.1,0c-0.9-0.2-1.7-0.6-2.6-0.7c-4.1-0.7-8.2-1-12.3-1.9c-32.8-7.3-59-34.4-65-67.6
		C-403.4,293.7-403.9,289.9-404.5,286z M-318.3,202.3c-43.4,0.1-79.1,35.7-78.9,79.4c0.2,43.6,35.1,78.8,79.1,78.8
		c44.1-0.1,78.8-35.3,78.9-78.9C-239,237.9-274.9,202.3-318.3,202.3z"/>
</g>
<g class="st1">
	<path class="st2" d="M-389.6,303.2l6.2-11.4c2.8,2,5.4,2.6,9,2.6c6.2,0,10.7-3.7,10.7-8.4c0-0.1,0-0.1,0-0.2c-2.5,3.2-6.9,5-11.3,5
		c-8.8,0-17.3-5.8-17.3-16.2c0-10.6,8.7-17.6,20.3-17.6c16,0,23.3,10.9,23.3,25.2c0,16.3-10.5,25.2-25.6,25.2
		C-379.9,307.4-385.7,305.8-389.6,303.2z M-363.6,276.3c-0.3-3.3-2.3-6.2-7.5-6.2c-3.7,0-6.1,1.9-6.1,4c0,3.1,3.9,4.2,6.8,4.2
		C-368,278.3-365.6,277.8-363.6,276.3z"/>
	<path class="st2" d="M-345.1,300.6l7.9-10.4c3.4,2.8,8.1,4.2,12.4,4.2c4.9,0,6.9-2,6.9-4c0-2.2-1.9-4-6.4-4c-3.7,0-6.6,1-9.1,3.4
		l-10.2-2.3v-29.6h37.3v12.9h-22.5v6.9c2.3-2.3,6.1-3.7,10.2-3.7c8.3,0,15.7,6.2,15.7,16c0,10.8-8,17.7-21.7,17.7
		C-333.4,307.5-340.4,305-345.1,300.6z"/>
	<path class="st2" d="M-300.2,269.5c0-6.9,5-12.4,13-12.4c8,0,13.2,5.5,13.2,12.4c0,6.8-5.1,12.2-13.2,12.2
		C-295.1,281.7-300.2,276.3-300.2,269.5z M-292.1,306.6l31.2-48.8h7.2l-31.2,48.8H-292.1z M-282.9,269.5c0-3.3-1.9-4.6-4.2-4.6
		c-2.3,0-4.1,1.3-4.1,4.6c0,3.1,1.8,4.5,4.1,4.5C-284.8,273.9-282.9,272.6-282.9,269.5z M-271.9,295.3c0-6.9,5-12.4,13-12.4
		c8,0,13.1,5.5,13.1,12.4c0,6.8-5.1,12.2-13.1,12.2C-266.8,307.5-271.9,302.1-271.9,295.3z M-254.6,295.3c0-3.3-1.9-4.6-4.2-4.6
		c-2.3,0-4.2,1.3-4.2,4.6c0,3.2,1.8,4.5,4.2,4.5C-256.5,299.8-254.6,298.5-254.6,295.3z"/>
</g>
</svg>
