<?xml version="1.0" encoding="utf-8"?>
<!-- Generator: Adobe Illustrator 19.1.0, SVG Export Plug-In . SVG Version: 6.00 Build 0)  -->
<svg version="1.1" id="Layer_1" xmlns="http://www.w3.org/2000/svg" xmlns:xlink="http://www.w3.org/1999/xlink" x="0px" y="0px"
	 viewBox="-391.5 218.5 125 125" style="enable-background:new -391.5 218.5 125 125;" xml:space="preserve">
<style type="text/css">
	.st0{fill:none;stroke:#4DBEC0;stroke-width:2;stroke-miterlimit:10;}
</style>
<g id="XMLID_10329_">
	<path id="XMLID_10332_" class="st0" d="M-356.2,330c6.1-6.1,12.2-12.3,18.3-18.4c6.5-6.5,13-13,19.5-19.5c0.5-0.5,0.7-1.5,0.7-2.2
		c0-17.1,0-34.2,0-51.3c0-0.7,0-1.3,0-2c15.8,1.6,36.1,14.1,42.6,37.3c6.3,22.5-3.1,46.4-22.9,58.7
		C-317.3,344.6-340.7,342.2-356.2,330z"/>
	<path id="XMLID_10331_" class="st0" d="M-370,254.7c13,13,26,26,38.9,38.9c-12.9,12.9-25.9,25.9-39,39
		C-389.5,311.4-389.7,276.2-370,254.7z"/>
	<path id="XMLID_10330_" class="st0" d="M-325.1,288.3c-16-16.1-31.8-31.9-47.6-47.8c7.2-8.6,32.4-18.7,47.6-18.9
		C-325.1,243.7-325.1,265.9-325.1,288.3z"/>
</g>
</svg>
