<?xml version="1.0" encoding="utf-8"?>
<!-- Generator: Adobe Illustrator 19.1.0, SVG Export Plug-In . SVG Version: 6.00 Build 0)  -->
<svg version="1.1" id="Layer_1" xmlns="http://www.w3.org/2000/svg" xmlns:xlink="http://www.w3.org/1999/xlink" x="0px" y="0px"
	 viewBox="-391.5 218.5 125 125" style="enable-background:new -391.5 218.5 125 125;" xml:space="preserve">
<g id="XMLID_16045_">
	<path id="XMLID_16048_" d="M-328.4,340.7c-8.8,0.1-17.4-0.4-25.9-3c-4.7-1.5-9.1-3.6-12.6-7.2c-4.8-4.9-6.3-11-5.7-17.7
		c0.9-10.1,4.2-19.6,7.6-29.1c2.8-7.8,6.5-15.2,11.7-21.6c6.7-8.1,15.2-12.6,26-12.1c9.5,0.4,17.1,4.9,23.2,11.9
		c7.6,8.7,11.9,19.1,15,30c2.1,7.4,3.9,15,3.9,22.8c0,12.1-5.4,19.4-17.1,23c-6.1,1.9-12.5,2.6-18.9,2.9
		C-323.5,340.8-326,340.7-328.4,340.7z M-332.3,269.7c-0.4,0.2-0.7,0.4-1.1,0.4c-4.9,1.4-7.7,4.7-8.3,9.6c-0.7,5.3,0.4,9.8,5.3,12.9
		c3.2,1.9,6.2,4.2,9.4,6c2.8,1.7,3.5,3.9,3.1,6.9c-0.4,2.9-2.2,4.5-5.1,4.5c-2.7,0-4.8-1.8-5.2-4.5c-0.1-1-0.1-2-0.2-3
		c-0.1-2.2-0.5-2.6-2.7-2.6c-4.9-0.1-4.9-0.1-4.8,4.8c0,5.8,3,9.6,8.5,11.3c0.4,0.1,0.6,0.3,1,0.4c0,1.1,0,2.3,0,3.3
		c0,1.4,0.7,2.1,2,2.1c3.7-0.1,5.3,1,5-4.4c0-0.4,0.5-1.3,1-1.4c5.1-1.6,7.8-5,8.3-10.2c0.5-5.6-0.7-10.2-6-13.2
		c-3.2-1.8-6.1-3.9-9.3-6c-1.9-1.2-3-2.8-2.8-5.2c0.2-3.2,1.9-5.2,4.8-5.3c3.2-0.1,5.3,1.7,5.6,4.8c0.1,0.5,0.1,1.1,0,1.6
		c-0.1,1.5,0.7,2.1,2.1,2.3c3.9,0.4,5.3-0.1,5.6-1.8c0.9-4.5-1.8-10.2-6-12c-2.5-1.1-3.9-2.1-3.4-5c0.2-1.2-0.9-1.9-2-1.8
		c-1.7,0.2-3.8-1-4.8,1.3c-0.2,0.3-0.1,0.7-0.1,1.1C-332.3,267.7-332.3,268.7-332.3,269.7z"/>
	<path id="XMLID_16046_" d="M-304.3,226.2c-1.2,1.7-2.5,3.6-3.9,5.6c-3.1,4.4-6.2,8.8-9.3,13.1c-0.5,0.8-1,1.1-1.9,0.8
		c-6.3-1.8-12.6-1.8-18.9-0.1c-0.5,0.2-1.4-0.2-1.7-0.5c-4.6-6.3-9-12.7-13.5-19c3.2-1.6,6.1-3.3,9.3-4.5c2.9-1.1,5.7-0.2,8.1,1.8
		c4.6,3.7,10,3.6,14.7-0.1c3.2-2.5,6.9-2.7,10.5-0.9C-308.6,223.5-306.5,224.9-304.3,226.2z"/>
</g>
</svg>
