<?xml version="1.0" encoding="utf-8"?>
<!-- Generator: Adobe Illustrator 19.1.0, SVG Export Plug-In . SVG Version: 6.00 Build 0)  -->
<svg version="1.1" id="Layer_1" xmlns="http://www.w3.org/2000/svg" xmlns:xlink="http://www.w3.org/1999/xlink" x="0px" y="0px"
	 viewBox="-391.5 218.5 125 125" style="enable-background:new -391.5 218.5 125 125;" xml:space="preserve">
<style type="text/css">
	.st0{fill:#4CBEC0;}
	.st1{fill:none;stroke:#4DBEC0;stroke-width:2;stroke-miterlimit:10;}
	.st2{enable-background:new    ;}
</style>
<path id="XMLID_9049_" class="st0" d="M-323.9,298.2h-2.2c-0.2,0.4-0.3,0.9-0.4,1.2c-0.3,0.9-0.4,1.8-0.5,2.7
	c-0.9,6.9-0.9,7.2-0.3,14.1c0.9,0.2,1.6,0.3,2.4,0.5C-325.5,308.5-325.7,305.2-323.9,298.2z"/>
<path id="XMLID_9046_" class="st0" d="M-313.1,266.8c4.5-4.7,7.8-10.1,9.2-16.7c0.3,0.1,0.4-4.6,0.3-5.1c-0.2-4.7-1-9.2-3.3-13.4
	c-7.2-13.5-25.2-13.2-33.9-5.7c-8.4,7.2-8.8,21.3-5.6,29.2c3.3,7.7,9,13.1,16,17.3c0.9,0.5,2.1,0.9,1.9,2.3c0,0.3,0.5,0.9,0.8,0.9
	c1.7,0.1,1.6,1.4,1.7,2.6c0.1,0.9,0.1,1.6,0.3,2.4c1.4,5.1,1.5,10.2,0.3,15.3h2.2c0.1-0.3,0.2-0.4,0.2-0.7c1.2-3.8,1-7.6,0.2-11.5
	c-0.5-2.5-0.9-5.1-1.2-7.8c1.5,0.3,2.9,0.3,3-1.1c0.1-1.7,1.1-2.3,2.1-2.9C-318.6,272-315.1,268.8-313.1,266.8z M-320.9,268.9
	c-3.6,2.7-3.7,2.7-7.5,0.4c-6.8-4-12.4-9.3-15.1-17c-2.1-6.2-1.8-12.5,0.9-18.4c3.1-6.8,9.8-10.3,17.8-9.8
	c7.7,0.4,13.1,4.4,16.2,11.5c0.4,3.1,0.9,6.1,1.4,9.2c0.2,0.9,0.3,2.3-0.4,5.1C-308.9,256.2-320.1,268.4-320.9,268.9z"/>
<path id="XMLID_9045_" class="st0" d="M-310.2,236.9c0.3,1.8,0.9,4,1.1,6.3c0.1,0.5-0.6,1.2-0.9,1.7c-0.4-0.5-1.2-0.9-1.3-1.5
	c-0.4-3-0.9-5.9-2.5-8.6c-1.6-2.8-4-4.8-7.2-5.8c-0.4-0.2-0.9-0.1-1.2-0.3c-0.5-0.3-0.8-0.9-1.2-1.5c0.6-0.3,1.3-0.9,1.8-0.8
	c4.1,0.9,7.3,3.1,9.4,6.7C-311.6,234.1-311,235.3-310.2,236.9z"/>
<rect id="XMLID_9044_" x="-355.5" y="316.7" transform="matrix(0.9689 0.2475 -0.2475 0.9689 70.4218 91.5655)" class="st1" width="53" height="18.3"/>
<g id="XMLID_9043_" class="st2">
	<path class="st0" d="M-342.9,326.2l1.2-1c0.4,0.8,1.2,1.6,2.5,2c1.3,0.3,1.9-0.2,2.1-0.8c0.5-1.9-5-2.1-4.1-5.3
		c0.4-1.5,2-2.3,3.9-1.8c1.4,0.4,2.4,1.1,3,2.1l-1.2,0.9c-0.5-0.9-1.4-1.5-2.3-1.7c-0.9-0.2-1.6,0.1-1.8,0.7c-0.4,1.7,5,2,4.1,5.3
		c-0.4,1.5-1.8,2.5-4.1,1.9C-341.3,328.1-342.4,327.2-342.9,326.2z"/>
	<path class="st0" d="M-334.8,329.6l2.3-8.9l3.3,0.9c2.8,0.7,4.2,3.1,3.5,5.6c-0.7,2.6-3,4-5.8,3.2L-334.8,329.6z M-327.3,326.8
		c0.4-1.7-0.3-3.3-2.2-3.9l-1.8-0.5l-1.6,6.1l1.7,0.5C-329.2,329.6-327.7,328.5-327.3,326.8z"/>
	<path class="st0" d="M-320.1,333.5l-2-4.5l-1,0.7l-0.7,2.8l-1.6-0.4l2.3-8.9l1.6,0.4l-1.1,4.2l4.6-3.3l1.9,0.5l-4.7,3.2l2.7,5.7
		L-320.1,333.5z"/>
</g>
<g id="XMLID_9037_">
	<path id="XMLID_9038_" class="st0" d="M-326.3,295.7c3.3,0.5,6.6,1.1,9.9,1.6c0,0.6-0.3,1.1-0.8,1.5s-0.9,0.4-1.5,0.3
		c-3.1-0.5-6.2-1-9.3-1.5c-0.3-0.1-0.3,0-0.5,0.2c-0.6,0.6-1.2,1.1-1.8,1.7c-0.1,0.1-0.1,0.1-0.2,0.2c0.3,0.1,0.8,0.2,1.1,0.3
		c0.7,0.4,0.9,1,0.9,1.6c-0.1,0.9-0.4,1.6-0.9,2.2c-0.7,0.9-1.5,1.5-2.7,1.7c-0.3,0.1-0.7,0.1-1,0.1c-1.1-0.1-1.8-0.7-1.8-1.7
		c0-1.1,0.4-2,1.2-2.7c1.2-1.2,2.5-2.4,3.8-3.6c0.2-0.2,0.3-0.3,0.5-0.6c0.3-0.4,0.1-0.9-0.5-1.1c-0.2-0.1-0.4-0.1-0.6-0.2
		c-2-0.3-4-0.7-6-1c-1-0.2-2.1-0.6-2.8-1.3c-0.5-0.5-0.9-1-0.8-1.7c0.1-0.4,0.4-0.8,0.9-0.9c1.1-0.5,2.4-0.5,3.8-0.3
		c1,0.3,2,0.6,2.8,1.3c0.5,0.4,0.9,1,0.7,1.6c-0.1,0.3-0.3,0.6-0.5,0.9c0,0,0.1,0,0.2,0.1c0.9,0.2,1.9,0.3,2.8,0.5
		c0.3,0.1,0.3,0,0.5-0.2c2-1.9,4-3.8,6-5.7c0.9-0.8,2.4-0.7,3.3,0.3C-321.9,291.7-324.1,293.7-326.3,295.7z M-330.1,302.7
		c0.1-0.1,0.1-0.2,0.2-0.3c0.1-0.4,0.2-0.9-0.3-1.2s-0.9-0.3-1.4-0.2c-1.1,0.4-1.9,1.1-2.2,2.2c-0.2,0.3-0.2,0.8,0.2,1.1
		c0.3,0.3,0.9,0.3,1.2,0.2C-331.2,304.2-330.5,303.5-330.1,302.7z M-334.5,292.1c-1.1-0.4-2.1-0.6-3.1-0.5c-0.3,0.1-0.6,0.2-0.9,0.3
		c-0.4,0.3-0.4,0.6-0.1,1c0.1,0.2,0.3,0.3,0.3,0.3c0.9,0.6,1.8,0.8,2.7,0.8c0.4,0,0.9-0.1,1.4-0.3c0.6-0.2,0.6-0.8,0.2-1.2
		C-334.1,292.5-334.4,292.3-334.5,292.1z M-328.4,296.8c0.4,0.2,0.9,0.1,1-0.3c0.2-0.3,0-0.8-0.4-0.9c-0.4-0.2-0.9-0.1-1,0.3
		C-329,296.2-328.8,296.6-328.4,296.8z"/>
</g>
</svg>
