<?xml version="1.0" encoding="utf-8"?>
<!-- Generator: Adobe Illustrator 19.1.0, SVG Export Plug-In . SVG Version: 6.00 Build 0)  -->
<svg version="1.1" id="Layer_1" xmlns="http://www.w3.org/2000/svg" xmlns:xlink="http://www.w3.org/1999/xlink" x="0px" y="0px"
	 viewBox="-391.5 218.5 125 125" style="enable-background:new -391.5 218.5 125 125;" xml:space="preserve">
<style type="text/css">
	.st0{fill:#4CBEC0;}
</style>
<g id="XMLID_15784_">
	<path id="XMLID_11294_" class="st0" d="M-342.8,291.9c0-3.1,0-6.1,0-9.1c9.1,0,18.2,0,27.4,0c0-1.5,0-3,0-4.4c3,3,6.1,6.1,9,9
		c-3,3-6,6-8.9,8.9c0-1.4,0-2.9,0-4.4C-324.5,291.9-333.6,291.9-342.8,291.9z"/>
	<g id="XMLID_10930_">
		<path id="XMLID_10935_" class="st0" d="M-268.5,280.1c0,9.8,0,19.5,0,29.3c0,2.6-1.2,4.7-3.2,5.5c-0.4,0.2-0.9,0.3-1.3,0.3
			c-8.5,0-17,0-25.6,0c-2.5,0-4.4-2.3-4.5-5.4c0-1.2,0-2.4,0-3.7c0-18.4,0-36.9,0-55.4c0-2.7,1.2-4.8,3.2-5.5
			c0.4-0.2,0.8-0.3,1.2-0.3c8.6,0,17.1,0,25.7,0c2.4,0,4.3,2.4,4.3,5.5c0,6.2,0,12.4,0,18.7C-268.5,272.9-268.5,276.5-268.5,280.1z
			 M-301,304.2c10.2,0,20.5,0,30.7,0c0-17.2,0-34.3,0-51.5c-10.2,0-20.5,0-30.7,0C-301,269.9-301,287.1-301,304.2z M-285.7,313
			c1.5,0,2.7-1.4,2.7-3.3c0-1.8-1.2-3.2-2.7-3.2c-1.5,0-2.7,1.4-2.7,3.2C-288.4,311.5-287.2,313-285.7,313z M-285.7,250
			c1.2,0,2.4,0,3.5,0c0.4,0,0.8-0.2,0.9-0.7c0.3-0.8-0.2-1.5-1-1.5c-2.3,0-4.5,0-6.8,0c-0.8,0-1.1,0.3-1.1,1.1
			c0,0.7,0.3,1.1,1.1,1.1C-288,250-286.9,250-285.7,250z"/>
		<path id="XMLID_10934_" class="st0" d="M-288.3,255.6c0.9-0.2,1.7-0.3,2.6-0.3"/>
		<path id="XMLID_10933_" class="st0" d="M-299.6,295.5"/>
		<path id="XMLID_10932_" class="st0" d="M-297.9,299.5"/>
		<path id="XMLID_10931_" class="st0" d="M-285.1,301.8"/>
	</g>
	<g id="XMLID_10923_">
		<path id="XMLID_10924_" class="st0" d="M-350.3,281.4c0,10-0.1,20,0,30c0,3.7-2.7,5.6-5.6,5.6c-9.3,0-18.7,0-28,0
			c-2.6,0-4.8-1.4-5.4-3.7c-0.2-0.6-0.2-1.2-0.2-1.8c0-20.1,0-40.1,0-60.3c0-3.7,2.7-5.6,5.6-5.6c4.1,0,8.2,0,12.4,0
			c5.2,0,10.4,0,15.6,0c1.5,0,3,0.4,4.1,1.5c1.1,1,1.5,2.4,1.5,3.8C-350.3,261.1-350.3,271.3-350.3,281.4z M-352.2,309.5
			c0-19.3,0-38.4,0-57.6c-11.8,0-23.7,0-35.5,0c0,19.3,0,38.4,0,57.6C-375.8,309.5-364.1,309.5-352.2,309.5z M-370,312
			c-1.4,0-2.7,0-4.2,0c-0.9,0-1.3,0.3-1.3,1.2c0,1.1,0.3,1.4,1.3,1.4c2.7,0,5.5,0,8.2,0c1,0,1.3-0.3,1.3-1.4c0-0.9-0.3-1.2-1.3-1.2
			C-367.2,311.9-368.6,312-370,312z M-370,248.7c1,0,2.1,0,3.2,0c0.2,0,0.3-0.2,0.6-0.3c-0.2-0.1-0.4-0.3-0.6-0.3c-2,0-4.2,0-6.2,0
			c-0.2,0-0.3,0.2-0.5,0.3c0.2,0.1,0.3,0.3,0.6,0.3C-372,248.7-371,248.7-370,248.7z M-358.4,247.6c-0.5,0-1,0.3-1,0.9
			c-0.1,0.5,0.3,1,0.9,1c0.6,0.1,1-0.3,1.1-0.9C-357.5,248-357.8,247.6-358.4,247.6z"/>
	</g>
	<path id="XMLID_10913_" class="st0" d="M-335.2,267.4c9.2,0,18.2,0,27.4,0c0,3.1,0,6.1,0,9.1c-9.1,0-18.2,0-27.4,0c0,1.5,0,3,0,4.4
		c-3-3-6.1-6.1-9-9c3-3,6-6,8.9-8.9C-335.2,264.5-335.2,265.9-335.2,267.4z"/>
</g>
</svg>
