<?xml version="1.0" encoding="utf-8"?>
<!-- Generator: Adobe Illustrator 19.1.0, SVG Export Plug-In . SVG Version: 6.00 Build 0)  -->
<svg version="1.1" id="Layer_1" xmlns="http://www.w3.org/2000/svg" xmlns:xlink="http://www.w3.org/1999/xlink" x="0px" y="0px"
	 viewBox="-391.5 218.5 125 125" style="enable-background:new -391.5 218.5 125 125;" xml:space="preserve">
<style type="text/css">
	.st0{fill:none;stroke:#000000;stroke-miterlimit:10;}
</style>
<g>
	<g id="XMLID_16007_">
		<path id="XMLID_16010_" d="M-330.6,248.7c19.8,0,36.2,16.1,36.3,35.8c0.1,20-16.1,36.5-35.8,36.5c-20.2,0-36.5-16.1-36.5-36
			C-366.7,265-350.6,248.7-330.6,248.7z M-317.7,283.9c-0.6-0.3-1-0.4-1.5-0.6c-0.3-0.2-0.7-0.5-0.9-0.4c-1.4,0.3-2.7,0.5-4,0.6
			c-1.5,0.1-2.1,0.2-3-1.2c-0.5-0.8-1.2-1.5-1.6-2.3c-0.3-0.5-0.3-1.1-0.3-1.7c0-0.9,0-1.6,0.1-2.5c0-0.2-0.1-0.3,0-0.4
			c0.6-0.9,1.3-1.9,2-2.8c1-1.4,2.1-2.7,3.3-4.3c-2,0.2-1.8-0.9-1.6-2c0.1-0.4,0-0.9,0-1.5c1,0.1,2,0.1,2.9,0.2
			c0.9-1.5-0.9-1.7-1.3-2.6c0.7-0.2,1.2-0.3,1.7-0.5c0-0.1,0-0.1,0-0.2c-0.6,0-1.2,0-2,0c0.3-0.9,0.4-1.5,0.6-2.2
			c-0.3,0.1-0.5,0.3-0.7,0.6c-0.3,0.3-0.6,0.7-0.9,0.8c-0.3,0.1-0.8-0.3-0.8-0.6c0-0.3,0.3-0.8,0.5-1c0.3-0.3,0.6-0.3,0.9-0.4
			c0.1-0.3,0-0.6,0.2-0.9c0.2-0.3,0.6-0.7,0.7-0.7c0.3,0.2,0.7,0.4,0.9,0.8c0.4,0.7,0.7,1.5,1,2.2c0.2,0.3,0.4,0.6,0.6,0.9
			c0.7-0.3,1.4-0.8,2.1-1.2c-0.3-0.8-0.1-1.5,0.9-2.1c-0.8-0.1-1.6,0.2-2-0.2c-0.4-0.4-0.4-1.3-0.6-2c-4.3-1.7-11.2-2.1-15.7-1
			c-0.6,0.2-1,0.3-1.3,1c-0.2,0.5-0.8,1.2-1.2,1.2c-0.5,0.1-1.1-0.4-1.7-0.7c0-0.2,0-0.3,0-0.5c-1.9,0.9-3.8,1.7-5.6,2.6
			c0,0.2,0,0.3-0.1,0.4c0.9-0.7,1-0.2,1.2,0.4c0.2,0.8,0.3,1.5,1.3,1.9c0.9,0.4,0.3,1-0.2,1.5c-0.9,0.7-1.8,1.4-2.6,2
			c0.3,0.5,0.5,0.9,0.9,1.5c-0.8,0.3-1.5,0.8-2,0.7c-0.8-0.2-1,0.2-1.4,0.6c-0.3,0.3-0.5,0.9-0.8,1.2c-0.2,0.3-0.4,0.6-0.6,0.9
			c-0.5,0.9-0.9,1.8-1.5,2.4c-0.6,0.7-1,1.2-0.9,2.1c0.1,0.5,0,1-0.1,1.6c-0.1,0-0.3,0-0.3,0c-0.2-0.5-0.3-1-0.5-1.8
			c-1,0.3-2,0.6-3,0.9c0,0.2,0,0.4,0,0.6c0.6,0.2,1.2,0.3,1.7,0.4c0.4,0.2,0.9,0.4,1.5,0.8c-0.7,0.3-1,0.4-1.2,0.5
			c-0.2,0.8-0.3,1.5-0.4,1.8c0.4,0.6,0.9,0.9,1,1.4c0.2,0.5,0.2,1.1,0.2,1.7c1,0.1,1.9,0.1,2.5-0.8c0.3-0.4,0.9-0.6,1.5-0.2
			c0.4,0.3,1,0.3,1.5,0.4c0.3,0.1,0.8,0.2,1.1,0.4c0.7,0.5,1.4,1.3,2.1,1.5c1,0.3,1.7,0.8,2.1,1.8c0.1,0.3,0.3,0.8,0.7,0.9
			c1.1,0.4,2.3,0.8,3.5,1.2c0.6,0.2,1.1,0.4,1.6,0.8c1,0.7,1.3,1.5,0.4,2.3c-0.9,1.1-1.2,2.3-1.3,3.6c0,0.2,0,0.3-0.1,0.6
			c-0.3,0.8-0.4,1.4-1.5,1.5c-0.8,0.1-1.7,0.4-1.6,1.7c0.1,1-1.5,2.8-2.6,3.1c0.2,1,0.1,1.2-0.9,1.4c-0.3,0.1-0.7,0.8-0.9,1.1
			c-0.3,0.7-0.8,1.4-0.2,2.1c0,0-0.1,0.2-0.2,0.3c-0.7,0.9-0.2,1.5,0.4,2c0.3,0.3,0.6,0.4,1.1,0.8c-1.5,0.4-2.2-0.4-2.7-1.1
			c-0.7-0.9-1.2-2.1-1.6-3.2c-0.3-0.7-0.2-1.5-0.3-2.3c-0.1-0.6-0.2-1.2-0.2-1.8c-0.1-1.1,0.1-2.2-0.1-3.3c-0.3-1.8,0.3-3.9-1.9-5
			c-0.2-0.1-0.3-0.3-0.3-0.6c-0.5-0.9-1-2-1.5-2.9c-0.1-0.3-0.2-0.5-0.2-0.8c-0.1-1.1,0.2-2.1,0.8-3.2c0.3-0.5,0-1.3-0.1-2.1
			c-1,0.9-1.5,0.2-1.9-0.4c-0.7-1.2-1.6-1.9-3-2.3c-0.9-0.3-1.9-0.9-1.5-2.2c0.1-0.3-0.2-0.7-0.3-1.3c-0.1,0.6-0.2,0.9-0.2,1.3
			c-0.3-0.3-0.3-0.4-0.5-0.6c-4.4,14.8,3.4,30.4,15.8,36.1c0.1-0.1,0.2-0.2,0.2-0.3c-0.3-0.3-0.8-0.5-1.2-0.8
			c0.4-0.3,0.8-0.4,1.1-0.7c0.3,0.3,0.4,0.7,0.6,0.9c0.2-0.4,0.3-1,0.6-1.3c0.3-0.3,0.9-0.2,1.2-0.2c-0.2,0.6-0.5,1.3-0.3,1.4
			c1.9,1.5,3.3,3.8,6.1,3.9c0.5,0,1,0.2,1.5,0.3c2.5,0.3,5,0.6,7.2-0.9c0.2-0.1,0.3-0.1,0.5-0.2c0.7-0.2,1.3-0.4,2-0.6
			c1.3-0.3,2.6-0.9,3.8-0.7c1.7,0.3,3.2,0.1,4.5-0.6c8-3.9,13.3-10.2,16-18.6c1.9-5.8,1.9-11.8,0.3-17.7c-0.3-0.9-0.3-0.9-1.3-0.9
			c0.9,1.5,0.7,2.1-0.6,3c-0.3,0.3-0.8,0.4-1.2,0.7c-0.6,0.4-1.1,0.9-1.6,1.3c0,0.1,0.1,0.1,0.1,0.2c0.6-0.1,1.3-0.3,2-0.3
			c-0.1,0.6-0.2,1-0.3,1.4c-0.6,1.8-1.4,3.5-2.7,5c-0.5,0.5-0.7,1-0.3,1.7c0.8,1.2,0.6,2.7-0.5,3.6c-0.6,0.5-1,1-0.9,1.9
			c0.1,0.3,0,0.7-0.1,0.9c-0.3,0.7-0.8,1.4-1.3,2c-1.1,1.6-2.3,3.1-4.5,3.2c-0.3,0-0.8-0.3-0.9-0.5c-0.6-1.6-0.9-3.4-1.6-5
			c-0.6-1.3-0.6-2.3-0.2-3.5c0.2-0.5,0.3-1.3,0-1.8c-0.8-1.6-2.1-3-1.5-5C-317.7,284.1-317.7,283.9-317.7,283.9z M-315.9,267.6
			c0.1-0.1,0.2-0.3,0.3-0.3c-0.6-0.5-1.1-1.1-1.7-1.5c-1.5-1.1-3.7-0.4-4.1,1.3c-0.2,0.9-0.7,1-1.3,1.3c-0.3,0.1-0.6,0.2-0.9,0.3
			c0.2,0.3,0.4,0.3,0.6,0.3c1.6-0.2,3.3-0.4,4.9-0.5c0.3,0,0.9,0.2,1,0.3c0.5,1.8,2.3,2.1,3.6,3.1c0.1-1.3,0.7-1.5,1.6-0.9
			c1.1,0.8,2.4,0.9,3.8,0.8c0-0.8,0-1.4,0-2.1c-1.9,0.1-3.4-0.3-3.7-2.7c-0.1,0.4,0,0.8-0.1,1c0,0.3-0.1,0.7-0.3,0.9
			c-0.2,0.1-0.7-0.1-0.8-0.3c-0.4-0.6-0.7-1.3-1-1.9c-0.2-0.3-0.4-0.6-0.7-0.9c-0.1,0.1-0.2,0.2-0.3,0.3c0.3,0.3,0.5,0.6,0.7,0.8
			c-0.7,0.6-1.2,1.2-1.9,1.9c-0.2-0.3-0.4-0.6-0.7-1C-316.5,267.7-316.2,267.6-315.9,267.6z M-317.8,259.7c0.8,1.5,2.1,0.6,2.8,0.9
			c0.5-0.5,0.1-1.8,1.5-1.2c0-0.1,0-0.2,0-0.3c-0.7-0.5-1.4-0.9-2.1-1.5c-0.3,0.4-0.5,0.8-0.5,1
			C-316.1,259.7-316.7,259.9-317.8,259.7z M-307.9,265.1c-0.8,0.5-1.4,0.5-2-0.2c-0.1-0.1-0.7,0-0.8,0.2c-0.2,0.3-0.3,0.8-0.3,1.1
			c0,0.2,0.6,0.3,0.9,0.3c0.3,0.1,0.8,0,1.1,0.1c0.8,0.2,1.5,0.4,2.3,0.7c0-0.2,0.1-0.3,0.1-0.4c-0.3-0.1-0.5-0.2-0.8-0.2
			c-0.8,0.1-1-0.2-0.9-0.9C-308.1,265.6-308,265.4-307.9,265.1z M-307.7,273.7c-0.2,0.1-0.3,0.2-0.4,0.2c1.1,1.7,1.2,4,2.7,5.6
			c0.1-0.1,0.2-0.1,0.3-0.2C-306,277.5-306.9,275.6-307.7,273.7z M-357,278.1c0.1,0.1,0.2,0.1,0.3,0.2c0.3-0.5,0.8-0.9,1.2-1.6
			c-0.9-0.1-1.2-0.3-0.3-1.2c-0.8,0.3-1.1,0.3-1.4,0.4C-357.2,276.9-357.1,277.5-357,278.1z M-305.9,265.9c0.3,1.1,0.4,1.9,0.6,2.6
			c0.2,0.7,0.6,1,1.7,0.9C-304.4,268.1-305,267.1-305.9,265.9z M-350,260.8c-1.5,1-1.8,1.6-1.2,2.7
			C-350.8,262.5-350.3,261.6-350,260.8z"/>
		<path id="XMLID_16009_" d="M-303,290.6c0,0.3,0.3,0.9,0.1,1.2c-0.5,1.7-1.1,3.4-1.8,5.1c-0.1,0.3-0.4,0.5-0.7,0.8
			c-0.6,0.4-0.9,0.3-1-0.4c0-0.1,0-0.3,0-0.3c0.3-1.2,0.4-2.4,0.8-3.6c0.1-0.3,0.4-0.6,0.8-0.9C-304.3,291.8-303.8,291.2-303,290.6z
			"/>
	</g>
	<g id="XMLID_16000_">
		<path id="XMLID_16001_" d="M-290.3,278.7c-0.3-0.6-0.5-1.2-0.8-1.8c0-0.1-0.1-0.2-0.2-0.2c-1-0.9-1.4-2.2-1.4-3.6
			c0-0.2,0.1-0.4,0.2-0.6c0.2-0.3,0.2-0.5,0.2-0.8c-0.2-1.9,0.4-3.6,1.7-5c0.3-0.3,0.2-0.4,0-0.7c-0.3-0.3-0.7-0.5-1-0.8
			c0.5-0.3,1.4-0.2,2.1,0.4c0.9-0.6,1.8-1,2.9-1.2c2.6-0.3,5,0.1,6.8,2.2c1.3,1.5,1.8,3.3,1.6,5.1c0,0.2,0,0.3,0.1,0.4
			c0.3,0.5,0.3,1.1,0.3,1.7c-0.2,1-0.5,2-1.4,2.6c-0.1,0.1-0.1,0.1-0.1,0.2c-0.3,0.6-0.5,1.2-0.8,1.8c0.3,0.2,0.5,0.3,0.8,0.4
			c1.5,0.9,2.8,1.9,3.9,3.3c0.8,1.1,1.3,2.3,1.1,3.7l0,0c-0.1,0.8-0.1,0.8-0.8,0.9c-2.2,0.6-4.5,0.9-6.8,1.2
			c-2.2,0.2-4.4,0.3-6.7,0.1c-2.3-0.2-4.6-0.5-6.8-1.3c-0.6-0.2-0.6-0.2-0.7-0.9c-0.2-1.4,0.3-2.7,1.1-3.8c1.2-1.5,2.7-2.7,4.4-3.7
			C-290.5,278.7-290.5,278.7-290.3,278.7L-290.3,278.7z M-289.6,279.5c-0.3,0.2-0.5,0.3-0.8,0.4c-1.5,0.9-2.7,1.8-3.8,3.2
			c-0.6,0.8-0.9,1.6-0.9,2.6c0,0.3,0.1,0.3,0.3,0.4c2.7,0.8,5.3,1.1,8,1.2c2.6,0.1,5.2-0.1,7.8-0.5c1.2-0.2,2.4-0.4,3.5-0.7
			c0.2-0.7,0-1.5-0.4-2.2c-0.7-1.3-1.8-2.2-2.9-3.1c-0.7-0.4-1.4-0.9-2.1-1.4C-283.4,282.2-286.8,282.2-289.6,279.5z M-282.3,273.7
			c-0.2,0-0.3-0.1-0.3-0.1c-2-0.5-3.6-1.5-5.1-2.8c-0.4-0.4-0.6-0.4-1.1-0.1c-0.2,0.2-0.3,0.3-0.5,0.4c-0.4,0.4-0.6,1-0.7,1.6
			c-0.1,0.8-0.2,1.5-0.3,2.3c-0.3-0.6-0.3-1.5-1-1.8c0,0.8,0.2,1.5,0.6,2.1c0.2,0.2,0.3,0.3,0.6,0.4c0.1,0.1,0.2,0.2,0.2,0.3
			c0.3,1.4,1,2.4,2.1,3.3c0.9,0.8,2.1,1.3,3.4,0.9c2.1-0.5,3.5-2,4-4c0.1-0.3,0.1-0.4,0.3-0.4c0.2-0.1,0.3-0.3,0.4-0.3
			c0.3-0.4,0.5-1,0.6-1.6c0-0.3,0-0.4,0-0.7c0-0.1-0.2-0.3-0.3-0.3c-0.1,0-0.2,0.1-0.3,0.2c-0.1,0.1-0.2,0.3-0.2,0.3
			c-0.1,0.3-0.3,0.3-0.5,0.2c-0.4-0.3-0.9-0.4-1.4-0.8c-0.6-0.4-1.1-0.9-1.7-1.5c0.2,0.4,0.3,0.8,0.6,1.1
			C-282.7,272.9-282.5,273.3-282.3,273.7z"/>
	</g>
	<g id="XMLID_15990_">
		<path id="XMLID_15994_" d="M-380.8,270.3c-0.3-0.6-0.5-1.2-0.8-1.8c0-0.1-0.1-0.2-0.2-0.2c-1-0.9-1.4-2.2-1.4-3.6
			c0-0.2,0.1-0.4,0.2-0.6c0.2-0.3,0.2-0.5,0.2-0.8c-0.2-1.9,0.4-3.6,1.7-5c0.3-0.3,0.2-0.4,0-0.7c-0.3-0.3-0.7-0.5-1-0.8
			c0.5-0.3,1.4-0.2,2.1,0.4c0.9-0.6,1.8-1,2.9-1.2c2.6-0.3,5,0.1,6.8,2.2c1.3,1.5,1.8,3.3,1.6,5.1c0,0.2,0,0.3,0.1,0.4
			c0.3,0.5,0.3,1.1,0.3,1.7c-0.2,1-0.5,2-1.4,2.6c-0.1,0.1-0.1,0.1-0.1,0.2c-0.3,0.6-0.5,1.2-0.8,1.8c0.3,0.2,0.5,0.3,0.8,0.4
			c1.5,0.9,2.8,1.9,3.9,3.3c0.8,1.1,1.3,2.3,1.1,3.7l0,0c-0.1,0.8-0.1,0.8-0.8,0.9c-2.2,0.6-4.5,0.9-6.8,1.2
			c-2.2,0.2-4.4,0.3-6.7,0.1c-2.3-0.2-4.6-0.5-6.8-1.3c-0.6-0.2-0.6-0.2-0.7-0.9c-0.2-1.4,0.3-2.7,1.1-3.8c1.2-1.5,2.7-2.7,4.4-3.7
			C-381,270.4-380.9,270.4-380.8,270.3L-380.8,270.3z M-380,271.1c-0.3,0.2-0.5,0.3-0.8,0.4c-1.5,0.9-2.7,1.8-3.8,3.2
			c-0.6,0.8-0.9,1.6-0.9,2.6c0,0.3,0.1,0.3,0.3,0.4c2.7,0.8,5.3,1.1,8,1.2c2.6,0.1,5.2-0.1,7.8-0.5c1.2-0.2,2.4-0.4,3.5-0.7
			c0.2-0.7,0-1.5-0.4-2.2c-0.7-1.3-1.8-2.2-2.9-3.1c-0.7-0.4-1.4-0.9-2.1-1.4C-374,273.8-377.3,273.8-380,271.1z M-372.8,265.3
			c-0.2,0-0.3-0.1-0.3-0.1c-2-0.5-3.6-1.5-5.1-2.8c-0.4-0.4-0.6-0.4-1.1-0.1c-0.2,0.2-0.3,0.3-0.5,0.4c-0.4,0.4-0.6,1-0.7,1.6
			c-0.1,0.8-0.2,1.5-0.3,2.3c-0.3-0.6-0.3-1.5-1-1.8c0,0.8,0.2,1.5,0.6,2.1c0.2,0.2,0.3,0.3,0.6,0.4c0.1,0.1,0.2,0.2,0.2,0.3
			c0.3,1.4,1,2.4,2.1,3.3c0.9,0.8,2.1,1.3,3.4,0.9c2.1-0.5,3.5-2,4-4c0.1-0.3,0.1-0.4,0.3-0.4c0.2-0.1,0.3-0.3,0.4-0.3
			c0.3-0.4,0.5-1,0.6-1.6c0-0.3,0-0.4,0-0.7c0-0.1-0.2-0.3-0.3-0.3c-0.1,0-0.2,0.1-0.3,0.2c-0.1,0.1-0.2,0.3-0.2,0.3
			c-0.1,0.3-0.3,0.3-0.5,0.2c-0.4-0.3-0.9-0.4-1.4-0.8c-0.6-0.4-1.1-0.9-1.7-1.5c0.2,0.4,0.3,0.8,0.6,1.1
			C-373.2,264.5-373,264.9-372.8,265.3z"/>
	</g>
	<g id="XMLID_15981_">
		<path id="XMLID_15983_" class="st0" d="M-278.9,262.3c-0.5-0.1-1.1-0.2-1.6-0.3c-1.5-0.3-2.5-1.5-2.7-2.9
			c-0.3-1.4-0.3-2.7-0.1-4.1c0.1-0.8,0.3-1.5,0.9-2.1c0.5-0.7,1.3-1,2.1-1.2c1.8-0.3,3.6-0.4,5.5-0.3c1.3,0,2.5,0.2,3.8,0.4
			c1.5,0.3,2.3,1.2,2.7,2.6c0.3,1.1,0.3,2.2,0.3,3.4c-0.1,0.7-0.1,1.4-0.3,2c-0.4,1.4-1.4,2.2-2.8,2.5c-1.1,0.2-2.3,0.3-3.4,0.3
			c-0.3,0-0.6,0.1-0.9,0.3c-0.9,0.7-1.8,1.4-2.9,1.7c-0.3,0.1-0.8,0.2-1.2,0.3c-0.1,0-0.3-0.1-0.3-0.1c0.1-0.1,0.1-0.3,0.2-0.3
			c0.3-0.3,0.5-0.5,0.7-0.9C-279,263-278.9,262.7-278.9,262.3z"/>
	</g>
	<g id="XMLID_15978_">
		<path id="XMLID_15980_" class="st0" d="M-379.1,251.9c0.5-0.1,1.1-0.2,1.6-0.3c1.5-0.3,2.5-1.5,2.7-2.9c0.3-1.4,0.3-2.7,0.1-4.1
			c-0.1-0.8-0.3-1.5-0.9-2.1c-0.5-0.7-1.3-1-2.1-1.2c-1.8-0.3-3.6-0.4-5.5-0.3c-1.3,0-2.5,0.2-3.8,0.4c-1.5,0.3-2.3,1.2-2.7,2.6
			c-0.3,1.1-0.3,2.2-0.3,3.4c0.1,0.7,0.1,1.4,0.3,2c0.4,1.4,1.4,2.2,2.8,2.5c1.1,0.2,2.3,0.3,3.4,0.3c0.3,0,0.6,0.1,0.9,0.3
			c0.9,0.7,1.8,1.4,2.9,1.7c0.3,0.1,0.8,0.2,1.2,0.3c0.1,0,0.3-0.1,0.3-0.1c-0.1-0.1-0.1-0.3-0.2-0.3c-0.3-0.3-0.5-0.5-0.7-0.9
			C-379,252.7-379.2,252.2-379.1,251.9z"/>
	</g>
</g>
</svg>
