<?xml version="1.0" encoding="utf-8"?>
<!-- Generator: Adobe Illustrator 19.1.0, SVG Export Plug-In . SVG Version: 6.00 Build 0)  -->
<svg version="1.1" id="Layer_1" xmlns="http://www.w3.org/2000/svg" xmlns:xlink="http://www.w3.org/1999/xlink" x="0px" y="0px"
	 viewBox="-391.5 218.5 125 125" style="enable-background:new -391.5 218.5 125 125;" xml:space="preserve">
<style type="text/css">
	.st0{fill:none;stroke:#4DBEC0;stroke-width:2;stroke-miterlimit:10;}
	.st1{fill:#4DBEC0;}
</style>
<g>
	<g id="XMLID_9148_">
		<path id="XMLID_9160_" class="st0" d="M-303.2,328c-4.1-9.3-4.3-18.3,0.2-26.9c-0.2,0-0.3,0-0.4,0c-4.6,0-9-1.2-13-3.6
			c-1.7-1.3-3.5-2.7-5.2-4.1c-1-1.1-2-2.2-2.8-3.3c-0.1,0-0.2,0.1-0.3,0.1c-2.6,0.8-5.1,0.4-7.3-1c-0.6-0.4-1.2-0.4-1.9-0.4
			c-1.5,0-3.1,0-4.6-0.3c-1.3-0.2-2.2-1.3-2.6-2.7c1.1-0.2,2.2-0.2,3.2-0.5c3.8-0.9,6.7-3.2,9.2-6.1c-0.2-1.2-0.3-2.2-0.4-3.4
			c-0.6-0.2-1.2,0.1-1.8,0.6c-1.5,1.3-3,2.9-4.6,4c-3.1,2.1-6.4,2.2-9.6,0.5s-4.8-4.6-4.4-8.3c0.1-0.4,0.1-0.8,0.1-1.1
			c-2.7-0.3-5.4-0.4-8-1c-2.7-0.6-4.8-2.2-6.4-4.6c0.2-0.1,0.5-0.2,0.7-0.2c3.2-0.7,5.2-2.6,6.6-5.4c0.5-1.1,0.2-2.2-0.7-2.6
			c-1-0.4-1.9-0.1-2.4,1.1c-1.2,2.7-3.3,3.8-6.1,3.6c-0.5-0.1-1.2-0.2-1.6-0.5c-2.9-1.9-4.2-4.6-3.8-8.1c0.4-3.5,2.9-6.1,6.1-7
			c0.4-0.1,0.7-0.2,1-0.2c0-1.1-0.2-2.2,0-3.2c0.3-1.7,1.5-2.6,3.1-3c0.5-0.2,0.7,0,1,0.5c0.3,0.8,0.7,1.7,1.3,2.4
			c2.2,2.9,6.6,3.2,9,0.4c0.7-0.7,0.7-1.5,0.2-2.2c-0.5-0.7-1.4-1-2.2-0.5c-0.5,0.2-1,0.7-1.6,0.8c-1.2,0.5-1.8,0.2-2.6-0.7
			c-1.2-1.7-1.2-2.7,0.4-4.1c2.2-1.9,5.3-2.4,7.9-1.2c0.2,0.2,0.6,0.2,0.8,0.4c2.6-5.2,7.8-5.7,11.4-3.2c3.2-3.9,8.6-4.2,12-0.1
			c3.2-1.6,6.8-0.9,9,3.2c1.8-0.9,3.7-1.1,5.6,0.1c1.8,1.1,2.6,2.7,2.7,4.8c3.8-1,6,2.2,5.1,5.1c0.4,0.1,0.9,0.2,1.3,0.2
			c2,0.5,3.3,2.2,3.5,4.2c2.2,0.6,4.2,1.5,6.1,2.6c0.9,0.7,1.9,1.5,2.8,2.2c-1.2-5.9-3.3-11.3-7.1-16c-5.1-6.5-11.9-10.5-19.7-12.9
			c-9.6-3-19.5-3.6-29.5-1.9c-14.6,2.4-25.3,10.4-32,23.6c-3,6-4.1,12.4-2.3,18.9c0.6,2.2,0.2,3.9-1.1,5.6c-2.3,3.2-4.6,6.4-6.7,9.7
			c-1.1,1.7-2.1,3.6-2.9,5.4c-0.7,1.7,0.1,3.4,1.8,4c1.1,0.4,2.1,0.8,3.2,1.2c2.7,0.7,3.9,2.6,4.2,5.1c0.4,3.2,0.6,6.2,0.8,9.4
			c-0.1,0-0.2,0-0.2,0c0,1.2,0,2.5,0,3.7s0,2.5,0.1,3.7c0.2,3.2,2,5.4,5.1,6c2,0.4,4.2,0.3,6.2,0.3c1.4,0,2.8-0.5,4.2-0.6
			c4.8-0.5,7.8,1.9,8.2,6.7c0.1,1.2,0.1,2.5,0.2,3.7c0.1,2.2,1.2,3.7,3.2,4.3s4,1.2,6,1.7c7.3,1.6,14.6,1.8,22,1.1
			c7-0.7,13.7-2.2,20.3-4.6c1.5-0.6,2.1-1.9,1.4-3.4C-302.6,329.3-303,328.7-303.2,328z"/>
		<path id="XMLID_9159_" class="st0" d="M-326.6,263.7c0.5-1.1,1-2.2,1.7-3.2c-1.9-0.9-3-2.6-3.8-5.2c-0.3-1.2-1.2-1.7-2.2-1.4
			c-0.9,0.2-1.5,1.2-1.2,2.2C-331.3,259.5-329.5,262.1-326.6,263.7z"/>
		<path id="XMLID_9158_" class="st0" d="M-319.5,242.2c-0.4-1-0.8-2.1-1.2-3c-0.5-1.1-0.3-2.1,0.5-2.6c0.9-0.6,2-0.2,2.6,0.8
			c0.6,1.1,1.1,2.2,1.4,3.4c0.2,0.7,0.5,0.9,1.2,0.9c3.6,0.2,6.4,1.7,8.2,4.9c0.7,1.1,0.5,2.2-0.4,2.7c-0.9,0.6-1.9,0.2-2.6-0.8
			c-1.9-2.9-4.6-3.9-8.3-3c-0.8,0.2-1.6,0.5-2.4,0.8c-1.1,0.4-2.1,0.1-2.5-0.9c-0.4-0.9,0-1.8,1-2.3
			C-321.2,242.8-320.4,242.5-319.5,242.2z"/>
		<path id="XMLID_9157_" class="st0" d="M-332.3,239.8c-0.1,3.1-0.9,5.1-2.7,6.7c-1.9,1.7-4.2,2.6-6.8,3c-1.2,0.2-2.2-0.4-2.2-1.5
			c-0.2-1,0.5-1.7,1.7-2.1c1.3-0.4,2.7-0.7,4-1.4c2.2-1.2,2.9-3.1,2.4-5.5c-0.1-0.5-0.2-1-0.3-1.4c-0.2-0.9,0.3-1.8,1.2-2.1
			c0.8-0.2,1.9,0.1,2.2,1.1C-332.7,237.8-332.4,239.2-332.3,239.8z"/>
		<path id="XMLID_9156_" class="st0" d="M-343.4,261.7c0.1-3.5,0.9-6.1,2.8-8.3c0.8-1,1.9-1.2,2.7-0.4c0.8,0.7,0.8,1.7,0,2.7
			c-1.9,2.3-2.4,5-1.6,7.9c0.4,1.3,0,2.3-1.1,2.6c-1.1,0.3-2-0.2-2.3-1.6C-343.1,263.4-343.3,262.2-343.4,261.7z"/>
	</g>
	<g id="XMLID_9144_">
		<path id="XMLID_9145_" class="st1" d="M-285.5,290c5.6,5.5,11.2,10.9,16.8,16.3c-1.3,1.3-2.4,2.4-3.4,3.4
			c-5.6-5.4-11.1-10.9-16.7-16.3c-11,8.9-25.9,5.3-33-4c-7.1-9.4-6.1-22.6,2.3-30.7c8.5-8.1,21.6-8.7,30.6-1.3
			C-279.6,264.7-277,279-285.5,290z M-303.5,254.5c-11.5,0-20.7,9.3-20.7,20.9c-0.1,11.1,9.3,20.5,20.5,20.6
			c11.5,0.1,20.9-9.1,20.9-20.6C-282.7,263.8-291.9,254.5-303.5,254.5z"/>
	</g>
</g>
</svg>
