<?xml version="1.0" encoding="utf-8"?>
<!-- Generator: Adobe Illustrator 19.1.0, SVG Export Plug-In . SVG Version: 6.00 Build 0)  -->
<svg version="1.1" id="Layer_1" xmlns="http://www.w3.org/2000/svg" xmlns:xlink="http://www.w3.org/1999/xlink" x="0px" y="0px"
	 viewBox="-391.5 218.5 125 125" style="enable-background:new -391.5 218.5 125 125;" xml:space="preserve">
<g id="XMLID_27_">
	<g id="XMLID_15965_">
		<path id="XMLID_15966_" d="M-346,294.3c-2.3,0-4.4,0-6.5,0c-4.2,0-8.4-0.1-12.6,0c-2,0.1-3.2-0.8-3.8-2.6
			c-0.8-2.6-1.5-5.3-1.9-7.9c-1.3-8.8-1.4-17.7-0.5-26.4c0.4-4,1.3-8,2.2-11.9c0.6-2.6,1.6-3,4.3-3c5.9,0,11.9,0,17.7,0
			c0.5,0,1.1,0,1.8,0c0,13.8,0,27.4,0,41.1c0.6-0.2,1-0.3,1.5-0.4c2-0.5,3.6,0.2,4.9,1.6c0.4,0.4,0.7,1,0.9,1.5
			c1.8,3.2,1.8,3.2,5.5,3.2c1,0,1.9-0.3,2-1.4c0.1-0.8-0.2-1.8-0.7-2.2c-0.7-0.6-0.9-1.1-0.9-1.9c0-1.5,0-3.1,0-4.5
			c0-1.1-0.2-2.1,1.1-2.9c1.1-0.7,0.8-2.3-0.3-3.2c-1.5-1-0.6-2.6-0.5-3.8c0-0.4,1.3-1.2,2-1.2c6.5-0.1,13-0.1,19.4-0.1
			c1.7,0,2.3,1.5,3.3,2.4c0.5,0.4,1.2,0.9,1.9,0.9c3,0.3,5.1,1.6,6.3,4.4c1.2,2.7,0.8,5.3-1.2,7.5c-2,2.3-4.6,3-7.4,2
			c-1.1-0.3-1.7-0.1-2.3,0.8c-0.5,0.9-0.4,1.8,0.3,2.5c0.4,0.3,1.1,0.5,1.7,0.5c3.2,0.1,6.6,0,9.8,0c2.7,0,3.8,1.1,3.8,3.8
			c0,15.1,0,30.1,0,45.2c0,2.8-1,3.8-3.8,3.8c-14.8,0-29.6,0-44.4,0c-2.8,0-3.8-0.9-3.8-3.8c0-14.2,0-28.2,0-42.4
			C-346,295.6-346,295.1-346,294.3z M-305.3,281.8c1.6,0,2.8-1.4,2.8-2.9c-0.1-1.5-1.3-2.7-2.8-2.7s-2.9,1.4-2.9,2.9
			C-308.2,280.5-306.8,281.8-305.3,281.8z M-313.9,279.3c-1.1,0-2.1,1-2.1,2.2c0,1.1,0.9,2,2,2c1.1,0,2.1-0.9,2.1-2
			C-311.7,280.4-312.7,279.3-313.9,279.3z M-317.9,275.2c0-1.2-1-2.1-2.2-2c-1.1,0.1-2,1-2,2.1c0,1.2,1,2,2.2,2
			C-318.7,277.2-317.9,276.3-317.9,275.2z M-317.9,287.6c0-1.1-0.9-2-2-2.1c-1.2-0.1-2.2,0.9-2.2,2c0,1.1,0.9,2,2,2.1
			C-318.9,289.7-318,288.8-317.9,287.6z M-324.1,281.3c0-1.1-1-2-2-2c-1.1,0-2.1,1-2,2.2c0.1,1.1,0.9,2,2,2
			C-325,283.5-324.1,282.5-324.1,281.3z M-308.3,273.2c-1.2,0.3-1.7,1-1.6,2c0,1,0.6,1.7,1.6,1.9
			C-308.3,275.8-308.3,274.6-308.3,273.2z"/>
	</g>
	<g id="XMLID_15957_">
		<path id="XMLID_15960_" d="M-308.3,246.3c2.6-2.4,5.5-2.9,8.8-1.5c-2.7,1.8-4.7,4.1-5.5,7.3c-0.3,1.3-0.4,2.6-0.7,3.9
			c-1.2,5-4.4,8.4-9.1,10.2c-4.9,1.9-9.7,1.7-14.2-1c-3.4-2-5.3-5.1-6-9c-0.2-1.1-0.3-2.3-0.3-3.4c0-1.1,0.2-2.3,0.3-3.6
			c0.5,0.7,0.9,1.3,1.5,1.8c0.6,0.6,1.3,1.2,2,1.7c1,0.6,2,0.3,2.6-0.7c0.7-1.1,0.7-2.3,0.2-3.5c-0.5-1.3-1.2-2.6-1.7-3.8
			c-0.4-0.9-0.8-2-0.9-3c-0.7-3.4,1.9-6.1,4.7-7c0.6-0.2,1.3-0.3,2-0.3c-0.4,1.5-0.6,2.8-0.3,4.2c0.3,1.2,0.8,2.2,1.9,2.8
			c2,1.2,3.8,0.2,4-2.1c0.1-1.4-0.3-2.6-0.9-3.8c-0.3-0.7-0.7-1.4-1.2-1.9c-1.3-1.5-1.5-3.2-1.2-5c0.3-2,1.2-3.8,2.1-5.7
			c0.1,0.9,0.2,1.5,0.3,2.1c0.5,2.4,2,4.1,4,5.4c1.4,0.9,2.9,1.8,4.4,2.6c2.4,1.2,3.5,3.2,3.8,5.7c0.3,2.5-0.1,4.9-0.6,7.3
			C-308.2,246-308.2,246.1-308.3,246.3z M-321.5,249.3c0.1,0.1,0.1,0.2,0.1,0.3c0.5,1.3,0.3,2.1-0.7,3c-0.3,0.3-0.8,0.6-1.1,0.9
			c-0.8,0.7-1.4,1.5-1.7,2.5c-0.9,3.2,0.5,5.7,3.7,6.3c0.9,0.2,1.7,0.2,2.6,0.2c3.8-0.1,6-3,5-6.7
			C-314.5,252.5-317.4,250.1-321.5,249.3z"/>
		<path id="XMLID_15959_" d="M-312.7,219.9c-0.1,0.8-0.2,1.5-0.3,2.3c-0.2,0.9,0,1.8,0.6,2.6c0.3,0.3,0.5,0.8,0.7,1.1
			c0.9,1.5,0.4,3.2-1,4.2c-0.3-1.5-1.2-2.6-2-3.7c-1.2-1.5-1.1-2.8,0-4.4c0.6-0.8,1.3-1.4,1.9-2.1
			C-312.8,219.8-312.8,219.9-312.7,219.9z"/>
	</g>
</g>
</svg>
