<?xml version="1.0" encoding="utf-8"?>
<!-- Generator: Adobe Illustrator 16.0.0, SVG Export Plug-In . SVG Version: 6.00 Build 0)  -->
<!DOCTYPE svg PUBLIC "-//W3C//DTD SVG 1.1//EN" "http://www.w3.org/Graphics/SVG/1.1/DTD/svg11.dtd">
<svg version="1.1" id="Layer_1" xmlns="http://www.w3.org/2000/svg" xmlns:xlink="http://www.w3.org/1999/xlink" x="0px" y="0px"
	 width="30px" height="30px" viewBox="-5.458 -5.458 30 30" enable-background="new -5.458 -5.458 30 30" xml:space="preserve">
<path fill="#FFFFFF" d="M9.593-5.47c-8.284,0-15,6.715-15,15.002c0,8.283,6.715,14.998,15,14.998c8.288,0,15-6.715,15-14.998
	C24.594,1.246,17.882-5.47,9.593-5.47z M9.593,21.263c-6.478,0-11.729-5.253-11.729-11.73c0-6.479,5.251-11.73,11.729-11.73
	c6.48,0,11.731,5.251,11.731,11.73C21.325,16.006,16.073,21.263,9.593,21.263z"/>
<g>
	
		<rect x="0.727" y="9.65" transform="matrix(-0.7071 -0.7071 0.7071 -0.7071 3.4593 24.359)" fill="#FFFFFF" width="12.094" height="3.627"/>
	
		<rect x="6.716" y="9.649" transform="matrix(0.7071 -0.7071 0.7071 0.7071 -4.3677 12.3803)" fill="#FFFFFF" width="12.092" height="3.627"/>
</g>
</svg>
