<?xml version="1.0" encoding="utf-8"?>
<!-- Generator: Adobe Illustrator 19.1.0, SVG Export Plug-In . SVG Version: 6.00 Build 0)  -->
<svg version="1.1" id="Layer_1" xmlns="http://www.w3.org/2000/svg" xmlns:xlink="http://www.w3.org/1999/xlink" x="0px" y="0px"
	 viewBox="-391.5 218.5 125 125" style="enable-background:new -391.5 218.5 125 125;" xml:space="preserve">
<style type="text/css">
	.st0{fill:none;stroke:#F5825E;stroke-width:2;stroke-miterlimit:10;}
</style>
<g id="XMLID_1614_">
	<path id="XMLID_2663_" class="st0" d="M-328.5,316.9c-20.1-0.4-37.2-7-50.7-21.6c-3.7-4-6.5-8.8-9.7-13.3c-0.3-0.4-0.3-1.5,0.1-2.1
		c10.9-19.4,27.6-30.7,49.5-34c20.1-3,38.2,2,54.2,14.6c6.7,5.3,11.8,12,15.9,19.4c0.3,0.5,0.3,1.5-0.1,2.1
		c-10.3,18.6-26.3,29.7-47.1,33.7c-1.4,0.3-2.8,0.6-4.2,0.7C-323.3,316.7-326.1,316.7-328.5,316.9z M-341.1,260.7
		c-0.4,0-0.7-0.1-0.9,0c-12.1,3-22.2,9.2-30,19.2c-0.9,1.1-0.3,1.7,0.3,2.5c5.3,6.8,12,12.1,19.9,15.4c3.4,1.5,6.9,2.6,10.4,3.8
		c0.1-0.2,0.1-0.3,0.2-0.4C-355.8,291.9-356.2,270.4-341.1,260.7z M-316.9,301.2c0.6,0,0.9,0.1,1.3,0c11.9-3,21.9-9.1,29.6-18.8
		c0.9-1.1,0.8-1.8,0-2.8c-6.1-7.6-13.7-13.2-22.7-16.6c-2.5-0.9-5-1.6-7.6-2.4c-0.1,0.2-0.2,0.3-0.3,0.4c7.1,4.8,11.1,11.3,11.2,20
		C-305.5,289.6-309.7,296.2-316.9,301.2z M-331.6,271.6c0-3.1-2.5-5.5-5.6-5.5c-3.2,0-5.6,2.5-5.6,5.6c0.1,3.1,2.6,5.6,5.6,5.6
		C-334,277.3-331.5,274.8-331.6,271.6z"/>
</g>
</svg>
