<?xml version="1.0" encoding="utf-8"?>
<!-- Generator: Adobe Illustrator 19.1.0, SVG Export Plug-In . SVG Version: 6.00 Build 0)  -->
<svg version="1.1" id="Layer_1" xmlns="http://www.w3.org/2000/svg" xmlns:xlink="http://www.w3.org/1999/xlink" x="0px" y="0px"
	 viewBox="-329 231 100 100" style="enable-background:new -329 231 100 100;" xml:space="preserve">
<style type="text/css">
	.st0{fill:#4DBFC0;}
</style>
<g id="XMLID_11043_">
	<path id="XMLID_11044_" class="st0" d="M-328.7,233.3c0.2,0.3,0.4,0.6,0.5,0.9c5.7,11.5,11.4,22.9,17.1,34.4
		c6.4,12.7,12.6,25.4,19,38.1c3.6,7.2,7.1,14.4,10.7,21.6c0.5,1,1.1,1.5,2.3,1.5c2.6-0.1,5.3,0,7.9,0c1.1,0,1.8-0.4,2.1-1.4
		c4-9.2,8-18.4,12-27.5c4.5-10.3,8.9-20.5,13.4-30.7c1.9-4.2,3.6-8.3,5.5-12.5c0.7-1.6,0-2.7-1.8-2.7c-7.6,0-15.1,0-22.7,0
		c-1.3,0-1.7,0.3-2.1,1.5c-3,9.2-6.1,18.3-9.3,27.4c-0.3,0.8-0.6,1.5-1.5,1.5c-0.9,0-1.4-0.5-1.8-1.3c-5.5-11.8-11.1-23.5-16.6-35.3
		c-2.6-5.6-5.2-11.1-7.8-16.6c-0.1-0.3-0.3-0.6-0.5-0.9c0.3-0.2,0.6-0.1,0.9-0.1c23.4,0,46.6,0,70,0c1.6,0,2,0.4,2,2.1
		c0,31.8,0,63.5,0,95.4c0,1.7-0.5,2.1-2.1,2.1c-31.8,0-63.5,0-95.3,0c-1.7,0-2.1-0.4-2.1-2c0-31.5,0-63,0-94.4
		C-328.8,234-328.9,233.7-328.7,233.3z"/>
</g>
</svg>
