<?xml version="1.0" encoding="utf-8"?>
<!-- Generator: Adobe Illustrator 19.1.0, SVG Export Plug-In . SVG Version: 6.00 Build 0)  -->
<svg version="1.1" id="Layer_1" xmlns="http://www.w3.org/2000/svg" xmlns:xlink="http://www.w3.org/1999/xlink" x="0px" y="0px"
	 viewBox="-329 231 100 100" style="enable-background:new -329 231 100 100;" xml:space="preserve">
<style type="text/css">
	.st0{fill:#A5BC39;}
</style>
<g id="XMLID_11045_">
	<g id="XMLID_18_">
		<path id="XMLID_19_" class="st0" d="M-328.8,233.2c0.2,0.4,0.4,0.6,0.5,0.9c5.8,11.5,11.5,23,17.2,34.5
			c6.4,12.8,12.7,25.5,19.1,38.3c3.6,7.2,7.2,14.5,10.8,21.7c0.5,1.1,1.2,1.5,2.3,1.5c2.7-0.1,5.3-0.1,8,0c1.1,0.1,1.8-0.4,2.2-1.4
			c4-9.3,8.1-18.5,12.1-27.7c4.5-10.3,9-20.6,13.5-30.8c1.9-4.2,3.7-8.4,5.5-12.6c0.7-1.6,0.1-2.7-1.8-2.7c-7.6,0-15.2,0-22.9,0
			c-1.3,0-1.7,0.3-2.1,1.5c-3.1,9.2-6.3,18.4-9.4,27.5c-0.3,0.8-0.6,1.5-1.6,1.5c-0.9,0.1-1.4-0.5-1.8-1.3
			c-5.5-11.8-11.1-23.6-16.7-35.4c-2.6-5.6-5.3-11.1-7.9-16.7c-0.2-0.3-0.3-0.6-0.5-0.9c0.3-0.2,0.6-0.1,0.9-0.1
			c23.5,0,46.9,0,70.3,0c1.7,0,2.1,0.4,2.1,2.1c0,31.9,0,63.8,0,95.7c0,1.7-0.5,2.2-2.2,2.2c-31.9,0-63.8,0-95.7,0
			c-1.7,0-2.1-0.4-2.1-2.1c0-31.6,0-63.2,0-94.8C-329,233.9-329,233.6-328.8,233.2z"/>
	</g>
</g>
</svg>
