<?xml version="1.0" encoding="utf-8"?>
<!-- Generator: Adobe Illustrator 19.1.0, SVG Export Plug-In . SVG Version: 6.00 Build 0)  -->
<svg version="1.1" id="Layer_1" xmlns="http://www.w3.org/2000/svg" xmlns:xlink="http://www.w3.org/1999/xlink" x="0px" y="0px"
	 viewBox="-366.5 181 175 230" style="enable-background:new -366.5 181 175 230;" xml:space="preserve">
<style type="text/css">
	.st0{fill:#F5835F;}
	.st1{fill:#03202B;}
</style>
<g id="XMLID_11045_">
	<g id="XMLID_18_">
		<path id="XMLID_19_" class="st0" d="M-366.2,184.8c0.4,0.6,0.6,1,0.9,1.6c10.1,19.9,20,39.7,30.1,59.7
			c11.1,22.1,22.2,44.2,33.4,66.2c6.3,12.5,12.6,25,18.8,37.6c0.9,1.8,2,2.5,4,2.5c4.6-0.2,9.3-0.1,13.9,0c1.9,0.1,3.1-0.6,3.8-2.3
			c7-16,14.1-32,21.2-47.9c7.9-17.8,15.7-35.6,23.5-53.3c3.2-7.3,6.5-14.5,9.6-21.8c1.2-2.8,0.1-4.6-3.1-4.6c-13.3,0-26.6,0-40,0
			c-2.3,0-3,0.5-3.7,2.6c-5.4,15.8-10.9,31.8-16.4,47.6c-0.4,1.4-1.1,2.5-2.7,2.5c-1.6,0.1-2.5-0.9-3.1-2.2
			c-9.6-20.4-19.4-40.8-29.2-61.3c-4.6-9.6-9.2-19.2-13.7-28.8c-0.3-0.5-0.5-1-0.9-1.6c0.5-0.3,1.1-0.2,1.6-0.2c41.1,0,82,0,123,0
			c2.9,0,3.7,0.7,3.7,3.6c0,55.2,0,110.5,0,165.7c0,2.9-0.8,3.7-3.8,3.7c-55.8,0-111.7,0-167.5,0c-3,0-3.7-0.7-3.7-3.6
			c0-54.7,0-109.5,0-164.2C-366.5,186-366.6,185.5-366.2,184.8z"/>
	</g>
</g>
<g>
	<path class="st1" d="M-327.9,395v-20h13.7v3.1h-10.2v5.2h10v3.1h-10v5.6h10.2v3.1H-327.9z"/>
	<path class="st1" d="M-300.9,395v-9.1c0-2.3-1.2-3-2.9-3c-1.6,0-3,1-3.7,1.9V395h-3.2v-14.5h3.2v2c1-1.1,2.8-2.3,5.1-2.3
		c3.1,0,4.7,1.7,4.7,4.7V395H-300.9z"/>
	<path class="st1" d="M-293.8,398.7l1.5-2.3c1.2,1.4,2.7,1.9,4.6,1.9c2.1,0,4.3-1,4.3-4v-1.7c-1.1,1.5-2.8,2.4-4.6,2.4
		c-3.7,0-6.4-2.7-6.4-7.4c0-4.7,2.7-7.4,6.4-7.4c1.8,0,3.5,0.8,4.6,2.4v-2h3.1v13.7c0,5.2-3.9,6.6-7.4,6.6
		C-290.2,400.9-292,400.3-293.8,398.7z M-283.4,390.3v-5.4c-0.7-1-2.3-1.9-3.7-1.9c-2.5,0-4.1,1.9-4.1,4.6c0,2.8,1.6,4.6,4.1,4.6
		C-285.7,392.2-284.1,391.3-283.4,390.3z"/>
	<path class="st1" d="M-267.3,395v-1.6c-1.1,1.3-2.8,2-4.7,2c-2.3,0-5-1.6-5-4.8c0-3.4,2.6-4.7,5-4.7c2,0,3.6,0.6,4.7,1.9v-2.2
		c0-1.7-1.4-2.7-3.4-2.7c-1.6,0-3.1,0.6-4.3,1.9l-1.3-2.2c1.7-1.6,3.8-2.3,6.1-2.3c3.2,0,6.1,1.4,6.1,5.2v9.6H-267.3z M-267.3,391.7
		v-2.2c-0.8-1-2.1-1.5-3.4-1.5c-1.8,0-3.1,1-3.1,2.6c0,1.6,1.3,2.6,3.1,2.6C-269.4,393.2-268.1,392.7-267.3,391.7z"/>
	<path class="st1" d="M-260.3,398.7l1.5-2.3c1.2,1.4,2.7,1.9,4.6,1.9c2.1,0,4.3-1,4.3-4v-1.7c-1.1,1.5-2.8,2.4-4.7,2.4
		c-3.7,0-6.4-2.7-6.4-7.4c0-4.7,2.7-7.4,6.4-7.4c1.8,0,3.5,0.8,4.7,2.4v-2h3.1v13.7c0,5.2-3.9,6.6-7.4,6.6
		C-256.6,400.9-258.5,400.3-260.3,398.7z M-249.9,390.3v-5.4c-0.7-1-2.3-1.9-3.7-1.9c-2.5,0-4.1,1.9-4.1,4.6c0,2.8,1.6,4.6,4.1,4.6
		C-252.1,392.2-250.6,391.3-249.9,390.3z"/>
	<path class="st1" d="M-243.5,387.7c0-4.2,3.1-7.6,7.3-7.6c4.3,0,7.1,3.3,7.1,7.9v0.8h-11.2c0.2,2.2,1.9,4,4.6,4
		c1.4,0,3.1-0.6,4.1-1.6l1.4,2.1c-1.5,1.4-3.6,2.1-5.9,2.1C-240.3,395.4-243.5,392.3-243.5,387.7z M-236.2,382.7
		c-2.7,0-3.9,2.1-4,3.8h8.2C-232.2,384.8-233.4,382.7-236.2,382.7z"/>
</g>
</svg>
