<?xml version="1.0" encoding="utf-8"?>
<!-- Generator: Adobe Illustrator 19.1.0, SVG Export Plug-In . SVG Version: 6.00 Build 0)  -->
<svg version="1.1" id="Layer_1" xmlns="http://www.w3.org/2000/svg" xmlns:xlink="http://www.w3.org/1999/xlink" x="0px" y="0px"
	 viewBox="-366.5 181 175 230" style="enable-background:new -366.5 181 175 230;" xml:space="preserve">
<style type="text/css">
	.st0{fill:#4DBFC0;}
	.st1{fill:#03202B;}
</style>
<g id="XMLID_11045_">
	<g id="XMLID_18_">
		<path id="XMLID_19_" class="st0" d="M-366.2,184.8c0.4,0.6,0.6,1,0.9,1.6c10.1,19.9,20,39.7,30.1,59.7
			c11.1,22.1,22.2,44.2,33.4,66.2c6.3,12.5,12.6,25,18.8,37.6c0.9,1.8,2,2.5,4,2.5c4.6-0.2,9.3-0.1,13.9,0c1.9,0.1,3.1-0.6,3.8-2.3
			c7-16,14.1-32,21.2-47.9c7.9-17.8,15.7-35.6,23.5-53.3c3.2-7.3,6.5-14.5,9.6-21.8c1.2-2.8,0.1-4.6-3.1-4.6c-13.3,0-26.6,0-40,0
			c-2.3,0-3,0.5-3.7,2.6c-5.4,15.8-10.9,31.8-16.4,47.6c-0.4,1.4-1.1,2.5-2.7,2.5c-1.6,0.1-2.5-0.9-3.1-2.2
			c-9.6-20.4-19.4-40.8-29.2-61.3c-4.6-9.6-9.2-19.2-13.7-28.8c-0.3-0.5-0.5-1-0.9-1.6c0.5-0.3,1.1-0.2,1.6-0.2c41.1,0,82,0,123,0
			c2.9,0,3.7,0.7,3.7,3.6c0,55.2,0,110.5,0,165.7c0,2.9-0.8,3.7-3.8,3.7c-55.8,0-111.7,0-167.5,0c-3,0-3.7-0.7-3.7-3.6
			c0-54.7,0-109.5,0-164.2C-366.5,186-366.6,185.5-366.2,184.8z"/>
	</g>
</g>
<g>
	<path class="st1" d="M-331,385c0-6.2,4.6-10.3,10.5-10.3c4,0,6.5,2.1,8,4.5l-3,1.6c-1-1.7-2.9-2.9-5-2.9c-4,0-6.9,3-6.9,7.2
		c0,4.2,2.9,7.2,6.9,7.2c2.1,0,4.1-1.3,5-2.9l3,1.5c-1.5,2.4-4,4.5-8,4.5C-326.4,395.4-331,391.2-331,385z"/>
	<path class="st1" d="M-310.6,387.7c0-4.2,2.8-7.6,7.4-7.6c4.6,0,7.4,3.4,7.4,7.6c0,4.1-2.8,7.6-7.4,7.6
		C-307.8,395.4-310.6,391.9-310.6,387.7z M-299,387.7c0-2.5-1.5-4.8-4.2-4.8c-2.7,0-4.2,2.3-4.2,4.8c0,2.6,1.5,4.8,4.2,4.8
		C-300.5,392.6-299,390.3-299,387.7z"/>
	<path class="st1" d="M-282.7,395v-9.1c0-2.3-1.2-3-2.9-3c-1.6,0-3,1-3.7,1.9V395h-3.2v-14.5h3.2v2c1-1.1,2.8-2.3,5.1-2.3
		c3.1,0,4.7,1.7,4.7,4.7V395H-282.7z"/>
	<path class="st1" d="M-271.7,395l-5.9-14.5h3.4l4.2,10.9l4.2-10.9h3.4l-5.9,14.5H-271.7z"/>
	<path class="st1" d="M-261.3,387.7c0-4.2,3.1-7.6,7.3-7.6c4.3,0,7.1,3.3,7.1,7.9v0.8H-258c0.2,2.2,1.9,4,4.6,4
		c1.4,0,3.1-0.6,4.1-1.6l1.4,2.1c-1.5,1.4-3.6,2.1-5.9,2.1C-258.1,395.4-261.3,392.3-261.3,387.7z M-254,382.7c-2.7,0-3.9,2.1-4,3.8
		h8.2C-249.9,384.8-251.1,382.7-254,382.7z"/>
	<path class="st1" d="M-243.7,395v-14.5h3.1v2.1c1.1-1.4,2.9-2.5,4.7-2.5v3.1c-0.3-0.1-0.6-0.1-1-0.1c-1.3,0-3.1,0.9-3.8,2v9.9
		H-243.7z"/>
	<path class="st1" d="M-232.6,391.6v-8.4h-2.4v-2.7h2.4v-4h3.1v4h2.9v2.7h-2.9v7.6c0,1,0.5,1.7,1.4,1.7c0.6,0,1.1-0.3,1.4-0.5
		l0.8,2.4c-0.6,0.5-1.5,0.9-2.9,0.9C-231.4,395.4-232.6,394-232.6,391.6z"/>
</g>
</svg>
