<?xml version="1.0" encoding="utf-8"?>
<!-- Generator: Adobe Illustrator 19.1.0, SVG Export Plug-In . SVG Version: 6.00 Build 0)  -->
<svg version="1.1" id="Layer_1" xmlns="http://www.w3.org/2000/svg" xmlns:xlink="http://www.w3.org/1999/xlink" x="0px" y="0px"
	 viewBox="-366.5 181 175 230" style="enable-background:new -366.5 181 175 230;" xml:space="preserve">
<style type="text/css">
	.st0{fill:#A5BC39;}
	.st1{fill:#FFFFFF;}
</style>
<g id="XMLID_11045_">
	<g id="XMLID_18_">
		<path id="XMLID_19_" class="st0" d="M-366.2,184.8c0.4,0.6,0.6,1,0.9,1.6c10.1,19.9,20,39.7,30.1,59.7
			c11.1,22.1,22.2,44.2,33.4,66.2c6.3,12.5,12.6,25,18.8,37.6c0.9,1.8,2,2.5,4,2.5c4.6-0.2,9.3-0.1,13.9,0c1.9,0.1,3.1-0.6,3.8-2.3
			c7-16,14.1-32,21.2-47.9c7.9-17.8,15.7-35.6,23.5-53.3c3.2-7.3,6.5-14.5,9.6-21.8c1.2-2.8,0.1-4.6-3.1-4.6c-13.3,0-26.6,0-40,0
			c-2.3,0-3,0.5-3.7,2.6c-5.4,15.8-10.9,31.8-16.4,47.6c-0.4,1.4-1.1,2.5-2.7,2.5c-1.6,0.1-2.5-0.9-3.1-2.2
			c-9.6-20.4-19.4-40.8-29.2-61.3c-4.6-9.6-9.2-19.2-13.7-28.8c-0.3-0.5-0.5-1-0.9-1.6c0.5-0.3,1.1-0.2,1.6-0.2c41.1,0,82,0,123,0
			c2.9,0,3.7,0.7,3.7,3.6c0,55.2,0,110.5,0,165.7c0,2.9-0.8,3.7-3.8,3.7c-55.8,0-111.7,0-167.5,0c-3,0-3.7-0.7-3.7-3.6
			c0-54.7,0-109.5,0-164.2C-366.5,186-366.6,185.5-366.2,184.8z"/>
	</g>
</g>
<g>
	<path class="st1" d="M-306.8,395l-4.4-7.5h-3.5v7.5h-3.5v-20h8.8c4,0,6.6,2.5,6.6,6.3c0,3.5-2.3,5.5-4.8,5.9l4.9,7.9H-306.8z
		 M-306.5,381.2c0-1.9-1.4-3.1-3.4-3.1h-4.8v6.4h4.8C-307.9,384.4-306.5,383.2-306.5,381.2z"/>
	<path class="st1" d="M-301.2,387.7c0-4.2,3.1-7.6,7.3-7.6c4.4,0,7.1,3.3,7.1,7.9v0.8h-11.2c0.2,2.2,1.9,4,4.6,4
		c1.4,0,3.1-0.6,4.1-1.6l1.4,2.1c-1.5,1.4-3.6,2.1-5.9,2.1C-298,395.4-301.2,392.3-301.2,387.7z M-293.9,382.7c-2.7,0-3.9,2.1-4,3.8
		h8.2C-289.9,384.8-291.1,382.7-293.9,382.7z"/>
	<path class="st1" d="M-274.8,395v-1.6c-1.1,1.3-2.8,2-4.7,2c-2.3,0-5-1.6-5-4.8c0-3.4,2.6-4.7,5-4.7c2,0,3.6,0.6,4.7,1.9v-2.2
		c0-1.7-1.4-2.7-3.4-2.7c-1.6,0-3.1,0.6-4.3,1.9l-1.3-2.2c1.7-1.6,3.8-2.3,6.1-2.3c3.2,0,6.1,1.4,6.1,5.2v9.6H-274.8z M-274.8,391.7
		v-2.2c-0.8-1-2.1-1.5-3.5-1.5c-1.8,0-3.1,1-3.1,2.6c0,1.6,1.4,2.6,3.1,2.6C-276.9,393.2-275.5,392.7-274.8,391.7z"/>
	<path class="st1" d="M-268.4,387.7c0-4.4,3.1-7.6,7.5-7.6c2.8,0,4.5,1.2,5.5,2.6l-2.1,1.9c-0.8-1.1-1.9-1.7-3.3-1.7
		c-2.6,0-4.4,2-4.4,4.8s1.8,4.8,4.4,4.8c1.4,0,2.5-0.6,3.3-1.7l2.1,2c-1,1.3-2.7,2.6-5.5,2.6C-265.3,395.4-268.4,392.1-268.4,387.7z
		"/>
	<path class="st1" d="M-242.8,395v-9.1c0-2.3-1.1-2.9-2.9-2.9c-1.6,0-3,1-3.7,1.9V395h-3.2v-20h3.2v7.5c1-1.1,2.8-2.3,5.1-2.3
		c3.1,0,4.7,1.6,4.7,4.6V395H-242.8z"/>
</g>
</svg>
